<?xml version="1.0" encoding="UTF-8" standalone="no"?>
<!DOCTYPE svg PUBLIC "-//W3C//DTD SVG 1.1//EN"
 "http://www.w3.org/Graphics/SVG/1.1/DTD/svg11.dtd">
<!-- Generated by graphviz version 12.1.2 (20240928.0832)
 -->
<!-- Title: public.dm_participants Pages: 1 -->
<svg width="1041pt" height="602pt"
 viewBox="0.00 0.00 1041.02 602.00" xmlns="http://www.w3.org/2000/svg" xmlns:xlink="http://www.w3.org/1999/xlink">
<g id="graph0" class="graph" transform="scale(1 1) rotate(0) translate(4 598)">
<title>public.dm_participants</title>
<polygon fill="white" stroke="none" points="-4,4 -4,-598 1037.02,-598 1037.02,4 -4,4"/>
<!-- public.dm_participants -->
<g id="node1" class="node">
<title>public.dm_participants</title>
<polygon fill="#efefef" stroke="none" points="380.11,-512.2 380.11,-547.8 684.06,-547.8 684.06,-512.2 380.11,-512.2"/>
<polygon fill="none" stroke="black" points="380.11,-512.2 380.11,-547.8 684.06,-547.8 684.06,-512.2 380.11,-512.2"/>
<text text-anchor="start" x="387.11" y="-525.6" font-family="Arial Bold" font-size="18.00">public.dm_participants</text>
<text text-anchor="start" x="552.58" y="-525.6" font-family="Arial" font-size="14.00">    </text>
<text text-anchor="start" x="583.69" y="-525.6" font-family="Arial" font-size="14.00" fill="#666666">[BASE TABLE]</text>
<polygon fill="none" stroke="black" points="380.11,-481.4 380.11,-512.2 684.06,-512.2 684.06,-481.4 380.11,-481.4"/>
<text text-anchor="start" x="387.11" y="-493.6" font-family="Arial" font-size="14.00">channel_id </text>
<text text-anchor="start" x="458.73" y="-493.6" font-family="Arial" font-size="14.00" fill="#666666">[bigint]</text>
<polygon fill="none" stroke="black" points="380.11,-450.6 380.11,-481.4 684.06,-481.4 684.06,-450.6 380.11,-450.6"/>
<text text-anchor="start" x="387.11" y="-462.8" font-family="Arial" font-size="14.00">user_id </text>
<text text-anchor="start" x="436.92" y="-462.8" font-family="Arial" font-size="14.00" fill="#666666">[bigint]</text>
<polygon fill="none" stroke="black" stroke-width="3" points="378.61,-449.1 378.61,-549.3 685.56,-549.3 685.56,-449.1 378.61,-449.1"/>
</g>
<!-- public.channels -->
<g id="node2" class="node">
<title>public.channels</title>
<polygon fill="#efefef" stroke="none" points="226.25,-274.2 226.25,-309.8 479.93,-309.8 479.93,-274.2 226.25,-274.2"/>
<polygon fill="none" stroke="black" points="226.25,-274.2 226.25,-309.8 479.93,-309.8 479.93,-274.2 226.25,-274.2"/>
<text text-anchor="start" x="234.61" y="-287.6" font-family="Arial Bold" font-size="18.00">public.channels</text>
<text text-anchor="start" x="347.08" y="-287.6" font-family="Arial" font-size="14.00">    </text>
<text text-anchor="start" x="378.19" y="-287.6" font-family="Arial" font-size="14.00" fill="#666666">[BASE TABLE]</text>
<polygon fill="none" stroke="black" points="226.25,-243.4 226.25,-274.2 479.93,-274.2 479.93,-243.4 226.25,-243.4"/>
<text text-anchor="start" x="233.25" y="-255.6" font-family="Arial" font-size="14.00">id </text>
<text text-anchor="start" x="248.03" y="-255.6" font-family="Arial" font-size="14.00" fill="#666666">[bigint]</text>
<polygon fill="none" stroke="black" points="226.25,-212.6 226.25,-243.4 479.93,-243.4 479.93,-212.6 226.25,-212.6"/>
<text text-anchor="start" x="233.25" y="-224.8" font-family="Arial" font-size="14.00">type </text>
<text text-anchor="start" x="263.6" y="-224.8" font-family="Arial" font-size="14.00" fill="#666666">[channel_type]</text>
<polygon fill="none" stroke="black" points="226.25,-181.8 226.25,-212.6 479.93,-212.6 479.93,-181.8 226.25,-181.8"/>
<text text-anchor="start" x="233.25" y="-194" font-family="Arial" font-size="14.00">guild_id </text>
<text text-anchor="start" x="285.4" y="-194" font-family="Arial" font-size="14.00" fill="#666666">[bigint]</text>
<polygon fill="none" stroke="black" points="226.25,-151 226.25,-181.8 479.93,-181.8 479.93,-151 226.25,-151"/>
<text text-anchor="start" x="233.25" y="-163.2" font-family="Arial" font-size="14.00">name </text>
<text text-anchor="start" x="272.16" y="-163.2" font-family="Arial" font-size="14.00" fill="#666666">[text]</text>
<polygon fill="none" stroke="black" points="226.25,-120.2 226.25,-151 479.93,-151 479.93,-120.2 226.25,-120.2"/>
<text text-anchor="start" x="233.25" y="-132.4" font-family="Arial" font-size="14.00">created_by </text>
<text text-anchor="start" x="306.41" y="-132.4" font-family="Arial" font-size="14.00" fill="#666666">[bigint]</text>
<polygon fill="none" stroke="black" points="226.25,-89.4 226.25,-120.2 479.93,-120.2 479.93,-89.4 226.25,-89.4"/>
<text text-anchor="start" x="233.25" y="-101.6" font-family="Arial" font-size="14.00">created_at </text>
<text text-anchor="start" x="303.3" y="-101.6" font-family="Arial" font-size="14.00" fill="#666666">[timestamp with time zone]</text>
<polygon fill="none" stroke="black" points="226.25,-58.6 226.25,-89.4 479.93,-89.4 479.93,-58.6 226.25,-58.6"/>
<text text-anchor="start" x="233.25" y="-70.8" font-family="Arial" font-size="14.00">updated_at </text>
<text text-anchor="start" x="307.21" y="-70.8" font-family="Arial" font-size="14.00" fill="#666666">[timestamp with time zone]</text>
</g>
<!-- public.dm_participants&#45;&gt;public.channels -->
<g id="edge1" class="edge">
<title>public.dm_participants:channel_id&#45;&gt;public.channels:id</title>
<path fill="none" stroke="black" d="M369.14,-495.35C341.9,-486.23 360.56,-436.07 380.11,-404.4 406.32,-361.94 453.72,-395.46 479.93,-353 501.92,-317.37 522.8,-258.8 480.93,-258.8"/>
<polygon fill="black" stroke="black" points="368.89,-495.31 378.13,-501.21 374.16,-496.08 378.45,-496.7 378.45,-496.7 378.45,-496.7 374.16,-496.08 379.43,-492.3 368.89,-495.31"/>
<text text-anchor="start" x="7" y="-506.8" font-family="Arial" font-size="10.00">FOREIGN KEY (channel_id) REFERENCES channels(id) ON DELETE CASCADE</text>
</g>
<!-- public.users -->
<g id="node3" class="node">
<title>public.users</title>
<polygon fill="#efefef" stroke="none" points="584.25,-289.6 584.25,-325.2 837.93,-325.2 837.93,-289.6 584.25,-289.6"/>
<polygon fill="none" stroke="black" points="584.25,-289.6 584.25,-325.2 837.93,-325.2 837.93,-289.6 584.25,-289.6"/>
<text text-anchor="start" x="605.6" y="-303" font-family="Arial Bold" font-size="18.00">public.users</text>
<text text-anchor="start" x="692.09" y="-303" font-family="Arial" font-size="14.00">    </text>
<text text-anchor="start" x="723.2" y="-303" font-family="Arial" font-size="14.00" fill="#666666">[BASE TABLE]</text>
<polygon fill="none" stroke="black" points="584.25,-258.8 584.25,-289.6 837.93,-289.6 837.93,-258.8 584.25,-258.8"/>
<text text-anchor="start" x="591.25" y="-271" font-family="Arial" font-size="14.00">id </text>
<text text-anchor="start" x="606.03" y="-271" font-family="Arial" font-size="14.00" fill="#666666">[bigint]</text>
<polygon fill="none" stroke="black" points="584.25,-228 584.25,-258.8 837.93,-258.8 837.93,-228 584.25,-228"/>
<text text-anchor="start" x="591.25" y="-240.2" font-family="Arial" font-size="14.00">email </text>
<text text-anchor="start" x="628.59" y="-240.2" font-family="Arial" font-size="14.00" fill="#666666">[text]</text>
<polygon fill="none" stroke="black" points="584.25,-197.2 584.25,-228 837.93,-228 837.93,-197.2 584.25,-197.2"/>
<text text-anchor="start" x="591.25" y="-209.4" font-family="Arial" font-size="14.00">display_name </text>
<text text-anchor="start" x="681.52" y="-209.4" font-family="Arial" font-size="14.00" fill="#666666">[text]</text>
<polygon fill="none" stroke="black" points="584.25,-166.4 584.25,-197.2 837.93,-197.2 837.93,-166.4 584.25,-166.4"/>
<text text-anchor="start" x="591.25" y="-178.6" font-family="Arial" font-size="14.00">avatar_key </text>
<text text-anchor="start" x="663.62" y="-178.6" font-family="Arial" font-size="14.00" fill="#666666">[text]</text>
<polygon fill="none" stroke="black" points="584.25,-135.6 584.25,-166.4 837.93,-166.4 837.93,-135.6 584.25,-135.6"/>
<text text-anchor="start" x="591.25" y="-147.8" font-family="Arial" font-size="14.00">status_text </text>
<text text-anchor="start" x="662.84" y="-147.8" font-family="Arial" font-size="14.00" fill="#666666">[text]</text>
<polygon fill="none" stroke="black" points="584.25,-104.8 584.25,-135.6 837.93,-135.6 837.93,-104.8 584.25,-104.8"/>
<text text-anchor="start" x="591.25" y="-117" font-family="Arial" font-size="14.00">theme </text>
<text text-anchor="start" x="634.05" y="-117" font-family="Arial" font-size="14.00" fill="#666666">[text]</text>
<polygon fill="none" stroke="black" points="584.25,-74 584.25,-104.8 837.93,-104.8 837.93,-74 584.25,-74"/>
<text text-anchor="start" x="591.25" y="-86.2" font-family="Arial" font-size="14.00">created_at </text>
<text text-anchor="start" x="661.3" y="-86.2" font-family="Arial" font-size="14.00" fill="#666666">[timestamp with time zone]</text>
<polygon fill="none" stroke="black" points="584.25,-43.2 584.25,-74 837.93,-74 837.93,-43.2 584.25,-43.2"/>
<text text-anchor="start" x="591.25" y="-55.4" font-family="Arial" font-size="14.00">updated_at </text>
<text text-anchor="start" x="665.21" y="-55.4" font-family="Arial" font-size="14.00" fill="#666666">[timestamp with time zone]</text>
</g>
<!-- public.dm_participants&#45;&gt;public.users -->
<g id="edge2" class="edge">
<title>public.dm_participants:user_id&#45;&gt;public.users:id</title>
<path fill="none" stroke="black" d="M695.12,-463.33C708.47,-454.13 697.5,-423.2 684.06,-404.4 656.65,-366.03 611.56,-406.85 584.25,-368.4 560,-334.27 541.38,-274.2 583.25,-274.2"/>
<polygon fill="black" stroke="black" points="695.05,-463.35 684.23,-461.56 689.9,-464.72 685.71,-465.83 685.71,-465.83 685.71,-465.83 689.9,-464.72 686.54,-470.26 695.05,-463.35"/>
<text text-anchor="start" x="692.06" y="-476" font-family="Arial" font-size="10.00">FOREIGN KEY (user_id) REFERENCES users(id) ON DELETE CASCADE</text>
</g>
</g>
</svg>
