<?xml version="1.0" encoding="UTF-8" standalone="no"?>
<!DOCTYPE svg PUBLIC "-//W3C//DTD SVG 1.1//EN"
 "http://www.w3.org/Graphics/SVG/1.1/DTD/svg11.dtd">
<!-- Generated by graphviz version 12.1.2 (20240928.0832)
 -->
<!-- Title: public.guild_member_roles_v2 Pages: 1 -->
<svg width="1376pt" height="756pt"
 viewBox="0.00 0.00 1375.61 756.00" xmlns="http://www.w3.org/2000/svg" xmlns:xlink="http://www.w3.org/1999/xlink">
<g id="graph0" class="graph" transform="scale(1 1) rotate(0) translate(4 752)">
<title>public.guild_member_roles_v2</title>
<polygon fill="white" stroke="none" points="-4,4 -4,-752 1371.61,-752 1371.61,4 -4,4"/>
<!-- public.guild_member_roles_v2 -->
<g id="node1" class="node">
<title>public.guild_member_roles_v2</title>
<polygon fill="#efefef" stroke="none" points="497.94,-666.2 497.94,-701.8 861.89,-701.8 861.89,-666.2 497.94,-666.2"/>
<polygon fill="none" stroke="black" points="497.94,-666.2 497.94,-701.8 861.89,-701.8 861.89,-666.2 497.94,-666.2"/>
<text text-anchor="start" x="504.94" y="-679.6" font-family="Arial Bold" font-size="18.00">public.guild_member_roles_v2</text>
<text text-anchor="start" x="730.4" y="-679.6" font-family="Arial" font-size="14.00">    </text>
<text text-anchor="start" x="761.52" y="-679.6" font-family="Arial" font-size="14.00" fill="#666666">[BASE TABLE]</text>
<polygon fill="none" stroke="black" points="497.94,-635.4 497.94,-666.2 861.89,-666.2 861.89,-635.4 497.94,-635.4"/>
<text text-anchor="start" x="504.94" y="-647.6" font-family="Arial" font-size="14.00">guild_id </text>
<text text-anchor="start" x="557.1" y="-647.6" font-family="Arial" font-size="14.00" fill="#666666">[bigint]</text>
<polygon fill="none" stroke="black" points="497.94,-604.6 497.94,-635.4 861.89,-635.4 861.89,-604.6 497.94,-604.6"/>
<text text-anchor="start" x="504.94" y="-616.8" font-family="Arial" font-size="14.00">user_id </text>
<text text-anchor="start" x="554.75" y="-616.8" font-family="Arial" font-size="14.00" fill="#666666">[bigint]</text>
<polygon fill="none" stroke="black" points="497.94,-573.8 497.94,-604.6 861.89,-604.6 861.89,-573.8 497.94,-573.8"/>
<text text-anchor="start" x="504.94" y="-586" font-family="Arial" font-size="14.00">role_key </text>
<text text-anchor="start" x="561.75" y="-586" font-family="Arial" font-size="14.00" fill="#666666">[text]</text>
<polygon fill="none" stroke="black" points="497.94,-543 497.94,-573.8 861.89,-573.8 861.89,-543 497.94,-543"/>
<text text-anchor="start" x="504.94" y="-555.2" font-family="Arial" font-size="14.00">assigned_at </text>
<text text-anchor="start" x="584.34" y="-555.2" font-family="Arial" font-size="14.00" fill="#666666">[timestamp with time zone]</text>
<polygon fill="none" stroke="black" points="497.94,-512.2 497.94,-543 861.89,-543 861.89,-512.2 497.94,-512.2"/>
<text text-anchor="start" x="504.94" y="-524.4" font-family="Arial" font-size="14.00">assigned_by </text>
<text text-anchor="start" x="587.45" y="-524.4" font-family="Arial" font-size="14.00" fill="#666666">[bigint]</text>
<polygon fill="none" stroke="black" stroke-width="3" points="496.44,-510.7 496.44,-703.3 863.39,-703.3 863.39,-510.7 496.44,-510.7"/>
</g>
<!-- public.guild_members -->
<g id="node2" class="node">
<title>public.guild_members</title>
<polygon fill="#efefef" stroke="none" points="127.94,-258.8 127.94,-294.4 427.9,-294.4 427.9,-258.8 127.94,-258.8"/>
<polygon fill="none" stroke="black" points="127.94,-258.8 127.94,-294.4 427.9,-294.4 427.9,-258.8 127.94,-258.8"/>
<text text-anchor="start" x="134.94" y="-272.2" font-family="Arial Bold" font-size="18.00">public.guild_members</text>
<text text-anchor="start" x="296.41" y="-272.2" font-family="Arial" font-size="14.00">    </text>
<text text-anchor="start" x="327.53" y="-272.2" font-family="Arial" font-size="14.00" fill="#666666">[BASE TABLE]</text>
<polygon fill="none" stroke="black" points="127.94,-228 127.94,-258.8 427.9,-258.8 427.9,-228 127.94,-228"/>
<text text-anchor="start" x="134.94" y="-240.2" font-family="Arial" font-size="14.00">guild_id </text>
<text text-anchor="start" x="187.09" y="-240.2" font-family="Arial" font-size="14.00" fill="#666666">[bigint]</text>
<polygon fill="none" stroke="black" points="127.94,-197.2 127.94,-228 427.9,-228 427.9,-197.2 127.94,-197.2"/>
<text text-anchor="start" x="134.94" y="-209.4" font-family="Arial" font-size="14.00">user_id </text>
<text text-anchor="start" x="184.74" y="-209.4" font-family="Arial" font-size="14.00" fill="#666666">[bigint]</text>
<polygon fill="none" stroke="black" points="127.94,-166.4 127.94,-197.2 427.9,-197.2 427.9,-166.4 127.94,-166.4"/>
<text text-anchor="start" x="134.94" y="-178.6" font-family="Arial" font-size="14.00">joined_at </text>
<text text-anchor="start" x="195.65" y="-178.6" font-family="Arial" font-size="14.00" fill="#666666">[timestamp with time zone]</text>
<polygon fill="none" stroke="black" points="127.94,-135.6 127.94,-166.4 427.9,-166.4 427.9,-135.6 127.94,-135.6"/>
<text text-anchor="start" x="134.94" y="-147.8" font-family="Arial" font-size="14.00">nickname </text>
<text text-anchor="start" x="198.74" y="-147.8" font-family="Arial" font-size="14.00" fill="#666666">[text]</text>
</g>
<!-- public.guild_member_roles_v2&#45;&gt;public.guild_members -->
<g id="edge1" class="edge">
<title>public.guild_member_roles_v2:guild_id&#45;&gt;public.guild_members:guild_id</title>
<path fill="none" stroke="black" d="M487.11,-648.98C413.87,-619.59 517.1,-243.4 428.9,-243.4"/>
<polygon fill="black" stroke="black" points="486.78,-648.92 495.8,-655.16 492.03,-649.89 496.29,-650.68 496.29,-650.68 496.29,-650.68 492.03,-649.89 497.43,-646.31 486.78,-648.92"/>
<text text-anchor="start" x="7" y="-660.8" font-family="Arial" font-size="10.00">FOREIGN KEY (guild_id, user_id) REFERENCES guild_members(guild_id, user_id) ON DELETE CASCADE</text>
</g>
<!-- public.guild_roles_v2 -->
<g id="node3" class="node">
<title>public.guild_roles_v2</title>
<polygon fill="#efefef" stroke="none" points="531.93,-351.2 531.93,-386.8 827.9,-386.8 827.9,-351.2 531.93,-351.2"/>
<polygon fill="none" stroke="black" points="531.93,-351.2 531.93,-386.8 827.9,-386.8 827.9,-351.2 531.93,-351.2"/>
<text text-anchor="start" x="538.93" y="-364.6" font-family="Arial Bold" font-size="18.00">public.guild_roles_v2</text>
<text text-anchor="start" x="696.41" y="-364.6" font-family="Arial" font-size="14.00">    </text>
<text text-anchor="start" x="727.53" y="-364.6" font-family="Arial" font-size="14.00" fill="#666666">[BASE TABLE]</text>
<polygon fill="none" stroke="black" points="531.93,-320.4 531.93,-351.2 827.9,-351.2 827.9,-320.4 531.93,-320.4"/>
<text text-anchor="start" x="538.93" y="-332.6" font-family="Arial" font-size="14.00">guild_id </text>
<text text-anchor="start" x="591.08" y="-332.6" font-family="Arial" font-size="14.00" fill="#666666">[bigint]</text>
<polygon fill="none" stroke="black" points="531.93,-289.6 531.93,-320.4 827.9,-320.4 827.9,-289.6 531.93,-289.6"/>
<text text-anchor="start" x="538.93" y="-301.8" font-family="Arial" font-size="14.00">role_key </text>
<text text-anchor="start" x="595.74" y="-301.8" font-family="Arial" font-size="14.00" fill="#666666">[text]</text>
<polygon fill="none" stroke="black" points="531.93,-258.8 531.93,-289.6 827.9,-289.6 827.9,-258.8 531.93,-258.8"/>
<text text-anchor="start" x="538.93" y="-271" font-family="Arial" font-size="14.00">name </text>
<text text-anchor="start" x="577.84" y="-271" font-family="Arial" font-size="14.00" fill="#666666">[text]</text>
<polygon fill="none" stroke="black" points="531.93,-228 531.93,-258.8 827.9,-258.8 827.9,-228 531.93,-228"/>
<text text-anchor="start" x="538.93" y="-240.2" font-family="Arial" font-size="14.00">priority </text>
<text text-anchor="start" x="584.83" y="-240.2" font-family="Arial" font-size="14.00" fill="#666666">[integer]</text>
<polygon fill="none" stroke="black" points="531.93,-197.2 531.93,-228 827.9,-228 827.9,-197.2 531.93,-197.2"/>
<text text-anchor="start" x="538.93" y="-209.4" font-family="Arial" font-size="14.00">allow_view </text>
<text text-anchor="start" x="610.52" y="-209.4" font-family="Arial" font-size="14.00" fill="#666666">[boolean]</text>
<polygon fill="none" stroke="black" points="531.93,-166.4 531.93,-197.2 827.9,-197.2 827.9,-166.4 531.93,-166.4"/>
<text text-anchor="start" x="538.93" y="-178.6" font-family="Arial" font-size="14.00">allow_post </text>
<text text-anchor="start" x="608.97" y="-178.6" font-family="Arial" font-size="14.00" fill="#666666">[boolean]</text>
<polygon fill="none" stroke="black" points="531.93,-135.6 531.93,-166.4 827.9,-166.4 827.9,-135.6 531.93,-135.6"/>
<text text-anchor="start" x="538.93" y="-147.8" font-family="Arial" font-size="14.00">allow_manage </text>
<text text-anchor="start" x="633.1" y="-147.8" font-family="Arial" font-size="14.00" fill="#666666">[boolean]</text>
<polygon fill="none" stroke="black" points="531.93,-104.8 531.93,-135.6 827.9,-135.6 827.9,-104.8 531.93,-104.8"/>
<text text-anchor="start" x="538.93" y="-117" font-family="Arial" font-size="14.00">is_system </text>
<text text-anchor="start" x="605.06" y="-117" font-family="Arial" font-size="14.00" fill="#666666">[boolean]</text>
<polygon fill="none" stroke="black" points="531.93,-74 531.93,-104.8 827.9,-104.8 827.9,-74 531.93,-74"/>
<text text-anchor="start" x="538.93" y="-86.2" font-family="Arial" font-size="14.00">created_at </text>
<text text-anchor="start" x="608.98" y="-86.2" font-family="Arial" font-size="14.00" fill="#666666">[timestamp with time zone]</text>
<polygon fill="none" stroke="black" points="531.93,-43.2 531.93,-74 827.9,-74 827.9,-43.2 531.93,-43.2"/>
<text text-anchor="start" x="538.93" y="-55.4" font-family="Arial" font-size="14.00">updated_at </text>
<text text-anchor="start" x="612.89" y="-55.4" font-family="Arial" font-size="14.00" fill="#666666">[timestamp with time zone]</text>
</g>
<!-- public.guild_member_roles_v2&#45;&gt;public.guild_roles_v2 -->
<g id="edge2" class="edge">
<title>public.guild_member_roles_v2:guild_id&#45;&gt;public.guild_roles_v2:guild_id</title>
<path fill="none" stroke="black" d="M870.62,-643.93C892.11,-597.86 861.01,-335.8 828.9,-335.8"/>
<polygon fill="black" stroke="black" points="870.61,-643.93 860.15,-647.22 866.63,-647.48 863.39,-650.36 863.39,-650.36 863.39,-650.36 866.63,-647.48 866.13,-653.94 870.61,-643.93"/>
<text text-anchor="start" x="869.89" y="-660.8" font-family="Arial" font-size="10.00">FOREIGN KEY (guild_id, role_key) REFERENCES guild_roles_v2(guild_id, role_key) ON DELETE RESTRICT</text>
</g>
<!-- public.users -->
<g id="node4" class="node">
<title>public.users</title>
<polygon fill="#efefef" stroke="none" points="932.08,-320.4 932.08,-356 1185.76,-356 1185.76,-320.4 932.08,-320.4"/>
<polygon fill="none" stroke="black" points="932.08,-320.4 932.08,-356 1185.76,-356 1185.76,-320.4 932.08,-320.4"/>
<text text-anchor="start" x="953.43" y="-333.8" font-family="Arial Bold" font-size="18.00">public.users</text>
<text text-anchor="start" x="1039.92" y="-333.8" font-family="Arial" font-size="14.00">    </text>
<text text-anchor="start" x="1071.03" y="-333.8" font-family="Arial" font-size="14.00" fill="#666666">[BASE TABLE]</text>
<polygon fill="none" stroke="black" points="932.08,-289.6 932.08,-320.4 1185.76,-320.4 1185.76,-289.6 932.08,-289.6"/>
<text text-anchor="start" x="939.08" y="-301.8" font-family="Arial" font-size="14.00">id </text>
<text text-anchor="start" x="953.86" y="-301.8" font-family="Arial" font-size="14.00" fill="#666666">[bigint]</text>
<polygon fill="none" stroke="black" points="932.08,-258.8 932.08,-289.6 1185.76,-289.6 1185.76,-258.8 932.08,-258.8"/>
<text text-anchor="start" x="939.08" y="-271" font-family="Arial" font-size="14.00">email </text>
<text text-anchor="start" x="976.42" y="-271" font-family="Arial" font-size="14.00" fill="#666666">[text]</text>
<polygon fill="none" stroke="black" points="932.08,-228 932.08,-258.8 1185.76,-258.8 1185.76,-228 932.08,-228"/>
<text text-anchor="start" x="939.08" y="-240.2" font-family="Arial" font-size="14.00">display_name </text>
<text text-anchor="start" x="1029.35" y="-240.2" font-family="Arial" font-size="14.00" fill="#666666">[text]</text>
<polygon fill="none" stroke="black" points="932.08,-197.2 932.08,-228 1185.76,-228 1185.76,-197.2 932.08,-197.2"/>
<text text-anchor="start" x="939.08" y="-209.4" font-family="Arial" font-size="14.00">avatar_key </text>
<text text-anchor="start" x="1011.45" y="-209.4" font-family="Arial" font-size="14.00" fill="#666666">[text]</text>
<polygon fill="none" stroke="black" points="932.08,-166.4 932.08,-197.2 1185.76,-197.2 1185.76,-166.4 932.08,-166.4"/>
<text text-anchor="start" x="939.08" y="-178.6" font-family="Arial" font-size="14.00">status_text </text>
<text text-anchor="start" x="1010.67" y="-178.6" font-family="Arial" font-size="14.00" fill="#666666">[text]</text>
<polygon fill="none" stroke="black" points="932.08,-135.6 932.08,-166.4 1185.76,-166.4 1185.76,-135.6 932.08,-135.6"/>
<text text-anchor="start" x="939.08" y="-147.8" font-family="Arial" font-size="14.00">theme </text>
<text text-anchor="start" x="981.88" y="-147.8" font-family="Arial" font-size="14.00" fill="#666666">[text]</text>
<polygon fill="none" stroke="black" points="932.08,-104.8 932.08,-135.6 1185.76,-135.6 1185.76,-104.8 932.08,-104.8"/>
<text text-anchor="start" x="939.08" y="-117" font-family="Arial" font-size="14.00">created_at </text>
<text text-anchor="start" x="1009.12" y="-117" font-family="Arial" font-size="14.00" fill="#666666">[timestamp with time zone]</text>
<polygon fill="none" stroke="black" points="932.08,-74 932.08,-104.8 1185.76,-104.8 1185.76,-74 932.08,-74"/>
<text text-anchor="start" x="939.08" y="-86.2" font-family="Arial" font-size="14.00">updated_at </text>
<text text-anchor="start" x="1013.03" y="-86.2" font-family="Arial" font-size="14.00" fill="#666666">[timestamp with time zone]</text>
</g>
<!-- public.guild_member_roles_v2&#45;&gt;public.users -->
<g id="edge3" class="edge">
<title>public.guild_member_roles_v2:assigned_by&#45;&gt;public.users:id</title>
<path fill="none" stroke="black" d="M873.18,-526.75C956.65,-511.8 831.34,-305 931.08,-305"/>
<polygon fill="black" stroke="black" points="873.19,-526.75 862.85,-523.09 867.87,-527.19 863.56,-527.54 863.56,-527.54 863.56,-527.54 867.87,-527.19 863.59,-532.06 873.19,-526.75"/>
<text text-anchor="start" x="869.89" y="-537.6" font-family="Arial" font-size="10.00">FOREIGN KEY (assigned_by) REFERENCES users(id) ON DELETE SET NULL</text>
</g>
</g>
</svg>
