<?xml version="1.0" encoding="UTF-8" standalone="no"?>
<!DOCTYPE svg PUBLIC "-//W3C//DTD SVG 1.1//EN"
 "http://www.w3.org/Graphics/SVG/1.1/DTD/svg11.dtd">
<!-- Generated by graphviz version 12.1.2 (20240928.0832)
 -->
<!-- Title: public.channels Pages: 1 -->
<svg width="3254pt" height="1191pt"
 viewBox="0.00 0.00 3253.79 1191.20" xmlns="http://www.w3.org/2000/svg" xmlns:xlink="http://www.w3.org/1999/xlink">
<g id="graph0" class="graph" transform="scale(1 1) rotate(0) translate(4 1187.2)">
<title>public.channels</title>
<polygon fill="white" stroke="none" points="-4,4 -4,-1187.2 3249.79,-1187.2 3249.79,4 -4,4"/>
<!-- public.channels -->
<g id="node1" class="node">
<title>public.channels</title>
<polygon fill="#efefef" stroke="none" points="1541.3,-666.2 1541.3,-701.8 1794.98,-701.8 1794.98,-666.2 1541.3,-666.2"/>
<polygon fill="none" stroke="black" points="1541.3,-666.2 1541.3,-701.8 1794.98,-701.8 1794.98,-666.2 1541.3,-666.2"/>
<text text-anchor="start" x="1549.66" y="-679.6" font-family="Arial Bold" font-size="18.00">public.channels</text>
<text text-anchor="start" x="1662.12" y="-679.6" font-family="Arial" font-size="14.00">    </text>
<text text-anchor="start" x="1693.24" y="-679.6" font-family="Arial" font-size="14.00" fill="#666666">[BASE TABLE]</text>
<polygon fill="none" stroke="black" points="1541.3,-635.4 1541.3,-666.2 1794.98,-666.2 1794.98,-635.4 1541.3,-635.4"/>
<text text-anchor="start" x="1548.3" y="-647.6" font-family="Arial" font-size="14.00">id </text>
<text text-anchor="start" x="1563.08" y="-647.6" font-family="Arial" font-size="14.00" fill="#666666">[bigint]</text>
<polygon fill="none" stroke="black" points="1541.3,-604.6 1541.3,-635.4 1794.98,-635.4 1794.98,-604.6 1541.3,-604.6"/>
<text text-anchor="start" x="1548.3" y="-616.8" font-family="Arial" font-size="14.00">type </text>
<text text-anchor="start" x="1578.65" y="-616.8" font-family="Arial" font-size="14.00" fill="#666666">[channel_type]</text>
<polygon fill="none" stroke="black" points="1541.3,-573.8 1541.3,-604.6 1794.98,-604.6 1794.98,-573.8 1541.3,-573.8"/>
<text text-anchor="start" x="1548.3" y="-586" font-family="Arial" font-size="14.00">guild_id </text>
<text text-anchor="start" x="1600.45" y="-586" font-family="Arial" font-size="14.00" fill="#666666">[bigint]</text>
<polygon fill="none" stroke="black" points="1541.3,-543 1541.3,-573.8 1794.98,-573.8 1794.98,-543 1541.3,-543"/>
<text text-anchor="start" x="1548.3" y="-555.2" font-family="Arial" font-size="14.00">name </text>
<text text-anchor="start" x="1587.21" y="-555.2" font-family="Arial" font-size="14.00" fill="#666666">[text]</text>
<polygon fill="none" stroke="black" points="1541.3,-512.2 1541.3,-543 1794.98,-543 1794.98,-512.2 1541.3,-512.2"/>
<text text-anchor="start" x="1548.3" y="-524.4" font-family="Arial" font-size="14.00">created_by </text>
<text text-anchor="start" x="1621.45" y="-524.4" font-family="Arial" font-size="14.00" fill="#666666">[bigint]</text>
<polygon fill="none" stroke="black" points="1541.3,-481.4 1541.3,-512.2 1794.98,-512.2 1794.98,-481.4 1541.3,-481.4"/>
<text text-anchor="start" x="1548.3" y="-493.6" font-family="Arial" font-size="14.00">created_at </text>
<text text-anchor="start" x="1618.34" y="-493.6" font-family="Arial" font-size="14.00" fill="#666666">[timestamp with time zone]</text>
<polygon fill="none" stroke="black" points="1541.3,-450.6 1541.3,-481.4 1794.98,-481.4 1794.98,-450.6 1541.3,-450.6"/>
<text text-anchor="start" x="1548.3" y="-462.8" font-family="Arial" font-size="14.00">updated_at </text>
<text text-anchor="start" x="1622.25" y="-462.8" font-family="Arial" font-size="14.00" fill="#666666">[timestamp with time zone]</text>
<polygon fill="none" stroke="black" stroke-width="3" points="1539.8,-449.1 1539.8,-703.3 1796.48,-703.3 1796.48,-449.1 1539.8,-449.1"/>
</g>
<!-- public.guilds -->
<g id="node9" class="node">
<title>public.guilds</title>
<polygon fill="#efefef" stroke="none" points="1362.3,-258.8 1362.3,-294.4 1615.98,-294.4 1615.98,-258.8 1362.3,-258.8"/>
<polygon fill="none" stroke="black" points="1362.3,-258.8 1362.3,-294.4 1615.98,-294.4 1615.98,-258.8 1362.3,-258.8"/>
<text text-anchor="start" x="1380.14" y="-272.2" font-family="Arial Bold" font-size="18.00">public.guilds</text>
<text text-anchor="start" x="1473.64" y="-272.2" font-family="Arial" font-size="14.00">    </text>
<text text-anchor="start" x="1504.76" y="-272.2" font-family="Arial" font-size="14.00" fill="#666666">[BASE TABLE]</text>
<polygon fill="none" stroke="black" points="1362.3,-228 1362.3,-258.8 1615.98,-258.8 1615.98,-228 1362.3,-228"/>
<text text-anchor="start" x="1369.3" y="-240.2" font-family="Arial" font-size="14.00">id </text>
<text text-anchor="start" x="1384.08" y="-240.2" font-family="Arial" font-size="14.00" fill="#666666">[bigint]</text>
<polygon fill="none" stroke="black" points="1362.3,-197.2 1362.3,-228 1615.98,-228 1615.98,-197.2 1362.3,-197.2"/>
<text text-anchor="start" x="1369.3" y="-209.4" font-family="Arial" font-size="14.00">name </text>
<text text-anchor="start" x="1408.21" y="-209.4" font-family="Arial" font-size="14.00" fill="#666666">[text]</text>
<polygon fill="none" stroke="black" points="1362.3,-166.4 1362.3,-197.2 1615.98,-197.2 1615.98,-166.4 1362.3,-166.4"/>
<text text-anchor="start" x="1369.3" y="-178.6" font-family="Arial" font-size="14.00">owner_id </text>
<text text-anchor="start" x="1430" y="-178.6" font-family="Arial" font-size="14.00" fill="#666666">[bigint]</text>
<polygon fill="none" stroke="black" points="1362.3,-135.6 1362.3,-166.4 1615.98,-166.4 1615.98,-135.6 1362.3,-135.6"/>
<text text-anchor="start" x="1369.3" y="-147.8" font-family="Arial" font-size="14.00">icon_key </text>
<text text-anchor="start" x="1428.44" y="-147.8" font-family="Arial" font-size="14.00" fill="#666666">[text]</text>
<polygon fill="none" stroke="black" points="1362.3,-104.8 1362.3,-135.6 1615.98,-135.6 1615.98,-104.8 1362.3,-104.8"/>
<text text-anchor="start" x="1369.3" y="-117" font-family="Arial" font-size="14.00">created_at </text>
<text text-anchor="start" x="1439.34" y="-117" font-family="Arial" font-size="14.00" fill="#666666">[timestamp with time zone]</text>
<polygon fill="none" stroke="black" points="1362.3,-74 1362.3,-104.8 1615.98,-104.8 1615.98,-74 1362.3,-74"/>
<text text-anchor="start" x="1369.3" y="-86.2" font-family="Arial" font-size="14.00">updated_at </text>
<text text-anchor="start" x="1443.25" y="-86.2" font-family="Arial" font-size="14.00" fill="#666666">[timestamp with time zone]</text>
</g>
<!-- public.channels&#45;&gt;public.guilds -->
<g id="edge9" class="edge">
<title>public.channels:guild_id&#45;&gt;public.guilds:id</title>
<path fill="none" stroke="black" d="M1530.22,-589.11C1242.06,-583.89 1609.74,-351.36 1615.98,-337.6 1633.27,-299.47 1658.85,-243.4 1616.98,-243.4"/>
<polygon fill="black" stroke="black" points="1529.96,-589.11 1539.92,-593.7 1535.3,-589.16 1539.63,-589.19 1539.63,-589.19 1539.63,-589.19 1535.3,-589.16 1540,-584.7 1529.96,-589.11"/>
<text text-anchor="start" x="1195.99" y="-599.2" font-family="Arial" font-size="10.00">FOREIGN KEY (guild_id) REFERENCES guilds(id) ON DELETE CASCADE</text>
</g>
<!-- public.users -->
<g id="node10" class="node">
<title>public.users</title>
<polygon fill="#efefef" stroke="none" points="1720.3,-289.6 1720.3,-325.2 1973.98,-325.2 1973.98,-289.6 1720.3,-289.6"/>
<polygon fill="none" stroke="black" points="1720.3,-289.6 1720.3,-325.2 1973.98,-325.2 1973.98,-289.6 1720.3,-289.6"/>
<text text-anchor="start" x="1741.65" y="-303" font-family="Arial Bold" font-size="18.00">public.users</text>
<text text-anchor="start" x="1828.13" y="-303" font-family="Arial" font-size="14.00">    </text>
<text text-anchor="start" x="1859.25" y="-303" font-family="Arial" font-size="14.00" fill="#666666">[BASE TABLE]</text>
<polygon fill="none" stroke="black" points="1720.3,-258.8 1720.3,-289.6 1973.98,-289.6 1973.98,-258.8 1720.3,-258.8"/>
<text text-anchor="start" x="1727.3" y="-271" font-family="Arial" font-size="14.00">id </text>
<text text-anchor="start" x="1742.08" y="-271" font-family="Arial" font-size="14.00" fill="#666666">[bigint]</text>
<polygon fill="none" stroke="black" points="1720.3,-228 1720.3,-258.8 1973.98,-258.8 1973.98,-228 1720.3,-228"/>
<text text-anchor="start" x="1727.3" y="-240.2" font-family="Arial" font-size="14.00">email </text>
<text text-anchor="start" x="1764.64" y="-240.2" font-family="Arial" font-size="14.00" fill="#666666">[text]</text>
<polygon fill="none" stroke="black" points="1720.3,-197.2 1720.3,-228 1973.98,-228 1973.98,-197.2 1720.3,-197.2"/>
<text text-anchor="start" x="1727.3" y="-209.4" font-family="Arial" font-size="14.00">display_name </text>
<text text-anchor="start" x="1817.57" y="-209.4" font-family="Arial" font-size="14.00" fill="#666666">[text]</text>
<polygon fill="none" stroke="black" points="1720.3,-166.4 1720.3,-197.2 1973.98,-197.2 1973.98,-166.4 1720.3,-166.4"/>
<text text-anchor="start" x="1727.3" y="-178.6" font-family="Arial" font-size="14.00">avatar_key </text>
<text text-anchor="start" x="1799.67" y="-178.6" font-family="Arial" font-size="14.00" fill="#666666">[text]</text>
<polygon fill="none" stroke="black" points="1720.3,-135.6 1720.3,-166.4 1973.98,-166.4 1973.98,-135.6 1720.3,-135.6"/>
<text text-anchor="start" x="1727.3" y="-147.8" font-family="Arial" font-size="14.00">status_text </text>
<text text-anchor="start" x="1798.89" y="-147.8" font-family="Arial" font-size="14.00" fill="#666666">[text]</text>
<polygon fill="none" stroke="black" points="1720.3,-104.8 1720.3,-135.6 1973.98,-135.6 1973.98,-104.8 1720.3,-104.8"/>
<text text-anchor="start" x="1727.3" y="-117" font-family="Arial" font-size="14.00">theme </text>
<text text-anchor="start" x="1770.1" y="-117" font-family="Arial" font-size="14.00" fill="#666666">[text]</text>
<polygon fill="none" stroke="black" points="1720.3,-74 1720.3,-104.8 1973.98,-104.8 1973.98,-74 1720.3,-74"/>
<text text-anchor="start" x="1727.3" y="-86.2" font-family="Arial" font-size="14.00">created_at </text>
<text text-anchor="start" x="1797.34" y="-86.2" font-family="Arial" font-size="14.00" fill="#666666">[timestamp with time zone]</text>
<polygon fill="none" stroke="black" points="1720.3,-43.2 1720.3,-74 1973.98,-74 1973.98,-43.2 1720.3,-43.2"/>
<text text-anchor="start" x="1727.3" y="-55.4" font-family="Arial" font-size="14.00">updated_at </text>
<text text-anchor="start" x="1801.25" y="-55.4" font-family="Arial" font-size="14.00" fill="#666666">[timestamp with time zone]</text>
</g>
<!-- public.channels&#45;&gt;public.users -->
<g id="edge10" class="edge">
<title>public.channels:created_by&#45;&gt;public.users:id</title>
<path fill="none" stroke="black" d="M1806.35,-526.5C1847,-516.93 1822.23,-447.4 1794.98,-404.4 1775.25,-373.28 1740.06,-399.5 1720.3,-368.4 1697.84,-333.06 1677.43,-274.2 1719.3,-274.2"/>
<polygon fill="black" stroke="black" points="1806.25,-526.51 1795.83,-523.09 1800.95,-527.07 1796.64,-527.53 1796.64,-527.53 1796.64,-527.53 1800.95,-527.07 1796.79,-532.04 1806.25,-526.51"/>
<text text-anchor="start" x="1802.98" y="-537.6" font-family="Arial" font-size="10.00">FOREIGN KEY (created_by) REFERENCES users(id) ON DELETE SET NULL</text>
</g>
<!-- public.dm_participants -->
<g id="node2" class="node">
<title>public.dm_participants</title>
<polygon fill="#efefef" stroke="none" points="74.16,-996.6 74.16,-1032.2 378.11,-1032.2 378.11,-996.6 74.16,-996.6"/>
<polygon fill="none" stroke="black" points="74.16,-996.6 74.16,-1032.2 378.11,-1032.2 378.11,-996.6 74.16,-996.6"/>
<text text-anchor="start" x="81.16" y="-1010" font-family="Arial Bold" font-size="18.00">public.dm_participants</text>
<text text-anchor="start" x="246.62" y="-1010" font-family="Arial" font-size="14.00">    </text>
<text text-anchor="start" x="277.74" y="-1010" font-family="Arial" font-size="14.00" fill="#666666">[BASE TABLE]</text>
<polygon fill="none" stroke="black" points="74.16,-965.8 74.16,-996.6 378.11,-996.6 378.11,-965.8 74.16,-965.8"/>
<text text-anchor="start" x="81.16" y="-978" font-family="Arial" font-size="14.00">channel_id </text>
<text text-anchor="start" x="152.77" y="-978" font-family="Arial" font-size="14.00" fill="#666666">[bigint]</text>
<polygon fill="none" stroke="black" points="74.16,-935 74.16,-965.8 378.11,-965.8 378.11,-935 74.16,-935"/>
<text text-anchor="start" x="81.16" y="-947.2" font-family="Arial" font-size="14.00">user_id </text>
<text text-anchor="start" x="130.97" y="-947.2" font-family="Arial" font-size="14.00" fill="#666666">[bigint]</text>
</g>
<!-- public.dm_participants&#45;&gt;public.channels -->
<g id="edge1" class="edge">
<title>public.dm_participants:channel_id&#45;&gt;public.channels:id</title>
<path fill="none" stroke="black" d="M389.28,-980.52C461.11,-970.04 364.78,-841.15 430.14,-784 523.66,-702.22 1416.06,-650.8 1540.3,-650.8"/>
<polygon fill="black" stroke="black" points="389.42,-980.51 379.15,-976.69 384.1,-980.87 379.78,-981.16 379.78,-981.16 379.78,-981.16 384.1,-980.87 379.75,-985.67 389.42,-980.51"/>
<text text-anchor="start" x="7" y="-991.2" font-family="Arial" font-size="10.00">FOREIGN KEY (channel_id) REFERENCES channels(id) ON DELETE CASCADE</text>
</g>
<!-- public.dm_pairs -->
<g id="node3" class="node">
<title>public.dm_pairs</title>
<polygon fill="#efefef" stroke="none" points="482.65,-1012 482.65,-1047.6 737.62,-1047.6 737.62,-1012 482.65,-1012"/>
<polygon fill="none" stroke="black" points="482.65,-1012 482.65,-1047.6 737.62,-1047.6 737.62,-1012 482.65,-1012"/>
<text text-anchor="start" x="489.65" y="-1025.4" font-family="Arial Bold" font-size="18.00">public.dm_pairs</text>
<text text-anchor="start" x="606.13" y="-1025.4" font-family="Arial" font-size="14.00">    </text>
<text text-anchor="start" x="637.25" y="-1025.4" font-family="Arial" font-size="14.00" fill="#666666">[BASE TABLE]</text>
<polygon fill="none" stroke="black" points="482.65,-981.2 482.65,-1012 737.62,-1012 737.62,-981.2 482.65,-981.2"/>
<text text-anchor="start" x="489.65" y="-993.4" font-family="Arial" font-size="14.00">user_low </text>
<text text-anchor="start" x="549.57" y="-993.4" font-family="Arial" font-size="14.00" fill="#666666">[bigint]</text>
<polygon fill="none" stroke="black" points="482.65,-950.4 482.65,-981.2 737.62,-981.2 737.62,-950.4 482.65,-950.4"/>
<text text-anchor="start" x="489.65" y="-962.6" font-family="Arial" font-size="14.00">user_high </text>
<text text-anchor="start" x="555.03" y="-962.6" font-family="Arial" font-size="14.00" fill="#666666">[bigint]</text>
<polygon fill="none" stroke="black" points="482.65,-919.6 482.65,-950.4 737.62,-950.4 737.62,-919.6 482.65,-919.6"/>
<text text-anchor="start" x="489.65" y="-931.8" font-family="Arial" font-size="14.00">channel_id </text>
<text text-anchor="start" x="561.26" y="-931.8" font-family="Arial" font-size="14.00" fill="#666666">[bigint]</text>
</g>
<!-- public.dm_pairs&#45;&gt;public.channels -->
<g id="edge2" class="edge">
<title>public.dm_pairs:channel_id&#45;&gt;public.channels:id</title>
<path fill="none" stroke="black" d="M748.98,-934.09C801.69,-923.71 738.48,-827.69 789.14,-784 917.51,-673.27 1370.77,-650.8 1540.3,-650.8"/>
<polygon fill="black" stroke="black" points="748.92,-934.09 738.56,-930.49 743.6,-934.56 739.29,-934.94 739.29,-934.94 739.29,-934.94 743.6,-934.56 739.35,-939.45 748.92,-934.09"/>
<text text-anchor="start" x="366.51" y="-945" font-family="Arial" font-size="10.00">FOREIGN KEY (channel_id) REFERENCES channels(id) ON DELETE CASCADE</text>
</g>
<!-- public.channel_reads -->
<g id="node4" class="node">
<title>public.channel_reads</title>
<polygon fill="#efefef" stroke="none" points="841.67,-1042.8 841.67,-1078.4 1132.6,-1078.4 1132.6,-1042.8 841.67,-1042.8"/>
<polygon fill="none" stroke="black" points="841.67,-1042.8 841.67,-1078.4 1132.6,-1078.4 1132.6,-1042.8 841.67,-1042.8"/>
<text text-anchor="start" x="848.67" y="-1056.2" font-family="Arial Bold" font-size="18.00">public.channel_reads</text>
<text text-anchor="start" x="1001.11" y="-1056.2" font-family="Arial" font-size="14.00">    </text>
<text text-anchor="start" x="1032.23" y="-1056.2" font-family="Arial" font-size="14.00" fill="#666666">[BASE TABLE]</text>
<polygon fill="none" stroke="black" points="841.67,-1012 841.67,-1042.8 1132.6,-1042.8 1132.6,-1012 841.67,-1012"/>
<text text-anchor="start" x="848.67" y="-1024.2" font-family="Arial" font-size="14.00">channel_id </text>
<text text-anchor="start" x="920.29" y="-1024.2" font-family="Arial" font-size="14.00" fill="#666666">[bigint]</text>
<polygon fill="none" stroke="black" points="841.67,-981.2 841.67,-1012 1132.6,-1012 1132.6,-981.2 841.67,-981.2"/>
<text text-anchor="start" x="848.67" y="-993.4" font-family="Arial" font-size="14.00">user_id </text>
<text text-anchor="start" x="898.48" y="-993.4" font-family="Arial" font-size="14.00" fill="#666666">[bigint]</text>
<polygon fill="none" stroke="black" points="841.67,-950.4 841.67,-981.2 1132.6,-981.2 1132.6,-950.4 841.67,-950.4"/>
<text text-anchor="start" x="848.67" y="-962.6" font-family="Arial" font-size="14.00">last_read_message_id </text>
<text text-anchor="start" x="993.43" y="-962.6" font-family="Arial" font-size="14.00" fill="#666666">[bigint]</text>
<polygon fill="none" stroke="black" points="841.67,-919.6 841.67,-950.4 1132.6,-950.4 1132.6,-919.6 841.67,-919.6"/>
<text text-anchor="start" x="848.67" y="-931.8" font-family="Arial" font-size="14.00">last_client_seq </text>
<text text-anchor="start" x="945.18" y="-931.8" font-family="Arial" font-size="14.00" fill="#666666">[bigint]</text>
<polygon fill="none" stroke="black" points="841.67,-888.8 841.67,-919.6 1132.6,-919.6 1132.6,-888.8 841.67,-888.8"/>
<text text-anchor="start" x="848.67" y="-901" font-family="Arial" font-size="14.00">updated_at </text>
<text text-anchor="start" x="922.63" y="-901" font-family="Arial" font-size="14.00" fill="#666666">[timestamp with time zone]</text>
</g>
<!-- public.channel_reads&#45;&gt;public.channels -->
<g id="edge3" class="edge">
<title>public.channel_reads:channel_id&#45;&gt;public.channels:id</title>
<path fill="none" stroke="black" d="M1143.83,-1026.88C1235.69,-1016.89 1115.43,-865.05 1185.14,-784 1295.07,-656.19 1371.71,-650.8 1540.3,-650.8"/>
<polygon fill="black" stroke="black" points="1143.92,-1026.88 1133.71,-1022.89 1138.59,-1027.15 1134.27,-1027.37 1134.27,-1027.37 1134.27,-1027.37 1138.59,-1027.15 1134.16,-1031.88 1143.92,-1026.88"/>
<text text-anchor="start" x="1140.6" y="-1037.4" font-family="Arial" font-size="10.00">FOREIGN KEY (channel_id) REFERENCES channels(id) ON DELETE CASCADE</text>
</g>
<!-- public.channel_last_message -->
<g id="node5" class="node">
<title>public.channel_last_message</title>
<polygon fill="#efefef" stroke="none" points="1237.17,-1027.4 1237.17,-1063 1585.1,-1063 1585.1,-1027.4 1237.17,-1027.4"/>
<polygon fill="none" stroke="black" points="1237.17,-1027.4 1237.17,-1063 1585.1,-1063 1585.1,-1027.4 1237.17,-1027.4"/>
<text text-anchor="start" x="1244.17" y="-1040.8" font-family="Arial Bold" font-size="18.00">public.channel_last_message</text>
<text text-anchor="start" x="1453.61" y="-1040.8" font-family="Arial" font-size="14.00">    </text>
<text text-anchor="start" x="1484.73" y="-1040.8" font-family="Arial" font-size="14.00" fill="#666666">[BASE TABLE]</text>
<polygon fill="none" stroke="black" points="1237.17,-996.6 1237.17,-1027.4 1585.1,-1027.4 1585.1,-996.6 1237.17,-996.6"/>
<text text-anchor="start" x="1244.17" y="-1008.8" font-family="Arial" font-size="14.00">channel_id </text>
<text text-anchor="start" x="1315.79" y="-1008.8" font-family="Arial" font-size="14.00" fill="#666666">[bigint]</text>
<polygon fill="none" stroke="black" points="1237.17,-965.8 1237.17,-996.6 1585.1,-996.6 1585.1,-965.8 1237.17,-965.8"/>
<text text-anchor="start" x="1244.17" y="-978" font-family="Arial" font-size="14.00">last_message_id </text>
<text text-anchor="start" x="1353.13" y="-978" font-family="Arial" font-size="14.00" fill="#666666">[bigint]</text>
<polygon fill="none" stroke="black" points="1237.17,-935 1237.17,-965.8 1585.1,-965.8 1585.1,-935 1237.17,-935"/>
<text text-anchor="start" x="1244.17" y="-947.2" font-family="Arial" font-size="14.00">last_message_at </text>
<text text-anchor="start" x="1353.9" y="-947.2" font-family="Arial" font-size="14.00" fill="#666666">[timestamp with time zone]</text>
<polygon fill="none" stroke="black" points="1237.17,-904.2 1237.17,-935 1585.1,-935 1585.1,-904.2 1237.17,-904.2"/>
<text text-anchor="start" x="1244.17" y="-916.4" font-family="Arial" font-size="14.00">updated_at </text>
<text text-anchor="start" x="1318.13" y="-916.4" font-family="Arial" font-size="14.00" fill="#666666">[timestamp with time zone]</text>
</g>
<!-- public.channel_last_message&#45;&gt;public.channels -->
<g id="edge4" class="edge">
<title>public.channel_last_message:channel_id&#45;&gt;public.channels:id</title>
<path fill="none" stroke="black" d="M1596.5,-1011.57C1696.39,-1002.83 1563.07,-861.22 1541.3,-748 1533.13,-705.58 1497.09,-650.8 1540.3,-650.8"/>
<polygon fill="black" stroke="black" points="1596.42,-1011.58 1586.25,-1007.49 1591.09,-1011.8 1586.77,-1011.97 1586.77,-1011.97 1586.77,-1011.97 1591.09,-1011.8 1586.62,-1016.48 1596.42,-1011.58"/>
<text text-anchor="start" x="1593.1" y="-1022" font-family="Arial" font-size="10.00">FOREIGN KEY (channel_id) REFERENCES channels(id) ON DELETE CASCADE</text>
</g>
<!-- public.channel_role_permission_overrides_v2 -->
<g id="node6" class="node">
<title>public.channel_role_permission_overrides_v2</title>
<polygon fill="#efefef" stroke="none" points="1689.19,-1073.6 1689.19,-1109.2 2161.09,-1109.2 2161.09,-1073.6 1689.19,-1073.6"/>
<polygon fill="none" stroke="black" points="1689.19,-1073.6 1689.19,-1109.2 2161.09,-1109.2 2161.09,-1073.6 1689.19,-1073.6"/>
<text text-anchor="start" x="1696.19" y="-1087" font-family="Arial Bold" font-size="18.00">public.channel_role_permission_overrides_v2</text>
<text text-anchor="start" x="2029.6" y="-1087" font-family="Arial" font-size="14.00">    </text>
<text text-anchor="start" x="2060.72" y="-1087" font-family="Arial" font-size="14.00" fill="#666666">[BASE TABLE]</text>
<polygon fill="none" stroke="black" points="1689.19,-1042.8 1689.19,-1073.6 2161.09,-1073.6 2161.09,-1042.8 1689.19,-1042.8"/>
<text text-anchor="start" x="1696.19" y="-1055" font-family="Arial" font-size="14.00">channel_id </text>
<text text-anchor="start" x="1767.8" y="-1055" font-family="Arial" font-size="14.00" fill="#666666">[bigint]</text>
<polygon fill="none" stroke="black" points="1689.19,-1012 1689.19,-1042.8 2161.09,-1042.8 2161.09,-1012 1689.19,-1012"/>
<text text-anchor="start" x="1696.19" y="-1024.2" font-family="Arial" font-size="14.00">guild_id </text>
<text text-anchor="start" x="1748.34" y="-1024.2" font-family="Arial" font-size="14.00" fill="#666666">[bigint]</text>
<polygon fill="none" stroke="black" points="1689.19,-981.2 1689.19,-1012 2161.09,-1012 2161.09,-981.2 1689.19,-981.2"/>
<text text-anchor="start" x="1696.19" y="-993.4" font-family="Arial" font-size="14.00">role_key </text>
<text text-anchor="start" x="1752.99" y="-993.4" font-family="Arial" font-size="14.00" fill="#666666">[text]</text>
<polygon fill="none" stroke="black" points="1689.19,-950.4 1689.19,-981.2 2161.09,-981.2 2161.09,-950.4 1689.19,-950.4"/>
<text text-anchor="start" x="1696.19" y="-962.6" font-family="Arial" font-size="14.00">can_view </text>
<text text-anchor="start" x="1758.44" y="-962.6" font-family="Arial" font-size="14.00" fill="#666666">[boolean]</text>
<polygon fill="none" stroke="black" points="1689.19,-919.6 1689.19,-950.4 2161.09,-950.4 2161.09,-919.6 1689.19,-919.6"/>
<text text-anchor="start" x="1696.19" y="-931.8" font-family="Arial" font-size="14.00">can_post </text>
<text text-anchor="start" x="1756.9" y="-931.8" font-family="Arial" font-size="14.00" fill="#666666">[boolean]</text>
<polygon fill="none" stroke="black" points="1689.19,-888.8 1689.19,-919.6 2161.09,-919.6 2161.09,-888.8 1689.19,-888.8"/>
<text text-anchor="start" x="1696.19" y="-901" font-family="Arial" font-size="14.00">created_at </text>
<text text-anchor="start" x="1766.23" y="-901" font-family="Arial" font-size="14.00" fill="#666666">[timestamp with time zone]</text>
<polygon fill="none" stroke="black" points="1689.19,-858 1689.19,-888.8 2161.09,-888.8 2161.09,-858 1689.19,-858"/>
<text text-anchor="start" x="1696.19" y="-870.2" font-family="Arial" font-size="14.00">updated_at </text>
<text text-anchor="start" x="1770.14" y="-870.2" font-family="Arial" font-size="14.00" fill="#666666">[timestamp with time zone]</text>
</g>
<!-- public.channel_role_permission_overrides_v2&#45;&gt;public.channels -->
<g id="edge5" class="edge">
<title>public.channel_role_permission_overrides_v2:channel_id&#45;&gt;public.channels:id</title>
<path fill="none" stroke="black" d="M1678.23,-1055.56C1638.03,-1032.09 1664.77,-858.88 1689.19,-814.8 1716.13,-766.16 1767.88,-796.56 1794.98,-748 1816.03,-710.27 1839.18,-650.8 1795.98,-650.8"/>
<polygon fill="black" stroke="black" points="1678.2,-1055.55 1686.71,-1062.46 1683.35,-1056.92 1687.54,-1058.03 1687.54,-1058.03 1687.54,-1058.03 1683.35,-1056.92 1689.01,-1053.76 1678.2,-1055.55"/>
<text text-anchor="start" x="1695.19" y="-1068.2" font-family="Arial" font-size="10.00">FOREIGN KEY (channel_id) REFERENCES channels(id) ON DELETE CASCADE</text>
</g>
<!-- public.channel_user_permission_overrides_v2 -->
<g id="node7" class="node">
<title>public.channel_user_permission_overrides_v2</title>
<polygon fill="#efefef" stroke="none" points="2265.18,-1073.6 2265.18,-1109.2 2739.09,-1109.2 2739.09,-1073.6 2265.18,-1073.6"/>
<polygon fill="none" stroke="black" points="2265.18,-1073.6 2265.18,-1109.2 2739.09,-1109.2 2739.09,-1073.6 2265.18,-1073.6"/>
<text text-anchor="start" x="2272.18" y="-1087" font-family="Arial Bold" font-size="18.00">public.channel_user_permission_overrides_v2</text>
<text text-anchor="start" x="2607.6" y="-1087" font-family="Arial" font-size="14.00">    </text>
<text text-anchor="start" x="2638.72" y="-1087" font-family="Arial" font-size="14.00" fill="#666666">[BASE TABLE]</text>
<polygon fill="none" stroke="black" points="2265.18,-1042.8 2265.18,-1073.6 2739.09,-1073.6 2739.09,-1042.8 2265.18,-1042.8"/>
<text text-anchor="start" x="2272.18" y="-1055" font-family="Arial" font-size="14.00">channel_id </text>
<text text-anchor="start" x="2343.8" y="-1055" font-family="Arial" font-size="14.00" fill="#666666">[bigint]</text>
<polygon fill="none" stroke="black" points="2265.18,-1012 2265.18,-1042.8 2739.09,-1042.8 2739.09,-1012 2265.18,-1012"/>
<text text-anchor="start" x="2272.18" y="-1024.2" font-family="Arial" font-size="14.00">guild_id </text>
<text text-anchor="start" x="2324.33" y="-1024.2" font-family="Arial" font-size="14.00" fill="#666666">[bigint]</text>
<polygon fill="none" stroke="black" points="2265.18,-981.2 2265.18,-1012 2739.09,-1012 2739.09,-981.2 2265.18,-981.2"/>
<text text-anchor="start" x="2272.18" y="-993.4" font-family="Arial" font-size="14.00">user_id </text>
<text text-anchor="start" x="2321.99" y="-993.4" font-family="Arial" font-size="14.00" fill="#666666">[bigint]</text>
<polygon fill="none" stroke="black" points="2265.18,-950.4 2265.18,-981.2 2739.09,-981.2 2739.09,-950.4 2265.18,-950.4"/>
<text text-anchor="start" x="2272.18" y="-962.6" font-family="Arial" font-size="14.00">can_view </text>
<text text-anchor="start" x="2334.44" y="-962.6" font-family="Arial" font-size="14.00" fill="#666666">[boolean]</text>
<polygon fill="none" stroke="black" points="2265.18,-919.6 2265.18,-950.4 2739.09,-950.4 2739.09,-919.6 2265.18,-919.6"/>
<text text-anchor="start" x="2272.18" y="-931.8" font-family="Arial" font-size="14.00">can_post </text>
<text text-anchor="start" x="2332.89" y="-931.8" font-family="Arial" font-size="14.00" fill="#666666">[boolean]</text>
<polygon fill="none" stroke="black" points="2265.18,-888.8 2265.18,-919.6 2739.09,-919.6 2739.09,-888.8 2265.18,-888.8"/>
<text text-anchor="start" x="2272.18" y="-901" font-family="Arial" font-size="14.00">created_at </text>
<text text-anchor="start" x="2342.23" y="-901" font-family="Arial" font-size="14.00" fill="#666666">[timestamp with time zone]</text>
<polygon fill="none" stroke="black" points="2265.18,-858 2265.18,-888.8 2739.09,-888.8 2739.09,-858 2265.18,-858"/>
<text text-anchor="start" x="2272.18" y="-870.2" font-family="Arial" font-size="14.00">updated_at </text>
<text text-anchor="start" x="2346.14" y="-870.2" font-family="Arial" font-size="14.00" fill="#666666">[timestamp with time zone]</text>
</g>
<!-- public.channel_user_permission_overrides_v2&#45;&gt;public.channels -->
<g id="edge6" class="edge">
<title>public.channel_user_permission_overrides_v2:channel_id&#45;&gt;public.channels:id</title>
<path fill="none" stroke="black" d="M2253.99,-1057.74C2149.1,-1047.66 2292.74,-874.23 2213.14,-784 2148.76,-711.03 1893.29,-650.8 1795.98,-650.8"/>
<polygon fill="black" stroke="black" points="2253.86,-1057.73 2263.65,-1062.68 2259.19,-1057.97 2263.51,-1058.17 2263.51,-1058.17 2263.51,-1058.17 2259.19,-1057.97 2264.05,-1053.69 2253.86,-1057.73"/>
<text text-anchor="start" x="2271.18" y="-1068.2" font-family="Arial" font-size="10.00">FOREIGN KEY (channel_id) REFERENCES channels(id) ON DELETE CASCADE</text>
</g>
<!-- public.channel_hierarchies_v2 -->
<g id="node8" class="node">
<title>public.channel_hierarchies_v2</title>
<polygon fill="#efefef" stroke="none" points="2843.69,-1104.4 2843.69,-1140 3202.59,-1140 3202.59,-1104.4 2843.69,-1104.4"/>
<polygon fill="none" stroke="black" points="2843.69,-1104.4 2843.69,-1140 3202.59,-1140 3202.59,-1104.4 2843.69,-1104.4"/>
<text text-anchor="start" x="2850.69" y="-1117.8" font-family="Arial Bold" font-size="18.00">public.channel_hierarchies_v2</text>
<text text-anchor="start" x="3071.1" y="-1117.8" font-family="Arial" font-size="14.00">    </text>
<text text-anchor="start" x="3102.21" y="-1117.8" font-family="Arial" font-size="14.00" fill="#666666">[BASE TABLE]</text>
<polygon fill="none" stroke="black" points="2843.69,-1073.6 2843.69,-1104.4 3202.59,-1104.4 3202.59,-1073.6 2843.69,-1073.6"/>
<text text-anchor="start" x="2850.69" y="-1085.8" font-family="Arial" font-size="14.00">child_channel_id </text>
<text text-anchor="start" x="2958.88" y="-1085.8" font-family="Arial" font-size="14.00" fill="#666666">[bigint]</text>
<polygon fill="none" stroke="black" points="2843.69,-1042.8 2843.69,-1073.6 3202.59,-1073.6 3202.59,-1042.8 2843.69,-1042.8"/>
<text text-anchor="start" x="2850.69" y="-1055" font-family="Arial" font-size="14.00">guild_id </text>
<text text-anchor="start" x="2902.84" y="-1055" font-family="Arial" font-size="14.00" fill="#666666">[bigint]</text>
<polygon fill="none" stroke="black" points="2843.69,-1012 2843.69,-1042.8 3202.59,-1042.8 3202.59,-1012 2843.69,-1012"/>
<text text-anchor="start" x="2850.69" y="-1024.2" font-family="Arial" font-size="14.00">parent_channel_id </text>
<text text-anchor="start" x="2969.78" y="-1024.2" font-family="Arial" font-size="14.00" fill="#666666">[bigint]</text>
<polygon fill="none" stroke="black" points="2843.69,-981.2 2843.69,-1012 3202.59,-1012 3202.59,-981.2 2843.69,-981.2"/>
<text text-anchor="start" x="2850.69" y="-993.4" font-family="Arial" font-size="14.00">hierarchy_kind </text>
<text text-anchor="start" x="2945.62" y="-993.4" font-family="Arial" font-size="14.00" fill="#666666">[channel_hierarchy_kind]</text>
<polygon fill="none" stroke="black" points="2843.69,-950.4 2843.69,-981.2 3202.59,-981.2 3202.59,-950.4 2843.69,-950.4"/>
<text text-anchor="start" x="2850.69" y="-962.6" font-family="Arial" font-size="14.00">parent_message_id </text>
<text text-anchor="start" x="2977.55" y="-962.6" font-family="Arial" font-size="14.00" fill="#666666">[bigint]</text>
<polygon fill="none" stroke="black" points="2843.69,-919.6 2843.69,-950.4 3202.59,-950.4 3202.59,-919.6 2843.69,-919.6"/>
<text text-anchor="start" x="2850.69" y="-931.8" font-family="Arial" font-size="14.00">position </text>
<text text-anchor="start" x="2902.83" y="-931.8" font-family="Arial" font-size="14.00" fill="#666666">[integer]</text>
<polygon fill="none" stroke="black" points="2843.69,-888.8 2843.69,-919.6 3202.59,-919.6 3202.59,-888.8 2843.69,-888.8"/>
<text text-anchor="start" x="2850.69" y="-901" font-family="Arial" font-size="14.00">archived_at </text>
<text text-anchor="start" x="2926.95" y="-901" font-family="Arial" font-size="14.00" fill="#666666">[timestamp with time zone]</text>
<polygon fill="none" stroke="black" points="2843.69,-858 2843.69,-888.8 3202.59,-888.8 3202.59,-858 2843.69,-858"/>
<text text-anchor="start" x="2850.69" y="-870.2" font-family="Arial" font-size="14.00">created_at </text>
<text text-anchor="start" x="2920.73" y="-870.2" font-family="Arial" font-size="14.00" fill="#666666">[timestamp with time zone]</text>
<polygon fill="none" stroke="black" points="2843.69,-827.2 2843.69,-858 3202.59,-858 3202.59,-827.2 2843.69,-827.2"/>
<text text-anchor="start" x="2850.69" y="-839.4" font-family="Arial" font-size="14.00">updated_at </text>
<text text-anchor="start" x="2924.64" y="-839.4" font-family="Arial" font-size="14.00" fill="#666666">[timestamp with time zone]</text>
</g>
<!-- public.channel_hierarchies_v2&#45;&gt;public.channels -->
<g id="edge7" class="edge">
<title>public.channel_hierarchies_v2:child_channel_id&#45;&gt;public.channels:id</title>
<path fill="none" stroke="black" d="M2832.58,-1086.77C2780.89,-1061.49 2837.87,-829.15 2791.14,-784 2710.91,-706.48 1907.54,-650.8 1795.98,-650.8"/>
<polygon fill="black" stroke="black" points="2832.59,-1086.77 2841.39,-1093.32 2837.8,-1087.92 2842.03,-1088.86 2842.03,-1088.86 2842.03,-1088.86 2837.8,-1087.92 2843.33,-1084.53 2832.59,-1086.77"/>
<text text-anchor="start" x="2444.45" y="-1099" font-family="Arial" font-size="10.00">FOREIGN KEY (child_channel_id) REFERENCES channels(id) ON DELETE CASCADE</text>
</g>
<!-- public.channel_hierarchies_v2&#45;&gt;public.channels -->
<g id="edge8" class="edge">
<title>public.channel_hierarchies_v2:parent_channel_id&#45;&gt;public.channels:id</title>
<path fill="none" stroke="black" d="M2832.48,-1026.85C2741.17,-1016.33 2869.53,-856.68 2791.14,-784 2709.33,-708.16 1907.54,-650.8 1795.98,-650.8"/>
<polygon fill="black" stroke="black" points="2832.37,-1026.85 2842.11,-1031.88 2837.69,-1027.13 2842.02,-1027.36 2842.02,-1027.36 2842.02,-1027.36 2837.69,-1027.13 2842.59,-1022.89 2832.37,-1026.85"/>
<text text-anchor="start" x="2436.66" y="-1037.4" font-family="Arial" font-size="10.00">FOREIGN KEY (parent_channel_id) REFERENCES channels(id) ON DELETE CASCADE</text>
</g>
</g>
</svg>
