<?xml version="1.0" encoding="UTF-8" standalone="no"?>
<!DOCTYPE svg PUBLIC "-//W3C//DTD SVG 1.1//EN"
 "http://www.w3.org/Graphics/SVG/1.1/DTD/svg11.dtd">
<!-- Generated by graphviz version 12.1.2 (20240928.0832)
 -->
<!-- Title: public.message_attachments_v2 Pages: 1 -->
<svg width="1132pt" height="848pt"
 viewBox="0.00 0.00 1131.92 848.40" xmlns="http://www.w3.org/2000/svg" xmlns:xlink="http://www.w3.org/1999/xlink">
<g id="graph0" class="graph" transform="scale(1 1) rotate(0) translate(4 844.4)">
<title>public.message_attachments_v2</title>
<polygon fill="white" stroke="none" points="-4,4 -4,-844.4 1127.92,-844.4 1127.92,4 -4,4"/>
<!-- public.message_attachments_v2 -->
<g id="node1" class="node">
<title>public.message_attachments_v2</title>
<polygon fill="#efefef" stroke="none" points="380.11,-758.6 380.11,-794.2 751.04,-794.2 751.04,-758.6 380.11,-758.6"/>
<polygon fill="none" stroke="black" points="380.11,-758.6 380.11,-794.2 751.04,-794.2 751.04,-758.6 380.11,-758.6"/>
<text text-anchor="start" x="387.11" y="-772" font-family="Arial Bold" font-size="18.00">public.message_attachments_v2</text>
<text text-anchor="start" x="619.55" y="-772" font-family="Arial" font-size="14.00">    </text>
<text text-anchor="start" x="650.67" y="-772" font-family="Arial" font-size="14.00" fill="#666666">[BASE TABLE]</text>
<polygon fill="none" stroke="black" points="380.11,-727.8 380.11,-758.6 751.04,-758.6 751.04,-727.8 380.11,-727.8"/>
<text text-anchor="start" x="387.11" y="-740" font-family="Arial" font-size="14.00">message_id </text>
<text text-anchor="start" x="466.49" y="-740" font-family="Arial" font-size="14.00" fill="#666666">[bigint]</text>
<polygon fill="none" stroke="black" points="380.11,-697 380.11,-727.8 751.04,-727.8 751.04,-697 380.11,-697"/>
<text text-anchor="start" x="387.11" y="-709.2" font-family="Arial" font-size="14.00">channel_id </text>
<text text-anchor="start" x="458.73" y="-709.2" font-family="Arial" font-size="14.00" fill="#666666">[bigint]</text>
<polygon fill="none" stroke="black" points="380.11,-666.2 380.11,-697 751.04,-697 751.04,-666.2 380.11,-666.2"/>
<text text-anchor="start" x="387.11" y="-678.4" font-family="Arial" font-size="14.00">object_key </text>
<text text-anchor="start" x="457.93" y="-678.4" font-family="Arial" font-size="14.00" fill="#666666">[text]</text>
<polygon fill="none" stroke="black" points="380.11,-635.4 380.11,-666.2 751.04,-666.2 751.04,-635.4 380.11,-635.4"/>
<text text-anchor="start" x="387.11" y="-647.6" font-family="Arial" font-size="14.00">mime_type </text>
<text text-anchor="start" x="459.47" y="-647.6" font-family="Arial" font-size="14.00" fill="#666666">[text]</text>
<polygon fill="none" stroke="black" points="380.11,-604.6 380.11,-635.4 751.04,-635.4 751.04,-604.6 380.11,-604.6"/>
<text text-anchor="start" x="387.11" y="-616.8" font-family="Arial" font-size="14.00">size_bytes </text>
<text text-anchor="start" x="457.15" y="-616.8" font-family="Arial" font-size="14.00" fill="#666666">[bigint]</text>
<polygon fill="none" stroke="black" points="380.11,-573.8 380.11,-604.6 751.04,-604.6 751.04,-573.8 380.11,-573.8"/>
<text text-anchor="start" x="387.11" y="-586" font-family="Arial" font-size="14.00">sha256 </text>
<text text-anchor="start" x="436.93" y="-586" font-family="Arial" font-size="14.00" fill="#666666">[text]</text>
<polygon fill="none" stroke="black" points="380.11,-543 380.11,-573.8 751.04,-573.8 751.04,-543 380.11,-543"/>
<text text-anchor="start" x="387.11" y="-555.2" font-family="Arial" font-size="14.00">uploaded_by </text>
<text text-anchor="start" x="471.19" y="-555.2" font-family="Arial" font-size="14.00" fill="#666666">[bigint]</text>
<polygon fill="none" stroke="black" points="380.11,-512.2 380.11,-543 751.04,-543 751.04,-512.2 380.11,-512.2"/>
<text text-anchor="start" x="387.11" y="-524.4" font-family="Arial" font-size="14.00">created_at </text>
<text text-anchor="start" x="457.16" y="-524.4" font-family="Arial" font-size="14.00" fill="#666666">[timestamp with time zone]</text>
<polygon fill="none" stroke="black" points="380.11,-481.4 380.11,-512.2 751.04,-512.2 751.04,-481.4 380.11,-481.4"/>
<text text-anchor="start" x="387.11" y="-493.6" font-family="Arial" font-size="14.00">deleted_at </text>
<text text-anchor="start" x="456.39" y="-493.6" font-family="Arial" font-size="14.00" fill="#666666">[timestamp with time zone]</text>
<polygon fill="none" stroke="black" points="380.11,-450.6 380.11,-481.4 751.04,-481.4 751.04,-450.6 380.11,-450.6"/>
<text text-anchor="start" x="387.11" y="-462.8" font-family="Arial" font-size="14.00">retention_until </text>
<text text-anchor="start" x="478.95" y="-462.8" font-family="Arial" font-size="14.00" fill="#666666">[timestamp with time zone]</text>
<polygon fill="none" stroke="black" stroke-width="3" points="378.61,-449.1 378.61,-795.7 752.54,-795.7 752.54,-449.1 378.61,-449.1"/>
</g>
<!-- public.channels -->
<g id="node2" class="node">
<title>public.channels</title>
<polygon fill="#efefef" stroke="none" points="259.73,-274.2 259.73,-309.8 513.42,-309.8 513.42,-274.2 259.73,-274.2"/>
<polygon fill="none" stroke="black" points="259.73,-274.2 259.73,-309.8 513.42,-309.8 513.42,-274.2 259.73,-274.2"/>
<text text-anchor="start" x="268.1" y="-287.6" font-family="Arial Bold" font-size="18.00">public.channels</text>
<text text-anchor="start" x="380.56" y="-287.6" font-family="Arial" font-size="14.00">    </text>
<text text-anchor="start" x="411.68" y="-287.6" font-family="Arial" font-size="14.00" fill="#666666">[BASE TABLE]</text>
<polygon fill="none" stroke="black" points="259.73,-243.4 259.73,-274.2 513.42,-274.2 513.42,-243.4 259.73,-243.4"/>
<text text-anchor="start" x="266.73" y="-255.6" font-family="Arial" font-size="14.00">id </text>
<text text-anchor="start" x="281.52" y="-255.6" font-family="Arial" font-size="14.00" fill="#666666">[bigint]</text>
<polygon fill="none" stroke="black" points="259.73,-212.6 259.73,-243.4 513.42,-243.4 513.42,-212.6 259.73,-212.6"/>
<text text-anchor="start" x="266.73" y="-224.8" font-family="Arial" font-size="14.00">type </text>
<text text-anchor="start" x="297.09" y="-224.8" font-family="Arial" font-size="14.00" fill="#666666">[channel_type]</text>
<polygon fill="none" stroke="black" points="259.73,-181.8 259.73,-212.6 513.42,-212.6 513.42,-181.8 259.73,-181.8"/>
<text text-anchor="start" x="266.73" y="-194" font-family="Arial" font-size="14.00">guild_id </text>
<text text-anchor="start" x="318.89" y="-194" font-family="Arial" font-size="14.00" fill="#666666">[bigint]</text>
<polygon fill="none" stroke="black" points="259.73,-151 259.73,-181.8 513.42,-181.8 513.42,-151 259.73,-151"/>
<text text-anchor="start" x="266.73" y="-163.2" font-family="Arial" font-size="14.00">name </text>
<text text-anchor="start" x="305.64" y="-163.2" font-family="Arial" font-size="14.00" fill="#666666">[text]</text>
<polygon fill="none" stroke="black" points="259.73,-120.2 259.73,-151 513.42,-151 513.42,-120.2 259.73,-120.2"/>
<text text-anchor="start" x="266.73" y="-132.4" font-family="Arial" font-size="14.00">created_by </text>
<text text-anchor="start" x="339.89" y="-132.4" font-family="Arial" font-size="14.00" fill="#666666">[bigint]</text>
<polygon fill="none" stroke="black" points="259.73,-89.4 259.73,-120.2 513.42,-120.2 513.42,-89.4 259.73,-89.4"/>
<text text-anchor="start" x="266.73" y="-101.6" font-family="Arial" font-size="14.00">created_at </text>
<text text-anchor="start" x="336.78" y="-101.6" font-family="Arial" font-size="14.00" fill="#666666">[timestamp with time zone]</text>
<polygon fill="none" stroke="black" points="259.73,-58.6 259.73,-89.4 513.42,-89.4 513.42,-58.6 259.73,-58.6"/>
<text text-anchor="start" x="266.73" y="-70.8" font-family="Arial" font-size="14.00">updated_at </text>
<text text-anchor="start" x="340.69" y="-70.8" font-family="Arial" font-size="14.00" fill="#666666">[timestamp with time zone]</text>
</g>
<!-- public.message_attachments_v2&#45;&gt;public.channels -->
<g id="edge1" class="edge">
<title>public.message_attachments_v2:channel_id&#45;&gt;public.channels:id</title>
<path fill="none" stroke="black" d="M368.69,-712C245.41,-702.16 304.53,-514.17 380.11,-404.4 416.12,-352.1 477.21,-405.17 513.42,-353 537.29,-318.6 556.28,-258.8 514.42,-258.8"/>
<polygon fill="black" stroke="black" points="368.79,-712 378.6,-716.88 374.12,-712.21 378.44,-712.37 378.44,-712.37 378.44,-712.37 374.12,-712.21 378.95,-707.89 368.79,-712"/>
<text text-anchor="start" x="7" y="-722.4" font-family="Arial" font-size="10.00">FOREIGN KEY (channel_id) REFERENCES channels(id) ON DELETE CASCADE</text>
</g>
<!-- public.users -->
<g id="node3" class="node">
<title>public.users</title>
<polygon fill="#efefef" stroke="none" points="617.73,-289.6 617.73,-325.2 871.42,-325.2 871.42,-289.6 617.73,-289.6"/>
<polygon fill="none" stroke="black" points="617.73,-289.6 617.73,-325.2 871.42,-325.2 871.42,-289.6 617.73,-289.6"/>
<text text-anchor="start" x="639.09" y="-303" font-family="Arial Bold" font-size="18.00">public.users</text>
<text text-anchor="start" x="725.57" y="-303" font-family="Arial" font-size="14.00">    </text>
<text text-anchor="start" x="756.69" y="-303" font-family="Arial" font-size="14.00" fill="#666666">[BASE TABLE]</text>
<polygon fill="none" stroke="black" points="617.73,-258.8 617.73,-289.6 871.42,-289.6 871.42,-258.8 617.73,-258.8"/>
<text text-anchor="start" x="624.73" y="-271" font-family="Arial" font-size="14.00">id </text>
<text text-anchor="start" x="639.52" y="-271" font-family="Arial" font-size="14.00" fill="#666666">[bigint]</text>
<polygon fill="none" stroke="black" points="617.73,-228 617.73,-258.8 871.42,-258.8 871.42,-228 617.73,-228"/>
<text text-anchor="start" x="624.73" y="-240.2" font-family="Arial" font-size="14.00">email </text>
<text text-anchor="start" x="662.08" y="-240.2" font-family="Arial" font-size="14.00" fill="#666666">[text]</text>
<polygon fill="none" stroke="black" points="617.73,-197.2 617.73,-228 871.42,-228 871.42,-197.2 617.73,-197.2"/>
<text text-anchor="start" x="624.73" y="-209.4" font-family="Arial" font-size="14.00">display_name </text>
<text text-anchor="start" x="715.01" y="-209.4" font-family="Arial" font-size="14.00" fill="#666666">[text]</text>
<polygon fill="none" stroke="black" points="617.73,-166.4 617.73,-197.2 871.42,-197.2 871.42,-166.4 617.73,-166.4"/>
<text text-anchor="start" x="624.73" y="-178.6" font-family="Arial" font-size="14.00">avatar_key </text>
<text text-anchor="start" x="697.11" y="-178.6" font-family="Arial" font-size="14.00" fill="#666666">[text]</text>
<polygon fill="none" stroke="black" points="617.73,-135.6 617.73,-166.4 871.42,-166.4 871.42,-135.6 617.73,-135.6"/>
<text text-anchor="start" x="624.73" y="-147.8" font-family="Arial" font-size="14.00">status_text </text>
<text text-anchor="start" x="696.33" y="-147.8" font-family="Arial" font-size="14.00" fill="#666666">[text]</text>
<polygon fill="none" stroke="black" points="617.73,-104.8 617.73,-135.6 871.42,-135.6 871.42,-104.8 617.73,-104.8"/>
<text text-anchor="start" x="624.73" y="-117" font-family="Arial" font-size="14.00">theme </text>
<text text-anchor="start" x="667.53" y="-117" font-family="Arial" font-size="14.00" fill="#666666">[text]</text>
<polygon fill="none" stroke="black" points="617.73,-74 617.73,-104.8 871.42,-104.8 871.42,-74 617.73,-74"/>
<text text-anchor="start" x="624.73" y="-86.2" font-family="Arial" font-size="14.00">created_at </text>
<text text-anchor="start" x="694.78" y="-86.2" font-family="Arial" font-size="14.00" fill="#666666">[timestamp with time zone]</text>
<polygon fill="none" stroke="black" points="617.73,-43.2 617.73,-74 871.42,-74 871.42,-43.2 617.73,-43.2"/>
<text text-anchor="start" x="624.73" y="-55.4" font-family="Arial" font-size="14.00">updated_at </text>
<text text-anchor="start" x="698.69" y="-55.4" font-family="Arial" font-size="14.00" fill="#666666">[timestamp with time zone]</text>
</g>
<!-- public.message_attachments_v2&#45;&gt;public.users -->
<g id="edge2" class="edge">
<title>public.message_attachments_v2:uploaded_by&#45;&gt;public.users:id</title>
<path fill="none" stroke="black" d="M762.42,-557.53C817.42,-547.62 790.54,-455.64 751.04,-404.4 713.57,-355.8 655.3,-416.92 617.73,-368.4 592.1,-335.29 574.86,-274.2 616.73,-274.2"/>
<polygon fill="black" stroke="black" points="762.34,-557.54 751.99,-553.89 757.02,-557.98 752.7,-558.34 752.7,-558.34 752.7,-558.34 757.02,-557.98 752.75,-562.86 762.34,-557.54"/>
<text text-anchor="start" x="759.04" y="-568.4" font-family="Arial" font-size="10.00">FOREIGN KEY (uploaded_by) REFERENCES users(id) ON DELETE SET NULL</text>
</g>
</g>
</svg>
