<?xml version="1.0" encoding="UTF-8" standalone="no"?>
<!DOCTYPE svg PUBLIC "-//W3C//DTD SVG 1.1//EN"
 "http://www.w3.org/Graphics/SVG/1.1/DTD/svg11.dtd">
<!-- Generated by graphviz version 12.1.2 (20240928.0832)
 -->
<!-- Title: public.channels Pages: 1 -->
<svg width="2148pt" height="1130pt"
 viewBox="0.00 0.00 2148.30 1129.60" xmlns="http://www.w3.org/2000/svg" xmlns:xlink="http://www.w3.org/1999/xlink">
<g id="graph0" class="graph" transform="scale(1 1) rotate(0) translate(4 1125.6)">
<title>public.channels</title>
<polygon fill="white" stroke="none" points="-4,4 -4,-1125.6 2144.3,-1125.6 2144.3,4 -4,4"/>
<!-- public.channels -->
<g id="node1" class="node">
<title>public.channels</title>
<polygon fill="#efefef" stroke="none" points="1026.32,-727.8 1026.32,-763.4 1280,-763.4 1280,-727.8 1026.32,-727.8"/>
<polygon fill="none" stroke="black" points="1026.32,-727.8 1026.32,-763.4 1280,-763.4 1280,-727.8 1026.32,-727.8"/>
<text text-anchor="start" x="1034.68" y="-741.2" font-family="Arial Bold" font-size="18.00">public.channels</text>
<text text-anchor="start" x="1147.15" y="-741.2" font-family="Arial" font-size="14.00">    </text>
<text text-anchor="start" x="1178.27" y="-741.2" font-family="Arial" font-size="14.00" fill="#666666">[BASE TABLE]</text>
<polygon fill="none" stroke="black" points="1026.32,-697 1026.32,-727.8 1280,-727.8 1280,-697 1026.32,-697"/>
<text text-anchor="start" x="1033.32" y="-709.2" font-family="Arial" font-size="14.00">id </text>
<text text-anchor="start" x="1048.11" y="-709.2" font-family="Arial" font-size="14.00" fill="#666666">[bigint]</text>
<polygon fill="none" stroke="black" points="1026.32,-666.2 1026.32,-697 1280,-697 1280,-666.2 1026.32,-666.2"/>
<text text-anchor="start" x="1033.32" y="-678.4" font-family="Arial" font-size="14.00">type </text>
<text text-anchor="start" x="1063.67" y="-678.4" font-family="Arial" font-size="14.00" fill="#666666">[channel_type]</text>
<polygon fill="none" stroke="black" points="1026.32,-635.4 1026.32,-666.2 1280,-666.2 1280,-635.4 1026.32,-635.4"/>
<text text-anchor="start" x="1033.32" y="-647.6" font-family="Arial" font-size="14.00">guild_id </text>
<text text-anchor="start" x="1085.47" y="-647.6" font-family="Arial" font-size="14.00" fill="#666666">[bigint]</text>
<polygon fill="none" stroke="black" points="1026.32,-604.6 1026.32,-635.4 1280,-635.4 1280,-604.6 1026.32,-604.6"/>
<text text-anchor="start" x="1033.32" y="-616.8" font-family="Arial" font-size="14.00">name </text>
<text text-anchor="start" x="1072.23" y="-616.8" font-family="Arial" font-size="14.00" fill="#666666">[text]</text>
<polygon fill="none" stroke="black" points="1026.32,-573.8 1026.32,-604.6 1280,-604.6 1280,-573.8 1026.32,-573.8"/>
<text text-anchor="start" x="1033.32" y="-586" font-family="Arial" font-size="14.00">created_by </text>
<text text-anchor="start" x="1106.48" y="-586" font-family="Arial" font-size="14.00" fill="#666666">[bigint]</text>
<polygon fill="none" stroke="black" points="1026.32,-543 1026.32,-573.8 1280,-573.8 1280,-543 1026.32,-543"/>
<text text-anchor="start" x="1033.32" y="-555.2" font-family="Arial" font-size="14.00">created_at </text>
<text text-anchor="start" x="1103.37" y="-555.2" font-family="Arial" font-size="14.00" fill="#666666">[timestamp with time zone]</text>
<polygon fill="none" stroke="black" points="1026.32,-512.2 1026.32,-543 1280,-543 1280,-512.2 1026.32,-512.2"/>
<text text-anchor="start" x="1033.32" y="-524.4" font-family="Arial" font-size="14.00">updated_at </text>
<text text-anchor="start" x="1107.28" y="-524.4" font-family="Arial" font-size="14.00" fill="#666666">[timestamp with time zone]</text>
<polygon fill="none" stroke="black" stroke-width="3" points="1024.82,-510.7 1024.82,-764.9 1281.5,-764.9 1281.5,-510.7 1024.82,-510.7"/>
</g>
<!-- public.guilds -->
<g id="node7" class="node">
<title>public.guilds</title>
<polygon fill="#efefef" stroke="none" points="847.32,-289.6 847.32,-325.2 1101,-325.2 1101,-289.6 847.32,-289.6"/>
<polygon fill="none" stroke="black" points="847.32,-289.6 847.32,-325.2 1101,-325.2 1101,-289.6 847.32,-289.6"/>
<text text-anchor="start" x="865.17" y="-303" font-family="Arial Bold" font-size="18.00">public.guilds</text>
<text text-anchor="start" x="958.67" y="-303" font-family="Arial" font-size="14.00">    </text>
<text text-anchor="start" x="989.78" y="-303" font-family="Arial" font-size="14.00" fill="#666666">[BASE TABLE]</text>
<polygon fill="none" stroke="black" points="847.32,-258.8 847.32,-289.6 1101,-289.6 1101,-258.8 847.32,-258.8"/>
<text text-anchor="start" x="854.32" y="-271" font-family="Arial" font-size="14.00">id </text>
<text text-anchor="start" x="869.11" y="-271" font-family="Arial" font-size="14.00" fill="#666666">[bigint]</text>
<polygon fill="none" stroke="black" points="847.32,-228 847.32,-258.8 1101,-258.8 1101,-228 847.32,-228"/>
<text text-anchor="start" x="854.32" y="-240.2" font-family="Arial" font-size="14.00">name </text>
<text text-anchor="start" x="893.23" y="-240.2" font-family="Arial" font-size="14.00" fill="#666666">[text]</text>
<polygon fill="none" stroke="black" points="847.32,-197.2 847.32,-228 1101,-228 1101,-197.2 847.32,-197.2"/>
<text text-anchor="start" x="854.32" y="-209.4" font-family="Arial" font-size="14.00">owner_id </text>
<text text-anchor="start" x="915.02" y="-209.4" font-family="Arial" font-size="14.00" fill="#666666">[bigint]</text>
<polygon fill="none" stroke="black" points="847.32,-166.4 847.32,-197.2 1101,-197.2 1101,-166.4 847.32,-166.4"/>
<text text-anchor="start" x="854.32" y="-178.6" font-family="Arial" font-size="14.00">icon_key </text>
<text text-anchor="start" x="913.47" y="-178.6" font-family="Arial" font-size="14.00" fill="#666666">[text]</text>
<polygon fill="none" stroke="black" points="847.32,-135.6 847.32,-166.4 1101,-166.4 1101,-135.6 847.32,-135.6"/>
<text text-anchor="start" x="854.32" y="-147.8" font-family="Arial" font-size="14.00">created_at </text>
<text text-anchor="start" x="924.37" y="-147.8" font-family="Arial" font-size="14.00" fill="#666666">[timestamp with time zone]</text>
<polygon fill="none" stroke="black" points="847.32,-104.8 847.32,-135.6 1101,-135.6 1101,-104.8 847.32,-104.8"/>
<text text-anchor="start" x="854.32" y="-117" font-family="Arial" font-size="14.00">updated_at </text>
<text text-anchor="start" x="928.28" y="-117" font-family="Arial" font-size="14.00" fill="#666666">[timestamp with time zone]</text>
</g>
<!-- public.channels&#45;&gt;public.guilds -->
<g id="edge6" class="edge">
<title>public.channels:guild_id&#45;&gt;public.guilds:id</title>
<path fill="none" stroke="black" d="M1015.12,-650.6C808.95,-642.19 1099.37,-373.14 1101,-368.4 1114.64,-328.82 1143.87,-274.2 1102,-274.2"/>
<polygon fill="black" stroke="black" points="1014.99,-650.6 1024.9,-655.29 1020.32,-650.7 1024.65,-650.79 1024.65,-650.79 1024.65,-650.79 1020.32,-650.7 1025.08,-646.29 1014.99,-650.6"/>
<text text-anchor="start" x="681.01" y="-660.8" font-family="Arial" font-size="10.00">FOREIGN KEY (guild_id) REFERENCES guilds(id) ON DELETE CASCADE</text>
</g>
<!-- public.users -->
<g id="node8" class="node">
<title>public.users</title>
<polygon fill="#efefef" stroke="none" points="1205.32,-351.2 1205.32,-386.8 1459,-386.8 1459,-351.2 1205.32,-351.2"/>
<polygon fill="none" stroke="black" points="1205.32,-351.2 1205.32,-386.8 1459,-386.8 1459,-351.2 1205.32,-351.2"/>
<text text-anchor="start" x="1226.68" y="-364.6" font-family="Arial Bold" font-size="18.00">public.users</text>
<text text-anchor="start" x="1313.16" y="-364.6" font-family="Arial" font-size="14.00">    </text>
<text text-anchor="start" x="1344.28" y="-364.6" font-family="Arial" font-size="14.00" fill="#666666">[BASE TABLE]</text>
<polygon fill="none" stroke="black" points="1205.32,-320.4 1205.32,-351.2 1459,-351.2 1459,-320.4 1205.32,-320.4"/>
<text text-anchor="start" x="1212.32" y="-332.6" font-family="Arial" font-size="14.00">id </text>
<text text-anchor="start" x="1227.11" y="-332.6" font-family="Arial" font-size="14.00" fill="#666666">[bigint]</text>
<polygon fill="none" stroke="black" points="1205.32,-289.6 1205.32,-320.4 1459,-320.4 1459,-289.6 1205.32,-289.6"/>
<text text-anchor="start" x="1212.32" y="-301.8" font-family="Arial" font-size="14.00">email </text>
<text text-anchor="start" x="1249.67" y="-301.8" font-family="Arial" font-size="14.00" fill="#666666">[text]</text>
<polygon fill="none" stroke="black" points="1205.32,-258.8 1205.32,-289.6 1459,-289.6 1459,-258.8 1205.32,-258.8"/>
<text text-anchor="start" x="1212.32" y="-271" font-family="Arial" font-size="14.00">email_verified </text>
<text text-anchor="start" x="1302.58" y="-271" font-family="Arial" font-size="14.00" fill="#666666">[boolean]</text>
<polygon fill="none" stroke="black" points="1205.32,-228 1205.32,-258.8 1459,-258.8 1459,-228 1205.32,-228"/>
<text text-anchor="start" x="1212.32" y="-240.2" font-family="Arial" font-size="14.00">password_hash </text>
<text text-anchor="start" x="1314.27" y="-240.2" font-family="Arial" font-size="14.00" fill="#666666">[text]</text>
<polygon fill="none" stroke="black" points="1205.32,-197.2 1205.32,-228 1459,-228 1459,-197.2 1205.32,-197.2"/>
<text text-anchor="start" x="1212.32" y="-209.4" font-family="Arial" font-size="14.00">display_name </text>
<text text-anchor="start" x="1302.6" y="-209.4" font-family="Arial" font-size="14.00" fill="#666666">[text]</text>
<polygon fill="none" stroke="black" points="1205.32,-166.4 1205.32,-197.2 1459,-197.2 1459,-166.4 1205.32,-166.4"/>
<text text-anchor="start" x="1212.32" y="-178.6" font-family="Arial" font-size="14.00">avatar_key </text>
<text text-anchor="start" x="1284.69" y="-178.6" font-family="Arial" font-size="14.00" fill="#666666">[text]</text>
<polygon fill="none" stroke="black" points="1205.32,-135.6 1205.32,-166.4 1459,-166.4 1459,-135.6 1205.32,-135.6"/>
<text text-anchor="start" x="1212.32" y="-147.8" font-family="Arial" font-size="14.00">status_text </text>
<text text-anchor="start" x="1283.91" y="-147.8" font-family="Arial" font-size="14.00" fill="#666666">[text]</text>
<polygon fill="none" stroke="black" points="1205.32,-104.8 1205.32,-135.6 1459,-135.6 1459,-104.8 1205.32,-104.8"/>
<text text-anchor="start" x="1212.32" y="-117" font-family="Arial" font-size="14.00">theme </text>
<text text-anchor="start" x="1255.12" y="-117" font-family="Arial" font-size="14.00" fill="#666666">[text]</text>
<polygon fill="none" stroke="black" points="1205.32,-74 1205.32,-104.8 1459,-104.8 1459,-74 1205.32,-74"/>
<text text-anchor="start" x="1212.32" y="-86.2" font-family="Arial" font-size="14.00">created_at </text>
<text text-anchor="start" x="1282.37" y="-86.2" font-family="Arial" font-size="14.00" fill="#666666">[timestamp with time zone]</text>
<polygon fill="none" stroke="black" points="1205.32,-43.2 1205.32,-74 1459,-74 1459,-43.2 1205.32,-43.2"/>
<text text-anchor="start" x="1212.32" y="-55.4" font-family="Arial" font-size="14.00">updated_at </text>
<text text-anchor="start" x="1286.28" y="-55.4" font-family="Arial" font-size="14.00" fill="#666666">[timestamp with time zone]</text>
</g>
<!-- public.channels&#45;&gt;public.users -->
<g id="edge7" class="edge">
<title>public.channels:created_by&#45;&gt;public.users:id</title>
<path fill="none" stroke="black" d="M1291.38,-588.1C1332.03,-578.53 1307.25,-509 1280,-466 1260.28,-434.88 1225.08,-461.1 1205.32,-430 1182.86,-394.66 1162.45,-335.8 1204.32,-335.8"/>
<polygon fill="black" stroke="black" points="1291.28,-588.11 1280.86,-584.69 1285.97,-588.67 1281.67,-589.13 1281.67,-589.13 1281.67,-589.13 1285.97,-588.67 1281.81,-593.64 1291.28,-588.11"/>
<text text-anchor="start" x="1288" y="-599.2" font-family="Arial" font-size="10.00">FOREIGN KEY (created_by) REFERENCES users(id) ON DELETE SET NULL</text>
</g>
<!-- public.channel_last_message -->
<g id="node2" class="node">
<title>public.channel_last_message</title>
<polygon fill="#efefef" stroke="none" points="43.2,-1027.4 43.2,-1063 391.12,-1063 391.12,-1027.4 43.2,-1027.4"/>
<polygon fill="none" stroke="black" points="43.2,-1027.4 43.2,-1063 391.12,-1063 391.12,-1027.4 43.2,-1027.4"/>
<text text-anchor="start" x="50.2" y="-1040.8" font-family="Arial Bold" font-size="18.00">public.channel_last_message</text>
<text text-anchor="start" x="259.63" y="-1040.8" font-family="Arial" font-size="14.00">    </text>
<text text-anchor="start" x="290.75" y="-1040.8" font-family="Arial" font-size="14.00" fill="#666666">[BASE TABLE]</text>
<polygon fill="none" stroke="black" points="43.2,-996.6 43.2,-1027.4 391.12,-1027.4 391.12,-996.6 43.2,-996.6"/>
<text text-anchor="start" x="50.2" y="-1008.8" font-family="Arial" font-size="14.00">channel_id </text>
<text text-anchor="start" x="121.81" y="-1008.8" font-family="Arial" font-size="14.00" fill="#666666">[bigint]</text>
<polygon fill="none" stroke="black" points="43.2,-965.8 43.2,-996.6 391.12,-996.6 391.12,-965.8 43.2,-965.8"/>
<text text-anchor="start" x="50.2" y="-978" font-family="Arial" font-size="14.00">last_message_id </text>
<text text-anchor="start" x="159.15" y="-978" font-family="Arial" font-size="14.00" fill="#666666">[bigint]</text>
<polygon fill="none" stroke="black" points="43.2,-935 43.2,-965.8 391.12,-965.8 391.12,-935 43.2,-935"/>
<text text-anchor="start" x="50.2" y="-947.2" font-family="Arial" font-size="14.00">last_message_at </text>
<text text-anchor="start" x="159.93" y="-947.2" font-family="Arial" font-size="14.00" fill="#666666">[timestamp with time zone]</text>
<polygon fill="none" stroke="black" points="43.2,-904.2 43.2,-935 391.12,-935 391.12,-904.2 43.2,-904.2"/>
<text text-anchor="start" x="50.2" y="-916.4" font-family="Arial" font-size="14.00">updated_at </text>
<text text-anchor="start" x="124.16" y="-916.4" font-family="Arial" font-size="14.00" fill="#666666">[timestamp with time zone]</text>
</g>
<!-- public.channel_last_message&#45;&gt;public.channels -->
<g id="edge1" class="edge">
<title>public.channel_last_message:channel_id&#45;&gt;public.channels:id</title>
<path fill="none" stroke="black" d="M402.34,-1011.21C461.71,-1001.04 389.28,-895.7 443.16,-845.6 540.35,-755.23 892.61,-712.4 1025.32,-712.4"/>
<polygon fill="black" stroke="black" points="402.43,-1011.2 392.11,-1007.49 397.11,-1011.61 392.79,-1011.95 392.79,-1011.95 392.79,-1011.95 397.11,-1011.61 392.81,-1016.46 402.43,-1011.2"/>
<text text-anchor="start" x="399.12" y="-1022" font-family="Arial" font-size="10.00">FOREIGN KEY (channel_id) REFERENCES channels(id) ON DELETE CASCADE</text>
</g>
<!-- public.channel_permission_overrides -->
<g id="node3" class="node">
<title>public.channel_permission_overrides</title>
<polygon fill="#efefef" stroke="none" points="495.2,-1027.4 495.2,-1063 903.12,-1063 903.12,-1027.4 495.2,-1027.4"/>
<polygon fill="none" stroke="black" points="495.2,-1027.4 495.2,-1063 903.12,-1063 903.12,-1027.4 495.2,-1027.4"/>
<text text-anchor="start" x="502.2" y="-1040.8" font-family="Arial Bold" font-size="18.00">public.channel_permission_overrides</text>
<text text-anchor="start" x="771.63" y="-1040.8" font-family="Arial" font-size="14.00">    </text>
<text text-anchor="start" x="802.75" y="-1040.8" font-family="Arial" font-size="14.00" fill="#666666">[BASE TABLE]</text>
<polygon fill="none" stroke="black" points="495.2,-996.6 495.2,-1027.4 903.12,-1027.4 903.12,-996.6 495.2,-996.6"/>
<text text-anchor="start" x="502.2" y="-1008.8" font-family="Arial" font-size="14.00">channel_id </text>
<text text-anchor="start" x="573.82" y="-1008.8" font-family="Arial" font-size="14.00" fill="#666666">[bigint]</text>
<polygon fill="none" stroke="black" points="495.2,-965.8 495.2,-996.6 903.12,-996.6 903.12,-965.8 495.2,-965.8"/>
<text text-anchor="start" x="502.2" y="-978" font-family="Arial" font-size="14.00">level </text>
<text text-anchor="start" x="534.89" y="-978" font-family="Arial" font-size="14.00" fill="#666666">[role_level]</text>
<polygon fill="none" stroke="black" points="495.2,-935 495.2,-965.8 903.12,-965.8 903.12,-935 495.2,-935"/>
<text text-anchor="start" x="502.2" y="-947.2" font-family="Arial" font-size="14.00">can_view </text>
<text text-anchor="start" x="564.46" y="-947.2" font-family="Arial" font-size="14.00" fill="#666666">[boolean]</text>
<polygon fill="none" stroke="black" points="495.2,-904.2 495.2,-935 903.12,-935 903.12,-904.2 495.2,-904.2"/>
<text text-anchor="start" x="502.2" y="-916.4" font-family="Arial" font-size="14.00">can_post </text>
<text text-anchor="start" x="562.91" y="-916.4" font-family="Arial" font-size="14.00" fill="#666666">[boolean]</text>
</g>
<!-- public.channel_permission_overrides&#45;&gt;public.channels -->
<g id="edge2" class="edge">
<title>public.channel_permission_overrides:channel_id&#45;&gt;public.channels:id</title>
<path fill="none" stroke="black" d="M914.53,-1011.34C976.23,-1002.79 927.11,-913.62 955.16,-845.6 980.68,-783.75 958.41,-712.4 1025.32,-712.4"/>
<polygon fill="black" stroke="black" points="914.43,-1011.34 904.17,-1007.49 909.11,-1011.68 904.79,-1011.96 904.79,-1011.96 904.79,-1011.96 909.11,-1011.68 904.74,-1016.47 914.43,-1011.34"/>
<text text-anchor="start" x="911.12" y="-1022" font-family="Arial" font-size="10.00">FOREIGN KEY (channel_id) REFERENCES channels(id) ON DELETE CASCADE</text>
</g>
<!-- public.channel_reads -->
<g id="node4" class="node">
<title>public.channel_reads</title>
<polygon fill="#efefef" stroke="none" points="1007.7,-1042.8 1007.7,-1078.4 1298.63,-1078.4 1298.63,-1042.8 1007.7,-1042.8"/>
<polygon fill="none" stroke="black" points="1007.7,-1042.8 1007.7,-1078.4 1298.63,-1078.4 1298.63,-1042.8 1007.7,-1042.8"/>
<text text-anchor="start" x="1014.7" y="-1056.2" font-family="Arial Bold" font-size="18.00">public.channel_reads</text>
<text text-anchor="start" x="1167.14" y="-1056.2" font-family="Arial" font-size="14.00">    </text>
<text text-anchor="start" x="1198.25" y="-1056.2" font-family="Arial" font-size="14.00" fill="#666666">[BASE TABLE]</text>
<polygon fill="none" stroke="black" points="1007.7,-1012 1007.7,-1042.8 1298.63,-1042.8 1298.63,-1012 1007.7,-1012"/>
<text text-anchor="start" x="1014.7" y="-1024.2" font-family="Arial" font-size="14.00">channel_id </text>
<text text-anchor="start" x="1086.31" y="-1024.2" font-family="Arial" font-size="14.00" fill="#666666">[bigint]</text>
<polygon fill="none" stroke="black" points="1007.7,-981.2 1007.7,-1012 1298.63,-1012 1298.63,-981.2 1007.7,-981.2"/>
<text text-anchor="start" x="1014.7" y="-993.4" font-family="Arial" font-size="14.00">user_id </text>
<text text-anchor="start" x="1064.51" y="-993.4" font-family="Arial" font-size="14.00" fill="#666666">[bigint]</text>
<polygon fill="none" stroke="black" points="1007.7,-950.4 1007.7,-981.2 1298.63,-981.2 1298.63,-950.4 1007.7,-950.4"/>
<text text-anchor="start" x="1014.7" y="-962.6" font-family="Arial" font-size="14.00">last_read_message_id </text>
<text text-anchor="start" x="1159.46" y="-962.6" font-family="Arial" font-size="14.00" fill="#666666">[bigint]</text>
<polygon fill="none" stroke="black" points="1007.7,-919.6 1007.7,-950.4 1298.63,-950.4 1298.63,-919.6 1007.7,-919.6"/>
<text text-anchor="start" x="1014.7" y="-931.8" font-family="Arial" font-size="14.00">last_client_seq </text>
<text text-anchor="start" x="1111.2" y="-931.8" font-family="Arial" font-size="14.00" fill="#666666">[bigint]</text>
<polygon fill="none" stroke="black" points="1007.7,-888.8 1007.7,-919.6 1298.63,-919.6 1298.63,-888.8 1007.7,-888.8"/>
<text text-anchor="start" x="1014.7" y="-901" font-family="Arial" font-size="14.00">updated_at </text>
<text text-anchor="start" x="1088.66" y="-901" font-family="Arial" font-size="14.00" fill="#666666">[timestamp with time zone]</text>
</g>
<!-- public.channel_reads&#45;&gt;public.channels -->
<g id="edge3" class="edge">
<title>public.channel_reads:channel_id&#45;&gt;public.channels:id</title>
<path fill="none" stroke="black" d="M1309.63,-1025.05C1367.72,-996.22 1347.56,-712.4 1281,-712.4"/>
<polygon fill="black" stroke="black" points="1309.68,-1025.03 1298.92,-1022.94 1304.49,-1026.25 1300.28,-1027.25 1300.28,-1027.25 1300.28,-1027.25 1304.49,-1026.25 1300.98,-1031.7 1309.68,-1025.03"/>
<text text-anchor="start" x="1306.63" y="-1037.4" font-family="Arial" font-size="10.00">FOREIGN KEY (channel_id) REFERENCES channels(id) ON DELETE CASCADE</text>
</g>
<!-- public.dm_pairs -->
<g id="node5" class="node">
<title>public.dm_pairs</title>
<polygon fill="#efefef" stroke="none" points="1402.68,-1012 1402.68,-1047.6 1657.65,-1047.6 1657.65,-1012 1402.68,-1012"/>
<polygon fill="none" stroke="black" points="1402.68,-1012 1402.68,-1047.6 1657.65,-1047.6 1657.65,-1012 1402.68,-1012"/>
<text text-anchor="start" x="1409.68" y="-1025.4" font-family="Arial Bold" font-size="18.00">public.dm_pairs</text>
<text text-anchor="start" x="1526.16" y="-1025.4" font-family="Arial" font-size="14.00">    </text>
<text text-anchor="start" x="1557.28" y="-1025.4" font-family="Arial" font-size="14.00" fill="#666666">[BASE TABLE]</text>
<polygon fill="none" stroke="black" points="1402.68,-981.2 1402.68,-1012 1657.65,-1012 1657.65,-981.2 1402.68,-981.2"/>
<text text-anchor="start" x="1409.68" y="-993.4" font-family="Arial" font-size="14.00">user_low </text>
<text text-anchor="start" x="1469.59" y="-993.4" font-family="Arial" font-size="14.00" fill="#666666">[bigint]</text>
<polygon fill="none" stroke="black" points="1402.68,-950.4 1402.68,-981.2 1657.65,-981.2 1657.65,-950.4 1402.68,-950.4"/>
<text text-anchor="start" x="1409.68" y="-962.6" font-family="Arial" font-size="14.00">user_high </text>
<text text-anchor="start" x="1475.06" y="-962.6" font-family="Arial" font-size="14.00" fill="#666666">[bigint]</text>
<polygon fill="none" stroke="black" points="1402.68,-919.6 1402.68,-950.4 1657.65,-950.4 1657.65,-919.6 1402.68,-919.6"/>
<text text-anchor="start" x="1409.68" y="-931.8" font-family="Arial" font-size="14.00">channel_id </text>
<text text-anchor="start" x="1481.29" y="-931.8" font-family="Arial" font-size="14.00" fill="#666666">[bigint]</text>
</g>
<!-- public.dm_pairs&#45;&gt;public.channels -->
<g id="edge4" class="edge">
<title>public.dm_pairs:channel_id&#45;&gt;public.channels:id</title>
<path fill="none" stroke="black" d="M1394.45,-927.59C1368.31,-888.97 1293.53,-712.4 1281,-712.4"/>
<polygon fill="black" stroke="black" points="1394.46,-927.6 1398.22,-937.9 1398.18,-931.42 1401.21,-934.52 1401.21,-934.52 1401.21,-934.52 1398.18,-931.42 1404.66,-931.62 1394.46,-927.6"/>
<text text-anchor="start" x="1124.34" y="-919" font-family="Arial" font-size="10.00">FOREIGN KEY (channel_id) REFERENCES channels(id) ON DELETE CASCADE</text>
</g>
<!-- public.dm_participants -->
<g id="node6" class="node">
<title>public.dm_participants</title>
<polygon fill="#efefef" stroke="none" points="1762.19,-996.6 1762.19,-1032.2 2066.14,-1032.2 2066.14,-996.6 1762.19,-996.6"/>
<polygon fill="none" stroke="black" points="1762.19,-996.6 1762.19,-1032.2 2066.14,-1032.2 2066.14,-996.6 1762.19,-996.6"/>
<text text-anchor="start" x="1769.19" y="-1010" font-family="Arial Bold" font-size="18.00">public.dm_participants</text>
<text text-anchor="start" x="1934.65" y="-1010" font-family="Arial" font-size="14.00">    </text>
<text text-anchor="start" x="1965.77" y="-1010" font-family="Arial" font-size="14.00" fill="#666666">[BASE TABLE]</text>
<polygon fill="none" stroke="black" points="1762.19,-965.8 1762.19,-996.6 2066.14,-996.6 2066.14,-965.8 1762.19,-965.8"/>
<text text-anchor="start" x="1769.19" y="-978" font-family="Arial" font-size="14.00">channel_id </text>
<text text-anchor="start" x="1840.8" y="-978" font-family="Arial" font-size="14.00" fill="#666666">[bigint]</text>
<polygon fill="none" stroke="black" points="1762.19,-935 1762.19,-965.8 2066.14,-965.8 2066.14,-935 1762.19,-935"/>
<text text-anchor="start" x="1769.19" y="-947.2" font-family="Arial" font-size="14.00">user_id </text>
<text text-anchor="start" x="1818.99" y="-947.2" font-family="Arial" font-size="14.00" fill="#666666">[bigint]</text>
</g>
<!-- public.dm_participants&#45;&gt;public.channels -->
<g id="edge5" class="edge">
<title>public.dm_participants:channel_id&#45;&gt;public.channels:id</title>
<path fill="none" stroke="black" d="M1750.81,-980.23C1703.69,-970.3 1754.18,-887.1 1710.16,-845.6 1637.5,-777.1 1380.86,-712.4 1281,-712.4"/>
<polygon fill="black" stroke="black" points="1750.9,-980.23 1760.43,-985.65 1756.21,-980.73 1760.52,-981.14 1760.52,-981.14 1760.52,-981.14 1756.21,-980.73 1761.27,-976.69 1750.9,-980.23"/>
<text text-anchor="start" x="1768.19" y="-991.2" font-family="Arial" font-size="10.00">FOREIGN KEY (channel_id) REFERENCES channels(id) ON DELETE CASCADE</text>
</g>
</g>
</svg>
