<?xml version="1.0" encoding="UTF-8" standalone="no"?>
<!DOCTYPE svg PUBLIC "-//W3C//DTD SVG 1.1//EN"
 "http://www.w3.org/Graphics/SVG/1.1/DTD/svg11.dtd">
<!-- Generated by graphviz version 12.1.2 (20240928.0832)
 -->
<!-- Title: public.guild_members Pages: 1 -->
<svg width="1104pt" height="976pt"
 viewBox="0.00 0.00 1104.44 975.60" xmlns="http://www.w3.org/2000/svg" xmlns:xlink="http://www.w3.org/1999/xlink">
<g id="graph0" class="graph" transform="scale(1 1) rotate(0) translate(4 971.6)">
<title>public.guild_members</title>
<polygon fill="white" stroke="none" points="-4,4 -4,-971.6 1100.44,-971.6 1100.44,4 -4,4"/>
<!-- public.guild_members -->
<g id="node1" class="node">
<title>public.guild_members</title>
<polygon fill="#efefef" stroke="none" points="404.49,-573.8 404.49,-609.4 704.45,-609.4 704.45,-573.8 404.49,-573.8"/>
<polygon fill="none" stroke="black" points="404.49,-573.8 404.49,-609.4 704.45,-609.4 704.45,-573.8 404.49,-573.8"/>
<text text-anchor="start" x="411.49" y="-587.2" font-family="Arial Bold" font-size="18.00">public.guild_members</text>
<text text-anchor="start" x="572.96" y="-587.2" font-family="Arial" font-size="14.00">    </text>
<text text-anchor="start" x="604.08" y="-587.2" font-family="Arial" font-size="14.00" fill="#666666">[BASE TABLE]</text>
<polygon fill="none" stroke="black" points="404.49,-543 404.49,-573.8 704.45,-573.8 704.45,-543 404.49,-543"/>
<text text-anchor="start" x="411.49" y="-555.2" font-family="Arial" font-size="14.00">guild_id </text>
<text text-anchor="start" x="463.64" y="-555.2" font-family="Arial" font-size="14.00" fill="#666666">[bigint]</text>
<polygon fill="none" stroke="black" points="404.49,-512.2 404.49,-543 704.45,-543 704.45,-512.2 404.49,-512.2"/>
<text text-anchor="start" x="411.49" y="-524.4" font-family="Arial" font-size="14.00">user_id </text>
<text text-anchor="start" x="461.3" y="-524.4" font-family="Arial" font-size="14.00" fill="#666666">[bigint]</text>
<polygon fill="none" stroke="black" points="404.49,-481.4 404.49,-512.2 704.45,-512.2 704.45,-481.4 404.49,-481.4"/>
<text text-anchor="start" x="411.49" y="-493.6" font-family="Arial" font-size="14.00">joined_at </text>
<text text-anchor="start" x="472.21" y="-493.6" font-family="Arial" font-size="14.00" fill="#666666">[timestamp with time zone]</text>
<polygon fill="none" stroke="black" points="404.49,-450.6 404.49,-481.4 704.45,-481.4 704.45,-450.6 404.49,-450.6"/>
<text text-anchor="start" x="411.49" y="-462.8" font-family="Arial" font-size="14.00">nickname </text>
<text text-anchor="start" x="475.3" y="-462.8" font-family="Arial" font-size="14.00" fill="#666666">[text]</text>
<polygon fill="none" stroke="black" stroke-width="3" points="402.99,-449.1 402.99,-610.9 705.95,-610.9 705.95,-449.1 402.99,-449.1"/>
</g>
<!-- public.guilds -->
<g id="node2" class="node">
<title>public.guilds</title>
<polygon fill="#efefef" stroke="none" points="248.63,-258.8 248.63,-294.4 502.31,-294.4 502.31,-258.8 248.63,-258.8"/>
<polygon fill="none" stroke="black" points="248.63,-258.8 248.63,-294.4 502.31,-294.4 502.31,-258.8 248.63,-258.8"/>
<text text-anchor="start" x="266.48" y="-272.2" font-family="Arial Bold" font-size="18.00">public.guilds</text>
<text text-anchor="start" x="359.98" y="-272.2" font-family="Arial" font-size="14.00">    </text>
<text text-anchor="start" x="391.09" y="-272.2" font-family="Arial" font-size="14.00" fill="#666666">[BASE TABLE]</text>
<polygon fill="none" stroke="black" points="248.63,-228 248.63,-258.8 502.31,-258.8 502.31,-228 248.63,-228"/>
<text text-anchor="start" x="255.63" y="-240.2" font-family="Arial" font-size="14.00">id </text>
<text text-anchor="start" x="270.42" y="-240.2" font-family="Arial" font-size="14.00" fill="#666666">[bigint]</text>
<polygon fill="none" stroke="black" points="248.63,-197.2 248.63,-228 502.31,-228 502.31,-197.2 248.63,-197.2"/>
<text text-anchor="start" x="255.63" y="-209.4" font-family="Arial" font-size="14.00">name </text>
<text text-anchor="start" x="294.54" y="-209.4" font-family="Arial" font-size="14.00" fill="#666666">[text]</text>
<polygon fill="none" stroke="black" points="248.63,-166.4 248.63,-197.2 502.31,-197.2 502.31,-166.4 248.63,-166.4"/>
<text text-anchor="start" x="255.63" y="-178.6" font-family="Arial" font-size="14.00">owner_id </text>
<text text-anchor="start" x="316.33" y="-178.6" font-family="Arial" font-size="14.00" fill="#666666">[bigint]</text>
<polygon fill="none" stroke="black" points="248.63,-135.6 248.63,-166.4 502.31,-166.4 502.31,-135.6 248.63,-135.6"/>
<text text-anchor="start" x="255.63" y="-147.8" font-family="Arial" font-size="14.00">icon_key </text>
<text text-anchor="start" x="314.77" y="-147.8" font-family="Arial" font-size="14.00" fill="#666666">[text]</text>
<polygon fill="none" stroke="black" points="248.63,-104.8 248.63,-135.6 502.31,-135.6 502.31,-104.8 248.63,-104.8"/>
<text text-anchor="start" x="255.63" y="-117" font-family="Arial" font-size="14.00">created_at </text>
<text text-anchor="start" x="325.68" y="-117" font-family="Arial" font-size="14.00" fill="#666666">[timestamp with time zone]</text>
<polygon fill="none" stroke="black" points="248.63,-74 248.63,-104.8 502.31,-104.8 502.31,-74 248.63,-74"/>
<text text-anchor="start" x="255.63" y="-86.2" font-family="Arial" font-size="14.00">updated_at </text>
<text text-anchor="start" x="329.59" y="-86.2" font-family="Arial" font-size="14.00" fill="#666666">[timestamp with time zone]</text>
</g>
<!-- public.guild_members&#45;&gt;public.guilds -->
<g id="edge1" class="edge">
<title>public.guild_members:guild_id&#45;&gt;public.guilds:id</title>
<path fill="none" stroke="black" d="M393.19,-557.58C339.11,-548.26 374.09,-461.52 404.49,-404.4 429.22,-357.93 477.48,-384.02 502.31,-337.6 522.06,-300.68 545.18,-243.4 503.31,-243.4"/>
<polygon fill="black" stroke="black" points="393.19,-557.58 402.8,-562.86 398.51,-558 402.82,-558.35 402.82,-558.35 402.82,-558.35 398.51,-558 403.51,-553.89 393.19,-557.58"/>
<text text-anchor="start" x="59.18" y="-568.4" font-family="Arial" font-size="10.00">FOREIGN KEY (guild_id) REFERENCES guilds(id) ON DELETE CASCADE</text>
</g>
<!-- public.users -->
<g id="node5" class="node">
<title>public.users</title>
<polygon fill="#efefef" stroke="none" points="606.63,-289.6 606.63,-325.2 860.31,-325.2 860.31,-289.6 606.63,-289.6"/>
<polygon fill="none" stroke="black" points="606.63,-289.6 606.63,-325.2 860.31,-325.2 860.31,-289.6 606.63,-289.6"/>
<text text-anchor="start" x="627.98" y="-303" font-family="Arial Bold" font-size="18.00">public.users</text>
<text text-anchor="start" x="714.47" y="-303" font-family="Arial" font-size="14.00">    </text>
<text text-anchor="start" x="745.59" y="-303" font-family="Arial" font-size="14.00" fill="#666666">[BASE TABLE]</text>
<polygon fill="none" stroke="black" points="606.63,-258.8 606.63,-289.6 860.31,-289.6 860.31,-258.8 606.63,-258.8"/>
<text text-anchor="start" x="613.63" y="-271" font-family="Arial" font-size="14.00">id </text>
<text text-anchor="start" x="628.42" y="-271" font-family="Arial" font-size="14.00" fill="#666666">[bigint]</text>
<polygon fill="none" stroke="black" points="606.63,-228 606.63,-258.8 860.31,-258.8 860.31,-228 606.63,-228"/>
<text text-anchor="start" x="613.63" y="-240.2" font-family="Arial" font-size="14.00">email </text>
<text text-anchor="start" x="650.98" y="-240.2" font-family="Arial" font-size="14.00" fill="#666666">[text]</text>
<polygon fill="none" stroke="black" points="606.63,-197.2 606.63,-228 860.31,-228 860.31,-197.2 606.63,-197.2"/>
<text text-anchor="start" x="613.63" y="-209.4" font-family="Arial" font-size="14.00">display_name </text>
<text text-anchor="start" x="703.91" y="-209.4" font-family="Arial" font-size="14.00" fill="#666666">[text]</text>
<polygon fill="none" stroke="black" points="606.63,-166.4 606.63,-197.2 860.31,-197.2 860.31,-166.4 606.63,-166.4"/>
<text text-anchor="start" x="613.63" y="-178.6" font-family="Arial" font-size="14.00">avatar_key </text>
<text text-anchor="start" x="686" y="-178.6" font-family="Arial" font-size="14.00" fill="#666666">[text]</text>
<polygon fill="none" stroke="black" points="606.63,-135.6 606.63,-166.4 860.31,-166.4 860.31,-135.6 606.63,-135.6"/>
<text text-anchor="start" x="613.63" y="-147.8" font-family="Arial" font-size="14.00">status_text </text>
<text text-anchor="start" x="685.22" y="-147.8" font-family="Arial" font-size="14.00" fill="#666666">[text]</text>
<polygon fill="none" stroke="black" points="606.63,-104.8 606.63,-135.6 860.31,-135.6 860.31,-104.8 606.63,-104.8"/>
<text text-anchor="start" x="613.63" y="-117" font-family="Arial" font-size="14.00">theme </text>
<text text-anchor="start" x="656.43" y="-117" font-family="Arial" font-size="14.00" fill="#666666">[text]</text>
<polygon fill="none" stroke="black" points="606.63,-74 606.63,-104.8 860.31,-104.8 860.31,-74 606.63,-74"/>
<text text-anchor="start" x="613.63" y="-86.2" font-family="Arial" font-size="14.00">created_at </text>
<text text-anchor="start" x="683.68" y="-86.2" font-family="Arial" font-size="14.00" fill="#666666">[timestamp with time zone]</text>
<polygon fill="none" stroke="black" points="606.63,-43.2 606.63,-74 860.31,-74 860.31,-43.2 606.63,-43.2"/>
<text text-anchor="start" x="613.63" y="-55.4" font-family="Arial" font-size="14.00">updated_at </text>
<text text-anchor="start" x="687.59" y="-55.4" font-family="Arial" font-size="14.00" fill="#666666">[timestamp with time zone]</text>
</g>
<!-- public.guild_members&#45;&gt;public.users -->
<g id="edge4" class="edge">
<title>public.guild_members:user_id&#45;&gt;public.users:id</title>
<path fill="none" stroke="black" d="M715.6,-526.54C756.86,-517.04 733.81,-446.12 704.45,-404.4 677.79,-366.51 633.34,-406.26 606.63,-368.4 582.49,-334.19 563.76,-274.2 605.63,-274.2"/>
<polygon fill="black" stroke="black" points="715.73,-526.52 705.32,-523.09 710.42,-527.08 706.12,-527.53 706.12,-527.53 706.12,-527.53 710.42,-527.08 706.25,-532.04 715.73,-526.52"/>
<text text-anchor="start" x="712.45" y="-537.6" font-family="Arial" font-size="10.00">FOREIGN KEY (user_id) REFERENCES users(id) ON DELETE CASCADE</text>
</g>
<!-- public.guild_member_roles -->
<g id="node3" class="node">
<title>public.guild_member_roles</title>
<polygon fill="#efefef" stroke="none" points="159,-858 159,-893.6 495.94,-893.6 495.94,-858 159,-858"/>
<polygon fill="none" stroke="black" points="159,-858 159,-893.6 495.94,-893.6 495.94,-858 159,-858"/>
<text text-anchor="start" x="166" y="-871.4" font-family="Arial Bold" font-size="18.00">public.guild_member_roles</text>
<text text-anchor="start" x="364.46" y="-871.4" font-family="Arial" font-size="14.00">    </text>
<text text-anchor="start" x="395.57" y="-871.4" font-family="Arial" font-size="14.00" fill="#666666">[BASE TABLE]</text>
<polygon fill="none" stroke="black" points="159,-827.2 159,-858 495.94,-858 495.94,-827.2 159,-827.2"/>
<text text-anchor="start" x="166" y="-839.4" font-family="Arial" font-size="14.00">guild_id </text>
<text text-anchor="start" x="218.15" y="-839.4" font-family="Arial" font-size="14.00" fill="#666666">[bigint]</text>
<polygon fill="none" stroke="black" points="159,-796.4 159,-827.2 495.94,-827.2 495.94,-796.4 159,-796.4"/>
<text text-anchor="start" x="166" y="-808.6" font-family="Arial" font-size="14.00">user_id </text>
<text text-anchor="start" x="215.8" y="-808.6" font-family="Arial" font-size="14.00" fill="#666666">[bigint]</text>
<polygon fill="none" stroke="black" points="159,-765.6 159,-796.4 495.94,-796.4 495.94,-765.6 159,-765.6"/>
<text text-anchor="start" x="166" y="-777.8" font-family="Arial" font-size="14.00">level </text>
<text text-anchor="start" x="198.68" y="-777.8" font-family="Arial" font-size="14.00" fill="#666666">[role_level]</text>
</g>
<!-- public.guild_member_roles&#45;&gt;public.guild_members -->
<g id="edge2" class="edge">
<title>public.guild_member_roles:guild_id&#45;&gt;public.guild_members:guild_id</title>
<path fill="none" stroke="black" d="M507.01,-841.56C546.17,-832.51 518.62,-766.59 495.94,-722.4 472.96,-677.62 427.52,-700.36 404.49,-655.6 384.73,-617.18 360.29,-558.4 403.49,-558.4"/>
<polygon fill="black" stroke="black" points="507.22,-841.53 496.81,-838.09 501.92,-842.08 497.61,-842.53 497.61,-842.53 497.61,-842.53 501.92,-842.08 497.74,-847.04 507.22,-841.53"/>
<text text-anchor="start" x="7" y="-852.6" font-family="Arial" font-size="10.00">FOREIGN KEY (guild_id, user_id) REFERENCES guild_members(guild_id, user_id) ON DELETE CASCADE</text>
</g>
<!-- public.guild_member_roles_v2 -->
<g id="node4" class="node">
<title>public.guild_member_roles_v2</title>
<polygon fill="#efefef" stroke="none" points="600.5,-888.8 600.5,-924.4 964.44,-924.4 964.44,-888.8 600.5,-888.8"/>
<polygon fill="none" stroke="black" points="600.5,-888.8 600.5,-924.4 964.44,-924.4 964.44,-888.8 600.5,-888.8"/>
<text text-anchor="start" x="607.5" y="-902.2" font-family="Arial Bold" font-size="18.00">public.guild_member_roles_v2</text>
<text text-anchor="start" x="832.96" y="-902.2" font-family="Arial" font-size="14.00">    </text>
<text text-anchor="start" x="864.07" y="-902.2" font-family="Arial" font-size="14.00" fill="#666666">[BASE TABLE]</text>
<polygon fill="none" stroke="black" points="600.5,-858 600.5,-888.8 964.44,-888.8 964.44,-858 600.5,-858"/>
<text text-anchor="start" x="607.5" y="-870.2" font-family="Arial" font-size="14.00">guild_id </text>
<text text-anchor="start" x="659.65" y="-870.2" font-family="Arial" font-size="14.00" fill="#666666">[bigint]</text>
<polygon fill="none" stroke="black" points="600.5,-827.2 600.5,-858 964.44,-858 964.44,-827.2 600.5,-827.2"/>
<text text-anchor="start" x="607.5" y="-839.4" font-family="Arial" font-size="14.00">user_id </text>
<text text-anchor="start" x="657.3" y="-839.4" font-family="Arial" font-size="14.00" fill="#666666">[bigint]</text>
<polygon fill="none" stroke="black" points="600.5,-796.4 600.5,-827.2 964.44,-827.2 964.44,-796.4 600.5,-796.4"/>
<text text-anchor="start" x="607.5" y="-808.6" font-family="Arial" font-size="14.00">role_key </text>
<text text-anchor="start" x="664.3" y="-808.6" font-family="Arial" font-size="14.00" fill="#666666">[text]</text>
<polygon fill="none" stroke="black" points="600.5,-765.6 600.5,-796.4 964.44,-796.4 964.44,-765.6 600.5,-765.6"/>
<text text-anchor="start" x="607.5" y="-777.8" font-family="Arial" font-size="14.00">assigned_at </text>
<text text-anchor="start" x="686.89" y="-777.8" font-family="Arial" font-size="14.00" fill="#666666">[timestamp with time zone]</text>
<polygon fill="none" stroke="black" points="600.5,-734.8 600.5,-765.6 964.44,-765.6 964.44,-734.8 600.5,-734.8"/>
<text text-anchor="start" x="607.5" y="-747" font-family="Arial" font-size="14.00">assigned_by </text>
<text text-anchor="start" x="690" y="-747" font-family="Arial" font-size="14.00" fill="#666666">[bigint]</text>
</g>
<!-- public.guild_member_roles_v2&#45;&gt;public.guild_members -->
<g id="edge3" class="edge">
<title>public.guild_member_roles_v2:guild_id&#45;&gt;public.guild_members:guild_id</title>
<path fill="none" stroke="black" d="M589.3,-872.71C521.84,-863.07 555.57,-754.34 600.5,-691.6 628.97,-651.85 675.89,-695.28 704.45,-655.6 729.69,-620.54 748.65,-558.4 705.45,-558.4"/>
<polygon fill="black" stroke="black" points="589.19,-872.7 598.86,-877.87 594.51,-873.06 598.83,-873.35 598.83,-873.35 598.83,-873.35 594.51,-873.06 599.47,-868.89 589.19,-872.7"/>
<text text-anchor="start" x="606.5" y="-883.4" font-family="Arial" font-size="10.00">FOREIGN KEY (guild_id, user_id) REFERENCES guild_members(guild_id, user_id) ON DELETE CASCADE</text>
</g>
</g>
</svg>
