<?xml version="1.0" encoding="UTF-8" standalone="no"?>
<!DOCTYPE svg PUBLIC "-//W3C//DTD SVG 1.1//EN"
 "http://www.w3.org/Graphics/SVG/1.1/DTD/svg11.dtd">
<!-- Generated by graphviz version 12.1.2 (20240928.0832)
 -->
<!-- Title: public.email_verification_tokens Pages: 1 -->
<svg width="779pt" height="725pt"
 viewBox="0.00 0.00 779.08 725.20" xmlns="http://www.w3.org/2000/svg" xmlns:xlink="http://www.w3.org/1999/xlink">
<g id="graph0" class="graph" transform="scale(1 1) rotate(0) translate(4 721.2)">
<title>public.email_verification_tokens</title>
<polygon fill="white" stroke="none" points="-4,4 -4,-721.2 775.08,-721.2 775.08,4 -4,4"/>
<!-- public.email_verification_tokens -->
<g id="node1" class="node">
<title>public.email_verification_tokens</title>
<polygon fill="#efefef" stroke="none" points="46.2,-635.4 46.2,-671 422.12,-671 422.12,-635.4 46.2,-635.4"/>
<polygon fill="none" stroke="black" points="46.2,-635.4 46.2,-671 422.12,-671 422.12,-635.4 46.2,-635.4"/>
<text text-anchor="start" x="53.2" y="-648.8" font-family="Arial Bold" font-size="18.00">public.email_verification_tokens</text>
<text text-anchor="start" x="290.63" y="-648.8" font-family="Arial" font-size="14.00">    </text>
<text text-anchor="start" x="321.74" y="-648.8" font-family="Arial" font-size="14.00" fill="#666666">[BASE TABLE]</text>
<polygon fill="none" stroke="black" points="46.2,-604.6 46.2,-635.4 422.12,-635.4 422.12,-604.6 46.2,-604.6"/>
<text text-anchor="start" x="53.2" y="-616.8" font-family="Arial" font-size="14.00">user_id </text>
<text text-anchor="start" x="103.01" y="-616.8" font-family="Arial" font-size="14.00" fill="#666666">[bigint]</text>
<polygon fill="none" stroke="black" points="46.2,-573.8 46.2,-604.6 422.12,-604.6 422.12,-573.8 46.2,-573.8"/>
<text text-anchor="start" x="53.2" y="-586" font-family="Arial" font-size="14.00">token_hash </text>
<text text-anchor="start" x="129.48" y="-586" font-family="Arial" font-size="14.00" fill="#666666">[text]</text>
<polygon fill="none" stroke="black" points="46.2,-543 46.2,-573.8 422.12,-573.8 422.12,-543 46.2,-543"/>
<text text-anchor="start" x="53.2" y="-555.2" font-family="Arial" font-size="14.00">expires_at </text>
<text text-anchor="start" x="121.68" y="-555.2" font-family="Arial" font-size="14.00" fill="#666666">[timestamp with time zone]</text>
<polygon fill="none" stroke="black" points="46.2,-512.2 46.2,-543 422.12,-543 422.12,-512.2 46.2,-512.2"/>
<text text-anchor="start" x="53.2" y="-524.4" font-family="Arial" font-size="14.00">created_at </text>
<text text-anchor="start" x="123.25" y="-524.4" font-family="Arial" font-size="14.00" fill="#666666">[timestamp with time zone]</text>
<polygon fill="none" stroke="black" stroke-width="3" points="44.7,-510.7 44.7,-672.5 423.62,-672.5 423.62,-510.7 44.7,-510.7"/>
</g>
<!-- public.users -->
<g id="node2" class="node">
<title>public.users</title>
<polygon fill="#efefef" stroke="none" points="107.32,-351.2 107.32,-386.8 361,-386.8 361,-351.2 107.32,-351.2"/>
<polygon fill="none" stroke="black" points="107.32,-351.2 107.32,-386.8 361,-386.8 361,-351.2 107.32,-351.2"/>
<text text-anchor="start" x="128.67" y="-364.6" font-family="Arial Bold" font-size="18.00">public.users</text>
<text text-anchor="start" x="215.16" y="-364.6" font-family="Arial" font-size="14.00">    </text>
<text text-anchor="start" x="246.27" y="-364.6" font-family="Arial" font-size="14.00" fill="#666666">[BASE TABLE]</text>
<polygon fill="none" stroke="black" points="107.32,-320.4 107.32,-351.2 361,-351.2 361,-320.4 107.32,-320.4"/>
<text text-anchor="start" x="114.32" y="-332.6" font-family="Arial" font-size="14.00">id </text>
<text text-anchor="start" x="129.1" y="-332.6" font-family="Arial" font-size="14.00" fill="#666666">[bigint]</text>
<polygon fill="none" stroke="black" points="107.32,-289.6 107.32,-320.4 361,-320.4 361,-289.6 107.32,-289.6"/>
<text text-anchor="start" x="114.32" y="-301.8" font-family="Arial" font-size="14.00">email </text>
<text text-anchor="start" x="151.66" y="-301.8" font-family="Arial" font-size="14.00" fill="#666666">[text]</text>
<polygon fill="none" stroke="black" points="107.32,-258.8 107.32,-289.6 361,-289.6 361,-258.8 107.32,-258.8"/>
<text text-anchor="start" x="114.32" y="-271" font-family="Arial" font-size="14.00">email_verified </text>
<text text-anchor="start" x="204.58" y="-271" font-family="Arial" font-size="14.00" fill="#666666">[boolean]</text>
<polygon fill="none" stroke="black" points="107.32,-228 107.32,-258.8 361,-258.8 361,-228 107.32,-228"/>
<text text-anchor="start" x="114.32" y="-240.2" font-family="Arial" font-size="14.00">password_hash </text>
<text text-anchor="start" x="216.27" y="-240.2" font-family="Arial" font-size="14.00" fill="#666666">[text]</text>
<polygon fill="none" stroke="black" points="107.32,-197.2 107.32,-228 361,-228 361,-197.2 107.32,-197.2"/>
<text text-anchor="start" x="114.32" y="-209.4" font-family="Arial" font-size="14.00">display_name </text>
<text text-anchor="start" x="204.59" y="-209.4" font-family="Arial" font-size="14.00" fill="#666666">[text]</text>
<polygon fill="none" stroke="black" points="107.32,-166.4 107.32,-197.2 361,-197.2 361,-166.4 107.32,-166.4"/>
<text text-anchor="start" x="114.32" y="-178.6" font-family="Arial" font-size="14.00">avatar_key </text>
<text text-anchor="start" x="186.69" y="-178.6" font-family="Arial" font-size="14.00" fill="#666666">[text]</text>
<polygon fill="none" stroke="black" points="107.32,-135.6 107.32,-166.4 361,-166.4 361,-135.6 107.32,-135.6"/>
<text text-anchor="start" x="114.32" y="-147.8" font-family="Arial" font-size="14.00">status_text </text>
<text text-anchor="start" x="185.91" y="-147.8" font-family="Arial" font-size="14.00" fill="#666666">[text]</text>
<polygon fill="none" stroke="black" points="107.32,-104.8 107.32,-135.6 361,-135.6 361,-104.8 107.32,-104.8"/>
<text text-anchor="start" x="114.32" y="-117" font-family="Arial" font-size="14.00">theme </text>
<text text-anchor="start" x="157.12" y="-117" font-family="Arial" font-size="14.00" fill="#666666">[text]</text>
<polygon fill="none" stroke="black" points="107.32,-74 107.32,-104.8 361,-104.8 361,-74 107.32,-74"/>
<text text-anchor="start" x="114.32" y="-86.2" font-family="Arial" font-size="14.00">created_at </text>
<text text-anchor="start" x="184.37" y="-86.2" font-family="Arial" font-size="14.00" fill="#666666">[timestamp with time zone]</text>
<polygon fill="none" stroke="black" points="107.32,-43.2 107.32,-74 361,-74 361,-43.2 107.32,-43.2"/>
<text text-anchor="start" x="114.32" y="-55.4" font-family="Arial" font-size="14.00">updated_at </text>
<text text-anchor="start" x="188.28" y="-55.4" font-family="Arial" font-size="14.00" fill="#666666">[timestamp with time zone]</text>
</g>
<!-- public.email_verification_tokens&#45;&gt;public.users -->
<g id="edge1" class="edge">
<title>public.email_verification_tokens:user_id&#45;&gt;public.users:id</title>
<path fill="none" stroke="black" d="M433.29,-619.37C548.92,-604.67 487.67,-335.8 362,-335.8"/>
<polygon fill="black" stroke="black" points="433.43,-619.37 423.17,-615.49 428.11,-619.69 423.78,-619.96 423.78,-619.96 423.78,-619.96 428.11,-619.69 423.73,-624.47 433.43,-619.37"/>
<text text-anchor="start" x="430.12" y="-630" font-family="Arial" font-size="10.00">FOREIGN KEY (user_id) REFERENCES users(id) ON DELETE CASCADE</text>
</g>
</g>
</svg>
