<?xml version="1.0" encoding="UTF-8" standalone="no"?>
<!DOCTYPE svg PUBLIC "-//W3C//DTD SVG 1.1//EN"
 "http://www.w3.org/Graphics/SVG/1.1/DTD/svg11.dtd">
<!-- Generated by graphviz version 12.1.2 (20240928.0832)
 -->
<!-- Title: public.channel_hierarchies_v2 Pages: 1 -->
<svg width="827pt" height="787pt"
 viewBox="0.00 0.00 827.13 786.80" xmlns="http://www.w3.org/2000/svg" xmlns:xlink="http://www.w3.org/1999/xlink">
<g id="graph0" class="graph" transform="scale(1 1) rotate(0) translate(4 782.8)">
<title>public.channel_hierarchies_v2</title>
<polygon fill="white" stroke="none" points="-4,4 -4,-782.8 823.13,-782.8 823.13,4 -4,4"/>
<!-- public.channel_hierarchies_v2 -->
<g id="node1" class="node">
<title>public.channel_hierarchies_v2</title>
<polygon fill="#efefef" stroke="none" points="46.2,-697 46.2,-732.6 405.1,-732.6 405.1,-697 46.2,-697"/>
<polygon fill="none" stroke="black" points="46.2,-697 46.2,-732.6 405.1,-732.6 405.1,-697 46.2,-697"/>
<text text-anchor="start" x="53.2" y="-710.4" font-family="Arial Bold" font-size="18.00">public.channel_hierarchies_v2</text>
<text text-anchor="start" x="273.61" y="-710.4" font-family="Arial" font-size="14.00">    </text>
<text text-anchor="start" x="304.73" y="-710.4" font-family="Arial" font-size="14.00" fill="#666666">[BASE TABLE]</text>
<polygon fill="none" stroke="black" points="46.2,-666.2 46.2,-697 405.1,-697 405.1,-666.2 46.2,-666.2"/>
<text text-anchor="start" x="53.2" y="-678.4" font-family="Arial" font-size="14.00">child_channel_id </text>
<text text-anchor="start" x="161.39" y="-678.4" font-family="Arial" font-size="14.00" fill="#666666">[bigint]</text>
<polygon fill="none" stroke="black" points="46.2,-635.4 46.2,-666.2 405.1,-666.2 405.1,-635.4 46.2,-635.4"/>
<text text-anchor="start" x="53.2" y="-647.6" font-family="Arial" font-size="14.00">guild_id </text>
<text text-anchor="start" x="105.35" y="-647.6" font-family="Arial" font-size="14.00" fill="#666666">[bigint]</text>
<polygon fill="none" stroke="black" points="46.2,-604.6 46.2,-635.4 405.1,-635.4 405.1,-604.6 46.2,-604.6"/>
<text text-anchor="start" x="53.2" y="-616.8" font-family="Arial" font-size="14.00">parent_channel_id </text>
<text text-anchor="start" x="172.3" y="-616.8" font-family="Arial" font-size="14.00" fill="#666666">[bigint]</text>
<polygon fill="none" stroke="black" points="46.2,-573.8 46.2,-604.6 405.1,-604.6 405.1,-573.8 46.2,-573.8"/>
<text text-anchor="start" x="53.2" y="-586" font-family="Arial" font-size="14.00">hierarchy_kind </text>
<text text-anchor="start" x="148.14" y="-586" font-family="Arial" font-size="14.00" fill="#666666">[channel_hierarchy_kind]</text>
<polygon fill="none" stroke="black" points="46.2,-543 46.2,-573.8 405.1,-573.8 405.1,-543 46.2,-543"/>
<text text-anchor="start" x="53.2" y="-555.2" font-family="Arial" font-size="14.00">parent_message_id </text>
<text text-anchor="start" x="180.06" y="-555.2" font-family="Arial" font-size="14.00" fill="#666666">[bigint]</text>
<polygon fill="none" stroke="black" points="46.2,-512.2 46.2,-543 405.1,-543 405.1,-512.2 46.2,-512.2"/>
<text text-anchor="start" x="53.2" y="-524.4" font-family="Arial" font-size="14.00">position </text>
<text text-anchor="start" x="105.34" y="-524.4" font-family="Arial" font-size="14.00" fill="#666666">[integer]</text>
<polygon fill="none" stroke="black" points="46.2,-481.4 46.2,-512.2 405.1,-512.2 405.1,-481.4 46.2,-481.4"/>
<text text-anchor="start" x="53.2" y="-493.6" font-family="Arial" font-size="14.00">archived_at </text>
<text text-anchor="start" x="129.47" y="-493.6" font-family="Arial" font-size="14.00" fill="#666666">[timestamp with time zone]</text>
<polygon fill="none" stroke="black" points="46.2,-450.6 46.2,-481.4 405.1,-481.4 405.1,-450.6 46.2,-450.6"/>
<text text-anchor="start" x="53.2" y="-462.8" font-family="Arial" font-size="14.00">created_at </text>
<text text-anchor="start" x="123.25" y="-462.8" font-family="Arial" font-size="14.00" fill="#666666">[timestamp with time zone]</text>
<polygon fill="none" stroke="black" points="46.2,-419.8 46.2,-450.6 405.1,-450.6 405.1,-419.8 46.2,-419.8"/>
<text text-anchor="start" x="53.2" y="-432" font-family="Arial" font-size="14.00">updated_at </text>
<text text-anchor="start" x="127.16" y="-432" font-family="Arial" font-size="14.00" fill="#666666">[timestamp with time zone]</text>
<polygon fill="none" stroke="black" stroke-width="3" points="44.7,-418.3 44.7,-734.1 406.6,-734.1 406.6,-418.3 44.7,-418.3"/>
</g>
<!-- public.channels -->
<g id="node2" class="node">
<title>public.channels</title>
<polygon fill="#efefef" stroke="none" points="98.81,-258.8 98.81,-294.4 352.49,-294.4 352.49,-258.8 98.81,-258.8"/>
<polygon fill="none" stroke="black" points="98.81,-258.8 98.81,-294.4 352.49,-294.4 352.49,-258.8 98.81,-258.8"/>
<text text-anchor="start" x="107.17" y="-272.2" font-family="Arial Bold" font-size="18.00">public.channels</text>
<text text-anchor="start" x="219.64" y="-272.2" font-family="Arial" font-size="14.00">    </text>
<text text-anchor="start" x="250.76" y="-272.2" font-family="Arial" font-size="14.00" fill="#666666">[BASE TABLE]</text>
<polygon fill="none" stroke="black" points="98.81,-228 98.81,-258.8 352.49,-258.8 352.49,-228 98.81,-228"/>
<text text-anchor="start" x="105.81" y="-240.2" font-family="Arial" font-size="14.00">id </text>
<text text-anchor="start" x="120.6" y="-240.2" font-family="Arial" font-size="14.00" fill="#666666">[bigint]</text>
<polygon fill="none" stroke="black" points="98.81,-197.2 98.81,-228 352.49,-228 352.49,-197.2 98.81,-197.2"/>
<text text-anchor="start" x="105.81" y="-209.4" font-family="Arial" font-size="14.00">type </text>
<text text-anchor="start" x="136.16" y="-209.4" font-family="Arial" font-size="14.00" fill="#666666">[channel_type]</text>
<polygon fill="none" stroke="black" points="98.81,-166.4 98.81,-197.2 352.49,-197.2 352.49,-166.4 98.81,-166.4"/>
<text text-anchor="start" x="105.81" y="-178.6" font-family="Arial" font-size="14.00">guild_id </text>
<text text-anchor="start" x="157.96" y="-178.6" font-family="Arial" font-size="14.00" fill="#666666">[bigint]</text>
<polygon fill="none" stroke="black" points="98.81,-135.6 98.81,-166.4 352.49,-166.4 352.49,-135.6 98.81,-135.6"/>
<text text-anchor="start" x="105.81" y="-147.8" font-family="Arial" font-size="14.00">name </text>
<text text-anchor="start" x="144.72" y="-147.8" font-family="Arial" font-size="14.00" fill="#666666">[text]</text>
<polygon fill="none" stroke="black" points="98.81,-104.8 98.81,-135.6 352.49,-135.6 352.49,-104.8 98.81,-104.8"/>
<text text-anchor="start" x="105.81" y="-117" font-family="Arial" font-size="14.00">created_by </text>
<text text-anchor="start" x="178.97" y="-117" font-family="Arial" font-size="14.00" fill="#666666">[bigint]</text>
<polygon fill="none" stroke="black" points="98.81,-74 98.81,-104.8 352.49,-104.8 352.49,-74 98.81,-74"/>
<text text-anchor="start" x="105.81" y="-86.2" font-family="Arial" font-size="14.00">created_at </text>
<text text-anchor="start" x="175.86" y="-86.2" font-family="Arial" font-size="14.00" fill="#666666">[timestamp with time zone]</text>
<polygon fill="none" stroke="black" points="98.81,-43.2 98.81,-74 352.49,-74 352.49,-43.2 98.81,-43.2"/>
<text text-anchor="start" x="105.81" y="-55.4" font-family="Arial" font-size="14.00">updated_at </text>
<text text-anchor="start" x="179.77" y="-55.4" font-family="Arial" font-size="14.00" fill="#666666">[timestamp with time zone]</text>
</g>
<!-- public.channel_hierarchies_v2&#45;&gt;public.channels -->
<g id="edge1" class="edge">
<title>public.channel_hierarchies_v2:child_channel_id&#45;&gt;public.channels:id</title>
<path fill="none" stroke="black" d="M416.42,-681.24C537.14,-672.47 430.31,-504.47 405.1,-373.6 393.33,-312.48 415.74,-243.4 353.49,-243.4"/>
<polygon fill="black" stroke="black" points="416.43,-681.24 406.28,-677.09 411.1,-681.43 406.77,-681.58 406.77,-681.58 406.77,-681.58 411.1,-681.43 406.59,-686.09 416.43,-681.24"/>
<text text-anchor="start" x="413.1" y="-691.6" font-family="Arial" font-size="10.00">FOREIGN KEY (child_channel_id) REFERENCES channels(id) ON DELETE CASCADE</text>
</g>
<!-- public.channel_hierarchies_v2&#45;&gt;public.channels -->
<g id="edge3" class="edge">
<title>public.channel_hierarchies_v2:parent_channel_id&#45;&gt;public.channels:id</title>
<path fill="none" stroke="black" d="M416.36,-619.55C509.73,-610.81 425.17,-477.56 405.1,-373.6 393.3,-312.48 415.74,-243.4 353.49,-243.4"/>
<polygon fill="black" stroke="black" points="416.43,-619.54 406.24,-615.49 411.1,-619.78 406.77,-619.97 406.77,-619.97 406.77,-619.97 411.1,-619.78 406.63,-624.48 416.43,-619.54"/>
<text text-anchor="start" x="413.1" y="-630" font-family="Arial" font-size="10.00">FOREIGN KEY (parent_channel_id) REFERENCES channels(id) ON DELETE CASCADE</text>
</g>
<!-- public.guilds -->
<g id="node3" class="node">
<title>public.guilds</title>
<polygon fill="#efefef" stroke="none" points="456.81,-243.4 456.81,-279 710.49,-279 710.49,-243.4 456.81,-243.4"/>
<polygon fill="none" stroke="black" points="456.81,-243.4 456.81,-279 710.49,-279 710.49,-243.4 456.81,-243.4"/>
<text text-anchor="start" x="474.66" y="-256.8" font-family="Arial Bold" font-size="18.00">public.guilds</text>
<text text-anchor="start" x="568.16" y="-256.8" font-family="Arial" font-size="14.00">    </text>
<text text-anchor="start" x="599.27" y="-256.8" font-family="Arial" font-size="14.00" fill="#666666">[BASE TABLE]</text>
<polygon fill="none" stroke="black" points="456.81,-212.6 456.81,-243.4 710.49,-243.4 710.49,-212.6 456.81,-212.6"/>
<text text-anchor="start" x="463.81" y="-224.8" font-family="Arial" font-size="14.00">id </text>
<text text-anchor="start" x="478.6" y="-224.8" font-family="Arial" font-size="14.00" fill="#666666">[bigint]</text>
<polygon fill="none" stroke="black" points="456.81,-181.8 456.81,-212.6 710.49,-212.6 710.49,-181.8 456.81,-181.8"/>
<text text-anchor="start" x="463.81" y="-194" font-family="Arial" font-size="14.00">name </text>
<text text-anchor="start" x="502.72" y="-194" font-family="Arial" font-size="14.00" fill="#666666">[text]</text>
<polygon fill="none" stroke="black" points="456.81,-151 456.81,-181.8 710.49,-181.8 710.49,-151 456.81,-151"/>
<text text-anchor="start" x="463.81" y="-163.2" font-family="Arial" font-size="14.00">owner_id </text>
<text text-anchor="start" x="524.51" y="-163.2" font-family="Arial" font-size="14.00" fill="#666666">[bigint]</text>
<polygon fill="none" stroke="black" points="456.81,-120.2 456.81,-151 710.49,-151 710.49,-120.2 456.81,-120.2"/>
<text text-anchor="start" x="463.81" y="-132.4" font-family="Arial" font-size="14.00">icon_key </text>
<text text-anchor="start" x="522.95" y="-132.4" font-family="Arial" font-size="14.00" fill="#666666">[text]</text>
<polygon fill="none" stroke="black" points="456.81,-89.4 456.81,-120.2 710.49,-120.2 710.49,-89.4 456.81,-89.4"/>
<text text-anchor="start" x="463.81" y="-101.6" font-family="Arial" font-size="14.00">created_at </text>
<text text-anchor="start" x="533.86" y="-101.6" font-family="Arial" font-size="14.00" fill="#666666">[timestamp with time zone]</text>
<polygon fill="none" stroke="black" points="456.81,-58.6 456.81,-89.4 710.49,-89.4 710.49,-58.6 456.81,-58.6"/>
<text text-anchor="start" x="463.81" y="-70.8" font-family="Arial" font-size="14.00">updated_at </text>
<text text-anchor="start" x="537.77" y="-70.8" font-family="Arial" font-size="14.00" fill="#666666">[timestamp with time zone]</text>
</g>
<!-- public.channel_hierarchies_v2&#45;&gt;public.guilds -->
<g id="edge2" class="edge">
<title>public.channel_hierarchies_v2:guild_id&#45;&gt;public.guilds:id</title>
<path fill="none" stroke="black" d="M416.14,-648.91C490.16,-618.41 364.9,-228 455.81,-228"/>
<polygon fill="black" stroke="black" points="416.26,-648.89 405.6,-646.32 411.02,-649.88 406.76,-650.68 406.76,-650.68 406.76,-650.68 411.02,-649.88 407.26,-655.16 416.26,-648.89"/>
<text text-anchor="start" x="413.1" y="-660.8" font-family="Arial" font-size="10.00">FOREIGN KEY (guild_id) REFERENCES guilds(id) ON DELETE CASCADE</text>
</g>
</g>
</svg>
