<?xml version="1.0" encoding="UTF-8" standalone="no"?>
<!DOCTYPE svg PUBLIC "-//W3C//DTD SVG 1.1//EN"
 "http://www.w3.org/Graphics/SVG/1.1/DTD/svg11.dtd">
<!-- Generated by graphviz version 12.1.2 (20240928.0832)
 -->
<!-- Title: public.users Pages: 1 -->
<svg width="4351pt" height="879pt"
 viewBox="0.00 0.00 4351.37 879.20" xmlns="http://www.w3.org/2000/svg" xmlns:xlink="http://www.w3.org/1999/xlink">
<g id="graph0" class="graph" transform="scale(1 1) rotate(0) translate(4 875.2)">
<title>public.users</title>
<polygon fill="white" stroke="none" points="-4,4 -4,-875.2 4347.37,-875.2 4347.37,4 -4,4"/>
<!-- public.users -->
<g id="node1" class="node">
<title>public.users</title>
<polygon fill="#efefef" stroke="none" points="1813.86,-354.2 1813.86,-389.8 2067.54,-389.8 2067.54,-354.2 1813.86,-354.2"/>
<polygon fill="none" stroke="black" points="1813.86,-354.2 1813.86,-389.8 2067.54,-389.8 2067.54,-354.2 1813.86,-354.2"/>
<text text-anchor="start" x="1835.21" y="-367.6" font-family="Arial Bold" font-size="18.00">public.users</text>
<text text-anchor="start" x="1921.7" y="-367.6" font-family="Arial" font-size="14.00">    </text>
<text text-anchor="start" x="1952.81" y="-367.6" font-family="Arial" font-size="14.00" fill="#666666">[BASE TABLE]</text>
<polygon fill="none" stroke="black" points="1813.86,-323.4 1813.86,-354.2 2067.54,-354.2 2067.54,-323.4 1813.86,-323.4"/>
<text text-anchor="start" x="1820.86" y="-335.6" font-family="Arial" font-size="14.00">id </text>
<text text-anchor="start" x="1835.64" y="-335.6" font-family="Arial" font-size="14.00" fill="#666666">[bigint]</text>
<polygon fill="none" stroke="black" points="1813.86,-292.6 1813.86,-323.4 2067.54,-323.4 2067.54,-292.6 1813.86,-292.6"/>
<text text-anchor="start" x="1820.86" y="-304.8" font-family="Arial" font-size="14.00">email </text>
<text text-anchor="start" x="1858.2" y="-304.8" font-family="Arial" font-size="14.00" fill="#666666">[text]</text>
<polygon fill="none" stroke="black" points="1813.86,-261.8 1813.86,-292.6 2067.54,-292.6 2067.54,-261.8 1813.86,-261.8"/>
<text text-anchor="start" x="1820.86" y="-274" font-family="Arial" font-size="14.00">email_verified </text>
<text text-anchor="start" x="1911.12" y="-274" font-family="Arial" font-size="14.00" fill="#666666">[boolean]</text>
<polygon fill="none" stroke="black" points="1813.86,-231 1813.86,-261.8 2067.54,-261.8 2067.54,-231 1813.86,-231"/>
<text text-anchor="start" x="1820.86" y="-243.2" font-family="Arial" font-size="14.00">password_hash </text>
<text text-anchor="start" x="1922.81" y="-243.2" font-family="Arial" font-size="14.00" fill="#666666">[text]</text>
<polygon fill="none" stroke="black" points="1813.86,-200.2 1813.86,-231 2067.54,-231 2067.54,-200.2 1813.86,-200.2"/>
<text text-anchor="start" x="1820.86" y="-212.4" font-family="Arial" font-size="14.00">display_name </text>
<text text-anchor="start" x="1911.13" y="-212.4" font-family="Arial" font-size="14.00" fill="#666666">[text]</text>
<polygon fill="none" stroke="black" points="1813.86,-169.4 1813.86,-200.2 2067.54,-200.2 2067.54,-169.4 1813.86,-169.4"/>
<text text-anchor="start" x="1820.86" y="-181.6" font-family="Arial" font-size="14.00">avatar_key </text>
<text text-anchor="start" x="1893.23" y="-181.6" font-family="Arial" font-size="14.00" fill="#666666">[text]</text>
<polygon fill="none" stroke="black" points="1813.86,-138.6 1813.86,-169.4 2067.54,-169.4 2067.54,-138.6 1813.86,-138.6"/>
<text text-anchor="start" x="1820.86" y="-150.8" font-family="Arial" font-size="14.00">status_text </text>
<text text-anchor="start" x="1892.45" y="-150.8" font-family="Arial" font-size="14.00" fill="#666666">[text]</text>
<polygon fill="none" stroke="black" points="1813.86,-107.8 1813.86,-138.6 2067.54,-138.6 2067.54,-107.8 1813.86,-107.8"/>
<text text-anchor="start" x="1820.86" y="-120" font-family="Arial" font-size="14.00">theme </text>
<text text-anchor="start" x="1863.66" y="-120" font-family="Arial" font-size="14.00" fill="#666666">[text]</text>
<polygon fill="none" stroke="black" points="1813.86,-77 1813.86,-107.8 2067.54,-107.8 2067.54,-77 1813.86,-77"/>
<text text-anchor="start" x="1820.86" y="-89.2" font-family="Arial" font-size="14.00">created_at </text>
<text text-anchor="start" x="1890.9" y="-89.2" font-family="Arial" font-size="14.00" fill="#666666">[timestamp with time zone]</text>
<polygon fill="none" stroke="black" points="1813.86,-46.2 1813.86,-77 2067.54,-77 2067.54,-46.2 1813.86,-46.2"/>
<text text-anchor="start" x="1820.86" y="-58.4" font-family="Arial" font-size="14.00">updated_at </text>
<text text-anchor="start" x="1894.81" y="-58.4" font-family="Arial" font-size="14.00" fill="#666666">[timestamp with time zone]</text>
<polygon fill="none" stroke="black" stroke-width="3" points="1812.36,-44.7 1812.36,-391.3 2069.04,-391.3 2069.04,-44.7 1812.36,-44.7"/>
</g>
<!-- public.audit_logs -->
<g id="node2" class="node">
<title>public.audit_logs</title>
<polygon fill="#efefef" stroke="none" points="86.21,-777 86.21,-812.6 349.19,-812.6 349.19,-777 86.21,-777"/>
<polygon fill="none" stroke="black" points="86.21,-777 86.21,-812.6 349.19,-812.6 349.19,-777 86.21,-777"/>
<text text-anchor="start" x="93.21" y="-790.4" font-family="Arial Bold" font-size="18.00">public.audit_logs</text>
<text text-anchor="start" x="217.7" y="-790.4" font-family="Arial" font-size="14.00">    </text>
<text text-anchor="start" x="248.81" y="-790.4" font-family="Arial" font-size="14.00" fill="#666666">[BASE TABLE]</text>
<polygon fill="none" stroke="black" points="86.21,-746.2 86.21,-777 349.19,-777 349.19,-746.2 86.21,-746.2"/>
<text text-anchor="start" x="93.21" y="-758.4" font-family="Arial" font-size="14.00">id </text>
<text text-anchor="start" x="108" y="-758.4" font-family="Arial" font-size="14.00" fill="#666666">[bigint]</text>
<polygon fill="none" stroke="black" points="86.21,-715.4 86.21,-746.2 349.19,-746.2 349.19,-715.4 86.21,-715.4"/>
<text text-anchor="start" x="93.21" y="-727.6" font-family="Arial" font-size="14.00">guild_id </text>
<text text-anchor="start" x="145.36" y="-727.6" font-family="Arial" font-size="14.00" fill="#666666">[bigint]</text>
<polygon fill="none" stroke="black" points="86.21,-684.6 86.21,-715.4 349.19,-715.4 349.19,-684.6 86.21,-684.6"/>
<text text-anchor="start" x="93.21" y="-696.8" font-family="Arial" font-size="14.00">actor_id </text>
<text text-anchor="start" x="146.91" y="-696.8" font-family="Arial" font-size="14.00" fill="#666666">[bigint]</text>
<polygon fill="none" stroke="black" points="86.21,-653.8 86.21,-684.6 349.19,-684.6 349.19,-653.8 86.21,-653.8"/>
<text text-anchor="start" x="93.21" y="-666" font-family="Arial" font-size="14.00">action </text>
<text text-anchor="start" x="134.46" y="-666" font-family="Arial" font-size="14.00" fill="#666666">[audit_action]</text>
<polygon fill="none" stroke="black" points="86.21,-623 86.21,-653.8 349.19,-653.8 349.19,-623 86.21,-623"/>
<text text-anchor="start" x="93.21" y="-635.2" font-family="Arial" font-size="14.00">target_type </text>
<text text-anchor="start" x="167.15" y="-635.2" font-family="Arial" font-size="14.00" fill="#666666">[text]</text>
<polygon fill="none" stroke="black" points="86.21,-592.2 86.21,-623 349.19,-623 349.19,-592.2 86.21,-592.2"/>
<text text-anchor="start" x="93.21" y="-604.4" font-family="Arial" font-size="14.00">target_id </text>
<text text-anchor="start" x="151.58" y="-604.4" font-family="Arial" font-size="14.00" fill="#666666">[bigint]</text>
<polygon fill="none" stroke="black" points="86.21,-561.4 86.21,-592.2 349.19,-592.2 349.19,-561.4 86.21,-561.4"/>
<text text-anchor="start" x="93.21" y="-573.6" font-family="Arial" font-size="14.00">metadata </text>
<text text-anchor="start" x="155.47" y="-573.6" font-family="Arial" font-size="14.00" fill="#666666">[jsonb]</text>
<polygon fill="none" stroke="black" points="86.21,-530.6 86.21,-561.4 349.19,-561.4 349.19,-530.6 86.21,-530.6"/>
<text text-anchor="start" x="93.21" y="-542.8" font-family="Arial" font-size="14.00">created_at </text>
<text text-anchor="start" x="163.26" y="-542.8" font-family="Arial" font-size="14.00" fill="#666666">[timestamp with time zone]</text>
</g>
<!-- public.audit_logs&#45;&gt;public.users -->
<g id="edge1" class="edge">
<title>public.audit_logs:actor_id&#45;&gt;public.users:id</title>
<path fill="none" stroke="black" d="M360.54,-699.39C444.78,-688.61 325.71,-538.22 400.7,-472 518.83,-367.68 1655.25,-338.8 1812.86,-338.8"/>
<polygon fill="black" stroke="black" points="360.5,-699.39 350.25,-695.49 355.18,-699.7 350.85,-699.96 350.85,-699.96 350.85,-699.96 355.18,-699.7 350.79,-704.47 360.5,-699.39"/>
<text text-anchor="start" x="7" y="-710" font-family="Arial" font-size="10.00">FOREIGN KEY (actor_id) REFERENCES users(id) ON DELETE SET NULL</text>
</g>
<!-- public.channel_reads -->
<g id="node3" class="node">
<title>public.channel_reads</title>
<polygon fill="#efefef" stroke="none" points="453.23,-730.8 453.23,-766.4 744.16,-766.4 744.16,-730.8 453.23,-730.8"/>
<polygon fill="none" stroke="black" points="453.23,-730.8 453.23,-766.4 744.16,-766.4 744.16,-730.8 453.23,-730.8"/>
<text text-anchor="start" x="460.23" y="-744.2" font-family="Arial Bold" font-size="18.00">public.channel_reads</text>
<text text-anchor="start" x="612.67" y="-744.2" font-family="Arial" font-size="14.00">    </text>
<text text-anchor="start" x="643.79" y="-744.2" font-family="Arial" font-size="14.00" fill="#666666">[BASE TABLE]</text>
<polygon fill="none" stroke="black" points="453.23,-700 453.23,-730.8 744.16,-730.8 744.16,-700 453.23,-700"/>
<text text-anchor="start" x="460.23" y="-712.2" font-family="Arial" font-size="14.00">channel_id </text>
<text text-anchor="start" x="531.85" y="-712.2" font-family="Arial" font-size="14.00" fill="#666666">[bigint]</text>
<polygon fill="none" stroke="black" points="453.23,-669.2 453.23,-700 744.16,-700 744.16,-669.2 453.23,-669.2"/>
<text text-anchor="start" x="460.23" y="-681.4" font-family="Arial" font-size="14.00">user_id </text>
<text text-anchor="start" x="510.04" y="-681.4" font-family="Arial" font-size="14.00" fill="#666666">[bigint]</text>
<polygon fill="none" stroke="black" points="453.23,-638.4 453.23,-669.2 744.16,-669.2 744.16,-638.4 453.23,-638.4"/>
<text text-anchor="start" x="460.23" y="-650.6" font-family="Arial" font-size="14.00">last_read_message_id </text>
<text text-anchor="start" x="604.99" y="-650.6" font-family="Arial" font-size="14.00" fill="#666666">[bigint]</text>
<polygon fill="none" stroke="black" points="453.23,-607.6 453.23,-638.4 744.16,-638.4 744.16,-607.6 453.23,-607.6"/>
<text text-anchor="start" x="460.23" y="-619.8" font-family="Arial" font-size="14.00">last_client_seq </text>
<text text-anchor="start" x="556.74" y="-619.8" font-family="Arial" font-size="14.00" fill="#666666">[bigint]</text>
<polygon fill="none" stroke="black" points="453.23,-576.8 453.23,-607.6 744.16,-607.6 744.16,-576.8 453.23,-576.8"/>
<text text-anchor="start" x="460.23" y="-589" font-family="Arial" font-size="14.00">updated_at </text>
<text text-anchor="start" x="534.19" y="-589" font-family="Arial" font-size="14.00" fill="#666666">[timestamp with time zone]</text>
</g>
<!-- public.channel_reads&#45;&gt;public.users -->
<g id="edge2" class="edge">
<title>public.channel_reads:user_id&#45;&gt;public.users:id</title>
<path fill="none" stroke="black" d="M755.12,-684C833.89,-673.76 727.04,-534.55 796.7,-472 881.43,-395.92 1698.98,-338.8 1812.86,-338.8"/>
<polygon fill="black" stroke="black" points="755.48,-683.98 745.23,-680.09 750.15,-684.3 745.83,-684.56 745.83,-684.56 745.83,-684.56 750.15,-684.3 745.76,-689.07 755.48,-683.98"/>
<text text-anchor="start" x="578.18" y="-668.6" font-family="Arial" font-size="10.00">FOREIGN KEY (user_id) REFERENCES users(id) ON DELETE CASCADE</text>
</g>
<!-- public.channels -->
<g id="node4" class="node">
<title>public.channels</title>
<polygon fill="#efefef" stroke="none" points="848.86,-761.6 848.86,-797.2 1102.54,-797.2 1102.54,-761.6 848.86,-761.6"/>
<polygon fill="none" stroke="black" points="848.86,-761.6 848.86,-797.2 1102.54,-797.2 1102.54,-761.6 848.86,-761.6"/>
<text text-anchor="start" x="857.22" y="-775" font-family="Arial Bold" font-size="18.00">public.channels</text>
<text text-anchor="start" x="969.69" y="-775" font-family="Arial" font-size="14.00">    </text>
<text text-anchor="start" x="1000.8" y="-775" font-family="Arial" font-size="14.00" fill="#666666">[BASE TABLE]</text>
<polygon fill="none" stroke="black" points="848.86,-730.8 848.86,-761.6 1102.54,-761.6 1102.54,-730.8 848.86,-730.8"/>
<text text-anchor="start" x="855.86" y="-743" font-family="Arial" font-size="14.00">id </text>
<text text-anchor="start" x="870.64" y="-743" font-family="Arial" font-size="14.00" fill="#666666">[bigint]</text>
<polygon fill="none" stroke="black" points="848.86,-700 848.86,-730.8 1102.54,-730.8 1102.54,-700 848.86,-700"/>
<text text-anchor="start" x="855.86" y="-712.2" font-family="Arial" font-size="14.00">type </text>
<text text-anchor="start" x="886.21" y="-712.2" font-family="Arial" font-size="14.00" fill="#666666">[channel_type]</text>
<polygon fill="none" stroke="black" points="848.86,-669.2 848.86,-700 1102.54,-700 1102.54,-669.2 848.86,-669.2"/>
<text text-anchor="start" x="855.86" y="-681.4" font-family="Arial" font-size="14.00">guild_id </text>
<text text-anchor="start" x="908.01" y="-681.4" font-family="Arial" font-size="14.00" fill="#666666">[bigint]</text>
<polygon fill="none" stroke="black" points="848.86,-638.4 848.86,-669.2 1102.54,-669.2 1102.54,-638.4 848.86,-638.4"/>
<text text-anchor="start" x="855.86" y="-650.6" font-family="Arial" font-size="14.00">name </text>
<text text-anchor="start" x="894.77" y="-650.6" font-family="Arial" font-size="14.00" fill="#666666">[text]</text>
<polygon fill="none" stroke="black" points="848.86,-607.6 848.86,-638.4 1102.54,-638.4 1102.54,-607.6 848.86,-607.6"/>
<text text-anchor="start" x="855.86" y="-619.8" font-family="Arial" font-size="14.00">created_by </text>
<text text-anchor="start" x="929.02" y="-619.8" font-family="Arial" font-size="14.00" fill="#666666">[bigint]</text>
<polygon fill="none" stroke="black" points="848.86,-576.8 848.86,-607.6 1102.54,-607.6 1102.54,-576.8 848.86,-576.8"/>
<text text-anchor="start" x="855.86" y="-589" font-family="Arial" font-size="14.00">created_at </text>
<text text-anchor="start" x="925.9" y="-589" font-family="Arial" font-size="14.00" fill="#666666">[timestamp with time zone]</text>
<polygon fill="none" stroke="black" points="848.86,-546 848.86,-576.8 1102.54,-576.8 1102.54,-546 848.86,-546"/>
<text text-anchor="start" x="855.86" y="-558.2" font-family="Arial" font-size="14.00">updated_at </text>
<text text-anchor="start" x="929.81" y="-558.2" font-family="Arial" font-size="14.00" fill="#666666">[timestamp with time zone]</text>
</g>
<!-- public.channels&#45;&gt;public.users -->
<g id="edge3" class="edge">
<title>public.channels:created_by&#45;&gt;public.users:id</title>
<path fill="none" stroke="black" d="M1113.92,-622.09C1166.8,-611.78 1104.42,-516.26 1154.7,-472 1266.7,-373.39 1663.63,-338.8 1812.86,-338.8"/>
<polygon fill="black" stroke="black" points="1113.83,-622.1 1103.48,-618.49 1108.52,-622.56 1104.2,-622.94 1104.2,-622.94 1104.2,-622.94 1108.52,-622.56 1104.26,-627.45 1113.83,-622.1"/>
<text text-anchor="start" x="928.49" y="-607" font-family="Arial" font-size="10.00">FOREIGN KEY (created_by) REFERENCES users(id) ON DELETE SET NULL</text>
</g>
<!-- public.dm_pairs -->
<g id="node5" class="node">
<title>public.dm_pairs</title>
<polygon fill="#efefef" stroke="none" points="1207.21,-700 1207.21,-735.6 1462.18,-735.6 1462.18,-700 1207.21,-700"/>
<polygon fill="none" stroke="black" points="1207.21,-700 1207.21,-735.6 1462.18,-735.6 1462.18,-700 1207.21,-700"/>
<text text-anchor="start" x="1214.21" y="-713.4" font-family="Arial Bold" font-size="18.00">public.dm_pairs</text>
<text text-anchor="start" x="1330.69" y="-713.4" font-family="Arial" font-size="14.00">    </text>
<text text-anchor="start" x="1361.81" y="-713.4" font-family="Arial" font-size="14.00" fill="#666666">[BASE TABLE]</text>
<polygon fill="none" stroke="black" points="1207.21,-669.2 1207.21,-700 1462.18,-700 1462.18,-669.2 1207.21,-669.2"/>
<text text-anchor="start" x="1214.21" y="-681.4" font-family="Arial" font-size="14.00">user_low </text>
<text text-anchor="start" x="1274.13" y="-681.4" font-family="Arial" font-size="14.00" fill="#666666">[bigint]</text>
<polygon fill="none" stroke="black" points="1207.21,-638.4 1207.21,-669.2 1462.18,-669.2 1462.18,-638.4 1207.21,-638.4"/>
<text text-anchor="start" x="1214.21" y="-650.6" font-family="Arial" font-size="14.00">user_high </text>
<text text-anchor="start" x="1279.59" y="-650.6" font-family="Arial" font-size="14.00" fill="#666666">[bigint]</text>
<polygon fill="none" stroke="black" points="1207.21,-607.6 1207.21,-638.4 1462.18,-638.4 1462.18,-607.6 1207.21,-607.6"/>
<text text-anchor="start" x="1214.21" y="-619.8" font-family="Arial" font-size="14.00">channel_id </text>
<text text-anchor="start" x="1285.83" y="-619.8" font-family="Arial" font-size="14.00" fill="#666666">[bigint]</text>
</g>
<!-- public.dm_pairs&#45;&gt;public.users -->
<g id="edge4" class="edge">
<title>public.dm_pairs:user_high&#45;&gt;public.users:id</title>
<path fill="none" stroke="black" d="M1473.49,-653.1C1539.6,-643.28 1462.21,-532.65 1514.7,-472 1609.68,-362.25 1667.72,-338.8 1812.86,-338.8"/>
<polygon fill="black" stroke="black" points="1473.49,-653.1 1463.21,-649.29 1468.17,-653.46 1463.85,-653.75 1463.85,-653.75 1463.85,-653.75 1468.17,-653.46 1463.82,-658.27 1473.49,-653.1"/>
<text text-anchor="start" x="1290.64" y="-637.8" font-family="Arial" font-size="10.00">FOREIGN KEY (user_high) REFERENCES users(id) ON DELETE CASCADE</text>
</g>
<!-- public.dm_pairs&#45;&gt;public.users -->
<g id="edge5" class="edge">
<title>public.dm_pairs:user_low&#45;&gt;public.users:id</title>
<path fill="none" stroke="black" d="M1473.18,-684.04C1552.63,-674.45 1454.81,-543.95 1514.7,-472 1607.55,-360.45 1667.72,-338.8 1812.86,-338.8"/>
<polygon fill="black" stroke="black" points="1473.5,-684.02 1463.27,-680.09 1468.18,-684.32 1463.85,-684.56 1463.85,-684.56 1463.85,-684.56 1468.18,-684.32 1463.77,-689.07 1473.5,-684.02"/>
<text text-anchor="start" x="1292.59" y="-668.6" font-family="Arial" font-size="10.00">FOREIGN KEY (user_low) REFERENCES users(id) ON DELETE CASCADE</text>
</g>
<!-- public.dm_participants -->
<g id="node6" class="node">
<title>public.dm_participants</title>
<polygon fill="#efefef" stroke="none" points="1566.72,-684.6 1566.72,-720.2 1870.67,-720.2 1870.67,-684.6 1566.72,-684.6"/>
<polygon fill="none" stroke="black" points="1566.72,-684.6 1566.72,-720.2 1870.67,-720.2 1870.67,-684.6 1566.72,-684.6"/>
<text text-anchor="start" x="1573.72" y="-698" font-family="Arial Bold" font-size="18.00">public.dm_participants</text>
<text text-anchor="start" x="1739.18" y="-698" font-family="Arial" font-size="14.00">    </text>
<text text-anchor="start" x="1770.3" y="-698" font-family="Arial" font-size="14.00" fill="#666666">[BASE TABLE]</text>
<polygon fill="none" stroke="black" points="1566.72,-653.8 1566.72,-684.6 1870.67,-684.6 1870.67,-653.8 1566.72,-653.8"/>
<text text-anchor="start" x="1573.72" y="-666" font-family="Arial" font-size="14.00">channel_id </text>
<text text-anchor="start" x="1645.33" y="-666" font-family="Arial" font-size="14.00" fill="#666666">[bigint]</text>
<polygon fill="none" stroke="black" points="1566.72,-623 1566.72,-653.8 1870.67,-653.8 1870.67,-623 1566.72,-623"/>
<text text-anchor="start" x="1573.72" y="-635.2" font-family="Arial" font-size="14.00">user_id </text>
<text text-anchor="start" x="1623.53" y="-635.2" font-family="Arial" font-size="14.00" fill="#666666">[bigint]</text>
</g>
<!-- public.dm_participants&#45;&gt;public.users -->
<g id="edge6" class="edge">
<title>public.dm_participants:user_id&#45;&gt;public.users:id</title>
<path fill="none" stroke="black" d="M1881.78,-637.74C1989.66,-622.24 1680.87,-338.8 1812.86,-338.8"/>
<polygon fill="black" stroke="black" points="1881.99,-637.73 1871.71,-633.89 1876.66,-638.07 1872.34,-638.36 1872.34,-638.36 1872.34,-638.36 1876.66,-638.07 1872.3,-642.87 1881.99,-637.73"/>
<text text-anchor="start" x="1878.67" y="-648.4" font-family="Arial" font-size="10.00">FOREIGN KEY (user_id) REFERENCES users(id) ON DELETE CASCADE</text>
</g>
<!-- public.email_verification_tokens -->
<g id="node7" class="node">
<title>public.email_verification_tokens</title>
<polygon fill="#efefef" stroke="none" points="1974.74,-715.4 1974.74,-751 2350.66,-751 2350.66,-715.4 1974.74,-715.4"/>
<polygon fill="none" stroke="black" points="1974.74,-715.4 1974.74,-751 2350.66,-751 2350.66,-715.4 1974.74,-715.4"/>
<text text-anchor="start" x="1981.74" y="-728.8" font-family="Arial Bold" font-size="18.00">public.email_verification_tokens</text>
<text text-anchor="start" x="2219.17" y="-728.8" font-family="Arial" font-size="14.00">    </text>
<text text-anchor="start" x="2250.28" y="-728.8" font-family="Arial" font-size="14.00" fill="#666666">[BASE TABLE]</text>
<polygon fill="none" stroke="black" points="1974.74,-684.6 1974.74,-715.4 2350.66,-715.4 2350.66,-684.6 1974.74,-684.6"/>
<text text-anchor="start" x="1981.74" y="-696.8" font-family="Arial" font-size="14.00">user_id </text>
<text text-anchor="start" x="2031.55" y="-696.8" font-family="Arial" font-size="14.00" fill="#666666">[bigint]</text>
<polygon fill="none" stroke="black" points="1974.74,-653.8 1974.74,-684.6 2350.66,-684.6 2350.66,-653.8 1974.74,-653.8"/>
<text text-anchor="start" x="1981.74" y="-666" font-family="Arial" font-size="14.00">token_hash </text>
<text text-anchor="start" x="2058.02" y="-666" font-family="Arial" font-size="14.00" fill="#666666">[text]</text>
<polygon fill="none" stroke="black" points="1974.74,-623 1974.74,-653.8 2350.66,-653.8 2350.66,-623 1974.74,-623"/>
<text text-anchor="start" x="1981.74" y="-635.2" font-family="Arial" font-size="14.00">expires_at </text>
<text text-anchor="start" x="2050.22" y="-635.2" font-family="Arial" font-size="14.00" fill="#666666">[timestamp with time zone]</text>
<polygon fill="none" stroke="black" points="1974.74,-592.2 1974.74,-623 2350.66,-623 2350.66,-592.2 1974.74,-592.2"/>
<text text-anchor="start" x="1981.74" y="-604.4" font-family="Arial" font-size="14.00">created_at </text>
<text text-anchor="start" x="2051.79" y="-604.4" font-family="Arial" font-size="14.00" fill="#666666">[timestamp with time zone]</text>
</g>
<!-- public.email_verification_tokens&#45;&gt;public.users -->
<g id="edge7" class="edge">
<title>public.email_verification_tokens:user_id&#45;&gt;public.users:id</title>
<path fill="none" stroke="black" d="M1963.39,-699.17C1911.68,-690.12 1953.2,-608.54 1974.74,-549 1996.85,-487.89 2045.32,-497.07 2067.54,-436 2082.31,-395.4 2111.74,-338.8 2068.54,-338.8"/>
<polygon fill="black" stroke="black" points="1963.44,-699.18 1973.05,-704.46 1968.76,-699.6 1973.07,-699.95 1973.07,-699.95 1973.07,-699.95 1968.76,-699.6 1973.76,-695.49 1963.44,-699.18"/>
<text text-anchor="start" x="1980.74" y="-710" font-family="Arial" font-size="10.00">FOREIGN KEY (user_id) REFERENCES users(id) ON DELETE CASCADE</text>
</g>
<!-- public.guild_members -->
<g id="node8" class="node">
<title>public.guild_members</title>
<polygon fill="#efefef" stroke="none" points="2454.72,-715.4 2454.72,-751 2754.68,-751 2754.68,-715.4 2454.72,-715.4"/>
<polygon fill="none" stroke="black" points="2454.72,-715.4 2454.72,-751 2754.68,-751 2754.68,-715.4 2454.72,-715.4"/>
<text text-anchor="start" x="2461.72" y="-728.8" font-family="Arial Bold" font-size="18.00">public.guild_members</text>
<text text-anchor="start" x="2623.19" y="-728.8" font-family="Arial" font-size="14.00">    </text>
<text text-anchor="start" x="2654.31" y="-728.8" font-family="Arial" font-size="14.00" fill="#666666">[BASE TABLE]</text>
<polygon fill="none" stroke="black" points="2454.72,-684.6 2454.72,-715.4 2754.68,-715.4 2754.68,-684.6 2454.72,-684.6"/>
<text text-anchor="start" x="2461.72" y="-696.8" font-family="Arial" font-size="14.00">guild_id </text>
<text text-anchor="start" x="2513.87" y="-696.8" font-family="Arial" font-size="14.00" fill="#666666">[bigint]</text>
<polygon fill="none" stroke="black" points="2454.72,-653.8 2454.72,-684.6 2754.68,-684.6 2754.68,-653.8 2454.72,-653.8"/>
<text text-anchor="start" x="2461.72" y="-666" font-family="Arial" font-size="14.00">user_id </text>
<text text-anchor="start" x="2511.52" y="-666" font-family="Arial" font-size="14.00" fill="#666666">[bigint]</text>
<polygon fill="none" stroke="black" points="2454.72,-623 2454.72,-653.8 2754.68,-653.8 2754.68,-623 2454.72,-623"/>
<text text-anchor="start" x="2461.72" y="-635.2" font-family="Arial" font-size="14.00">joined_at </text>
<text text-anchor="start" x="2522.43" y="-635.2" font-family="Arial" font-size="14.00" fill="#666666">[timestamp with time zone]</text>
<polygon fill="none" stroke="black" points="2454.72,-592.2 2454.72,-623 2754.68,-623 2754.68,-592.2 2454.72,-592.2"/>
<text text-anchor="start" x="2461.72" y="-604.4" font-family="Arial" font-size="14.00">nickname </text>
<text text-anchor="start" x="2525.52" y="-604.4" font-family="Arial" font-size="14.00" fill="#666666">[text]</text>
</g>
<!-- public.guild_members&#45;&gt;public.users -->
<g id="edge8" class="edge">
<title>public.guild_members:user_id&#45;&gt;public.users:id</title>
<path fill="none" stroke="black" d="M2443.51,-668.56C2371.07,-658.7 2460.1,-537.14 2402.7,-472 2297,-352.05 2228.42,-338.8 2068.54,-338.8"/>
<polygon fill="black" stroke="black" points="2443.4,-668.55 2453.1,-673.67 2448.73,-668.89 2453.05,-669.16 2453.05,-669.16 2453.05,-669.16 2448.73,-668.89 2453.66,-664.69 2443.4,-668.55"/>
<text text-anchor="start" x="2112.76" y="-679.2" font-family="Arial" font-size="10.00">FOREIGN KEY (user_id) REFERENCES users(id) ON DELETE CASCADE</text>
</g>
<!-- public.guilds -->
<g id="node9" class="node">
<title>public.guilds</title>
<polygon fill="#efefef" stroke="none" points="2858.86,-746.2 2858.86,-781.8 3112.54,-781.8 3112.54,-746.2 2858.86,-746.2"/>
<polygon fill="none" stroke="black" points="2858.86,-746.2 2858.86,-781.8 3112.54,-781.8 3112.54,-746.2 2858.86,-746.2"/>
<text text-anchor="start" x="2876.7" y="-759.6" font-family="Arial Bold" font-size="18.00">public.guilds</text>
<text text-anchor="start" x="2970.2" y="-759.6" font-family="Arial" font-size="14.00">    </text>
<text text-anchor="start" x="3001.32" y="-759.6" font-family="Arial" font-size="14.00" fill="#666666">[BASE TABLE]</text>
<polygon fill="none" stroke="black" points="2858.86,-715.4 2858.86,-746.2 3112.54,-746.2 3112.54,-715.4 2858.86,-715.4"/>
<text text-anchor="start" x="2865.86" y="-727.6" font-family="Arial" font-size="14.00">id </text>
<text text-anchor="start" x="2880.64" y="-727.6" font-family="Arial" font-size="14.00" fill="#666666">[bigint]</text>
<polygon fill="none" stroke="black" points="2858.86,-684.6 2858.86,-715.4 3112.54,-715.4 3112.54,-684.6 2858.86,-684.6"/>
<text text-anchor="start" x="2865.86" y="-696.8" font-family="Arial" font-size="14.00">name </text>
<text text-anchor="start" x="2904.77" y="-696.8" font-family="Arial" font-size="14.00" fill="#666666">[text]</text>
<polygon fill="none" stroke="black" points="2858.86,-653.8 2858.86,-684.6 3112.54,-684.6 3112.54,-653.8 2858.86,-653.8"/>
<text text-anchor="start" x="2865.86" y="-666" font-family="Arial" font-size="14.00">owner_id </text>
<text text-anchor="start" x="2926.56" y="-666" font-family="Arial" font-size="14.00" fill="#666666">[bigint]</text>
<polygon fill="none" stroke="black" points="2858.86,-623 2858.86,-653.8 3112.54,-653.8 3112.54,-623 2858.86,-623"/>
<text text-anchor="start" x="2865.86" y="-635.2" font-family="Arial" font-size="14.00">icon_key </text>
<text text-anchor="start" x="2925" y="-635.2" font-family="Arial" font-size="14.00" fill="#666666">[text]</text>
<polygon fill="none" stroke="black" points="2858.86,-592.2 2858.86,-623 3112.54,-623 3112.54,-592.2 2858.86,-592.2"/>
<text text-anchor="start" x="2865.86" y="-604.4" font-family="Arial" font-size="14.00">created_at </text>
<text text-anchor="start" x="2935.9" y="-604.4" font-family="Arial" font-size="14.00" fill="#666666">[timestamp with time zone]</text>
<polygon fill="none" stroke="black" points="2858.86,-561.4 2858.86,-592.2 3112.54,-592.2 3112.54,-561.4 2858.86,-561.4"/>
<text text-anchor="start" x="2865.86" y="-573.6" font-family="Arial" font-size="14.00">updated_at </text>
<text text-anchor="start" x="2939.81" y="-573.6" font-family="Arial" font-size="14.00" fill="#666666">[timestamp with time zone]</text>
</g>
<!-- public.guilds&#45;&gt;public.users -->
<g id="edge9" class="edge">
<title>public.guilds:owner_id&#45;&gt;public.users:id</title>
<path fill="none" stroke="black" d="M2847.68,-668.53C2775.7,-658.2 2870.37,-531.04 2806.7,-472 2684.48,-358.66 2235.22,-338.8 2068.54,-338.8"/>
<polygon fill="black" stroke="black" points="2847.54,-668.52 2857.23,-673.67 2852.87,-668.87 2857.19,-669.16 2857.19,-669.16 2857.19,-669.16 2852.87,-668.87 2857.82,-664.69 2847.54,-668.52"/>
<text text-anchor="start" x="2596.81" y="-653.2" font-family="Arial" font-size="10.00">FOREIGN KEY (owner_id) REFERENCES users(id) ON DELETE RESTRICT</text>
</g>
<!-- public.invite_uses -->
<g id="node10" class="node">
<title>public.invite_uses</title>
<polygon fill="#efefef" stroke="none" points="3217.21,-700 3217.21,-735.6 3486.18,-735.6 3486.18,-700 3217.21,-700"/>
<polygon fill="none" stroke="black" points="3217.21,-700 3217.21,-735.6 3486.18,-735.6 3486.18,-700 3217.21,-700"/>
<text text-anchor="start" x="3224.21" y="-713.4" font-family="Arial Bold" font-size="18.00">public.invite_uses</text>
<text text-anchor="start" x="3354.69" y="-713.4" font-family="Arial" font-size="14.00">    </text>
<text text-anchor="start" x="3385.81" y="-713.4" font-family="Arial" font-size="14.00" fill="#666666">[BASE TABLE]</text>
<polygon fill="none" stroke="black" points="3217.21,-669.2 3217.21,-700 3486.18,-700 3486.18,-669.2 3217.21,-669.2"/>
<text text-anchor="start" x="3224.21" y="-681.4" font-family="Arial" font-size="14.00">invite_id </text>
<text text-anchor="start" x="3279.47" y="-681.4" font-family="Arial" font-size="14.00" fill="#666666">[bigint]</text>
<polygon fill="none" stroke="black" points="3217.21,-638.4 3217.21,-669.2 3486.18,-669.2 3486.18,-638.4 3217.21,-638.4"/>
<text text-anchor="start" x="3224.21" y="-650.6" font-family="Arial" font-size="14.00">used_by </text>
<text text-anchor="start" x="3281.03" y="-650.6" font-family="Arial" font-size="14.00" fill="#666666">[bigint]</text>
<polygon fill="none" stroke="black" points="3217.21,-607.6 3217.21,-638.4 3486.18,-638.4 3486.18,-607.6 3217.21,-607.6"/>
<text text-anchor="start" x="3224.21" y="-619.8" font-family="Arial" font-size="14.00">used_at </text>
<text text-anchor="start" x="3277.92" y="-619.8" font-family="Arial" font-size="14.00" fill="#666666">[timestamp with time zone]</text>
</g>
<!-- public.invite_uses&#45;&gt;public.users -->
<g id="edge10" class="edge">
<title>public.invite_uses:used_by&#45;&gt;public.users:id</title>
<path fill="none" stroke="black" d="M3205.95,-653.05C3140.56,-642.52 3225.64,-524.15 3164.7,-472 3071.48,-392.23 2191.23,-338.8 2068.54,-338.8"/>
<polygon fill="black" stroke="black" points="3205.91,-653.04 3215.55,-658.26 3211.23,-653.43 3215.54,-653.75 3215.54,-653.75 3215.54,-653.75 3211.23,-653.43 3216.21,-649.29 3205.91,-653.04"/>
<text text-anchor="start" x="2958.48" y="-637.8" font-family="Arial" font-size="10.00">FOREIGN KEY (used_by) REFERENCES users(id) ON DELETE CASCADE</text>
</g>
<!-- public.invites -->
<g id="node11" class="node">
<title>public.invites</title>
<polygon fill="#efefef" stroke="none" points="3590.81,-792.4 3590.81,-828 3840.58,-828 3840.58,-792.4 3590.81,-792.4"/>
<polygon fill="none" stroke="black" points="3590.81,-792.4 3590.81,-828 3840.58,-828 3840.58,-792.4 3590.81,-792.4"/>
<text text-anchor="start" x="3604.71" y="-805.8" font-family="Arial Bold" font-size="18.00">public.invites</text>
<text text-anchor="start" x="3702.2" y="-805.8" font-family="Arial" font-size="14.00">    </text>
<text text-anchor="start" x="3733.31" y="-805.8" font-family="Arial" font-size="14.00" fill="#666666">[BASE TABLE]</text>
<polygon fill="none" stroke="black" points="3590.81,-761.6 3590.81,-792.4 3840.58,-792.4 3840.58,-761.6 3590.81,-761.6"/>
<text text-anchor="start" x="3597.81" y="-773.8" font-family="Arial" font-size="14.00">id </text>
<text text-anchor="start" x="3612.6" y="-773.8" font-family="Arial" font-size="14.00" fill="#666666">[bigint]</text>
<polygon fill="none" stroke="black" points="3590.81,-730.8 3590.81,-761.6 3840.58,-761.6 3840.58,-730.8 3590.81,-730.8"/>
<text text-anchor="start" x="3597.81" y="-743" font-family="Arial" font-size="14.00">guild_id </text>
<text text-anchor="start" x="3649.96" y="-743" font-family="Arial" font-size="14.00" fill="#666666">[bigint]</text>
<polygon fill="none" stroke="black" points="3590.81,-700 3590.81,-730.8 3840.58,-730.8 3840.58,-700 3590.81,-700"/>
<text text-anchor="start" x="3597.81" y="-712.2" font-family="Arial" font-size="14.00">created_by </text>
<text text-anchor="start" x="3670.97" y="-712.2" font-family="Arial" font-size="14.00" fill="#666666">[bigint]</text>
<polygon fill="none" stroke="black" points="3590.81,-669.2 3590.81,-700 3840.58,-700 3840.58,-669.2 3590.81,-669.2"/>
<text text-anchor="start" x="3597.81" y="-681.4" font-family="Arial" font-size="14.00">code </text>
<text text-anchor="start" x="3632.06" y="-681.4" font-family="Arial" font-size="14.00" fill="#666666">[text]</text>
<polygon fill="none" stroke="black" points="3590.81,-638.4 3590.81,-669.2 3840.58,-669.2 3840.58,-638.4 3590.81,-638.4"/>
<text text-anchor="start" x="3597.81" y="-650.6" font-family="Arial" font-size="14.00">expires_at </text>
<text text-anchor="start" x="3666.29" y="-650.6" font-family="Arial" font-size="14.00" fill="#666666">[timestamp with time zone]</text>
<polygon fill="none" stroke="black" points="3590.81,-607.6 3590.81,-638.4 3840.58,-638.4 3840.58,-607.6 3590.81,-607.6"/>
<text text-anchor="start" x="3597.81" y="-619.8" font-family="Arial" font-size="14.00">max_uses </text>
<text text-anchor="start" x="3665.51" y="-619.8" font-family="Arial" font-size="14.00" fill="#666666">[integer]</text>
<polygon fill="none" stroke="black" points="3590.81,-576.8 3590.81,-607.6 3840.58,-607.6 3840.58,-576.8 3590.81,-576.8"/>
<text text-anchor="start" x="3597.81" y="-589" font-family="Arial" font-size="14.00">uses </text>
<text text-anchor="start" x="3631.27" y="-589" font-family="Arial" font-size="14.00" fill="#666666">[integer]</text>
<polygon fill="none" stroke="black" points="3590.81,-546 3590.81,-576.8 3840.58,-576.8 3840.58,-546 3590.81,-546"/>
<text text-anchor="start" x="3597.81" y="-558.2" font-family="Arial" font-size="14.00">is_disabled </text>
<text text-anchor="start" x="3671.75" y="-558.2" font-family="Arial" font-size="14.00" fill="#666666">[boolean]</text>
<polygon fill="none" stroke="black" points="3590.81,-515.2 3590.81,-546 3840.58,-546 3840.58,-515.2 3590.81,-515.2"/>
<text text-anchor="start" x="3597.81" y="-527.4" font-family="Arial" font-size="14.00">created_at </text>
<text text-anchor="start" x="3667.86" y="-527.4" font-family="Arial" font-size="14.00" fill="#666666">[timestamp with time zone]</text>
</g>
<!-- public.invites&#45;&gt;public.users -->
<g id="edge11" class="edge">
<title>public.invites:created_by&#45;&gt;public.users:id</title>
<path fill="none" stroke="black" d="M3579.62,-714.85C3488.46,-704.22 3618.54,-543.03 3538.7,-472 3416.16,-362.98 2232.56,-338.8 2068.54,-338.8"/>
<polygon fill="black" stroke="black" points="3579.49,-714.84 3589.23,-719.88 3584.82,-715.13 3589.14,-715.36 3589.14,-715.36 3589.14,-715.36 3584.82,-715.13 3589.72,-710.89 3579.49,-714.84"/>
<text text-anchor="start" x="3596.81" y="-725.4" font-family="Arial" font-size="10.00">FOREIGN KEY (created_by) REFERENCES users(id) ON DELETE SET NULL</text>
</g>
<!-- public.password_reset_tokens -->
<g id="node12" class="node">
<title>public.password_reset_tokens</title>
<polygon fill="#efefef" stroke="none" points="3945.22,-715.4 3945.22,-751 4300.17,-751 4300.17,-715.4 3945.22,-715.4"/>
<polygon fill="none" stroke="black" points="3945.22,-715.4 3945.22,-751 4300.17,-751 4300.17,-715.4 3945.22,-715.4"/>
<text text-anchor="start" x="3952.22" y="-728.8" font-family="Arial Bold" font-size="18.00">public.password_reset_tokens</text>
<text text-anchor="start" x="4168.68" y="-728.8" font-family="Arial" font-size="14.00">    </text>
<text text-anchor="start" x="4199.8" y="-728.8" font-family="Arial" font-size="14.00" fill="#666666">[BASE TABLE]</text>
<polygon fill="none" stroke="black" points="3945.22,-684.6 3945.22,-715.4 4300.17,-715.4 4300.17,-684.6 3945.22,-684.6"/>
<text text-anchor="start" x="3952.22" y="-696.8" font-family="Arial" font-size="14.00">user_id </text>
<text text-anchor="start" x="4002.03" y="-696.8" font-family="Arial" font-size="14.00" fill="#666666">[bigint]</text>
<polygon fill="none" stroke="black" points="3945.22,-653.8 3945.22,-684.6 4300.17,-684.6 4300.17,-653.8 3945.22,-653.8"/>
<text text-anchor="start" x="3952.22" y="-666" font-family="Arial" font-size="14.00">token_hash </text>
<text text-anchor="start" x="4028.51" y="-666" font-family="Arial" font-size="14.00" fill="#666666">[text]</text>
<polygon fill="none" stroke="black" points="3945.22,-623 3945.22,-653.8 4300.17,-653.8 4300.17,-623 3945.22,-623"/>
<text text-anchor="start" x="3952.22" y="-635.2" font-family="Arial" font-size="14.00">expires_at </text>
<text text-anchor="start" x="4020.71" y="-635.2" font-family="Arial" font-size="14.00" fill="#666666">[timestamp with time zone]</text>
<polygon fill="none" stroke="black" points="3945.22,-592.2 3945.22,-623 4300.17,-623 4300.17,-592.2 3945.22,-592.2"/>
<text text-anchor="start" x="3952.22" y="-604.4" font-family="Arial" font-size="14.00">created_at </text>
<text text-anchor="start" x="4022.27" y="-604.4" font-family="Arial" font-size="14.00" fill="#666666">[timestamp with time zone]</text>
</g>
<!-- public.password_reset_tokens&#45;&gt;public.users -->
<g id="edge12" class="edge">
<title>public.password_reset_tokens:user_id&#45;&gt;public.users:id</title>
<path fill="none" stroke="black" d="M3933.86,-699.38C3849.54,-688.54 3968.59,-537.33 3892.7,-472 3738.67,-339.42 2271.76,-338.8 2068.54,-338.8"/>
<polygon fill="black" stroke="black" points="3933.91,-699.39 3943.62,-704.47 3939.23,-699.7 3943.56,-699.96 3943.56,-699.96 3943.56,-699.96 3939.23,-699.7 3944.16,-695.49 3933.91,-699.39"/>
<text text-anchor="start" x="3690.25" y="-684" font-family="Arial" font-size="10.00">FOREIGN KEY (user_id) REFERENCES users(id) ON DELETE CASCADE</text>
</g>
</g>
</svg>
