<?xml version="1.0" encoding="UTF-8" standalone="no"?>
<!DOCTYPE svg PUBLIC "-//W3C//DTD SVG 1.1//EN"
 "http://www.w3.org/Graphics/SVG/1.1/DTD/svg11.dtd">
<!-- Generated by graphviz version 12.1.2 (20240928.0832)
 -->
<!-- Title: public.channel_pins_v2 Pages: 1 -->
<svg width="1071pt" height="756pt"
 viewBox="0.00 0.00 1070.95 756.00" xmlns="http://www.w3.org/2000/svg" xmlns:xlink="http://www.w3.org/1999/xlink">
<g id="graph0" class="graph" transform="scale(1 1) rotate(0) translate(4 752)">
<title>public.channel_pins_v2</title>
<polygon fill="white" stroke="none" points="-4,4 -4,-752 1066.95,-752 1066.95,4 -4,4"/>
<!-- public.channel_pins_v2 -->
<g id="node1" class="node">
<title>public.channel_pins_v2</title>
<polygon fill="#efefef" stroke="none" points="380.11,-666.2 380.11,-701.8 690.07,-701.8 690.07,-666.2 380.11,-666.2"/>
<polygon fill="none" stroke="black" points="380.11,-666.2 380.11,-701.8 690.07,-701.8 690.07,-666.2 380.11,-666.2"/>
<text text-anchor="start" x="387.11" y="-679.6" font-family="Arial Bold" font-size="18.00">public.channel_pins_v2</text>
<text text-anchor="start" x="558.58" y="-679.6" font-family="Arial" font-size="14.00">    </text>
<text text-anchor="start" x="589.7" y="-679.6" font-family="Arial" font-size="14.00" fill="#666666">[BASE TABLE]</text>
<polygon fill="none" stroke="black" points="380.11,-635.4 380.11,-666.2 690.07,-666.2 690.07,-635.4 380.11,-635.4"/>
<text text-anchor="start" x="387.11" y="-647.6" font-family="Arial" font-size="14.00">channel_id </text>
<text text-anchor="start" x="458.73" y="-647.6" font-family="Arial" font-size="14.00" fill="#666666">[bigint]</text>
<polygon fill="none" stroke="black" points="380.11,-604.6 380.11,-635.4 690.07,-635.4 690.07,-604.6 380.11,-604.6"/>
<text text-anchor="start" x="387.11" y="-616.8" font-family="Arial" font-size="14.00">message_id </text>
<text text-anchor="start" x="466.49" y="-616.8" font-family="Arial" font-size="14.00" fill="#666666">[bigint]</text>
<polygon fill="none" stroke="black" points="380.11,-573.8 380.11,-604.6 690.07,-604.6 690.07,-573.8 380.11,-573.8"/>
<text text-anchor="start" x="387.11" y="-586" font-family="Arial" font-size="14.00">pinned_at </text>
<text text-anchor="start" x="452.5" y="-586" font-family="Arial" font-size="14.00" fill="#666666">[timestamp with time zone]</text>
<polygon fill="none" stroke="black" points="380.11,-543 380.11,-573.8 690.07,-573.8 690.07,-543 380.11,-543"/>
<text text-anchor="start" x="387.11" y="-555.2" font-family="Arial" font-size="14.00">pinned_by </text>
<text text-anchor="start" x="455.62" y="-555.2" font-family="Arial" font-size="14.00" fill="#666666">[bigint]</text>
<polygon fill="none" stroke="black" points="380.11,-512.2 380.11,-543 690.07,-543 690.07,-512.2 380.11,-512.2"/>
<text text-anchor="start" x="387.11" y="-524.4" font-family="Arial" font-size="14.00">unpinned_at </text>
<text text-anchor="start" x="468.08" y="-524.4" font-family="Arial" font-size="14.00" fill="#666666">[timestamp with time zone]</text>
<polygon fill="none" stroke="black" points="380.11,-481.4 380.11,-512.2 690.07,-512.2 690.07,-481.4 380.11,-481.4"/>
<text text-anchor="start" x="387.11" y="-493.6" font-family="Arial" font-size="14.00">unpinned_by </text>
<text text-anchor="start" x="471.19" y="-493.6" font-family="Arial" font-size="14.00" fill="#666666">[bigint]</text>
<polygon fill="none" stroke="black" points="380.11,-450.6 380.11,-481.4 690.07,-481.4 690.07,-450.6 380.11,-450.6"/>
<text text-anchor="start" x="387.11" y="-462.8" font-family="Arial" font-size="14.00">updated_at </text>
<text text-anchor="start" x="461.07" y="-462.8" font-family="Arial" font-size="14.00" fill="#666666">[timestamp with time zone]</text>
<polygon fill="none" stroke="black" stroke-width="3" points="378.61,-449.1 378.61,-703.3 691.57,-703.3 691.57,-449.1 378.61,-449.1"/>
</g>
<!-- public.channels -->
<g id="node2" class="node">
<title>public.channels</title>
<polygon fill="#efefef" stroke="none" points="50.25,-274.2 50.25,-309.8 303.93,-309.8 303.93,-274.2 50.25,-274.2"/>
<polygon fill="none" stroke="black" points="50.25,-274.2 50.25,-309.8 303.93,-309.8 303.93,-274.2 50.25,-274.2"/>
<text text-anchor="start" x="58.61" y="-287.6" font-family="Arial Bold" font-size="18.00">public.channels</text>
<text text-anchor="start" x="171.08" y="-287.6" font-family="Arial" font-size="14.00">    </text>
<text text-anchor="start" x="202.19" y="-287.6" font-family="Arial" font-size="14.00" fill="#666666">[BASE TABLE]</text>
<polygon fill="none" stroke="black" points="50.25,-243.4 50.25,-274.2 303.93,-274.2 303.93,-243.4 50.25,-243.4"/>
<text text-anchor="start" x="57.25" y="-255.6" font-family="Arial" font-size="14.00">id </text>
<text text-anchor="start" x="72.04" y="-255.6" font-family="Arial" font-size="14.00" fill="#666666">[bigint]</text>
<polygon fill="none" stroke="black" points="50.25,-212.6 50.25,-243.4 303.93,-243.4 303.93,-212.6 50.25,-212.6"/>
<text text-anchor="start" x="57.25" y="-224.8" font-family="Arial" font-size="14.00">type </text>
<text text-anchor="start" x="87.6" y="-224.8" font-family="Arial" font-size="14.00" fill="#666666">[channel_type]</text>
<polygon fill="none" stroke="black" points="50.25,-181.8 50.25,-212.6 303.93,-212.6 303.93,-181.8 50.25,-181.8"/>
<text text-anchor="start" x="57.25" y="-194" font-family="Arial" font-size="14.00">guild_id </text>
<text text-anchor="start" x="109.4" y="-194" font-family="Arial" font-size="14.00" fill="#666666">[bigint]</text>
<polygon fill="none" stroke="black" points="50.25,-151 50.25,-181.8 303.93,-181.8 303.93,-151 50.25,-151"/>
<text text-anchor="start" x="57.25" y="-163.2" font-family="Arial" font-size="14.00">name </text>
<text text-anchor="start" x="96.16" y="-163.2" font-family="Arial" font-size="14.00" fill="#666666">[text]</text>
<polygon fill="none" stroke="black" points="50.25,-120.2 50.25,-151 303.93,-151 303.93,-120.2 50.25,-120.2"/>
<text text-anchor="start" x="57.25" y="-132.4" font-family="Arial" font-size="14.00">created_by </text>
<text text-anchor="start" x="130.41" y="-132.4" font-family="Arial" font-size="14.00" fill="#666666">[bigint]</text>
<polygon fill="none" stroke="black" points="50.25,-89.4 50.25,-120.2 303.93,-120.2 303.93,-89.4 50.25,-89.4"/>
<text text-anchor="start" x="57.25" y="-101.6" font-family="Arial" font-size="14.00">created_at </text>
<text text-anchor="start" x="127.3" y="-101.6" font-family="Arial" font-size="14.00" fill="#666666">[timestamp with time zone]</text>
<polygon fill="none" stroke="black" points="50.25,-58.6 50.25,-89.4 303.93,-89.4 303.93,-58.6 50.25,-58.6"/>
<text text-anchor="start" x="57.25" y="-70.8" font-family="Arial" font-size="14.00">updated_at </text>
<text text-anchor="start" x="131.21" y="-70.8" font-family="Arial" font-size="14.00" fill="#666666">[timestamp with time zone]</text>
</g>
<!-- public.channel_pins_v2&#45;&gt;public.channels -->
<g id="edge1" class="edge">
<title>public.channel_pins_v2:channel_id&#45;&gt;public.channels:id</title>
<path fill="none" stroke="black" d="M369.14,-648.88C298.59,-619.3 389.95,-258.8 304.93,-258.8"/>
<polygon fill="black" stroke="black" points="368.97,-648.84 377.93,-655.16 374.2,-649.85 378.46,-650.67 378.46,-650.67 378.46,-650.67 374.2,-649.85 379.64,-646.32 368.97,-648.84"/>
<text text-anchor="start" x="7" y="-660.8" font-family="Arial" font-size="10.00">FOREIGN KEY (channel_id) REFERENCES channels(id) ON DELETE CASCADE</text>
</g>
<!-- public.users -->
<g id="node3" class="node">
<title>public.users</title>
<polygon fill="#efefef" stroke="none" points="408.25,-289.6 408.25,-325.2 661.93,-325.2 661.93,-289.6 408.25,-289.6"/>
<polygon fill="none" stroke="black" points="408.25,-289.6 408.25,-325.2 661.93,-325.2 661.93,-289.6 408.25,-289.6"/>
<text text-anchor="start" x="429.6" y="-303" font-family="Arial Bold" font-size="18.00">public.users</text>
<text text-anchor="start" x="516.09" y="-303" font-family="Arial" font-size="14.00">    </text>
<text text-anchor="start" x="547.2" y="-303" font-family="Arial" font-size="14.00" fill="#666666">[BASE TABLE]</text>
<polygon fill="none" stroke="black" points="408.25,-258.8 408.25,-289.6 661.93,-289.6 661.93,-258.8 408.25,-258.8"/>
<text text-anchor="start" x="415.25" y="-271" font-family="Arial" font-size="14.00">id </text>
<text text-anchor="start" x="430.04" y="-271" font-family="Arial" font-size="14.00" fill="#666666">[bigint]</text>
<polygon fill="none" stroke="black" points="408.25,-228 408.25,-258.8 661.93,-258.8 661.93,-228 408.25,-228"/>
<text text-anchor="start" x="415.25" y="-240.2" font-family="Arial" font-size="14.00">email </text>
<text text-anchor="start" x="452.59" y="-240.2" font-family="Arial" font-size="14.00" fill="#666666">[text]</text>
<polygon fill="none" stroke="black" points="408.25,-197.2 408.25,-228 661.93,-228 661.93,-197.2 408.25,-197.2"/>
<text text-anchor="start" x="415.25" y="-209.4" font-family="Arial" font-size="14.00">display_name </text>
<text text-anchor="start" x="505.52" y="-209.4" font-family="Arial" font-size="14.00" fill="#666666">[text]</text>
<polygon fill="none" stroke="black" points="408.25,-166.4 408.25,-197.2 661.93,-197.2 661.93,-166.4 408.25,-166.4"/>
<text text-anchor="start" x="415.25" y="-178.6" font-family="Arial" font-size="14.00">avatar_key </text>
<text text-anchor="start" x="487.62" y="-178.6" font-family="Arial" font-size="14.00" fill="#666666">[text]</text>
<polygon fill="none" stroke="black" points="408.25,-135.6 408.25,-166.4 661.93,-166.4 661.93,-135.6 408.25,-135.6"/>
<text text-anchor="start" x="415.25" y="-147.8" font-family="Arial" font-size="14.00">status_text </text>
<text text-anchor="start" x="486.84" y="-147.8" font-family="Arial" font-size="14.00" fill="#666666">[text]</text>
<polygon fill="none" stroke="black" points="408.25,-104.8 408.25,-135.6 661.93,-135.6 661.93,-104.8 408.25,-104.8"/>
<text text-anchor="start" x="415.25" y="-117" font-family="Arial" font-size="14.00">theme </text>
<text text-anchor="start" x="458.05" y="-117" font-family="Arial" font-size="14.00" fill="#666666">[text]</text>
<polygon fill="none" stroke="black" points="408.25,-74 408.25,-104.8 661.93,-104.8 661.93,-74 408.25,-74"/>
<text text-anchor="start" x="415.25" y="-86.2" font-family="Arial" font-size="14.00">created_at </text>
<text text-anchor="start" x="485.3" y="-86.2" font-family="Arial" font-size="14.00" fill="#666666">[timestamp with time zone]</text>
<polygon fill="none" stroke="black" points="408.25,-43.2 408.25,-74 661.93,-74 661.93,-43.2 408.25,-43.2"/>
<text text-anchor="start" x="415.25" y="-55.4" font-family="Arial" font-size="14.00">updated_at </text>
<text text-anchor="start" x="489.21" y="-55.4" font-family="Arial" font-size="14.00" fill="#666666">[timestamp with time zone]</text>
</g>
<!-- public.channel_pins_v2&#45;&gt;public.users -->
<g id="edge2" class="edge">
<title>public.channel_pins_v2:pinned_by&#45;&gt;public.users:id</title>
<path fill="none" stroke="black" d="M700.98,-555.77C751.23,-527.12 722.8,-274.2 662.93,-274.2"/>
<polygon fill="black" stroke="black" points="701.06,-555.75 690.24,-553.96 695.9,-557.12 691.71,-558.23 691.71,-558.23 691.71,-558.23 695.9,-557.12 692.55,-562.66 701.06,-555.75"/>
<text text-anchor="start" x="698.07" y="-568.4" font-family="Arial" font-size="10.00">FOREIGN KEY (pinned_by) REFERENCES users(id) ON DELETE SET NULL</text>
</g>
<!-- public.channel_pins_v2&#45;&gt;public.users -->
<g id="edge3" class="edge">
<title>public.channel_pins_v2:unpinned_by&#45;&gt;public.users:id</title>
<path fill="none" stroke="black" d="M701.38,-495.95C788.66,-481 759.05,-274.2 662.93,-274.2"/>
<polygon fill="black" stroke="black" points="701.37,-495.95 691.03,-492.29 696.05,-496.39 691.73,-496.74 691.73,-496.74 691.73,-496.74 696.05,-496.39 691.77,-501.26 701.37,-495.95"/>
<text text-anchor="start" x="698.07" y="-506.8" font-family="Arial" font-size="10.00">FOREIGN KEY (unpinned_by) REFERENCES users(id) ON DELETE SET NULL</text>
</g>
</g>
</svg>
