<?xml version="1.0" encoding="UTF-8" standalone="no"?>
<!DOCTYPE svg PUBLIC "-//W3C//DTD SVG 1.1//EN"
 "http://www.w3.org/Graphics/SVG/1.1/DTD/svg11.dtd">
<!-- Generated by graphviz version 12.1.2 (20240928.0832)
 -->
<!-- Title: public.dm_pairs Pages: 1 -->
<svg width="710pt" height="633pt"
 viewBox="0.00 0.00 709.73 632.80" xmlns="http://www.w3.org/2000/svg" xmlns:xlink="http://www.w3.org/1999/xlink">
<g id="graph0" class="graph" transform="scale(1 1) rotate(0) translate(4 628.8)">
<title>public.dm_pairs</title>
<polygon fill="white" stroke="none" points="-4,4 -4,-628.8 705.73,-628.8 705.73,4 -4,4"/>
<!-- public.dm_pairs -->
<g id="node1" class="node">
<title>public.dm_pairs</title>
<polygon fill="#efefef" stroke="none" points="46.2,-543 46.2,-578.6 301.17,-578.6 301.17,-543 46.2,-543"/>
<polygon fill="none" stroke="black" points="46.2,-543 46.2,-578.6 301.17,-578.6 301.17,-543 46.2,-543"/>
<text text-anchor="start" x="53.2" y="-556.4" font-family="Arial Bold" font-size="18.00">public.dm_pairs</text>
<text text-anchor="start" x="169.68" y="-556.4" font-family="Arial" font-size="14.00">    </text>
<text text-anchor="start" x="200.8" y="-556.4" font-family="Arial" font-size="14.00" fill="#666666">[BASE TABLE]</text>
<polygon fill="none" stroke="black" points="46.2,-512.2 46.2,-543 301.17,-543 301.17,-512.2 46.2,-512.2"/>
<text text-anchor="start" x="53.2" y="-524.4" font-family="Arial" font-size="14.00">user_low </text>
<text text-anchor="start" x="113.12" y="-524.4" font-family="Arial" font-size="14.00" fill="#666666">[bigint]</text>
<polygon fill="none" stroke="black" points="46.2,-481.4 46.2,-512.2 301.17,-512.2 301.17,-481.4 46.2,-481.4"/>
<text text-anchor="start" x="53.2" y="-493.6" font-family="Arial" font-size="14.00">user_high </text>
<text text-anchor="start" x="118.58" y="-493.6" font-family="Arial" font-size="14.00" fill="#666666">[bigint]</text>
<polygon fill="none" stroke="black" points="46.2,-450.6 46.2,-481.4 301.17,-481.4 301.17,-450.6 46.2,-450.6"/>
<text text-anchor="start" x="53.2" y="-462.8" font-family="Arial" font-size="14.00">channel_id </text>
<text text-anchor="start" x="124.81" y="-462.8" font-family="Arial" font-size="14.00" fill="#666666">[bigint]</text>
<polygon fill="none" stroke="black" stroke-width="3" points="44.7,-449.1 44.7,-580.1 302.67,-580.1 302.67,-449.1 44.7,-449.1"/>
</g>
<!-- public.users -->
<g id="node2" class="node">
<title>public.users</title>
<polygon fill="#efefef" stroke="none" points="46.84,-289.6 46.84,-325.2 300.53,-325.2 300.53,-289.6 46.84,-289.6"/>
<polygon fill="none" stroke="black" points="46.84,-289.6 46.84,-325.2 300.53,-325.2 300.53,-289.6 46.84,-289.6"/>
<text text-anchor="start" x="68.2" y="-303" font-family="Arial Bold" font-size="18.00">public.users</text>
<text text-anchor="start" x="154.68" y="-303" font-family="Arial" font-size="14.00">    </text>
<text text-anchor="start" x="185.8" y="-303" font-family="Arial" font-size="14.00" fill="#666666">[BASE TABLE]</text>
<polygon fill="none" stroke="black" points="46.84,-258.8 46.84,-289.6 300.53,-289.6 300.53,-258.8 46.84,-258.8"/>
<text text-anchor="start" x="53.84" y="-271" font-family="Arial" font-size="14.00">id </text>
<text text-anchor="start" x="68.63" y="-271" font-family="Arial" font-size="14.00" fill="#666666">[bigint]</text>
<polygon fill="none" stroke="black" points="46.84,-228 46.84,-258.8 300.53,-258.8 300.53,-228 46.84,-228"/>
<text text-anchor="start" x="53.84" y="-240.2" font-family="Arial" font-size="14.00">email </text>
<text text-anchor="start" x="91.19" y="-240.2" font-family="Arial" font-size="14.00" fill="#666666">[text]</text>
<polygon fill="none" stroke="black" points="46.84,-197.2 46.84,-228 300.53,-228 300.53,-197.2 46.84,-197.2"/>
<text text-anchor="start" x="53.84" y="-209.4" font-family="Arial" font-size="14.00">display_name </text>
<text text-anchor="start" x="144.12" y="-209.4" font-family="Arial" font-size="14.00" fill="#666666">[text]</text>
<polygon fill="none" stroke="black" points="46.84,-166.4 46.84,-197.2 300.53,-197.2 300.53,-166.4 46.84,-166.4"/>
<text text-anchor="start" x="53.84" y="-178.6" font-family="Arial" font-size="14.00">avatar_key </text>
<text text-anchor="start" x="126.22" y="-178.6" font-family="Arial" font-size="14.00" fill="#666666">[text]</text>
<polygon fill="none" stroke="black" points="46.84,-135.6 46.84,-166.4 300.53,-166.4 300.53,-135.6 46.84,-135.6"/>
<text text-anchor="start" x="53.84" y="-147.8" font-family="Arial" font-size="14.00">status_text </text>
<text text-anchor="start" x="125.44" y="-147.8" font-family="Arial" font-size="14.00" fill="#666666">[text]</text>
<polygon fill="none" stroke="black" points="46.84,-104.8 46.84,-135.6 300.53,-135.6 300.53,-104.8 46.84,-104.8"/>
<text text-anchor="start" x="53.84" y="-117" font-family="Arial" font-size="14.00">theme </text>
<text text-anchor="start" x="96.64" y="-117" font-family="Arial" font-size="14.00" fill="#666666">[text]</text>
<polygon fill="none" stroke="black" points="46.84,-74 46.84,-104.8 300.53,-104.8 300.53,-74 46.84,-74"/>
<text text-anchor="start" x="53.84" y="-86.2" font-family="Arial" font-size="14.00">created_at </text>
<text text-anchor="start" x="123.89" y="-86.2" font-family="Arial" font-size="14.00" fill="#666666">[timestamp with time zone]</text>
<polygon fill="none" stroke="black" points="46.84,-43.2 46.84,-74 300.53,-74 300.53,-43.2 46.84,-43.2"/>
<text text-anchor="start" x="53.84" y="-55.4" font-family="Arial" font-size="14.00">updated_at </text>
<text text-anchor="start" x="127.8" y="-55.4" font-family="Arial" font-size="14.00" fill="#666666">[timestamp with time zone]</text>
</g>
<!-- public.dm_pairs&#45;&gt;public.users -->
<g id="edge1" class="edge">
<title>public.dm_pairs:user_low&#45;&gt;public.users:id</title>
<path fill="none" stroke="black" d="M312.06,-524.75C358.18,-496.91 354.32,-274.2 301.53,-274.2"/>
<polygon fill="black" stroke="black" points="312.1,-524.74 301.25,-523.18 306.98,-526.22 302.81,-527.42 302.81,-527.42 302.81,-527.42 306.98,-526.22 303.74,-531.83 312.1,-524.74"/>
<text text-anchor="start" x="309.17" y="-537.6" font-family="Arial" font-size="10.00">FOREIGN KEY (user_low) REFERENCES users(id) ON DELETE CASCADE</text>
</g>
<!-- public.dm_pairs&#45;&gt;public.users -->
<g id="edge2" class="edge">
<title>public.dm_pairs:user_high&#45;&gt;public.users:id</title>
<path fill="none" stroke="black" d="M311.86,-493.65C351.31,-466.6 347.51,-274.2 301.53,-274.2"/>
<polygon fill="black" stroke="black" points="312,-493.61 301.1,-492.42 306.93,-495.26 302.81,-496.59 302.81,-496.59 302.81,-496.59 306.93,-495.26 303.88,-500.98 312,-493.61"/>
<text text-anchor="start" x="309.17" y="-506.8" font-family="Arial" font-size="10.00">FOREIGN KEY (user_high) REFERENCES users(id) ON DELETE CASCADE</text>
</g>
<!-- public.channels -->
<g id="node3" class="node">
<title>public.channels</title>
<polygon fill="#efefef" stroke="none" points="404.84,-274.2 404.84,-309.8 658.53,-309.8 658.53,-274.2 404.84,-274.2"/>
<polygon fill="none" stroke="black" points="404.84,-274.2 404.84,-309.8 658.53,-309.8 658.53,-274.2 404.84,-274.2"/>
<text text-anchor="start" x="413.21" y="-287.6" font-family="Arial Bold" font-size="18.00">public.channels</text>
<text text-anchor="start" x="525.67" y="-287.6" font-family="Arial" font-size="14.00">    </text>
<text text-anchor="start" x="556.79" y="-287.6" font-family="Arial" font-size="14.00" fill="#666666">[BASE TABLE]</text>
<polygon fill="none" stroke="black" points="404.84,-243.4 404.84,-274.2 658.53,-274.2 658.53,-243.4 404.84,-243.4"/>
<text text-anchor="start" x="411.84" y="-255.6" font-family="Arial" font-size="14.00">id </text>
<text text-anchor="start" x="426.63" y="-255.6" font-family="Arial" font-size="14.00" fill="#666666">[bigint]</text>
<polygon fill="none" stroke="black" points="404.84,-212.6 404.84,-243.4 658.53,-243.4 658.53,-212.6 404.84,-212.6"/>
<text text-anchor="start" x="411.84" y="-224.8" font-family="Arial" font-size="14.00">type </text>
<text text-anchor="start" x="442.2" y="-224.8" font-family="Arial" font-size="14.00" fill="#666666">[channel_type]</text>
<polygon fill="none" stroke="black" points="404.84,-181.8 404.84,-212.6 658.53,-212.6 658.53,-181.8 404.84,-181.8"/>
<text text-anchor="start" x="411.84" y="-194" font-family="Arial" font-size="14.00">guild_id </text>
<text text-anchor="start" x="464" y="-194" font-family="Arial" font-size="14.00" fill="#666666">[bigint]</text>
<polygon fill="none" stroke="black" points="404.84,-151 404.84,-181.8 658.53,-181.8 658.53,-151 404.84,-151"/>
<text text-anchor="start" x="411.84" y="-163.2" font-family="Arial" font-size="14.00">name </text>
<text text-anchor="start" x="450.75" y="-163.2" font-family="Arial" font-size="14.00" fill="#666666">[text]</text>
<polygon fill="none" stroke="black" points="404.84,-120.2 404.84,-151 658.53,-151 658.53,-120.2 404.84,-120.2"/>
<text text-anchor="start" x="411.84" y="-132.4" font-family="Arial" font-size="14.00">created_by </text>
<text text-anchor="start" x="485" y="-132.4" font-family="Arial" font-size="14.00" fill="#666666">[bigint]</text>
<polygon fill="none" stroke="black" points="404.84,-89.4 404.84,-120.2 658.53,-120.2 658.53,-89.4 404.84,-89.4"/>
<text text-anchor="start" x="411.84" y="-101.6" font-family="Arial" font-size="14.00">created_at </text>
<text text-anchor="start" x="481.89" y="-101.6" font-family="Arial" font-size="14.00" fill="#666666">[timestamp with time zone]</text>
<polygon fill="none" stroke="black" points="404.84,-58.6 404.84,-89.4 658.53,-89.4 658.53,-58.6 404.84,-58.6"/>
<text text-anchor="start" x="411.84" y="-70.8" font-family="Arial" font-size="14.00">updated_at </text>
<text text-anchor="start" x="485.8" y="-70.8" font-family="Arial" font-size="14.00" fill="#666666">[timestamp with time zone]</text>
</g>
<!-- public.dm_pairs&#45;&gt;public.channels -->
<g id="edge3" class="edge">
<title>public.dm_pairs:channel_id&#45;&gt;public.channels:id</title>
<path fill="none" stroke="black" d="M312.5,-465.21C397.54,-451.3 304.97,-258.8 403.84,-258.8"/>
<polygon fill="black" stroke="black" points="312.47,-465.21 302.16,-461.49 307.16,-465.62 302.84,-465.95 302.84,-465.95 302.84,-465.95 307.16,-465.62 302.85,-470.46 312.47,-465.21"/>
<text text-anchor="start" x="309.17" y="-476" font-family="Arial" font-size="10.00">FOREIGN KEY (channel_id) REFERENCES channels(id) ON DELETE CASCADE</text>
</g>
</g>
</svg>
