<?xml version="1.0" encoding="UTF-8" standalone="no"?>
<!DOCTYPE svg PUBLIC "-//W3C//DTD SVG 1.1//EN"
 "http://www.w3.org/Graphics/SVG/1.1/DTD/svg11.dtd">
<!-- Generated by graphviz version 12.1.2 (20240928.0832)
 -->
<!-- Title: public.channel_reads Pages: 1 -->
<svg width="1028pt" height="694pt"
 viewBox="0.00 0.00 1028.00 694.40" xmlns="http://www.w3.org/2000/svg" xmlns:xlink="http://www.w3.org/1999/xlink">
<g id="graph0" class="graph" transform="scale(1 1) rotate(0) translate(4 690.4)">
<title>public.channel_reads</title>
<polygon fill="white" stroke="none" points="-4,4 -4,-690.4 1024,-690.4 1024,4 -4,4"/>
<!-- public.channel_reads -->
<g id="node1" class="node">
<title>public.channel_reads</title>
<polygon fill="#efefef" stroke="none" points="380.11,-604.6 380.11,-640.2 671.04,-640.2 671.04,-604.6 380.11,-604.6"/>
<polygon fill="none" stroke="black" points="380.11,-604.6 380.11,-640.2 671.04,-640.2 671.04,-604.6 380.11,-604.6"/>
<text text-anchor="start" x="387.11" y="-618" font-family="Arial Bold" font-size="18.00">public.channel_reads</text>
<text text-anchor="start" x="539.55" y="-618" font-family="Arial" font-size="14.00">    </text>
<text text-anchor="start" x="570.67" y="-618" font-family="Arial" font-size="14.00" fill="#666666">[BASE TABLE]</text>
<polygon fill="none" stroke="black" points="380.11,-573.8 380.11,-604.6 671.04,-604.6 671.04,-573.8 380.11,-573.8"/>
<text text-anchor="start" x="387.11" y="-586" font-family="Arial" font-size="14.00">channel_id </text>
<text text-anchor="start" x="458.73" y="-586" font-family="Arial" font-size="14.00" fill="#666666">[bigint]</text>
<polygon fill="none" stroke="black" points="380.11,-543 380.11,-573.8 671.04,-573.8 671.04,-543 380.11,-543"/>
<text text-anchor="start" x="387.11" y="-555.2" font-family="Arial" font-size="14.00">user_id </text>
<text text-anchor="start" x="436.92" y="-555.2" font-family="Arial" font-size="14.00" fill="#666666">[bigint]</text>
<polygon fill="none" stroke="black" points="380.11,-512.2 380.11,-543 671.04,-543 671.04,-512.2 380.11,-512.2"/>
<text text-anchor="start" x="387.11" y="-524.4" font-family="Arial" font-size="14.00">last_read_message_id </text>
<text text-anchor="start" x="531.87" y="-524.4" font-family="Arial" font-size="14.00" fill="#666666">[bigint]</text>
<polygon fill="none" stroke="black" points="380.11,-481.4 380.11,-512.2 671.04,-512.2 671.04,-481.4 380.11,-481.4"/>
<text text-anchor="start" x="387.11" y="-493.6" font-family="Arial" font-size="14.00">last_client_seq </text>
<text text-anchor="start" x="483.62" y="-493.6" font-family="Arial" font-size="14.00" fill="#666666">[bigint]</text>
<polygon fill="none" stroke="black" points="380.11,-450.6 380.11,-481.4 671.04,-481.4 671.04,-450.6 380.11,-450.6"/>
<text text-anchor="start" x="387.11" y="-462.8" font-family="Arial" font-size="14.00">updated_at </text>
<text text-anchor="start" x="461.07" y="-462.8" font-family="Arial" font-size="14.00" fill="#666666">[timestamp with time zone]</text>
<polygon fill="none" stroke="black" stroke-width="3" points="378.61,-449.1 378.61,-641.7 672.54,-641.7 672.54,-449.1 378.61,-449.1"/>
</g>
<!-- public.channels -->
<g id="node2" class="node">
<title>public.channels</title>
<polygon fill="#efefef" stroke="none" points="219.73,-274.2 219.73,-309.8 473.42,-309.8 473.42,-274.2 219.73,-274.2"/>
<polygon fill="none" stroke="black" points="219.73,-274.2 219.73,-309.8 473.42,-309.8 473.42,-274.2 219.73,-274.2"/>
<text text-anchor="start" x="228.1" y="-287.6" font-family="Arial Bold" font-size="18.00">public.channels</text>
<text text-anchor="start" x="340.56" y="-287.6" font-family="Arial" font-size="14.00">    </text>
<text text-anchor="start" x="371.68" y="-287.6" font-family="Arial" font-size="14.00" fill="#666666">[BASE TABLE]</text>
<polygon fill="none" stroke="black" points="219.73,-243.4 219.73,-274.2 473.42,-274.2 473.42,-243.4 219.73,-243.4"/>
<text text-anchor="start" x="226.73" y="-255.6" font-family="Arial" font-size="14.00">id </text>
<text text-anchor="start" x="241.52" y="-255.6" font-family="Arial" font-size="14.00" fill="#666666">[bigint]</text>
<polygon fill="none" stroke="black" points="219.73,-212.6 219.73,-243.4 473.42,-243.4 473.42,-212.6 219.73,-212.6"/>
<text text-anchor="start" x="226.73" y="-224.8" font-family="Arial" font-size="14.00">type </text>
<text text-anchor="start" x="257.09" y="-224.8" font-family="Arial" font-size="14.00" fill="#666666">[channel_type]</text>
<polygon fill="none" stroke="black" points="219.73,-181.8 219.73,-212.6 473.42,-212.6 473.42,-181.8 219.73,-181.8"/>
<text text-anchor="start" x="226.73" y="-194" font-family="Arial" font-size="14.00">guild_id </text>
<text text-anchor="start" x="278.89" y="-194" font-family="Arial" font-size="14.00" fill="#666666">[bigint]</text>
<polygon fill="none" stroke="black" points="219.73,-151 219.73,-181.8 473.42,-181.8 473.42,-151 219.73,-151"/>
<text text-anchor="start" x="226.73" y="-163.2" font-family="Arial" font-size="14.00">name </text>
<text text-anchor="start" x="265.65" y="-163.2" font-family="Arial" font-size="14.00" fill="#666666">[text]</text>
<polygon fill="none" stroke="black" points="219.73,-120.2 219.73,-151 473.42,-151 473.42,-120.2 219.73,-120.2"/>
<text text-anchor="start" x="226.73" y="-132.4" font-family="Arial" font-size="14.00">created_by </text>
<text text-anchor="start" x="299.89" y="-132.4" font-family="Arial" font-size="14.00" fill="#666666">[bigint]</text>
<polygon fill="none" stroke="black" points="219.73,-89.4 219.73,-120.2 473.42,-120.2 473.42,-89.4 219.73,-89.4"/>
<text text-anchor="start" x="226.73" y="-101.6" font-family="Arial" font-size="14.00">created_at </text>
<text text-anchor="start" x="296.78" y="-101.6" font-family="Arial" font-size="14.00" fill="#666666">[timestamp with time zone]</text>
<polygon fill="none" stroke="black" points="219.73,-58.6 219.73,-89.4 473.42,-89.4 473.42,-58.6 219.73,-58.6"/>
<text text-anchor="start" x="226.73" y="-70.8" font-family="Arial" font-size="14.00">updated_at </text>
<text text-anchor="start" x="300.69" y="-70.8" font-family="Arial" font-size="14.00" fill="#666666">[timestamp with time zone]</text>
</g>
<!-- public.channel_reads&#45;&gt;public.channels -->
<g id="edge1" class="edge">
<title>public.channel_reads:channel_id&#45;&gt;public.channels:id</title>
<path fill="none" stroke="black" d="M368.78,-588.52C300.68,-579.03 340.03,-471.83 380.11,-404.4 404.31,-363.7 449.12,-393.63 473.42,-353 494.9,-317.07 516.29,-258.8 474.42,-258.8"/>
<polygon fill="black" stroke="black" points="368.8,-588.52 378.48,-593.67 374.12,-588.87 378.44,-589.16 378.44,-589.16 378.44,-589.16 374.12,-588.87 379.07,-584.69 368.8,-588.52"/>
<text text-anchor="start" x="7" y="-599.2" font-family="Arial" font-size="10.00">FOREIGN KEY (channel_id) REFERENCES channels(id) ON DELETE CASCADE</text>
</g>
<!-- public.users -->
<g id="node3" class="node">
<title>public.users</title>
<polygon fill="#efefef" stroke="none" points="577.73,-289.6 577.73,-325.2 831.42,-325.2 831.42,-289.6 577.73,-289.6"/>
<polygon fill="none" stroke="black" points="577.73,-289.6 577.73,-325.2 831.42,-325.2 831.42,-289.6 577.73,-289.6"/>
<text text-anchor="start" x="599.09" y="-303" font-family="Arial Bold" font-size="18.00">public.users</text>
<text text-anchor="start" x="685.57" y="-303" font-family="Arial" font-size="14.00">    </text>
<text text-anchor="start" x="716.69" y="-303" font-family="Arial" font-size="14.00" fill="#666666">[BASE TABLE]</text>
<polygon fill="none" stroke="black" points="577.73,-258.8 577.73,-289.6 831.42,-289.6 831.42,-258.8 577.73,-258.8"/>
<text text-anchor="start" x="584.73" y="-271" font-family="Arial" font-size="14.00">id </text>
<text text-anchor="start" x="599.52" y="-271" font-family="Arial" font-size="14.00" fill="#666666">[bigint]</text>
<polygon fill="none" stroke="black" points="577.73,-228 577.73,-258.8 831.42,-258.8 831.42,-228 577.73,-228"/>
<text text-anchor="start" x="584.73" y="-240.2" font-family="Arial" font-size="14.00">email </text>
<text text-anchor="start" x="622.08" y="-240.2" font-family="Arial" font-size="14.00" fill="#666666">[text]</text>
<polygon fill="none" stroke="black" points="577.73,-197.2 577.73,-228 831.42,-228 831.42,-197.2 577.73,-197.2"/>
<text text-anchor="start" x="584.73" y="-209.4" font-family="Arial" font-size="14.00">display_name </text>
<text text-anchor="start" x="675.01" y="-209.4" font-family="Arial" font-size="14.00" fill="#666666">[text]</text>
<polygon fill="none" stroke="black" points="577.73,-166.4 577.73,-197.2 831.42,-197.2 831.42,-166.4 577.73,-166.4"/>
<text text-anchor="start" x="584.73" y="-178.6" font-family="Arial" font-size="14.00">avatar_key </text>
<text text-anchor="start" x="657.11" y="-178.6" font-family="Arial" font-size="14.00" fill="#666666">[text]</text>
<polygon fill="none" stroke="black" points="577.73,-135.6 577.73,-166.4 831.42,-166.4 831.42,-135.6 577.73,-135.6"/>
<text text-anchor="start" x="584.73" y="-147.8" font-family="Arial" font-size="14.00">status_text </text>
<text text-anchor="start" x="656.33" y="-147.8" font-family="Arial" font-size="14.00" fill="#666666">[text]</text>
<polygon fill="none" stroke="black" points="577.73,-104.8 577.73,-135.6 831.42,-135.6 831.42,-104.8 577.73,-104.8"/>
<text text-anchor="start" x="584.73" y="-117" font-family="Arial" font-size="14.00">theme </text>
<text text-anchor="start" x="627.53" y="-117" font-family="Arial" font-size="14.00" fill="#666666">[text]</text>
<polygon fill="none" stroke="black" points="577.73,-74 577.73,-104.8 831.42,-104.8 831.42,-74 577.73,-74"/>
<text text-anchor="start" x="584.73" y="-86.2" font-family="Arial" font-size="14.00">created_at </text>
<text text-anchor="start" x="654.78" y="-86.2" font-family="Arial" font-size="14.00" fill="#666666">[timestamp with time zone]</text>
<polygon fill="none" stroke="black" points="577.73,-43.2 577.73,-74 831.42,-74 831.42,-43.2 577.73,-43.2"/>
<text text-anchor="start" x="584.73" y="-55.4" font-family="Arial" font-size="14.00">updated_at </text>
<text text-anchor="start" x="658.69" y="-55.4" font-family="Arial" font-size="14.00" fill="#666666">[timestamp with time zone]</text>
</g>
<!-- public.channel_reads&#45;&gt;public.users -->
<g id="edge2" class="edge">
<title>public.channel_reads:user_id&#45;&gt;public.users:id</title>
<path fill="none" stroke="black" d="M682.4,-557.55C737.12,-547.84 707.81,-457.64 671.04,-404.4 645.78,-367.83 603.07,-404.92 577.73,-368.4 553.87,-334 534.87,-274.2 576.73,-274.2"/>
<polygon fill="black" stroke="black" points="682.34,-557.55 672,-553.89 677.02,-557.99 672.71,-558.35 672.71,-558.35 672.71,-558.35 677.02,-557.99 672.74,-562.86 682.34,-557.55"/>
<text text-anchor="start" x="679.04" y="-568.4" font-family="Arial" font-size="10.00">FOREIGN KEY (user_id) REFERENCES users(id) ON DELETE CASCADE</text>
</g>
</g>
</svg>
