<?xml version="1.0" encoding="UTF-8" standalone="no"?>
<!DOCTYPE svg PUBLIC "-//W3C//DTD SVG 1.1//EN"
 "http://www.w3.org/Graphics/SVG/1.1/DTD/svg11.dtd">
<!-- Generated by graphviz version 12.1.2 (20240928.0832)
 -->
<!-- Title: public.channels Pages: 1 -->
<svg width="5061pt" height="1222pt"
 viewBox="0.00 0.00 5060.80 1222.00" xmlns="http://www.w3.org/2000/svg" xmlns:xlink="http://www.w3.org/1999/xlink">
<g id="graph0" class="graph" transform="scale(1 1) rotate(0) translate(4 1218)">
<title>public.channels</title>
<polygon fill="white" stroke="none" points="-4,4 -4,-1218 5056.8,-1218 5056.8,4 -4,4"/>
<!-- public.channels -->
<g id="node1" class="node">
<title>public.channels</title>
<polygon fill="#efefef" stroke="none" points="2635.3,-666.2 2635.3,-701.8 2888.98,-701.8 2888.98,-666.2 2635.3,-666.2"/>
<polygon fill="none" stroke="black" points="2635.3,-666.2 2635.3,-701.8 2888.98,-701.8 2888.98,-666.2 2635.3,-666.2"/>
<text text-anchor="start" x="2643.66" y="-679.6" font-family="Arial Bold" font-size="18.00">public.channels</text>
<text text-anchor="start" x="2756.12" y="-679.6" font-family="Arial" font-size="14.00">    </text>
<text text-anchor="start" x="2787.24" y="-679.6" font-family="Arial" font-size="14.00" fill="#666666">[BASE TABLE]</text>
<polygon fill="none" stroke="black" points="2635.3,-635.4 2635.3,-666.2 2888.98,-666.2 2888.98,-635.4 2635.3,-635.4"/>
<text text-anchor="start" x="2642.3" y="-647.6" font-family="Arial" font-size="14.00">id </text>
<text text-anchor="start" x="2657.08" y="-647.6" font-family="Arial" font-size="14.00" fill="#666666">[bigint]</text>
<polygon fill="none" stroke="black" points="2635.3,-604.6 2635.3,-635.4 2888.98,-635.4 2888.98,-604.6 2635.3,-604.6"/>
<text text-anchor="start" x="2642.3" y="-616.8" font-family="Arial" font-size="14.00">type </text>
<text text-anchor="start" x="2672.65" y="-616.8" font-family="Arial" font-size="14.00" fill="#666666">[channel_type]</text>
<polygon fill="none" stroke="black" points="2635.3,-573.8 2635.3,-604.6 2888.98,-604.6 2888.98,-573.8 2635.3,-573.8"/>
<text text-anchor="start" x="2642.3" y="-586" font-family="Arial" font-size="14.00">guild_id </text>
<text text-anchor="start" x="2694.45" y="-586" font-family="Arial" font-size="14.00" fill="#666666">[bigint]</text>
<polygon fill="none" stroke="black" points="2635.3,-543 2635.3,-573.8 2888.98,-573.8 2888.98,-543 2635.3,-543"/>
<text text-anchor="start" x="2642.3" y="-555.2" font-family="Arial" font-size="14.00">name </text>
<text text-anchor="start" x="2681.21" y="-555.2" font-family="Arial" font-size="14.00" fill="#666666">[text]</text>
<polygon fill="none" stroke="black" points="2635.3,-512.2 2635.3,-543 2888.98,-543 2888.98,-512.2 2635.3,-512.2"/>
<text text-anchor="start" x="2642.3" y="-524.4" font-family="Arial" font-size="14.00">created_by </text>
<text text-anchor="start" x="2715.45" y="-524.4" font-family="Arial" font-size="14.00" fill="#666666">[bigint]</text>
<polygon fill="none" stroke="black" points="2635.3,-481.4 2635.3,-512.2 2888.98,-512.2 2888.98,-481.4 2635.3,-481.4"/>
<text text-anchor="start" x="2642.3" y="-493.6" font-family="Arial" font-size="14.00">created_at </text>
<text text-anchor="start" x="2712.34" y="-493.6" font-family="Arial" font-size="14.00" fill="#666666">[timestamp with time zone]</text>
<polygon fill="none" stroke="black" points="2635.3,-450.6 2635.3,-481.4 2888.98,-481.4 2888.98,-450.6 2635.3,-450.6"/>
<text text-anchor="start" x="2642.3" y="-462.8" font-family="Arial" font-size="14.00">updated_at </text>
<text text-anchor="start" x="2716.25" y="-462.8" font-family="Arial" font-size="14.00" fill="#666666">[timestamp with time zone]</text>
<polygon fill="none" stroke="black" stroke-width="3" points="2633.8,-449.1 2633.8,-703.3 2890.48,-703.3 2890.48,-449.1 2633.8,-449.1"/>
</g>
<!-- public.guilds -->
<g id="node13" class="node">
<title>public.guilds</title>
<polygon fill="#efefef" stroke="none" points="2456.3,-258.8 2456.3,-294.4 2709.98,-294.4 2709.98,-258.8 2456.3,-258.8"/>
<polygon fill="none" stroke="black" points="2456.3,-258.8 2456.3,-294.4 2709.98,-294.4 2709.98,-258.8 2456.3,-258.8"/>
<text text-anchor="start" x="2474.14" y="-272.2" font-family="Arial Bold" font-size="18.00">public.guilds</text>
<text text-anchor="start" x="2567.64" y="-272.2" font-family="Arial" font-size="14.00">    </text>
<text text-anchor="start" x="2598.76" y="-272.2" font-family="Arial" font-size="14.00" fill="#666666">[BASE TABLE]</text>
<polygon fill="none" stroke="black" points="2456.3,-228 2456.3,-258.8 2709.98,-258.8 2709.98,-228 2456.3,-228"/>
<text text-anchor="start" x="2463.3" y="-240.2" font-family="Arial" font-size="14.00">id </text>
<text text-anchor="start" x="2478.08" y="-240.2" font-family="Arial" font-size="14.00" fill="#666666">[bigint]</text>
<polygon fill="none" stroke="black" points="2456.3,-197.2 2456.3,-228 2709.98,-228 2709.98,-197.2 2456.3,-197.2"/>
<text text-anchor="start" x="2463.3" y="-209.4" font-family="Arial" font-size="14.00">name </text>
<text text-anchor="start" x="2502.21" y="-209.4" font-family="Arial" font-size="14.00" fill="#666666">[text]</text>
<polygon fill="none" stroke="black" points="2456.3,-166.4 2456.3,-197.2 2709.98,-197.2 2709.98,-166.4 2456.3,-166.4"/>
<text text-anchor="start" x="2463.3" y="-178.6" font-family="Arial" font-size="14.00">owner_id </text>
<text text-anchor="start" x="2524" y="-178.6" font-family="Arial" font-size="14.00" fill="#666666">[bigint]</text>
<polygon fill="none" stroke="black" points="2456.3,-135.6 2456.3,-166.4 2709.98,-166.4 2709.98,-135.6 2456.3,-135.6"/>
<text text-anchor="start" x="2463.3" y="-147.8" font-family="Arial" font-size="14.00">icon_key </text>
<text text-anchor="start" x="2522.44" y="-147.8" font-family="Arial" font-size="14.00" fill="#666666">[text]</text>
<polygon fill="none" stroke="black" points="2456.3,-104.8 2456.3,-135.6 2709.98,-135.6 2709.98,-104.8 2456.3,-104.8"/>
<text text-anchor="start" x="2463.3" y="-117" font-family="Arial" font-size="14.00">created_at </text>
<text text-anchor="start" x="2533.34" y="-117" font-family="Arial" font-size="14.00" fill="#666666">[timestamp with time zone]</text>
<polygon fill="none" stroke="black" points="2456.3,-74 2456.3,-104.8 2709.98,-104.8 2709.98,-74 2456.3,-74"/>
<text text-anchor="start" x="2463.3" y="-86.2" font-family="Arial" font-size="14.00">updated_at </text>
<text text-anchor="start" x="2537.25" y="-86.2" font-family="Arial" font-size="14.00" fill="#666666">[timestamp with time zone]</text>
</g>
<!-- public.channels&#45;&gt;public.guilds -->
<g id="edge13" class="edge">
<title>public.channels:guild_id&#45;&gt;public.guilds:id</title>
<path fill="none" stroke="black" d="M2624.22,-589.11C2336.06,-583.89 2703.74,-351.36 2709.98,-337.6 2727.27,-299.47 2752.85,-243.4 2710.98,-243.4"/>
<polygon fill="black" stroke="black" points="2623.96,-589.11 2633.92,-593.7 2629.3,-589.16 2633.63,-589.19 2633.63,-589.19 2633.63,-589.19 2629.3,-589.16 2634,-584.7 2623.96,-589.11"/>
<text text-anchor="start" x="2289.99" y="-599.2" font-family="Arial" font-size="10.00">FOREIGN KEY (guild_id) REFERENCES guilds(id) ON DELETE CASCADE</text>
</g>
<!-- public.users -->
<g id="node14" class="node">
<title>public.users</title>
<polygon fill="#efefef" stroke="none" points="2814.3,-289.6 2814.3,-325.2 3067.98,-325.2 3067.98,-289.6 2814.3,-289.6"/>
<polygon fill="none" stroke="black" points="2814.3,-289.6 2814.3,-325.2 3067.98,-325.2 3067.98,-289.6 2814.3,-289.6"/>
<text text-anchor="start" x="2835.65" y="-303" font-family="Arial Bold" font-size="18.00">public.users</text>
<text text-anchor="start" x="2922.13" y="-303" font-family="Arial" font-size="14.00">    </text>
<text text-anchor="start" x="2953.25" y="-303" font-family="Arial" font-size="14.00" fill="#666666">[BASE TABLE]</text>
<polygon fill="none" stroke="black" points="2814.3,-258.8 2814.3,-289.6 3067.98,-289.6 3067.98,-258.8 2814.3,-258.8"/>
<text text-anchor="start" x="2821.3" y="-271" font-family="Arial" font-size="14.00">id </text>
<text text-anchor="start" x="2836.08" y="-271" font-family="Arial" font-size="14.00" fill="#666666">[bigint]</text>
<polygon fill="none" stroke="black" points="2814.3,-228 2814.3,-258.8 3067.98,-258.8 3067.98,-228 2814.3,-228"/>
<text text-anchor="start" x="2821.3" y="-240.2" font-family="Arial" font-size="14.00">email </text>
<text text-anchor="start" x="2858.64" y="-240.2" font-family="Arial" font-size="14.00" fill="#666666">[text]</text>
<polygon fill="none" stroke="black" points="2814.3,-197.2 2814.3,-228 3067.98,-228 3067.98,-197.2 2814.3,-197.2"/>
<text text-anchor="start" x="2821.3" y="-209.4" font-family="Arial" font-size="14.00">display_name </text>
<text text-anchor="start" x="2911.57" y="-209.4" font-family="Arial" font-size="14.00" fill="#666666">[text]</text>
<polygon fill="none" stroke="black" points="2814.3,-166.4 2814.3,-197.2 3067.98,-197.2 3067.98,-166.4 2814.3,-166.4"/>
<text text-anchor="start" x="2821.3" y="-178.6" font-family="Arial" font-size="14.00">avatar_key </text>
<text text-anchor="start" x="2893.67" y="-178.6" font-family="Arial" font-size="14.00" fill="#666666">[text]</text>
<polygon fill="none" stroke="black" points="2814.3,-135.6 2814.3,-166.4 3067.98,-166.4 3067.98,-135.6 2814.3,-135.6"/>
<text text-anchor="start" x="2821.3" y="-147.8" font-family="Arial" font-size="14.00">status_text </text>
<text text-anchor="start" x="2892.89" y="-147.8" font-family="Arial" font-size="14.00" fill="#666666">[text]</text>
<polygon fill="none" stroke="black" points="2814.3,-104.8 2814.3,-135.6 3067.98,-135.6 3067.98,-104.8 2814.3,-104.8"/>
<text text-anchor="start" x="2821.3" y="-117" font-family="Arial" font-size="14.00">theme </text>
<text text-anchor="start" x="2864.1" y="-117" font-family="Arial" font-size="14.00" fill="#666666">[text]</text>
<polygon fill="none" stroke="black" points="2814.3,-74 2814.3,-104.8 3067.98,-104.8 3067.98,-74 2814.3,-74"/>
<text text-anchor="start" x="2821.3" y="-86.2" font-family="Arial" font-size="14.00">created_at </text>
<text text-anchor="start" x="2891.34" y="-86.2" font-family="Arial" font-size="14.00" fill="#666666">[timestamp with time zone]</text>
<polygon fill="none" stroke="black" points="2814.3,-43.2 2814.3,-74 3067.98,-74 3067.98,-43.2 2814.3,-43.2"/>
<text text-anchor="start" x="2821.3" y="-55.4" font-family="Arial" font-size="14.00">updated_at </text>
<text text-anchor="start" x="2895.25" y="-55.4" font-family="Arial" font-size="14.00" fill="#666666">[timestamp with time zone]</text>
</g>
<!-- public.channels&#45;&gt;public.users -->
<g id="edge14" class="edge">
<title>public.channels:created_by&#45;&gt;public.users:id</title>
<path fill="none" stroke="black" d="M2900.35,-526.5C2941,-516.93 2916.23,-447.4 2888.98,-404.4 2869.25,-373.28 2834.06,-399.5 2814.3,-368.4 2791.84,-333.06 2771.43,-274.2 2813.3,-274.2"/>
<polygon fill="black" stroke="black" points="2900.25,-526.51 2889.83,-523.09 2894.95,-527.07 2890.64,-527.53 2890.64,-527.53 2890.64,-527.53 2894.95,-527.07 2890.79,-532.04 2900.25,-526.51"/>
<text text-anchor="start" x="2896.98" y="-537.6" font-family="Arial" font-size="10.00">FOREIGN KEY (created_by) REFERENCES users(id) ON DELETE SET NULL</text>
</g>
<!-- public.dm_participants -->
<g id="node2" class="node">
<title>public.dm_participants</title>
<polygon fill="#efefef" stroke="none" points="74.16,-1012 74.16,-1047.6 378.11,-1047.6 378.11,-1012 74.16,-1012"/>
<polygon fill="none" stroke="black" points="74.16,-1012 74.16,-1047.6 378.11,-1047.6 378.11,-1012 74.16,-1012"/>
<text text-anchor="start" x="81.16" y="-1025.4" font-family="Arial Bold" font-size="18.00">public.dm_participants</text>
<text text-anchor="start" x="246.62" y="-1025.4" font-family="Arial" font-size="14.00">    </text>
<text text-anchor="start" x="277.74" y="-1025.4" font-family="Arial" font-size="14.00" fill="#666666">[BASE TABLE]</text>
<polygon fill="none" stroke="black" points="74.16,-981.2 74.16,-1012 378.11,-1012 378.11,-981.2 74.16,-981.2"/>
<text text-anchor="start" x="81.16" y="-993.4" font-family="Arial" font-size="14.00">channel_id </text>
<text text-anchor="start" x="152.77" y="-993.4" font-family="Arial" font-size="14.00" fill="#666666">[bigint]</text>
<polygon fill="none" stroke="black" points="74.16,-950.4 74.16,-981.2 378.11,-981.2 378.11,-950.4 74.16,-950.4"/>
<text text-anchor="start" x="81.16" y="-962.6" font-family="Arial" font-size="14.00">user_id </text>
<text text-anchor="start" x="130.97" y="-962.6" font-family="Arial" font-size="14.00" fill="#666666">[bigint]</text>
</g>
<!-- public.dm_participants&#45;&gt;public.channels -->
<g id="edge1" class="edge">
<title>public.dm_participants:channel_id&#45;&gt;public.channels:id</title>
<path fill="none" stroke="black" d="M389.53,-995.93C467.16,-985 358.59,-844 430.14,-784 524.14,-705.18 2511.62,-650.8 2634.3,-650.8"/>
<polygon fill="black" stroke="black" points="389.43,-995.93 379.16,-992.09 384.1,-996.28 379.78,-996.56 379.78,-996.56 379.78,-996.56 384.1,-996.28 379.74,-1001.07 389.43,-995.93"/>
<text text-anchor="start" x="7" y="-1006.6" font-family="Arial" font-size="10.00">FOREIGN KEY (channel_id) REFERENCES channels(id) ON DELETE CASCADE</text>
</g>
<!-- public.dm_pairs -->
<g id="node3" class="node">
<title>public.dm_pairs</title>
<polygon fill="#efefef" stroke="none" points="482.65,-1027.4 482.65,-1063 737.62,-1063 737.62,-1027.4 482.65,-1027.4"/>
<polygon fill="none" stroke="black" points="482.65,-1027.4 482.65,-1063 737.62,-1063 737.62,-1027.4 482.65,-1027.4"/>
<text text-anchor="start" x="489.65" y="-1040.8" font-family="Arial Bold" font-size="18.00">public.dm_pairs</text>
<text text-anchor="start" x="606.13" y="-1040.8" font-family="Arial" font-size="14.00">    </text>
<text text-anchor="start" x="637.25" y="-1040.8" font-family="Arial" font-size="14.00" fill="#666666">[BASE TABLE]</text>
<polygon fill="none" stroke="black" points="482.65,-996.6 482.65,-1027.4 737.62,-1027.4 737.62,-996.6 482.65,-996.6"/>
<text text-anchor="start" x="489.65" y="-1008.8" font-family="Arial" font-size="14.00">user_low </text>
<text text-anchor="start" x="549.57" y="-1008.8" font-family="Arial" font-size="14.00" fill="#666666">[bigint]</text>
<polygon fill="none" stroke="black" points="482.65,-965.8 482.65,-996.6 737.62,-996.6 737.62,-965.8 482.65,-965.8"/>
<text text-anchor="start" x="489.65" y="-978" font-family="Arial" font-size="14.00">user_high </text>
<text text-anchor="start" x="555.03" y="-978" font-family="Arial" font-size="14.00" fill="#666666">[bigint]</text>
<polygon fill="none" stroke="black" points="482.65,-935 482.65,-965.8 737.62,-965.8 737.62,-935 482.65,-935"/>
<text text-anchor="start" x="489.65" y="-947.2" font-family="Arial" font-size="14.00">channel_id </text>
<text text-anchor="start" x="561.26" y="-947.2" font-family="Arial" font-size="14.00" fill="#666666">[bigint]</text>
</g>
<!-- public.dm_pairs&#45;&gt;public.channels -->
<g id="edge2" class="edge">
<title>public.dm_pairs:channel_id&#45;&gt;public.channels:id</title>
<path fill="none" stroke="black" d="M748.8,-949.58C807.75,-939.03 731.7,-829.89 789.14,-784 949.73,-655.7 2428.74,-650.8 2634.3,-650.8"/>
<polygon fill="black" stroke="black" points="748.92,-949.57 738.59,-945.89 743.61,-950 739.29,-950.35 739.29,-950.35 739.29,-950.35 743.61,-950 739.32,-954.86 748.92,-949.57"/>
<text text-anchor="start" x="366.51" y="-960.4" font-family="Arial" font-size="10.00">FOREIGN KEY (channel_id) REFERENCES channels(id) ON DELETE CASCADE</text>
</g>
<!-- public.channel_reads -->
<g id="node4" class="node">
<title>public.channel_reads</title>
<polygon fill="#efefef" stroke="none" points="841.67,-1058.2 841.67,-1093.8 1132.6,-1093.8 1132.6,-1058.2 841.67,-1058.2"/>
<polygon fill="none" stroke="black" points="841.67,-1058.2 841.67,-1093.8 1132.6,-1093.8 1132.6,-1058.2 841.67,-1058.2"/>
<text text-anchor="start" x="848.67" y="-1071.6" font-family="Arial Bold" font-size="18.00">public.channel_reads</text>
<text text-anchor="start" x="1001.11" y="-1071.6" font-family="Arial" font-size="14.00">    </text>
<text text-anchor="start" x="1032.23" y="-1071.6" font-family="Arial" font-size="14.00" fill="#666666">[BASE TABLE]</text>
<polygon fill="none" stroke="black" points="841.67,-1027.4 841.67,-1058.2 1132.6,-1058.2 1132.6,-1027.4 841.67,-1027.4"/>
<text text-anchor="start" x="848.67" y="-1039.6" font-family="Arial" font-size="14.00">channel_id </text>
<text text-anchor="start" x="920.29" y="-1039.6" font-family="Arial" font-size="14.00" fill="#666666">[bigint]</text>
<polygon fill="none" stroke="black" points="841.67,-996.6 841.67,-1027.4 1132.6,-1027.4 1132.6,-996.6 841.67,-996.6"/>
<text text-anchor="start" x="848.67" y="-1008.8" font-family="Arial" font-size="14.00">user_id </text>
<text text-anchor="start" x="898.48" y="-1008.8" font-family="Arial" font-size="14.00" fill="#666666">[bigint]</text>
<polygon fill="none" stroke="black" points="841.67,-965.8 841.67,-996.6 1132.6,-996.6 1132.6,-965.8 841.67,-965.8"/>
<text text-anchor="start" x="848.67" y="-978" font-family="Arial" font-size="14.00">last_read_message_id </text>
<text text-anchor="start" x="993.43" y="-978" font-family="Arial" font-size="14.00" fill="#666666">[bigint]</text>
<polygon fill="none" stroke="black" points="841.67,-935 841.67,-965.8 1132.6,-965.8 1132.6,-935 841.67,-935"/>
<text text-anchor="start" x="848.67" y="-947.2" font-family="Arial" font-size="14.00">last_client_seq </text>
<text text-anchor="start" x="945.18" y="-947.2" font-family="Arial" font-size="14.00" fill="#666666">[bigint]</text>
<polygon fill="none" stroke="black" points="841.67,-904.2 841.67,-935 1132.6,-935 1132.6,-904.2 841.67,-904.2"/>
<text text-anchor="start" x="848.67" y="-916.4" font-family="Arial" font-size="14.00">updated_at </text>
<text text-anchor="start" x="922.63" y="-916.4" font-family="Arial" font-size="14.00" fill="#666666">[timestamp with time zone]</text>
</g>
<!-- public.channel_reads&#45;&gt;public.channels -->
<g id="edge3" class="edge">
<title>public.channel_reads:channel_id&#45;&gt;public.channels:id</title>
<path fill="none" stroke="black" d="M1143.82,-1042.28C1241.56,-1031.63 1100.7,-860.02 1185.14,-784 1305.31,-675.82 2472.6,-650.8 2634.3,-650.8"/>
<polygon fill="black" stroke="black" points="1143.92,-1042.28 1133.71,-1038.29 1138.59,-1042.55 1134.27,-1042.77 1134.27,-1042.77 1134.27,-1042.77 1138.59,-1042.55 1134.16,-1047.28 1143.92,-1042.28"/>
<text text-anchor="start" x="1140.6" y="-1052.8" font-family="Arial" font-size="10.00">FOREIGN KEY (channel_id) REFERENCES channels(id) ON DELETE CASCADE</text>
</g>
<!-- public.channel_last_message -->
<g id="node5" class="node">
<title>public.channel_last_message</title>
<polygon fill="#efefef" stroke="none" points="1237.17,-1042.8 1237.17,-1078.4 1585.1,-1078.4 1585.1,-1042.8 1237.17,-1042.8"/>
<polygon fill="none" stroke="black" points="1237.17,-1042.8 1237.17,-1078.4 1585.1,-1078.4 1585.1,-1042.8 1237.17,-1042.8"/>
<text text-anchor="start" x="1244.17" y="-1056.2" font-family="Arial Bold" font-size="18.00">public.channel_last_message</text>
<text text-anchor="start" x="1453.61" y="-1056.2" font-family="Arial" font-size="14.00">    </text>
<text text-anchor="start" x="1484.73" y="-1056.2" font-family="Arial" font-size="14.00" fill="#666666">[BASE TABLE]</text>
<polygon fill="none" stroke="black" points="1237.17,-1012 1237.17,-1042.8 1585.1,-1042.8 1585.1,-1012 1237.17,-1012"/>
<text text-anchor="start" x="1244.17" y="-1024.2" font-family="Arial" font-size="14.00">channel_id </text>
<text text-anchor="start" x="1315.79" y="-1024.2" font-family="Arial" font-size="14.00" fill="#666666">[bigint]</text>
<polygon fill="none" stroke="black" points="1237.17,-981.2 1237.17,-1012 1585.1,-1012 1585.1,-981.2 1237.17,-981.2"/>
<text text-anchor="start" x="1244.17" y="-993.4" font-family="Arial" font-size="14.00">last_message_id </text>
<text text-anchor="start" x="1353.13" y="-993.4" font-family="Arial" font-size="14.00" fill="#666666">[bigint]</text>
<polygon fill="none" stroke="black" points="1237.17,-950.4 1237.17,-981.2 1585.1,-981.2 1585.1,-950.4 1237.17,-950.4"/>
<text text-anchor="start" x="1244.17" y="-962.6" font-family="Arial" font-size="14.00">last_message_at </text>
<text text-anchor="start" x="1353.9" y="-962.6" font-family="Arial" font-size="14.00" fill="#666666">[timestamp with time zone]</text>
<polygon fill="none" stroke="black" points="1237.17,-919.6 1237.17,-950.4 1585.1,-950.4 1585.1,-919.6 1237.17,-919.6"/>
<text text-anchor="start" x="1244.17" y="-931.8" font-family="Arial" font-size="14.00">updated_at </text>
<text text-anchor="start" x="1318.13" y="-931.8" font-family="Arial" font-size="14.00" fill="#666666">[timestamp with time zone]</text>
</g>
<!-- public.channel_last_message&#45;&gt;public.channels -->
<g id="edge4" class="edge">
<title>public.channel_last_message:channel_id&#45;&gt;public.channels:id</title>
<path fill="none" stroke="black" d="M1596.3,-1026.85C1687.54,-1016.33 1558.83,-856.72 1637.14,-784 1719.04,-707.93 2522.52,-650.8 2634.3,-650.8"/>
<polygon fill="black" stroke="black" points="1596.42,-1026.85 1586.19,-1022.89 1591.09,-1027.13 1586.77,-1027.36 1586.77,-1027.36 1586.77,-1027.36 1591.09,-1027.13 1586.67,-1031.88 1596.42,-1026.85"/>
<text text-anchor="start" x="1403.54" y="-1011.4" font-family="Arial" font-size="10.00">FOREIGN KEY (channel_id) REFERENCES channels(id) ON DELETE CASCADE</text>
</g>
<!-- public.channel_role_permission_overrides_v2 -->
<g id="node6" class="node">
<title>public.channel_role_permission_overrides_v2</title>
<polygon fill="#efefef" stroke="none" points="1689.19,-1089 1689.19,-1124.6 2161.09,-1124.6 2161.09,-1089 1689.19,-1089"/>
<polygon fill="none" stroke="black" points="1689.19,-1089 1689.19,-1124.6 2161.09,-1124.6 2161.09,-1089 1689.19,-1089"/>
<text text-anchor="start" x="1696.19" y="-1102.4" font-family="Arial Bold" font-size="18.00">public.channel_role_permission_overrides_v2</text>
<text text-anchor="start" x="2029.6" y="-1102.4" font-family="Arial" font-size="14.00">    </text>
<text text-anchor="start" x="2060.72" y="-1102.4" font-family="Arial" font-size="14.00" fill="#666666">[BASE TABLE]</text>
<polygon fill="none" stroke="black" points="1689.19,-1058.2 1689.19,-1089 2161.09,-1089 2161.09,-1058.2 1689.19,-1058.2"/>
<text text-anchor="start" x="1696.19" y="-1070.4" font-family="Arial" font-size="14.00">channel_id </text>
<text text-anchor="start" x="1767.8" y="-1070.4" font-family="Arial" font-size="14.00" fill="#666666">[bigint]</text>
<polygon fill="none" stroke="black" points="1689.19,-1027.4 1689.19,-1058.2 2161.09,-1058.2 2161.09,-1027.4 1689.19,-1027.4"/>
<text text-anchor="start" x="1696.19" y="-1039.6" font-family="Arial" font-size="14.00">guild_id </text>
<text text-anchor="start" x="1748.34" y="-1039.6" font-family="Arial" font-size="14.00" fill="#666666">[bigint]</text>
<polygon fill="none" stroke="black" points="1689.19,-996.6 1689.19,-1027.4 2161.09,-1027.4 2161.09,-996.6 1689.19,-996.6"/>
<text text-anchor="start" x="1696.19" y="-1008.8" font-family="Arial" font-size="14.00">role_key </text>
<text text-anchor="start" x="1752.99" y="-1008.8" font-family="Arial" font-size="14.00" fill="#666666">[text]</text>
<polygon fill="none" stroke="black" points="1689.19,-965.8 1689.19,-996.6 2161.09,-996.6 2161.09,-965.8 1689.19,-965.8"/>
<text text-anchor="start" x="1696.19" y="-978" font-family="Arial" font-size="14.00">can_view </text>
<text text-anchor="start" x="1758.44" y="-978" font-family="Arial" font-size="14.00" fill="#666666">[boolean]</text>
<polygon fill="none" stroke="black" points="1689.19,-935 1689.19,-965.8 2161.09,-965.8 2161.09,-935 1689.19,-935"/>
<text text-anchor="start" x="1696.19" y="-947.2" font-family="Arial" font-size="14.00">can_post </text>
<text text-anchor="start" x="1756.9" y="-947.2" font-family="Arial" font-size="14.00" fill="#666666">[boolean]</text>
<polygon fill="none" stroke="black" points="1689.19,-904.2 1689.19,-935 2161.09,-935 2161.09,-904.2 1689.19,-904.2"/>
<text text-anchor="start" x="1696.19" y="-916.4" font-family="Arial" font-size="14.00">created_at </text>
<text text-anchor="start" x="1766.23" y="-916.4" font-family="Arial" font-size="14.00" fill="#666666">[timestamp with time zone]</text>
<polygon fill="none" stroke="black" points="1689.19,-873.4 1689.19,-904.2 2161.09,-904.2 2161.09,-873.4 1689.19,-873.4"/>
<text text-anchor="start" x="1696.19" y="-885.6" font-family="Arial" font-size="14.00">updated_at </text>
<text text-anchor="start" x="1770.14" y="-885.6" font-family="Arial" font-size="14.00" fill="#666666">[timestamp with time zone]</text>
</g>
<!-- public.channel_role_permission_overrides_v2&#45;&gt;public.channels -->
<g id="edge5" class="edge">
<title>public.channel_role_permission_overrides_v2:channel_id&#45;&gt;public.channels:id</title>
<path fill="none" stroke="black" d="M2172.05,-1071.36C2221.26,-1046.98 2172.51,-830.37 2213.14,-784 2277.82,-710.17 2536.14,-650.8 2634.3,-650.8"/>
<polygon fill="black" stroke="black" points="2172.17,-1071.34 2161.43,-1069.14 2166.97,-1072.51 2162.74,-1073.45 2162.74,-1073.45 2162.74,-1073.45 2166.97,-1072.51 2163.4,-1077.92 2172.17,-1071.34"/>
<text text-anchor="start" x="1979.53" y="-1057.6" font-family="Arial" font-size="10.00">FOREIGN KEY (channel_id) REFERENCES channels(id) ON DELETE CASCADE</text>
</g>
<!-- public.channel_user_permission_overrides_v2 -->
<g id="node7" class="node">
<title>public.channel_user_permission_overrides_v2</title>
<polygon fill="#efefef" stroke="none" points="2265.18,-1089 2265.18,-1124.6 2739.09,-1124.6 2739.09,-1089 2265.18,-1089"/>
<polygon fill="none" stroke="black" points="2265.18,-1089 2265.18,-1124.6 2739.09,-1124.6 2739.09,-1089 2265.18,-1089"/>
<text text-anchor="start" x="2272.18" y="-1102.4" font-family="Arial Bold" font-size="18.00">public.channel_user_permission_overrides_v2</text>
<text text-anchor="start" x="2607.6" y="-1102.4" font-family="Arial" font-size="14.00">    </text>
<text text-anchor="start" x="2638.72" y="-1102.4" font-family="Arial" font-size="14.00" fill="#666666">[BASE TABLE]</text>
<polygon fill="none" stroke="black" points="2265.18,-1058.2 2265.18,-1089 2739.09,-1089 2739.09,-1058.2 2265.18,-1058.2"/>
<text text-anchor="start" x="2272.18" y="-1070.4" font-family="Arial" font-size="14.00">channel_id </text>
<text text-anchor="start" x="2343.8" y="-1070.4" font-family="Arial" font-size="14.00" fill="#666666">[bigint]</text>
<polygon fill="none" stroke="black" points="2265.18,-1027.4 2265.18,-1058.2 2739.09,-1058.2 2739.09,-1027.4 2265.18,-1027.4"/>
<text text-anchor="start" x="2272.18" y="-1039.6" font-family="Arial" font-size="14.00">guild_id </text>
<text text-anchor="start" x="2324.33" y="-1039.6" font-family="Arial" font-size="14.00" fill="#666666">[bigint]</text>
<polygon fill="none" stroke="black" points="2265.18,-996.6 2265.18,-1027.4 2739.09,-1027.4 2739.09,-996.6 2265.18,-996.6"/>
<text text-anchor="start" x="2272.18" y="-1008.8" font-family="Arial" font-size="14.00">user_id </text>
<text text-anchor="start" x="2321.99" y="-1008.8" font-family="Arial" font-size="14.00" fill="#666666">[bigint]</text>
<polygon fill="none" stroke="black" points="2265.18,-965.8 2265.18,-996.6 2739.09,-996.6 2739.09,-965.8 2265.18,-965.8"/>
<text text-anchor="start" x="2272.18" y="-978" font-family="Arial" font-size="14.00">can_view </text>
<text text-anchor="start" x="2334.44" y="-978" font-family="Arial" font-size="14.00" fill="#666666">[boolean]</text>
<polygon fill="none" stroke="black" points="2265.18,-935 2265.18,-965.8 2739.09,-965.8 2739.09,-935 2265.18,-935"/>
<text text-anchor="start" x="2272.18" y="-947.2" font-family="Arial" font-size="14.00">can_post </text>
<text text-anchor="start" x="2332.89" y="-947.2" font-family="Arial" font-size="14.00" fill="#666666">[boolean]</text>
<polygon fill="none" stroke="black" points="2265.18,-904.2 2265.18,-935 2739.09,-935 2739.09,-904.2 2265.18,-904.2"/>
<text text-anchor="start" x="2272.18" y="-916.4" font-family="Arial" font-size="14.00">created_at </text>
<text text-anchor="start" x="2342.23" y="-916.4" font-family="Arial" font-size="14.00" fill="#666666">[timestamp with time zone]</text>
<polygon fill="none" stroke="black" points="2265.18,-873.4 2265.18,-904.2 2739.09,-904.2 2739.09,-873.4 2265.18,-873.4"/>
<text text-anchor="start" x="2272.18" y="-885.6" font-family="Arial" font-size="14.00">updated_at </text>
<text text-anchor="start" x="2346.14" y="-885.6" font-family="Arial" font-size="14.00" fill="#666666">[timestamp with time zone]</text>
</g>
<!-- public.channel_user_permission_overrides_v2&#45;&gt;public.channels -->
<g id="edge6" class="edge">
<title>public.channel_user_permission_overrides_v2:channel_id&#45;&gt;public.channels:id</title>
<path fill="none" stroke="black" d="M2750.01,-1070.98C2789.92,-1047.66 2761.12,-875.52 2739.09,-830.2 2713.36,-777.28 2661.19,-800.84 2635.3,-748 2616.29,-709.21 2591.09,-650.8 2634.3,-650.8"/>
<polygon fill="black" stroke="black" points="2750.08,-1070.96 2739.26,-1069.16 2744.92,-1072.32 2740.74,-1073.43 2740.74,-1073.43 2740.74,-1073.43 2744.92,-1072.32 2741.56,-1077.87 2750.08,-1070.96"/>
<text text-anchor="start" x="2747.09" y="-1083.6" font-family="Arial" font-size="10.00">FOREIGN KEY (channel_id) REFERENCES channels(id) ON DELETE CASCADE</text>
</g>
<!-- public.channel_hierarchies_v2 -->
<g id="node8" class="node">
<title>public.channel_hierarchies_v2</title>
<polygon fill="#efefef" stroke="none" points="2843.69,-1119.8 2843.69,-1155.4 3202.59,-1155.4 3202.59,-1119.8 2843.69,-1119.8"/>
<polygon fill="none" stroke="black" points="2843.69,-1119.8 2843.69,-1155.4 3202.59,-1155.4 3202.59,-1119.8 2843.69,-1119.8"/>
<text text-anchor="start" x="2850.69" y="-1133.2" font-family="Arial Bold" font-size="18.00">public.channel_hierarchies_v2</text>
<text text-anchor="start" x="3071.1" y="-1133.2" font-family="Arial" font-size="14.00">    </text>
<text text-anchor="start" x="3102.21" y="-1133.2" font-family="Arial" font-size="14.00" fill="#666666">[BASE TABLE]</text>
<polygon fill="none" stroke="black" points="2843.69,-1089 2843.69,-1119.8 3202.59,-1119.8 3202.59,-1089 2843.69,-1089"/>
<text text-anchor="start" x="2850.69" y="-1101.2" font-family="Arial" font-size="14.00">child_channel_id </text>
<text text-anchor="start" x="2958.88" y="-1101.2" font-family="Arial" font-size="14.00" fill="#666666">[bigint]</text>
<polygon fill="none" stroke="black" points="2843.69,-1058.2 2843.69,-1089 3202.59,-1089 3202.59,-1058.2 2843.69,-1058.2"/>
<text text-anchor="start" x="2850.69" y="-1070.4" font-family="Arial" font-size="14.00">guild_id </text>
<text text-anchor="start" x="2902.84" y="-1070.4" font-family="Arial" font-size="14.00" fill="#666666">[bigint]</text>
<polygon fill="none" stroke="black" points="2843.69,-1027.4 2843.69,-1058.2 3202.59,-1058.2 3202.59,-1027.4 2843.69,-1027.4"/>
<text text-anchor="start" x="2850.69" y="-1039.6" font-family="Arial" font-size="14.00">parent_channel_id </text>
<text text-anchor="start" x="2969.78" y="-1039.6" font-family="Arial" font-size="14.00" fill="#666666">[bigint]</text>
<polygon fill="none" stroke="black" points="2843.69,-996.6 2843.69,-1027.4 3202.59,-1027.4 3202.59,-996.6 2843.69,-996.6"/>
<text text-anchor="start" x="2850.69" y="-1008.8" font-family="Arial" font-size="14.00">hierarchy_kind </text>
<text text-anchor="start" x="2945.62" y="-1008.8" font-family="Arial" font-size="14.00" fill="#666666">[channel_hierarchy_kind]</text>
<polygon fill="none" stroke="black" points="2843.69,-965.8 2843.69,-996.6 3202.59,-996.6 3202.59,-965.8 2843.69,-965.8"/>
<text text-anchor="start" x="2850.69" y="-978" font-family="Arial" font-size="14.00">parent_message_id </text>
<text text-anchor="start" x="2977.55" y="-978" font-family="Arial" font-size="14.00" fill="#666666">[bigint]</text>
<polygon fill="none" stroke="black" points="2843.69,-935 2843.69,-965.8 3202.59,-965.8 3202.59,-935 2843.69,-935"/>
<text text-anchor="start" x="2850.69" y="-947.2" font-family="Arial" font-size="14.00">position </text>
<text text-anchor="start" x="2902.83" y="-947.2" font-family="Arial" font-size="14.00" fill="#666666">[integer]</text>
<polygon fill="none" stroke="black" points="2843.69,-904.2 2843.69,-935 3202.59,-935 3202.59,-904.2 2843.69,-904.2"/>
<text text-anchor="start" x="2850.69" y="-916.4" font-family="Arial" font-size="14.00">archived_at </text>
<text text-anchor="start" x="2926.95" y="-916.4" font-family="Arial" font-size="14.00" fill="#666666">[timestamp with time zone]</text>
<polygon fill="none" stroke="black" points="2843.69,-873.4 2843.69,-904.2 3202.59,-904.2 3202.59,-873.4 2843.69,-873.4"/>
<text text-anchor="start" x="2850.69" y="-885.6" font-family="Arial" font-size="14.00">created_at </text>
<text text-anchor="start" x="2920.73" y="-885.6" font-family="Arial" font-size="14.00" fill="#666666">[timestamp with time zone]</text>
<polygon fill="none" stroke="black" points="2843.69,-842.6 2843.69,-873.4 3202.59,-873.4 3202.59,-842.6 2843.69,-842.6"/>
<text text-anchor="start" x="2850.69" y="-854.8" font-family="Arial" font-size="14.00">updated_at </text>
<text text-anchor="start" x="2924.64" y="-854.8" font-family="Arial" font-size="14.00" fill="#666666">[timestamp with time zone]</text>
</g>
<!-- public.channel_hierarchies_v2&#45;&gt;public.channels -->
<g id="edge7" class="edge">
<title>public.channel_hierarchies_v2:child_channel_id&#45;&gt;public.channels:id</title>
<path fill="none" stroke="black" d="M2832.55,-1102.3C2779.74,-1078.5 2820.95,-859.3 2843.69,-799.4 2854.49,-770.93 2878.07,-776.43 2888.98,-748 2904.45,-707.66 2933.18,-650.8 2889.98,-650.8"/>
<polygon fill="black" stroke="black" points="2832.57,-1102.3 2841.45,-1108.74 2837.79,-1103.39 2842.03,-1104.26 2842.03,-1104.26 2842.03,-1104.26 2837.79,-1103.39 2843.27,-1099.93 2832.57,-1102.3"/>
<text text-anchor="start" x="2849.69" y="-1114.4" font-family="Arial" font-size="10.00">FOREIGN KEY (child_channel_id) REFERENCES channels(id) ON DELETE CASCADE</text>
</g>
<!-- public.channel_hierarchies_v2&#45;&gt;public.channels -->
<g id="edge8" class="edge">
<title>public.channel_hierarchies_v2:parent_channel_id&#45;&gt;public.channels:id</title>
<path fill="none" stroke="black" d="M2833.07,-1040.35C2793.29,-1017.82 2825.75,-846.6 2843.69,-799.4 2854.5,-770.94 2878.07,-776.43 2888.98,-748 2904.45,-707.66 2933.18,-650.8 2889.98,-650.8"/>
<polygon fill="black" stroke="black" points="2832.67,-1040.25 2841.25,-1047.08 2837.84,-1041.56 2842.04,-1042.63 2842.04,-1042.63 2842.04,-1042.63 2837.84,-1041.56 2843.47,-1038.36 2832.67,-1040.25"/>
<text text-anchor="start" x="2849.69" y="-1052.8" font-family="Arial" font-size="10.00">FOREIGN KEY (parent_channel_id) REFERENCES channels(id) ON DELETE CASCADE</text>
</g>
<!-- public.message_references_v2 -->
<g id="node9" class="node">
<title>public.message_references_v2</title>
<polygon fill="#efefef" stroke="none" points="3306.69,-1042.8 3306.69,-1078.4 3665.58,-1078.4 3665.58,-1042.8 3306.69,-1042.8"/>
<polygon fill="none" stroke="black" points="3306.69,-1042.8 3306.69,-1078.4 3665.58,-1078.4 3665.58,-1042.8 3306.69,-1042.8"/>
<text text-anchor="start" x="3313.69" y="-1056.2" font-family="Arial Bold" font-size="18.00">public.message_references_v2</text>
<text text-anchor="start" x="3534.09" y="-1056.2" font-family="Arial" font-size="14.00">    </text>
<text text-anchor="start" x="3565.21" y="-1056.2" font-family="Arial" font-size="14.00" fill="#666666">[BASE TABLE]</text>
<polygon fill="none" stroke="black" points="3306.69,-1012 3306.69,-1042.8 3665.58,-1042.8 3665.58,-1012 3306.69,-1012"/>
<text text-anchor="start" x="3313.69" y="-1024.2" font-family="Arial" font-size="14.00">message_id </text>
<text text-anchor="start" x="3393.07" y="-1024.2" font-family="Arial" font-size="14.00" fill="#666666">[bigint]</text>
<polygon fill="none" stroke="black" points="3306.69,-981.2 3306.69,-1012 3665.58,-1012 3665.58,-981.2 3306.69,-981.2"/>
<text text-anchor="start" x="3313.69" y="-993.4" font-family="Arial" font-size="14.00">channel_id </text>
<text text-anchor="start" x="3385.3" y="-993.4" font-family="Arial" font-size="14.00" fill="#666666">[bigint]</text>
<polygon fill="none" stroke="black" points="3306.69,-950.4 3306.69,-981.2 3665.58,-981.2 3665.58,-950.4 3306.69,-950.4"/>
<text text-anchor="start" x="3313.69" y="-962.6" font-family="Arial" font-size="14.00">reply_to_message_id </text>
<text text-anchor="start" x="3450.66" y="-962.6" font-family="Arial" font-size="14.00" fill="#666666">[bigint]</text>
<polygon fill="none" stroke="black" points="3306.69,-919.6 3306.69,-950.4 3665.58,-950.4 3665.58,-919.6 3306.69,-919.6"/>
<text text-anchor="start" x="3313.69" y="-931.8" font-family="Arial" font-size="14.00">created_at </text>
<text text-anchor="start" x="3383.74" y="-931.8" font-family="Arial" font-size="14.00" fill="#666666">[timestamp with time zone]</text>
</g>
<!-- public.message_references_v2&#45;&gt;public.channels -->
<g id="edge9" class="edge">
<title>public.message_references_v2:channel_id&#45;&gt;public.channels:id</title>
<path fill="none" stroke="black" d="M3295.72,-996.03C3216.57,-986.3 3317.31,-853.86 3255.14,-784 3140.29,-654.95 3062.73,-650.8 2889.98,-650.8"/>
<polygon fill="black" stroke="black" points="3295.37,-996.01 3305.1,-1001.07 3300.7,-996.32 3305.02,-996.56 3305.02,-996.56 3305.02,-996.56 3300.7,-996.32 3305.61,-992.09 3295.37,-996.01"/>
<text text-anchor="start" x="2933.58" y="-1006.6" font-family="Arial" font-size="10.00">FOREIGN KEY (channel_id) REFERENCES channels(id) ON DELETE CASCADE</text>
</g>
<!-- public.channel_pins_v2 -->
<g id="node10" class="node">
<title>public.channel_pins_v2</title>
<polygon fill="#efefef" stroke="none" points="3770.16,-1089 3770.16,-1124.6 4080.11,-1124.6 4080.11,-1089 3770.16,-1089"/>
<polygon fill="none" stroke="black" points="3770.16,-1089 3770.16,-1124.6 4080.11,-1124.6 4080.11,-1089 3770.16,-1089"/>
<text text-anchor="start" x="3777.16" y="-1102.4" font-family="Arial Bold" font-size="18.00">public.channel_pins_v2</text>
<text text-anchor="start" x="3948.62" y="-1102.4" font-family="Arial" font-size="14.00">    </text>
<text text-anchor="start" x="3979.74" y="-1102.4" font-family="Arial" font-size="14.00" fill="#666666">[BASE TABLE]</text>
<polygon fill="none" stroke="black" points="3770.16,-1058.2 3770.16,-1089 4080.11,-1089 4080.11,-1058.2 3770.16,-1058.2"/>
<text text-anchor="start" x="3777.16" y="-1070.4" font-family="Arial" font-size="14.00">channel_id </text>
<text text-anchor="start" x="3848.77" y="-1070.4" font-family="Arial" font-size="14.00" fill="#666666">[bigint]</text>
<polygon fill="none" stroke="black" points="3770.16,-1027.4 3770.16,-1058.2 4080.11,-1058.2 4080.11,-1027.4 3770.16,-1027.4"/>
<text text-anchor="start" x="3777.16" y="-1039.6" font-family="Arial" font-size="14.00">message_id </text>
<text text-anchor="start" x="3856.54" y="-1039.6" font-family="Arial" font-size="14.00" fill="#666666">[bigint]</text>
<polygon fill="none" stroke="black" points="3770.16,-996.6 3770.16,-1027.4 4080.11,-1027.4 4080.11,-996.6 3770.16,-996.6"/>
<text text-anchor="start" x="3777.16" y="-1008.8" font-family="Arial" font-size="14.00">pinned_at </text>
<text text-anchor="start" x="3842.55" y="-1008.8" font-family="Arial" font-size="14.00" fill="#666666">[timestamp with time zone]</text>
<polygon fill="none" stroke="black" points="3770.16,-965.8 3770.16,-996.6 4080.11,-996.6 4080.11,-965.8 3770.16,-965.8"/>
<text text-anchor="start" x="3777.16" y="-978" font-family="Arial" font-size="14.00">pinned_by </text>
<text text-anchor="start" x="3845.66" y="-978" font-family="Arial" font-size="14.00" fill="#666666">[bigint]</text>
<polygon fill="none" stroke="black" points="3770.16,-935 3770.16,-965.8 4080.11,-965.8 4080.11,-935 3770.16,-935"/>
<text text-anchor="start" x="3777.16" y="-947.2" font-family="Arial" font-size="14.00">unpinned_at </text>
<text text-anchor="start" x="3858.12" y="-947.2" font-family="Arial" font-size="14.00" fill="#666666">[timestamp with time zone]</text>
<polygon fill="none" stroke="black" points="3770.16,-904.2 3770.16,-935 4080.11,-935 4080.11,-904.2 3770.16,-904.2"/>
<text text-anchor="start" x="3777.16" y="-916.4" font-family="Arial" font-size="14.00">unpinned_by </text>
<text text-anchor="start" x="3861.23" y="-916.4" font-family="Arial" font-size="14.00" fill="#666666">[bigint]</text>
<polygon fill="none" stroke="black" points="3770.16,-873.4 3770.16,-904.2 4080.11,-904.2 4080.11,-873.4 3770.16,-873.4"/>
<text text-anchor="start" x="3777.16" y="-885.6" font-family="Arial" font-size="14.00">updated_at </text>
<text text-anchor="start" x="3851.12" y="-885.6" font-family="Arial" font-size="14.00" fill="#666666">[timestamp with time zone]</text>
</g>
<!-- public.channel_pins_v2&#45;&gt;public.channels -->
<g id="edge10" class="edge">
<title>public.channel_pins_v2:channel_id&#45;&gt;public.channels:id</title>
<path fill="none" stroke="black" d="M3759.23,-1071.33C3710.36,-1046.62 3762.05,-827.26 3718.14,-784 3585.35,-653.18 3076.38,-650.8 2889.98,-650.8"/>
<polygon fill="black" stroke="black" points="3759.08,-1071.3 3767.83,-1077.91 3764.28,-1072.49 3768.51,-1073.45 3768.51,-1073.45 3768.51,-1073.45 3764.28,-1072.49 3769.83,-1069.14 3759.08,-1071.3"/>
<text text-anchor="start" x="3491.82" y="-1057.6" font-family="Arial" font-size="10.00">FOREIGN KEY (channel_id) REFERENCES channels(id) ON DELETE CASCADE</text>
</g>
<!-- public.message_reactions_v2 -->
<g id="node11" class="node">
<title>public.message_reactions_v2</title>
<polygon fill="#efefef" stroke="none" points="4184.17,-1058.2 4184.17,-1093.8 4534.1,-1093.8 4534.1,-1058.2 4184.17,-1058.2"/>
<polygon fill="none" stroke="black" points="4184.17,-1058.2 4184.17,-1093.8 4534.1,-1093.8 4534.1,-1058.2 4184.17,-1058.2"/>
<text text-anchor="start" x="4191.17" y="-1071.6" font-family="Arial Bold" font-size="18.00">public.message_reactions_v2</text>
<text text-anchor="start" x="4402.61" y="-1071.6" font-family="Arial" font-size="14.00">    </text>
<text text-anchor="start" x="4433.73" y="-1071.6" font-family="Arial" font-size="14.00" fill="#666666">[BASE TABLE]</text>
<polygon fill="none" stroke="black" points="4184.17,-1027.4 4184.17,-1058.2 4534.1,-1058.2 4534.1,-1027.4 4184.17,-1027.4"/>
<text text-anchor="start" x="4191.17" y="-1039.6" font-family="Arial" font-size="14.00">message_id </text>
<text text-anchor="start" x="4270.55" y="-1039.6" font-family="Arial" font-size="14.00" fill="#666666">[bigint]</text>
<polygon fill="none" stroke="black" points="4184.17,-996.6 4184.17,-1027.4 4534.1,-1027.4 4534.1,-996.6 4184.17,-996.6"/>
<text text-anchor="start" x="4191.17" y="-1008.8" font-family="Arial" font-size="14.00">channel_id </text>
<text text-anchor="start" x="4262.79" y="-1008.8" font-family="Arial" font-size="14.00" fill="#666666">[bigint]</text>
<polygon fill="none" stroke="black" points="4184.17,-965.8 4184.17,-996.6 4534.1,-996.6 4534.1,-965.8 4184.17,-965.8"/>
<text text-anchor="start" x="4191.17" y="-978" font-family="Arial" font-size="14.00">emoji </text>
<text text-anchor="start" x="4228.52" y="-978" font-family="Arial" font-size="14.00" fill="#666666">[text]</text>
<polygon fill="none" stroke="black" points="4184.17,-935 4184.17,-965.8 4534.1,-965.8 4534.1,-935 4184.17,-935"/>
<text text-anchor="start" x="4191.17" y="-947.2" font-family="Arial" font-size="14.00">user_id </text>
<text text-anchor="start" x="4240.98" y="-947.2" font-family="Arial" font-size="14.00" fill="#666666">[bigint]</text>
<polygon fill="none" stroke="black" points="4184.17,-904.2 4184.17,-935 4534.1,-935 4534.1,-904.2 4184.17,-904.2"/>
<text text-anchor="start" x="4191.17" y="-916.4" font-family="Arial" font-size="14.00">created_at </text>
<text text-anchor="start" x="4261.22" y="-916.4" font-family="Arial" font-size="14.00" fill="#666666">[timestamp with time zone]</text>
</g>
<!-- public.message_reactions_v2&#45;&gt;public.channels -->
<g id="edge11" class="edge">
<title>public.message_reactions_v2:channel_id&#45;&gt;public.channels:id</title>
<path fill="none" stroke="black" d="M4172.81,-1011.39C4088.47,-1000.64 4206.81,-850.65 4132.14,-784 4028.58,-691.57 3028.79,-650.8 2889.98,-650.8"/>
<polygon fill="black" stroke="black" points="4172.86,-1011.39 4182.57,-1016.47 4178.18,-1011.71 4182.5,-1011.96 4182.5,-1011.96 4182.5,-1011.96 4178.18,-1011.71 4183.1,-1007.49 4172.86,-1011.39"/>
<text text-anchor="start" x="4190.17" y="-1022" font-family="Arial" font-size="10.00">FOREIGN KEY (channel_id) REFERENCES channels(id) ON DELETE CASCADE</text>
</g>
<!-- public.message_attachments_v2 -->
<g id="node12" class="node">
<title>public.message_attachments_v2</title>
<polygon fill="#efefef" stroke="none" points="4638.67,-1135.2 4638.67,-1170.8 5009.6,-1170.8 5009.6,-1135.2 4638.67,-1135.2"/>
<polygon fill="none" stroke="black" points="4638.67,-1135.2 4638.67,-1170.8 5009.6,-1170.8 5009.6,-1135.2 4638.67,-1135.2"/>
<text text-anchor="start" x="4645.67" y="-1148.6" font-family="Arial Bold" font-size="18.00">public.message_attachments_v2</text>
<text text-anchor="start" x="4878.11" y="-1148.6" font-family="Arial" font-size="14.00">    </text>
<text text-anchor="start" x="4909.23" y="-1148.6" font-family="Arial" font-size="14.00" fill="#666666">[BASE TABLE]</text>
<polygon fill="none" stroke="black" points="4638.67,-1104.4 4638.67,-1135.2 5009.6,-1135.2 5009.6,-1104.4 4638.67,-1104.4"/>
<text text-anchor="start" x="4645.67" y="-1116.6" font-family="Arial" font-size="14.00">message_id </text>
<text text-anchor="start" x="4725.05" y="-1116.6" font-family="Arial" font-size="14.00" fill="#666666">[bigint]</text>
<polygon fill="none" stroke="black" points="4638.67,-1073.6 4638.67,-1104.4 5009.6,-1104.4 5009.6,-1073.6 4638.67,-1073.6"/>
<text text-anchor="start" x="4645.67" y="-1085.8" font-family="Arial" font-size="14.00">channel_id </text>
<text text-anchor="start" x="4717.29" y="-1085.8" font-family="Arial" font-size="14.00" fill="#666666">[bigint]</text>
<polygon fill="none" stroke="black" points="4638.67,-1042.8 4638.67,-1073.6 5009.6,-1073.6 5009.6,-1042.8 4638.67,-1042.8"/>
<text text-anchor="start" x="4645.67" y="-1055" font-family="Arial" font-size="14.00">object_key </text>
<text text-anchor="start" x="4716.49" y="-1055" font-family="Arial" font-size="14.00" fill="#666666">[text]</text>
<polygon fill="none" stroke="black" points="4638.67,-1012 4638.67,-1042.8 5009.6,-1042.8 5009.6,-1012 4638.67,-1012"/>
<text text-anchor="start" x="4645.67" y="-1024.2" font-family="Arial" font-size="14.00">mime_type </text>
<text text-anchor="start" x="4718.03" y="-1024.2" font-family="Arial" font-size="14.00" fill="#666666">[text]</text>
<polygon fill="none" stroke="black" points="4638.67,-981.2 4638.67,-1012 5009.6,-1012 5009.6,-981.2 4638.67,-981.2"/>
<text text-anchor="start" x="4645.67" y="-993.4" font-family="Arial" font-size="14.00">size_bytes </text>
<text text-anchor="start" x="4715.71" y="-993.4" font-family="Arial" font-size="14.00" fill="#666666">[bigint]</text>
<polygon fill="none" stroke="black" points="4638.67,-950.4 4638.67,-981.2 5009.6,-981.2 5009.6,-950.4 4638.67,-950.4"/>
<text text-anchor="start" x="4645.67" y="-962.6" font-family="Arial" font-size="14.00">sha256 </text>
<text text-anchor="start" x="4695.49" y="-962.6" font-family="Arial" font-size="14.00" fill="#666666">[text]</text>
<polygon fill="none" stroke="black" points="4638.67,-919.6 4638.67,-950.4 5009.6,-950.4 5009.6,-919.6 4638.67,-919.6"/>
<text text-anchor="start" x="4645.67" y="-931.8" font-family="Arial" font-size="14.00">uploaded_by </text>
<text text-anchor="start" x="4729.75" y="-931.8" font-family="Arial" font-size="14.00" fill="#666666">[bigint]</text>
<polygon fill="none" stroke="black" points="4638.67,-888.8 4638.67,-919.6 5009.6,-919.6 5009.6,-888.8 4638.67,-888.8"/>
<text text-anchor="start" x="4645.67" y="-901" font-family="Arial" font-size="14.00">created_at </text>
<text text-anchor="start" x="4715.72" y="-901" font-family="Arial" font-size="14.00" fill="#666666">[timestamp with time zone]</text>
<polygon fill="none" stroke="black" points="4638.67,-858 4638.67,-888.8 5009.6,-888.8 5009.6,-858 4638.67,-858"/>
<text text-anchor="start" x="4645.67" y="-870.2" font-family="Arial" font-size="14.00">deleted_at </text>
<text text-anchor="start" x="4714.96" y="-870.2" font-family="Arial" font-size="14.00" fill="#666666">[timestamp with time zone]</text>
<polygon fill="none" stroke="black" points="4638.67,-827.2 4638.67,-858 5009.6,-858 5009.6,-827.2 4638.67,-827.2"/>
<text text-anchor="start" x="4645.67" y="-839.4" font-family="Arial" font-size="14.00">retention_until </text>
<text text-anchor="start" x="4737.51" y="-839.4" font-family="Arial" font-size="14.00" fill="#666666">[timestamp with time zone]</text>
</g>
<!-- public.message_attachments_v2&#45;&gt;public.channels -->
<g id="edge12" class="edge">
<title>public.message_attachments_v2:channel_id&#45;&gt;public.channels:id</title>
<path fill="none" stroke="black" d="M4627.58,-1086.76C4576.01,-1061.35 4634.08,-827.86 4586.14,-784 4446.65,-656.41 3079.02,-650.8 2889.98,-650.8"/>
<polygon fill="black" stroke="black" points="4627.59,-1086.76 4636.37,-1093.32 4632.79,-1087.92 4637.02,-1088.85 4637.02,-1088.85 4637.02,-1088.85 4632.79,-1087.92 4638.32,-1084.53 4627.59,-1086.76"/>
<text text-anchor="start" x="4265.56" y="-1099" font-family="Arial" font-size="10.00">FOREIGN KEY (channel_id) REFERENCES channels(id) ON DELETE CASCADE</text>
</g>
</g>
</svg>
