<?xml version="1.0" encoding="UTF-8" standalone="no"?>
<!DOCTYPE svg PUBLIC "-//W3C//DTD SVG 1.1//EN"
 "http://www.w3.org/Graphics/SVG/1.1/DTD/svg11.dtd">
<!-- Generated by graphviz version 12.1.2 (20240928.0832)
 -->
<!-- Title: public.audit_logs Pages: 1 -->
<svg width="974pt" height="848pt"
 viewBox="0.00 0.00 973.92 848.40" xmlns="http://www.w3.org/2000/svg" xmlns:xlink="http://www.w3.org/1999/xlink">
<g id="graph0" class="graph" transform="scale(1 1) rotate(0) translate(4 844.4)">
<title>public.audit_logs</title>
<polygon fill="white" stroke="none" points="-4,4 -4,-844.4 969.92,-844.4 969.92,4 -4,4"/>
<!-- public.audit_logs -->
<g id="node1" class="node">
<title>public.audit_logs</title>
<polygon fill="#efefef" stroke="none" points="351.76,-758.6 351.76,-794.2 614.74,-794.2 614.74,-758.6 351.76,-758.6"/>
<polygon fill="none" stroke="black" points="351.76,-758.6 351.76,-794.2 614.74,-794.2 614.74,-758.6 351.76,-758.6"/>
<text text-anchor="start" x="358.76" y="-772" font-family="Arial Bold" font-size="18.00">public.audit_logs</text>
<text text-anchor="start" x="483.25" y="-772" font-family="Arial" font-size="14.00">    </text>
<text text-anchor="start" x="514.36" y="-772" font-family="Arial" font-size="14.00" fill="#666666">[BASE TABLE]</text>
<polygon fill="none" stroke="black" points="351.76,-727.8 351.76,-758.6 614.74,-758.6 614.74,-727.8 351.76,-727.8"/>
<text text-anchor="start" x="358.76" y="-740" font-family="Arial" font-size="14.00">id </text>
<text text-anchor="start" x="373.54" y="-740" font-family="Arial" font-size="14.00" fill="#666666">[bigint]</text>
<polygon fill="none" stroke="black" points="351.76,-697 351.76,-727.8 614.74,-727.8 614.74,-697 351.76,-697"/>
<text text-anchor="start" x="358.76" y="-709.2" font-family="Arial" font-size="14.00">guild_id </text>
<text text-anchor="start" x="410.91" y="-709.2" font-family="Arial" font-size="14.00" fill="#666666">[bigint]</text>
<polygon fill="none" stroke="black" points="351.76,-666.2 351.76,-697 614.74,-697 614.74,-666.2 351.76,-666.2"/>
<text text-anchor="start" x="358.76" y="-678.4" font-family="Arial" font-size="14.00">actor_id </text>
<text text-anchor="start" x="412.45" y="-678.4" font-family="Arial" font-size="14.00" fill="#666666">[bigint]</text>
<polygon fill="none" stroke="black" points="351.76,-635.4 351.76,-666.2 614.74,-666.2 614.74,-635.4 351.76,-635.4"/>
<text text-anchor="start" x="358.76" y="-647.6" font-family="Arial" font-size="14.00">action </text>
<text text-anchor="start" x="400.01" y="-647.6" font-family="Arial" font-size="14.00" fill="#666666">[audit_action]</text>
<polygon fill="none" stroke="black" points="351.76,-604.6 351.76,-635.4 614.74,-635.4 614.74,-604.6 351.76,-604.6"/>
<text text-anchor="start" x="358.76" y="-616.8" font-family="Arial" font-size="14.00">target_type </text>
<text text-anchor="start" x="432.7" y="-616.8" font-family="Arial" font-size="14.00" fill="#666666">[text]</text>
<polygon fill="none" stroke="black" points="351.76,-573.8 351.76,-604.6 614.74,-604.6 614.74,-573.8 351.76,-573.8"/>
<text text-anchor="start" x="358.76" y="-586" font-family="Arial" font-size="14.00">target_id </text>
<text text-anchor="start" x="417.13" y="-586" font-family="Arial" font-size="14.00" fill="#666666">[bigint]</text>
<polygon fill="none" stroke="black" points="351.76,-543 351.76,-573.8 614.74,-573.8 614.74,-543 351.76,-543"/>
<text text-anchor="start" x="358.76" y="-555.2" font-family="Arial" font-size="14.00">metadata </text>
<text text-anchor="start" x="421.02" y="-555.2" font-family="Arial" font-size="14.00" fill="#666666">[jsonb]</text>
<polygon fill="none" stroke="black" points="351.76,-512.2 351.76,-543 614.74,-543 614.74,-512.2 351.76,-512.2"/>
<text text-anchor="start" x="358.76" y="-524.4" font-family="Arial" font-size="14.00">created_at </text>
<text text-anchor="start" x="428.81" y="-524.4" font-family="Arial" font-size="14.00" fill="#666666">[timestamp with time zone]</text>
<polygon fill="none" stroke="black" stroke-width="3" points="350.26,-510.7 350.26,-795.7 616.24,-795.7 616.24,-510.7 350.26,-510.7"/>
</g>
<!-- public.guilds -->
<g id="node2" class="node">
<title>public.guilds</title>
<polygon fill="#efefef" stroke="none" points="177.41,-289.6 177.41,-325.2 431.09,-325.2 431.09,-289.6 177.41,-289.6"/>
<polygon fill="none" stroke="black" points="177.41,-289.6 177.41,-325.2 431.09,-325.2 431.09,-289.6 177.41,-289.6"/>
<text text-anchor="start" x="195.25" y="-303" font-family="Arial Bold" font-size="18.00">public.guilds</text>
<text text-anchor="start" x="288.75" y="-303" font-family="Arial" font-size="14.00">    </text>
<text text-anchor="start" x="319.87" y="-303" font-family="Arial" font-size="14.00" fill="#666666">[BASE TABLE]</text>
<polygon fill="none" stroke="black" points="177.41,-258.8 177.41,-289.6 431.09,-289.6 431.09,-258.8 177.41,-258.8"/>
<text text-anchor="start" x="184.41" y="-271" font-family="Arial" font-size="14.00">id </text>
<text text-anchor="start" x="199.19" y="-271" font-family="Arial" font-size="14.00" fill="#666666">[bigint]</text>
<polygon fill="none" stroke="black" points="177.41,-228 177.41,-258.8 431.09,-258.8 431.09,-228 177.41,-228"/>
<text text-anchor="start" x="184.41" y="-240.2" font-family="Arial" font-size="14.00">name </text>
<text text-anchor="start" x="223.32" y="-240.2" font-family="Arial" font-size="14.00" fill="#666666">[text]</text>
<polygon fill="none" stroke="black" points="177.41,-197.2 177.41,-228 431.09,-228 431.09,-197.2 177.41,-197.2"/>
<text text-anchor="start" x="184.41" y="-209.4" font-family="Arial" font-size="14.00">owner_id </text>
<text text-anchor="start" x="245.11" y="-209.4" font-family="Arial" font-size="14.00" fill="#666666">[bigint]</text>
<polygon fill="none" stroke="black" points="177.41,-166.4 177.41,-197.2 431.09,-197.2 431.09,-166.4 177.41,-166.4"/>
<text text-anchor="start" x="184.41" y="-178.6" font-family="Arial" font-size="14.00">icon_key </text>
<text text-anchor="start" x="243.55" y="-178.6" font-family="Arial" font-size="14.00" fill="#666666">[text]</text>
<polygon fill="none" stroke="black" points="177.41,-135.6 177.41,-166.4 431.09,-166.4 431.09,-135.6 177.41,-135.6"/>
<text text-anchor="start" x="184.41" y="-147.8" font-family="Arial" font-size="14.00">created_at </text>
<text text-anchor="start" x="254.45" y="-147.8" font-family="Arial" font-size="14.00" fill="#666666">[timestamp with time zone]</text>
<polygon fill="none" stroke="black" points="177.41,-104.8 177.41,-135.6 431.09,-135.6 431.09,-104.8 177.41,-104.8"/>
<text text-anchor="start" x="184.41" y="-117" font-family="Arial" font-size="14.00">updated_at </text>
<text text-anchor="start" x="258.36" y="-117" font-family="Arial" font-size="14.00" fill="#666666">[timestamp with time zone]</text>
</g>
<!-- public.audit_logs&#45;&gt;public.guilds -->
<g id="edge1" class="edge">
<title>public.audit_logs:guild_id&#45;&gt;public.guilds:id</title>
<path fill="none" stroke="black" d="M340.45,-711.93C246.1,-702.93 316.12,-565.7 351.76,-466 370.57,-413.36 412.1,-420.98 431.09,-368.4 445.31,-329.02 473.96,-274.2 432.09,-274.2"/>
<polygon fill="black" stroke="black" points="340.43,-711.93 350.22,-716.88 345.76,-712.17 350.09,-712.37 350.09,-712.37 350.09,-712.37 345.76,-712.17 350.63,-707.89 340.43,-711.93"/>
<text text-anchor="start" x="7" y="-722.4" font-family="Arial" font-size="10.00">FOREIGN KEY (guild_id) REFERENCES guilds(id) ON DELETE SET NULL</text>
</g>
<!-- public.users -->
<g id="node3" class="node">
<title>public.users</title>
<polygon fill="#efefef" stroke="none" points="535.41,-351.2 535.41,-386.8 789.09,-386.8 789.09,-351.2 535.41,-351.2"/>
<polygon fill="none" stroke="black" points="535.41,-351.2 535.41,-386.8 789.09,-386.8 789.09,-351.2 535.41,-351.2"/>
<text text-anchor="start" x="556.76" y="-364.6" font-family="Arial Bold" font-size="18.00">public.users</text>
<text text-anchor="start" x="643.24" y="-364.6" font-family="Arial" font-size="14.00">    </text>
<text text-anchor="start" x="674.36" y="-364.6" font-family="Arial" font-size="14.00" fill="#666666">[BASE TABLE]</text>
<polygon fill="none" stroke="black" points="535.41,-320.4 535.41,-351.2 789.09,-351.2 789.09,-320.4 535.41,-320.4"/>
<text text-anchor="start" x="542.41" y="-332.6" font-family="Arial" font-size="14.00">id </text>
<text text-anchor="start" x="557.19" y="-332.6" font-family="Arial" font-size="14.00" fill="#666666">[bigint]</text>
<polygon fill="none" stroke="black" points="535.41,-289.6 535.41,-320.4 789.09,-320.4 789.09,-289.6 535.41,-289.6"/>
<text text-anchor="start" x="542.41" y="-301.8" font-family="Arial" font-size="14.00">email </text>
<text text-anchor="start" x="579.75" y="-301.8" font-family="Arial" font-size="14.00" fill="#666666">[text]</text>
<polygon fill="none" stroke="black" points="535.41,-258.8 535.41,-289.6 789.09,-289.6 789.09,-258.8 535.41,-258.8"/>
<text text-anchor="start" x="542.41" y="-271" font-family="Arial" font-size="14.00">email_verified </text>
<text text-anchor="start" x="632.67" y="-271" font-family="Arial" font-size="14.00" fill="#666666">[boolean]</text>
<polygon fill="none" stroke="black" points="535.41,-228 535.41,-258.8 789.09,-258.8 789.09,-228 535.41,-228"/>
<text text-anchor="start" x="542.41" y="-240.2" font-family="Arial" font-size="14.00">password_hash </text>
<text text-anchor="start" x="644.36" y="-240.2" font-family="Arial" font-size="14.00" fill="#666666">[text]</text>
<polygon fill="none" stroke="black" points="535.41,-197.2 535.41,-228 789.09,-228 789.09,-197.2 535.41,-197.2"/>
<text text-anchor="start" x="542.41" y="-209.4" font-family="Arial" font-size="14.00">display_name </text>
<text text-anchor="start" x="632.68" y="-209.4" font-family="Arial" font-size="14.00" fill="#666666">[text]</text>
<polygon fill="none" stroke="black" points="535.41,-166.4 535.41,-197.2 789.09,-197.2 789.09,-166.4 535.41,-166.4"/>
<text text-anchor="start" x="542.41" y="-178.6" font-family="Arial" font-size="14.00">avatar_key </text>
<text text-anchor="start" x="614.78" y="-178.6" font-family="Arial" font-size="14.00" fill="#666666">[text]</text>
<polygon fill="none" stroke="black" points="535.41,-135.6 535.41,-166.4 789.09,-166.4 789.09,-135.6 535.41,-135.6"/>
<text text-anchor="start" x="542.41" y="-147.8" font-family="Arial" font-size="14.00">status_text </text>
<text text-anchor="start" x="614" y="-147.8" font-family="Arial" font-size="14.00" fill="#666666">[text]</text>
<polygon fill="none" stroke="black" points="535.41,-104.8 535.41,-135.6 789.09,-135.6 789.09,-104.8 535.41,-104.8"/>
<text text-anchor="start" x="542.41" y="-117" font-family="Arial" font-size="14.00">theme </text>
<text text-anchor="start" x="585.21" y="-117" font-family="Arial" font-size="14.00" fill="#666666">[text]</text>
<polygon fill="none" stroke="black" points="535.41,-74 535.41,-104.8 789.09,-104.8 789.09,-74 535.41,-74"/>
<text text-anchor="start" x="542.41" y="-86.2" font-family="Arial" font-size="14.00">created_at </text>
<text text-anchor="start" x="612.45" y="-86.2" font-family="Arial" font-size="14.00" fill="#666666">[timestamp with time zone]</text>
<polygon fill="none" stroke="black" points="535.41,-43.2 535.41,-74 789.09,-74 789.09,-43.2 535.41,-43.2"/>
<text text-anchor="start" x="542.41" y="-55.4" font-family="Arial" font-size="14.00">updated_at </text>
<text text-anchor="start" x="616.36" y="-55.4" font-family="Arial" font-size="14.00" fill="#666666">[timestamp with time zone]</text>
</g>
<!-- public.audit_logs&#45;&gt;public.users -->
<g id="edge2" class="edge">
<title>public.audit_logs:actor_id&#45;&gt;public.users:id</title>
<path fill="none" stroke="black" d="M626.08,-681.02C708.14,-671.38 664.84,-543.37 614.74,-466 593.69,-433.5 556.55,-462.44 535.41,-430 512.54,-394.93 492.54,-335.8 534.41,-335.8"/>
<polygon fill="black" stroke="black" points="626.05,-681.02 615.82,-677.09 620.73,-681.32 616.4,-681.56 616.4,-681.56 616.4,-681.56 620.73,-681.32 616.32,-686.07 626.05,-681.02"/>
<text text-anchor="start" x="622.74" y="-691.6" font-family="Arial" font-size="10.00">FOREIGN KEY (actor_id) REFERENCES users(id) ON DELETE SET NULL</text>
</g>
</g>
</svg>
