<?xml version="1.0" encoding="UTF-8" standalone="no"?>
<!DOCTYPE svg PUBLIC "-//W3C//DTD SVG 1.1//EN"
 "http://www.w3.org/Graphics/SVG/1.1/DTD/svg11.dtd">
<!-- Generated by graphviz version 12.1.2 (20240928.0832)
 -->
<!-- Title: public.invite_uses Pages: 1 -->
<svg width="988pt" height="694pt"
 viewBox="0.00 0.00 987.68 694.40" xmlns="http://www.w3.org/2000/svg" xmlns:xlink="http://www.w3.org/1999/xlink">
<g id="graph0" class="graph" transform="scale(1 1) rotate(0) translate(4 690.4)">
<title>public.invite_uses</title>
<polygon fill="white" stroke="none" points="-4,4 -4,-690.4 983.68,-690.4 983.68,4 -4,4"/>
<!-- public.invite_uses -->
<g id="node1" class="node">
<title>public.invite_uses</title>
<polygon fill="#efefef" stroke="none" points="356.74,-604.6 356.74,-640.2 625.71,-640.2 625.71,-604.6 356.74,-604.6"/>
<polygon fill="none" stroke="black" points="356.74,-604.6 356.74,-640.2 625.71,-640.2 625.71,-604.6 356.74,-604.6"/>
<text text-anchor="start" x="363.74" y="-618" font-family="Arial Bold" font-size="18.00">public.invite_uses</text>
<text text-anchor="start" x="494.23" y="-618" font-family="Arial" font-size="14.00">    </text>
<text text-anchor="start" x="525.34" y="-618" font-family="Arial" font-size="14.00" fill="#666666">[BASE TABLE]</text>
<polygon fill="none" stroke="black" points="356.74,-573.8 356.74,-604.6 625.71,-604.6 625.71,-573.8 356.74,-573.8"/>
<text text-anchor="start" x="363.74" y="-586" font-family="Arial" font-size="14.00">invite_id </text>
<text text-anchor="start" x="419" y="-586" font-family="Arial" font-size="14.00" fill="#666666">[bigint]</text>
<polygon fill="none" stroke="black" points="356.74,-543 356.74,-573.8 625.71,-573.8 625.71,-543 356.74,-543"/>
<text text-anchor="start" x="363.74" y="-555.2" font-family="Arial" font-size="14.00">used_by </text>
<text text-anchor="start" x="420.56" y="-555.2" font-family="Arial" font-size="14.00" fill="#666666">[bigint]</text>
<polygon fill="none" stroke="black" points="356.74,-512.2 356.74,-543 625.71,-543 625.71,-512.2 356.74,-512.2"/>
<text text-anchor="start" x="363.74" y="-524.4" font-family="Arial" font-size="14.00">used_at </text>
<text text-anchor="start" x="417.45" y="-524.4" font-family="Arial" font-size="14.00" fill="#666666">[timestamp with time zone]</text>
<polygon fill="none" stroke="black" stroke-width="3" points="355.24,-510.7 355.24,-641.7 627.21,-641.7 627.21,-510.7 355.24,-510.7"/>
</g>
<!-- public.invites -->
<g id="node2" class="node">
<title>public.invites</title>
<polygon fill="#efefef" stroke="none" points="188.34,-335.8 188.34,-371.4 438.11,-371.4 438.11,-335.8 188.34,-335.8"/>
<polygon fill="none" stroke="black" points="188.34,-335.8 188.34,-371.4 438.11,-371.4 438.11,-335.8 188.34,-335.8"/>
<text text-anchor="start" x="202.24" y="-349.2" font-family="Arial Bold" font-size="18.00">public.invites</text>
<text text-anchor="start" x="299.73" y="-349.2" font-family="Arial" font-size="14.00">    </text>
<text text-anchor="start" x="330.85" y="-349.2" font-family="Arial" font-size="14.00" fill="#666666">[BASE TABLE]</text>
<polygon fill="none" stroke="black" points="188.34,-305 188.34,-335.8 438.11,-335.8 438.11,-305 188.34,-305"/>
<text text-anchor="start" x="195.34" y="-317.2" font-family="Arial" font-size="14.00">id </text>
<text text-anchor="start" x="210.13" y="-317.2" font-family="Arial" font-size="14.00" fill="#666666">[bigint]</text>
<polygon fill="none" stroke="black" points="188.34,-274.2 188.34,-305 438.11,-305 438.11,-274.2 188.34,-274.2"/>
<text text-anchor="start" x="195.34" y="-286.4" font-family="Arial" font-size="14.00">guild_id </text>
<text text-anchor="start" x="247.49" y="-286.4" font-family="Arial" font-size="14.00" fill="#666666">[bigint]</text>
<polygon fill="none" stroke="black" points="188.34,-243.4 188.34,-274.2 438.11,-274.2 438.11,-243.4 188.34,-243.4"/>
<text text-anchor="start" x="195.34" y="-255.6" font-family="Arial" font-size="14.00">created_by </text>
<text text-anchor="start" x="268.5" y="-255.6" font-family="Arial" font-size="14.00" fill="#666666">[bigint]</text>
<polygon fill="none" stroke="black" points="188.34,-212.6 188.34,-243.4 438.11,-243.4 438.11,-212.6 188.34,-212.6"/>
<text text-anchor="start" x="195.34" y="-224.8" font-family="Arial" font-size="14.00">code </text>
<text text-anchor="start" x="229.59" y="-224.8" font-family="Arial" font-size="14.00" fill="#666666">[text]</text>
<polygon fill="none" stroke="black" points="188.34,-181.8 188.34,-212.6 438.11,-212.6 438.11,-181.8 188.34,-181.8"/>
<text text-anchor="start" x="195.34" y="-194" font-family="Arial" font-size="14.00">expires_at </text>
<text text-anchor="start" x="263.83" y="-194" font-family="Arial" font-size="14.00" fill="#666666">[timestamp with time zone]</text>
<polygon fill="none" stroke="black" points="188.34,-151 188.34,-181.8 438.11,-181.8 438.11,-151 188.34,-151"/>
<text text-anchor="start" x="195.34" y="-163.2" font-family="Arial" font-size="14.00">max_uses </text>
<text text-anchor="start" x="263.04" y="-163.2" font-family="Arial" font-size="14.00" fill="#666666">[integer]</text>
<polygon fill="none" stroke="black" points="188.34,-120.2 188.34,-151 438.11,-151 438.11,-120.2 188.34,-120.2"/>
<text text-anchor="start" x="195.34" y="-132.4" font-family="Arial" font-size="14.00">uses </text>
<text text-anchor="start" x="228.81" y="-132.4" font-family="Arial" font-size="14.00" fill="#666666">[integer]</text>
<polygon fill="none" stroke="black" points="188.34,-89.4 188.34,-120.2 438.11,-120.2 438.11,-89.4 188.34,-89.4"/>
<text text-anchor="start" x="195.34" y="-101.6" font-family="Arial" font-size="14.00">is_disabled </text>
<text text-anchor="start" x="269.28" y="-101.6" font-family="Arial" font-size="14.00" fill="#666666">[boolean]</text>
<polygon fill="none" stroke="black" points="188.34,-58.6 188.34,-89.4 438.11,-89.4 438.11,-58.6 188.34,-58.6"/>
<text text-anchor="start" x="195.34" y="-70.8" font-family="Arial" font-size="14.00">created_at </text>
<text text-anchor="start" x="265.39" y="-70.8" font-family="Arial" font-size="14.00" fill="#666666">[timestamp with time zone]</text>
</g>
<!-- public.invite_uses&#45;&gt;public.invites -->
<g id="edge1" class="edge">
<title>public.invite_uses:invite_id&#45;&gt;public.invites:id</title>
<path fill="none" stroke="black" d="M345.41,-588.12C305.07,-578.74 331.99,-510.48 356.74,-466 377.54,-428.62 417.27,-451.95 438.11,-414.6 458.52,-378.04 480.98,-320.4 439.11,-320.4"/>
<polygon fill="black" stroke="black" points="345.46,-588.12 354.94,-593.64 350.77,-588.68 355.08,-589.13 355.08,-589.13 355.08,-589.13 350.77,-588.68 355.88,-584.69 345.46,-588.12"/>
<text text-anchor="start" x="7" y="-599.2" font-family="Arial" font-size="10.00">FOREIGN KEY (invite_id) REFERENCES invites(id) ON DELETE CASCADE</text>
</g>
<!-- public.users -->
<g id="node3" class="node">
<title>public.users</title>
<polygon fill="#efefef" stroke="none" points="542.39,-351.2 542.39,-386.8 796.07,-386.8 796.07,-351.2 542.39,-351.2"/>
<polygon fill="none" stroke="black" points="542.39,-351.2 542.39,-386.8 796.07,-386.8 796.07,-351.2 542.39,-351.2"/>
<text text-anchor="start" x="563.74" y="-364.6" font-family="Arial Bold" font-size="18.00">public.users</text>
<text text-anchor="start" x="650.23" y="-364.6" font-family="Arial" font-size="14.00">    </text>
<text text-anchor="start" x="681.34" y="-364.6" font-family="Arial" font-size="14.00" fill="#666666">[BASE TABLE]</text>
<polygon fill="none" stroke="black" points="542.39,-320.4 542.39,-351.2 796.07,-351.2 796.07,-320.4 542.39,-320.4"/>
<text text-anchor="start" x="549.39" y="-332.6" font-family="Arial" font-size="14.00">id </text>
<text text-anchor="start" x="564.17" y="-332.6" font-family="Arial" font-size="14.00" fill="#666666">[bigint]</text>
<polygon fill="none" stroke="black" points="542.39,-289.6 542.39,-320.4 796.07,-320.4 796.07,-289.6 542.39,-289.6"/>
<text text-anchor="start" x="549.39" y="-301.8" font-family="Arial" font-size="14.00">email </text>
<text text-anchor="start" x="586.73" y="-301.8" font-family="Arial" font-size="14.00" fill="#666666">[text]</text>
<polygon fill="none" stroke="black" points="542.39,-258.8 542.39,-289.6 796.07,-289.6 796.07,-258.8 542.39,-258.8"/>
<text text-anchor="start" x="549.39" y="-271" font-family="Arial" font-size="14.00">email_verified </text>
<text text-anchor="start" x="639.65" y="-271" font-family="Arial" font-size="14.00" fill="#666666">[boolean]</text>
<polygon fill="none" stroke="black" points="542.39,-228 542.39,-258.8 796.07,-258.8 796.07,-228 542.39,-228"/>
<text text-anchor="start" x="549.39" y="-240.2" font-family="Arial" font-size="14.00">password_hash </text>
<text text-anchor="start" x="651.34" y="-240.2" font-family="Arial" font-size="14.00" fill="#666666">[text]</text>
<polygon fill="none" stroke="black" points="542.39,-197.2 542.39,-228 796.07,-228 796.07,-197.2 542.39,-197.2"/>
<text text-anchor="start" x="549.39" y="-209.4" font-family="Arial" font-size="14.00">display_name </text>
<text text-anchor="start" x="639.66" y="-209.4" font-family="Arial" font-size="14.00" fill="#666666">[text]</text>
<polygon fill="none" stroke="black" points="542.39,-166.4 542.39,-197.2 796.07,-197.2 796.07,-166.4 542.39,-166.4"/>
<text text-anchor="start" x="549.39" y="-178.6" font-family="Arial" font-size="14.00">avatar_key </text>
<text text-anchor="start" x="621.76" y="-178.6" font-family="Arial" font-size="14.00" fill="#666666">[text]</text>
<polygon fill="none" stroke="black" points="542.39,-135.6 542.39,-166.4 796.07,-166.4 796.07,-135.6 542.39,-135.6"/>
<text text-anchor="start" x="549.39" y="-147.8" font-family="Arial" font-size="14.00">status_text </text>
<text text-anchor="start" x="620.98" y="-147.8" font-family="Arial" font-size="14.00" fill="#666666">[text]</text>
<polygon fill="none" stroke="black" points="542.39,-104.8 542.39,-135.6 796.07,-135.6 796.07,-104.8 542.39,-104.8"/>
<text text-anchor="start" x="549.39" y="-117" font-family="Arial" font-size="14.00">theme </text>
<text text-anchor="start" x="592.19" y="-117" font-family="Arial" font-size="14.00" fill="#666666">[text]</text>
<polygon fill="none" stroke="black" points="542.39,-74 542.39,-104.8 796.07,-104.8 796.07,-74 542.39,-74"/>
<text text-anchor="start" x="549.39" y="-86.2" font-family="Arial" font-size="14.00">created_at </text>
<text text-anchor="start" x="619.44" y="-86.2" font-family="Arial" font-size="14.00" fill="#666666">[timestamp with time zone]</text>
<polygon fill="none" stroke="black" points="542.39,-43.2 542.39,-74 796.07,-74 796.07,-43.2 542.39,-43.2"/>
<text text-anchor="start" x="549.39" y="-55.4" font-family="Arial" font-size="14.00">updated_at </text>
<text text-anchor="start" x="623.35" y="-55.4" font-family="Arial" font-size="14.00" fill="#666666">[timestamp with time zone]</text>
</g>
<!-- public.invite_uses&#45;&gt;public.users -->
<g id="edge2" class="edge">
<title>public.invite_uses:used_by&#45;&gt;public.users:id</title>
<path fill="none" stroke="black" d="M636.72,-556.93C664.13,-547.7 646.33,-496.99 625.71,-466 603.37,-432.41 564.73,-463.59 542.39,-430 519.21,-395.13 499.52,-335.8 541.39,-335.8"/>
<polygon fill="black" stroke="black" points="636.94,-556.9 626.39,-553.9 631.66,-557.67 627.38,-558.3 627.38,-558.3 627.38,-558.3 631.66,-557.67 627.7,-562.8 636.94,-556.9"/>
<text text-anchor="start" x="633.71" y="-568.4" font-family="Arial" font-size="10.00">FOREIGN KEY (used_by) REFERENCES users(id) ON DELETE CASCADE</text>
</g>
</g>
</svg>
