<?xml version="1.0" encoding="UTF-8" standalone="no"?>
<!DOCTYPE svg PUBLIC "-//W3C//DTD SVG 1.1//EN"
 "http://www.w3.org/Graphics/SVG/1.1/DTD/svg11.dtd">
<!-- Generated by graphviz version 12.1.2 (20240928.0832)
 -->
<!-- Title: public.guilds Pages: 1 -->
<svg width="2259pt" height="1222pt"
 viewBox="0.00 0.00 2258.50 1222.00" xmlns="http://www.w3.org/2000/svg" xmlns:xlink="http://www.w3.org/1999/xlink">
<g id="graph0" class="graph" transform="scale(1 1) rotate(0) translate(4 1218)">
<title>public.guilds</title>
<polygon fill="white" stroke="none" points="-4,4 -4,-1218 2254.5,-1218 2254.5,4 -4,4"/>
<!-- public.guilds -->
<g id="node1" class="node">
<title>public.guilds</title>
<polygon fill="#efefef" stroke="none" points="984.34,-635.4 984.34,-671 1238.02,-671 1238.02,-635.4 984.34,-635.4"/>
<polygon fill="none" stroke="black" points="984.34,-635.4 984.34,-671 1238.02,-671 1238.02,-635.4 984.34,-635.4"/>
<text text-anchor="start" x="1002.19" y="-648.8" font-family="Arial Bold" font-size="18.00">public.guilds</text>
<text text-anchor="start" x="1095.69" y="-648.8" font-family="Arial" font-size="14.00">    </text>
<text text-anchor="start" x="1126.8" y="-648.8" font-family="Arial" font-size="14.00" fill="#666666">[BASE TABLE]</text>
<polygon fill="none" stroke="black" points="984.34,-604.6 984.34,-635.4 1238.02,-635.4 1238.02,-604.6 984.34,-604.6"/>
<text text-anchor="start" x="991.34" y="-616.8" font-family="Arial" font-size="14.00">id </text>
<text text-anchor="start" x="1006.13" y="-616.8" font-family="Arial" font-size="14.00" fill="#666666">[bigint]</text>
<polygon fill="none" stroke="black" points="984.34,-573.8 984.34,-604.6 1238.02,-604.6 1238.02,-573.8 984.34,-573.8"/>
<text text-anchor="start" x="991.34" y="-586" font-family="Arial" font-size="14.00">name </text>
<text text-anchor="start" x="1030.25" y="-586" font-family="Arial" font-size="14.00" fill="#666666">[text]</text>
<polygon fill="none" stroke="black" points="984.34,-543 984.34,-573.8 1238.02,-573.8 1238.02,-543 984.34,-543"/>
<text text-anchor="start" x="991.34" y="-555.2" font-family="Arial" font-size="14.00">owner_id </text>
<text text-anchor="start" x="1052.04" y="-555.2" font-family="Arial" font-size="14.00" fill="#666666">[bigint]</text>
<polygon fill="none" stroke="black" points="984.34,-512.2 984.34,-543 1238.02,-543 1238.02,-512.2 984.34,-512.2"/>
<text text-anchor="start" x="991.34" y="-524.4" font-family="Arial" font-size="14.00">icon_key </text>
<text text-anchor="start" x="1050.48" y="-524.4" font-family="Arial" font-size="14.00" fill="#666666">[text]</text>
<polygon fill="none" stroke="black" points="984.34,-481.4 984.34,-512.2 1238.02,-512.2 1238.02,-481.4 984.34,-481.4"/>
<text text-anchor="start" x="991.34" y="-493.6" font-family="Arial" font-size="14.00">created_at </text>
<text text-anchor="start" x="1061.39" y="-493.6" font-family="Arial" font-size="14.00" fill="#666666">[timestamp with time zone]</text>
<polygon fill="none" stroke="black" points="984.34,-450.6 984.34,-481.4 1238.02,-481.4 1238.02,-450.6 984.34,-450.6"/>
<text text-anchor="start" x="991.34" y="-462.8" font-family="Arial" font-size="14.00">updated_at </text>
<text text-anchor="start" x="1065.3" y="-462.8" font-family="Arial" font-size="14.00" fill="#666666">[timestamp with time zone]</text>
<polygon fill="none" stroke="black" stroke-width="3" points="982.84,-449.1 982.84,-672.5 1239.52,-672.5 1239.52,-449.1 982.84,-449.1"/>
</g>
<!-- public.users -->
<g id="node8" class="node">
<title>public.users</title>
<polygon fill="#efefef" stroke="none" points="984.34,-289.6 984.34,-325.2 1238.02,-325.2 1238.02,-289.6 984.34,-289.6"/>
<polygon fill="none" stroke="black" points="984.34,-289.6 984.34,-325.2 1238.02,-325.2 1238.02,-289.6 984.34,-289.6"/>
<text text-anchor="start" x="1005.69" y="-303" font-family="Arial Bold" font-size="18.00">public.users</text>
<text text-anchor="start" x="1092.18" y="-303" font-family="Arial" font-size="14.00">    </text>
<text text-anchor="start" x="1123.3" y="-303" font-family="Arial" font-size="14.00" fill="#666666">[BASE TABLE]</text>
<polygon fill="none" stroke="black" points="984.34,-258.8 984.34,-289.6 1238.02,-289.6 1238.02,-258.8 984.34,-258.8"/>
<text text-anchor="start" x="991.34" y="-271" font-family="Arial" font-size="14.00">id </text>
<text text-anchor="start" x="1006.13" y="-271" font-family="Arial" font-size="14.00" fill="#666666">[bigint]</text>
<polygon fill="none" stroke="black" points="984.34,-228 984.34,-258.8 1238.02,-258.8 1238.02,-228 984.34,-228"/>
<text text-anchor="start" x="991.34" y="-240.2" font-family="Arial" font-size="14.00">email </text>
<text text-anchor="start" x="1028.68" y="-240.2" font-family="Arial" font-size="14.00" fill="#666666">[text]</text>
<polygon fill="none" stroke="black" points="984.34,-197.2 984.34,-228 1238.02,-228 1238.02,-197.2 984.34,-197.2"/>
<text text-anchor="start" x="991.34" y="-209.4" font-family="Arial" font-size="14.00">display_name </text>
<text text-anchor="start" x="1081.62" y="-209.4" font-family="Arial" font-size="14.00" fill="#666666">[text]</text>
<polygon fill="none" stroke="black" points="984.34,-166.4 984.34,-197.2 1238.02,-197.2 1238.02,-166.4 984.34,-166.4"/>
<text text-anchor="start" x="991.34" y="-178.6" font-family="Arial" font-size="14.00">avatar_key </text>
<text text-anchor="start" x="1063.71" y="-178.6" font-family="Arial" font-size="14.00" fill="#666666">[text]</text>
<polygon fill="none" stroke="black" points="984.34,-135.6 984.34,-166.4 1238.02,-166.4 1238.02,-135.6 984.34,-135.6"/>
<text text-anchor="start" x="991.34" y="-147.8" font-family="Arial" font-size="14.00">status_text </text>
<text text-anchor="start" x="1062.93" y="-147.8" font-family="Arial" font-size="14.00" fill="#666666">[text]</text>
<polygon fill="none" stroke="black" points="984.34,-104.8 984.34,-135.6 1238.02,-135.6 1238.02,-104.8 984.34,-104.8"/>
<text text-anchor="start" x="991.34" y="-117" font-family="Arial" font-size="14.00">theme </text>
<text text-anchor="start" x="1034.14" y="-117" font-family="Arial" font-size="14.00" fill="#666666">[text]</text>
<polygon fill="none" stroke="black" points="984.34,-74 984.34,-104.8 1238.02,-104.8 1238.02,-74 984.34,-74"/>
<text text-anchor="start" x="991.34" y="-86.2" font-family="Arial" font-size="14.00">created_at </text>
<text text-anchor="start" x="1061.39" y="-86.2" font-family="Arial" font-size="14.00" fill="#666666">[timestamp with time zone]</text>
<polygon fill="none" stroke="black" points="984.34,-43.2 984.34,-74 1238.02,-74 1238.02,-43.2 984.34,-43.2"/>
<text text-anchor="start" x="991.34" y="-55.4" font-family="Arial" font-size="14.00">updated_at </text>
<text text-anchor="start" x="1065.3" y="-55.4" font-family="Arial" font-size="14.00" fill="#666666">[timestamp with time zone]</text>
</g>
<!-- public.guilds&#45;&gt;public.users -->
<g id="edge7" class="edge">
<title>public.guilds:owner_id&#45;&gt;public.users:id</title>
<path fill="none" stroke="black" d="M1249.1,-557.77C1365.24,-543.07 1361.88,-274.2 1239.02,-274.2"/>
<polygon fill="black" stroke="black" points="1249.34,-557.76 1239.08,-553.89 1244.01,-558.09 1239.69,-558.36 1239.69,-558.36 1239.69,-558.36 1244.01,-558.09 1239.63,-562.87 1249.34,-557.76"/>
<text text-anchor="start" x="1246.02" y="-568.4" font-family="Arial" font-size="10.00">FOREIGN KEY (owner_id) REFERENCES users(id) ON DELETE RESTRICT</text>
</g>
<!-- public.guild_members -->
<g id="node2" class="node">
<title>public.guild_members</title>
<polygon fill="#efefef" stroke="none" points="43.2,-1027.4 43.2,-1063 343.16,-1063 343.16,-1027.4 43.2,-1027.4"/>
<polygon fill="none" stroke="black" points="43.2,-1027.4 43.2,-1063 343.16,-1063 343.16,-1027.4 43.2,-1027.4"/>
<text text-anchor="start" x="50.2" y="-1040.8" font-family="Arial Bold" font-size="18.00">public.guild_members</text>
<text text-anchor="start" x="211.67" y="-1040.8" font-family="Arial" font-size="14.00">    </text>
<text text-anchor="start" x="242.79" y="-1040.8" font-family="Arial" font-size="14.00" fill="#666666">[BASE TABLE]</text>
<polygon fill="none" stroke="black" points="43.2,-996.6 43.2,-1027.4 343.16,-1027.4 343.16,-996.6 43.2,-996.6"/>
<text text-anchor="start" x="50.2" y="-1008.8" font-family="Arial" font-size="14.00">guild_id </text>
<text text-anchor="start" x="102.35" y="-1008.8" font-family="Arial" font-size="14.00" fill="#666666">[bigint]</text>
<polygon fill="none" stroke="black" points="43.2,-965.8 43.2,-996.6 343.16,-996.6 343.16,-965.8 43.2,-965.8"/>
<text text-anchor="start" x="50.2" y="-978" font-family="Arial" font-size="14.00">user_id </text>
<text text-anchor="start" x="100.01" y="-978" font-family="Arial" font-size="14.00" fill="#666666">[bigint]</text>
<polygon fill="none" stroke="black" points="43.2,-935 43.2,-965.8 343.16,-965.8 343.16,-935 43.2,-935"/>
<text text-anchor="start" x="50.2" y="-947.2" font-family="Arial" font-size="14.00">joined_at </text>
<text text-anchor="start" x="110.92" y="-947.2" font-family="Arial" font-size="14.00" fill="#666666">[timestamp with time zone]</text>
<polygon fill="none" stroke="black" points="43.2,-904.2 43.2,-935 343.16,-935 343.16,-904.2 43.2,-904.2"/>
<text text-anchor="start" x="50.2" y="-916.4" font-family="Arial" font-size="14.00">nickname </text>
<text text-anchor="start" x="114.01" y="-916.4" font-family="Arial" font-size="14.00" fill="#666666">[text]</text>
</g>
<!-- public.guild_members&#45;&gt;public.guilds -->
<g id="edge1" class="edge">
<title>public.guild_members:guild_id&#45;&gt;public.guilds:id</title>
<path fill="none" stroke="black" d="M354.39,-1011.5C452.38,-1001.17 316.01,-834.63 395.18,-753.2 488.6,-657.12 849.33,-620 983.34,-620"/>
<polygon fill="black" stroke="black" points="354.48,-1011.49 344.27,-1007.49 349.16,-1011.75 344.83,-1011.97 344.83,-1011.97 344.83,-1011.97 349.16,-1011.75 344.72,-1016.48 354.48,-1011.49"/>
<text text-anchor="start" x="351.16" y="-1022" font-family="Arial" font-size="10.00">FOREIGN KEY (guild_id) REFERENCES guilds(id) ON DELETE CASCADE</text>
</g>
<!-- public.invites -->
<g id="node3" class="node">
<title>public.invites</title>
<polygon fill="#efefef" stroke="none" points="447.3,-1104.4 447.3,-1140 697.07,-1140 697.07,-1104.4 447.3,-1104.4"/>
<polygon fill="none" stroke="black" points="447.3,-1104.4 447.3,-1140 697.07,-1140 697.07,-1104.4 447.3,-1104.4"/>
<text text-anchor="start" x="461.19" y="-1117.8" font-family="Arial Bold" font-size="18.00">public.invites</text>
<text text-anchor="start" x="558.68" y="-1117.8" font-family="Arial" font-size="14.00">    </text>
<text text-anchor="start" x="589.8" y="-1117.8" font-family="Arial" font-size="14.00" fill="#666666">[BASE TABLE]</text>
<polygon fill="none" stroke="black" points="447.3,-1073.6 447.3,-1104.4 697.07,-1104.4 697.07,-1073.6 447.3,-1073.6"/>
<text text-anchor="start" x="454.3" y="-1085.8" font-family="Arial" font-size="14.00">id </text>
<text text-anchor="start" x="469.08" y="-1085.8" font-family="Arial" font-size="14.00" fill="#666666">[bigint]</text>
<polygon fill="none" stroke="black" points="447.3,-1042.8 447.3,-1073.6 697.07,-1073.6 697.07,-1042.8 447.3,-1042.8"/>
<text text-anchor="start" x="454.3" y="-1055" font-family="Arial" font-size="14.00">guild_id </text>
<text text-anchor="start" x="506.45" y="-1055" font-family="Arial" font-size="14.00" fill="#666666">[bigint]</text>
<polygon fill="none" stroke="black" points="447.3,-1012 447.3,-1042.8 697.07,-1042.8 697.07,-1012 447.3,-1012"/>
<text text-anchor="start" x="454.3" y="-1024.2" font-family="Arial" font-size="14.00">created_by </text>
<text text-anchor="start" x="527.45" y="-1024.2" font-family="Arial" font-size="14.00" fill="#666666">[bigint]</text>
<polygon fill="none" stroke="black" points="447.3,-981.2 447.3,-1012 697.07,-1012 697.07,-981.2 447.3,-981.2"/>
<text text-anchor="start" x="454.3" y="-993.4" font-family="Arial" font-size="14.00">code </text>
<text text-anchor="start" x="488.54" y="-993.4" font-family="Arial" font-size="14.00" fill="#666666">[text]</text>
<polygon fill="none" stroke="black" points="447.3,-950.4 447.3,-981.2 697.07,-981.2 697.07,-950.4 447.3,-950.4"/>
<text text-anchor="start" x="454.3" y="-962.6" font-family="Arial" font-size="14.00">expires_at </text>
<text text-anchor="start" x="522.78" y="-962.6" font-family="Arial" font-size="14.00" fill="#666666">[timestamp with time zone]</text>
<polygon fill="none" stroke="black" points="447.3,-919.6 447.3,-950.4 697.07,-950.4 697.07,-919.6 447.3,-919.6"/>
<text text-anchor="start" x="454.3" y="-931.8" font-family="Arial" font-size="14.00">max_uses </text>
<text text-anchor="start" x="521.99" y="-931.8" font-family="Arial" font-size="14.00" fill="#666666">[integer]</text>
<polygon fill="none" stroke="black" points="447.3,-888.8 447.3,-919.6 697.07,-919.6 697.07,-888.8 447.3,-888.8"/>
<text text-anchor="start" x="454.3" y="-901" font-family="Arial" font-size="14.00">uses </text>
<text text-anchor="start" x="487.76" y="-901" font-family="Arial" font-size="14.00" fill="#666666">[integer]</text>
<polygon fill="none" stroke="black" points="447.3,-858 447.3,-888.8 697.07,-888.8 697.07,-858 447.3,-858"/>
<text text-anchor="start" x="454.3" y="-870.2" font-family="Arial" font-size="14.00">is_disabled </text>
<text text-anchor="start" x="528.23" y="-870.2" font-family="Arial" font-size="14.00" fill="#666666">[boolean]</text>
<polygon fill="none" stroke="black" points="447.3,-827.2 447.3,-858 697.07,-858 697.07,-827.2 447.3,-827.2"/>
<text text-anchor="start" x="454.3" y="-839.4" font-family="Arial" font-size="14.00">created_at </text>
<text text-anchor="start" x="524.34" y="-839.4" font-family="Arial" font-size="14.00" fill="#666666">[timestamp with time zone]</text>
</g>
<!-- public.invites&#45;&gt;public.guilds -->
<g id="edge2" class="edge">
<title>public.invites:guild_id&#45;&gt;public.guilds:id</title>
<path fill="none" stroke="black" d="M708.25,-1056.04C760.85,-1031.58 711.97,-806.45 749.18,-753.2 817.75,-655.05 863.61,-620 983.34,-620"/>
<polygon fill="black" stroke="black" points="708.18,-1056.06 697.46,-1053.73 702.96,-1057.16 698.72,-1058.06 698.72,-1058.06 698.72,-1058.06 702.96,-1057.16 699.33,-1062.53 708.18,-1056.06"/>
<text text-anchor="start" x="353.76" y="-1068.2" font-family="Arial" font-size="10.00">FOREIGN KEY (guild_id) REFERENCES guilds(id) ON DELETE CASCADE</text>
</g>
<!-- public.channels -->
<g id="node4" class="node">
<title>public.channels</title>
<polygon fill="#efefef" stroke="none" points="801.34,-1073.6 801.34,-1109.2 1055.02,-1109.2 1055.02,-1073.6 801.34,-1073.6"/>
<polygon fill="none" stroke="black" points="801.34,-1073.6 801.34,-1109.2 1055.02,-1109.2 1055.02,-1073.6 801.34,-1073.6"/>
<text text-anchor="start" x="809.7" y="-1087" font-family="Arial Bold" font-size="18.00">public.channels</text>
<text text-anchor="start" x="922.17" y="-1087" font-family="Arial" font-size="14.00">    </text>
<text text-anchor="start" x="953.29" y="-1087" font-family="Arial" font-size="14.00" fill="#666666">[BASE TABLE]</text>
<polygon fill="none" stroke="black" points="801.34,-1042.8 801.34,-1073.6 1055.02,-1073.6 1055.02,-1042.8 801.34,-1042.8"/>
<text text-anchor="start" x="808.34" y="-1055" font-family="Arial" font-size="14.00">id </text>
<text text-anchor="start" x="823.13" y="-1055" font-family="Arial" font-size="14.00" fill="#666666">[bigint]</text>
<polygon fill="none" stroke="black" points="801.34,-1012 801.34,-1042.8 1055.02,-1042.8 1055.02,-1012 801.34,-1012"/>
<text text-anchor="start" x="808.34" y="-1024.2" font-family="Arial" font-size="14.00">type </text>
<text text-anchor="start" x="838.69" y="-1024.2" font-family="Arial" font-size="14.00" fill="#666666">[channel_type]</text>
<polygon fill="none" stroke="black" points="801.34,-981.2 801.34,-1012 1055.02,-1012 1055.02,-981.2 801.34,-981.2"/>
<text text-anchor="start" x="808.34" y="-993.4" font-family="Arial" font-size="14.00">guild_id </text>
<text text-anchor="start" x="860.49" y="-993.4" font-family="Arial" font-size="14.00" fill="#666666">[bigint]</text>
<polygon fill="none" stroke="black" points="801.34,-950.4 801.34,-981.2 1055.02,-981.2 1055.02,-950.4 801.34,-950.4"/>
<text text-anchor="start" x="808.34" y="-962.6" font-family="Arial" font-size="14.00">name </text>
<text text-anchor="start" x="847.25" y="-962.6" font-family="Arial" font-size="14.00" fill="#666666">[text]</text>
<polygon fill="none" stroke="black" points="801.34,-919.6 801.34,-950.4 1055.02,-950.4 1055.02,-919.6 801.34,-919.6"/>
<text text-anchor="start" x="808.34" y="-931.8" font-family="Arial" font-size="14.00">created_by </text>
<text text-anchor="start" x="881.5" y="-931.8" font-family="Arial" font-size="14.00" fill="#666666">[bigint]</text>
<polygon fill="none" stroke="black" points="801.34,-888.8 801.34,-919.6 1055.02,-919.6 1055.02,-888.8 801.34,-888.8"/>
<text text-anchor="start" x="808.34" y="-901" font-family="Arial" font-size="14.00">created_at </text>
<text text-anchor="start" x="878.39" y="-901" font-family="Arial" font-size="14.00" fill="#666666">[timestamp with time zone]</text>
<polygon fill="none" stroke="black" points="801.34,-858 801.34,-888.8 1055.02,-888.8 1055.02,-858 801.34,-858"/>
<text text-anchor="start" x="808.34" y="-870.2" font-family="Arial" font-size="14.00">updated_at </text>
<text text-anchor="start" x="882.3" y="-870.2" font-family="Arial" font-size="14.00" fill="#666666">[timestamp with time zone]</text>
</g>
<!-- public.channels&#45;&gt;public.guilds -->
<g id="edge3" class="edge">
<title>public.channels:guild_id&#45;&gt;public.guilds:id</title>
<path fill="none" stroke="black" d="M1066.09,-995.98C1131.79,-987.22 1079.01,-888.15 1055.02,-814.8 1038.37,-763.9 1001.11,-768.06 984.34,-717.2 970.81,-676.17 940.14,-620 983.34,-620"/>
<polygon fill="black" stroke="black" points="1066.34,-995.96 1056.08,-992.09 1061.01,-996.29 1056.69,-996.56 1056.69,-996.56 1056.69,-996.56 1061.01,-996.29 1056.63,-1001.07 1066.34,-995.96"/>
<text text-anchor="start" x="711.71" y="-1006.6" font-family="Arial" font-size="10.00">FOREIGN KEY (guild_id) REFERENCES guilds(id) ON DELETE CASCADE</text>
</g>
<!-- public.guild_roles -->
<g id="node5" class="node">
<title>public.guild_roles</title>
<polygon fill="#efefef" stroke="none" points="1159.7,-1012 1159.7,-1047.6 1428.67,-1047.6 1428.67,-1012 1159.7,-1012"/>
<polygon fill="none" stroke="black" points="1159.7,-1012 1159.7,-1047.6 1428.67,-1047.6 1428.67,-1012 1159.7,-1012"/>
<text text-anchor="start" x="1166.7" y="-1025.4" font-family="Arial Bold" font-size="18.00">public.guild_roles</text>
<text text-anchor="start" x="1297.18" y="-1025.4" font-family="Arial" font-size="14.00">    </text>
<text text-anchor="start" x="1328.29" y="-1025.4" font-family="Arial" font-size="14.00" fill="#666666">[BASE TABLE]</text>
<polygon fill="none" stroke="black" points="1159.7,-981.2 1159.7,-1012 1428.67,-1012 1428.67,-981.2 1159.7,-981.2"/>
<text text-anchor="start" x="1166.7" y="-993.4" font-family="Arial" font-size="14.00">guild_id </text>
<text text-anchor="start" x="1218.85" y="-993.4" font-family="Arial" font-size="14.00" fill="#666666">[bigint]</text>
<polygon fill="none" stroke="black" points="1159.7,-950.4 1159.7,-981.2 1428.67,-981.2 1428.67,-950.4 1159.7,-950.4"/>
<text text-anchor="start" x="1166.7" y="-962.6" font-family="Arial" font-size="14.00">level </text>
<text text-anchor="start" x="1199.38" y="-962.6" font-family="Arial" font-size="14.00" fill="#666666">[role_level]</text>
<polygon fill="none" stroke="black" points="1159.7,-919.6 1159.7,-950.4 1428.67,-950.4 1428.67,-919.6 1159.7,-919.6"/>
<text text-anchor="start" x="1166.7" y="-931.8" font-family="Arial" font-size="14.00">name </text>
<text text-anchor="start" x="1205.61" y="-931.8" font-family="Arial" font-size="14.00" fill="#666666">[text]</text>
</g>
<!-- public.guild_roles&#45;&gt;public.guilds -->
<g id="edge4" class="edge">
<title>public.guild_roles:guild_id&#45;&gt;public.guilds:id</title>
<path fill="none" stroke="black" d="M1148.47,-996.09C1005.44,-980.59 1406.49,-620 1239.02,-620"/>
<polygon fill="black" stroke="black" points="1148.37,-996.08 1158.13,-1001.08 1153.7,-996.35 1158.03,-996.57 1158.03,-996.57 1158.03,-996.57 1153.7,-996.35 1158.59,-992.09 1148.37,-996.08"/>
<text text-anchor="start" x="902.21" y="-980.6" font-family="Arial" font-size="10.00">FOREIGN KEY (guild_id) REFERENCES guilds(id) ON DELETE CASCADE</text>
</g>
<!-- public.audit_logs -->
<g id="node6" class="node">
<title>public.audit_logs</title>
<polygon fill="#efefef" stroke="none" points="1532.69,-1089 1532.69,-1124.6 1795.67,-1124.6 1795.67,-1089 1532.69,-1089"/>
<polygon fill="none" stroke="black" points="1532.69,-1089 1532.69,-1124.6 1795.67,-1124.6 1795.67,-1089 1532.69,-1089"/>
<text text-anchor="start" x="1539.69" y="-1102.4" font-family="Arial Bold" font-size="18.00">public.audit_logs</text>
<text text-anchor="start" x="1664.18" y="-1102.4" font-family="Arial" font-size="14.00">    </text>
<text text-anchor="start" x="1695.3" y="-1102.4" font-family="Arial" font-size="14.00" fill="#666666">[BASE TABLE]</text>
<polygon fill="none" stroke="black" points="1532.69,-1058.2 1532.69,-1089 1795.67,-1089 1795.67,-1058.2 1532.69,-1058.2"/>
<text text-anchor="start" x="1539.69" y="-1070.4" font-family="Arial" font-size="14.00">id </text>
<text text-anchor="start" x="1554.48" y="-1070.4" font-family="Arial" font-size="14.00" fill="#666666">[bigint]</text>
<polygon fill="none" stroke="black" points="1532.69,-1027.4 1532.69,-1058.2 1795.67,-1058.2 1795.67,-1027.4 1532.69,-1027.4"/>
<text text-anchor="start" x="1539.69" y="-1039.6" font-family="Arial" font-size="14.00">guild_id </text>
<text text-anchor="start" x="1591.84" y="-1039.6" font-family="Arial" font-size="14.00" fill="#666666">[bigint]</text>
<polygon fill="none" stroke="black" points="1532.69,-996.6 1532.69,-1027.4 1795.67,-1027.4 1795.67,-996.6 1532.69,-996.6"/>
<text text-anchor="start" x="1539.69" y="-1008.8" font-family="Arial" font-size="14.00">actor_id </text>
<text text-anchor="start" x="1593.39" y="-1008.8" font-family="Arial" font-size="14.00" fill="#666666">[bigint]</text>
<polygon fill="none" stroke="black" points="1532.69,-965.8 1532.69,-996.6 1795.67,-996.6 1795.67,-965.8 1532.69,-965.8"/>
<text text-anchor="start" x="1539.69" y="-978" font-family="Arial" font-size="14.00">action </text>
<text text-anchor="start" x="1580.94" y="-978" font-family="Arial" font-size="14.00" fill="#666666">[audit_action]</text>
<polygon fill="none" stroke="black" points="1532.69,-935 1532.69,-965.8 1795.67,-965.8 1795.67,-935 1532.69,-935"/>
<text text-anchor="start" x="1539.69" y="-947.2" font-family="Arial" font-size="14.00">target_type </text>
<text text-anchor="start" x="1613.63" y="-947.2" font-family="Arial" font-size="14.00" fill="#666666">[text]</text>
<polygon fill="none" stroke="black" points="1532.69,-904.2 1532.69,-935 1795.67,-935 1795.67,-904.2 1532.69,-904.2"/>
<text text-anchor="start" x="1539.69" y="-916.4" font-family="Arial" font-size="14.00">target_id </text>
<text text-anchor="start" x="1598.06" y="-916.4" font-family="Arial" font-size="14.00" fill="#666666">[bigint]</text>
<polygon fill="none" stroke="black" points="1532.69,-873.4 1532.69,-904.2 1795.67,-904.2 1795.67,-873.4 1532.69,-873.4"/>
<text text-anchor="start" x="1539.69" y="-885.6" font-family="Arial" font-size="14.00">metadata </text>
<text text-anchor="start" x="1601.95" y="-885.6" font-family="Arial" font-size="14.00" fill="#666666">[jsonb]</text>
<polygon fill="none" stroke="black" points="1532.69,-842.6 1532.69,-873.4 1795.67,-873.4 1795.67,-842.6 1532.69,-842.6"/>
<text text-anchor="start" x="1539.69" y="-854.8" font-family="Arial" font-size="14.00">created_at </text>
<text text-anchor="start" x="1609.74" y="-854.8" font-family="Arial" font-size="14.00" fill="#666666">[timestamp with time zone]</text>
</g>
<!-- public.audit_logs&#45;&gt;public.guilds -->
<g id="edge5" class="edge">
<title>public.audit_logs:guild_id&#45;&gt;public.guilds:id</title>
<path fill="none" stroke="black" d="M1521.69,-1040.6C1472.05,-1016.6 1517,-803.35 1481.18,-753.2 1409.78,-653.25 1361.86,-620 1239.02,-620"/>
<polygon fill="black" stroke="black" points="1521.6,-1040.58 1530.4,-1047.12 1526.81,-1041.73 1531.04,-1042.66 1531.04,-1042.66 1531.04,-1042.66 1526.81,-1041.73 1532.33,-1038.33 1521.6,-1040.58"/>
<text text-anchor="start" x="1275.62" y="-1026.8" font-family="Arial" font-size="10.00">FOREIGN KEY (guild_id) REFERENCES guilds(id) ON DELETE SET NULL</text>
</g>
<!-- public.guild_roles_v2 -->
<g id="node7" class="node">
<title>public.guild_roles_v2</title>
<polygon fill="#efefef" stroke="none" points="1900.2,-1135.2 1900.2,-1170.8 2196.17,-1170.8 2196.17,-1135.2 1900.2,-1135.2"/>
<polygon fill="none" stroke="black" points="1900.2,-1135.2 1900.2,-1170.8 2196.17,-1170.8 2196.17,-1135.2 1900.2,-1135.2"/>
<text text-anchor="start" x="1907.2" y="-1148.6" font-family="Arial Bold" font-size="18.00">public.guild_roles_v2</text>
<text text-anchor="start" x="2064.68" y="-1148.6" font-family="Arial" font-size="14.00">    </text>
<text text-anchor="start" x="2095.79" y="-1148.6" font-family="Arial" font-size="14.00" fill="#666666">[BASE TABLE]</text>
<polygon fill="none" stroke="black" points="1900.2,-1104.4 1900.2,-1135.2 2196.17,-1135.2 2196.17,-1104.4 1900.2,-1104.4"/>
<text text-anchor="start" x="1907.2" y="-1116.6" font-family="Arial" font-size="14.00">guild_id </text>
<text text-anchor="start" x="1959.35" y="-1116.6" font-family="Arial" font-size="14.00" fill="#666666">[bigint]</text>
<polygon fill="none" stroke="black" points="1900.2,-1073.6 1900.2,-1104.4 2196.17,-1104.4 2196.17,-1073.6 1900.2,-1073.6"/>
<text text-anchor="start" x="1907.2" y="-1085.8" font-family="Arial" font-size="14.00">role_key </text>
<text text-anchor="start" x="1964" y="-1085.8" font-family="Arial" font-size="14.00" fill="#666666">[text]</text>
<polygon fill="none" stroke="black" points="1900.2,-1042.8 1900.2,-1073.6 2196.17,-1073.6 2196.17,-1042.8 1900.2,-1042.8"/>
<text text-anchor="start" x="1907.2" y="-1055" font-family="Arial" font-size="14.00">name </text>
<text text-anchor="start" x="1946.11" y="-1055" font-family="Arial" font-size="14.00" fill="#666666">[text]</text>
<polygon fill="none" stroke="black" points="1900.2,-1012 1900.2,-1042.8 2196.17,-1042.8 2196.17,-1012 1900.2,-1012"/>
<text text-anchor="start" x="1907.2" y="-1024.2" font-family="Arial" font-size="14.00">priority </text>
<text text-anchor="start" x="1953.09" y="-1024.2" font-family="Arial" font-size="14.00" fill="#666666">[integer]</text>
<polygon fill="none" stroke="black" points="1900.2,-981.2 1900.2,-1012 2196.17,-1012 2196.17,-981.2 1900.2,-981.2"/>
<text text-anchor="start" x="1907.2" y="-993.4" font-family="Arial" font-size="14.00">allow_view </text>
<text text-anchor="start" x="1978.78" y="-993.4" font-family="Arial" font-size="14.00" fill="#666666">[boolean]</text>
<polygon fill="none" stroke="black" points="1900.2,-950.4 1900.2,-981.2 2196.17,-981.2 2196.17,-950.4 1900.2,-950.4"/>
<text text-anchor="start" x="1907.2" y="-962.6" font-family="Arial" font-size="14.00">allow_post </text>
<text text-anchor="start" x="1977.24" y="-962.6" font-family="Arial" font-size="14.00" fill="#666666">[boolean]</text>
<polygon fill="none" stroke="black" points="1900.2,-919.6 1900.2,-950.4 2196.17,-950.4 2196.17,-919.6 1900.2,-919.6"/>
<text text-anchor="start" x="1907.2" y="-931.8" font-family="Arial" font-size="14.00">allow_manage </text>
<text text-anchor="start" x="2001.37" y="-931.8" font-family="Arial" font-size="14.00" fill="#666666">[boolean]</text>
<polygon fill="none" stroke="black" points="1900.2,-888.8 1900.2,-919.6 2196.17,-919.6 2196.17,-888.8 1900.2,-888.8"/>
<text text-anchor="start" x="1907.2" y="-901" font-family="Arial" font-size="14.00">is_system </text>
<text text-anchor="start" x="1973.32" y="-901" font-family="Arial" font-size="14.00" fill="#666666">[boolean]</text>
<polygon fill="none" stroke="black" points="1900.2,-858 1900.2,-888.8 2196.17,-888.8 2196.17,-858 1900.2,-858"/>
<text text-anchor="start" x="1907.2" y="-870.2" font-family="Arial" font-size="14.00">created_at </text>
<text text-anchor="start" x="1977.24" y="-870.2" font-family="Arial" font-size="14.00" fill="#666666">[timestamp with time zone]</text>
<polygon fill="none" stroke="black" points="1900.2,-827.2 1900.2,-858 2196.17,-858 2196.17,-827.2 1900.2,-827.2"/>
<text text-anchor="start" x="1907.2" y="-839.4" font-family="Arial" font-size="14.00">updated_at </text>
<text text-anchor="start" x="1981.15" y="-839.4" font-family="Arial" font-size="14.00" fill="#666666">[timestamp with time zone]</text>
<polygon fill="none" stroke="black" points="1900.2,-796.4 1900.2,-827.2 2196.17,-827.2 2196.17,-796.4 1900.2,-796.4"/>
<text text-anchor="start" x="1907.2" y="-808.6" font-family="Arial" font-size="14.00">source_level </text>
<text text-anchor="start" x="1989.68" y="-808.6" font-family="Arial" font-size="14.00" fill="#666666">[role_level]</text>
</g>
<!-- public.guild_roles_v2&#45;&gt;public.guilds -->
<g id="edge6" class="edge">
<title>public.guild_roles_v2:guild_id&#45;&gt;public.guilds:id</title>
<path fill="none" stroke="black" d="M1889.11,-1118C1824.48,-1092.78 1901.55,-810.85 1848.18,-753.2 1754.04,-651.52 1377.59,-620 1239.02,-620"/>
<polygon fill="black" stroke="black" points="1889.02,-1117.98 1898.07,-1124.17 1894.27,-1118.92 1898.54,-1119.68 1898.54,-1119.68 1898.54,-1119.68 1894.27,-1118.92 1899.66,-1115.31 1889.02,-1117.98"/>
<text text-anchor="start" x="1906.2" y="-1129.8" font-family="Arial" font-size="10.00">FOREIGN KEY (guild_id) REFERENCES guilds(id) ON DELETE CASCADE</text>
</g>
</g>
</svg>
