<?xml version="1.0" encoding="UTF-8" standalone="no"?>
<!DOCTYPE svg PUBLIC "-//W3C//DTD SVG 1.1//EN"
 "http://www.w3.org/Graphics/SVG/1.1/DTD/svg11.dtd">
<!-- Generated by graphviz version 12.1.2 (20240928.0832)
 -->
<!-- Title: public.guild_roles Pages: 1 -->
<svg width="843pt" height="822pt"
 viewBox="0.00 0.00 843.28 821.60" xmlns="http://www.w3.org/2000/svg" xmlns:xlink="http://www.w3.org/1999/xlink">
<g id="graph0" class="graph" transform="scale(1 1) rotate(0) translate(4 817.6)">
<title>public.guild_roles</title>
<polygon fill="white" stroke="none" points="-4,4 -4,-817.6 839.28,-817.6 839.28,4 -4,4"/>
<!-- public.guild_roles -->
<g id="node1" class="node">
<title>public.guild_roles</title>
<polygon fill="#efefef" stroke="none" points="77.19,-481.4 77.19,-517 346.16,-517 346.16,-481.4 77.19,-481.4"/>
<polygon fill="none" stroke="black" points="77.19,-481.4 77.19,-517 346.16,-517 346.16,-481.4 77.19,-481.4"/>
<text text-anchor="start" x="84.19" y="-494.8" font-family="Arial Bold" font-size="18.00">public.guild_roles</text>
<text text-anchor="start" x="214.67" y="-494.8" font-family="Arial" font-size="14.00">    </text>
<text text-anchor="start" x="245.79" y="-494.8" font-family="Arial" font-size="14.00" fill="#666666">[BASE TABLE]</text>
<polygon fill="none" stroke="black" points="77.19,-450.6 77.19,-481.4 346.16,-481.4 346.16,-450.6 77.19,-450.6"/>
<text text-anchor="start" x="84.19" y="-462.8" font-family="Arial" font-size="14.00">guild_id </text>
<text text-anchor="start" x="136.34" y="-462.8" font-family="Arial" font-size="14.00" fill="#666666">[bigint]</text>
<polygon fill="none" stroke="black" points="77.19,-419.8 77.19,-450.6 346.16,-450.6 346.16,-419.8 77.19,-419.8"/>
<text text-anchor="start" x="84.19" y="-432" font-family="Arial" font-size="14.00">level </text>
<text text-anchor="start" x="116.87" y="-432" font-family="Arial" font-size="14.00" fill="#666666">[role_level]</text>
<polygon fill="none" stroke="black" points="77.19,-389 77.19,-419.8 346.16,-419.8 346.16,-389 77.19,-389"/>
<text text-anchor="start" x="84.19" y="-401.2" font-family="Arial" font-size="14.00">name </text>
<text text-anchor="start" x="123.1" y="-401.2" font-family="Arial" font-size="14.00" fill="#666666">[text]</text>
<polygon fill="none" stroke="black" stroke-width="3" points="75.69,-387.5 75.69,-518.5 347.66,-518.5 347.66,-387.5 75.69,-387.5"/>
</g>
<!-- public.guilds -->
<g id="node2" class="node">
<title>public.guilds</title>
<polygon fill="#efefef" stroke="none" points="84.83,-228 84.83,-263.6 338.51,-263.6 338.51,-228 84.83,-228"/>
<polygon fill="none" stroke="black" points="84.83,-228 84.83,-263.6 338.51,-263.6 338.51,-228 84.83,-228"/>
<text text-anchor="start" x="102.68" y="-241.4" font-family="Arial Bold" font-size="18.00">public.guilds</text>
<text text-anchor="start" x="196.18" y="-241.4" font-family="Arial" font-size="14.00">    </text>
<text text-anchor="start" x="227.29" y="-241.4" font-family="Arial" font-size="14.00" fill="#666666">[BASE TABLE]</text>
<polygon fill="none" stroke="black" points="84.83,-197.2 84.83,-228 338.51,-228 338.51,-197.2 84.83,-197.2"/>
<text text-anchor="start" x="91.83" y="-209.4" font-family="Arial" font-size="14.00">id </text>
<text text-anchor="start" x="106.62" y="-209.4" font-family="Arial" font-size="14.00" fill="#666666">[bigint]</text>
<polygon fill="none" stroke="black" points="84.83,-166.4 84.83,-197.2 338.51,-197.2 338.51,-166.4 84.83,-166.4"/>
<text text-anchor="start" x="91.83" y="-178.6" font-family="Arial" font-size="14.00">name </text>
<text text-anchor="start" x="130.74" y="-178.6" font-family="Arial" font-size="14.00" fill="#666666">[text]</text>
<polygon fill="none" stroke="black" points="84.83,-135.6 84.83,-166.4 338.51,-166.4 338.51,-135.6 84.83,-135.6"/>
<text text-anchor="start" x="91.83" y="-147.8" font-family="Arial" font-size="14.00">owner_id </text>
<text text-anchor="start" x="152.54" y="-147.8" font-family="Arial" font-size="14.00" fill="#666666">[bigint]</text>
<polygon fill="none" stroke="black" points="84.83,-104.8 84.83,-135.6 338.51,-135.6 338.51,-104.8 84.83,-104.8"/>
<text text-anchor="start" x="91.83" y="-117" font-family="Arial" font-size="14.00">icon_key </text>
<text text-anchor="start" x="150.98" y="-117" font-family="Arial" font-size="14.00" fill="#666666">[text]</text>
<polygon fill="none" stroke="black" points="84.83,-74 84.83,-104.8 338.51,-104.8 338.51,-74 84.83,-74"/>
<text text-anchor="start" x="91.83" y="-86.2" font-family="Arial" font-size="14.00">created_at </text>
<text text-anchor="start" x="161.88" y="-86.2" font-family="Arial" font-size="14.00" fill="#666666">[timestamp with time zone]</text>
<polygon fill="none" stroke="black" points="84.83,-43.2 84.83,-74 338.51,-74 338.51,-43.2 84.83,-43.2"/>
<text text-anchor="start" x="91.83" y="-55.4" font-family="Arial" font-size="14.00">updated_at </text>
<text text-anchor="start" x="165.79" y="-55.4" font-family="Arial" font-size="14.00" fill="#666666">[timestamp with time zone]</text>
</g>
<!-- public.guild_roles&#45;&gt;public.guilds -->
<g id="edge1" class="edge">
<title>public.guild_roles:guild_id&#45;&gt;public.guilds:id</title>
<path fill="none" stroke="black" d="M357.37,-465.27C459.25,-450.41 448.67,-212.6 339.51,-212.6"/>
<polygon fill="black" stroke="black" points="357.47,-465.27 347.17,-461.49 352.15,-465.64 347.83,-465.95 347.83,-465.95 347.83,-465.95 352.15,-465.64 347.81,-470.46 357.47,-465.27"/>
<text text-anchor="start" x="354.16" y="-476" font-family="Arial" font-size="10.00">FOREIGN KEY (guild_id) REFERENCES guilds(id) ON DELETE CASCADE</text>
</g>
<!-- public.guild_member_roles -->
<g id="node3" class="node">
<title>public.guild_member_roles</title>
<polygon fill="#efefef" stroke="none" points="43.2,-734.8 43.2,-770.4 380.15,-770.4 380.15,-734.8 43.2,-734.8"/>
<polygon fill="none" stroke="black" points="43.2,-734.8 43.2,-770.4 380.15,-770.4 380.15,-734.8 43.2,-734.8"/>
<text text-anchor="start" x="50.2" y="-748.2" font-family="Arial Bold" font-size="18.00">public.guild_member_roles</text>
<text text-anchor="start" x="248.66" y="-748.2" font-family="Arial" font-size="14.00">    </text>
<text text-anchor="start" x="279.77" y="-748.2" font-family="Arial" font-size="14.00" fill="#666666">[BASE TABLE]</text>
<polygon fill="none" stroke="black" points="43.2,-704 43.2,-734.8 380.15,-734.8 380.15,-704 43.2,-704"/>
<text text-anchor="start" x="50.2" y="-716.2" font-family="Arial" font-size="14.00">guild_id </text>
<text text-anchor="start" x="102.35" y="-716.2" font-family="Arial" font-size="14.00" fill="#666666">[bigint]</text>
<polygon fill="none" stroke="black" points="43.2,-673.2 43.2,-704 380.15,-704 380.15,-673.2 43.2,-673.2"/>
<text text-anchor="start" x="50.2" y="-685.4" font-family="Arial" font-size="14.00">user_id </text>
<text text-anchor="start" x="100.01" y="-685.4" font-family="Arial" font-size="14.00" fill="#666666">[bigint]</text>
<polygon fill="none" stroke="black" points="43.2,-642.4 43.2,-673.2 380.15,-673.2 380.15,-642.4 43.2,-642.4"/>
<text text-anchor="start" x="50.2" y="-654.6" font-family="Arial" font-size="14.00">level </text>
<text text-anchor="start" x="82.88" y="-654.6" font-family="Arial" font-size="14.00" fill="#666666">[role_level]</text>
</g>
<!-- public.guild_member_roles&#45;&gt;public.guild_roles -->
<g id="edge2" class="edge">
<title>public.guild_member_roles:guild_id&#45;&gt;public.guild_roles:guild_id</title>
<path fill="none" stroke="black" d="M391.37,-718.67C492.58,-703.81 457.24,-466 347.16,-466"/>
<polygon fill="black" stroke="black" points="391.45,-718.67 381.16,-714.89 386.13,-719.05 381.81,-719.35 381.81,-719.35 381.81,-719.35 386.13,-719.05 381.8,-723.86 391.45,-718.67"/>
<text text-anchor="start" x="388.15" y="-729.4" font-family="Arial" font-size="10.00">FOREIGN KEY (guild_id, level) REFERENCES guild_roles(guild_id, level) ON DELETE RESTRICT</text>
</g>
</g>
</svg>
