<?xml version="1.0" encoding="UTF-8" standalone="no"?>
<!DOCTYPE svg PUBLIC "-//W3C//DTD SVG 1.1//EN"
 "http://www.w3.org/Graphics/SVG/1.1/DTD/svg11.dtd">
<!-- Generated by graphviz version 12.1.2 (20240928.0832)
 -->
<!-- Title: public.message_reactions_v2 Pages: 1 -->
<svg width="1087pt" height="694pt"
 viewBox="0.00 0.00 1087.00 694.40" xmlns="http://www.w3.org/2000/svg" xmlns:xlink="http://www.w3.org/1999/xlink">
<g id="graph0" class="graph" transform="scale(1 1) rotate(0) translate(4 690.4)">
<title>public.message_reactions_v2</title>
<polygon fill="white" stroke="none" points="-4,4 -4,-690.4 1083,-690.4 1083,4 -4,4"/>
<!-- public.message_reactions_v2 -->
<g id="node1" class="node">
<title>public.message_reactions_v2</title>
<polygon fill="#efefef" stroke="none" points="380.11,-604.6 380.11,-640.2 730.04,-640.2 730.04,-604.6 380.11,-604.6"/>
<polygon fill="none" stroke="black" points="380.11,-604.6 380.11,-640.2 730.04,-640.2 730.04,-604.6 380.11,-604.6"/>
<text text-anchor="start" x="387.11" y="-618" font-family="Arial Bold" font-size="18.00">public.message_reactions_v2</text>
<text text-anchor="start" x="598.55" y="-618" font-family="Arial" font-size="14.00">    </text>
<text text-anchor="start" x="629.67" y="-618" font-family="Arial" font-size="14.00" fill="#666666">[BASE TABLE]</text>
<polygon fill="none" stroke="black" points="380.11,-573.8 380.11,-604.6 730.04,-604.6 730.04,-573.8 380.11,-573.8"/>
<text text-anchor="start" x="387.11" y="-586" font-family="Arial" font-size="14.00">message_id </text>
<text text-anchor="start" x="466.49" y="-586" font-family="Arial" font-size="14.00" fill="#666666">[bigint]</text>
<polygon fill="none" stroke="black" points="380.11,-543 380.11,-573.8 730.04,-573.8 730.04,-543 380.11,-543"/>
<text text-anchor="start" x="387.11" y="-555.2" font-family="Arial" font-size="14.00">channel_id </text>
<text text-anchor="start" x="458.73" y="-555.2" font-family="Arial" font-size="14.00" fill="#666666">[bigint]</text>
<polygon fill="none" stroke="black" points="380.11,-512.2 380.11,-543 730.04,-543 730.04,-512.2 380.11,-512.2"/>
<text text-anchor="start" x="387.11" y="-524.4" font-family="Arial" font-size="14.00">emoji </text>
<text text-anchor="start" x="424.46" y="-524.4" font-family="Arial" font-size="14.00" fill="#666666">[text]</text>
<polygon fill="none" stroke="black" points="380.11,-481.4 380.11,-512.2 730.04,-512.2 730.04,-481.4 380.11,-481.4"/>
<text text-anchor="start" x="387.11" y="-493.6" font-family="Arial" font-size="14.00">user_id </text>
<text text-anchor="start" x="436.92" y="-493.6" font-family="Arial" font-size="14.00" fill="#666666">[bigint]</text>
<polygon fill="none" stroke="black" points="380.11,-450.6 380.11,-481.4 730.04,-481.4 730.04,-450.6 380.11,-450.6"/>
<text text-anchor="start" x="387.11" y="-462.8" font-family="Arial" font-size="14.00">created_at </text>
<text text-anchor="start" x="457.16" y="-462.8" font-family="Arial" font-size="14.00" fill="#666666">[timestamp with time zone]</text>
<polygon fill="none" stroke="black" stroke-width="3" points="378.61,-449.1 378.61,-641.7 731.54,-641.7 731.54,-449.1 378.61,-449.1"/>
</g>
<!-- public.channels -->
<g id="node2" class="node">
<title>public.channels</title>
<polygon fill="#efefef" stroke="none" points="249.24,-274.2 249.24,-309.8 502.92,-309.8 502.92,-274.2 249.24,-274.2"/>
<polygon fill="none" stroke="black" points="249.24,-274.2 249.24,-309.8 502.92,-309.8 502.92,-274.2 249.24,-274.2"/>
<text text-anchor="start" x="257.6" y="-287.6" font-family="Arial Bold" font-size="18.00">public.channels</text>
<text text-anchor="start" x="370.06" y="-287.6" font-family="Arial" font-size="14.00">    </text>
<text text-anchor="start" x="401.18" y="-287.6" font-family="Arial" font-size="14.00" fill="#666666">[BASE TABLE]</text>
<polygon fill="none" stroke="black" points="249.24,-243.4 249.24,-274.2 502.92,-274.2 502.92,-243.4 249.24,-243.4"/>
<text text-anchor="start" x="256.24" y="-255.6" font-family="Arial" font-size="14.00">id </text>
<text text-anchor="start" x="271.02" y="-255.6" font-family="Arial" font-size="14.00" fill="#666666">[bigint]</text>
<polygon fill="none" stroke="black" points="249.24,-212.6 249.24,-243.4 502.92,-243.4 502.92,-212.6 249.24,-212.6"/>
<text text-anchor="start" x="256.24" y="-224.8" font-family="Arial" font-size="14.00">type </text>
<text text-anchor="start" x="286.59" y="-224.8" font-family="Arial" font-size="14.00" fill="#666666">[channel_type]</text>
<polygon fill="none" stroke="black" points="249.24,-181.8 249.24,-212.6 502.92,-212.6 502.92,-181.8 249.24,-181.8"/>
<text text-anchor="start" x="256.24" y="-194" font-family="Arial" font-size="14.00">guild_id </text>
<text text-anchor="start" x="308.39" y="-194" font-family="Arial" font-size="14.00" fill="#666666">[bigint]</text>
<polygon fill="none" stroke="black" points="249.24,-151 249.24,-181.8 502.92,-181.8 502.92,-151 249.24,-151"/>
<text text-anchor="start" x="256.24" y="-163.2" font-family="Arial" font-size="14.00">name </text>
<text text-anchor="start" x="295.15" y="-163.2" font-family="Arial" font-size="14.00" fill="#666666">[text]</text>
<polygon fill="none" stroke="black" points="249.24,-120.2 249.24,-151 502.92,-151 502.92,-120.2 249.24,-120.2"/>
<text text-anchor="start" x="256.24" y="-132.4" font-family="Arial" font-size="14.00">created_by </text>
<text text-anchor="start" x="329.39" y="-132.4" font-family="Arial" font-size="14.00" fill="#666666">[bigint]</text>
<polygon fill="none" stroke="black" points="249.24,-89.4 249.24,-120.2 502.92,-120.2 502.92,-89.4 249.24,-89.4"/>
<text text-anchor="start" x="256.24" y="-101.6" font-family="Arial" font-size="14.00">created_at </text>
<text text-anchor="start" x="326.28" y="-101.6" font-family="Arial" font-size="14.00" fill="#666666">[timestamp with time zone]</text>
<polygon fill="none" stroke="black" points="249.24,-58.6 249.24,-89.4 502.92,-89.4 502.92,-58.6 249.24,-58.6"/>
<text text-anchor="start" x="256.24" y="-70.8" font-family="Arial" font-size="14.00">updated_at </text>
<text text-anchor="start" x="330.19" y="-70.8" font-family="Arial" font-size="14.00" fill="#666666">[timestamp with time zone]</text>
</g>
<!-- public.message_reactions_v2&#45;&gt;public.channels -->
<g id="edge1" class="edge">
<title>public.message_reactions_v2:channel_id&#45;&gt;public.channels:id</title>
<path fill="none" stroke="black" d="M368.76,-557.55C314.11,-547.9 344.09,-458.15 380.11,-404.4 413.05,-355.25 469.88,-402.08 502.92,-353 526.3,-318.27 545.79,-258.8 503.92,-258.8"/>
<polygon fill="black" stroke="black" points="368.81,-557.55 378.41,-562.86 374.13,-557.99 378.45,-558.35 378.45,-558.35 378.45,-558.35 374.13,-557.99 379.15,-553.89 368.81,-557.55"/>
<text text-anchor="start" x="7" y="-568.4" font-family="Arial" font-size="10.00">FOREIGN KEY (channel_id) REFERENCES channels(id) ON DELETE CASCADE</text>
</g>
<!-- public.users -->
<g id="node3" class="node">
<title>public.users</title>
<polygon fill="#efefef" stroke="none" points="607.24,-289.6 607.24,-325.2 860.92,-325.2 860.92,-289.6 607.24,-289.6"/>
<polygon fill="none" stroke="black" points="607.24,-289.6 607.24,-325.2 860.92,-325.2 860.92,-289.6 607.24,-289.6"/>
<text text-anchor="start" x="628.59" y="-303" font-family="Arial Bold" font-size="18.00">public.users</text>
<text text-anchor="start" x="715.07" y="-303" font-family="Arial" font-size="14.00">    </text>
<text text-anchor="start" x="746.19" y="-303" font-family="Arial" font-size="14.00" fill="#666666">[BASE TABLE]</text>
<polygon fill="none" stroke="black" points="607.24,-258.8 607.24,-289.6 860.92,-289.6 860.92,-258.8 607.24,-258.8"/>
<text text-anchor="start" x="614.24" y="-271" font-family="Arial" font-size="14.00">id </text>
<text text-anchor="start" x="629.02" y="-271" font-family="Arial" font-size="14.00" fill="#666666">[bigint]</text>
<polygon fill="none" stroke="black" points="607.24,-228 607.24,-258.8 860.92,-258.8 860.92,-228 607.24,-228"/>
<text text-anchor="start" x="614.24" y="-240.2" font-family="Arial" font-size="14.00">email </text>
<text text-anchor="start" x="651.58" y="-240.2" font-family="Arial" font-size="14.00" fill="#666666">[text]</text>
<polygon fill="none" stroke="black" points="607.24,-197.2 607.24,-228 860.92,-228 860.92,-197.2 607.24,-197.2"/>
<text text-anchor="start" x="614.24" y="-209.4" font-family="Arial" font-size="14.00">display_name </text>
<text text-anchor="start" x="704.51" y="-209.4" font-family="Arial" font-size="14.00" fill="#666666">[text]</text>
<polygon fill="none" stroke="black" points="607.24,-166.4 607.24,-197.2 860.92,-197.2 860.92,-166.4 607.24,-166.4"/>
<text text-anchor="start" x="614.24" y="-178.6" font-family="Arial" font-size="14.00">avatar_key </text>
<text text-anchor="start" x="686.61" y="-178.6" font-family="Arial" font-size="14.00" fill="#666666">[text]</text>
<polygon fill="none" stroke="black" points="607.24,-135.6 607.24,-166.4 860.92,-166.4 860.92,-135.6 607.24,-135.6"/>
<text text-anchor="start" x="614.24" y="-147.8" font-family="Arial" font-size="14.00">status_text </text>
<text text-anchor="start" x="685.83" y="-147.8" font-family="Arial" font-size="14.00" fill="#666666">[text]</text>
<polygon fill="none" stroke="black" points="607.24,-104.8 607.24,-135.6 860.92,-135.6 860.92,-104.8 607.24,-104.8"/>
<text text-anchor="start" x="614.24" y="-117" font-family="Arial" font-size="14.00">theme </text>
<text text-anchor="start" x="657.04" y="-117" font-family="Arial" font-size="14.00" fill="#666666">[text]</text>
<polygon fill="none" stroke="black" points="607.24,-74 607.24,-104.8 860.92,-104.8 860.92,-74 607.24,-74"/>
<text text-anchor="start" x="614.24" y="-86.2" font-family="Arial" font-size="14.00">created_at </text>
<text text-anchor="start" x="684.28" y="-86.2" font-family="Arial" font-size="14.00" fill="#666666">[timestamp with time zone]</text>
<polygon fill="none" stroke="black" points="607.24,-43.2 607.24,-74 860.92,-74 860.92,-43.2 607.24,-43.2"/>
<text text-anchor="start" x="614.24" y="-55.4" font-family="Arial" font-size="14.00">updated_at </text>
<text text-anchor="start" x="688.19" y="-55.4" font-family="Arial" font-size="14.00" fill="#666666">[timestamp with time zone]</text>
</g>
<!-- public.message_reactions_v2&#45;&gt;public.users -->
<g id="edge2" class="edge">
<title>public.message_reactions_v2:user_id&#45;&gt;public.users:id</title>
<path fill="none" stroke="black" d="M741.09,-495.3C768.8,-485.85 752.51,-434.07 730.04,-404.4 695.7,-359.06 641.57,-413.74 607.24,-368.4 581.96,-335.02 564.37,-274.2 606.24,-274.2"/>
<polygon fill="black" stroke="black" points="741.26,-495.27 730.71,-492.3 735.99,-496.06 731.7,-496.7 731.7,-496.7 731.7,-496.7 735.99,-496.06 732.04,-501.2 741.26,-495.27"/>
<text text-anchor="start" x="738.04" y="-506.8" font-family="Arial" font-size="10.00">FOREIGN KEY (user_id) REFERENCES users(id) ON DELETE CASCADE</text>
</g>
</g>
</svg>
