<?xml version="1.0" encoding="UTF-8" standalone="no"?>
<!DOCTYPE svg PUBLIC "-//W3C//DTD SVG 1.1//EN"
 "http://www.w3.org/Graphics/SVG/1.1/DTD/svg11.dtd">
<!-- Generated by graphviz version 12.1.2 (20240928.0832)
 -->
<!-- Title: public.guilds Pages: 1 -->
<svg width="2338pt" height="1191pt"
 viewBox="0.00 0.00 2337.83 1191.20" xmlns="http://www.w3.org/2000/svg" xmlns:xlink="http://www.w3.org/1999/xlink">
<g id="graph0" class="graph" transform="scale(1 1) rotate(0) translate(4 1187.2)">
<title>public.guilds</title>
<polygon fill="white" stroke="none" points="-4,4 -4,-1187.2 2333.83,-1187.2 2333.83,4 -4,4"/>
<!-- public.guilds -->
<g id="node1" class="node">
<title>public.guilds</title>
<polygon fill="#efefef" stroke="none" points="982.34,-635.4 982.34,-671 1236.02,-671 1236.02,-635.4 982.34,-635.4"/>
<polygon fill="none" stroke="black" points="982.34,-635.4 982.34,-671 1236.02,-671 1236.02,-635.4 982.34,-635.4"/>
<text text-anchor="start" x="1000.19" y="-648.8" font-family="Arial Bold" font-size="18.00">public.guilds</text>
<text text-anchor="start" x="1093.69" y="-648.8" font-family="Arial" font-size="14.00">    </text>
<text text-anchor="start" x="1124.8" y="-648.8" font-family="Arial" font-size="14.00" fill="#666666">[BASE TABLE]</text>
<polygon fill="none" stroke="black" points="982.34,-604.6 982.34,-635.4 1236.02,-635.4 1236.02,-604.6 982.34,-604.6"/>
<text text-anchor="start" x="989.34" y="-616.8" font-family="Arial" font-size="14.00">id </text>
<text text-anchor="start" x="1004.13" y="-616.8" font-family="Arial" font-size="14.00" fill="#666666">[bigint]</text>
<polygon fill="none" stroke="black" points="982.34,-573.8 982.34,-604.6 1236.02,-604.6 1236.02,-573.8 982.34,-573.8"/>
<text text-anchor="start" x="989.34" y="-586" font-family="Arial" font-size="14.00">name </text>
<text text-anchor="start" x="1028.25" y="-586" font-family="Arial" font-size="14.00" fill="#666666">[text]</text>
<polygon fill="none" stroke="black" points="982.34,-543 982.34,-573.8 1236.02,-573.8 1236.02,-543 982.34,-543"/>
<text text-anchor="start" x="989.34" y="-555.2" font-family="Arial" font-size="14.00">owner_id </text>
<text text-anchor="start" x="1050.04" y="-555.2" font-family="Arial" font-size="14.00" fill="#666666">[bigint]</text>
<polygon fill="none" stroke="black" points="982.34,-512.2 982.34,-543 1236.02,-543 1236.02,-512.2 982.34,-512.2"/>
<text text-anchor="start" x="989.34" y="-524.4" font-family="Arial" font-size="14.00">icon_key </text>
<text text-anchor="start" x="1048.48" y="-524.4" font-family="Arial" font-size="14.00" fill="#666666">[text]</text>
<polygon fill="none" stroke="black" points="982.34,-481.4 982.34,-512.2 1236.02,-512.2 1236.02,-481.4 982.34,-481.4"/>
<text text-anchor="start" x="989.34" y="-493.6" font-family="Arial" font-size="14.00">created_at </text>
<text text-anchor="start" x="1059.39" y="-493.6" font-family="Arial" font-size="14.00" fill="#666666">[timestamp with time zone]</text>
<polygon fill="none" stroke="black" points="982.34,-450.6 982.34,-481.4 1236.02,-481.4 1236.02,-450.6 982.34,-450.6"/>
<text text-anchor="start" x="989.34" y="-462.8" font-family="Arial" font-size="14.00">updated_at </text>
<text text-anchor="start" x="1063.3" y="-462.8" font-family="Arial" font-size="14.00" fill="#666666">[timestamp with time zone]</text>
<polygon fill="none" stroke="black" stroke-width="3" points="980.84,-449.1 980.84,-672.5 1237.52,-672.5 1237.52,-449.1 980.84,-449.1"/>
</g>
<!-- public.users -->
<g id="node8" class="node">
<title>public.users</title>
<polygon fill="#efefef" stroke="none" points="982.34,-289.6 982.34,-325.2 1236.02,-325.2 1236.02,-289.6 982.34,-289.6"/>
<polygon fill="none" stroke="black" points="982.34,-289.6 982.34,-325.2 1236.02,-325.2 1236.02,-289.6 982.34,-289.6"/>
<text text-anchor="start" x="1003.69" y="-303" font-family="Arial Bold" font-size="18.00">public.users</text>
<text text-anchor="start" x="1090.18" y="-303" font-family="Arial" font-size="14.00">    </text>
<text text-anchor="start" x="1121.3" y="-303" font-family="Arial" font-size="14.00" fill="#666666">[BASE TABLE]</text>
<polygon fill="none" stroke="black" points="982.34,-258.8 982.34,-289.6 1236.02,-289.6 1236.02,-258.8 982.34,-258.8"/>
<text text-anchor="start" x="989.34" y="-271" font-family="Arial" font-size="14.00">id </text>
<text text-anchor="start" x="1004.13" y="-271" font-family="Arial" font-size="14.00" fill="#666666">[bigint]</text>
<polygon fill="none" stroke="black" points="982.34,-228 982.34,-258.8 1236.02,-258.8 1236.02,-228 982.34,-228"/>
<text text-anchor="start" x="989.34" y="-240.2" font-family="Arial" font-size="14.00">email </text>
<text text-anchor="start" x="1026.68" y="-240.2" font-family="Arial" font-size="14.00" fill="#666666">[text]</text>
<polygon fill="none" stroke="black" points="982.34,-197.2 982.34,-228 1236.02,-228 1236.02,-197.2 982.34,-197.2"/>
<text text-anchor="start" x="989.34" y="-209.4" font-family="Arial" font-size="14.00">display_name </text>
<text text-anchor="start" x="1079.62" y="-209.4" font-family="Arial" font-size="14.00" fill="#666666">[text]</text>
<polygon fill="none" stroke="black" points="982.34,-166.4 982.34,-197.2 1236.02,-197.2 1236.02,-166.4 982.34,-166.4"/>
<text text-anchor="start" x="989.34" y="-178.6" font-family="Arial" font-size="14.00">avatar_key </text>
<text text-anchor="start" x="1061.71" y="-178.6" font-family="Arial" font-size="14.00" fill="#666666">[text]</text>
<polygon fill="none" stroke="black" points="982.34,-135.6 982.34,-166.4 1236.02,-166.4 1236.02,-135.6 982.34,-135.6"/>
<text text-anchor="start" x="989.34" y="-147.8" font-family="Arial" font-size="14.00">status_text </text>
<text text-anchor="start" x="1060.93" y="-147.8" font-family="Arial" font-size="14.00" fill="#666666">[text]</text>
<polygon fill="none" stroke="black" points="982.34,-104.8 982.34,-135.6 1236.02,-135.6 1236.02,-104.8 982.34,-104.8"/>
<text text-anchor="start" x="989.34" y="-117" font-family="Arial" font-size="14.00">theme </text>
<text text-anchor="start" x="1032.14" y="-117" font-family="Arial" font-size="14.00" fill="#666666">[text]</text>
<polygon fill="none" stroke="black" points="982.34,-74 982.34,-104.8 1236.02,-104.8 1236.02,-74 982.34,-74"/>
<text text-anchor="start" x="989.34" y="-86.2" font-family="Arial" font-size="14.00">created_at </text>
<text text-anchor="start" x="1059.39" y="-86.2" font-family="Arial" font-size="14.00" fill="#666666">[timestamp with time zone]</text>
<polygon fill="none" stroke="black" points="982.34,-43.2 982.34,-74 1236.02,-74 1236.02,-43.2 982.34,-43.2"/>
<text text-anchor="start" x="989.34" y="-55.4" font-family="Arial" font-size="14.00">updated_at </text>
<text text-anchor="start" x="1063.3" y="-55.4" font-family="Arial" font-size="14.00" fill="#666666">[timestamp with time zone]</text>
</g>
<!-- public.guilds&#45;&gt;public.users -->
<g id="edge7" class="edge">
<title>public.guilds:owner_id&#45;&gt;public.users:id</title>
<path fill="none" stroke="black" d="M1247.1,-557.77C1363.24,-543.07 1359.88,-274.2 1237.02,-274.2"/>
<polygon fill="black" stroke="black" points="1247.34,-557.76 1237.08,-553.89 1242.01,-558.09 1237.69,-558.36 1237.69,-558.36 1237.69,-558.36 1242.01,-558.09 1237.63,-562.87 1247.34,-557.76"/>
<text text-anchor="start" x="1244.02" y="-568.4" font-family="Arial" font-size="10.00">FOREIGN KEY (owner_id) REFERENCES users(id) ON DELETE RESTRICT</text>
</g>
<!-- public.guild_members -->
<g id="node2" class="node">
<title>public.guild_members</title>
<polygon fill="#efefef" stroke="none" points="43.2,-1012 43.2,-1047.6 343.16,-1047.6 343.16,-1012 43.2,-1012"/>
<polygon fill="none" stroke="black" points="43.2,-1012 43.2,-1047.6 343.16,-1047.6 343.16,-1012 43.2,-1012"/>
<text text-anchor="start" x="50.2" y="-1025.4" font-family="Arial Bold" font-size="18.00">public.guild_members</text>
<text text-anchor="start" x="211.67" y="-1025.4" font-family="Arial" font-size="14.00">    </text>
<text text-anchor="start" x="242.79" y="-1025.4" font-family="Arial" font-size="14.00" fill="#666666">[BASE TABLE]</text>
<polygon fill="none" stroke="black" points="43.2,-981.2 43.2,-1012 343.16,-1012 343.16,-981.2 43.2,-981.2"/>
<text text-anchor="start" x="50.2" y="-993.4" font-family="Arial" font-size="14.00">guild_id </text>
<text text-anchor="start" x="102.35" y="-993.4" font-family="Arial" font-size="14.00" fill="#666666">[bigint]</text>
<polygon fill="none" stroke="black" points="43.2,-950.4 43.2,-981.2 343.16,-981.2 343.16,-950.4 43.2,-950.4"/>
<text text-anchor="start" x="50.2" y="-962.6" font-family="Arial" font-size="14.00">user_id </text>
<text text-anchor="start" x="100.01" y="-962.6" font-family="Arial" font-size="14.00" fill="#666666">[bigint]</text>
<polygon fill="none" stroke="black" points="43.2,-919.6 43.2,-950.4 343.16,-950.4 343.16,-919.6 43.2,-919.6"/>
<text text-anchor="start" x="50.2" y="-931.8" font-family="Arial" font-size="14.00">joined_at </text>
<text text-anchor="start" x="110.92" y="-931.8" font-family="Arial" font-size="14.00" fill="#666666">[timestamp with time zone]</text>
<polygon fill="none" stroke="black" points="43.2,-888.8 43.2,-919.6 343.16,-919.6 343.16,-888.8 43.2,-888.8"/>
<text text-anchor="start" x="50.2" y="-901" font-family="Arial" font-size="14.00">nickname </text>
<text text-anchor="start" x="114.01" y="-901" font-family="Arial" font-size="14.00" fill="#666666">[text]</text>
</g>
<!-- public.guild_members&#45;&gt;public.guilds -->
<g id="edge1" class="edge">
<title>public.guild_members:guild_id&#45;&gt;public.guilds:id</title>
<path fill="none" stroke="black" d="M354.37,-996.06C445.83,-985.76 320.26,-829.39 395.18,-753.2 488.84,-657.95 847.76,-620 981.34,-620"/>
<polygon fill="black" stroke="black" points="354.48,-996.06 344.26,-992.09 349.16,-996.34 344.83,-996.56 344.83,-996.56 344.83,-996.56 349.16,-996.34 344.73,-1001.08 354.48,-996.06"/>
<text text-anchor="start" x="351.16" y="-1006.6" font-family="Arial" font-size="10.00">FOREIGN KEY (guild_id) REFERENCES guilds(id) ON DELETE CASCADE</text>
</g>
<!-- public.invites -->
<g id="node3" class="node">
<title>public.invites</title>
<polygon fill="#efefef" stroke="none" points="447.3,-1089 447.3,-1124.6 697.07,-1124.6 697.07,-1089 447.3,-1089"/>
<polygon fill="none" stroke="black" points="447.3,-1089 447.3,-1124.6 697.07,-1124.6 697.07,-1089 447.3,-1089"/>
<text text-anchor="start" x="461.19" y="-1102.4" font-family="Arial Bold" font-size="18.00">public.invites</text>
<text text-anchor="start" x="558.68" y="-1102.4" font-family="Arial" font-size="14.00">    </text>
<text text-anchor="start" x="589.8" y="-1102.4" font-family="Arial" font-size="14.00" fill="#666666">[BASE TABLE]</text>
<polygon fill="none" stroke="black" points="447.3,-1058.2 447.3,-1089 697.07,-1089 697.07,-1058.2 447.3,-1058.2"/>
<text text-anchor="start" x="454.3" y="-1070.4" font-family="Arial" font-size="14.00">id </text>
<text text-anchor="start" x="469.08" y="-1070.4" font-family="Arial" font-size="14.00" fill="#666666">[bigint]</text>
<polygon fill="none" stroke="black" points="447.3,-1027.4 447.3,-1058.2 697.07,-1058.2 697.07,-1027.4 447.3,-1027.4"/>
<text text-anchor="start" x="454.3" y="-1039.6" font-family="Arial" font-size="14.00">guild_id </text>
<text text-anchor="start" x="506.45" y="-1039.6" font-family="Arial" font-size="14.00" fill="#666666">[bigint]</text>
<polygon fill="none" stroke="black" points="447.3,-996.6 447.3,-1027.4 697.07,-1027.4 697.07,-996.6 447.3,-996.6"/>
<text text-anchor="start" x="454.3" y="-1008.8" font-family="Arial" font-size="14.00">created_by </text>
<text text-anchor="start" x="527.45" y="-1008.8" font-family="Arial" font-size="14.00" fill="#666666">[bigint]</text>
<polygon fill="none" stroke="black" points="447.3,-965.8 447.3,-996.6 697.07,-996.6 697.07,-965.8 447.3,-965.8"/>
<text text-anchor="start" x="454.3" y="-978" font-family="Arial" font-size="14.00">code </text>
<text text-anchor="start" x="488.54" y="-978" font-family="Arial" font-size="14.00" fill="#666666">[text]</text>
<polygon fill="none" stroke="black" points="447.3,-935 447.3,-965.8 697.07,-965.8 697.07,-935 447.3,-935"/>
<text text-anchor="start" x="454.3" y="-947.2" font-family="Arial" font-size="14.00">expires_at </text>
<text text-anchor="start" x="522.78" y="-947.2" font-family="Arial" font-size="14.00" fill="#666666">[timestamp with time zone]</text>
<polygon fill="none" stroke="black" points="447.3,-904.2 447.3,-935 697.07,-935 697.07,-904.2 447.3,-904.2"/>
<text text-anchor="start" x="454.3" y="-916.4" font-family="Arial" font-size="14.00">max_uses </text>
<text text-anchor="start" x="521.99" y="-916.4" font-family="Arial" font-size="14.00" fill="#666666">[integer]</text>
<polygon fill="none" stroke="black" points="447.3,-873.4 447.3,-904.2 697.07,-904.2 697.07,-873.4 447.3,-873.4"/>
<text text-anchor="start" x="454.3" y="-885.6" font-family="Arial" font-size="14.00">uses </text>
<text text-anchor="start" x="487.76" y="-885.6" font-family="Arial" font-size="14.00" fill="#666666">[integer]</text>
<polygon fill="none" stroke="black" points="447.3,-842.6 447.3,-873.4 697.07,-873.4 697.07,-842.6 447.3,-842.6"/>
<text text-anchor="start" x="454.3" y="-854.8" font-family="Arial" font-size="14.00">is_disabled </text>
<text text-anchor="start" x="528.23" y="-854.8" font-family="Arial" font-size="14.00" fill="#666666">[boolean]</text>
<polygon fill="none" stroke="black" points="447.3,-811.8 447.3,-842.6 697.07,-842.6 697.07,-811.8 447.3,-811.8"/>
<text text-anchor="start" x="454.3" y="-824" font-family="Arial" font-size="14.00">created_at </text>
<text text-anchor="start" x="524.34" y="-824" font-family="Arial" font-size="14.00" fill="#666666">[timestamp with time zone]</text>
</g>
<!-- public.invites&#45;&gt;public.guilds -->
<g id="edge2" class="edge">
<title>public.invites:guild_id&#45;&gt;public.guilds:id</title>
<path fill="none" stroke="black" d="M708.08,-1040.6C757.84,-1016.64 713.75,-803.65 749.18,-753.2 817.55,-655.85 862.38,-620 981.34,-620"/>
<polygon fill="black" stroke="black" points="708.16,-1040.59 697.43,-1038.33 702.95,-1041.73 698.72,-1042.66 698.72,-1042.66 698.72,-1042.66 702.95,-1041.73 699.36,-1047.12 708.16,-1040.59"/>
<text text-anchor="start" x="353.76" y="-1052.8" font-family="Arial" font-size="10.00">FOREIGN KEY (guild_id) REFERENCES guilds(id) ON DELETE CASCADE</text>
</g>
<!-- public.channels -->
<g id="node4" class="node">
<title>public.channels</title>
<polygon fill="#efefef" stroke="none" points="801.34,-1058.2 801.34,-1093.8 1055.02,-1093.8 1055.02,-1058.2 801.34,-1058.2"/>
<polygon fill="none" stroke="black" points="801.34,-1058.2 801.34,-1093.8 1055.02,-1093.8 1055.02,-1058.2 801.34,-1058.2"/>
<text text-anchor="start" x="809.7" y="-1071.6" font-family="Arial Bold" font-size="18.00">public.channels</text>
<text text-anchor="start" x="922.17" y="-1071.6" font-family="Arial" font-size="14.00">    </text>
<text text-anchor="start" x="953.29" y="-1071.6" font-family="Arial" font-size="14.00" fill="#666666">[BASE TABLE]</text>
<polygon fill="none" stroke="black" points="801.34,-1027.4 801.34,-1058.2 1055.02,-1058.2 1055.02,-1027.4 801.34,-1027.4"/>
<text text-anchor="start" x="808.34" y="-1039.6" font-family="Arial" font-size="14.00">id </text>
<text text-anchor="start" x="823.13" y="-1039.6" font-family="Arial" font-size="14.00" fill="#666666">[bigint]</text>
<polygon fill="none" stroke="black" points="801.34,-996.6 801.34,-1027.4 1055.02,-1027.4 1055.02,-996.6 801.34,-996.6"/>
<text text-anchor="start" x="808.34" y="-1008.8" font-family="Arial" font-size="14.00">type </text>
<text text-anchor="start" x="838.69" y="-1008.8" font-family="Arial" font-size="14.00" fill="#666666">[channel_type]</text>
<polygon fill="none" stroke="black" points="801.34,-965.8 801.34,-996.6 1055.02,-996.6 1055.02,-965.8 801.34,-965.8"/>
<text text-anchor="start" x="808.34" y="-978" font-family="Arial" font-size="14.00">guild_id </text>
<text text-anchor="start" x="860.49" y="-978" font-family="Arial" font-size="14.00" fill="#666666">[bigint]</text>
<polygon fill="none" stroke="black" points="801.34,-935 801.34,-965.8 1055.02,-965.8 1055.02,-935 801.34,-935"/>
<text text-anchor="start" x="808.34" y="-947.2" font-family="Arial" font-size="14.00">name </text>
<text text-anchor="start" x="847.25" y="-947.2" font-family="Arial" font-size="14.00" fill="#666666">[text]</text>
<polygon fill="none" stroke="black" points="801.34,-904.2 801.34,-935 1055.02,-935 1055.02,-904.2 801.34,-904.2"/>
<text text-anchor="start" x="808.34" y="-916.4" font-family="Arial" font-size="14.00">created_by </text>
<text text-anchor="start" x="881.5" y="-916.4" font-family="Arial" font-size="14.00" fill="#666666">[bigint]</text>
<polygon fill="none" stroke="black" points="801.34,-873.4 801.34,-904.2 1055.02,-904.2 1055.02,-873.4 801.34,-873.4"/>
<text text-anchor="start" x="808.34" y="-885.6" font-family="Arial" font-size="14.00">created_at </text>
<text text-anchor="start" x="878.39" y="-885.6" font-family="Arial" font-size="14.00" fill="#666666">[timestamp with time zone]</text>
<polygon fill="none" stroke="black" points="801.34,-842.6 801.34,-873.4 1055.02,-873.4 1055.02,-842.6 801.34,-842.6"/>
<text text-anchor="start" x="808.34" y="-854.8" font-family="Arial" font-size="14.00">updated_at </text>
<text text-anchor="start" x="882.3" y="-854.8" font-family="Arial" font-size="14.00" fill="#666666">[timestamp with time zone]</text>
</g>
<!-- public.channels&#45;&gt;public.guilds -->
<g id="edge3" class="edge">
<title>public.channels:guild_id&#45;&gt;public.guilds:id</title>
<path fill="none" stroke="black" d="M1066.12,-980.57C1132.11,-971.71 1082.55,-871.49 1055.02,-799.4 1037.63,-753.84 999.85,-762.72 982.34,-717.2 966.83,-676.88 938.14,-620 981.34,-620"/>
<polygon fill="black" stroke="black" points="1066.34,-980.55 1056.07,-976.69 1061.01,-980.89 1056.69,-981.16 1056.69,-981.16 1056.69,-981.16 1061.01,-980.89 1056.64,-985.67 1066.34,-980.55"/>
<text text-anchor="start" x="711.71" y="-991.2" font-family="Arial" font-size="10.00">FOREIGN KEY (guild_id) REFERENCES guilds(id) ON DELETE CASCADE</text>
</g>
<!-- public.audit_logs -->
<g id="node5" class="node">
<title>public.audit_logs</title>
<polygon fill="#efefef" stroke="none" points="1159.69,-1073.6 1159.69,-1109.2 1422.67,-1109.2 1422.67,-1073.6 1159.69,-1073.6"/>
<polygon fill="none" stroke="black" points="1159.69,-1073.6 1159.69,-1109.2 1422.67,-1109.2 1422.67,-1073.6 1159.69,-1073.6"/>
<text text-anchor="start" x="1166.69" y="-1087" font-family="Arial Bold" font-size="18.00">public.audit_logs</text>
<text text-anchor="start" x="1291.18" y="-1087" font-family="Arial" font-size="14.00">    </text>
<text text-anchor="start" x="1322.3" y="-1087" font-family="Arial" font-size="14.00" fill="#666666">[BASE TABLE]</text>
<polygon fill="none" stroke="black" points="1159.69,-1042.8 1159.69,-1073.6 1422.67,-1073.6 1422.67,-1042.8 1159.69,-1042.8"/>
<text text-anchor="start" x="1166.69" y="-1055" font-family="Arial" font-size="14.00">id </text>
<text text-anchor="start" x="1181.48" y="-1055" font-family="Arial" font-size="14.00" fill="#666666">[bigint]</text>
<polygon fill="none" stroke="black" points="1159.69,-1012 1159.69,-1042.8 1422.67,-1042.8 1422.67,-1012 1159.69,-1012"/>
<text text-anchor="start" x="1166.69" y="-1024.2" font-family="Arial" font-size="14.00">guild_id </text>
<text text-anchor="start" x="1218.84" y="-1024.2" font-family="Arial" font-size="14.00" fill="#666666">[bigint]</text>
<polygon fill="none" stroke="black" points="1159.69,-981.2 1159.69,-1012 1422.67,-1012 1422.67,-981.2 1159.69,-981.2"/>
<text text-anchor="start" x="1166.69" y="-993.4" font-family="Arial" font-size="14.00">actor_id </text>
<text text-anchor="start" x="1220.39" y="-993.4" font-family="Arial" font-size="14.00" fill="#666666">[bigint]</text>
<polygon fill="none" stroke="black" points="1159.69,-950.4 1159.69,-981.2 1422.67,-981.2 1422.67,-950.4 1159.69,-950.4"/>
<text text-anchor="start" x="1166.69" y="-962.6" font-family="Arial" font-size="14.00">action </text>
<text text-anchor="start" x="1207.94" y="-962.6" font-family="Arial" font-size="14.00" fill="#666666">[audit_action]</text>
<polygon fill="none" stroke="black" points="1159.69,-919.6 1159.69,-950.4 1422.67,-950.4 1422.67,-919.6 1159.69,-919.6"/>
<text text-anchor="start" x="1166.69" y="-931.8" font-family="Arial" font-size="14.00">target_type </text>
<text text-anchor="start" x="1240.63" y="-931.8" font-family="Arial" font-size="14.00" fill="#666666">[text]</text>
<polygon fill="none" stroke="black" points="1159.69,-888.8 1159.69,-919.6 1422.67,-919.6 1422.67,-888.8 1159.69,-888.8"/>
<text text-anchor="start" x="1166.69" y="-901" font-family="Arial" font-size="14.00">target_id </text>
<text text-anchor="start" x="1225.06" y="-901" font-family="Arial" font-size="14.00" fill="#666666">[bigint]</text>
<polygon fill="none" stroke="black" points="1159.69,-858 1159.69,-888.8 1422.67,-888.8 1422.67,-858 1159.69,-858"/>
<text text-anchor="start" x="1166.69" y="-870.2" font-family="Arial" font-size="14.00">metadata </text>
<text text-anchor="start" x="1228.95" y="-870.2" font-family="Arial" font-size="14.00" fill="#666666">[jsonb]</text>
<polygon fill="none" stroke="black" points="1159.69,-827.2 1159.69,-858 1422.67,-858 1422.67,-827.2 1159.69,-827.2"/>
<text text-anchor="start" x="1166.69" y="-839.4" font-family="Arial" font-size="14.00">created_at </text>
<text text-anchor="start" x="1236.74" y="-839.4" font-family="Arial" font-size="14.00" fill="#666666">[timestamp with time zone]</text>
</g>
<!-- public.audit_logs&#45;&gt;public.guilds -->
<g id="edge4" class="edge">
<title>public.audit_logs:guild_id&#45;&gt;public.guilds:id</title>
<path fill="none" stroke="black" d="M1148.78,-1024.79C1109.02,-1001.53 1138.78,-829.85 1159.69,-784 1178.4,-742.99 1217.18,-758.16 1236.02,-717.2 1254.07,-677.95 1280.22,-620 1237.02,-620"/>
<polygon fill="black" stroke="black" points="1148.7,-1024.76 1157.22,-1031.67 1153.86,-1026.12 1158.05,-1027.23 1158.05,-1027.23 1158.05,-1027.23 1153.86,-1026.12 1159.52,-1022.96 1148.7,-1024.76"/>
<text text-anchor="start" x="814.93" y="-1037.4" font-family="Arial" font-size="10.00">FOREIGN KEY (guild_id) REFERENCES guilds(id) ON DELETE SET NULL</text>
</g>
<!-- public.guild_roles_v2 -->
<g id="node6" class="node">
<title>public.guild_roles_v2</title>
<polygon fill="#efefef" stroke="none" points="1527.2,-1104.4 1527.2,-1140 1823.17,-1140 1823.17,-1104.4 1527.2,-1104.4"/>
<polygon fill="none" stroke="black" points="1527.2,-1104.4 1527.2,-1140 1823.17,-1140 1823.17,-1104.4 1527.2,-1104.4"/>
<text text-anchor="start" x="1534.2" y="-1117.8" font-family="Arial Bold" font-size="18.00">public.guild_roles_v2</text>
<text text-anchor="start" x="1691.68" y="-1117.8" font-family="Arial" font-size="14.00">    </text>
<text text-anchor="start" x="1722.79" y="-1117.8" font-family="Arial" font-size="14.00" fill="#666666">[BASE TABLE]</text>
<polygon fill="none" stroke="black" points="1527.2,-1073.6 1527.2,-1104.4 1823.17,-1104.4 1823.17,-1073.6 1527.2,-1073.6"/>
<text text-anchor="start" x="1534.2" y="-1085.8" font-family="Arial" font-size="14.00">guild_id </text>
<text text-anchor="start" x="1586.35" y="-1085.8" font-family="Arial" font-size="14.00" fill="#666666">[bigint]</text>
<polygon fill="none" stroke="black" points="1527.2,-1042.8 1527.2,-1073.6 1823.17,-1073.6 1823.17,-1042.8 1527.2,-1042.8"/>
<text text-anchor="start" x="1534.2" y="-1055" font-family="Arial" font-size="14.00">role_key </text>
<text text-anchor="start" x="1591" y="-1055" font-family="Arial" font-size="14.00" fill="#666666">[text]</text>
<polygon fill="none" stroke="black" points="1527.2,-1012 1527.2,-1042.8 1823.17,-1042.8 1823.17,-1012 1527.2,-1012"/>
<text text-anchor="start" x="1534.2" y="-1024.2" font-family="Arial" font-size="14.00">name </text>
<text text-anchor="start" x="1573.11" y="-1024.2" font-family="Arial" font-size="14.00" fill="#666666">[text]</text>
<polygon fill="none" stroke="black" points="1527.2,-981.2 1527.2,-1012 1823.17,-1012 1823.17,-981.2 1527.2,-981.2"/>
<text text-anchor="start" x="1534.2" y="-993.4" font-family="Arial" font-size="14.00">priority </text>
<text text-anchor="start" x="1580.09" y="-993.4" font-family="Arial" font-size="14.00" fill="#666666">[integer]</text>
<polygon fill="none" stroke="black" points="1527.2,-950.4 1527.2,-981.2 1823.17,-981.2 1823.17,-950.4 1527.2,-950.4"/>
<text text-anchor="start" x="1534.2" y="-962.6" font-family="Arial" font-size="14.00">allow_view </text>
<text text-anchor="start" x="1605.78" y="-962.6" font-family="Arial" font-size="14.00" fill="#666666">[boolean]</text>
<polygon fill="none" stroke="black" points="1527.2,-919.6 1527.2,-950.4 1823.17,-950.4 1823.17,-919.6 1527.2,-919.6"/>
<text text-anchor="start" x="1534.2" y="-931.8" font-family="Arial" font-size="14.00">allow_post </text>
<text text-anchor="start" x="1604.24" y="-931.8" font-family="Arial" font-size="14.00" fill="#666666">[boolean]</text>
<polygon fill="none" stroke="black" points="1527.2,-888.8 1527.2,-919.6 1823.17,-919.6 1823.17,-888.8 1527.2,-888.8"/>
<text text-anchor="start" x="1534.2" y="-901" font-family="Arial" font-size="14.00">allow_manage </text>
<text text-anchor="start" x="1628.37" y="-901" font-family="Arial" font-size="14.00" fill="#666666">[boolean]</text>
<polygon fill="none" stroke="black" points="1527.2,-858 1527.2,-888.8 1823.17,-888.8 1823.17,-858 1527.2,-858"/>
<text text-anchor="start" x="1534.2" y="-870.2" font-family="Arial" font-size="14.00">is_system </text>
<text text-anchor="start" x="1600.32" y="-870.2" font-family="Arial" font-size="14.00" fill="#666666">[boolean]</text>
<polygon fill="none" stroke="black" points="1527.2,-827.2 1527.2,-858 1823.17,-858 1823.17,-827.2 1527.2,-827.2"/>
<text text-anchor="start" x="1534.2" y="-839.4" font-family="Arial" font-size="14.00">created_at </text>
<text text-anchor="start" x="1604.24" y="-839.4" font-family="Arial" font-size="14.00" fill="#666666">[timestamp with time zone]</text>
<polygon fill="none" stroke="black" points="1527.2,-796.4 1527.2,-827.2 1823.17,-827.2 1823.17,-796.4 1527.2,-796.4"/>
<text text-anchor="start" x="1534.2" y="-808.6" font-family="Arial" font-size="14.00">updated_at </text>
<text text-anchor="start" x="1608.15" y="-808.6" font-family="Arial" font-size="14.00" fill="#666666">[timestamp with time zone]</text>
</g>
<!-- public.guild_roles_v2&#45;&gt;public.guilds -->
<g id="edge5" class="edge">
<title>public.guild_roles_v2:guild_id&#45;&gt;public.guilds:id</title>
<path fill="none" stroke="black" d="M1516.13,-1087.1C1457.04,-1062.77 1516.06,-812.22 1475.18,-753.2 1406.12,-653.5 1358.3,-620 1237.02,-620"/>
<polygon fill="black" stroke="black" points="1516.04,-1087.08 1525.03,-1093.36 1521.28,-1088.07 1525.54,-1088.88 1525.54,-1088.88 1525.54,-1088.88 1521.28,-1088.07 1526.7,-1084.52 1516.04,-1087.08"/>
<text text-anchor="start" x="1533.2" y="-1099" font-family="Arial" font-size="10.00">FOREIGN KEY (guild_id) REFERENCES guilds(id) ON DELETE CASCADE</text>
</g>
<!-- public.channel_hierarchies_v2 -->
<g id="node7" class="node">
<title>public.channel_hierarchies_v2</title>
<polygon fill="#efefef" stroke="none" points="1927.73,-1089 1927.73,-1124.6 2286.63,-1124.6 2286.63,-1089 1927.73,-1089"/>
<polygon fill="none" stroke="black" points="1927.73,-1089 1927.73,-1124.6 2286.63,-1124.6 2286.63,-1089 1927.73,-1089"/>
<text text-anchor="start" x="1934.73" y="-1102.4" font-family="Arial Bold" font-size="18.00">public.channel_hierarchies_v2</text>
<text text-anchor="start" x="2155.14" y="-1102.4" font-family="Arial" font-size="14.00">    </text>
<text text-anchor="start" x="2186.26" y="-1102.4" font-family="Arial" font-size="14.00" fill="#666666">[BASE TABLE]</text>
<polygon fill="none" stroke="black" points="1927.73,-1058.2 1927.73,-1089 2286.63,-1089 2286.63,-1058.2 1927.73,-1058.2"/>
<text text-anchor="start" x="1934.73" y="-1070.4" font-family="Arial" font-size="14.00">child_channel_id </text>
<text text-anchor="start" x="2042.92" y="-1070.4" font-family="Arial" font-size="14.00" fill="#666666">[bigint]</text>
<polygon fill="none" stroke="black" points="1927.73,-1027.4 1927.73,-1058.2 2286.63,-1058.2 2286.63,-1027.4 1927.73,-1027.4"/>
<text text-anchor="start" x="1934.73" y="-1039.6" font-family="Arial" font-size="14.00">guild_id </text>
<text text-anchor="start" x="1986.88" y="-1039.6" font-family="Arial" font-size="14.00" fill="#666666">[bigint]</text>
<polygon fill="none" stroke="black" points="1927.73,-996.6 1927.73,-1027.4 2286.63,-1027.4 2286.63,-996.6 1927.73,-996.6"/>
<text text-anchor="start" x="1934.73" y="-1008.8" font-family="Arial" font-size="14.00">parent_channel_id </text>
<text text-anchor="start" x="2053.83" y="-1008.8" font-family="Arial" font-size="14.00" fill="#666666">[bigint]</text>
<polygon fill="none" stroke="black" points="1927.73,-965.8 1927.73,-996.6 2286.63,-996.6 2286.63,-965.8 1927.73,-965.8"/>
<text text-anchor="start" x="1934.73" y="-978" font-family="Arial" font-size="14.00">hierarchy_kind </text>
<text text-anchor="start" x="2029.67" y="-978" font-family="Arial" font-size="14.00" fill="#666666">[channel_hierarchy_kind]</text>
<polygon fill="none" stroke="black" points="1927.73,-935 1927.73,-965.8 2286.63,-965.8 2286.63,-935 1927.73,-935"/>
<text text-anchor="start" x="1934.73" y="-947.2" font-family="Arial" font-size="14.00">parent_message_id </text>
<text text-anchor="start" x="2061.59" y="-947.2" font-family="Arial" font-size="14.00" fill="#666666">[bigint]</text>
<polygon fill="none" stroke="black" points="1927.73,-904.2 1927.73,-935 2286.63,-935 2286.63,-904.2 1927.73,-904.2"/>
<text text-anchor="start" x="1934.73" y="-916.4" font-family="Arial" font-size="14.00">position </text>
<text text-anchor="start" x="1986.87" y="-916.4" font-family="Arial" font-size="14.00" fill="#666666">[integer]</text>
<polygon fill="none" stroke="black" points="1927.73,-873.4 1927.73,-904.2 2286.63,-904.2 2286.63,-873.4 1927.73,-873.4"/>
<text text-anchor="start" x="1934.73" y="-885.6" font-family="Arial" font-size="14.00">archived_at </text>
<text text-anchor="start" x="2011" y="-885.6" font-family="Arial" font-size="14.00" fill="#666666">[timestamp with time zone]</text>
<polygon fill="none" stroke="black" points="1927.73,-842.6 1927.73,-873.4 2286.63,-873.4 2286.63,-842.6 1927.73,-842.6"/>
<text text-anchor="start" x="1934.73" y="-854.8" font-family="Arial" font-size="14.00">created_at </text>
<text text-anchor="start" x="2004.78" y="-854.8" font-family="Arial" font-size="14.00" fill="#666666">[timestamp with time zone]</text>
<polygon fill="none" stroke="black" points="1927.73,-811.8 1927.73,-842.6 2286.63,-842.6 2286.63,-811.8 1927.73,-811.8"/>
<text text-anchor="start" x="1934.73" y="-824" font-family="Arial" font-size="14.00">updated_at </text>
<text text-anchor="start" x="2008.69" y="-824" font-family="Arial" font-size="14.00" fill="#666666">[timestamp with time zone]</text>
</g>
<!-- public.channel_hierarchies_v2&#45;&gt;public.guilds -->
<g id="edge6" class="edge">
<title>public.channel_hierarchies_v2:guild_id&#45;&gt;public.guilds:id</title>
<path fill="none" stroke="black" d="M1916.78,-1040.54C1867.75,-1015.93 1918.13,-797.44 1875.18,-753.2 1774.27,-649.26 1381.89,-620 1237.02,-620"/>
<polygon fill="black" stroke="black" points="1916.65,-1040.51 1925.41,-1047.11 1921.85,-1041.69 1926.08,-1042.65 1926.08,-1042.65 1926.08,-1042.65 1921.85,-1041.69 1927.4,-1038.34 1916.65,-1040.51"/>
<text text-anchor="start" x="1933.73" y="-1052.8" font-family="Arial" font-size="10.00">FOREIGN KEY (guild_id) REFERENCES guilds(id) ON DELETE CASCADE</text>
</g>
</g>
</svg>
