<?xml version="1.0" encoding="UTF-8" standalone="no"?>
<!DOCTYPE svg PUBLIC "-//W3C//DTD SVG 1.1//EN"
 "http://www.w3.org/Graphics/SVG/1.1/DTD/svg11.dtd">
<!-- Generated by graphviz version 12.1.2 (20240928.0832)
 -->
<!-- Title: public.guild_members Pages: 1 -->
<svg width="1594pt" height="1037pt"
 viewBox="0.00 0.00 1593.62 1037.20" xmlns="http://www.w3.org/2000/svg" xmlns:xlink="http://www.w3.org/1999/xlink">
<g id="graph0" class="graph" transform="scale(1 1) rotate(0) translate(4 1033.2)">
<title>public.guild_members</title>
<polygon fill="white" stroke="none" points="-4,4 -4,-1033.2 1589.62,-1033.2 1589.62,4 -4,4"/>
<!-- public.guild_members -->
<g id="node1" class="node">
<title>public.guild_members</title>
<polygon fill="#efefef" stroke="none" points="632.49,-573.8 632.49,-609.4 932.45,-609.4 932.45,-573.8 632.49,-573.8"/>
<polygon fill="none" stroke="black" points="632.49,-573.8 632.49,-609.4 932.45,-609.4 932.45,-573.8 632.49,-573.8"/>
<text text-anchor="start" x="639.49" y="-587.2" font-family="Arial Bold" font-size="18.00">public.guild_members</text>
<text text-anchor="start" x="800.96" y="-587.2" font-family="Arial" font-size="14.00">    </text>
<text text-anchor="start" x="832.08" y="-587.2" font-family="Arial" font-size="14.00" fill="#666666">[BASE TABLE]</text>
<polygon fill="none" stroke="black" points="632.49,-543 632.49,-573.8 932.45,-573.8 932.45,-543 632.49,-543"/>
<text text-anchor="start" x="639.49" y="-555.2" font-family="Arial" font-size="14.00">guild_id </text>
<text text-anchor="start" x="691.64" y="-555.2" font-family="Arial" font-size="14.00" fill="#666666">[bigint]</text>
<polygon fill="none" stroke="black" points="632.49,-512.2 632.49,-543 932.45,-543 932.45,-512.2 632.49,-512.2"/>
<text text-anchor="start" x="639.49" y="-524.4" font-family="Arial" font-size="14.00">user_id </text>
<text text-anchor="start" x="689.3" y="-524.4" font-family="Arial" font-size="14.00" fill="#666666">[bigint]</text>
<polygon fill="none" stroke="black" points="632.49,-481.4 632.49,-512.2 932.45,-512.2 932.45,-481.4 632.49,-481.4"/>
<text text-anchor="start" x="639.49" y="-493.6" font-family="Arial" font-size="14.00">joined_at </text>
<text text-anchor="start" x="700.21" y="-493.6" font-family="Arial" font-size="14.00" fill="#666666">[timestamp with time zone]</text>
<polygon fill="none" stroke="black" points="632.49,-450.6 632.49,-481.4 932.45,-481.4 932.45,-450.6 632.49,-450.6"/>
<text text-anchor="start" x="639.49" y="-462.8" font-family="Arial" font-size="14.00">nickname </text>
<text text-anchor="start" x="703.3" y="-462.8" font-family="Arial" font-size="14.00" fill="#666666">[text]</text>
<polygon fill="none" stroke="black" stroke-width="3" points="630.99,-449.1 630.99,-610.9 933.95,-610.9 933.95,-449.1 630.99,-449.1"/>
</g>
<!-- public.guilds -->
<g id="node2" class="node">
<title>public.guilds</title>
<polygon fill="#efefef" stroke="none" points="476.63,-258.8 476.63,-294.4 730.31,-294.4 730.31,-258.8 476.63,-258.8"/>
<polygon fill="none" stroke="black" points="476.63,-258.8 476.63,-294.4 730.31,-294.4 730.31,-258.8 476.63,-258.8"/>
<text text-anchor="start" x="494.48" y="-272.2" font-family="Arial Bold" font-size="18.00">public.guilds</text>
<text text-anchor="start" x="587.98" y="-272.2" font-family="Arial" font-size="14.00">    </text>
<text text-anchor="start" x="619.09" y="-272.2" font-family="Arial" font-size="14.00" fill="#666666">[BASE TABLE]</text>
<polygon fill="none" stroke="black" points="476.63,-228 476.63,-258.8 730.31,-258.8 730.31,-228 476.63,-228"/>
<text text-anchor="start" x="483.63" y="-240.2" font-family="Arial" font-size="14.00">id </text>
<text text-anchor="start" x="498.42" y="-240.2" font-family="Arial" font-size="14.00" fill="#666666">[bigint]</text>
<polygon fill="none" stroke="black" points="476.63,-197.2 476.63,-228 730.31,-228 730.31,-197.2 476.63,-197.2"/>
<text text-anchor="start" x="483.63" y="-209.4" font-family="Arial" font-size="14.00">name </text>
<text text-anchor="start" x="522.54" y="-209.4" font-family="Arial" font-size="14.00" fill="#666666">[text]</text>
<polygon fill="none" stroke="black" points="476.63,-166.4 476.63,-197.2 730.31,-197.2 730.31,-166.4 476.63,-166.4"/>
<text text-anchor="start" x="483.63" y="-178.6" font-family="Arial" font-size="14.00">owner_id </text>
<text text-anchor="start" x="544.33" y="-178.6" font-family="Arial" font-size="14.00" fill="#666666">[bigint]</text>
<polygon fill="none" stroke="black" points="476.63,-135.6 476.63,-166.4 730.31,-166.4 730.31,-135.6 476.63,-135.6"/>
<text text-anchor="start" x="483.63" y="-147.8" font-family="Arial" font-size="14.00">icon_key </text>
<text text-anchor="start" x="542.77" y="-147.8" font-family="Arial" font-size="14.00" fill="#666666">[text]</text>
<polygon fill="none" stroke="black" points="476.63,-104.8 476.63,-135.6 730.31,-135.6 730.31,-104.8 476.63,-104.8"/>
<text text-anchor="start" x="483.63" y="-117" font-family="Arial" font-size="14.00">created_at </text>
<text text-anchor="start" x="553.68" y="-117" font-family="Arial" font-size="14.00" fill="#666666">[timestamp with time zone]</text>
<polygon fill="none" stroke="black" points="476.63,-74 476.63,-104.8 730.31,-104.8 730.31,-74 476.63,-74"/>
<text text-anchor="start" x="483.63" y="-86.2" font-family="Arial" font-size="14.00">updated_at </text>
<text text-anchor="start" x="557.59" y="-86.2" font-family="Arial" font-size="14.00" fill="#666666">[timestamp with time zone]</text>
</g>
<!-- public.guild_members&#45;&gt;public.guilds -->
<g id="edge1" class="edge">
<title>public.guild_members:guild_id&#45;&gt;public.guilds:id</title>
<path fill="none" stroke="black" d="M621.19,-557.58C567.11,-548.26 602.09,-461.52 632.49,-404.4 657.22,-357.93 705.48,-384.02 730.31,-337.6 750.06,-300.68 773.18,-243.4 731.31,-243.4"/>
<polygon fill="black" stroke="black" points="621.19,-557.58 630.8,-562.86 626.51,-558 630.82,-558.35 630.82,-558.35 630.82,-558.35 626.51,-558 631.51,-553.89 621.19,-557.58"/>
<text text-anchor="start" x="287.18" y="-568.4" font-family="Arial" font-size="10.00">FOREIGN KEY (guild_id) REFERENCES guilds(id) ON DELETE CASCADE</text>
</g>
<!-- public.users -->
<g id="node6" class="node">
<title>public.users</title>
<polygon fill="#efefef" stroke="none" points="834.63,-289.6 834.63,-325.2 1088.31,-325.2 1088.31,-289.6 834.63,-289.6"/>
<polygon fill="none" stroke="black" points="834.63,-289.6 834.63,-325.2 1088.31,-325.2 1088.31,-289.6 834.63,-289.6"/>
<text text-anchor="start" x="855.98" y="-303" font-family="Arial Bold" font-size="18.00">public.users</text>
<text text-anchor="start" x="942.47" y="-303" font-family="Arial" font-size="14.00">    </text>
<text text-anchor="start" x="973.59" y="-303" font-family="Arial" font-size="14.00" fill="#666666">[BASE TABLE]</text>
<polygon fill="none" stroke="black" points="834.63,-258.8 834.63,-289.6 1088.31,-289.6 1088.31,-258.8 834.63,-258.8"/>
<text text-anchor="start" x="841.63" y="-271" font-family="Arial" font-size="14.00">id </text>
<text text-anchor="start" x="856.42" y="-271" font-family="Arial" font-size="14.00" fill="#666666">[bigint]</text>
<polygon fill="none" stroke="black" points="834.63,-228 834.63,-258.8 1088.31,-258.8 1088.31,-228 834.63,-228"/>
<text text-anchor="start" x="841.63" y="-240.2" font-family="Arial" font-size="14.00">email </text>
<text text-anchor="start" x="878.98" y="-240.2" font-family="Arial" font-size="14.00" fill="#666666">[text]</text>
<polygon fill="none" stroke="black" points="834.63,-197.2 834.63,-228 1088.31,-228 1088.31,-197.2 834.63,-197.2"/>
<text text-anchor="start" x="841.63" y="-209.4" font-family="Arial" font-size="14.00">display_name </text>
<text text-anchor="start" x="931.91" y="-209.4" font-family="Arial" font-size="14.00" fill="#666666">[text]</text>
<polygon fill="none" stroke="black" points="834.63,-166.4 834.63,-197.2 1088.31,-197.2 1088.31,-166.4 834.63,-166.4"/>
<text text-anchor="start" x="841.63" y="-178.6" font-family="Arial" font-size="14.00">avatar_key </text>
<text text-anchor="start" x="914" y="-178.6" font-family="Arial" font-size="14.00" fill="#666666">[text]</text>
<polygon fill="none" stroke="black" points="834.63,-135.6 834.63,-166.4 1088.31,-166.4 1088.31,-135.6 834.63,-135.6"/>
<text text-anchor="start" x="841.63" y="-147.8" font-family="Arial" font-size="14.00">status_text </text>
<text text-anchor="start" x="913.22" y="-147.8" font-family="Arial" font-size="14.00" fill="#666666">[text]</text>
<polygon fill="none" stroke="black" points="834.63,-104.8 834.63,-135.6 1088.31,-135.6 1088.31,-104.8 834.63,-104.8"/>
<text text-anchor="start" x="841.63" y="-117" font-family="Arial" font-size="14.00">theme </text>
<text text-anchor="start" x="884.43" y="-117" font-family="Arial" font-size="14.00" fill="#666666">[text]</text>
<polygon fill="none" stroke="black" points="834.63,-74 834.63,-104.8 1088.31,-104.8 1088.31,-74 834.63,-74"/>
<text text-anchor="start" x="841.63" y="-86.2" font-family="Arial" font-size="14.00">created_at </text>
<text text-anchor="start" x="911.68" y="-86.2" font-family="Arial" font-size="14.00" fill="#666666">[timestamp with time zone]</text>
<polygon fill="none" stroke="black" points="834.63,-43.2 834.63,-74 1088.31,-74 1088.31,-43.2 834.63,-43.2"/>
<text text-anchor="start" x="841.63" y="-55.4" font-family="Arial" font-size="14.00">updated_at </text>
<text text-anchor="start" x="915.59" y="-55.4" font-family="Arial" font-size="14.00" fill="#666666">[timestamp with time zone]</text>
</g>
<!-- public.guild_members&#45;&gt;public.users -->
<g id="edge5" class="edge">
<title>public.guild_members:user_id&#45;&gt;public.users:id</title>
<path fill="none" stroke="black" d="M943.6,-526.54C984.86,-517.04 961.81,-446.12 932.45,-404.4 905.79,-366.51 861.34,-406.26 834.63,-368.4 810.49,-334.19 791.76,-274.2 833.63,-274.2"/>
<polygon fill="black" stroke="black" points="943.73,-526.52 933.32,-523.09 938.42,-527.08 934.12,-527.53 934.12,-527.53 934.12,-527.53 938.42,-527.08 934.25,-532.04 943.73,-526.52"/>
<text text-anchor="start" x="940.45" y="-537.6" font-family="Arial" font-size="10.00">FOREIGN KEY (user_id) REFERENCES users(id) ON DELETE CASCADE</text>
</g>
<!-- public.guild_member_roles -->
<g id="node3" class="node">
<title>public.guild_member_roles</title>
<polygon fill="#efefef" stroke="none" points="159,-888.8 159,-924.4 495.94,-924.4 495.94,-888.8 159,-888.8"/>
<polygon fill="none" stroke="black" points="159,-888.8 159,-924.4 495.94,-924.4 495.94,-888.8 159,-888.8"/>
<text text-anchor="start" x="166" y="-902.2" font-family="Arial Bold" font-size="18.00">public.guild_member_roles</text>
<text text-anchor="start" x="364.46" y="-902.2" font-family="Arial" font-size="14.00">    </text>
<text text-anchor="start" x="395.57" y="-902.2" font-family="Arial" font-size="14.00" fill="#666666">[BASE TABLE]</text>
<polygon fill="none" stroke="black" points="159,-858 159,-888.8 495.94,-888.8 495.94,-858 159,-858"/>
<text text-anchor="start" x="166" y="-870.2" font-family="Arial" font-size="14.00">guild_id </text>
<text text-anchor="start" x="218.15" y="-870.2" font-family="Arial" font-size="14.00" fill="#666666">[bigint]</text>
<polygon fill="none" stroke="black" points="159,-827.2 159,-858 495.94,-858 495.94,-827.2 159,-827.2"/>
<text text-anchor="start" x="166" y="-839.4" font-family="Arial" font-size="14.00">user_id </text>
<text text-anchor="start" x="215.8" y="-839.4" font-family="Arial" font-size="14.00" fill="#666666">[bigint]</text>
<polygon fill="none" stroke="black" points="159,-796.4 159,-827.2 495.94,-827.2 495.94,-796.4 159,-796.4"/>
<text text-anchor="start" x="166" y="-808.6" font-family="Arial" font-size="14.00">level </text>
<text text-anchor="start" x="198.68" y="-808.6" font-family="Arial" font-size="14.00" fill="#666666">[role_level]</text>
</g>
<!-- public.guild_member_roles&#45;&gt;public.guild_members -->
<g id="edge2" class="edge">
<title>public.guild_member_roles:guild_id&#45;&gt;public.guild_members:guild_id</title>
<path fill="none" stroke="black" d="M506.96,-872.83C575.4,-864.43 515.94,-765.09 548.47,-691.6 576.71,-627.81 561.73,-558.4 631.49,-558.4"/>
<polygon fill="black" stroke="black" points="507.26,-872.81 497.02,-868.89 501.94,-873.12 497.61,-873.36 497.61,-873.36 497.61,-873.36 501.94,-873.12 497.53,-877.87 507.26,-872.81"/>
<text text-anchor="start" x="7" y="-883.4" font-family="Arial" font-size="10.00">FOREIGN KEY (guild_id, user_id) REFERENCES guild_members(guild_id, user_id) ON DELETE CASCADE</text>
</g>
<!-- public.guild_member_roles_v2 -->
<g id="node4" class="node">
<title>public.guild_member_roles_v2</title>
<polygon fill="#efefef" stroke="none" points="600.5,-919.6 600.5,-955.2 964.44,-955.2 964.44,-919.6 600.5,-919.6"/>
<polygon fill="none" stroke="black" points="600.5,-919.6 600.5,-955.2 964.44,-955.2 964.44,-919.6 600.5,-919.6"/>
<text text-anchor="start" x="607.5" y="-933" font-family="Arial Bold" font-size="18.00">public.guild_member_roles_v2</text>
<text text-anchor="start" x="832.96" y="-933" font-family="Arial" font-size="14.00">    </text>
<text text-anchor="start" x="864.07" y="-933" font-family="Arial" font-size="14.00" fill="#666666">[BASE TABLE]</text>
<polygon fill="none" stroke="black" points="600.5,-888.8 600.5,-919.6 964.44,-919.6 964.44,-888.8 600.5,-888.8"/>
<text text-anchor="start" x="607.5" y="-901" font-family="Arial" font-size="14.00">guild_id </text>
<text text-anchor="start" x="659.65" y="-901" font-family="Arial" font-size="14.00" fill="#666666">[bigint]</text>
<polygon fill="none" stroke="black" points="600.5,-858 600.5,-888.8 964.44,-888.8 964.44,-858 600.5,-858"/>
<text text-anchor="start" x="607.5" y="-870.2" font-family="Arial" font-size="14.00">user_id </text>
<text text-anchor="start" x="657.3" y="-870.2" font-family="Arial" font-size="14.00" fill="#666666">[bigint]</text>
<polygon fill="none" stroke="black" points="600.5,-827.2 600.5,-858 964.44,-858 964.44,-827.2 600.5,-827.2"/>
<text text-anchor="start" x="607.5" y="-839.4" font-family="Arial" font-size="14.00">role_key </text>
<text text-anchor="start" x="664.3" y="-839.4" font-family="Arial" font-size="14.00" fill="#666666">[text]</text>
<polygon fill="none" stroke="black" points="600.5,-796.4 600.5,-827.2 964.44,-827.2 964.44,-796.4 600.5,-796.4"/>
<text text-anchor="start" x="607.5" y="-808.6" font-family="Arial" font-size="14.00">assigned_at </text>
<text text-anchor="start" x="686.89" y="-808.6" font-family="Arial" font-size="14.00" fill="#666666">[timestamp with time zone]</text>
<polygon fill="none" stroke="black" points="600.5,-765.6 600.5,-796.4 964.44,-796.4 964.44,-765.6 600.5,-765.6"/>
<text text-anchor="start" x="607.5" y="-777.8" font-family="Arial" font-size="14.00">assigned_by </text>
<text text-anchor="start" x="690" y="-777.8" font-family="Arial" font-size="14.00" fill="#666666">[bigint]</text>
</g>
<!-- public.guild_member_roles_v2&#45;&gt;public.guild_members -->
<g id="edge3" class="edge">
<title>public.guild_member_roles_v2:guild_id&#45;&gt;public.guild_members:guild_id</title>
<path fill="none" stroke="black" d="M975.58,-901.99C1039.52,-872.54 1007.01,-558.4 933.45,-558.4"/>
<polygon fill="black" stroke="black" points="975.54,-902 964.81,-899.73 970.33,-903.14 966.1,-904.06 966.1,-904.06 966.1,-904.06 970.33,-903.14 966.73,-908.53 975.54,-902"/>
<text text-anchor="start" x="475.5" y="-914.2" font-family="Arial" font-size="10.00">FOREIGN KEY (guild_id, user_id) REFERENCES guild_members(guild_id, user_id) ON DELETE CASCADE</text>
</g>
<!-- public.channel_user_permission_overrides_v2 -->
<g id="node5" class="node">
<title>public.channel_user_permission_overrides_v2</title>
<polygon fill="#efefef" stroke="none" points="1068.52,-950.4 1068.52,-986 1542.42,-986 1542.42,-950.4 1068.52,-950.4"/>
<polygon fill="none" stroke="black" points="1068.52,-950.4 1068.52,-986 1542.42,-986 1542.42,-950.4 1068.52,-950.4"/>
<text text-anchor="start" x="1075.52" y="-963.8" font-family="Arial Bold" font-size="18.00">public.channel_user_permission_overrides_v2</text>
<text text-anchor="start" x="1410.94" y="-963.8" font-family="Arial" font-size="14.00">    </text>
<text text-anchor="start" x="1442.05" y="-963.8" font-family="Arial" font-size="14.00" fill="#666666">[BASE TABLE]</text>
<polygon fill="none" stroke="black" points="1068.52,-919.6 1068.52,-950.4 1542.42,-950.4 1542.42,-919.6 1068.52,-919.6"/>
<text text-anchor="start" x="1075.52" y="-931.8" font-family="Arial" font-size="14.00">channel_id </text>
<text text-anchor="start" x="1147.13" y="-931.8" font-family="Arial" font-size="14.00" fill="#666666">[bigint]</text>
<polygon fill="none" stroke="black" points="1068.52,-888.8 1068.52,-919.6 1542.42,-919.6 1542.42,-888.8 1068.52,-888.8"/>
<text text-anchor="start" x="1075.52" y="-901" font-family="Arial" font-size="14.00">guild_id </text>
<text text-anchor="start" x="1127.67" y="-901" font-family="Arial" font-size="14.00" fill="#666666">[bigint]</text>
<polygon fill="none" stroke="black" points="1068.52,-858 1068.52,-888.8 1542.42,-888.8 1542.42,-858 1068.52,-858"/>
<text text-anchor="start" x="1075.52" y="-870.2" font-family="Arial" font-size="14.00">user_id </text>
<text text-anchor="start" x="1125.32" y="-870.2" font-family="Arial" font-size="14.00" fill="#666666">[bigint]</text>
<polygon fill="none" stroke="black" points="1068.52,-827.2 1068.52,-858 1542.42,-858 1542.42,-827.2 1068.52,-827.2"/>
<text text-anchor="start" x="1075.52" y="-839.4" font-family="Arial" font-size="14.00">can_view </text>
<text text-anchor="start" x="1137.77" y="-839.4" font-family="Arial" font-size="14.00" fill="#666666">[boolean]</text>
<polygon fill="none" stroke="black" points="1068.52,-796.4 1068.52,-827.2 1542.42,-827.2 1542.42,-796.4 1068.52,-796.4"/>
<text text-anchor="start" x="1075.52" y="-808.6" font-family="Arial" font-size="14.00">can_post </text>
<text text-anchor="start" x="1136.23" y="-808.6" font-family="Arial" font-size="14.00" fill="#666666">[boolean]</text>
<polygon fill="none" stroke="black" points="1068.52,-765.6 1068.52,-796.4 1542.42,-796.4 1542.42,-765.6 1068.52,-765.6"/>
<text text-anchor="start" x="1075.52" y="-777.8" font-family="Arial" font-size="14.00">created_at </text>
<text text-anchor="start" x="1145.57" y="-777.8" font-family="Arial" font-size="14.00" fill="#666666">[timestamp with time zone]</text>
<polygon fill="none" stroke="black" points="1068.52,-734.8 1068.52,-765.6 1542.42,-765.6 1542.42,-734.8 1068.52,-734.8"/>
<text text-anchor="start" x="1075.52" y="-747" font-family="Arial" font-size="14.00">updated_at </text>
<text text-anchor="start" x="1149.48" y="-747" font-family="Arial" font-size="14.00" fill="#666666">[timestamp with time zone]</text>
</g>
<!-- public.channel_user_permission_overrides_v2&#45;&gt;public.guild_members -->
<g id="edge4" class="edge">
<title>public.channel_user_permission_overrides_v2:guild_id&#45;&gt;public.guild_members:guild_id</title>
<path fill="none" stroke="black" d="M1057.43,-903.7C976.39,-895.12 1052.61,-777.91 1016.47,-691.6 989.53,-627.25 1003.21,-558.4 933.45,-558.4"/>
<polygon fill="black" stroke="black" points="1057.2,-903.69 1066.96,-908.68 1062.52,-903.95 1066.85,-904.17 1066.85,-904.17 1066.85,-904.17 1062.52,-903.95 1067.41,-899.69 1057.2,-903.69"/>
<text text-anchor="start" x="1074.52" y="-914.2" font-family="Arial" font-size="10.00">FOREIGN KEY (guild_id, user_id) REFERENCES guild_members(guild_id, user_id) ON DELETE CASCADE</text>
</g>
</g>
</svg>
