<?xml version="1.0" encoding="UTF-8" standalone="no"?>
<!DOCTYPE svg PUBLIC "-//W3C//DTD SVG 1.1//EN"
 "http://www.w3.org/Graphics/SVG/1.1/DTD/svg11.dtd">
<!-- Generated by graphviz version 12.1.2 (20240928.0832)
 -->
<!-- Title: public.outbox_events Pages: 1 -->
<svg width="393pt" height="413pt"
 viewBox="0.00 0.00 393.37 413.20" xmlns="http://www.w3.org/2000/svg" xmlns:xlink="http://www.w3.org/1999/xlink">
<g id="graph0" class="graph" transform="scale(1 1) rotate(0) translate(4 409.2)">
<title>public.outbox_events</title>
<polygon fill="white" stroke="none" points="-4,4 -4,-409.2 389.37,-409.2 389.37,4 -4,4"/>
<!-- public.outbox_events -->
<g id="node1" class="node">
<title>public.outbox_events</title>
<polygon fill="#efefef" stroke="none" points="46.2,-323.4 46.2,-359 339.17,-359 339.17,-323.4 46.2,-323.4"/>
<polygon fill="none" stroke="black" points="46.2,-323.4 46.2,-359 339.17,-359 339.17,-323.4 46.2,-323.4"/>
<text text-anchor="start" x="53.2" y="-336.8" font-family="Arial Bold" font-size="18.00">public.outbox_events</text>
<text text-anchor="start" x="207.68" y="-336.8" font-family="Arial" font-size="14.00">    </text>
<text text-anchor="start" x="238.79" y="-336.8" font-family="Arial" font-size="14.00" fill="#666666">[BASE TABLE]</text>
<polygon fill="none" stroke="black" points="46.2,-292.6 46.2,-323.4 339.17,-323.4 339.17,-292.6 46.2,-292.6"/>
<text text-anchor="start" x="53.2" y="-304.8" font-family="Arial" font-size="14.00">id </text>
<text text-anchor="start" x="67.99" y="-304.8" font-family="Arial" font-size="14.00" fill="#666666">[bigint]</text>
<polygon fill="none" stroke="black" points="46.2,-261.8 46.2,-292.6 339.17,-292.6 339.17,-261.8 46.2,-261.8"/>
<text text-anchor="start" x="53.2" y="-274" font-family="Arial" font-size="14.00">event_type </text>
<text text-anchor="start" x="125.59" y="-274" font-family="Arial" font-size="14.00" fill="#666666">[text]</text>
<polygon fill="none" stroke="black" points="46.2,-231 46.2,-261.8 339.17,-261.8 339.17,-231 46.2,-231"/>
<text text-anchor="start" x="53.2" y="-243.2" font-family="Arial" font-size="14.00">aggregate_id </text>
<text text-anchor="start" x="138.83" y="-243.2" font-family="Arial" font-size="14.00" fill="#666666">[text]</text>
<polygon fill="none" stroke="black" points="46.2,-200.2 46.2,-231 339.17,-231 339.17,-200.2 46.2,-200.2"/>
<text text-anchor="start" x="53.2" y="-212.4" font-family="Arial" font-size="14.00">payload </text>
<text text-anchor="start" x="106.13" y="-212.4" font-family="Arial" font-size="14.00" fill="#666666">[jsonb]</text>
<polygon fill="none" stroke="black" points="46.2,-169.4 46.2,-200.2 339.17,-200.2 339.17,-169.4 46.2,-169.4"/>
<text text-anchor="start" x="53.2" y="-181.6" font-family="Arial" font-size="14.00">status </text>
<text text-anchor="start" x="94.44" y="-181.6" font-family="Arial" font-size="14.00" fill="#666666">[outbox_status]</text>
<polygon fill="none" stroke="black" points="46.2,-138.6 46.2,-169.4 339.17,-169.4 339.17,-138.6 46.2,-138.6"/>
<text text-anchor="start" x="53.2" y="-150.8" font-family="Arial" font-size="14.00">attempts </text>
<text text-anchor="start" x="110.78" y="-150.8" font-family="Arial" font-size="14.00" fill="#666666">[integer]</text>
<polygon fill="none" stroke="black" points="46.2,-107.8 46.2,-138.6 339.17,-138.6 339.17,-107.8 46.2,-107.8"/>
<text text-anchor="start" x="53.2" y="-120" font-family="Arial" font-size="14.00">next_retry_at </text>
<text text-anchor="start" x="138.8" y="-120" font-family="Arial" font-size="14.00" fill="#666666">[timestamp with time zone]</text>
<polygon fill="none" stroke="black" points="46.2,-77 46.2,-107.8 339.17,-107.8 339.17,-77 46.2,-77"/>
<text text-anchor="start" x="53.2" y="-89.2" font-family="Arial" font-size="14.00">created_at </text>
<text text-anchor="start" x="123.25" y="-89.2" font-family="Arial" font-size="14.00" fill="#666666">[timestamp with time zone]</text>
<polygon fill="none" stroke="black" points="46.2,-46.2 46.2,-77 339.17,-77 339.17,-46.2 46.2,-46.2"/>
<text text-anchor="start" x="53.2" y="-58.4" font-family="Arial" font-size="14.00">updated_at </text>
<text text-anchor="start" x="127.16" y="-58.4" font-family="Arial" font-size="14.00" fill="#666666">[timestamp with time zone]</text>
<polygon fill="none" stroke="black" stroke-width="3" points="44.7,-44.7 44.7,-360.5 340.67,-360.5 340.67,-44.7 44.7,-44.7"/>
</g>
</g>
</svg>
