<?xml version="1.0" encoding="UTF-8" standalone="no"?>
<!DOCTYPE svg PUBLIC "-//W3C//DTD SVG 1.1//EN"
 "http://www.w3.org/Graphics/SVG/1.1/DTD/svg11.dtd">
<!-- Generated by graphviz version 12.1.2 (20240928.0832)
 -->
<!-- Title: public.guilds Pages: 1 -->
<svg width="1949pt" height="1222pt"
 viewBox="0.00 0.00 1948.69 1222.00" xmlns="http://www.w3.org/2000/svg" xmlns:xlink="http://www.w3.org/1999/xlink">
<g id="graph0" class="graph" transform="scale(1 1) rotate(0) translate(4 1218)">
<title>public.guilds</title>
<polygon fill="white" stroke="none" points="-4,4 -4,-1218 1944.69,-1218 1944.69,4 -4,4"/>
<!-- public.guilds -->
<g id="node1" class="node">
<title>public.guilds</title>
<polygon fill="#efefef" stroke="none" points="835.43,-697 835.43,-732.6 1089.11,-732.6 1089.11,-697 835.43,-697"/>
<polygon fill="none" stroke="black" points="835.43,-697 835.43,-732.6 1089.11,-732.6 1089.11,-697 835.43,-697"/>
<text text-anchor="start" x="853.28" y="-710.4" font-family="Arial Bold" font-size="18.00">public.guilds</text>
<text text-anchor="start" x="946.77" y="-710.4" font-family="Arial" font-size="14.00">    </text>
<text text-anchor="start" x="977.89" y="-710.4" font-family="Arial" font-size="14.00" fill="#666666">[BASE TABLE]</text>
<polygon fill="none" stroke="black" points="835.43,-666.2 835.43,-697 1089.11,-697 1089.11,-666.2 835.43,-666.2"/>
<text text-anchor="start" x="842.43" y="-678.4" font-family="Arial" font-size="14.00">id </text>
<text text-anchor="start" x="857.21" y="-678.4" font-family="Arial" font-size="14.00" fill="#666666">[bigint]</text>
<polygon fill="none" stroke="black" points="835.43,-635.4 835.43,-666.2 1089.11,-666.2 1089.11,-635.4 835.43,-635.4"/>
<text text-anchor="start" x="842.43" y="-647.6" font-family="Arial" font-size="14.00">name </text>
<text text-anchor="start" x="881.34" y="-647.6" font-family="Arial" font-size="14.00" fill="#666666">[text]</text>
<polygon fill="none" stroke="black" points="835.43,-604.6 835.43,-635.4 1089.11,-635.4 1089.11,-604.6 835.43,-604.6"/>
<text text-anchor="start" x="842.43" y="-616.8" font-family="Arial" font-size="14.00">owner_id </text>
<text text-anchor="start" x="903.13" y="-616.8" font-family="Arial" font-size="14.00" fill="#666666">[bigint]</text>
<polygon fill="none" stroke="black" points="835.43,-573.8 835.43,-604.6 1089.11,-604.6 1089.11,-573.8 835.43,-573.8"/>
<text text-anchor="start" x="842.43" y="-586" font-family="Arial" font-size="14.00">icon_key </text>
<text text-anchor="start" x="901.57" y="-586" font-family="Arial" font-size="14.00" fill="#666666">[text]</text>
<polygon fill="none" stroke="black" points="835.43,-543 835.43,-573.8 1089.11,-573.8 1089.11,-543 835.43,-543"/>
<text text-anchor="start" x="842.43" y="-555.2" font-family="Arial" font-size="14.00">created_at </text>
<text text-anchor="start" x="912.48" y="-555.2" font-family="Arial" font-size="14.00" fill="#666666">[timestamp with time zone]</text>
<polygon fill="none" stroke="black" points="835.43,-512.2 835.43,-543 1089.11,-543 1089.11,-512.2 835.43,-512.2"/>
<text text-anchor="start" x="842.43" y="-524.4" font-family="Arial" font-size="14.00">updated_at </text>
<text text-anchor="start" x="916.39" y="-524.4" font-family="Arial" font-size="14.00" fill="#666666">[timestamp with time zone]</text>
<polygon fill="none" stroke="black" stroke-width="3" points="833.93,-510.7 833.93,-734.1 1090.61,-734.1 1090.61,-510.7 833.93,-510.7"/>
</g>
<!-- public.users -->
<g id="node7" class="node">
<title>public.users</title>
<polygon fill="#efefef" stroke="none" points="835.43,-351.2 835.43,-386.8 1089.11,-386.8 1089.11,-351.2 835.43,-351.2"/>
<polygon fill="none" stroke="black" points="835.43,-351.2 835.43,-386.8 1089.11,-386.8 1089.11,-351.2 835.43,-351.2"/>
<text text-anchor="start" x="856.78" y="-364.6" font-family="Arial Bold" font-size="18.00">public.users</text>
<text text-anchor="start" x="943.27" y="-364.6" font-family="Arial" font-size="14.00">    </text>
<text text-anchor="start" x="974.38" y="-364.6" font-family="Arial" font-size="14.00" fill="#666666">[BASE TABLE]</text>
<polygon fill="none" stroke="black" points="835.43,-320.4 835.43,-351.2 1089.11,-351.2 1089.11,-320.4 835.43,-320.4"/>
<text text-anchor="start" x="842.43" y="-332.6" font-family="Arial" font-size="14.00">id </text>
<text text-anchor="start" x="857.21" y="-332.6" font-family="Arial" font-size="14.00" fill="#666666">[bigint]</text>
<polygon fill="none" stroke="black" points="835.43,-289.6 835.43,-320.4 1089.11,-320.4 1089.11,-289.6 835.43,-289.6"/>
<text text-anchor="start" x="842.43" y="-301.8" font-family="Arial" font-size="14.00">email </text>
<text text-anchor="start" x="879.77" y="-301.8" font-family="Arial" font-size="14.00" fill="#666666">[text]</text>
<polygon fill="none" stroke="black" points="835.43,-258.8 835.43,-289.6 1089.11,-289.6 1089.11,-258.8 835.43,-258.8"/>
<text text-anchor="start" x="842.43" y="-271" font-family="Arial" font-size="14.00">email_verified </text>
<text text-anchor="start" x="932.69" y="-271" font-family="Arial" font-size="14.00" fill="#666666">[boolean]</text>
<polygon fill="none" stroke="black" points="835.43,-228 835.43,-258.8 1089.11,-258.8 1089.11,-228 835.43,-228"/>
<text text-anchor="start" x="842.43" y="-240.2" font-family="Arial" font-size="14.00">password_hash </text>
<text text-anchor="start" x="944.38" y="-240.2" font-family="Arial" font-size="14.00" fill="#666666">[text]</text>
<polygon fill="none" stroke="black" points="835.43,-197.2 835.43,-228 1089.11,-228 1089.11,-197.2 835.43,-197.2"/>
<text text-anchor="start" x="842.43" y="-209.4" font-family="Arial" font-size="14.00">display_name </text>
<text text-anchor="start" x="932.7" y="-209.4" font-family="Arial" font-size="14.00" fill="#666666">[text]</text>
<polygon fill="none" stroke="black" points="835.43,-166.4 835.43,-197.2 1089.11,-197.2 1089.11,-166.4 835.43,-166.4"/>
<text text-anchor="start" x="842.43" y="-178.6" font-family="Arial" font-size="14.00">avatar_key </text>
<text text-anchor="start" x="914.8" y="-178.6" font-family="Arial" font-size="14.00" fill="#666666">[text]</text>
<polygon fill="none" stroke="black" points="835.43,-135.6 835.43,-166.4 1089.11,-166.4 1089.11,-135.6 835.43,-135.6"/>
<text text-anchor="start" x="842.43" y="-147.8" font-family="Arial" font-size="14.00">status_text </text>
<text text-anchor="start" x="914.02" y="-147.8" font-family="Arial" font-size="14.00" fill="#666666">[text]</text>
<polygon fill="none" stroke="black" points="835.43,-104.8 835.43,-135.6 1089.11,-135.6 1089.11,-104.8 835.43,-104.8"/>
<text text-anchor="start" x="842.43" y="-117" font-family="Arial" font-size="14.00">theme </text>
<text text-anchor="start" x="885.23" y="-117" font-family="Arial" font-size="14.00" fill="#666666">[text]</text>
<polygon fill="none" stroke="black" points="835.43,-74 835.43,-104.8 1089.11,-104.8 1089.11,-74 835.43,-74"/>
<text text-anchor="start" x="842.43" y="-86.2" font-family="Arial" font-size="14.00">created_at </text>
<text text-anchor="start" x="912.48" y="-86.2" font-family="Arial" font-size="14.00" fill="#666666">[timestamp with time zone]</text>
<polygon fill="none" stroke="black" points="835.43,-43.2 835.43,-74 1089.11,-74 1089.11,-43.2 835.43,-43.2"/>
<text text-anchor="start" x="842.43" y="-55.4" font-family="Arial" font-size="14.00">updated_at </text>
<text text-anchor="start" x="916.39" y="-55.4" font-family="Arial" font-size="14.00" fill="#666666">[timestamp with time zone]</text>
</g>
<!-- public.guilds&#45;&gt;public.users -->
<g id="edge6" class="edge">
<title>public.guilds:owner_id&#45;&gt;public.users:id</title>
<path fill="none" stroke="black" d="M1100.19,-619.37C1216.33,-604.67 1212.97,-335.8 1090.11,-335.8"/>
<polygon fill="black" stroke="black" points="1100.42,-619.36 1090.16,-615.49 1095.1,-619.69 1090.78,-619.96 1090.78,-619.96 1090.78,-619.96 1095.1,-619.69 1090.72,-624.47 1100.42,-619.36"/>
<text text-anchor="start" x="1097.11" y="-630" font-family="Arial" font-size="10.00">FOREIGN KEY (owner_id) REFERENCES users(id) ON DELETE RESTRICT</text>
</g>
<!-- public.audit_logs -->
<g id="node2" class="node">
<title>public.audit_logs</title>
<polygon fill="#efefef" stroke="none" points="86.78,-1119.8 86.78,-1155.4 349.76,-1155.4 349.76,-1119.8 86.78,-1119.8"/>
<polygon fill="none" stroke="black" points="86.78,-1119.8 86.78,-1155.4 349.76,-1155.4 349.76,-1119.8 86.78,-1119.8"/>
<text text-anchor="start" x="93.78" y="-1133.2" font-family="Arial Bold" font-size="18.00">public.audit_logs</text>
<text text-anchor="start" x="218.27" y="-1133.2" font-family="Arial" font-size="14.00">    </text>
<text text-anchor="start" x="249.39" y="-1133.2" font-family="Arial" font-size="14.00" fill="#666666">[BASE TABLE]</text>
<polygon fill="none" stroke="black" points="86.78,-1089 86.78,-1119.8 349.76,-1119.8 349.76,-1089 86.78,-1089"/>
<text text-anchor="start" x="93.78" y="-1101.2" font-family="Arial" font-size="14.00">id </text>
<text text-anchor="start" x="108.57" y="-1101.2" font-family="Arial" font-size="14.00" fill="#666666">[bigint]</text>
<polygon fill="none" stroke="black" points="86.78,-1058.2 86.78,-1089 349.76,-1089 349.76,-1058.2 86.78,-1058.2"/>
<text text-anchor="start" x="93.78" y="-1070.4" font-family="Arial" font-size="14.00">guild_id </text>
<text text-anchor="start" x="145.93" y="-1070.4" font-family="Arial" font-size="14.00" fill="#666666">[bigint]</text>
<polygon fill="none" stroke="black" points="86.78,-1027.4 86.78,-1058.2 349.76,-1058.2 349.76,-1027.4 86.78,-1027.4"/>
<text text-anchor="start" x="93.78" y="-1039.6" font-family="Arial" font-size="14.00">actor_id </text>
<text text-anchor="start" x="147.48" y="-1039.6" font-family="Arial" font-size="14.00" fill="#666666">[bigint]</text>
<polygon fill="none" stroke="black" points="86.78,-996.6 86.78,-1027.4 349.76,-1027.4 349.76,-996.6 86.78,-996.6"/>
<text text-anchor="start" x="93.78" y="-1008.8" font-family="Arial" font-size="14.00">action </text>
<text text-anchor="start" x="135.03" y="-1008.8" font-family="Arial" font-size="14.00" fill="#666666">[audit_action]</text>
<polygon fill="none" stroke="black" points="86.78,-965.8 86.78,-996.6 349.76,-996.6 349.76,-965.8 86.78,-965.8"/>
<text text-anchor="start" x="93.78" y="-978" font-family="Arial" font-size="14.00">target_type </text>
<text text-anchor="start" x="167.72" y="-978" font-family="Arial" font-size="14.00" fill="#666666">[text]</text>
<polygon fill="none" stroke="black" points="86.78,-935 86.78,-965.8 349.76,-965.8 349.76,-935 86.78,-935"/>
<text text-anchor="start" x="93.78" y="-947.2" font-family="Arial" font-size="14.00">target_id </text>
<text text-anchor="start" x="152.15" y="-947.2" font-family="Arial" font-size="14.00" fill="#666666">[bigint]</text>
<polygon fill="none" stroke="black" points="86.78,-904.2 86.78,-935 349.76,-935 349.76,-904.2 86.78,-904.2"/>
<text text-anchor="start" x="93.78" y="-916.4" font-family="Arial" font-size="14.00">metadata </text>
<text text-anchor="start" x="156.04" y="-916.4" font-family="Arial" font-size="14.00" fill="#666666">[jsonb]</text>
<polygon fill="none" stroke="black" points="86.78,-873.4 86.78,-904.2 349.76,-904.2 349.76,-873.4 86.78,-873.4"/>
<text text-anchor="start" x="93.78" y="-885.6" font-family="Arial" font-size="14.00">created_at </text>
<text text-anchor="start" x="163.83" y="-885.6" font-family="Arial" font-size="14.00" fill="#666666">[timestamp with time zone]</text>
</g>
<!-- public.audit_logs&#45;&gt;public.guilds -->
<g id="edge1" class="edge">
<title>public.audit_logs:guild_id&#45;&gt;public.guilds:id</title>
<path fill="none" stroke="black" d="M361,-1073.1C459.23,-1062.95 326.15,-899.15 402.27,-814.8 469.59,-740.19 733.93,-681.6 834.43,-681.6"/>
<polygon fill="black" stroke="black" points="361.08,-1073.1 350.87,-1069.09 355.75,-1073.36 351.43,-1073.57 351.43,-1073.57 351.43,-1073.57 355.75,-1073.36 351.31,-1078.08 361.08,-1073.1"/>
<text text-anchor="start" x="7" y="-1083.6" font-family="Arial" font-size="10.00">FOREIGN KEY (guild_id) REFERENCES guilds(id) ON DELETE SET NULL</text>
</g>
<!-- public.channels -->
<g id="node3" class="node">
<title>public.channels</title>
<polygon fill="#efefef" stroke="none" points="454.43,-1104.4 454.43,-1140 708.11,-1140 708.11,-1104.4 454.43,-1104.4"/>
<polygon fill="none" stroke="black" points="454.43,-1104.4 454.43,-1140 708.11,-1140 708.11,-1104.4 454.43,-1104.4"/>
<text text-anchor="start" x="462.79" y="-1117.8" font-family="Arial Bold" font-size="18.00">public.channels</text>
<text text-anchor="start" x="575.26" y="-1117.8" font-family="Arial" font-size="14.00">    </text>
<text text-anchor="start" x="606.37" y="-1117.8" font-family="Arial" font-size="14.00" fill="#666666">[BASE TABLE]</text>
<polygon fill="none" stroke="black" points="454.43,-1073.6 454.43,-1104.4 708.11,-1104.4 708.11,-1073.6 454.43,-1073.6"/>
<text text-anchor="start" x="461.43" y="-1085.8" font-family="Arial" font-size="14.00">id </text>
<text text-anchor="start" x="476.21" y="-1085.8" font-family="Arial" font-size="14.00" fill="#666666">[bigint]</text>
<polygon fill="none" stroke="black" points="454.43,-1042.8 454.43,-1073.6 708.11,-1073.6 708.11,-1042.8 454.43,-1042.8"/>
<text text-anchor="start" x="461.43" y="-1055" font-family="Arial" font-size="14.00">type </text>
<text text-anchor="start" x="491.78" y="-1055" font-family="Arial" font-size="14.00" fill="#666666">[channel_type]</text>
<polygon fill="none" stroke="black" points="454.43,-1012 454.43,-1042.8 708.11,-1042.8 708.11,-1012 454.43,-1012"/>
<text text-anchor="start" x="461.43" y="-1024.2" font-family="Arial" font-size="14.00">guild_id </text>
<text text-anchor="start" x="513.58" y="-1024.2" font-family="Arial" font-size="14.00" fill="#666666">[bigint]</text>
<polygon fill="none" stroke="black" points="454.43,-981.2 454.43,-1012 708.11,-1012 708.11,-981.2 454.43,-981.2"/>
<text text-anchor="start" x="461.43" y="-993.4" font-family="Arial" font-size="14.00">name </text>
<text text-anchor="start" x="500.34" y="-993.4" font-family="Arial" font-size="14.00" fill="#666666">[text]</text>
<polygon fill="none" stroke="black" points="454.43,-950.4 454.43,-981.2 708.11,-981.2 708.11,-950.4 454.43,-950.4"/>
<text text-anchor="start" x="461.43" y="-962.6" font-family="Arial" font-size="14.00">created_by </text>
<text text-anchor="start" x="534.59" y="-962.6" font-family="Arial" font-size="14.00" fill="#666666">[bigint]</text>
<polygon fill="none" stroke="black" points="454.43,-919.6 454.43,-950.4 708.11,-950.4 708.11,-919.6 454.43,-919.6"/>
<text text-anchor="start" x="461.43" y="-931.8" font-family="Arial" font-size="14.00">created_at </text>
<text text-anchor="start" x="531.48" y="-931.8" font-family="Arial" font-size="14.00" fill="#666666">[timestamp with time zone]</text>
<polygon fill="none" stroke="black" points="454.43,-888.8 454.43,-919.6 708.11,-919.6 708.11,-888.8 454.43,-888.8"/>
<text text-anchor="start" x="461.43" y="-901" font-family="Arial" font-size="14.00">updated_at </text>
<text text-anchor="start" x="535.39" y="-901" font-family="Arial" font-size="14.00" fill="#666666">[timestamp with time zone]</text>
</g>
<!-- public.channels&#45;&gt;public.guilds -->
<g id="edge2" class="edge">
<title>public.channels:guild_id&#45;&gt;public.guilds:id</title>
<path fill="none" stroke="black" d="M719.21,-1026.9C800.42,-1018.38 726.25,-901.98 760.27,-814.8 784.9,-751.68 766.67,-681.6 834.43,-681.6"/>
<polygon fill="black" stroke="black" points="719.43,-1026.89 709.22,-1022.89 714.1,-1027.15 709.78,-1027.37 709.78,-1027.37 709.78,-1027.37 714.1,-1027.15 709.66,-1031.88 719.43,-1026.89"/>
<text text-anchor="start" x="364.8" y="-1037.4" font-family="Arial" font-size="10.00">FOREIGN KEY (guild_id) REFERENCES guilds(id) ON DELETE CASCADE</text>
</g>
<!-- public.guild_members -->
<g id="node4" class="node">
<title>public.guild_members</title>
<polygon fill="#efefef" stroke="none" points="812.29,-1058.2 812.29,-1093.8 1112.25,-1093.8 1112.25,-1058.2 812.29,-1058.2"/>
<polygon fill="none" stroke="black" points="812.29,-1058.2 812.29,-1093.8 1112.25,-1093.8 1112.25,-1058.2 812.29,-1058.2"/>
<text text-anchor="start" x="819.29" y="-1071.6" font-family="Arial Bold" font-size="18.00">public.guild_members</text>
<text text-anchor="start" x="980.76" y="-1071.6" font-family="Arial" font-size="14.00">    </text>
<text text-anchor="start" x="1011.88" y="-1071.6" font-family="Arial" font-size="14.00" fill="#666666">[BASE TABLE]</text>
<polygon fill="none" stroke="black" points="812.29,-1027.4 812.29,-1058.2 1112.25,-1058.2 1112.25,-1027.4 812.29,-1027.4"/>
<text text-anchor="start" x="819.29" y="-1039.6" font-family="Arial" font-size="14.00">guild_id </text>
<text text-anchor="start" x="871.44" y="-1039.6" font-family="Arial" font-size="14.00" fill="#666666">[bigint]</text>
<polygon fill="none" stroke="black" points="812.29,-996.6 812.29,-1027.4 1112.25,-1027.4 1112.25,-996.6 812.29,-996.6"/>
<text text-anchor="start" x="819.29" y="-1008.8" font-family="Arial" font-size="14.00">user_id </text>
<text text-anchor="start" x="869.09" y="-1008.8" font-family="Arial" font-size="14.00" fill="#666666">[bigint]</text>
<polygon fill="none" stroke="black" points="812.29,-965.8 812.29,-996.6 1112.25,-996.6 1112.25,-965.8 812.29,-965.8"/>
<text text-anchor="start" x="819.29" y="-978" font-family="Arial" font-size="14.00">joined_at </text>
<text text-anchor="start" x="880" y="-978" font-family="Arial" font-size="14.00" fill="#666666">[timestamp with time zone]</text>
<polygon fill="none" stroke="black" points="812.29,-935 812.29,-965.8 1112.25,-965.8 1112.25,-935 812.29,-935"/>
<text text-anchor="start" x="819.29" y="-947.2" font-family="Arial" font-size="14.00">nickname </text>
<text text-anchor="start" x="883.09" y="-947.2" font-family="Arial" font-size="14.00" fill="#666666">[text]</text>
</g>
<!-- public.guild_members&#45;&gt;public.guilds -->
<g id="edge3" class="edge">
<title>public.guild_members:guild_id&#45;&gt;public.guilds:id</title>
<path fill="none" stroke="black" d="M1123.47,-1040.68C1191.49,-1011.08 1166.93,-681.6 1090.11,-681.6"/>
<polygon fill="black" stroke="black" points="1123.37,-1040.7 1112.66,-1038.33 1118.15,-1041.78 1113.9,-1042.66 1113.9,-1042.66 1113.9,-1042.66 1118.15,-1041.78 1114.49,-1047.14 1123.37,-1040.7"/>
<text text-anchor="start" x="1120.25" y="-1052.8" font-family="Arial" font-size="10.00">FOREIGN KEY (guild_id) REFERENCES guilds(id) ON DELETE CASCADE</text>
</g>
<!-- public.guild_roles -->
<g id="node5" class="node">
<title>public.guild_roles</title>
<polygon fill="#efefef" stroke="none" points="1216.78,-1042.8 1216.78,-1078.4 1485.75,-1078.4 1485.75,-1042.8 1216.78,-1042.8"/>
<polygon fill="none" stroke="black" points="1216.78,-1042.8 1216.78,-1078.4 1485.75,-1078.4 1485.75,-1042.8 1216.78,-1042.8"/>
<text text-anchor="start" x="1223.78" y="-1056.2" font-family="Arial Bold" font-size="18.00">public.guild_roles</text>
<text text-anchor="start" x="1354.27" y="-1056.2" font-family="Arial" font-size="14.00">    </text>
<text text-anchor="start" x="1385.38" y="-1056.2" font-family="Arial" font-size="14.00" fill="#666666">[BASE TABLE]</text>
<polygon fill="none" stroke="black" points="1216.78,-1012 1216.78,-1042.8 1485.75,-1042.8 1485.75,-1012 1216.78,-1012"/>
<text text-anchor="start" x="1223.78" y="-1024.2" font-family="Arial" font-size="14.00">guild_id </text>
<text text-anchor="start" x="1275.93" y="-1024.2" font-family="Arial" font-size="14.00" fill="#666666">[bigint]</text>
<polygon fill="none" stroke="black" points="1216.78,-981.2 1216.78,-1012 1485.75,-1012 1485.75,-981.2 1216.78,-981.2"/>
<text text-anchor="start" x="1223.78" y="-993.4" font-family="Arial" font-size="14.00">level </text>
<text text-anchor="start" x="1256.47" y="-993.4" font-family="Arial" font-size="14.00" fill="#666666">[role_level]</text>
<polygon fill="none" stroke="black" points="1216.78,-950.4 1216.78,-981.2 1485.75,-981.2 1485.75,-950.4 1216.78,-950.4"/>
<text text-anchor="start" x="1223.78" y="-962.6" font-family="Arial" font-size="14.00">name </text>
<text text-anchor="start" x="1262.69" y="-962.6" font-family="Arial" font-size="14.00" fill="#666666">[text]</text>
</g>
<!-- public.guild_roles&#45;&gt;public.guilds -->
<g id="edge4" class="edge">
<title>public.guild_roles:guild_id&#45;&gt;public.guilds:id</title>
<path fill="none" stroke="black" d="M1205.68,-1026.9C1124.42,-1018.38 1198.37,-901.98 1164.27,-814.8 1139.59,-751.7 1157.87,-681.6 1090.11,-681.6"/>
<polygon fill="black" stroke="black" points="1205.46,-1026.89 1215.23,-1031.88 1210.79,-1027.15 1215.12,-1027.37 1215.12,-1027.37 1215.12,-1027.37 1210.79,-1027.15 1215.67,-1022.89 1205.46,-1026.89"/>
<text text-anchor="start" x="959.3" y="-1011.4" font-family="Arial" font-size="10.00">FOREIGN KEY (guild_id) REFERENCES guilds(id) ON DELETE CASCADE</text>
</g>
<!-- public.invites -->
<g id="node6" class="node">
<title>public.invites</title>
<polygon fill="#efefef" stroke="none" points="1590.38,-1135.2 1590.38,-1170.8 1840.15,-1170.8 1840.15,-1135.2 1590.38,-1135.2"/>
<polygon fill="none" stroke="black" points="1590.38,-1135.2 1590.38,-1170.8 1840.15,-1170.8 1840.15,-1135.2 1590.38,-1135.2"/>
<text text-anchor="start" x="1604.28" y="-1148.6" font-family="Arial Bold" font-size="18.00">public.invites</text>
<text text-anchor="start" x="1701.77" y="-1148.6" font-family="Arial" font-size="14.00">    </text>
<text text-anchor="start" x="1732.89" y="-1148.6" font-family="Arial" font-size="14.00" fill="#666666">[BASE TABLE]</text>
<polygon fill="none" stroke="black" points="1590.38,-1104.4 1590.38,-1135.2 1840.15,-1135.2 1840.15,-1104.4 1590.38,-1104.4"/>
<text text-anchor="start" x="1597.38" y="-1116.6" font-family="Arial" font-size="14.00">id </text>
<text text-anchor="start" x="1612.17" y="-1116.6" font-family="Arial" font-size="14.00" fill="#666666">[bigint]</text>
<polygon fill="none" stroke="black" points="1590.38,-1073.6 1590.38,-1104.4 1840.15,-1104.4 1840.15,-1073.6 1590.38,-1073.6"/>
<text text-anchor="start" x="1597.38" y="-1085.8" font-family="Arial" font-size="14.00">guild_id </text>
<text text-anchor="start" x="1649.53" y="-1085.8" font-family="Arial" font-size="14.00" fill="#666666">[bigint]</text>
<polygon fill="none" stroke="black" points="1590.38,-1042.8 1590.38,-1073.6 1840.15,-1073.6 1840.15,-1042.8 1590.38,-1042.8"/>
<text text-anchor="start" x="1597.38" y="-1055" font-family="Arial" font-size="14.00">created_by </text>
<text text-anchor="start" x="1670.54" y="-1055" font-family="Arial" font-size="14.00" fill="#666666">[bigint]</text>
<polygon fill="none" stroke="black" points="1590.38,-1012 1590.38,-1042.8 1840.15,-1042.8 1840.15,-1012 1590.38,-1012"/>
<text text-anchor="start" x="1597.38" y="-1024.2" font-family="Arial" font-size="14.00">code </text>
<text text-anchor="start" x="1631.63" y="-1024.2" font-family="Arial" font-size="14.00" fill="#666666">[text]</text>
<polygon fill="none" stroke="black" points="1590.38,-981.2 1590.38,-1012 1840.15,-1012 1840.15,-981.2 1590.38,-981.2"/>
<text text-anchor="start" x="1597.38" y="-993.4" font-family="Arial" font-size="14.00">expires_at </text>
<text text-anchor="start" x="1665.87" y="-993.4" font-family="Arial" font-size="14.00" fill="#666666">[timestamp with time zone]</text>
<polygon fill="none" stroke="black" points="1590.38,-950.4 1590.38,-981.2 1840.15,-981.2 1840.15,-950.4 1590.38,-950.4"/>
<text text-anchor="start" x="1597.38" y="-962.6" font-family="Arial" font-size="14.00">max_uses </text>
<text text-anchor="start" x="1665.08" y="-962.6" font-family="Arial" font-size="14.00" fill="#666666">[integer]</text>
<polygon fill="none" stroke="black" points="1590.38,-919.6 1590.38,-950.4 1840.15,-950.4 1840.15,-919.6 1590.38,-919.6"/>
<text text-anchor="start" x="1597.38" y="-931.8" font-family="Arial" font-size="14.00">uses </text>
<text text-anchor="start" x="1630.85" y="-931.8" font-family="Arial" font-size="14.00" fill="#666666">[integer]</text>
<polygon fill="none" stroke="black" points="1590.38,-888.8 1590.38,-919.6 1840.15,-919.6 1840.15,-888.8 1590.38,-888.8"/>
<text text-anchor="start" x="1597.38" y="-901" font-family="Arial" font-size="14.00">is_disabled </text>
<text text-anchor="start" x="1671.32" y="-901" font-family="Arial" font-size="14.00" fill="#666666">[boolean]</text>
<polygon fill="none" stroke="black" points="1590.38,-858 1590.38,-888.8 1840.15,-888.8 1840.15,-858 1590.38,-858"/>
<text text-anchor="start" x="1597.38" y="-870.2" font-family="Arial" font-size="14.00">created_at </text>
<text text-anchor="start" x="1667.43" y="-870.2" font-family="Arial" font-size="14.00" fill="#666666">[timestamp with time zone]</text>
</g>
<!-- public.invites&#45;&gt;public.guilds -->
<g id="edge5" class="edge">
<title>public.invites:guild_id&#45;&gt;public.guilds:id</title>
<path fill="none" stroke="black" d="M1579.2,-1088.54C1474.34,-1078.41 1618.79,-904.22 1538.27,-814.8 1468.74,-737.59 1194.01,-681.6 1090.11,-681.6"/>
<polygon fill="black" stroke="black" points="1579.06,-1088.53 1588.85,-1093.48 1584.39,-1088.77 1588.72,-1088.97 1588.72,-1088.97 1588.72,-1088.97 1584.39,-1088.77 1589.25,-1084.49 1579.06,-1088.53"/>
<text text-anchor="start" x="1596.38" y="-1099" font-family="Arial" font-size="10.00">FOREIGN KEY (guild_id) REFERENCES guilds(id) ON DELETE CASCADE</text>
</g>
</g>
</svg>
