<?xml version="1.0" encoding="UTF-8" standalone="no"?>
<!DOCTYPE svg PUBLIC "-//W3C//DTD SVG 1.1//EN"
 "http://www.w3.org/Graphics/SVG/1.1/DTD/svg11.dtd">
<!-- Generated by graphviz version 12.1.2 (20240928.0832)
 -->
<!-- Title: public.guilds Pages: 1 -->
<svg width="2711pt" height="1222pt"
 viewBox="0.00 0.00 2710.83 1222.00" xmlns="http://www.w3.org/2000/svg" xmlns:xlink="http://www.w3.org/1999/xlink">
<g id="graph0" class="graph" transform="scale(1 1) rotate(0) translate(4 1218)">
<title>public.guilds</title>
<polygon fill="white" stroke="none" points="-4,4 -4,-1218 2706.83,-1218 2706.83,4 -4,4"/>
<!-- public.guilds -->
<g id="node1" class="node">
<title>public.guilds</title>
<polygon fill="#efefef" stroke="none" points="1167.34,-635.4 1167.34,-671 1421.02,-671 1421.02,-635.4 1167.34,-635.4"/>
<polygon fill="none" stroke="black" points="1167.34,-635.4 1167.34,-671 1421.02,-671 1421.02,-635.4 1167.34,-635.4"/>
<text text-anchor="start" x="1185.19" y="-648.8" font-family="Arial Bold" font-size="18.00">public.guilds</text>
<text text-anchor="start" x="1278.69" y="-648.8" font-family="Arial" font-size="14.00">    </text>
<text text-anchor="start" x="1309.8" y="-648.8" font-family="Arial" font-size="14.00" fill="#666666">[BASE TABLE]</text>
<polygon fill="none" stroke="black" points="1167.34,-604.6 1167.34,-635.4 1421.02,-635.4 1421.02,-604.6 1167.34,-604.6"/>
<text text-anchor="start" x="1174.34" y="-616.8" font-family="Arial" font-size="14.00">id </text>
<text text-anchor="start" x="1189.13" y="-616.8" font-family="Arial" font-size="14.00" fill="#666666">[bigint]</text>
<polygon fill="none" stroke="black" points="1167.34,-573.8 1167.34,-604.6 1421.02,-604.6 1421.02,-573.8 1167.34,-573.8"/>
<text text-anchor="start" x="1174.34" y="-586" font-family="Arial" font-size="14.00">name </text>
<text text-anchor="start" x="1213.25" y="-586" font-family="Arial" font-size="14.00" fill="#666666">[text]</text>
<polygon fill="none" stroke="black" points="1167.34,-543 1167.34,-573.8 1421.02,-573.8 1421.02,-543 1167.34,-543"/>
<text text-anchor="start" x="1174.34" y="-555.2" font-family="Arial" font-size="14.00">owner_id </text>
<text text-anchor="start" x="1235.04" y="-555.2" font-family="Arial" font-size="14.00" fill="#666666">[bigint]</text>
<polygon fill="none" stroke="black" points="1167.34,-512.2 1167.34,-543 1421.02,-543 1421.02,-512.2 1167.34,-512.2"/>
<text text-anchor="start" x="1174.34" y="-524.4" font-family="Arial" font-size="14.00">icon_key </text>
<text text-anchor="start" x="1233.48" y="-524.4" font-family="Arial" font-size="14.00" fill="#666666">[text]</text>
<polygon fill="none" stroke="black" points="1167.34,-481.4 1167.34,-512.2 1421.02,-512.2 1421.02,-481.4 1167.34,-481.4"/>
<text text-anchor="start" x="1174.34" y="-493.6" font-family="Arial" font-size="14.00">created_at </text>
<text text-anchor="start" x="1244.39" y="-493.6" font-family="Arial" font-size="14.00" fill="#666666">[timestamp with time zone]</text>
<polygon fill="none" stroke="black" points="1167.34,-450.6 1167.34,-481.4 1421.02,-481.4 1421.02,-450.6 1167.34,-450.6"/>
<text text-anchor="start" x="1174.34" y="-462.8" font-family="Arial" font-size="14.00">updated_at </text>
<text text-anchor="start" x="1248.3" y="-462.8" font-family="Arial" font-size="14.00" fill="#666666">[timestamp with time zone]</text>
<polygon fill="none" stroke="black" stroke-width="3" points="1165.84,-449.1 1165.84,-672.5 1422.52,-672.5 1422.52,-449.1 1165.84,-449.1"/>
</g>
<!-- public.users -->
<g id="node9" class="node">
<title>public.users</title>
<polygon fill="#efefef" stroke="none" points="1167.34,-289.6 1167.34,-325.2 1421.02,-325.2 1421.02,-289.6 1167.34,-289.6"/>
<polygon fill="none" stroke="black" points="1167.34,-289.6 1167.34,-325.2 1421.02,-325.2 1421.02,-289.6 1167.34,-289.6"/>
<text text-anchor="start" x="1188.69" y="-303" font-family="Arial Bold" font-size="18.00">public.users</text>
<text text-anchor="start" x="1275.18" y="-303" font-family="Arial" font-size="14.00">    </text>
<text text-anchor="start" x="1306.3" y="-303" font-family="Arial" font-size="14.00" fill="#666666">[BASE TABLE]</text>
<polygon fill="none" stroke="black" points="1167.34,-258.8 1167.34,-289.6 1421.02,-289.6 1421.02,-258.8 1167.34,-258.8"/>
<text text-anchor="start" x="1174.34" y="-271" font-family="Arial" font-size="14.00">id </text>
<text text-anchor="start" x="1189.13" y="-271" font-family="Arial" font-size="14.00" fill="#666666">[bigint]</text>
<polygon fill="none" stroke="black" points="1167.34,-228 1167.34,-258.8 1421.02,-258.8 1421.02,-228 1167.34,-228"/>
<text text-anchor="start" x="1174.34" y="-240.2" font-family="Arial" font-size="14.00">email </text>
<text text-anchor="start" x="1211.68" y="-240.2" font-family="Arial" font-size="14.00" fill="#666666">[text]</text>
<polygon fill="none" stroke="black" points="1167.34,-197.2 1167.34,-228 1421.02,-228 1421.02,-197.2 1167.34,-197.2"/>
<text text-anchor="start" x="1174.34" y="-209.4" font-family="Arial" font-size="14.00">display_name </text>
<text text-anchor="start" x="1264.62" y="-209.4" font-family="Arial" font-size="14.00" fill="#666666">[text]</text>
<polygon fill="none" stroke="black" points="1167.34,-166.4 1167.34,-197.2 1421.02,-197.2 1421.02,-166.4 1167.34,-166.4"/>
<text text-anchor="start" x="1174.34" y="-178.6" font-family="Arial" font-size="14.00">avatar_key </text>
<text text-anchor="start" x="1246.71" y="-178.6" font-family="Arial" font-size="14.00" fill="#666666">[text]</text>
<polygon fill="none" stroke="black" points="1167.34,-135.6 1167.34,-166.4 1421.02,-166.4 1421.02,-135.6 1167.34,-135.6"/>
<text text-anchor="start" x="1174.34" y="-147.8" font-family="Arial" font-size="14.00">status_text </text>
<text text-anchor="start" x="1245.93" y="-147.8" font-family="Arial" font-size="14.00" fill="#666666">[text]</text>
<polygon fill="none" stroke="black" points="1167.34,-104.8 1167.34,-135.6 1421.02,-135.6 1421.02,-104.8 1167.34,-104.8"/>
<text text-anchor="start" x="1174.34" y="-117" font-family="Arial" font-size="14.00">theme </text>
<text text-anchor="start" x="1217.14" y="-117" font-family="Arial" font-size="14.00" fill="#666666">[text]</text>
<polygon fill="none" stroke="black" points="1167.34,-74 1167.34,-104.8 1421.02,-104.8 1421.02,-74 1167.34,-74"/>
<text text-anchor="start" x="1174.34" y="-86.2" font-family="Arial" font-size="14.00">created_at </text>
<text text-anchor="start" x="1244.39" y="-86.2" font-family="Arial" font-size="14.00" fill="#666666">[timestamp with time zone]</text>
<polygon fill="none" stroke="black" points="1167.34,-43.2 1167.34,-74 1421.02,-74 1421.02,-43.2 1167.34,-43.2"/>
<text text-anchor="start" x="1174.34" y="-55.4" font-family="Arial" font-size="14.00">updated_at </text>
<text text-anchor="start" x="1248.3" y="-55.4" font-family="Arial" font-size="14.00" fill="#666666">[timestamp with time zone]</text>
</g>
<!-- public.guilds&#45;&gt;public.users -->
<g id="edge8" class="edge">
<title>public.guilds:owner_id&#45;&gt;public.users:id</title>
<path fill="none" stroke="black" d="M1432.1,-557.77C1548.24,-543.07 1544.88,-274.2 1422.02,-274.2"/>
<polygon fill="black" stroke="black" points="1432.34,-557.76 1422.08,-553.89 1427.01,-558.09 1422.69,-558.36 1422.69,-558.36 1422.69,-558.36 1427.01,-558.09 1422.63,-562.87 1432.34,-557.76"/>
<text text-anchor="start" x="1429.02" y="-568.4" font-family="Arial" font-size="10.00">FOREIGN KEY (owner_id) REFERENCES users(id) ON DELETE RESTRICT</text>
</g>
<!-- public.guild_members -->
<g id="node2" class="node">
<title>public.guild_members</title>
<polygon fill="#efefef" stroke="none" points="43.2,-1027.4 43.2,-1063 343.16,-1063 343.16,-1027.4 43.2,-1027.4"/>
<polygon fill="none" stroke="black" points="43.2,-1027.4 43.2,-1063 343.16,-1063 343.16,-1027.4 43.2,-1027.4"/>
<text text-anchor="start" x="50.2" y="-1040.8" font-family="Arial Bold" font-size="18.00">public.guild_members</text>
<text text-anchor="start" x="211.67" y="-1040.8" font-family="Arial" font-size="14.00">    </text>
<text text-anchor="start" x="242.79" y="-1040.8" font-family="Arial" font-size="14.00" fill="#666666">[BASE TABLE]</text>
<polygon fill="none" stroke="black" points="43.2,-996.6 43.2,-1027.4 343.16,-1027.4 343.16,-996.6 43.2,-996.6"/>
<text text-anchor="start" x="50.2" y="-1008.8" font-family="Arial" font-size="14.00">guild_id </text>
<text text-anchor="start" x="102.35" y="-1008.8" font-family="Arial" font-size="14.00" fill="#666666">[bigint]</text>
<polygon fill="none" stroke="black" points="43.2,-965.8 43.2,-996.6 343.16,-996.6 343.16,-965.8 43.2,-965.8"/>
<text text-anchor="start" x="50.2" y="-978" font-family="Arial" font-size="14.00">user_id </text>
<text text-anchor="start" x="100.01" y="-978" font-family="Arial" font-size="14.00" fill="#666666">[bigint]</text>
<polygon fill="none" stroke="black" points="43.2,-935 43.2,-965.8 343.16,-965.8 343.16,-935 43.2,-935"/>
<text text-anchor="start" x="50.2" y="-947.2" font-family="Arial" font-size="14.00">joined_at </text>
<text text-anchor="start" x="110.92" y="-947.2" font-family="Arial" font-size="14.00" fill="#666666">[timestamp with time zone]</text>
<polygon fill="none" stroke="black" points="43.2,-904.2 43.2,-935 343.16,-935 343.16,-904.2 43.2,-904.2"/>
<text text-anchor="start" x="50.2" y="-916.4" font-family="Arial" font-size="14.00">nickname </text>
<text text-anchor="start" x="114.01" y="-916.4" font-family="Arial" font-size="14.00" fill="#666666">[text]</text>
</g>
<!-- public.guild_members&#45;&gt;public.guilds -->
<g id="edge1" class="edge">
<title>public.guild_members:guild_id&#45;&gt;public.guilds:id</title>
<path fill="none" stroke="black" d="M354.38,-1011.49C452.25,-1001.04 313.93,-832.55 395.18,-753.2 519.59,-631.69 992.43,-620 1166.34,-620"/>
<polygon fill="black" stroke="black" points="354.48,-1011.49 344.27,-1007.49 349.16,-1011.75 344.83,-1011.97 344.83,-1011.97 344.83,-1011.97 349.16,-1011.75 344.72,-1016.48 354.48,-1011.49"/>
<text text-anchor="start" x="175.51" y="-996" font-family="Arial" font-size="10.00">FOREIGN KEY (guild_id) REFERENCES guilds(id) ON DELETE CASCADE</text>
</g>
<!-- public.invites -->
<g id="node3" class="node">
<title>public.invites</title>
<polygon fill="#efefef" stroke="none" points="447.3,-1104.4 447.3,-1140 697.07,-1140 697.07,-1104.4 447.3,-1104.4"/>
<polygon fill="none" stroke="black" points="447.3,-1104.4 447.3,-1140 697.07,-1140 697.07,-1104.4 447.3,-1104.4"/>
<text text-anchor="start" x="461.19" y="-1117.8" font-family="Arial Bold" font-size="18.00">public.invites</text>
<text text-anchor="start" x="558.68" y="-1117.8" font-family="Arial" font-size="14.00">    </text>
<text text-anchor="start" x="589.8" y="-1117.8" font-family="Arial" font-size="14.00" fill="#666666">[BASE TABLE]</text>
<polygon fill="none" stroke="black" points="447.3,-1073.6 447.3,-1104.4 697.07,-1104.4 697.07,-1073.6 447.3,-1073.6"/>
<text text-anchor="start" x="454.3" y="-1085.8" font-family="Arial" font-size="14.00">id </text>
<text text-anchor="start" x="469.08" y="-1085.8" font-family="Arial" font-size="14.00" fill="#666666">[bigint]</text>
<polygon fill="none" stroke="black" points="447.3,-1042.8 447.3,-1073.6 697.07,-1073.6 697.07,-1042.8 447.3,-1042.8"/>
<text text-anchor="start" x="454.3" y="-1055" font-family="Arial" font-size="14.00">guild_id </text>
<text text-anchor="start" x="506.45" y="-1055" font-family="Arial" font-size="14.00" fill="#666666">[bigint]</text>
<polygon fill="none" stroke="black" points="447.3,-1012 447.3,-1042.8 697.07,-1042.8 697.07,-1012 447.3,-1012"/>
<text text-anchor="start" x="454.3" y="-1024.2" font-family="Arial" font-size="14.00">created_by </text>
<text text-anchor="start" x="527.45" y="-1024.2" font-family="Arial" font-size="14.00" fill="#666666">[bigint]</text>
<polygon fill="none" stroke="black" points="447.3,-981.2 447.3,-1012 697.07,-1012 697.07,-981.2 447.3,-981.2"/>
<text text-anchor="start" x="454.3" y="-993.4" font-family="Arial" font-size="14.00">code </text>
<text text-anchor="start" x="488.54" y="-993.4" font-family="Arial" font-size="14.00" fill="#666666">[text]</text>
<polygon fill="none" stroke="black" points="447.3,-950.4 447.3,-981.2 697.07,-981.2 697.07,-950.4 447.3,-950.4"/>
<text text-anchor="start" x="454.3" y="-962.6" font-family="Arial" font-size="14.00">expires_at </text>
<text text-anchor="start" x="522.78" y="-962.6" font-family="Arial" font-size="14.00" fill="#666666">[timestamp with time zone]</text>
<polygon fill="none" stroke="black" points="447.3,-919.6 447.3,-950.4 697.07,-950.4 697.07,-919.6 447.3,-919.6"/>
<text text-anchor="start" x="454.3" y="-931.8" font-family="Arial" font-size="14.00">max_uses </text>
<text text-anchor="start" x="521.99" y="-931.8" font-family="Arial" font-size="14.00" fill="#666666">[integer]</text>
<polygon fill="none" stroke="black" points="447.3,-888.8 447.3,-919.6 697.07,-919.6 697.07,-888.8 447.3,-888.8"/>
<text text-anchor="start" x="454.3" y="-901" font-family="Arial" font-size="14.00">uses </text>
<text text-anchor="start" x="487.76" y="-901" font-family="Arial" font-size="14.00" fill="#666666">[integer]</text>
<polygon fill="none" stroke="black" points="447.3,-858 447.3,-888.8 697.07,-888.8 697.07,-858 447.3,-858"/>
<text text-anchor="start" x="454.3" y="-870.2" font-family="Arial" font-size="14.00">is_disabled </text>
<text text-anchor="start" x="528.23" y="-870.2" font-family="Arial" font-size="14.00" fill="#666666">[boolean]</text>
<polygon fill="none" stroke="black" points="447.3,-827.2 447.3,-858 697.07,-858 697.07,-827.2 447.3,-827.2"/>
<text text-anchor="start" x="454.3" y="-839.4" font-family="Arial" font-size="14.00">created_at </text>
<text text-anchor="start" x="524.34" y="-839.4" font-family="Arial" font-size="14.00" fill="#666666">[timestamp with time zone]</text>
</g>
<!-- public.invites&#45;&gt;public.guilds -->
<g id="edge2" class="edge">
<title>public.invites:guild_id&#45;&gt;public.guilds:id</title>
<path fill="none" stroke="black" d="M708.2,-1056C760.26,-1031.12 706.64,-802.3 749.18,-753.2 812.9,-679.65 1069.03,-620 1166.34,-620"/>
<polygon fill="black" stroke="black" points="708.17,-1056.01 697.44,-1053.73 702.95,-1057.14 698.72,-1058.06 698.72,-1058.06 698.72,-1058.06 702.95,-1057.14 699.35,-1062.53 708.17,-1056.01"/>
<text text-anchor="start" x="705.07" y="-1068.2" font-family="Arial" font-size="10.00">FOREIGN KEY (guild_id) REFERENCES guilds(id) ON DELETE CASCADE</text>
</g>
<!-- public.channels -->
<g id="node4" class="node">
<title>public.channels</title>
<polygon fill="#efefef" stroke="none" points="801.34,-1073.6 801.34,-1109.2 1055.02,-1109.2 1055.02,-1073.6 801.34,-1073.6"/>
<polygon fill="none" stroke="black" points="801.34,-1073.6 801.34,-1109.2 1055.02,-1109.2 1055.02,-1073.6 801.34,-1073.6"/>
<text text-anchor="start" x="809.7" y="-1087" font-family="Arial Bold" font-size="18.00">public.channels</text>
<text text-anchor="start" x="922.17" y="-1087" font-family="Arial" font-size="14.00">    </text>
<text text-anchor="start" x="953.29" y="-1087" font-family="Arial" font-size="14.00" fill="#666666">[BASE TABLE]</text>
<polygon fill="none" stroke="black" points="801.34,-1042.8 801.34,-1073.6 1055.02,-1073.6 1055.02,-1042.8 801.34,-1042.8"/>
<text text-anchor="start" x="808.34" y="-1055" font-family="Arial" font-size="14.00">id </text>
<text text-anchor="start" x="823.13" y="-1055" font-family="Arial" font-size="14.00" fill="#666666">[bigint]</text>
<polygon fill="none" stroke="black" points="801.34,-1012 801.34,-1042.8 1055.02,-1042.8 1055.02,-1012 801.34,-1012"/>
<text text-anchor="start" x="808.34" y="-1024.2" font-family="Arial" font-size="14.00">type </text>
<text text-anchor="start" x="838.69" y="-1024.2" font-family="Arial" font-size="14.00" fill="#666666">[channel_type]</text>
<polygon fill="none" stroke="black" points="801.34,-981.2 801.34,-1012 1055.02,-1012 1055.02,-981.2 801.34,-981.2"/>
<text text-anchor="start" x="808.34" y="-993.4" font-family="Arial" font-size="14.00">guild_id </text>
<text text-anchor="start" x="860.49" y="-993.4" font-family="Arial" font-size="14.00" fill="#666666">[bigint]</text>
<polygon fill="none" stroke="black" points="801.34,-950.4 801.34,-981.2 1055.02,-981.2 1055.02,-950.4 801.34,-950.4"/>
<text text-anchor="start" x="808.34" y="-962.6" font-family="Arial" font-size="14.00">name </text>
<text text-anchor="start" x="847.25" y="-962.6" font-family="Arial" font-size="14.00" fill="#666666">[text]</text>
<polygon fill="none" stroke="black" points="801.34,-919.6 801.34,-950.4 1055.02,-950.4 1055.02,-919.6 801.34,-919.6"/>
<text text-anchor="start" x="808.34" y="-931.8" font-family="Arial" font-size="14.00">created_by </text>
<text text-anchor="start" x="881.5" y="-931.8" font-family="Arial" font-size="14.00" fill="#666666">[bigint]</text>
<polygon fill="none" stroke="black" points="801.34,-888.8 801.34,-919.6 1055.02,-919.6 1055.02,-888.8 801.34,-888.8"/>
<text text-anchor="start" x="808.34" y="-901" font-family="Arial" font-size="14.00">created_at </text>
<text text-anchor="start" x="878.39" y="-901" font-family="Arial" font-size="14.00" fill="#666666">[timestamp with time zone]</text>
<polygon fill="none" stroke="black" points="801.34,-858 801.34,-888.8 1055.02,-888.8 1055.02,-858 801.34,-858"/>
<text text-anchor="start" x="808.34" y="-870.2" font-family="Arial" font-size="14.00">updated_at </text>
<text text-anchor="start" x="882.3" y="-870.2" font-family="Arial" font-size="14.00" fill="#666666">[timestamp with time zone]</text>
</g>
<!-- public.channels&#45;&gt;public.guilds -->
<g id="edge3" class="edge">
<title>public.channels:guild_id&#45;&gt;public.guilds:id</title>
<path fill="none" stroke="black" d="M1066.06,-994.17C1108.66,-971.87 1091.31,-802.3 1107.18,-753.2 1127.1,-691.56 1101.56,-620 1166.34,-620"/>
<polygon fill="black" stroke="black" points="1066.07,-994.17 1055.29,-992.15 1060.88,-995.42 1056.67,-996.44 1056.67,-996.44 1056.67,-996.44 1060.88,-995.42 1057.41,-1000.9 1066.07,-994.17"/>
<text text-anchor="start" x="1063.02" y="-1006.6" font-family="Arial" font-size="10.00">FOREIGN KEY (guild_id) REFERENCES guilds(id) ON DELETE CASCADE</text>
</g>
<!-- public.guild_roles -->
<g id="node5" class="node">
<title>public.guild_roles</title>
<polygon fill="#efefef" stroke="none" points="1159.7,-1012 1159.7,-1047.6 1428.67,-1047.6 1428.67,-1012 1159.7,-1012"/>
<polygon fill="none" stroke="black" points="1159.7,-1012 1159.7,-1047.6 1428.67,-1047.6 1428.67,-1012 1159.7,-1012"/>
<text text-anchor="start" x="1166.7" y="-1025.4" font-family="Arial Bold" font-size="18.00">public.guild_roles</text>
<text text-anchor="start" x="1297.18" y="-1025.4" font-family="Arial" font-size="14.00">    </text>
<text text-anchor="start" x="1328.29" y="-1025.4" font-family="Arial" font-size="14.00" fill="#666666">[BASE TABLE]</text>
<polygon fill="none" stroke="black" points="1159.7,-981.2 1159.7,-1012 1428.67,-1012 1428.67,-981.2 1159.7,-981.2"/>
<text text-anchor="start" x="1166.7" y="-993.4" font-family="Arial" font-size="14.00">guild_id </text>
<text text-anchor="start" x="1218.85" y="-993.4" font-family="Arial" font-size="14.00" fill="#666666">[bigint]</text>
<polygon fill="none" stroke="black" points="1159.7,-950.4 1159.7,-981.2 1428.67,-981.2 1428.67,-950.4 1159.7,-950.4"/>
<text text-anchor="start" x="1166.7" y="-962.6" font-family="Arial" font-size="14.00">level </text>
<text text-anchor="start" x="1199.38" y="-962.6" font-family="Arial" font-size="14.00" fill="#666666">[role_level]</text>
<polygon fill="none" stroke="black" points="1159.7,-919.6 1159.7,-950.4 1428.67,-950.4 1428.67,-919.6 1159.7,-919.6"/>
<text text-anchor="start" x="1166.7" y="-931.8" font-family="Arial" font-size="14.00">name </text>
<text text-anchor="start" x="1205.61" y="-931.8" font-family="Arial" font-size="14.00" fill="#666666">[text]</text>
</g>
<!-- public.guild_roles&#45;&gt;public.guilds -->
<g id="edge4" class="edge">
<title>public.guild_roles:guild_id&#45;&gt;public.guilds:id</title>
<path fill="none" stroke="black" d="M1438.17,-990.68C1470.2,-942.77 1460.77,-620 1422.02,-620"/>
<polygon fill="black" stroke="black" points="1438.15,-990.7 1427.37,-992.71 1433.77,-993.75 1430.22,-996.22 1430.22,-996.22 1430.22,-996.22 1433.77,-993.75 1432.51,-1000.1 1438.15,-990.7"/>
<text text-anchor="start" x="1085.36" y="-980.6" font-family="Arial" font-size="10.00">FOREIGN KEY (guild_id) REFERENCES guilds(id) ON DELETE CASCADE</text>
</g>
<!-- public.audit_logs -->
<g id="node6" class="node">
<title>public.audit_logs</title>
<polygon fill="#efefef" stroke="none" points="1532.69,-1089 1532.69,-1124.6 1795.67,-1124.6 1795.67,-1089 1532.69,-1089"/>
<polygon fill="none" stroke="black" points="1532.69,-1089 1532.69,-1124.6 1795.67,-1124.6 1795.67,-1089 1532.69,-1089"/>
<text text-anchor="start" x="1539.69" y="-1102.4" font-family="Arial Bold" font-size="18.00">public.audit_logs</text>
<text text-anchor="start" x="1664.18" y="-1102.4" font-family="Arial" font-size="14.00">    </text>
<text text-anchor="start" x="1695.3" y="-1102.4" font-family="Arial" font-size="14.00" fill="#666666">[BASE TABLE]</text>
<polygon fill="none" stroke="black" points="1532.69,-1058.2 1532.69,-1089 1795.67,-1089 1795.67,-1058.2 1532.69,-1058.2"/>
<text text-anchor="start" x="1539.69" y="-1070.4" font-family="Arial" font-size="14.00">id </text>
<text text-anchor="start" x="1554.48" y="-1070.4" font-family="Arial" font-size="14.00" fill="#666666">[bigint]</text>
<polygon fill="none" stroke="black" points="1532.69,-1027.4 1532.69,-1058.2 1795.67,-1058.2 1795.67,-1027.4 1532.69,-1027.4"/>
<text text-anchor="start" x="1539.69" y="-1039.6" font-family="Arial" font-size="14.00">guild_id </text>
<text text-anchor="start" x="1591.84" y="-1039.6" font-family="Arial" font-size="14.00" fill="#666666">[bigint]</text>
<polygon fill="none" stroke="black" points="1532.69,-996.6 1532.69,-1027.4 1795.67,-1027.4 1795.67,-996.6 1532.69,-996.6"/>
<text text-anchor="start" x="1539.69" y="-1008.8" font-family="Arial" font-size="14.00">actor_id </text>
<text text-anchor="start" x="1593.39" y="-1008.8" font-family="Arial" font-size="14.00" fill="#666666">[bigint]</text>
<polygon fill="none" stroke="black" points="1532.69,-965.8 1532.69,-996.6 1795.67,-996.6 1795.67,-965.8 1532.69,-965.8"/>
<text text-anchor="start" x="1539.69" y="-978" font-family="Arial" font-size="14.00">action </text>
<text text-anchor="start" x="1580.94" y="-978" font-family="Arial" font-size="14.00" fill="#666666">[audit_action]</text>
<polygon fill="none" stroke="black" points="1532.69,-935 1532.69,-965.8 1795.67,-965.8 1795.67,-935 1532.69,-935"/>
<text text-anchor="start" x="1539.69" y="-947.2" font-family="Arial" font-size="14.00">target_type </text>
<text text-anchor="start" x="1613.63" y="-947.2" font-family="Arial" font-size="14.00" fill="#666666">[text]</text>
<polygon fill="none" stroke="black" points="1532.69,-904.2 1532.69,-935 1795.67,-935 1795.67,-904.2 1532.69,-904.2"/>
<text text-anchor="start" x="1539.69" y="-916.4" font-family="Arial" font-size="14.00">target_id </text>
<text text-anchor="start" x="1598.06" y="-916.4" font-family="Arial" font-size="14.00" fill="#666666">[bigint]</text>
<polygon fill="none" stroke="black" points="1532.69,-873.4 1532.69,-904.2 1795.67,-904.2 1795.67,-873.4 1532.69,-873.4"/>
<text text-anchor="start" x="1539.69" y="-885.6" font-family="Arial" font-size="14.00">metadata </text>
<text text-anchor="start" x="1601.95" y="-885.6" font-family="Arial" font-size="14.00" fill="#666666">[jsonb]</text>
<polygon fill="none" stroke="black" points="1532.69,-842.6 1532.69,-873.4 1795.67,-873.4 1795.67,-842.6 1532.69,-842.6"/>
<text text-anchor="start" x="1539.69" y="-854.8" font-family="Arial" font-size="14.00">created_at </text>
<text text-anchor="start" x="1609.74" y="-854.8" font-family="Arial" font-size="14.00" fill="#666666">[timestamp with time zone]</text>
</g>
<!-- public.audit_logs&#45;&gt;public.guilds -->
<g id="edge5" class="edge">
<title>public.audit_logs:guild_id&#45;&gt;public.guilds:id</title>
<path fill="none" stroke="black" d="M1521.52,-1040.69C1470.03,-1017.6 1499.12,-812.16 1481.18,-753.2 1462.33,-691.23 1486.8,-620 1422.02,-620"/>
<polygon fill="black" stroke="black" points="1521.57,-1040.7 1530.45,-1047.14 1526.8,-1041.78 1531.04,-1042.66 1531.04,-1042.66 1531.04,-1042.66 1526.8,-1041.78 1532.28,-1038.33 1521.57,-1040.7"/>
<text text-anchor="start" x="1275.62" y="-1026.8" font-family="Arial" font-size="10.00">FOREIGN KEY (guild_id) REFERENCES guilds(id) ON DELETE SET NULL</text>
</g>
<!-- public.guild_roles_v2 -->
<g id="node7" class="node">
<title>public.guild_roles_v2</title>
<polygon fill="#efefef" stroke="none" points="1900.2,-1135.2 1900.2,-1170.8 2196.17,-1170.8 2196.17,-1135.2 1900.2,-1135.2"/>
<polygon fill="none" stroke="black" points="1900.2,-1135.2 1900.2,-1170.8 2196.17,-1170.8 2196.17,-1135.2 1900.2,-1135.2"/>
<text text-anchor="start" x="1907.2" y="-1148.6" font-family="Arial Bold" font-size="18.00">public.guild_roles_v2</text>
<text text-anchor="start" x="2064.68" y="-1148.6" font-family="Arial" font-size="14.00">    </text>
<text text-anchor="start" x="2095.79" y="-1148.6" font-family="Arial" font-size="14.00" fill="#666666">[BASE TABLE]</text>
<polygon fill="none" stroke="black" points="1900.2,-1104.4 1900.2,-1135.2 2196.17,-1135.2 2196.17,-1104.4 1900.2,-1104.4"/>
<text text-anchor="start" x="1907.2" y="-1116.6" font-family="Arial" font-size="14.00">guild_id </text>
<text text-anchor="start" x="1959.35" y="-1116.6" font-family="Arial" font-size="14.00" fill="#666666">[bigint]</text>
<polygon fill="none" stroke="black" points="1900.2,-1073.6 1900.2,-1104.4 2196.17,-1104.4 2196.17,-1073.6 1900.2,-1073.6"/>
<text text-anchor="start" x="1907.2" y="-1085.8" font-family="Arial" font-size="14.00">role_key </text>
<text text-anchor="start" x="1964" y="-1085.8" font-family="Arial" font-size="14.00" fill="#666666">[text]</text>
<polygon fill="none" stroke="black" points="1900.2,-1042.8 1900.2,-1073.6 2196.17,-1073.6 2196.17,-1042.8 1900.2,-1042.8"/>
<text text-anchor="start" x="1907.2" y="-1055" font-family="Arial" font-size="14.00">name </text>
<text text-anchor="start" x="1946.11" y="-1055" font-family="Arial" font-size="14.00" fill="#666666">[text]</text>
<polygon fill="none" stroke="black" points="1900.2,-1012 1900.2,-1042.8 2196.17,-1042.8 2196.17,-1012 1900.2,-1012"/>
<text text-anchor="start" x="1907.2" y="-1024.2" font-family="Arial" font-size="14.00">priority </text>
<text text-anchor="start" x="1953.09" y="-1024.2" font-family="Arial" font-size="14.00" fill="#666666">[integer]</text>
<polygon fill="none" stroke="black" points="1900.2,-981.2 1900.2,-1012 2196.17,-1012 2196.17,-981.2 1900.2,-981.2"/>
<text text-anchor="start" x="1907.2" y="-993.4" font-family="Arial" font-size="14.00">allow_view </text>
<text text-anchor="start" x="1978.78" y="-993.4" font-family="Arial" font-size="14.00" fill="#666666">[boolean]</text>
<polygon fill="none" stroke="black" points="1900.2,-950.4 1900.2,-981.2 2196.17,-981.2 2196.17,-950.4 1900.2,-950.4"/>
<text text-anchor="start" x="1907.2" y="-962.6" font-family="Arial" font-size="14.00">allow_post </text>
<text text-anchor="start" x="1977.24" y="-962.6" font-family="Arial" font-size="14.00" fill="#666666">[boolean]</text>
<polygon fill="none" stroke="black" points="1900.2,-919.6 1900.2,-950.4 2196.17,-950.4 2196.17,-919.6 1900.2,-919.6"/>
<text text-anchor="start" x="1907.2" y="-931.8" font-family="Arial" font-size="14.00">allow_manage </text>
<text text-anchor="start" x="2001.37" y="-931.8" font-family="Arial" font-size="14.00" fill="#666666">[boolean]</text>
<polygon fill="none" stroke="black" points="1900.2,-888.8 1900.2,-919.6 2196.17,-919.6 2196.17,-888.8 1900.2,-888.8"/>
<text text-anchor="start" x="1907.2" y="-901" font-family="Arial" font-size="14.00">is_system </text>
<text text-anchor="start" x="1973.32" y="-901" font-family="Arial" font-size="14.00" fill="#666666">[boolean]</text>
<polygon fill="none" stroke="black" points="1900.2,-858 1900.2,-888.8 2196.17,-888.8 2196.17,-858 1900.2,-858"/>
<text text-anchor="start" x="1907.2" y="-870.2" font-family="Arial" font-size="14.00">created_at </text>
<text text-anchor="start" x="1977.24" y="-870.2" font-family="Arial" font-size="14.00" fill="#666666">[timestamp with time zone]</text>
<polygon fill="none" stroke="black" points="1900.2,-827.2 1900.2,-858 2196.17,-858 2196.17,-827.2 1900.2,-827.2"/>
<text text-anchor="start" x="1907.2" y="-839.4" font-family="Arial" font-size="14.00">updated_at </text>
<text text-anchor="start" x="1981.15" y="-839.4" font-family="Arial" font-size="14.00" fill="#666666">[timestamp with time zone]</text>
<polygon fill="none" stroke="black" points="1900.2,-796.4 1900.2,-827.2 2196.17,-827.2 2196.17,-796.4 1900.2,-796.4"/>
<text text-anchor="start" x="1907.2" y="-808.6" font-family="Arial" font-size="14.00">source_level </text>
<text text-anchor="start" x="1989.68" y="-808.6" font-family="Arial" font-size="14.00" fill="#666666">[role_level]</text>
</g>
<!-- public.guild_roles_v2&#45;&gt;public.guilds -->
<g id="edge6" class="edge">
<title>public.guild_roles_v2:guild_id&#45;&gt;public.guilds:id</title>
<path fill="none" stroke="black" d="M1889.09,-1118.01C1824.25,-1092.99 1898.97,-813.13 1848.18,-753.2 1784.03,-677.51 1521.24,-620 1422.02,-620"/>
<polygon fill="black" stroke="black" points="1889.02,-1118 1898.08,-1124.17 1894.27,-1118.93 1898.54,-1119.68 1898.54,-1119.68 1898.54,-1119.68 1894.27,-1118.93 1899.65,-1115.31 1889.02,-1118"/>
<text text-anchor="start" x="1906.2" y="-1129.8" font-family="Arial" font-size="10.00">FOREIGN KEY (guild_id) REFERENCES guilds(id) ON DELETE CASCADE</text>
</g>
<!-- public.channel_hierarchies_v2 -->
<g id="node8" class="node">
<title>public.channel_hierarchies_v2</title>
<polygon fill="#efefef" stroke="none" points="2300.73,-1104.4 2300.73,-1140 2659.63,-1140 2659.63,-1104.4 2300.73,-1104.4"/>
<polygon fill="none" stroke="black" points="2300.73,-1104.4 2300.73,-1140 2659.63,-1140 2659.63,-1104.4 2300.73,-1104.4"/>
<text text-anchor="start" x="2307.73" y="-1117.8" font-family="Arial Bold" font-size="18.00">public.channel_hierarchies_v2</text>
<text text-anchor="start" x="2528.14" y="-1117.8" font-family="Arial" font-size="14.00">    </text>
<text text-anchor="start" x="2559.26" y="-1117.8" font-family="Arial" font-size="14.00" fill="#666666">[BASE TABLE]</text>
<polygon fill="none" stroke="black" points="2300.73,-1073.6 2300.73,-1104.4 2659.63,-1104.4 2659.63,-1073.6 2300.73,-1073.6"/>
<text text-anchor="start" x="2307.73" y="-1085.8" font-family="Arial" font-size="14.00">child_channel_id </text>
<text text-anchor="start" x="2415.92" y="-1085.8" font-family="Arial" font-size="14.00" fill="#666666">[bigint]</text>
<polygon fill="none" stroke="black" points="2300.73,-1042.8 2300.73,-1073.6 2659.63,-1073.6 2659.63,-1042.8 2300.73,-1042.8"/>
<text text-anchor="start" x="2307.73" y="-1055" font-family="Arial" font-size="14.00">guild_id </text>
<text text-anchor="start" x="2359.88" y="-1055" font-family="Arial" font-size="14.00" fill="#666666">[bigint]</text>
<polygon fill="none" stroke="black" points="2300.73,-1012 2300.73,-1042.8 2659.63,-1042.8 2659.63,-1012 2300.73,-1012"/>
<text text-anchor="start" x="2307.73" y="-1024.2" font-family="Arial" font-size="14.00">parent_channel_id </text>
<text text-anchor="start" x="2426.83" y="-1024.2" font-family="Arial" font-size="14.00" fill="#666666">[bigint]</text>
<polygon fill="none" stroke="black" points="2300.73,-981.2 2300.73,-1012 2659.63,-1012 2659.63,-981.2 2300.73,-981.2"/>
<text text-anchor="start" x="2307.73" y="-993.4" font-family="Arial" font-size="14.00">hierarchy_kind </text>
<text text-anchor="start" x="2402.67" y="-993.4" font-family="Arial" font-size="14.00" fill="#666666">[channel_hierarchy_kind]</text>
<polygon fill="none" stroke="black" points="2300.73,-950.4 2300.73,-981.2 2659.63,-981.2 2659.63,-950.4 2300.73,-950.4"/>
<text text-anchor="start" x="2307.73" y="-962.6" font-family="Arial" font-size="14.00">parent_message_id </text>
<text text-anchor="start" x="2434.59" y="-962.6" font-family="Arial" font-size="14.00" fill="#666666">[bigint]</text>
<polygon fill="none" stroke="black" points="2300.73,-919.6 2300.73,-950.4 2659.63,-950.4 2659.63,-919.6 2300.73,-919.6"/>
<text text-anchor="start" x="2307.73" y="-931.8" font-family="Arial" font-size="14.00">position </text>
<text text-anchor="start" x="2359.87" y="-931.8" font-family="Arial" font-size="14.00" fill="#666666">[integer]</text>
<polygon fill="none" stroke="black" points="2300.73,-888.8 2300.73,-919.6 2659.63,-919.6 2659.63,-888.8 2300.73,-888.8"/>
<text text-anchor="start" x="2307.73" y="-901" font-family="Arial" font-size="14.00">archived_at </text>
<text text-anchor="start" x="2384" y="-901" font-family="Arial" font-size="14.00" fill="#666666">[timestamp with time zone]</text>
<polygon fill="none" stroke="black" points="2300.73,-858 2300.73,-888.8 2659.63,-888.8 2659.63,-858 2300.73,-858"/>
<text text-anchor="start" x="2307.73" y="-870.2" font-family="Arial" font-size="14.00">created_at </text>
<text text-anchor="start" x="2377.78" y="-870.2" font-family="Arial" font-size="14.00" fill="#666666">[timestamp with time zone]</text>
<polygon fill="none" stroke="black" points="2300.73,-827.2 2300.73,-858 2659.63,-858 2659.63,-827.2 2300.73,-827.2"/>
<text text-anchor="start" x="2307.73" y="-839.4" font-family="Arial" font-size="14.00">updated_at </text>
<text text-anchor="start" x="2381.69" y="-839.4" font-family="Arial" font-size="14.00" fill="#666666">[timestamp with time zone]</text>
</g>
<!-- public.channel_hierarchies_v2&#45;&gt;public.guilds -->
<g id="edge7" class="edge">
<title>public.channel_hierarchies_v2:guild_id&#45;&gt;public.guilds:id</title>
<path fill="none" stroke="black" d="M2289.62,-1055.97C2237.86,-1030.76 2294.3,-798.97 2248.18,-753.2 2116.19,-622.2 1607.98,-620 1422.02,-620"/>
<polygon fill="black" stroke="black" points="2289.64,-1055.98 2298.44,-1062.52 2294.85,-1057.12 2299.08,-1058.06 2299.08,-1058.06 2299.08,-1058.06 2294.85,-1057.12 2300.37,-1053.73 2289.64,-1055.98"/>
<text text-anchor="start" x="1955.42" y="-1068.2" font-family="Arial" font-size="10.00">FOREIGN KEY (guild_id) REFERENCES guilds(id) ON DELETE CASCADE</text>
</g>
</g>
</svg>
