<?xml version="1.0" encoding="UTF-8" standalone="no"?>
<!DOCTYPE svg PUBLIC "-//W3C//DTD SVG 1.1//EN"
 "http://www.w3.org/Graphics/SVG/1.1/DTD/svg11.dtd">
<!-- Generated by graphviz version 12.1.2 (20240928.0832)
 -->
<!-- Title: public.channels Pages: 1 -->
<svg width="4585pt" height="1191pt"
 viewBox="0.00 0.00 4585.30 1191.20" xmlns="http://www.w3.org/2000/svg" xmlns:xlink="http://www.w3.org/1999/xlink">
<g id="graph0" class="graph" transform="scale(1 1) rotate(0) translate(4 1187.2)">
<title>public.channels</title>
<polygon fill="white" stroke="none" points="-4,4 -4,-1187.2 4581.3,-1187.2 4581.3,4 -4,4"/>
<!-- public.channels -->
<g id="node1" class="node">
<title>public.channels</title>
<polygon fill="#efefef" stroke="none" points="2375.3,-666.2 2375.3,-701.8 2628.98,-701.8 2628.98,-666.2 2375.3,-666.2"/>
<polygon fill="none" stroke="black" points="2375.3,-666.2 2375.3,-701.8 2628.98,-701.8 2628.98,-666.2 2375.3,-666.2"/>
<text text-anchor="start" x="2383.66" y="-679.6" font-family="Arial Bold" font-size="18.00">public.channels</text>
<text text-anchor="start" x="2496.12" y="-679.6" font-family="Arial" font-size="14.00">    </text>
<text text-anchor="start" x="2527.24" y="-679.6" font-family="Arial" font-size="14.00" fill="#666666">[BASE TABLE]</text>
<polygon fill="none" stroke="black" points="2375.3,-635.4 2375.3,-666.2 2628.98,-666.2 2628.98,-635.4 2375.3,-635.4"/>
<text text-anchor="start" x="2382.3" y="-647.6" font-family="Arial" font-size="14.00">id </text>
<text text-anchor="start" x="2397.08" y="-647.6" font-family="Arial" font-size="14.00" fill="#666666">[bigint]</text>
<polygon fill="none" stroke="black" points="2375.3,-604.6 2375.3,-635.4 2628.98,-635.4 2628.98,-604.6 2375.3,-604.6"/>
<text text-anchor="start" x="2382.3" y="-616.8" font-family="Arial" font-size="14.00">type </text>
<text text-anchor="start" x="2412.65" y="-616.8" font-family="Arial" font-size="14.00" fill="#666666">[channel_type]</text>
<polygon fill="none" stroke="black" points="2375.3,-573.8 2375.3,-604.6 2628.98,-604.6 2628.98,-573.8 2375.3,-573.8"/>
<text text-anchor="start" x="2382.3" y="-586" font-family="Arial" font-size="14.00">guild_id </text>
<text text-anchor="start" x="2434.45" y="-586" font-family="Arial" font-size="14.00" fill="#666666">[bigint]</text>
<polygon fill="none" stroke="black" points="2375.3,-543 2375.3,-573.8 2628.98,-573.8 2628.98,-543 2375.3,-543"/>
<text text-anchor="start" x="2382.3" y="-555.2" font-family="Arial" font-size="14.00">name </text>
<text text-anchor="start" x="2421.21" y="-555.2" font-family="Arial" font-size="14.00" fill="#666666">[text]</text>
<polygon fill="none" stroke="black" points="2375.3,-512.2 2375.3,-543 2628.98,-543 2628.98,-512.2 2375.3,-512.2"/>
<text text-anchor="start" x="2382.3" y="-524.4" font-family="Arial" font-size="14.00">created_by </text>
<text text-anchor="start" x="2455.45" y="-524.4" font-family="Arial" font-size="14.00" fill="#666666">[bigint]</text>
<polygon fill="none" stroke="black" points="2375.3,-481.4 2375.3,-512.2 2628.98,-512.2 2628.98,-481.4 2375.3,-481.4"/>
<text text-anchor="start" x="2382.3" y="-493.6" font-family="Arial" font-size="14.00">created_at </text>
<text text-anchor="start" x="2452.34" y="-493.6" font-family="Arial" font-size="14.00" fill="#666666">[timestamp with time zone]</text>
<polygon fill="none" stroke="black" points="2375.3,-450.6 2375.3,-481.4 2628.98,-481.4 2628.98,-450.6 2375.3,-450.6"/>
<text text-anchor="start" x="2382.3" y="-462.8" font-family="Arial" font-size="14.00">updated_at </text>
<text text-anchor="start" x="2456.25" y="-462.8" font-family="Arial" font-size="14.00" fill="#666666">[timestamp with time zone]</text>
<polygon fill="none" stroke="black" stroke-width="3" points="2373.8,-449.1 2373.8,-703.3 2630.48,-703.3 2630.48,-449.1 2373.8,-449.1"/>
</g>
<!-- public.guilds -->
<g id="node12" class="node">
<title>public.guilds</title>
<polygon fill="#efefef" stroke="none" points="2196.3,-258.8 2196.3,-294.4 2449.98,-294.4 2449.98,-258.8 2196.3,-258.8"/>
<polygon fill="none" stroke="black" points="2196.3,-258.8 2196.3,-294.4 2449.98,-294.4 2449.98,-258.8 2196.3,-258.8"/>
<text text-anchor="start" x="2214.14" y="-272.2" font-family="Arial Bold" font-size="18.00">public.guilds</text>
<text text-anchor="start" x="2307.64" y="-272.2" font-family="Arial" font-size="14.00">    </text>
<text text-anchor="start" x="2338.76" y="-272.2" font-family="Arial" font-size="14.00" fill="#666666">[BASE TABLE]</text>
<polygon fill="none" stroke="black" points="2196.3,-228 2196.3,-258.8 2449.98,-258.8 2449.98,-228 2196.3,-228"/>
<text text-anchor="start" x="2203.3" y="-240.2" font-family="Arial" font-size="14.00">id </text>
<text text-anchor="start" x="2218.08" y="-240.2" font-family="Arial" font-size="14.00" fill="#666666">[bigint]</text>
<polygon fill="none" stroke="black" points="2196.3,-197.2 2196.3,-228 2449.98,-228 2449.98,-197.2 2196.3,-197.2"/>
<text text-anchor="start" x="2203.3" y="-209.4" font-family="Arial" font-size="14.00">name </text>
<text text-anchor="start" x="2242.21" y="-209.4" font-family="Arial" font-size="14.00" fill="#666666">[text]</text>
<polygon fill="none" stroke="black" points="2196.3,-166.4 2196.3,-197.2 2449.98,-197.2 2449.98,-166.4 2196.3,-166.4"/>
<text text-anchor="start" x="2203.3" y="-178.6" font-family="Arial" font-size="14.00">owner_id </text>
<text text-anchor="start" x="2264" y="-178.6" font-family="Arial" font-size="14.00" fill="#666666">[bigint]</text>
<polygon fill="none" stroke="black" points="2196.3,-135.6 2196.3,-166.4 2449.98,-166.4 2449.98,-135.6 2196.3,-135.6"/>
<text text-anchor="start" x="2203.3" y="-147.8" font-family="Arial" font-size="14.00">icon_key </text>
<text text-anchor="start" x="2262.44" y="-147.8" font-family="Arial" font-size="14.00" fill="#666666">[text]</text>
<polygon fill="none" stroke="black" points="2196.3,-104.8 2196.3,-135.6 2449.98,-135.6 2449.98,-104.8 2196.3,-104.8"/>
<text text-anchor="start" x="2203.3" y="-117" font-family="Arial" font-size="14.00">created_at </text>
<text text-anchor="start" x="2273.34" y="-117" font-family="Arial" font-size="14.00" fill="#666666">[timestamp with time zone]</text>
<polygon fill="none" stroke="black" points="2196.3,-74 2196.3,-104.8 2449.98,-104.8 2449.98,-74 2196.3,-74"/>
<text text-anchor="start" x="2203.3" y="-86.2" font-family="Arial" font-size="14.00">updated_at </text>
<text text-anchor="start" x="2277.25" y="-86.2" font-family="Arial" font-size="14.00" fill="#666666">[timestamp with time zone]</text>
</g>
<!-- public.channels&#45;&gt;public.guilds -->
<g id="edge12" class="edge">
<title>public.channels:guild_id&#45;&gt;public.guilds:id</title>
<path fill="none" stroke="black" d="M2364.22,-589.11C2076.06,-583.89 2443.74,-351.36 2449.98,-337.6 2467.27,-299.47 2492.85,-243.4 2450.98,-243.4"/>
<polygon fill="black" stroke="black" points="2363.96,-589.11 2373.92,-593.7 2369.3,-589.16 2373.63,-589.19 2373.63,-589.19 2373.63,-589.19 2369.3,-589.16 2374,-584.7 2363.96,-589.11"/>
<text text-anchor="start" x="2029.99" y="-599.2" font-family="Arial" font-size="10.00">FOREIGN KEY (guild_id) REFERENCES guilds(id) ON DELETE CASCADE</text>
</g>
<!-- public.users -->
<g id="node13" class="node">
<title>public.users</title>
<polygon fill="#efefef" stroke="none" points="2554.3,-289.6 2554.3,-325.2 2807.98,-325.2 2807.98,-289.6 2554.3,-289.6"/>
<polygon fill="none" stroke="black" points="2554.3,-289.6 2554.3,-325.2 2807.98,-325.2 2807.98,-289.6 2554.3,-289.6"/>
<text text-anchor="start" x="2575.65" y="-303" font-family="Arial Bold" font-size="18.00">public.users</text>
<text text-anchor="start" x="2662.13" y="-303" font-family="Arial" font-size="14.00">    </text>
<text text-anchor="start" x="2693.25" y="-303" font-family="Arial" font-size="14.00" fill="#666666">[BASE TABLE]</text>
<polygon fill="none" stroke="black" points="2554.3,-258.8 2554.3,-289.6 2807.98,-289.6 2807.98,-258.8 2554.3,-258.8"/>
<text text-anchor="start" x="2561.3" y="-271" font-family="Arial" font-size="14.00">id </text>
<text text-anchor="start" x="2576.08" y="-271" font-family="Arial" font-size="14.00" fill="#666666">[bigint]</text>
<polygon fill="none" stroke="black" points="2554.3,-228 2554.3,-258.8 2807.98,-258.8 2807.98,-228 2554.3,-228"/>
<text text-anchor="start" x="2561.3" y="-240.2" font-family="Arial" font-size="14.00">email </text>
<text text-anchor="start" x="2598.64" y="-240.2" font-family="Arial" font-size="14.00" fill="#666666">[text]</text>
<polygon fill="none" stroke="black" points="2554.3,-197.2 2554.3,-228 2807.98,-228 2807.98,-197.2 2554.3,-197.2"/>
<text text-anchor="start" x="2561.3" y="-209.4" font-family="Arial" font-size="14.00">display_name </text>
<text text-anchor="start" x="2651.57" y="-209.4" font-family="Arial" font-size="14.00" fill="#666666">[text]</text>
<polygon fill="none" stroke="black" points="2554.3,-166.4 2554.3,-197.2 2807.98,-197.2 2807.98,-166.4 2554.3,-166.4"/>
<text text-anchor="start" x="2561.3" y="-178.6" font-family="Arial" font-size="14.00">avatar_key </text>
<text text-anchor="start" x="2633.67" y="-178.6" font-family="Arial" font-size="14.00" fill="#666666">[text]</text>
<polygon fill="none" stroke="black" points="2554.3,-135.6 2554.3,-166.4 2807.98,-166.4 2807.98,-135.6 2554.3,-135.6"/>
<text text-anchor="start" x="2561.3" y="-147.8" font-family="Arial" font-size="14.00">status_text </text>
<text text-anchor="start" x="2632.89" y="-147.8" font-family="Arial" font-size="14.00" fill="#666666">[text]</text>
<polygon fill="none" stroke="black" points="2554.3,-104.8 2554.3,-135.6 2807.98,-135.6 2807.98,-104.8 2554.3,-104.8"/>
<text text-anchor="start" x="2561.3" y="-117" font-family="Arial" font-size="14.00">theme </text>
<text text-anchor="start" x="2604.1" y="-117" font-family="Arial" font-size="14.00" fill="#666666">[text]</text>
<polygon fill="none" stroke="black" points="2554.3,-74 2554.3,-104.8 2807.98,-104.8 2807.98,-74 2554.3,-74"/>
<text text-anchor="start" x="2561.3" y="-86.2" font-family="Arial" font-size="14.00">created_at </text>
<text text-anchor="start" x="2631.34" y="-86.2" font-family="Arial" font-size="14.00" fill="#666666">[timestamp with time zone]</text>
<polygon fill="none" stroke="black" points="2554.3,-43.2 2554.3,-74 2807.98,-74 2807.98,-43.2 2554.3,-43.2"/>
<text text-anchor="start" x="2561.3" y="-55.4" font-family="Arial" font-size="14.00">updated_at </text>
<text text-anchor="start" x="2635.25" y="-55.4" font-family="Arial" font-size="14.00" fill="#666666">[timestamp with time zone]</text>
</g>
<!-- public.channels&#45;&gt;public.users -->
<g id="edge13" class="edge">
<title>public.channels:created_by&#45;&gt;public.users:id</title>
<path fill="none" stroke="black" d="M2640.35,-526.5C2681,-516.93 2656.23,-447.4 2628.98,-404.4 2609.25,-373.28 2574.06,-399.5 2554.3,-368.4 2531.84,-333.06 2511.43,-274.2 2553.3,-274.2"/>
<polygon fill="black" stroke="black" points="2640.25,-526.51 2629.83,-523.09 2634.95,-527.07 2630.64,-527.53 2630.64,-527.53 2630.64,-527.53 2634.95,-527.07 2630.79,-532.04 2640.25,-526.51"/>
<text text-anchor="start" x="2636.98" y="-537.6" font-family="Arial" font-size="10.00">FOREIGN KEY (created_by) REFERENCES users(id) ON DELETE SET NULL</text>
</g>
<!-- public.dm_participants -->
<g id="node2" class="node">
<title>public.dm_participants</title>
<polygon fill="#efefef" stroke="none" points="74.16,-996.6 74.16,-1032.2 378.11,-1032.2 378.11,-996.6 74.16,-996.6"/>
<polygon fill="none" stroke="black" points="74.16,-996.6 74.16,-1032.2 378.11,-1032.2 378.11,-996.6 74.16,-996.6"/>
<text text-anchor="start" x="81.16" y="-1010" font-family="Arial Bold" font-size="18.00">public.dm_participants</text>
<text text-anchor="start" x="246.62" y="-1010" font-family="Arial" font-size="14.00">    </text>
<text text-anchor="start" x="277.74" y="-1010" font-family="Arial" font-size="14.00" fill="#666666">[BASE TABLE]</text>
<polygon fill="none" stroke="black" points="74.16,-965.8 74.16,-996.6 378.11,-996.6 378.11,-965.8 74.16,-965.8"/>
<text text-anchor="start" x="81.16" y="-978" font-family="Arial" font-size="14.00">channel_id </text>
<text text-anchor="start" x="152.77" y="-978" font-family="Arial" font-size="14.00" fill="#666666">[bigint]</text>
<polygon fill="none" stroke="black" points="74.16,-935 74.16,-965.8 378.11,-965.8 378.11,-935 74.16,-935"/>
<text text-anchor="start" x="81.16" y="-947.2" font-family="Arial" font-size="14.00">user_id </text>
<text text-anchor="start" x="130.97" y="-947.2" font-family="Arial" font-size="14.00" fill="#666666">[bigint]</text>
</g>
<!-- public.dm_participants&#45;&gt;public.channels -->
<g id="edge1" class="edge">
<title>public.dm_participants:channel_id&#45;&gt;public.channels:id</title>
<path fill="none" stroke="black" d="M389.27,-980.51C460.99,-969.9 363.35,-839.46 430.14,-784 513.43,-714.84 2266.03,-650.8 2374.3,-650.8"/>
<polygon fill="black" stroke="black" points="389.42,-980.5 379.14,-976.69 384.1,-980.86 379.78,-981.15 379.78,-981.15 379.78,-981.15 384.1,-980.86 379.75,-985.67 389.42,-980.5"/>
<text text-anchor="start" x="7" y="-991.2" font-family="Arial" font-size="10.00">FOREIGN KEY (channel_id) REFERENCES channels(id) ON DELETE CASCADE</text>
</g>
<!-- public.dm_pairs -->
<g id="node3" class="node">
<title>public.dm_pairs</title>
<polygon fill="#efefef" stroke="none" points="482.65,-1012 482.65,-1047.6 737.62,-1047.6 737.62,-1012 482.65,-1012"/>
<polygon fill="none" stroke="black" points="482.65,-1012 482.65,-1047.6 737.62,-1047.6 737.62,-1012 482.65,-1012"/>
<text text-anchor="start" x="489.65" y="-1025.4" font-family="Arial Bold" font-size="18.00">public.dm_pairs</text>
<text text-anchor="start" x="606.13" y="-1025.4" font-family="Arial" font-size="14.00">    </text>
<text text-anchor="start" x="637.25" y="-1025.4" font-family="Arial" font-size="14.00" fill="#666666">[BASE TABLE]</text>
<polygon fill="none" stroke="black" points="482.65,-981.2 482.65,-1012 737.62,-1012 737.62,-981.2 482.65,-981.2"/>
<text text-anchor="start" x="489.65" y="-993.4" font-family="Arial" font-size="14.00">user_low </text>
<text text-anchor="start" x="549.57" y="-993.4" font-family="Arial" font-size="14.00" fill="#666666">[bigint]</text>
<polygon fill="none" stroke="black" points="482.65,-950.4 482.65,-981.2 737.62,-981.2 737.62,-950.4 482.65,-950.4"/>
<text text-anchor="start" x="489.65" y="-962.6" font-family="Arial" font-size="14.00">user_high </text>
<text text-anchor="start" x="555.03" y="-962.6" font-family="Arial" font-size="14.00" fill="#666666">[bigint]</text>
<polygon fill="none" stroke="black" points="482.65,-919.6 482.65,-950.4 737.62,-950.4 737.62,-919.6 482.65,-919.6"/>
<text text-anchor="start" x="489.65" y="-931.8" font-family="Arial" font-size="14.00">channel_id </text>
<text text-anchor="start" x="561.26" y="-931.8" font-family="Arial" font-size="14.00" fill="#666666">[bigint]</text>
</g>
<!-- public.dm_pairs&#45;&gt;public.channels -->
<g id="edge2" class="edge">
<title>public.dm_pairs:channel_id&#45;&gt;public.channels:id</title>
<path fill="none" stroke="black" d="M748.96,-934.07C801.48,-923.46 736.53,-825.33 789.14,-784 928.13,-674.81 2197.55,-650.8 2374.3,-650.8"/>
<polygon fill="black" stroke="black" points="748.91,-934.07 738.55,-930.49 743.6,-934.55 739.29,-934.94 739.29,-934.94 739.29,-934.94 743.6,-934.55 739.36,-939.45 748.91,-934.07"/>
<text text-anchor="start" x="745.62" y="-945" font-family="Arial" font-size="10.00">FOREIGN KEY (channel_id) REFERENCES channels(id) ON DELETE CASCADE</text>
</g>
<!-- public.channel_reads -->
<g id="node4" class="node">
<title>public.channel_reads</title>
<polygon fill="#efefef" stroke="none" points="841.67,-1042.8 841.67,-1078.4 1132.6,-1078.4 1132.6,-1042.8 841.67,-1042.8"/>
<polygon fill="none" stroke="black" points="841.67,-1042.8 841.67,-1078.4 1132.6,-1078.4 1132.6,-1042.8 841.67,-1042.8"/>
<text text-anchor="start" x="848.67" y="-1056.2" font-family="Arial Bold" font-size="18.00">public.channel_reads</text>
<text text-anchor="start" x="1001.11" y="-1056.2" font-family="Arial" font-size="14.00">    </text>
<text text-anchor="start" x="1032.23" y="-1056.2" font-family="Arial" font-size="14.00" fill="#666666">[BASE TABLE]</text>
<polygon fill="none" stroke="black" points="841.67,-1012 841.67,-1042.8 1132.6,-1042.8 1132.6,-1012 841.67,-1012"/>
<text text-anchor="start" x="848.67" y="-1024.2" font-family="Arial" font-size="14.00">channel_id </text>
<text text-anchor="start" x="920.29" y="-1024.2" font-family="Arial" font-size="14.00" fill="#666666">[bigint]</text>
<polygon fill="none" stroke="black" points="841.67,-981.2 841.67,-1012 1132.6,-1012 1132.6,-981.2 841.67,-981.2"/>
<text text-anchor="start" x="848.67" y="-993.4" font-family="Arial" font-size="14.00">user_id </text>
<text text-anchor="start" x="898.48" y="-993.4" font-family="Arial" font-size="14.00" fill="#666666">[bigint]</text>
<polygon fill="none" stroke="black" points="841.67,-950.4 841.67,-981.2 1132.6,-981.2 1132.6,-950.4 841.67,-950.4"/>
<text text-anchor="start" x="848.67" y="-962.6" font-family="Arial" font-size="14.00">last_read_message_id </text>
<text text-anchor="start" x="993.43" y="-962.6" font-family="Arial" font-size="14.00" fill="#666666">[bigint]</text>
<polygon fill="none" stroke="black" points="841.67,-919.6 841.67,-950.4 1132.6,-950.4 1132.6,-919.6 841.67,-919.6"/>
<text text-anchor="start" x="848.67" y="-931.8" font-family="Arial" font-size="14.00">last_client_seq </text>
<text text-anchor="start" x="945.18" y="-931.8" font-family="Arial" font-size="14.00" fill="#666666">[bigint]</text>
<polygon fill="none" stroke="black" points="841.67,-888.8 841.67,-919.6 1132.6,-919.6 1132.6,-888.8 841.67,-888.8"/>
<text text-anchor="start" x="848.67" y="-901" font-family="Arial" font-size="14.00">updated_at </text>
<text text-anchor="start" x="922.63" y="-901" font-family="Arial" font-size="14.00" fill="#666666">[timestamp with time zone]</text>
</g>
<!-- public.channel_reads&#45;&gt;public.channels -->
<g id="edge3" class="edge">
<title>public.channel_reads:channel_id&#45;&gt;public.channels:id</title>
<path fill="none" stroke="black" d="M1143.8,-1026.85C1235.06,-1016.28 1105.96,-855.84 1185.14,-784 1283.6,-694.66 2241.34,-650.8 2374.3,-650.8"/>
<polygon fill="black" stroke="black" points="1143.92,-1026.84 1133.69,-1022.89 1138.59,-1027.13 1134.27,-1027.36 1134.27,-1027.36 1134.27,-1027.36 1138.59,-1027.13 1134.18,-1031.88 1143.92,-1026.84"/>
<text text-anchor="start" x="761.49" y="-1037.4" font-family="Arial" font-size="10.00">FOREIGN KEY (channel_id) REFERENCES channels(id) ON DELETE CASCADE</text>
</g>
<!-- public.channel_last_message -->
<g id="node5" class="node">
<title>public.channel_last_message</title>
<polygon fill="#efefef" stroke="none" points="1237.17,-1027.4 1237.17,-1063 1585.1,-1063 1585.1,-1027.4 1237.17,-1027.4"/>
<polygon fill="none" stroke="black" points="1237.17,-1027.4 1237.17,-1063 1585.1,-1063 1585.1,-1027.4 1237.17,-1027.4"/>
<text text-anchor="start" x="1244.17" y="-1040.8" font-family="Arial Bold" font-size="18.00">public.channel_last_message</text>
<text text-anchor="start" x="1453.61" y="-1040.8" font-family="Arial" font-size="14.00">    </text>
<text text-anchor="start" x="1484.73" y="-1040.8" font-family="Arial" font-size="14.00" fill="#666666">[BASE TABLE]</text>
<polygon fill="none" stroke="black" points="1237.17,-996.6 1237.17,-1027.4 1585.1,-1027.4 1585.1,-996.6 1237.17,-996.6"/>
<text text-anchor="start" x="1244.17" y="-1008.8" font-family="Arial" font-size="14.00">channel_id </text>
<text text-anchor="start" x="1315.79" y="-1008.8" font-family="Arial" font-size="14.00" fill="#666666">[bigint]</text>
<polygon fill="none" stroke="black" points="1237.17,-965.8 1237.17,-996.6 1585.1,-996.6 1585.1,-965.8 1237.17,-965.8"/>
<text text-anchor="start" x="1244.17" y="-978" font-family="Arial" font-size="14.00">last_message_id </text>
<text text-anchor="start" x="1353.13" y="-978" font-family="Arial" font-size="14.00" fill="#666666">[bigint]</text>
<polygon fill="none" stroke="black" points="1237.17,-935 1237.17,-965.8 1585.1,-965.8 1585.1,-935 1237.17,-935"/>
<text text-anchor="start" x="1244.17" y="-947.2" font-family="Arial" font-size="14.00">last_message_at </text>
<text text-anchor="start" x="1353.9" y="-947.2" font-family="Arial" font-size="14.00" fill="#666666">[timestamp with time zone]</text>
<polygon fill="none" stroke="black" points="1237.17,-904.2 1237.17,-935 1585.1,-935 1585.1,-904.2 1237.17,-904.2"/>
<text text-anchor="start" x="1244.17" y="-916.4" font-family="Arial" font-size="14.00">updated_at </text>
<text text-anchor="start" x="1318.13" y="-916.4" font-family="Arial" font-size="14.00" fill="#666666">[timestamp with time zone]</text>
</g>
<!-- public.channel_last_message&#45;&gt;public.channels -->
<g id="edge4" class="edge">
<title>public.channel_last_message:channel_id&#45;&gt;public.channels:id</title>
<path fill="none" stroke="black" d="M1596.47,-1011.4C1680.97,-1000.83 1564.91,-853.29 1637.14,-784 1757.26,-668.76 2207.83,-650.8 2374.3,-650.8"/>
<polygon fill="black" stroke="black" points="1596.42,-1011.4 1586.17,-1007.49 1591.09,-1011.71 1586.77,-1011.96 1586.77,-1011.96 1586.77,-1011.96 1591.09,-1011.71 1586.69,-1016.47 1596.42,-1011.4"/>
<text text-anchor="start" x="1403.54" y="-996" font-family="Arial" font-size="10.00">FOREIGN KEY (channel_id) REFERENCES channels(id) ON DELETE CASCADE</text>
</g>
<!-- public.channel_role_permission_overrides_v2 -->
<g id="node6" class="node">
<title>public.channel_role_permission_overrides_v2</title>
<polygon fill="#efefef" stroke="none" points="1689.19,-1073.6 1689.19,-1109.2 2161.09,-1109.2 2161.09,-1073.6 1689.19,-1073.6"/>
<polygon fill="none" stroke="black" points="1689.19,-1073.6 1689.19,-1109.2 2161.09,-1109.2 2161.09,-1073.6 1689.19,-1073.6"/>
<text text-anchor="start" x="1696.19" y="-1087" font-family="Arial Bold" font-size="18.00">public.channel_role_permission_overrides_v2</text>
<text text-anchor="start" x="2029.6" y="-1087" font-family="Arial" font-size="14.00">    </text>
<text text-anchor="start" x="2060.72" y="-1087" font-family="Arial" font-size="14.00" fill="#666666">[BASE TABLE]</text>
<polygon fill="none" stroke="black" points="1689.19,-1042.8 1689.19,-1073.6 2161.09,-1073.6 2161.09,-1042.8 1689.19,-1042.8"/>
<text text-anchor="start" x="1696.19" y="-1055" font-family="Arial" font-size="14.00">channel_id </text>
<text text-anchor="start" x="1767.8" y="-1055" font-family="Arial" font-size="14.00" fill="#666666">[bigint]</text>
<polygon fill="none" stroke="black" points="1689.19,-1012 1689.19,-1042.8 2161.09,-1042.8 2161.09,-1012 1689.19,-1012"/>
<text text-anchor="start" x="1696.19" y="-1024.2" font-family="Arial" font-size="14.00">guild_id </text>
<text text-anchor="start" x="1748.34" y="-1024.2" font-family="Arial" font-size="14.00" fill="#666666">[bigint]</text>
<polygon fill="none" stroke="black" points="1689.19,-981.2 1689.19,-1012 2161.09,-1012 2161.09,-981.2 1689.19,-981.2"/>
<text text-anchor="start" x="1696.19" y="-993.4" font-family="Arial" font-size="14.00">role_key </text>
<text text-anchor="start" x="1752.99" y="-993.4" font-family="Arial" font-size="14.00" fill="#666666">[text]</text>
<polygon fill="none" stroke="black" points="1689.19,-950.4 1689.19,-981.2 2161.09,-981.2 2161.09,-950.4 1689.19,-950.4"/>
<text text-anchor="start" x="1696.19" y="-962.6" font-family="Arial" font-size="14.00">can_view </text>
<text text-anchor="start" x="1758.44" y="-962.6" font-family="Arial" font-size="14.00" fill="#666666">[boolean]</text>
<polygon fill="none" stroke="black" points="1689.19,-919.6 1689.19,-950.4 2161.09,-950.4 2161.09,-919.6 1689.19,-919.6"/>
<text text-anchor="start" x="1696.19" y="-931.8" font-family="Arial" font-size="14.00">can_post </text>
<text text-anchor="start" x="1756.9" y="-931.8" font-family="Arial" font-size="14.00" fill="#666666">[boolean]</text>
<polygon fill="none" stroke="black" points="1689.19,-888.8 1689.19,-919.6 2161.09,-919.6 2161.09,-888.8 1689.19,-888.8"/>
<text text-anchor="start" x="1696.19" y="-901" font-family="Arial" font-size="14.00">created_at </text>
<text text-anchor="start" x="1766.23" y="-901" font-family="Arial" font-size="14.00" fill="#666666">[timestamp with time zone]</text>
<polygon fill="none" stroke="black" points="1689.19,-858 1689.19,-888.8 2161.09,-888.8 2161.09,-858 1689.19,-858"/>
<text text-anchor="start" x="1696.19" y="-870.2" font-family="Arial" font-size="14.00">updated_at </text>
<text text-anchor="start" x="1770.14" y="-870.2" font-family="Arial" font-size="14.00" fill="#666666">[timestamp with time zone]</text>
</g>
<!-- public.channel_role_permission_overrides_v2&#45;&gt;public.channels -->
<g id="edge5" class="edge">
<title>public.channel_role_permission_overrides_v2:channel_id&#45;&gt;public.channels:id</title>
<path fill="none" stroke="black" d="M2172.24,-1055.86C2219.21,-1032.08 2183.6,-834.18 2213.14,-784 2260.28,-703.92 2281.37,-650.8 2374.3,-650.8"/>
<polygon fill="black" stroke="black" points="2172.16,-1055.88 2161.4,-1053.74 2166.96,-1057.08 2162.74,-1058.05 2162.74,-1058.05 2162.74,-1058.05 2166.96,-1057.08 2163.43,-1062.51 2172.16,-1055.88"/>
<text text-anchor="start" x="2169.09" y="-1068.2" font-family="Arial" font-size="10.00">FOREIGN KEY (channel_id) REFERENCES channels(id) ON DELETE CASCADE</text>
</g>
<!-- public.channel_user_permission_overrides_v2 -->
<g id="node7" class="node">
<title>public.channel_user_permission_overrides_v2</title>
<polygon fill="#efefef" stroke="none" points="2265.18,-1073.6 2265.18,-1109.2 2739.09,-1109.2 2739.09,-1073.6 2265.18,-1073.6"/>
<polygon fill="none" stroke="black" points="2265.18,-1073.6 2265.18,-1109.2 2739.09,-1109.2 2739.09,-1073.6 2265.18,-1073.6"/>
<text text-anchor="start" x="2272.18" y="-1087" font-family="Arial Bold" font-size="18.00">public.channel_user_permission_overrides_v2</text>
<text text-anchor="start" x="2607.6" y="-1087" font-family="Arial" font-size="14.00">    </text>
<text text-anchor="start" x="2638.72" y="-1087" font-family="Arial" font-size="14.00" fill="#666666">[BASE TABLE]</text>
<polygon fill="none" stroke="black" points="2265.18,-1042.8 2265.18,-1073.6 2739.09,-1073.6 2739.09,-1042.8 2265.18,-1042.8"/>
<text text-anchor="start" x="2272.18" y="-1055" font-family="Arial" font-size="14.00">channel_id </text>
<text text-anchor="start" x="2343.8" y="-1055" font-family="Arial" font-size="14.00" fill="#666666">[bigint]</text>
<polygon fill="none" stroke="black" points="2265.18,-1012 2265.18,-1042.8 2739.09,-1042.8 2739.09,-1012 2265.18,-1012"/>
<text text-anchor="start" x="2272.18" y="-1024.2" font-family="Arial" font-size="14.00">guild_id </text>
<text text-anchor="start" x="2324.33" y="-1024.2" font-family="Arial" font-size="14.00" fill="#666666">[bigint]</text>
<polygon fill="none" stroke="black" points="2265.18,-981.2 2265.18,-1012 2739.09,-1012 2739.09,-981.2 2265.18,-981.2"/>
<text text-anchor="start" x="2272.18" y="-993.4" font-family="Arial" font-size="14.00">user_id </text>
<text text-anchor="start" x="2321.99" y="-993.4" font-family="Arial" font-size="14.00" fill="#666666">[bigint]</text>
<polygon fill="none" stroke="black" points="2265.18,-950.4 2265.18,-981.2 2739.09,-981.2 2739.09,-950.4 2265.18,-950.4"/>
<text text-anchor="start" x="2272.18" y="-962.6" font-family="Arial" font-size="14.00">can_view </text>
<text text-anchor="start" x="2334.44" y="-962.6" font-family="Arial" font-size="14.00" fill="#666666">[boolean]</text>
<polygon fill="none" stroke="black" points="2265.18,-919.6 2265.18,-950.4 2739.09,-950.4 2739.09,-919.6 2265.18,-919.6"/>
<text text-anchor="start" x="2272.18" y="-931.8" font-family="Arial" font-size="14.00">can_post </text>
<text text-anchor="start" x="2332.89" y="-931.8" font-family="Arial" font-size="14.00" fill="#666666">[boolean]</text>
<polygon fill="none" stroke="black" points="2265.18,-888.8 2265.18,-919.6 2739.09,-919.6 2739.09,-888.8 2265.18,-888.8"/>
<text text-anchor="start" x="2272.18" y="-901" font-family="Arial" font-size="14.00">created_at </text>
<text text-anchor="start" x="2342.23" y="-901" font-family="Arial" font-size="14.00" fill="#666666">[timestamp with time zone]</text>
<polygon fill="none" stroke="black" points="2265.18,-858 2265.18,-888.8 2739.09,-888.8 2739.09,-858 2265.18,-858"/>
<text text-anchor="start" x="2272.18" y="-870.2" font-family="Arial" font-size="14.00">updated_at </text>
<text text-anchor="start" x="2346.14" y="-870.2" font-family="Arial" font-size="14.00" fill="#666666">[timestamp with time zone]</text>
</g>
<!-- public.channel_user_permission_overrides_v2&#45;&gt;public.channels -->
<g id="edge6" class="edge">
<title>public.channel_user_permission_overrides_v2:channel_id&#45;&gt;public.channels:id</title>
<path fill="none" stroke="black" d="M2750.16,-1056.38C2825.29,-1026.99 2720.1,-650.8 2629.98,-650.8"/>
<polygon fill="black" stroke="black" points="2750.26,-1056.37 2739.62,-1053.71 2745.01,-1057.31 2740.75,-1058.08 2740.75,-1058.08 2740.75,-1058.08 2745.01,-1057.31 2741.22,-1062.57 2750.26,-1056.37"/>
<text text-anchor="start" x="2557.53" y="-1042.2" font-family="Arial" font-size="10.00">FOREIGN KEY (channel_id) REFERENCES channels(id) ON DELETE CASCADE</text>
</g>
<!-- public.channel_hierarchies_v2 -->
<g id="node8" class="node">
<title>public.channel_hierarchies_v2</title>
<polygon fill="#efefef" stroke="none" points="2843.69,-1104.4 2843.69,-1140 3202.59,-1140 3202.59,-1104.4 2843.69,-1104.4"/>
<polygon fill="none" stroke="black" points="2843.69,-1104.4 2843.69,-1140 3202.59,-1140 3202.59,-1104.4 2843.69,-1104.4"/>
<text text-anchor="start" x="2850.69" y="-1117.8" font-family="Arial Bold" font-size="18.00">public.channel_hierarchies_v2</text>
<text text-anchor="start" x="3071.1" y="-1117.8" font-family="Arial" font-size="14.00">    </text>
<text text-anchor="start" x="3102.21" y="-1117.8" font-family="Arial" font-size="14.00" fill="#666666">[BASE TABLE]</text>
<polygon fill="none" stroke="black" points="2843.69,-1073.6 2843.69,-1104.4 3202.59,-1104.4 3202.59,-1073.6 2843.69,-1073.6"/>
<text text-anchor="start" x="2850.69" y="-1085.8" font-family="Arial" font-size="14.00">child_channel_id </text>
<text text-anchor="start" x="2958.88" y="-1085.8" font-family="Arial" font-size="14.00" fill="#666666">[bigint]</text>
<polygon fill="none" stroke="black" points="2843.69,-1042.8 2843.69,-1073.6 3202.59,-1073.6 3202.59,-1042.8 2843.69,-1042.8"/>
<text text-anchor="start" x="2850.69" y="-1055" font-family="Arial" font-size="14.00">guild_id </text>
<text text-anchor="start" x="2902.84" y="-1055" font-family="Arial" font-size="14.00" fill="#666666">[bigint]</text>
<polygon fill="none" stroke="black" points="2843.69,-1012 2843.69,-1042.8 3202.59,-1042.8 3202.59,-1012 2843.69,-1012"/>
<text text-anchor="start" x="2850.69" y="-1024.2" font-family="Arial" font-size="14.00">parent_channel_id </text>
<text text-anchor="start" x="2969.78" y="-1024.2" font-family="Arial" font-size="14.00" fill="#666666">[bigint]</text>
<polygon fill="none" stroke="black" points="2843.69,-981.2 2843.69,-1012 3202.59,-1012 3202.59,-981.2 2843.69,-981.2"/>
<text text-anchor="start" x="2850.69" y="-993.4" font-family="Arial" font-size="14.00">hierarchy_kind </text>
<text text-anchor="start" x="2945.62" y="-993.4" font-family="Arial" font-size="14.00" fill="#666666">[channel_hierarchy_kind]</text>
<polygon fill="none" stroke="black" points="2843.69,-950.4 2843.69,-981.2 3202.59,-981.2 3202.59,-950.4 2843.69,-950.4"/>
<text text-anchor="start" x="2850.69" y="-962.6" font-family="Arial" font-size="14.00">parent_message_id </text>
<text text-anchor="start" x="2977.55" y="-962.6" font-family="Arial" font-size="14.00" fill="#666666">[bigint]</text>
<polygon fill="none" stroke="black" points="2843.69,-919.6 2843.69,-950.4 3202.59,-950.4 3202.59,-919.6 2843.69,-919.6"/>
<text text-anchor="start" x="2850.69" y="-931.8" font-family="Arial" font-size="14.00">position </text>
<text text-anchor="start" x="2902.83" y="-931.8" font-family="Arial" font-size="14.00" fill="#666666">[integer]</text>
<polygon fill="none" stroke="black" points="2843.69,-888.8 2843.69,-919.6 3202.59,-919.6 3202.59,-888.8 2843.69,-888.8"/>
<text text-anchor="start" x="2850.69" y="-901" font-family="Arial" font-size="14.00">archived_at </text>
<text text-anchor="start" x="2926.95" y="-901" font-family="Arial" font-size="14.00" fill="#666666">[timestamp with time zone]</text>
<polygon fill="none" stroke="black" points="2843.69,-858 2843.69,-888.8 3202.59,-888.8 3202.59,-858 2843.69,-858"/>
<text text-anchor="start" x="2850.69" y="-870.2" font-family="Arial" font-size="14.00">created_at </text>
<text text-anchor="start" x="2920.73" y="-870.2" font-family="Arial" font-size="14.00" fill="#666666">[timestamp with time zone]</text>
<polygon fill="none" stroke="black" points="2843.69,-827.2 2843.69,-858 3202.59,-858 3202.59,-827.2 2843.69,-827.2"/>
<text text-anchor="start" x="2850.69" y="-839.4" font-family="Arial" font-size="14.00">updated_at </text>
<text text-anchor="start" x="2924.64" y="-839.4" font-family="Arial" font-size="14.00" fill="#666666">[timestamp with time zone]</text>
</g>
<!-- public.channel_hierarchies_v2&#45;&gt;public.channels -->
<g id="edge7" class="edge">
<title>public.channel_hierarchies_v2:child_channel_id&#45;&gt;public.channels:id</title>
<path fill="none" stroke="black" d="M2832.78,-1087.02C2779.15,-1063.63 2823.7,-840.39 2791.14,-784 2744.66,-703.53 2722.9,-650.8 2629.98,-650.8"/>
<polygon fill="black" stroke="black" points="2832.55,-1086.97 2841.47,-1093.35 2837.78,-1088.02 2842.03,-1088.87 2842.03,-1088.87 2842.03,-1088.87 2837.78,-1088.02 2843.24,-1084.52 2832.55,-1086.97"/>
<text text-anchor="start" x="2444.45" y="-1099" font-family="Arial" font-size="10.00">FOREIGN KEY (child_channel_id) REFERENCES channels(id) ON DELETE CASCADE</text>
</g>
<!-- public.channel_hierarchies_v2&#45;&gt;public.channels -->
<g id="edge8" class="edge">
<title>public.channel_hierarchies_v2:parent_channel_id&#45;&gt;public.channels:id</title>
<path fill="none" stroke="black" d="M2832.41,-1026.92C2739.64,-1017.58 2846.5,-875.45 2791.14,-784 2743.01,-704.51 2722.9,-650.8 2629.98,-650.8"/>
<polygon fill="black" stroke="black" points="2832.36,-1026.91 2842.14,-1031.88 2837.69,-1027.16 2842.02,-1027.37 2842.02,-1027.37 2842.02,-1027.37 2837.69,-1027.16 2842.56,-1022.89 2832.36,-1026.91"/>
<text text-anchor="start" x="2539.91" y="-1011.4" font-family="Arial" font-size="10.00">FOREIGN KEY (parent_channel_id) REFERENCES channels(id) ON DELETE CASCADE</text>
</g>
<!-- public.message_references_v2 -->
<g id="node9" class="node">
<title>public.message_references_v2</title>
<polygon fill="#efefef" stroke="none" points="3306.69,-1027.4 3306.69,-1063 3665.58,-1063 3665.58,-1027.4 3306.69,-1027.4"/>
<polygon fill="none" stroke="black" points="3306.69,-1027.4 3306.69,-1063 3665.58,-1063 3665.58,-1027.4 3306.69,-1027.4"/>
<text text-anchor="start" x="3313.69" y="-1040.8" font-family="Arial Bold" font-size="18.00">public.message_references_v2</text>
<text text-anchor="start" x="3534.09" y="-1040.8" font-family="Arial" font-size="14.00">    </text>
<text text-anchor="start" x="3565.21" y="-1040.8" font-family="Arial" font-size="14.00" fill="#666666">[BASE TABLE]</text>
<polygon fill="none" stroke="black" points="3306.69,-996.6 3306.69,-1027.4 3665.58,-1027.4 3665.58,-996.6 3306.69,-996.6"/>
<text text-anchor="start" x="3313.69" y="-1008.8" font-family="Arial" font-size="14.00">message_id </text>
<text text-anchor="start" x="3393.07" y="-1008.8" font-family="Arial" font-size="14.00" fill="#666666">[bigint]</text>
<polygon fill="none" stroke="black" points="3306.69,-965.8 3306.69,-996.6 3665.58,-996.6 3665.58,-965.8 3306.69,-965.8"/>
<text text-anchor="start" x="3313.69" y="-978" font-family="Arial" font-size="14.00">channel_id </text>
<text text-anchor="start" x="3385.3" y="-978" font-family="Arial" font-size="14.00" fill="#666666">[bigint]</text>
<polygon fill="none" stroke="black" points="3306.69,-935 3306.69,-965.8 3665.58,-965.8 3665.58,-935 3306.69,-935"/>
<text text-anchor="start" x="3313.69" y="-947.2" font-family="Arial" font-size="14.00">reply_to_message_id </text>
<text text-anchor="start" x="3450.66" y="-947.2" font-family="Arial" font-size="14.00" fill="#666666">[bigint]</text>
<polygon fill="none" stroke="black" points="3306.69,-904.2 3306.69,-935 3665.58,-935 3665.58,-904.2 3306.69,-904.2"/>
<text text-anchor="start" x="3313.69" y="-916.4" font-family="Arial" font-size="14.00">created_at </text>
<text text-anchor="start" x="3383.74" y="-916.4" font-family="Arial" font-size="14.00" fill="#666666">[timestamp with time zone]</text>
</g>
<!-- public.message_references_v2&#45;&gt;public.channels -->
<g id="edge9" class="edge">
<title>public.message_references_v2:channel_id&#45;&gt;public.channels:id</title>
<path fill="none" stroke="black" d="M3295.52,-980.54C3223.55,-970.28 3317.74,-844.08 3255.14,-784 3152.66,-685.64 2772.02,-650.8 2629.98,-650.8"/>
<polygon fill="black" stroke="black" points="3295.38,-980.53 3305.06,-985.67 3300.7,-980.87 3305.02,-981.16 3305.02,-981.16 3305.02,-981.16 3300.7,-980.87 3305.65,-976.69 3295.38,-980.53"/>
<text text-anchor="start" x="3028.36" y="-965.2" font-family="Arial" font-size="10.00">FOREIGN KEY (channel_id) REFERENCES channels(id) ON DELETE CASCADE</text>
</g>
<!-- public.channel_pins_v2 -->
<g id="node10" class="node">
<title>public.channel_pins_v2</title>
<polygon fill="#efefef" stroke="none" points="3770.16,-1073.6 3770.16,-1109.2 4080.11,-1109.2 4080.11,-1073.6 3770.16,-1073.6"/>
<polygon fill="none" stroke="black" points="3770.16,-1073.6 3770.16,-1109.2 4080.11,-1109.2 4080.11,-1073.6 3770.16,-1073.6"/>
<text text-anchor="start" x="3777.16" y="-1087" font-family="Arial Bold" font-size="18.00">public.channel_pins_v2</text>
<text text-anchor="start" x="3948.62" y="-1087" font-family="Arial" font-size="14.00">    </text>
<text text-anchor="start" x="3979.74" y="-1087" font-family="Arial" font-size="14.00" fill="#666666">[BASE TABLE]</text>
<polygon fill="none" stroke="black" points="3770.16,-1042.8 3770.16,-1073.6 4080.11,-1073.6 4080.11,-1042.8 3770.16,-1042.8"/>
<text text-anchor="start" x="3777.16" y="-1055" font-family="Arial" font-size="14.00">channel_id </text>
<text text-anchor="start" x="3848.77" y="-1055" font-family="Arial" font-size="14.00" fill="#666666">[bigint]</text>
<polygon fill="none" stroke="black" points="3770.16,-1012 3770.16,-1042.8 4080.11,-1042.8 4080.11,-1012 3770.16,-1012"/>
<text text-anchor="start" x="3777.16" y="-1024.2" font-family="Arial" font-size="14.00">message_id </text>
<text text-anchor="start" x="3856.54" y="-1024.2" font-family="Arial" font-size="14.00" fill="#666666">[bigint]</text>
<polygon fill="none" stroke="black" points="3770.16,-981.2 3770.16,-1012 4080.11,-1012 4080.11,-981.2 3770.16,-981.2"/>
<text text-anchor="start" x="3777.16" y="-993.4" font-family="Arial" font-size="14.00">pinned_at </text>
<text text-anchor="start" x="3842.55" y="-993.4" font-family="Arial" font-size="14.00" fill="#666666">[timestamp with time zone]</text>
<polygon fill="none" stroke="black" points="3770.16,-950.4 3770.16,-981.2 4080.11,-981.2 4080.11,-950.4 3770.16,-950.4"/>
<text text-anchor="start" x="3777.16" y="-962.6" font-family="Arial" font-size="14.00">pinned_by </text>
<text text-anchor="start" x="3845.66" y="-962.6" font-family="Arial" font-size="14.00" fill="#666666">[bigint]</text>
<polygon fill="none" stroke="black" points="3770.16,-919.6 3770.16,-950.4 4080.11,-950.4 4080.11,-919.6 3770.16,-919.6"/>
<text text-anchor="start" x="3777.16" y="-931.8" font-family="Arial" font-size="14.00">unpinned_at </text>
<text text-anchor="start" x="3858.12" y="-931.8" font-family="Arial" font-size="14.00" fill="#666666">[timestamp with time zone]</text>
<polygon fill="none" stroke="black" points="3770.16,-888.8 3770.16,-919.6 4080.11,-919.6 4080.11,-888.8 3770.16,-888.8"/>
<text text-anchor="start" x="3777.16" y="-901" font-family="Arial" font-size="14.00">unpinned_by </text>
<text text-anchor="start" x="3861.23" y="-901" font-family="Arial" font-size="14.00" fill="#666666">[bigint]</text>
<polygon fill="none" stroke="black" points="3770.16,-858 3770.16,-888.8 4080.11,-888.8 4080.11,-858 3770.16,-858"/>
<text text-anchor="start" x="3777.16" y="-870.2" font-family="Arial" font-size="14.00">updated_at </text>
<text text-anchor="start" x="3851.12" y="-870.2" font-family="Arial" font-size="14.00" fill="#666666">[timestamp with time zone]</text>
</g>
<!-- public.channel_pins_v2&#45;&gt;public.channels -->
<g id="edge10" class="edge">
<title>public.channel_pins_v2:channel_id&#45;&gt;public.channels:id</title>
<path fill="none" stroke="black" d="M3758.99,-1057.72C3654.55,-1047.2 3805.82,-866.4 3718.14,-784 3629.37,-700.59 2751.79,-650.8 2629.98,-650.8"/>
<polygon fill="black" stroke="black" points="3758.84,-1057.71 3768.61,-1062.68 3764.16,-1057.96 3768.49,-1058.17 3768.49,-1058.17 3768.49,-1058.17 3764.16,-1057.96 3769.04,-1053.69 3758.84,-1057.71"/>
<text text-anchor="start" x="3491.82" y="-1042.2" font-family="Arial" font-size="10.00">FOREIGN KEY (channel_id) REFERENCES channels(id) ON DELETE CASCADE</text>
</g>
<!-- public.message_reactions_v2 -->
<g id="node11" class="node">
<title>public.message_reactions_v2</title>
<polygon fill="#efefef" stroke="none" points="4184.17,-1042.8 4184.17,-1078.4 4534.1,-1078.4 4534.1,-1042.8 4184.17,-1042.8"/>
<polygon fill="none" stroke="black" points="4184.17,-1042.8 4184.17,-1078.4 4534.1,-1078.4 4534.1,-1042.8 4184.17,-1042.8"/>
<text text-anchor="start" x="4191.17" y="-1056.2" font-family="Arial Bold" font-size="18.00">public.message_reactions_v2</text>
<text text-anchor="start" x="4402.61" y="-1056.2" font-family="Arial" font-size="14.00">    </text>
<text text-anchor="start" x="4433.73" y="-1056.2" font-family="Arial" font-size="14.00" fill="#666666">[BASE TABLE]</text>
<polygon fill="none" stroke="black" points="4184.17,-1012 4184.17,-1042.8 4534.1,-1042.8 4534.1,-1012 4184.17,-1012"/>
<text text-anchor="start" x="4191.17" y="-1024.2" font-family="Arial" font-size="14.00">message_id </text>
<text text-anchor="start" x="4270.55" y="-1024.2" font-family="Arial" font-size="14.00" fill="#666666">[bigint]</text>
<polygon fill="none" stroke="black" points="4184.17,-981.2 4184.17,-1012 4534.1,-1012 4534.1,-981.2 4184.17,-981.2"/>
<text text-anchor="start" x="4191.17" y="-993.4" font-family="Arial" font-size="14.00">channel_id </text>
<text text-anchor="start" x="4262.79" y="-993.4" font-family="Arial" font-size="14.00" fill="#666666">[bigint]</text>
<polygon fill="none" stroke="black" points="4184.17,-950.4 4184.17,-981.2 4534.1,-981.2 4534.1,-950.4 4184.17,-950.4"/>
<text text-anchor="start" x="4191.17" y="-962.6" font-family="Arial" font-size="14.00">emoji </text>
<text text-anchor="start" x="4228.52" y="-962.6" font-family="Arial" font-size="14.00" fill="#666666">[text]</text>
<polygon fill="none" stroke="black" points="4184.17,-919.6 4184.17,-950.4 4534.1,-950.4 4534.1,-919.6 4184.17,-919.6"/>
<text text-anchor="start" x="4191.17" y="-931.8" font-family="Arial" font-size="14.00">user_id </text>
<text text-anchor="start" x="4240.98" y="-931.8" font-family="Arial" font-size="14.00" fill="#666666">[bigint]</text>
<polygon fill="none" stroke="black" points="4184.17,-888.8 4184.17,-919.6 4534.1,-919.6 4534.1,-888.8 4184.17,-888.8"/>
<text text-anchor="start" x="4191.17" y="-901" font-family="Arial" font-size="14.00">created_at </text>
<text text-anchor="start" x="4261.22" y="-901" font-family="Arial" font-size="14.00" fill="#666666">[timestamp with time zone]</text>
</g>
<!-- public.message_reactions_v2&#45;&gt;public.channels -->
<g id="edge11" class="edge">
<title>public.message_reactions_v2:channel_id&#45;&gt;public.channels:id</title>
<path fill="none" stroke="black" d="M4172.75,-995.93C4095.06,-985.08 4202.84,-845 4132.14,-784 4005.26,-674.55 2797.54,-650.8 2629.98,-650.8"/>
<polygon fill="black" stroke="black" points="4172.86,-995.94 4182.55,-1001.07 4178.18,-996.28 4182.5,-996.56 4182.5,-996.56 4182.5,-996.56 4178.18,-996.28 4183.13,-992.09 4172.86,-995.94"/>
<text text-anchor="start" x="4190.17" y="-1006.6" font-family="Arial" font-size="10.00">FOREIGN KEY (channel_id) REFERENCES channels(id) ON DELETE CASCADE</text>
</g>
</g>
</svg>
