<?xml version="1.0" encoding="UTF-8" standalone="no"?>
<!DOCTYPE svg PUBLIC "-//W3C//DTD SVG 1.1//EN"
 "http://www.w3.org/Graphics/SVG/1.1/DTD/svg11.dtd">
<!-- Generated by graphviz version 12.1.2 (20240928.0832)
 -->
<!-- Title: public.message_references_v2 Pages: 1 -->
<svg width="793pt" height="633pt"
 viewBox="0.00 0.00 793.20 632.80" xmlns="http://www.w3.org/2000/svg" xmlns:xlink="http://www.w3.org/1999/xlink">
<g id="graph0" class="graph" transform="scale(1 1) rotate(0) translate(4 628.8)">
<title>public.message_references_v2</title>
<polygon fill="white" stroke="none" points="-4,4 -4,-628.8 789.2,-628.8 789.2,4 -4,4"/>
<!-- public.message_references_v2 -->
<g id="node1" class="node">
<title>public.message_references_v2</title>
<polygon fill="#efefef" stroke="none" points="46.2,-543 46.2,-578.6 405.09,-578.6 405.09,-543 46.2,-543"/>
<polygon fill="none" stroke="black" points="46.2,-543 46.2,-578.6 405.09,-578.6 405.09,-543 46.2,-543"/>
<text text-anchor="start" x="53.2" y="-556.4" font-family="Arial Bold" font-size="18.00">public.message_references_v2</text>
<text text-anchor="start" x="273.6" y="-556.4" font-family="Arial" font-size="14.00">    </text>
<text text-anchor="start" x="304.72" y="-556.4" font-family="Arial" font-size="14.00" fill="#666666">[BASE TABLE]</text>
<polygon fill="none" stroke="black" points="46.2,-512.2 46.2,-543 405.09,-543 405.09,-512.2 46.2,-512.2"/>
<text text-anchor="start" x="53.2" y="-524.4" font-family="Arial" font-size="14.00">message_id </text>
<text text-anchor="start" x="132.58" y="-524.4" font-family="Arial" font-size="14.00" fill="#666666">[bigint]</text>
<polygon fill="none" stroke="black" points="46.2,-481.4 46.2,-512.2 405.09,-512.2 405.09,-481.4 46.2,-481.4"/>
<text text-anchor="start" x="53.2" y="-493.6" font-family="Arial" font-size="14.00">channel_id </text>
<text text-anchor="start" x="124.81" y="-493.6" font-family="Arial" font-size="14.00" fill="#666666">[bigint]</text>
<polygon fill="none" stroke="black" points="46.2,-450.6 46.2,-481.4 405.09,-481.4 405.09,-450.6 46.2,-450.6"/>
<text text-anchor="start" x="53.2" y="-462.8" font-family="Arial" font-size="14.00">reply_to_message_id </text>
<text text-anchor="start" x="190.17" y="-462.8" font-family="Arial" font-size="14.00" fill="#666666">[bigint]</text>
<polygon fill="none" stroke="black" points="46.2,-419.8 46.2,-450.6 405.09,-450.6 405.09,-419.8 46.2,-419.8"/>
<text text-anchor="start" x="53.2" y="-432" font-family="Arial" font-size="14.00">created_at </text>
<text text-anchor="start" x="123.25" y="-432" font-family="Arial" font-size="14.00" fill="#666666">[timestamp with time zone]</text>
<polygon fill="none" stroke="black" stroke-width="3" points="44.7,-418.3 44.7,-580.1 406.59,-580.1 406.59,-418.3 44.7,-418.3"/>
</g>
<!-- public.channels -->
<g id="node2" class="node">
<title>public.channels</title>
<polygon fill="#efefef" stroke="none" points="98.81,-258.8 98.81,-294.4 352.49,-294.4 352.49,-258.8 98.81,-258.8"/>
<polygon fill="none" stroke="black" points="98.81,-258.8 98.81,-294.4 352.49,-294.4 352.49,-258.8 98.81,-258.8"/>
<text text-anchor="start" x="107.17" y="-272.2" font-family="Arial Bold" font-size="18.00">public.channels</text>
<text text-anchor="start" x="219.63" y="-272.2" font-family="Arial" font-size="14.00">    </text>
<text text-anchor="start" x="250.75" y="-272.2" font-family="Arial" font-size="14.00" fill="#666666">[BASE TABLE]</text>
<polygon fill="none" stroke="black" points="98.81,-228 98.81,-258.8 352.49,-258.8 352.49,-228 98.81,-228"/>
<text text-anchor="start" x="105.81" y="-240.2" font-family="Arial" font-size="14.00">id </text>
<text text-anchor="start" x="120.59" y="-240.2" font-family="Arial" font-size="14.00" fill="#666666">[bigint]</text>
<polygon fill="none" stroke="black" points="98.81,-197.2 98.81,-228 352.49,-228 352.49,-197.2 98.81,-197.2"/>
<text text-anchor="start" x="105.81" y="-209.4" font-family="Arial" font-size="14.00">type </text>
<text text-anchor="start" x="136.16" y="-209.4" font-family="Arial" font-size="14.00" fill="#666666">[channel_type]</text>
<polygon fill="none" stroke="black" points="98.81,-166.4 98.81,-197.2 352.49,-197.2 352.49,-166.4 98.81,-166.4"/>
<text text-anchor="start" x="105.81" y="-178.6" font-family="Arial" font-size="14.00">guild_id </text>
<text text-anchor="start" x="157.96" y="-178.6" font-family="Arial" font-size="14.00" fill="#666666">[bigint]</text>
<polygon fill="none" stroke="black" points="98.81,-135.6 98.81,-166.4 352.49,-166.4 352.49,-135.6 98.81,-135.6"/>
<text text-anchor="start" x="105.81" y="-147.8" font-family="Arial" font-size="14.00">name </text>
<text text-anchor="start" x="144.72" y="-147.8" font-family="Arial" font-size="14.00" fill="#666666">[text]</text>
<polygon fill="none" stroke="black" points="98.81,-104.8 98.81,-135.6 352.49,-135.6 352.49,-104.8 98.81,-104.8"/>
<text text-anchor="start" x="105.81" y="-117" font-family="Arial" font-size="14.00">created_by </text>
<text text-anchor="start" x="178.96" y="-117" font-family="Arial" font-size="14.00" fill="#666666">[bigint]</text>
<polygon fill="none" stroke="black" points="98.81,-74 98.81,-104.8 352.49,-104.8 352.49,-74 98.81,-74"/>
<text text-anchor="start" x="105.81" y="-86.2" font-family="Arial" font-size="14.00">created_at </text>
<text text-anchor="start" x="175.85" y="-86.2" font-family="Arial" font-size="14.00" fill="#666666">[timestamp with time zone]</text>
<polygon fill="none" stroke="black" points="98.81,-43.2 98.81,-74 352.49,-74 352.49,-43.2 98.81,-43.2"/>
<text text-anchor="start" x="105.81" y="-55.4" font-family="Arial" font-size="14.00">updated_at </text>
<text text-anchor="start" x="179.76" y="-55.4" font-family="Arial" font-size="14.00" fill="#666666">[timestamp with time zone]</text>
</g>
<!-- public.message_references_v2&#45;&gt;public.channels -->
<g id="edge1" class="edge">
<title>public.message_references_v2:channel_id&#45;&gt;public.channels:id</title>
<path fill="none" stroke="black" d="M416.39,-496.07C517.77,-481.21 464.92,-243.4 353.49,-243.4"/>
<polygon fill="black" stroke="black" points="416.4,-496.07 406.11,-492.29 411.08,-496.45 406.76,-496.75 406.76,-496.75 406.76,-496.75 411.08,-496.45 406.74,-501.27 416.4,-496.07"/>
<text text-anchor="start" x="413.09" y="-506.8" font-family="Arial" font-size="10.00">FOREIGN KEY (channel_id) REFERENCES channels(id) ON DELETE CASCADE</text>
</g>
</g>
</svg>
