<?xml version="1.0" encoding="UTF-8" standalone="no"?>
<!DOCTYPE svg PUBLIC "-//W3C//DTD SVG 1.1//EN"
 "http://www.w3.org/Graphics/SVG/1.1/DTD/svg11.dtd">
<!-- Generated by graphviz version 12.1.2 (20240928.0832)
 -->
<!-- Title: public.channel_last_message Pages: 1 -->
<svg width="782pt" height="633pt"
 viewBox="0.00 0.00 782.24 632.80" xmlns="http://www.w3.org/2000/svg" xmlns:xlink="http://www.w3.org/1999/xlink">
<g id="graph0" class="graph" transform="scale(1 1) rotate(0) translate(4 628.8)">
<title>public.channel_last_message</title>
<polygon fill="white" stroke="none" points="-4,4 -4,-628.8 778.24,-628.8 778.24,4 -4,4"/>
<!-- public.channel_last_message -->
<g id="node1" class="node">
<title>public.channel_last_message</title>
<polygon fill="#efefef" stroke="none" points="46.2,-543 46.2,-578.6 394.12,-578.6 394.12,-543 46.2,-543"/>
<polygon fill="none" stroke="black" points="46.2,-543 46.2,-578.6 394.12,-578.6 394.12,-543 46.2,-543"/>
<text text-anchor="start" x="53.2" y="-556.4" font-family="Arial Bold" font-size="18.00">public.channel_last_message</text>
<text text-anchor="start" x="262.63" y="-556.4" font-family="Arial" font-size="14.00">    </text>
<text text-anchor="start" x="293.75" y="-556.4" font-family="Arial" font-size="14.00" fill="#666666">[BASE TABLE]</text>
<polygon fill="none" stroke="black" points="46.2,-512.2 46.2,-543 394.12,-543 394.12,-512.2 46.2,-512.2"/>
<text text-anchor="start" x="53.2" y="-524.4" font-family="Arial" font-size="14.00">channel_id </text>
<text text-anchor="start" x="124.81" y="-524.4" font-family="Arial" font-size="14.00" fill="#666666">[bigint]</text>
<polygon fill="none" stroke="black" points="46.2,-481.4 46.2,-512.2 394.12,-512.2 394.12,-481.4 46.2,-481.4"/>
<text text-anchor="start" x="53.2" y="-493.6" font-family="Arial" font-size="14.00">last_message_id </text>
<text text-anchor="start" x="162.15" y="-493.6" font-family="Arial" font-size="14.00" fill="#666666">[bigint]</text>
<polygon fill="none" stroke="black" points="46.2,-450.6 46.2,-481.4 394.12,-481.4 394.12,-450.6 46.2,-450.6"/>
<text text-anchor="start" x="53.2" y="-462.8" font-family="Arial" font-size="14.00">last_message_at </text>
<text text-anchor="start" x="162.93" y="-462.8" font-family="Arial" font-size="14.00" fill="#666666">[timestamp with time zone]</text>
<polygon fill="none" stroke="black" points="46.2,-419.8 46.2,-450.6 394.12,-450.6 394.12,-419.8 46.2,-419.8"/>
<text text-anchor="start" x="53.2" y="-432" font-family="Arial" font-size="14.00">updated_at </text>
<text text-anchor="start" x="127.16" y="-432" font-family="Arial" font-size="14.00" fill="#666666">[timestamp with time zone]</text>
<polygon fill="none" stroke="black" stroke-width="3" points="44.7,-418.3 44.7,-580.1 395.62,-580.1 395.62,-418.3 44.7,-418.3"/>
</g>
<!-- public.channels -->
<g id="node2" class="node">
<title>public.channels</title>
<polygon fill="#efefef" stroke="none" points="93.32,-258.8 93.32,-294.4 347,-294.4 347,-258.8 93.32,-258.8"/>
<polygon fill="none" stroke="black" points="93.32,-258.8 93.32,-294.4 347,-294.4 347,-258.8 93.32,-258.8"/>
<text text-anchor="start" x="101.68" y="-272.2" font-family="Arial Bold" font-size="18.00">public.channels</text>
<text text-anchor="start" x="214.15" y="-272.2" font-family="Arial" font-size="14.00">    </text>
<text text-anchor="start" x="245.27" y="-272.2" font-family="Arial" font-size="14.00" fill="#666666">[BASE TABLE]</text>
<polygon fill="none" stroke="black" points="93.32,-228 93.32,-258.8 347,-258.8 347,-228 93.32,-228"/>
<text text-anchor="start" x="100.32" y="-240.2" font-family="Arial" font-size="14.00">id </text>
<text text-anchor="start" x="115.11" y="-240.2" font-family="Arial" font-size="14.00" fill="#666666">[bigint]</text>
<polygon fill="none" stroke="black" points="93.32,-197.2 93.32,-228 347,-228 347,-197.2 93.32,-197.2"/>
<text text-anchor="start" x="100.32" y="-209.4" font-family="Arial" font-size="14.00">type </text>
<text text-anchor="start" x="130.67" y="-209.4" font-family="Arial" font-size="14.00" fill="#666666">[channel_type]</text>
<polygon fill="none" stroke="black" points="93.32,-166.4 93.32,-197.2 347,-197.2 347,-166.4 93.32,-166.4"/>
<text text-anchor="start" x="100.32" y="-178.6" font-family="Arial" font-size="14.00">guild_id </text>
<text text-anchor="start" x="152.47" y="-178.6" font-family="Arial" font-size="14.00" fill="#666666">[bigint]</text>
<polygon fill="none" stroke="black" points="93.32,-135.6 93.32,-166.4 347,-166.4 347,-135.6 93.32,-135.6"/>
<text text-anchor="start" x="100.32" y="-147.8" font-family="Arial" font-size="14.00">name </text>
<text text-anchor="start" x="139.23" y="-147.8" font-family="Arial" font-size="14.00" fill="#666666">[text]</text>
<polygon fill="none" stroke="black" points="93.32,-104.8 93.32,-135.6 347,-135.6 347,-104.8 93.32,-104.8"/>
<text text-anchor="start" x="100.32" y="-117" font-family="Arial" font-size="14.00">created_by </text>
<text text-anchor="start" x="173.48" y="-117" font-family="Arial" font-size="14.00" fill="#666666">[bigint]</text>
<polygon fill="none" stroke="black" points="93.32,-74 93.32,-104.8 347,-104.8 347,-74 93.32,-74"/>
<text text-anchor="start" x="100.32" y="-86.2" font-family="Arial" font-size="14.00">created_at </text>
<text text-anchor="start" x="170.37" y="-86.2" font-family="Arial" font-size="14.00" fill="#666666">[timestamp with time zone]</text>
<polygon fill="none" stroke="black" points="93.32,-43.2 93.32,-74 347,-74 347,-43.2 93.32,-43.2"/>
<text text-anchor="start" x="100.32" y="-55.4" font-family="Arial" font-size="14.00">updated_at </text>
<text text-anchor="start" x="174.28" y="-55.4" font-family="Arial" font-size="14.00" fill="#666666">[timestamp with time zone]</text>
</g>
<!-- public.channel_last_message&#45;&gt;public.channels -->
<g id="edge1" class="edge">
<title>public.channel_last_message:channel_id&#45;&gt;public.channels:id</title>
<path fill="none" stroke="black" d="M405.24,-526.97C520.52,-512.27 472.54,-243.4 348,-243.4"/>
<polygon fill="black" stroke="black" points="405.44,-526.96 395.18,-523.09 400.11,-527.29 395.79,-527.56 395.79,-527.56 395.79,-527.56 400.11,-527.29 395.74,-532.07 405.44,-526.96"/>
<text text-anchor="start" x="402.12" y="-537.6" font-family="Arial" font-size="10.00">FOREIGN KEY (channel_id) REFERENCES channels(id) ON DELETE CASCADE</text>
</g>
</g>
</svg>
