<?xml version="1.0" encoding="UTF-8" standalone="no"?>
<!DOCTYPE svg PUBLIC "-//W3C//DTD SVG 1.1//EN"
 "http://www.w3.org/Graphics/SVG/1.1/DTD/svg11.dtd">
<!-- Generated by graphviz version 12.1.2 (20240928.0832)
 -->
<!-- Title: public.dm_pairs Pages: 1 -->
<svg width="710pt" height="694pt"
 viewBox="0.00 0.00 709.73 694.40" xmlns="http://www.w3.org/2000/svg" xmlns:xlink="http://www.w3.org/1999/xlink">
<g id="graph0" class="graph" transform="scale(1 1) rotate(0) translate(4 690.4)">
<title>public.dm_pairs</title>
<polygon fill="white" stroke="none" points="-4,4 -4,-690.4 705.73,-690.4 705.73,4 -4,4"/>
<!-- public.dm_pairs -->
<g id="node1" class="node">
<title>public.dm_pairs</title>
<polygon fill="#efefef" stroke="none" points="46.2,-604.6 46.2,-640.2 301.17,-640.2 301.17,-604.6 46.2,-604.6"/>
<polygon fill="none" stroke="black" points="46.2,-604.6 46.2,-640.2 301.17,-640.2 301.17,-604.6 46.2,-604.6"/>
<text text-anchor="start" x="53.2" y="-618" font-family="Arial Bold" font-size="18.00">public.dm_pairs</text>
<text text-anchor="start" x="169.68" y="-618" font-family="Arial" font-size="14.00">    </text>
<text text-anchor="start" x="200.8" y="-618" font-family="Arial" font-size="14.00" fill="#666666">[BASE TABLE]</text>
<polygon fill="none" stroke="black" points="46.2,-573.8 46.2,-604.6 301.17,-604.6 301.17,-573.8 46.2,-573.8"/>
<text text-anchor="start" x="53.2" y="-586" font-family="Arial" font-size="14.00">user_low </text>
<text text-anchor="start" x="113.12" y="-586" font-family="Arial" font-size="14.00" fill="#666666">[bigint]</text>
<polygon fill="none" stroke="black" points="46.2,-543 46.2,-573.8 301.17,-573.8 301.17,-543 46.2,-543"/>
<text text-anchor="start" x="53.2" y="-555.2" font-family="Arial" font-size="14.00">user_high </text>
<text text-anchor="start" x="118.58" y="-555.2" font-family="Arial" font-size="14.00" fill="#666666">[bigint]</text>
<polygon fill="none" stroke="black" points="46.2,-512.2 46.2,-543 301.17,-543 301.17,-512.2 46.2,-512.2"/>
<text text-anchor="start" x="53.2" y="-524.4" font-family="Arial" font-size="14.00">channel_id </text>
<text text-anchor="start" x="124.81" y="-524.4" font-family="Arial" font-size="14.00" fill="#666666">[bigint]</text>
<polygon fill="none" stroke="black" stroke-width="3" points="44.7,-510.7 44.7,-641.7 302.67,-641.7 302.67,-510.7 44.7,-510.7"/>
</g>
<!-- public.users -->
<g id="node2" class="node">
<title>public.users</title>
<polygon fill="#efefef" stroke="none" points="46.84,-351.2 46.84,-386.8 300.53,-386.8 300.53,-351.2 46.84,-351.2"/>
<polygon fill="none" stroke="black" points="46.84,-351.2 46.84,-386.8 300.53,-386.8 300.53,-351.2 46.84,-351.2"/>
<text text-anchor="start" x="68.2" y="-364.6" font-family="Arial Bold" font-size="18.00">public.users</text>
<text text-anchor="start" x="154.68" y="-364.6" font-family="Arial" font-size="14.00">    </text>
<text text-anchor="start" x="185.8" y="-364.6" font-family="Arial" font-size="14.00" fill="#666666">[BASE TABLE]</text>
<polygon fill="none" stroke="black" points="46.84,-320.4 46.84,-351.2 300.53,-351.2 300.53,-320.4 46.84,-320.4"/>
<text text-anchor="start" x="53.84" y="-332.6" font-family="Arial" font-size="14.00">id </text>
<text text-anchor="start" x="68.63" y="-332.6" font-family="Arial" font-size="14.00" fill="#666666">[bigint]</text>
<polygon fill="none" stroke="black" points="46.84,-289.6 46.84,-320.4 300.53,-320.4 300.53,-289.6 46.84,-289.6"/>
<text text-anchor="start" x="53.84" y="-301.8" font-family="Arial" font-size="14.00">email </text>
<text text-anchor="start" x="91.19" y="-301.8" font-family="Arial" font-size="14.00" fill="#666666">[text]</text>
<polygon fill="none" stroke="black" points="46.84,-258.8 46.84,-289.6 300.53,-289.6 300.53,-258.8 46.84,-258.8"/>
<text text-anchor="start" x="53.84" y="-271" font-family="Arial" font-size="14.00">email_verified </text>
<text text-anchor="start" x="144.11" y="-271" font-family="Arial" font-size="14.00" fill="#666666">[boolean]</text>
<polygon fill="none" stroke="black" points="46.84,-228 46.84,-258.8 300.53,-258.8 300.53,-228 46.84,-228"/>
<text text-anchor="start" x="53.84" y="-240.2" font-family="Arial" font-size="14.00">password_hash </text>
<text text-anchor="start" x="155.8" y="-240.2" font-family="Arial" font-size="14.00" fill="#666666">[text]</text>
<polygon fill="none" stroke="black" points="46.84,-197.2 46.84,-228 300.53,-228 300.53,-197.2 46.84,-197.2"/>
<text text-anchor="start" x="53.84" y="-209.4" font-family="Arial" font-size="14.00">display_name </text>
<text text-anchor="start" x="144.12" y="-209.4" font-family="Arial" font-size="14.00" fill="#666666">[text]</text>
<polygon fill="none" stroke="black" points="46.84,-166.4 46.84,-197.2 300.53,-197.2 300.53,-166.4 46.84,-166.4"/>
<text text-anchor="start" x="53.84" y="-178.6" font-family="Arial" font-size="14.00">avatar_key </text>
<text text-anchor="start" x="126.22" y="-178.6" font-family="Arial" font-size="14.00" fill="#666666">[text]</text>
<polygon fill="none" stroke="black" points="46.84,-135.6 46.84,-166.4 300.53,-166.4 300.53,-135.6 46.84,-135.6"/>
<text text-anchor="start" x="53.84" y="-147.8" font-family="Arial" font-size="14.00">status_text </text>
<text text-anchor="start" x="125.44" y="-147.8" font-family="Arial" font-size="14.00" fill="#666666">[text]</text>
<polygon fill="none" stroke="black" points="46.84,-104.8 46.84,-135.6 300.53,-135.6 300.53,-104.8 46.84,-104.8"/>
<text text-anchor="start" x="53.84" y="-117" font-family="Arial" font-size="14.00">theme </text>
<text text-anchor="start" x="96.64" y="-117" font-family="Arial" font-size="14.00" fill="#666666">[text]</text>
<polygon fill="none" stroke="black" points="46.84,-74 46.84,-104.8 300.53,-104.8 300.53,-74 46.84,-74"/>
<text text-anchor="start" x="53.84" y="-86.2" font-family="Arial" font-size="14.00">created_at </text>
<text text-anchor="start" x="123.89" y="-86.2" font-family="Arial" font-size="14.00" fill="#666666">[timestamp with time zone]</text>
<polygon fill="none" stroke="black" points="46.84,-43.2 46.84,-74 300.53,-74 300.53,-43.2 46.84,-43.2"/>
<text text-anchor="start" x="53.84" y="-55.4" font-family="Arial" font-size="14.00">updated_at </text>
<text text-anchor="start" x="127.8" y="-55.4" font-family="Arial" font-size="14.00" fill="#666666">[timestamp with time zone]</text>
</g>
<!-- public.dm_pairs&#45;&gt;public.users -->
<g id="edge1" class="edge">
<title>public.dm_pairs:user_low&#45;&gt;public.users:id</title>
<path fill="none" stroke="black" d="M312.06,-586.35C358.18,-558.51 354.32,-335.8 301.53,-335.8"/>
<polygon fill="black" stroke="black" points="312.1,-586.34 301.25,-584.78 306.98,-587.82 302.81,-589.02 302.81,-589.02 302.81,-589.02 306.98,-587.82 303.74,-593.43 312.1,-586.34"/>
<text text-anchor="start" x="309.17" y="-599.2" font-family="Arial" font-size="10.00">FOREIGN KEY (user_low) REFERENCES users(id) ON DELETE CASCADE</text>
</g>
<!-- public.dm_pairs&#45;&gt;public.users -->
<g id="edge2" class="edge">
<title>public.dm_pairs:user_high&#45;&gt;public.users:id</title>
<path fill="none" stroke="black" d="M311.86,-555.25C351.31,-528.2 347.51,-335.8 301.53,-335.8"/>
<polygon fill="black" stroke="black" points="312,-555.21 301.1,-554.02 306.93,-556.86 302.81,-558.19 302.81,-558.19 302.81,-558.19 306.93,-556.86 303.88,-562.58 312,-555.21"/>
<text text-anchor="start" x="309.17" y="-568.4" font-family="Arial" font-size="10.00">FOREIGN KEY (user_high) REFERENCES users(id) ON DELETE CASCADE</text>
</g>
<!-- public.channels -->
<g id="node3" class="node">
<title>public.channels</title>
<polygon fill="#efefef" stroke="none" points="404.84,-305 404.84,-340.6 658.53,-340.6 658.53,-305 404.84,-305"/>
<polygon fill="none" stroke="black" points="404.84,-305 404.84,-340.6 658.53,-340.6 658.53,-305 404.84,-305"/>
<text text-anchor="start" x="413.21" y="-318.4" font-family="Arial Bold" font-size="18.00">public.channels</text>
<text text-anchor="start" x="525.67" y="-318.4" font-family="Arial" font-size="14.00">    </text>
<text text-anchor="start" x="556.79" y="-318.4" font-family="Arial" font-size="14.00" fill="#666666">[BASE TABLE]</text>
<polygon fill="none" stroke="black" points="404.84,-274.2 404.84,-305 658.53,-305 658.53,-274.2 404.84,-274.2"/>
<text text-anchor="start" x="411.84" y="-286.4" font-family="Arial" font-size="14.00">id </text>
<text text-anchor="start" x="426.63" y="-286.4" font-family="Arial" font-size="14.00" fill="#666666">[bigint]</text>
<polygon fill="none" stroke="black" points="404.84,-243.4 404.84,-274.2 658.53,-274.2 658.53,-243.4 404.84,-243.4"/>
<text text-anchor="start" x="411.84" y="-255.6" font-family="Arial" font-size="14.00">type </text>
<text text-anchor="start" x="442.2" y="-255.6" font-family="Arial" font-size="14.00" fill="#666666">[channel_type]</text>
<polygon fill="none" stroke="black" points="404.84,-212.6 404.84,-243.4 658.53,-243.4 658.53,-212.6 404.84,-212.6"/>
<text text-anchor="start" x="411.84" y="-224.8" font-family="Arial" font-size="14.00">guild_id </text>
<text text-anchor="start" x="464" y="-224.8" font-family="Arial" font-size="14.00" fill="#666666">[bigint]</text>
<polygon fill="none" stroke="black" points="404.84,-181.8 404.84,-212.6 658.53,-212.6 658.53,-181.8 404.84,-181.8"/>
<text text-anchor="start" x="411.84" y="-194" font-family="Arial" font-size="14.00">name </text>
<text text-anchor="start" x="450.75" y="-194" font-family="Arial" font-size="14.00" fill="#666666">[text]</text>
<polygon fill="none" stroke="black" points="404.84,-151 404.84,-181.8 658.53,-181.8 658.53,-151 404.84,-151"/>
<text text-anchor="start" x="411.84" y="-163.2" font-family="Arial" font-size="14.00">created_by </text>
<text text-anchor="start" x="485" y="-163.2" font-family="Arial" font-size="14.00" fill="#666666">[bigint]</text>
<polygon fill="none" stroke="black" points="404.84,-120.2 404.84,-151 658.53,-151 658.53,-120.2 404.84,-120.2"/>
<text text-anchor="start" x="411.84" y="-132.4" font-family="Arial" font-size="14.00">created_at </text>
<text text-anchor="start" x="481.89" y="-132.4" font-family="Arial" font-size="14.00" fill="#666666">[timestamp with time zone]</text>
<polygon fill="none" stroke="black" points="404.84,-89.4 404.84,-120.2 658.53,-120.2 658.53,-89.4 404.84,-89.4"/>
<text text-anchor="start" x="411.84" y="-101.6" font-family="Arial" font-size="14.00">updated_at </text>
<text text-anchor="start" x="485.8" y="-101.6" font-family="Arial" font-size="14.00" fill="#666666">[timestamp with time zone]</text>
</g>
<!-- public.dm_pairs&#45;&gt;public.channels -->
<g id="edge3" class="edge">
<title>public.dm_pairs:channel_id&#45;&gt;public.channels:id</title>
<path fill="none" stroke="black" d="M312.45,-526.66C348.44,-519.39 334.59,-471.23 352.69,-430 379.37,-369.18 337.43,-289.6 403.84,-289.6"/>
<polygon fill="black" stroke="black" points="312.46,-526.66 302.09,-523.09 307.15,-527.14 302.84,-527.54 302.84,-527.54 302.84,-527.54 307.15,-527.14 302.91,-532.05 312.46,-526.66"/>
<text text-anchor="start" x="309.17" y="-537.6" font-family="Arial" font-size="10.00">FOREIGN KEY (channel_id) REFERENCES channels(id) ON DELETE CASCADE</text>
</g>
</g>
</svg>
