<?xml version="1.0" encoding="UTF-8" standalone="no"?>
<!DOCTYPE svg PUBLIC "-//W3C//DTD SVG 1.1//EN"
 "http://www.w3.org/Graphics/SVG/1.1/DTD/svg11.dtd">
<!-- Generated by graphviz version 12.1.2 (20240928.0832)
 -->
<!-- Title: public.channels Pages: 1 -->
<svg width="2725pt" height="1130pt"
 viewBox="0.00 0.00 2725.29 1129.60" xmlns="http://www.w3.org/2000/svg" xmlns:xlink="http://www.w3.org/1999/xlink">
<g id="graph0" class="graph" transform="scale(1 1) rotate(0) translate(4 1125.6)">
<title>public.channels</title>
<polygon fill="white" stroke="none" points="-4,4 -4,-1125.6 2721.29,-1125.6 2721.29,4 -4,4"/>
<!-- public.channels -->
<g id="node1" class="node">
<title>public.channels</title>
<polygon fill="#efefef" stroke="none" points="1146.3,-666.2 1146.3,-701.8 1399.98,-701.8 1399.98,-666.2 1146.3,-666.2"/>
<polygon fill="none" stroke="black" points="1146.3,-666.2 1146.3,-701.8 1399.98,-701.8 1399.98,-666.2 1146.3,-666.2"/>
<text text-anchor="start" x="1154.66" y="-679.6" font-family="Arial Bold" font-size="18.00">public.channels</text>
<text text-anchor="start" x="1267.12" y="-679.6" font-family="Arial" font-size="14.00">    </text>
<text text-anchor="start" x="1298.24" y="-679.6" font-family="Arial" font-size="14.00" fill="#666666">[BASE TABLE]</text>
<polygon fill="none" stroke="black" points="1146.3,-635.4 1146.3,-666.2 1399.98,-666.2 1399.98,-635.4 1146.3,-635.4"/>
<text text-anchor="start" x="1153.3" y="-647.6" font-family="Arial" font-size="14.00">id </text>
<text text-anchor="start" x="1168.08" y="-647.6" font-family="Arial" font-size="14.00" fill="#666666">[bigint]</text>
<polygon fill="none" stroke="black" points="1146.3,-604.6 1146.3,-635.4 1399.98,-635.4 1399.98,-604.6 1146.3,-604.6"/>
<text text-anchor="start" x="1153.3" y="-616.8" font-family="Arial" font-size="14.00">type </text>
<text text-anchor="start" x="1183.65" y="-616.8" font-family="Arial" font-size="14.00" fill="#666666">[channel_type]</text>
<polygon fill="none" stroke="black" points="1146.3,-573.8 1146.3,-604.6 1399.98,-604.6 1399.98,-573.8 1146.3,-573.8"/>
<text text-anchor="start" x="1153.3" y="-586" font-family="Arial" font-size="14.00">guild_id </text>
<text text-anchor="start" x="1205.45" y="-586" font-family="Arial" font-size="14.00" fill="#666666">[bigint]</text>
<polygon fill="none" stroke="black" points="1146.3,-543 1146.3,-573.8 1399.98,-573.8 1399.98,-543 1146.3,-543"/>
<text text-anchor="start" x="1153.3" y="-555.2" font-family="Arial" font-size="14.00">name </text>
<text text-anchor="start" x="1192.21" y="-555.2" font-family="Arial" font-size="14.00" fill="#666666">[text]</text>
<polygon fill="none" stroke="black" points="1146.3,-512.2 1146.3,-543 1399.98,-543 1399.98,-512.2 1146.3,-512.2"/>
<text text-anchor="start" x="1153.3" y="-524.4" font-family="Arial" font-size="14.00">created_by </text>
<text text-anchor="start" x="1226.45" y="-524.4" font-family="Arial" font-size="14.00" fill="#666666">[bigint]</text>
<polygon fill="none" stroke="black" points="1146.3,-481.4 1146.3,-512.2 1399.98,-512.2 1399.98,-481.4 1146.3,-481.4"/>
<text text-anchor="start" x="1153.3" y="-493.6" font-family="Arial" font-size="14.00">created_at </text>
<text text-anchor="start" x="1223.34" y="-493.6" font-family="Arial" font-size="14.00" fill="#666666">[timestamp with time zone]</text>
<polygon fill="none" stroke="black" points="1146.3,-450.6 1146.3,-481.4 1399.98,-481.4 1399.98,-450.6 1146.3,-450.6"/>
<text text-anchor="start" x="1153.3" y="-462.8" font-family="Arial" font-size="14.00">updated_at </text>
<text text-anchor="start" x="1227.25" y="-462.8" font-family="Arial" font-size="14.00" fill="#666666">[timestamp with time zone]</text>
<polygon fill="none" stroke="black" stroke-width="3" points="1144.8,-449.1 1144.8,-703.3 1401.48,-703.3 1401.48,-449.1 1144.8,-449.1"/>
</g>
<!-- public.guilds -->
<g id="node8" class="node">
<title>public.guilds</title>
<polygon fill="#efefef" stroke="none" points="967.3,-258.8 967.3,-294.4 1220.98,-294.4 1220.98,-258.8 967.3,-258.8"/>
<polygon fill="none" stroke="black" points="967.3,-258.8 967.3,-294.4 1220.98,-294.4 1220.98,-258.8 967.3,-258.8"/>
<text text-anchor="start" x="985.14" y="-272.2" font-family="Arial Bold" font-size="18.00">public.guilds</text>
<text text-anchor="start" x="1078.64" y="-272.2" font-family="Arial" font-size="14.00">    </text>
<text text-anchor="start" x="1109.76" y="-272.2" font-family="Arial" font-size="14.00" fill="#666666">[BASE TABLE]</text>
<polygon fill="none" stroke="black" points="967.3,-228 967.3,-258.8 1220.98,-258.8 1220.98,-228 967.3,-228"/>
<text text-anchor="start" x="974.3" y="-240.2" font-family="Arial" font-size="14.00">id </text>
<text text-anchor="start" x="989.08" y="-240.2" font-family="Arial" font-size="14.00" fill="#666666">[bigint]</text>
<polygon fill="none" stroke="black" points="967.3,-197.2 967.3,-228 1220.98,-228 1220.98,-197.2 967.3,-197.2"/>
<text text-anchor="start" x="974.3" y="-209.4" font-family="Arial" font-size="14.00">name </text>
<text text-anchor="start" x="1013.21" y="-209.4" font-family="Arial" font-size="14.00" fill="#666666">[text]</text>
<polygon fill="none" stroke="black" points="967.3,-166.4 967.3,-197.2 1220.98,-197.2 1220.98,-166.4 967.3,-166.4"/>
<text text-anchor="start" x="974.3" y="-178.6" font-family="Arial" font-size="14.00">owner_id </text>
<text text-anchor="start" x="1035" y="-178.6" font-family="Arial" font-size="14.00" fill="#666666">[bigint]</text>
<polygon fill="none" stroke="black" points="967.3,-135.6 967.3,-166.4 1220.98,-166.4 1220.98,-135.6 967.3,-135.6"/>
<text text-anchor="start" x="974.3" y="-147.8" font-family="Arial" font-size="14.00">icon_key </text>
<text text-anchor="start" x="1033.44" y="-147.8" font-family="Arial" font-size="14.00" fill="#666666">[text]</text>
<polygon fill="none" stroke="black" points="967.3,-104.8 967.3,-135.6 1220.98,-135.6 1220.98,-104.8 967.3,-104.8"/>
<text text-anchor="start" x="974.3" y="-117" font-family="Arial" font-size="14.00">created_at </text>
<text text-anchor="start" x="1044.34" y="-117" font-family="Arial" font-size="14.00" fill="#666666">[timestamp with time zone]</text>
<polygon fill="none" stroke="black" points="967.3,-74 967.3,-104.8 1220.98,-104.8 1220.98,-74 967.3,-74"/>
<text text-anchor="start" x="974.3" y="-86.2" font-family="Arial" font-size="14.00">updated_at </text>
<text text-anchor="start" x="1048.25" y="-86.2" font-family="Arial" font-size="14.00" fill="#666666">[timestamp with time zone]</text>
</g>
<!-- public.channels&#45;&gt;public.guilds -->
<g id="edge7" class="edge">
<title>public.channels:guild_id&#45;&gt;public.guilds:id</title>
<path fill="none" stroke="black" d="M1135.22,-589.11C847.06,-583.89 1214.74,-351.36 1220.98,-337.6 1238.27,-299.47 1263.85,-243.4 1221.98,-243.4"/>
<polygon fill="black" stroke="black" points="1134.96,-589.11 1144.92,-593.7 1140.3,-589.16 1144.63,-589.19 1144.63,-589.19 1144.63,-589.19 1140.3,-589.16 1145,-584.7 1134.96,-589.11"/>
<text text-anchor="start" x="800.99" y="-599.2" font-family="Arial" font-size="10.00">FOREIGN KEY (guild_id) REFERENCES guilds(id) ON DELETE CASCADE</text>
</g>
<!-- public.users -->
<g id="node9" class="node">
<title>public.users</title>
<polygon fill="#efefef" stroke="none" points="1325.3,-289.6 1325.3,-325.2 1578.98,-325.2 1578.98,-289.6 1325.3,-289.6"/>
<polygon fill="none" stroke="black" points="1325.3,-289.6 1325.3,-325.2 1578.98,-325.2 1578.98,-289.6 1325.3,-289.6"/>
<text text-anchor="start" x="1346.65" y="-303" font-family="Arial Bold" font-size="18.00">public.users</text>
<text text-anchor="start" x="1433.13" y="-303" font-family="Arial" font-size="14.00">    </text>
<text text-anchor="start" x="1464.25" y="-303" font-family="Arial" font-size="14.00" fill="#666666">[BASE TABLE]</text>
<polygon fill="none" stroke="black" points="1325.3,-258.8 1325.3,-289.6 1578.98,-289.6 1578.98,-258.8 1325.3,-258.8"/>
<text text-anchor="start" x="1332.3" y="-271" font-family="Arial" font-size="14.00">id </text>
<text text-anchor="start" x="1347.08" y="-271" font-family="Arial" font-size="14.00" fill="#666666">[bigint]</text>
<polygon fill="none" stroke="black" points="1325.3,-228 1325.3,-258.8 1578.98,-258.8 1578.98,-228 1325.3,-228"/>
<text text-anchor="start" x="1332.3" y="-240.2" font-family="Arial" font-size="14.00">email </text>
<text text-anchor="start" x="1369.64" y="-240.2" font-family="Arial" font-size="14.00" fill="#666666">[text]</text>
<polygon fill="none" stroke="black" points="1325.3,-197.2 1325.3,-228 1578.98,-228 1578.98,-197.2 1325.3,-197.2"/>
<text text-anchor="start" x="1332.3" y="-209.4" font-family="Arial" font-size="14.00">display_name </text>
<text text-anchor="start" x="1422.57" y="-209.4" font-family="Arial" font-size="14.00" fill="#666666">[text]</text>
<polygon fill="none" stroke="black" points="1325.3,-166.4 1325.3,-197.2 1578.98,-197.2 1578.98,-166.4 1325.3,-166.4"/>
<text text-anchor="start" x="1332.3" y="-178.6" font-family="Arial" font-size="14.00">avatar_key </text>
<text text-anchor="start" x="1404.67" y="-178.6" font-family="Arial" font-size="14.00" fill="#666666">[text]</text>
<polygon fill="none" stroke="black" points="1325.3,-135.6 1325.3,-166.4 1578.98,-166.4 1578.98,-135.6 1325.3,-135.6"/>
<text text-anchor="start" x="1332.3" y="-147.8" font-family="Arial" font-size="14.00">status_text </text>
<text text-anchor="start" x="1403.89" y="-147.8" font-family="Arial" font-size="14.00" fill="#666666">[text]</text>
<polygon fill="none" stroke="black" points="1325.3,-104.8 1325.3,-135.6 1578.98,-135.6 1578.98,-104.8 1325.3,-104.8"/>
<text text-anchor="start" x="1332.3" y="-117" font-family="Arial" font-size="14.00">theme </text>
<text text-anchor="start" x="1375.1" y="-117" font-family="Arial" font-size="14.00" fill="#666666">[text]</text>
<polygon fill="none" stroke="black" points="1325.3,-74 1325.3,-104.8 1578.98,-104.8 1578.98,-74 1325.3,-74"/>
<text text-anchor="start" x="1332.3" y="-86.2" font-family="Arial" font-size="14.00">created_at </text>
<text text-anchor="start" x="1402.34" y="-86.2" font-family="Arial" font-size="14.00" fill="#666666">[timestamp with time zone]</text>
<polygon fill="none" stroke="black" points="1325.3,-43.2 1325.3,-74 1578.98,-74 1578.98,-43.2 1325.3,-43.2"/>
<text text-anchor="start" x="1332.3" y="-55.4" font-family="Arial" font-size="14.00">updated_at </text>
<text text-anchor="start" x="1406.25" y="-55.4" font-family="Arial" font-size="14.00" fill="#666666">[timestamp with time zone]</text>
</g>
<!-- public.channels&#45;&gt;public.users -->
<g id="edge8" class="edge">
<title>public.channels:created_by&#45;&gt;public.users:id</title>
<path fill="none" stroke="black" d="M1411.35,-526.5C1452,-516.93 1427.23,-447.4 1399.98,-404.4 1380.25,-373.28 1345.06,-399.5 1325.3,-368.4 1302.84,-333.06 1282.43,-274.2 1324.3,-274.2"/>
<polygon fill="black" stroke="black" points="1411.25,-526.51 1400.83,-523.09 1405.95,-527.07 1401.64,-527.53 1401.64,-527.53 1401.64,-527.53 1405.95,-527.07 1401.79,-532.04 1411.25,-526.51"/>
<text text-anchor="start" x="1407.98" y="-537.6" font-family="Arial" font-size="10.00">FOREIGN KEY (created_by) REFERENCES users(id) ON DELETE SET NULL</text>
</g>
<!-- public.dm_participants -->
<g id="node2" class="node">
<title>public.dm_participants</title>
<polygon fill="#efefef" stroke="none" points="74.16,-965.8 74.16,-1001.4 378.11,-1001.4 378.11,-965.8 74.16,-965.8"/>
<polygon fill="none" stroke="black" points="74.16,-965.8 74.16,-1001.4 378.11,-1001.4 378.11,-965.8 74.16,-965.8"/>
<text text-anchor="start" x="81.16" y="-979.2" font-family="Arial Bold" font-size="18.00">public.dm_participants</text>
<text text-anchor="start" x="246.62" y="-979.2" font-family="Arial" font-size="14.00">    </text>
<text text-anchor="start" x="277.74" y="-979.2" font-family="Arial" font-size="14.00" fill="#666666">[BASE TABLE]</text>
<polygon fill="none" stroke="black" points="74.16,-935 74.16,-965.8 378.11,-965.8 378.11,-935 74.16,-935"/>
<text text-anchor="start" x="81.16" y="-947.2" font-family="Arial" font-size="14.00">channel_id </text>
<text text-anchor="start" x="152.77" y="-947.2" font-family="Arial" font-size="14.00" fill="#666666">[bigint]</text>
<polygon fill="none" stroke="black" points="74.16,-904.2 74.16,-935 378.11,-935 378.11,-904.2 74.16,-904.2"/>
<text text-anchor="start" x="81.16" y="-916.4" font-family="Arial" font-size="14.00">user_id </text>
<text text-anchor="start" x="130.97" y="-916.4" font-family="Arial" font-size="14.00" fill="#666666">[bigint]</text>
</g>
<!-- public.dm_participants&#45;&gt;public.channels -->
<g id="edge1" class="edge">
<title>public.dm_participants:channel_id&#45;&gt;public.channels:id</title>
<path fill="none" stroke="black" d="M389.32,-949.6C448.6,-939.33 375.24,-833 430.14,-784 550.74,-676.35 983.64,-650.8 1145.3,-650.8"/>
<polygon fill="black" stroke="black" points="389.42,-949.59 379.09,-945.89 384.1,-950.01 379.78,-950.35 379.78,-950.35 379.78,-950.35 384.1,-950.01 379.8,-954.86 389.42,-949.59"/>
<text text-anchor="start" x="7" y="-960.4" font-family="Arial" font-size="10.00">FOREIGN KEY (channel_id) REFERENCES channels(id) ON DELETE CASCADE</text>
</g>
<!-- public.dm_pairs -->
<g id="node3" class="node">
<title>public.dm_pairs</title>
<polygon fill="#efefef" stroke="none" points="482.65,-981.2 482.65,-1016.8 737.62,-1016.8 737.62,-981.2 482.65,-981.2"/>
<polygon fill="none" stroke="black" points="482.65,-981.2 482.65,-1016.8 737.62,-1016.8 737.62,-981.2 482.65,-981.2"/>
<text text-anchor="start" x="489.65" y="-994.6" font-family="Arial Bold" font-size="18.00">public.dm_pairs</text>
<text text-anchor="start" x="606.13" y="-994.6" font-family="Arial" font-size="14.00">    </text>
<text text-anchor="start" x="637.25" y="-994.6" font-family="Arial" font-size="14.00" fill="#666666">[BASE TABLE]</text>
<polygon fill="none" stroke="black" points="482.65,-950.4 482.65,-981.2 737.62,-981.2 737.62,-950.4 482.65,-950.4"/>
<text text-anchor="start" x="489.65" y="-962.6" font-family="Arial" font-size="14.00">user_low </text>
<text text-anchor="start" x="549.57" y="-962.6" font-family="Arial" font-size="14.00" fill="#666666">[bigint]</text>
<polygon fill="none" stroke="black" points="482.65,-919.6 482.65,-950.4 737.62,-950.4 737.62,-919.6 482.65,-919.6"/>
<text text-anchor="start" x="489.65" y="-931.8" font-family="Arial" font-size="14.00">user_high </text>
<text text-anchor="start" x="555.03" y="-931.8" font-family="Arial" font-size="14.00" fill="#666666">[bigint]</text>
<polygon fill="none" stroke="black" points="482.65,-888.8 482.65,-919.6 737.62,-919.6 737.62,-888.8 482.65,-888.8"/>
<text text-anchor="start" x="489.65" y="-901" font-family="Arial" font-size="14.00">channel_id </text>
<text text-anchor="start" x="561.26" y="-901" font-family="Arial" font-size="14.00" fill="#666666">[bigint]</text>
</g>
<!-- public.dm_pairs&#45;&gt;public.channels -->
<g id="edge2" class="edge">
<title>public.dm_pairs:channel_id&#45;&gt;public.channels:id</title>
<path fill="none" stroke="black" d="M748.85,-903.18C790.68,-893.74 750.89,-821.47 790.14,-784 912.06,-667.57 976.71,-650.8 1145.3,-650.8"/>
<polygon fill="black" stroke="black" points="748.9,-903.17 738.51,-899.69 743.6,-903.7 739.29,-904.13 739.29,-904.13 739.29,-904.13 743.6,-903.7 739.4,-908.64 748.9,-903.17"/>
<text text-anchor="start" x="745.62" y="-914.2" font-family="Arial" font-size="10.00">FOREIGN KEY (channel_id) REFERENCES channels(id) ON DELETE CASCADE</text>
</g>
<!-- public.channel_permission_overrides -->
<g id="node4" class="node">
<title>public.channel_permission_overrides</title>
<polygon fill="#efefef" stroke="none" points="842.18,-996.6 842.18,-1032.2 1250.1,-1032.2 1250.1,-996.6 842.18,-996.6"/>
<polygon fill="none" stroke="black" points="842.18,-996.6 842.18,-1032.2 1250.1,-1032.2 1250.1,-996.6 842.18,-996.6"/>
<text text-anchor="start" x="849.18" y="-1010" font-family="Arial Bold" font-size="18.00">public.channel_permission_overrides</text>
<text text-anchor="start" x="1118.61" y="-1010" font-family="Arial" font-size="14.00">    </text>
<text text-anchor="start" x="1149.72" y="-1010" font-family="Arial" font-size="14.00" fill="#666666">[BASE TABLE]</text>
<polygon fill="none" stroke="black" points="842.18,-965.8 842.18,-996.6 1250.1,-996.6 1250.1,-965.8 842.18,-965.8"/>
<text text-anchor="start" x="849.18" y="-978" font-family="Arial" font-size="14.00">channel_id </text>
<text text-anchor="start" x="920.79" y="-978" font-family="Arial" font-size="14.00" fill="#666666">[bigint]</text>
<polygon fill="none" stroke="black" points="842.18,-935 842.18,-965.8 1250.1,-965.8 1250.1,-935 842.18,-935"/>
<text text-anchor="start" x="849.18" y="-947.2" font-family="Arial" font-size="14.00">level </text>
<text text-anchor="start" x="881.86" y="-947.2" font-family="Arial" font-size="14.00" fill="#666666">[role_level]</text>
<polygon fill="none" stroke="black" points="842.18,-904.2 842.18,-935 1250.1,-935 1250.1,-904.2 842.18,-904.2"/>
<text text-anchor="start" x="849.18" y="-916.4" font-family="Arial" font-size="14.00">can_view </text>
<text text-anchor="start" x="911.43" y="-916.4" font-family="Arial" font-size="14.00" fill="#666666">[boolean]</text>
<polygon fill="none" stroke="black" points="842.18,-873.4 842.18,-904.2 1250.1,-904.2 1250.1,-873.4 842.18,-873.4"/>
<text text-anchor="start" x="849.18" y="-885.6" font-family="Arial" font-size="14.00">can_post </text>
<text text-anchor="start" x="909.89" y="-885.6" font-family="Arial" font-size="14.00" fill="#666666">[boolean]</text>
</g>
<!-- public.channel_permission_overrides&#45;&gt;public.channels -->
<g id="edge3" class="edge">
<title>public.channel_permission_overrides:channel_id&#45;&gt;public.channels:id</title>
<path fill="none" stroke="black" d="M1261.5,-980.35C1313.85,-971.03 1277.85,-887.1 1250.1,-830.2 1224.3,-777.31 1172.19,-800.84 1146.3,-748 1127.28,-709.21 1102.09,-650.8 1145.3,-650.8"/>
<polygon fill="black" stroke="black" points="1261.4,-980.36 1251.06,-976.69 1256.08,-980.79 1251.76,-981.15 1251.76,-981.15 1251.76,-981.15 1256.08,-980.79 1251.8,-985.66 1261.4,-980.36"/>
<text text-anchor="start" x="1258.1" y="-991.2" font-family="Arial" font-size="10.00">FOREIGN KEY (channel_id) REFERENCES channels(id) ON DELETE CASCADE</text>
</g>
<!-- public.channel_reads -->
<g id="node5" class="node">
<title>public.channel_reads</title>
<polygon fill="#efefef" stroke="none" points="1354.67,-1012 1354.67,-1047.6 1645.6,-1047.6 1645.6,-1012 1354.67,-1012"/>
<polygon fill="none" stroke="black" points="1354.67,-1012 1354.67,-1047.6 1645.6,-1047.6 1645.6,-1012 1354.67,-1012"/>
<text text-anchor="start" x="1361.67" y="-1025.4" font-family="Arial Bold" font-size="18.00">public.channel_reads</text>
<text text-anchor="start" x="1514.11" y="-1025.4" font-family="Arial" font-size="14.00">    </text>
<text text-anchor="start" x="1545.23" y="-1025.4" font-family="Arial" font-size="14.00" fill="#666666">[BASE TABLE]</text>
<polygon fill="none" stroke="black" points="1354.67,-981.2 1354.67,-1012 1645.6,-1012 1645.6,-981.2 1354.67,-981.2"/>
<text text-anchor="start" x="1361.67" y="-993.4" font-family="Arial" font-size="14.00">channel_id </text>
<text text-anchor="start" x="1433.29" y="-993.4" font-family="Arial" font-size="14.00" fill="#666666">[bigint]</text>
<polygon fill="none" stroke="black" points="1354.67,-950.4 1354.67,-981.2 1645.6,-981.2 1645.6,-950.4 1354.67,-950.4"/>
<text text-anchor="start" x="1361.67" y="-962.6" font-family="Arial" font-size="14.00">user_id </text>
<text text-anchor="start" x="1411.48" y="-962.6" font-family="Arial" font-size="14.00" fill="#666666">[bigint]</text>
<polygon fill="none" stroke="black" points="1354.67,-919.6 1354.67,-950.4 1645.6,-950.4 1645.6,-919.6 1354.67,-919.6"/>
<text text-anchor="start" x="1361.67" y="-931.8" font-family="Arial" font-size="14.00">last_read_message_id </text>
<text text-anchor="start" x="1506.43" y="-931.8" font-family="Arial" font-size="14.00" fill="#666666">[bigint]</text>
<polygon fill="none" stroke="black" points="1354.67,-888.8 1354.67,-919.6 1645.6,-919.6 1645.6,-888.8 1354.67,-888.8"/>
<text text-anchor="start" x="1361.67" y="-901" font-family="Arial" font-size="14.00">last_client_seq </text>
<text text-anchor="start" x="1458.18" y="-901" font-family="Arial" font-size="14.00" fill="#666666">[bigint]</text>
<polygon fill="none" stroke="black" points="1354.67,-858 1354.67,-888.8 1645.6,-888.8 1645.6,-858 1354.67,-858"/>
<text text-anchor="start" x="1361.67" y="-870.2" font-family="Arial" font-size="14.00">updated_at </text>
<text text-anchor="start" x="1435.63" y="-870.2" font-family="Arial" font-size="14.00" fill="#666666">[timestamp with time zone]</text>
</g>
<!-- public.channel_reads&#45;&gt;public.channels -->
<g id="edge4" class="edge">
<title>public.channel_reads:channel_id&#45;&gt;public.channels:id</title>
<path fill="none" stroke="black" d="M1343.61,-995.98C1278,-987.26 1331.81,-888.51 1354.67,-814.8 1365.3,-780.54 1389.27,-782.24 1399.98,-748 1412.87,-706.77 1444.18,-650.8 1400.98,-650.8"/>
<polygon fill="black" stroke="black" points="1343.36,-995.96 1353.06,-1001.07 1348.68,-996.29 1353.01,-996.56 1353.01,-996.56 1353.01,-996.56 1348.68,-996.29 1353.62,-992.09 1343.36,-995.96"/>
<text text-anchor="start" x="1076.34" y="-980.6" font-family="Arial" font-size="10.00">FOREIGN KEY (channel_id) REFERENCES channels(id) ON DELETE CASCADE</text>
</g>
<!-- public.channel_last_message -->
<g id="node6" class="node">
<title>public.channel_last_message</title>
<polygon fill="#efefef" stroke="none" points="1750.17,-996.6 1750.17,-1032.2 2098.1,-1032.2 2098.1,-996.6 1750.17,-996.6"/>
<polygon fill="none" stroke="black" points="1750.17,-996.6 1750.17,-1032.2 2098.1,-1032.2 2098.1,-996.6 1750.17,-996.6"/>
<text text-anchor="start" x="1757.17" y="-1010" font-family="Arial Bold" font-size="18.00">public.channel_last_message</text>
<text text-anchor="start" x="1966.61" y="-1010" font-family="Arial" font-size="14.00">    </text>
<text text-anchor="start" x="1997.73" y="-1010" font-family="Arial" font-size="14.00" fill="#666666">[BASE TABLE]</text>
<polygon fill="none" stroke="black" points="1750.17,-965.8 1750.17,-996.6 2098.1,-996.6 2098.1,-965.8 1750.17,-965.8"/>
<text text-anchor="start" x="1757.17" y="-978" font-family="Arial" font-size="14.00">channel_id </text>
<text text-anchor="start" x="1828.79" y="-978" font-family="Arial" font-size="14.00" fill="#666666">[bigint]</text>
<polygon fill="none" stroke="black" points="1750.17,-935 1750.17,-965.8 2098.1,-965.8 2098.1,-935 1750.17,-935"/>
<text text-anchor="start" x="1757.17" y="-947.2" font-family="Arial" font-size="14.00">last_message_id </text>
<text text-anchor="start" x="1866.13" y="-947.2" font-family="Arial" font-size="14.00" fill="#666666">[bigint]</text>
<polygon fill="none" stroke="black" points="1750.17,-904.2 1750.17,-935 2098.1,-935 2098.1,-904.2 1750.17,-904.2"/>
<text text-anchor="start" x="1757.17" y="-916.4" font-family="Arial" font-size="14.00">last_message_at </text>
<text text-anchor="start" x="1866.9" y="-916.4" font-family="Arial" font-size="14.00" fill="#666666">[timestamp with time zone]</text>
<polygon fill="none" stroke="black" points="1750.17,-873.4 1750.17,-904.2 2098.1,-904.2 2098.1,-873.4 1750.17,-873.4"/>
<text text-anchor="start" x="1757.17" y="-885.6" font-family="Arial" font-size="14.00">updated_at </text>
<text text-anchor="start" x="1831.13" y="-885.6" font-family="Arial" font-size="14.00" fill="#666666">[timestamp with time zone]</text>
</g>
<!-- public.channel_last_message&#45;&gt;public.channels -->
<g id="edge5" class="edge">
<title>public.channel_last_message:channel_id&#45;&gt;public.channels:id</title>
<path fill="none" stroke="black" d="M1738.96,-980.57C1666.41,-970.8 1754.15,-850.33 1698.14,-784 1604.75,-673.43 1545.71,-650.8 1400.98,-650.8"/>
<polygon fill="black" stroke="black" points="1738.86,-980.56 1748.56,-985.67 1744.18,-980.89 1748.51,-981.16 1748.51,-981.16 1748.51,-981.16 1744.18,-980.89 1749.12,-976.69 1738.86,-980.56"/>
<text text-anchor="start" x="1756.17" y="-991.2" font-family="Arial" font-size="10.00">FOREIGN KEY (channel_id) REFERENCES channels(id) ON DELETE CASCADE</text>
</g>
<!-- public.channel_role_permission_overrides_v2 -->
<g id="node7" class="node">
<title>public.channel_role_permission_overrides_v2</title>
<polygon fill="#efefef" stroke="none" points="2202.19,-1042.8 2202.19,-1078.4 2674.09,-1078.4 2674.09,-1042.8 2202.19,-1042.8"/>
<polygon fill="none" stroke="black" points="2202.19,-1042.8 2202.19,-1078.4 2674.09,-1078.4 2674.09,-1042.8 2202.19,-1042.8"/>
<text text-anchor="start" x="2209.19" y="-1056.2" font-family="Arial Bold" font-size="18.00">public.channel_role_permission_overrides_v2</text>
<text text-anchor="start" x="2542.6" y="-1056.2" font-family="Arial" font-size="14.00">    </text>
<text text-anchor="start" x="2573.72" y="-1056.2" font-family="Arial" font-size="14.00" fill="#666666">[BASE TABLE]</text>
<polygon fill="none" stroke="black" points="2202.19,-1012 2202.19,-1042.8 2674.09,-1042.8 2674.09,-1012 2202.19,-1012"/>
<text text-anchor="start" x="2209.19" y="-1024.2" font-family="Arial" font-size="14.00">channel_id </text>
<text text-anchor="start" x="2280.8" y="-1024.2" font-family="Arial" font-size="14.00" fill="#666666">[bigint]</text>
<polygon fill="none" stroke="black" points="2202.19,-981.2 2202.19,-1012 2674.09,-1012 2674.09,-981.2 2202.19,-981.2"/>
<text text-anchor="start" x="2209.19" y="-993.4" font-family="Arial" font-size="14.00">guild_id </text>
<text text-anchor="start" x="2261.34" y="-993.4" font-family="Arial" font-size="14.00" fill="#666666">[bigint]</text>
<polygon fill="none" stroke="black" points="2202.19,-950.4 2202.19,-981.2 2674.09,-981.2 2674.09,-950.4 2202.19,-950.4"/>
<text text-anchor="start" x="2209.19" y="-962.6" font-family="Arial" font-size="14.00">role_key </text>
<text text-anchor="start" x="2265.99" y="-962.6" font-family="Arial" font-size="14.00" fill="#666666">[text]</text>
<polygon fill="none" stroke="black" points="2202.19,-919.6 2202.19,-950.4 2674.09,-950.4 2674.09,-919.6 2202.19,-919.6"/>
<text text-anchor="start" x="2209.19" y="-931.8" font-family="Arial" font-size="14.00">can_view </text>
<text text-anchor="start" x="2271.44" y="-931.8" font-family="Arial" font-size="14.00" fill="#666666">[boolean]</text>
<polygon fill="none" stroke="black" points="2202.19,-888.8 2202.19,-919.6 2674.09,-919.6 2674.09,-888.8 2202.19,-888.8"/>
<text text-anchor="start" x="2209.19" y="-901" font-family="Arial" font-size="14.00">can_post </text>
<text text-anchor="start" x="2269.9" y="-901" font-family="Arial" font-size="14.00" fill="#666666">[boolean]</text>
<polygon fill="none" stroke="black" points="2202.19,-858 2202.19,-888.8 2674.09,-888.8 2674.09,-858 2202.19,-858"/>
<text text-anchor="start" x="2209.19" y="-870.2" font-family="Arial" font-size="14.00">created_at </text>
<text text-anchor="start" x="2279.23" y="-870.2" font-family="Arial" font-size="14.00" fill="#666666">[timestamp with time zone]</text>
<polygon fill="none" stroke="black" points="2202.19,-827.2 2202.19,-858 2674.09,-858 2674.09,-827.2 2202.19,-827.2"/>
<text text-anchor="start" x="2209.19" y="-839.4" font-family="Arial" font-size="14.00">updated_at </text>
<text text-anchor="start" x="2283.14" y="-839.4" font-family="Arial" font-size="14.00" fill="#666666">[timestamp with time zone]</text>
</g>
<!-- public.channel_role_permission_overrides_v2&#45;&gt;public.channels -->
<g id="edge6" class="edge">
<title>public.channel_role_permission_overrides_v2:channel_id&#45;&gt;public.channels:id</title>
<path fill="none" stroke="black" d="M2190.98,-1026.86C2099.63,-1016.45 2226.85,-858.39 2150.14,-784 2028.75,-666.29 1570.07,-650.8 1400.98,-650.8"/>
<polygon fill="black" stroke="black" points="2190.87,-1026.85 2200.61,-1031.88 2196.19,-1027.14 2200.52,-1027.36 2200.52,-1027.36 2200.52,-1027.36 2196.19,-1027.14 2201.09,-1022.89 2190.87,-1026.85"/>
<text text-anchor="start" x="1829.07" y="-1037.4" font-family="Arial" font-size="10.00">FOREIGN KEY (channel_id) REFERENCES channels(id) ON DELETE CASCADE</text>
</g>
</g>
</svg>
