<?xml version="1.0" encoding="UTF-8" standalone="no"?>
<!DOCTYPE svg PUBLIC "-//W3C//DTD SVG 1.1//EN"
 "http://www.w3.org/Graphics/SVG/1.1/DTD/svg11.dtd">
<!-- Generated by graphviz version 12.1.2 (20240928.0832)
 -->
<!-- Title: public.guild_member_roles Pages: 1 -->
<svg width="1298pt" height="510pt"
 viewBox="0.00 0.00 1298.03 509.60" xmlns="http://www.w3.org/2000/svg" xmlns:xlink="http://www.w3.org/1999/xlink">
<g id="graph0" class="graph" transform="scale(1 1) rotate(0) translate(4 505.6)">
<title>public.guild_member_roles</title>
<polygon fill="white" stroke="none" points="-4,4 -4,-505.6 1294.03,-505.6 1294.03,4 -4,4"/>
<!-- public.guild_member_roles -->
<g id="node1" class="node">
<title>public.guild_member_roles</title>
<polygon fill="#efefef" stroke="none" points="497.94,-419.8 497.94,-455.4 834.89,-455.4 834.89,-419.8 497.94,-419.8"/>
<polygon fill="none" stroke="black" points="497.94,-419.8 497.94,-455.4 834.89,-455.4 834.89,-419.8 497.94,-419.8"/>
<text text-anchor="start" x="504.94" y="-433.2" font-family="Arial Bold" font-size="18.00">public.guild_member_roles</text>
<text text-anchor="start" x="703.4" y="-433.2" font-family="Arial" font-size="14.00">    </text>
<text text-anchor="start" x="734.52" y="-433.2" font-family="Arial" font-size="14.00" fill="#666666">[BASE TABLE]</text>
<polygon fill="none" stroke="black" points="497.94,-389 497.94,-419.8 834.89,-419.8 834.89,-389 497.94,-389"/>
<text text-anchor="start" x="504.94" y="-401.2" font-family="Arial" font-size="14.00">guild_id </text>
<text text-anchor="start" x="557.1" y="-401.2" font-family="Arial" font-size="14.00" fill="#666666">[bigint]</text>
<polygon fill="none" stroke="black" points="497.94,-358.2 497.94,-389 834.89,-389 834.89,-358.2 497.94,-358.2"/>
<text text-anchor="start" x="504.94" y="-370.4" font-family="Arial" font-size="14.00">user_id </text>
<text text-anchor="start" x="554.75" y="-370.4" font-family="Arial" font-size="14.00" fill="#666666">[bigint]</text>
<polygon fill="none" stroke="black" points="497.94,-327.4 497.94,-358.2 834.89,-358.2 834.89,-327.4 497.94,-327.4"/>
<text text-anchor="start" x="504.94" y="-339.6" font-family="Arial" font-size="14.00">level </text>
<text text-anchor="start" x="537.63" y="-339.6" font-family="Arial" font-size="14.00" fill="#666666">[role_level]</text>
<polygon fill="none" stroke="black" stroke-width="3" points="496.44,-325.9 496.44,-456.9 836.39,-456.9 836.39,-325.9 496.44,-325.9"/>
</g>
<!-- public.guild_members -->
<g id="node2" class="node">
<title>public.guild_members</title>
<polygon fill="#efefef" stroke="none" points="322.44,-166.4 322.44,-202 622.4,-202 622.4,-166.4 322.44,-166.4"/>
<polygon fill="none" stroke="black" points="322.44,-166.4 322.44,-202 622.4,-202 622.4,-166.4 322.44,-166.4"/>
<text text-anchor="start" x="329.44" y="-179.8" font-family="Arial Bold" font-size="18.00">public.guild_members</text>
<text text-anchor="start" x="490.91" y="-179.8" font-family="Arial" font-size="14.00">    </text>
<text text-anchor="start" x="522.03" y="-179.8" font-family="Arial" font-size="14.00" fill="#666666">[BASE TABLE]</text>
<polygon fill="none" stroke="black" points="322.44,-135.6 322.44,-166.4 622.4,-166.4 622.4,-135.6 322.44,-135.6"/>
<text text-anchor="start" x="329.44" y="-147.8" font-family="Arial" font-size="14.00">guild_id </text>
<text text-anchor="start" x="381.59" y="-147.8" font-family="Arial" font-size="14.00" fill="#666666">[bigint]</text>
<polygon fill="none" stroke="black" points="322.44,-104.8 322.44,-135.6 622.4,-135.6 622.4,-104.8 322.44,-104.8"/>
<text text-anchor="start" x="329.44" y="-117" font-family="Arial" font-size="14.00">user_id </text>
<text text-anchor="start" x="379.24" y="-117" font-family="Arial" font-size="14.00" fill="#666666">[bigint]</text>
<polygon fill="none" stroke="black" points="322.44,-74 322.44,-104.8 622.4,-104.8 622.4,-74 322.44,-74"/>
<text text-anchor="start" x="329.44" y="-86.2" font-family="Arial" font-size="14.00">joined_at </text>
<text text-anchor="start" x="390.15" y="-86.2" font-family="Arial" font-size="14.00" fill="#666666">[timestamp with time zone]</text>
<polygon fill="none" stroke="black" points="322.44,-43.2 322.44,-74 622.4,-74 622.4,-43.2 322.44,-43.2"/>
<text text-anchor="start" x="329.44" y="-55.4" font-family="Arial" font-size="14.00">nickname </text>
<text text-anchor="start" x="393.24" y="-55.4" font-family="Arial" font-size="14.00" fill="#666666">[text]</text>
</g>
<!-- public.guild_member_roles&#45;&gt;public.guild_members -->
<g id="edge1" class="edge">
<title>public.guild_member_roles:guild_id&#45;&gt;public.guild_members:guild_id</title>
<path fill="none" stroke="black" d="M486.78,-403.32C445.34,-393.69 467.13,-321.85 497.94,-281.2 532.73,-235.31 587.56,-291.04 622.4,-245.2 647.73,-211.87 665.27,-151 623.4,-151"/>
<polygon fill="black" stroke="black" points="486.67,-403.31 496.14,-408.84 491.97,-403.87 496.28,-404.33 496.28,-404.33 496.28,-404.33 491.97,-403.87 497.09,-399.89 486.67,-403.31"/>
<text text-anchor="start" x="7" y="-414.4" font-family="Arial" font-size="10.00">FOREIGN KEY (guild_id, user_id) REFERENCES guild_members(guild_id, user_id) ON DELETE CASCADE</text>
</g>
<!-- public.guild_roles -->
<g id="node3" class="node">
<title>public.guild_roles</title>
<polygon fill="#efefef" stroke="none" points="726.93,-151 726.93,-186.6 995.9,-186.6 995.9,-151 726.93,-151"/>
<polygon fill="none" stroke="black" points="726.93,-151 726.93,-186.6 995.9,-186.6 995.9,-151 726.93,-151"/>
<text text-anchor="start" x="733.93" y="-164.4" font-family="Arial Bold" font-size="18.00">public.guild_roles</text>
<text text-anchor="start" x="864.41" y="-164.4" font-family="Arial" font-size="14.00">    </text>
<text text-anchor="start" x="895.53" y="-164.4" font-family="Arial" font-size="14.00" fill="#666666">[BASE TABLE]</text>
<polygon fill="none" stroke="black" points="726.93,-120.2 726.93,-151 995.9,-151 995.9,-120.2 726.93,-120.2"/>
<text text-anchor="start" x="733.93" y="-132.4" font-family="Arial" font-size="14.00">guild_id </text>
<text text-anchor="start" x="786.08" y="-132.4" font-family="Arial" font-size="14.00" fill="#666666">[bigint]</text>
<polygon fill="none" stroke="black" points="726.93,-89.4 726.93,-120.2 995.9,-120.2 995.9,-89.4 726.93,-89.4"/>
<text text-anchor="start" x="733.93" y="-101.6" font-family="Arial" font-size="14.00">level </text>
<text text-anchor="start" x="766.61" y="-101.6" font-family="Arial" font-size="14.00" fill="#666666">[role_level]</text>
<polygon fill="none" stroke="black" points="726.93,-58.6 726.93,-89.4 995.9,-89.4 995.9,-58.6 726.93,-58.6"/>
<text text-anchor="start" x="733.93" y="-70.8" font-family="Arial" font-size="14.00">name </text>
<text text-anchor="start" x="772.84" y="-70.8" font-family="Arial" font-size="14.00" fill="#666666">[text]</text>
</g>
<!-- public.guild_member_roles&#45;&gt;public.guild_roles -->
<g id="edge2" class="edge">
<title>public.guild_member_roles:guild_id&#45;&gt;public.guild_roles:guild_id</title>
<path fill="none" stroke="black" d="M846.27,-403.3C886.93,-393.72 862.25,-324.13 834.89,-281.2 806.34,-236.38 755.54,-274.58 726.93,-229.8 704.39,-194.52 684.06,-135.6 725.93,-135.6"/>
<polygon fill="black" stroke="black" points="846.17,-403.31 835.75,-399.89 840.86,-403.87 836.56,-404.33 836.56,-404.33 836.56,-404.33 840.86,-403.87 836.7,-408.84 846.17,-403.31"/>
<text text-anchor="start" x="842.89" y="-414.4" font-family="Arial" font-size="10.00">FOREIGN KEY (guild_id, level) REFERENCES guild_roles(guild_id, level) ON DELETE RESTRICT</text>
</g>
</g>
</svg>
