<?xml version="1.0" encoding="UTF-8" standalone="no"?>
<!DOCTYPE svg PUBLIC "-//W3C//DTD SVG 1.1//EN"
 "http://www.w3.org/Graphics/SVG/1.1/DTD/svg11.dtd">
<!-- Generated by graphviz version 12.1.2 (20240928.0832)
 -->
<!-- Title: public.channels Pages: 1 -->
<svg width="3777pt" height="1191pt"
 viewBox="0.00 0.00 3776.71 1191.20" xmlns="http://www.w3.org/2000/svg" xmlns:xlink="http://www.w3.org/1999/xlink">
<g id="graph0" class="graph" transform="scale(1 1) rotate(0) translate(4 1187.2)">
<title>public.channels</title>
<polygon fill="white" stroke="none" points="-4,4 -4,-1187.2 3772.71,-1187.2 3772.71,4 -4,4"/>
<!-- public.channels -->
<g id="node1" class="node">
<title>public.channels</title>
<polygon fill="#efefef" stroke="none" points="1797.3,-666.2 1797.3,-701.8 2050.98,-701.8 2050.98,-666.2 1797.3,-666.2"/>
<polygon fill="none" stroke="black" points="1797.3,-666.2 1797.3,-701.8 2050.98,-701.8 2050.98,-666.2 1797.3,-666.2"/>
<text text-anchor="start" x="1805.66" y="-679.6" font-family="Arial Bold" font-size="18.00">public.channels</text>
<text text-anchor="start" x="1918.12" y="-679.6" font-family="Arial" font-size="14.00">    </text>
<text text-anchor="start" x="1949.24" y="-679.6" font-family="Arial" font-size="14.00" fill="#666666">[BASE TABLE]</text>
<polygon fill="none" stroke="black" points="1797.3,-635.4 1797.3,-666.2 2050.98,-666.2 2050.98,-635.4 1797.3,-635.4"/>
<text text-anchor="start" x="1804.3" y="-647.6" font-family="Arial" font-size="14.00">id </text>
<text text-anchor="start" x="1819.08" y="-647.6" font-family="Arial" font-size="14.00" fill="#666666">[bigint]</text>
<polygon fill="none" stroke="black" points="1797.3,-604.6 1797.3,-635.4 2050.98,-635.4 2050.98,-604.6 1797.3,-604.6"/>
<text text-anchor="start" x="1804.3" y="-616.8" font-family="Arial" font-size="14.00">type </text>
<text text-anchor="start" x="1834.65" y="-616.8" font-family="Arial" font-size="14.00" fill="#666666">[channel_type]</text>
<polygon fill="none" stroke="black" points="1797.3,-573.8 1797.3,-604.6 2050.98,-604.6 2050.98,-573.8 1797.3,-573.8"/>
<text text-anchor="start" x="1804.3" y="-586" font-family="Arial" font-size="14.00">guild_id </text>
<text text-anchor="start" x="1856.45" y="-586" font-family="Arial" font-size="14.00" fill="#666666">[bigint]</text>
<polygon fill="none" stroke="black" points="1797.3,-543 1797.3,-573.8 2050.98,-573.8 2050.98,-543 1797.3,-543"/>
<text text-anchor="start" x="1804.3" y="-555.2" font-family="Arial" font-size="14.00">name </text>
<text text-anchor="start" x="1843.21" y="-555.2" font-family="Arial" font-size="14.00" fill="#666666">[text]</text>
<polygon fill="none" stroke="black" points="1797.3,-512.2 1797.3,-543 2050.98,-543 2050.98,-512.2 1797.3,-512.2"/>
<text text-anchor="start" x="1804.3" y="-524.4" font-family="Arial" font-size="14.00">created_by </text>
<text text-anchor="start" x="1877.45" y="-524.4" font-family="Arial" font-size="14.00" fill="#666666">[bigint]</text>
<polygon fill="none" stroke="black" points="1797.3,-481.4 1797.3,-512.2 2050.98,-512.2 2050.98,-481.4 1797.3,-481.4"/>
<text text-anchor="start" x="1804.3" y="-493.6" font-family="Arial" font-size="14.00">created_at </text>
<text text-anchor="start" x="1874.34" y="-493.6" font-family="Arial" font-size="14.00" fill="#666666">[timestamp with time zone]</text>
<polygon fill="none" stroke="black" points="1797.3,-450.6 1797.3,-481.4 2050.98,-481.4 2050.98,-450.6 1797.3,-450.6"/>
<text text-anchor="start" x="1804.3" y="-462.8" font-family="Arial" font-size="14.00">updated_at </text>
<text text-anchor="start" x="1878.25" y="-462.8" font-family="Arial" font-size="14.00" fill="#666666">[timestamp with time zone]</text>
<polygon fill="none" stroke="black" stroke-width="3" points="1795.8,-449.1 1795.8,-703.3 2052.48,-703.3 2052.48,-449.1 1795.8,-449.1"/>
</g>
<!-- public.guilds -->
<g id="node10" class="node">
<title>public.guilds</title>
<polygon fill="#efefef" stroke="none" points="1618.3,-258.8 1618.3,-294.4 1871.98,-294.4 1871.98,-258.8 1618.3,-258.8"/>
<polygon fill="none" stroke="black" points="1618.3,-258.8 1618.3,-294.4 1871.98,-294.4 1871.98,-258.8 1618.3,-258.8"/>
<text text-anchor="start" x="1636.14" y="-272.2" font-family="Arial Bold" font-size="18.00">public.guilds</text>
<text text-anchor="start" x="1729.64" y="-272.2" font-family="Arial" font-size="14.00">    </text>
<text text-anchor="start" x="1760.76" y="-272.2" font-family="Arial" font-size="14.00" fill="#666666">[BASE TABLE]</text>
<polygon fill="none" stroke="black" points="1618.3,-228 1618.3,-258.8 1871.98,-258.8 1871.98,-228 1618.3,-228"/>
<text text-anchor="start" x="1625.3" y="-240.2" font-family="Arial" font-size="14.00">id </text>
<text text-anchor="start" x="1640.08" y="-240.2" font-family="Arial" font-size="14.00" fill="#666666">[bigint]</text>
<polygon fill="none" stroke="black" points="1618.3,-197.2 1618.3,-228 1871.98,-228 1871.98,-197.2 1618.3,-197.2"/>
<text text-anchor="start" x="1625.3" y="-209.4" font-family="Arial" font-size="14.00">name </text>
<text text-anchor="start" x="1664.21" y="-209.4" font-family="Arial" font-size="14.00" fill="#666666">[text]</text>
<polygon fill="none" stroke="black" points="1618.3,-166.4 1618.3,-197.2 1871.98,-197.2 1871.98,-166.4 1618.3,-166.4"/>
<text text-anchor="start" x="1625.3" y="-178.6" font-family="Arial" font-size="14.00">owner_id </text>
<text text-anchor="start" x="1686" y="-178.6" font-family="Arial" font-size="14.00" fill="#666666">[bigint]</text>
<polygon fill="none" stroke="black" points="1618.3,-135.6 1618.3,-166.4 1871.98,-166.4 1871.98,-135.6 1618.3,-135.6"/>
<text text-anchor="start" x="1625.3" y="-147.8" font-family="Arial" font-size="14.00">icon_key </text>
<text text-anchor="start" x="1684.44" y="-147.8" font-family="Arial" font-size="14.00" fill="#666666">[text]</text>
<polygon fill="none" stroke="black" points="1618.3,-104.8 1618.3,-135.6 1871.98,-135.6 1871.98,-104.8 1618.3,-104.8"/>
<text text-anchor="start" x="1625.3" y="-117" font-family="Arial" font-size="14.00">created_at </text>
<text text-anchor="start" x="1695.34" y="-117" font-family="Arial" font-size="14.00" fill="#666666">[timestamp with time zone]</text>
<polygon fill="none" stroke="black" points="1618.3,-74 1618.3,-104.8 1871.98,-104.8 1871.98,-74 1618.3,-74"/>
<text text-anchor="start" x="1625.3" y="-86.2" font-family="Arial" font-size="14.00">updated_at </text>
<text text-anchor="start" x="1699.25" y="-86.2" font-family="Arial" font-size="14.00" fill="#666666">[timestamp with time zone]</text>
</g>
<!-- public.channels&#45;&gt;public.guilds -->
<g id="edge10" class="edge">
<title>public.channels:guild_id&#45;&gt;public.guilds:id</title>
<path fill="none" stroke="black" d="M1786.22,-589.11C1498.06,-583.89 1865.74,-351.36 1871.98,-337.6 1889.27,-299.47 1914.85,-243.4 1872.98,-243.4"/>
<polygon fill="black" stroke="black" points="1785.96,-589.11 1795.92,-593.7 1791.3,-589.16 1795.63,-589.19 1795.63,-589.19 1795.63,-589.19 1791.3,-589.16 1796,-584.7 1785.96,-589.11"/>
<text text-anchor="start" x="1451.99" y="-599.2" font-family="Arial" font-size="10.00">FOREIGN KEY (guild_id) REFERENCES guilds(id) ON DELETE CASCADE</text>
</g>
<!-- public.users -->
<g id="node11" class="node">
<title>public.users</title>
<polygon fill="#efefef" stroke="none" points="1976.3,-289.6 1976.3,-325.2 2229.98,-325.2 2229.98,-289.6 1976.3,-289.6"/>
<polygon fill="none" stroke="black" points="1976.3,-289.6 1976.3,-325.2 2229.98,-325.2 2229.98,-289.6 1976.3,-289.6"/>
<text text-anchor="start" x="1997.65" y="-303" font-family="Arial Bold" font-size="18.00">public.users</text>
<text text-anchor="start" x="2084.13" y="-303" font-family="Arial" font-size="14.00">    </text>
<text text-anchor="start" x="2115.25" y="-303" font-family="Arial" font-size="14.00" fill="#666666">[BASE TABLE]</text>
<polygon fill="none" stroke="black" points="1976.3,-258.8 1976.3,-289.6 2229.98,-289.6 2229.98,-258.8 1976.3,-258.8"/>
<text text-anchor="start" x="1983.3" y="-271" font-family="Arial" font-size="14.00">id </text>
<text text-anchor="start" x="1998.08" y="-271" font-family="Arial" font-size="14.00" fill="#666666">[bigint]</text>
<polygon fill="none" stroke="black" points="1976.3,-228 1976.3,-258.8 2229.98,-258.8 2229.98,-228 1976.3,-228"/>
<text text-anchor="start" x="1983.3" y="-240.2" font-family="Arial" font-size="14.00">email </text>
<text text-anchor="start" x="2020.64" y="-240.2" font-family="Arial" font-size="14.00" fill="#666666">[text]</text>
<polygon fill="none" stroke="black" points="1976.3,-197.2 1976.3,-228 2229.98,-228 2229.98,-197.2 1976.3,-197.2"/>
<text text-anchor="start" x="1983.3" y="-209.4" font-family="Arial" font-size="14.00">display_name </text>
<text text-anchor="start" x="2073.57" y="-209.4" font-family="Arial" font-size="14.00" fill="#666666">[text]</text>
<polygon fill="none" stroke="black" points="1976.3,-166.4 1976.3,-197.2 2229.98,-197.2 2229.98,-166.4 1976.3,-166.4"/>
<text text-anchor="start" x="1983.3" y="-178.6" font-family="Arial" font-size="14.00">avatar_key </text>
<text text-anchor="start" x="2055.67" y="-178.6" font-family="Arial" font-size="14.00" fill="#666666">[text]</text>
<polygon fill="none" stroke="black" points="1976.3,-135.6 1976.3,-166.4 2229.98,-166.4 2229.98,-135.6 1976.3,-135.6"/>
<text text-anchor="start" x="1983.3" y="-147.8" font-family="Arial" font-size="14.00">status_text </text>
<text text-anchor="start" x="2054.89" y="-147.8" font-family="Arial" font-size="14.00" fill="#666666">[text]</text>
<polygon fill="none" stroke="black" points="1976.3,-104.8 1976.3,-135.6 2229.98,-135.6 2229.98,-104.8 1976.3,-104.8"/>
<text text-anchor="start" x="1983.3" y="-117" font-family="Arial" font-size="14.00">theme </text>
<text text-anchor="start" x="2026.1" y="-117" font-family="Arial" font-size="14.00" fill="#666666">[text]</text>
<polygon fill="none" stroke="black" points="1976.3,-74 1976.3,-104.8 2229.98,-104.8 2229.98,-74 1976.3,-74"/>
<text text-anchor="start" x="1983.3" y="-86.2" font-family="Arial" font-size="14.00">created_at </text>
<text text-anchor="start" x="2053.34" y="-86.2" font-family="Arial" font-size="14.00" fill="#666666">[timestamp with time zone]</text>
<polygon fill="none" stroke="black" points="1976.3,-43.2 1976.3,-74 2229.98,-74 2229.98,-43.2 1976.3,-43.2"/>
<text text-anchor="start" x="1983.3" y="-55.4" font-family="Arial" font-size="14.00">updated_at </text>
<text text-anchor="start" x="2057.25" y="-55.4" font-family="Arial" font-size="14.00" fill="#666666">[timestamp with time zone]</text>
</g>
<!-- public.channels&#45;&gt;public.users -->
<g id="edge11" class="edge">
<title>public.channels:created_by&#45;&gt;public.users:id</title>
<path fill="none" stroke="black" d="M2062.35,-526.5C2103,-516.93 2078.23,-447.4 2050.98,-404.4 2031.25,-373.28 1996.06,-399.5 1976.3,-368.4 1953.84,-333.06 1933.43,-274.2 1975.3,-274.2"/>
<polygon fill="black" stroke="black" points="2062.25,-526.51 2051.83,-523.09 2056.95,-527.07 2052.64,-527.53 2052.64,-527.53 2052.64,-527.53 2056.95,-527.07 2052.79,-532.04 2062.25,-526.51"/>
<text text-anchor="start" x="2058.98" y="-537.6" font-family="Arial" font-size="10.00">FOREIGN KEY (created_by) REFERENCES users(id) ON DELETE SET NULL</text>
</g>
<!-- public.dm_participants -->
<g id="node2" class="node">
<title>public.dm_participants</title>
<polygon fill="#efefef" stroke="none" points="74.16,-996.6 74.16,-1032.2 378.11,-1032.2 378.11,-996.6 74.16,-996.6"/>
<polygon fill="none" stroke="black" points="74.16,-996.6 74.16,-1032.2 378.11,-1032.2 378.11,-996.6 74.16,-996.6"/>
<text text-anchor="start" x="81.16" y="-1010" font-family="Arial Bold" font-size="18.00">public.dm_participants</text>
<text text-anchor="start" x="246.62" y="-1010" font-family="Arial" font-size="14.00">    </text>
<text text-anchor="start" x="277.74" y="-1010" font-family="Arial" font-size="14.00" fill="#666666">[BASE TABLE]</text>
<polygon fill="none" stroke="black" points="74.16,-965.8 74.16,-996.6 378.11,-996.6 378.11,-965.8 74.16,-965.8"/>
<text text-anchor="start" x="81.16" y="-978" font-family="Arial" font-size="14.00">channel_id </text>
<text text-anchor="start" x="152.77" y="-978" font-family="Arial" font-size="14.00" fill="#666666">[bigint]</text>
<polygon fill="none" stroke="black" points="74.16,-935 74.16,-965.8 378.11,-965.8 378.11,-935 74.16,-935"/>
<text text-anchor="start" x="81.16" y="-947.2" font-family="Arial" font-size="14.00">user_id </text>
<text text-anchor="start" x="130.97" y="-947.2" font-family="Arial" font-size="14.00" fill="#666666">[bigint]</text>
</g>
<!-- public.dm_participants&#45;&gt;public.channels -->
<g id="edge1" class="edge">
<title>public.dm_participants:channel_id&#45;&gt;public.channels:id</title>
<path fill="none" stroke="black" d="M389.27,-980.52C461.06,-969.98 364.15,-840.42 430.14,-784 546.06,-684.89 1643.78,-650.8 1796.3,-650.8"/>
<polygon fill="black" stroke="black" points="389.42,-980.51 379.14,-976.69 384.1,-980.86 379.78,-981.16 379.78,-981.16 379.78,-981.16 384.1,-980.86 379.75,-985.67 389.42,-980.51"/>
<text text-anchor="start" x="7" y="-991.2" font-family="Arial" font-size="10.00">FOREIGN KEY (channel_id) REFERENCES channels(id) ON DELETE CASCADE</text>
</g>
<!-- public.dm_pairs -->
<g id="node3" class="node">
<title>public.dm_pairs</title>
<polygon fill="#efefef" stroke="none" points="482.65,-1012 482.65,-1047.6 737.62,-1047.6 737.62,-1012 482.65,-1012"/>
<polygon fill="none" stroke="black" points="482.65,-1012 482.65,-1047.6 737.62,-1047.6 737.62,-1012 482.65,-1012"/>
<text text-anchor="start" x="489.65" y="-1025.4" font-family="Arial Bold" font-size="18.00">public.dm_pairs</text>
<text text-anchor="start" x="606.13" y="-1025.4" font-family="Arial" font-size="14.00">    </text>
<text text-anchor="start" x="637.25" y="-1025.4" font-family="Arial" font-size="14.00" fill="#666666">[BASE TABLE]</text>
<polygon fill="none" stroke="black" points="482.65,-981.2 482.65,-1012 737.62,-1012 737.62,-981.2 482.65,-981.2"/>
<text text-anchor="start" x="489.65" y="-993.4" font-family="Arial" font-size="14.00">user_low </text>
<text text-anchor="start" x="549.57" y="-993.4" font-family="Arial" font-size="14.00" fill="#666666">[bigint]</text>
<polygon fill="none" stroke="black" points="482.65,-950.4 482.65,-981.2 737.62,-981.2 737.62,-950.4 482.65,-950.4"/>
<text text-anchor="start" x="489.65" y="-962.6" font-family="Arial" font-size="14.00">user_high </text>
<text text-anchor="start" x="555.03" y="-962.6" font-family="Arial" font-size="14.00" fill="#666666">[bigint]</text>
<polygon fill="none" stroke="black" points="482.65,-919.6 482.65,-950.4 737.62,-950.4 737.62,-919.6 482.65,-919.6"/>
<text text-anchor="start" x="489.65" y="-931.8" font-family="Arial" font-size="14.00">channel_id </text>
<text text-anchor="start" x="561.26" y="-931.8" font-family="Arial" font-size="14.00" fill="#666666">[bigint]</text>
</g>
<!-- public.dm_pairs&#45;&gt;public.channels -->
<g id="edge2" class="edge">
<title>public.dm_pairs:channel_id&#45;&gt;public.channels:id</title>
<path fill="none" stroke="black" d="M749,-934.08C801.8,-923.58 738.3,-826.5 790.14,-784 877.34,-712.49 1683.52,-650.8 1796.3,-650.8"/>
<polygon fill="black" stroke="black" points="748.92,-934.08 738.56,-930.49 743.6,-934.56 739.29,-934.94 739.29,-934.94 739.29,-934.94 743.6,-934.56 739.35,-939.45 748.92,-934.08"/>
<text text-anchor="start" x="366.51" y="-945" font-family="Arial" font-size="10.00">FOREIGN KEY (channel_id) REFERENCES channels(id) ON DELETE CASCADE</text>
</g>
<!-- public.channel_permission_overrides -->
<g id="node4" class="node">
<title>public.channel_permission_overrides</title>
<polygon fill="#efefef" stroke="none" points="842.18,-1027.4 842.18,-1063 1250.1,-1063 1250.1,-1027.4 842.18,-1027.4"/>
<polygon fill="none" stroke="black" points="842.18,-1027.4 842.18,-1063 1250.1,-1063 1250.1,-1027.4 842.18,-1027.4"/>
<text text-anchor="start" x="849.18" y="-1040.8" font-family="Arial Bold" font-size="18.00">public.channel_permission_overrides</text>
<text text-anchor="start" x="1118.61" y="-1040.8" font-family="Arial" font-size="14.00">    </text>
<text text-anchor="start" x="1149.72" y="-1040.8" font-family="Arial" font-size="14.00" fill="#666666">[BASE TABLE]</text>
<polygon fill="none" stroke="black" points="842.18,-996.6 842.18,-1027.4 1250.1,-1027.4 1250.1,-996.6 842.18,-996.6"/>
<text text-anchor="start" x="849.18" y="-1008.8" font-family="Arial" font-size="14.00">channel_id </text>
<text text-anchor="start" x="920.79" y="-1008.8" font-family="Arial" font-size="14.00" fill="#666666">[bigint]</text>
<polygon fill="none" stroke="black" points="842.18,-965.8 842.18,-996.6 1250.1,-996.6 1250.1,-965.8 842.18,-965.8"/>
<text text-anchor="start" x="849.18" y="-978" font-family="Arial" font-size="14.00">level </text>
<text text-anchor="start" x="881.86" y="-978" font-family="Arial" font-size="14.00" fill="#666666">[role_level]</text>
<polygon fill="none" stroke="black" points="842.18,-935 842.18,-965.8 1250.1,-965.8 1250.1,-935 842.18,-935"/>
<text text-anchor="start" x="849.18" y="-947.2" font-family="Arial" font-size="14.00">can_view </text>
<text text-anchor="start" x="911.43" y="-947.2" font-family="Arial" font-size="14.00" fill="#666666">[boolean]</text>
<polygon fill="none" stroke="black" points="842.18,-904.2 842.18,-935 1250.1,-935 1250.1,-904.2 842.18,-904.2"/>
<text text-anchor="start" x="849.18" y="-916.4" font-family="Arial" font-size="14.00">can_post </text>
<text text-anchor="start" x="909.89" y="-916.4" font-family="Arial" font-size="14.00" fill="#666666">[boolean]</text>
</g>
<!-- public.channel_permission_overrides&#45;&gt;public.channels -->
<g id="edge3" class="edge">
<title>public.channel_permission_overrides:channel_id&#45;&gt;public.channels:id</title>
<path fill="none" stroke="black" d="M1261.48,-1011.41C1346.19,-1001.04 1232.9,-856.28 1302.14,-784 1380.81,-701.87 1682.56,-650.8 1796.3,-650.8"/>
<polygon fill="black" stroke="black" points="1261.41,-1011.42 1251.17,-1007.49 1256.09,-1011.72 1251.76,-1011.96 1251.76,-1011.96 1251.76,-1011.96 1256.09,-1011.72 1251.68,-1016.47 1261.41,-1011.42"/>
<text text-anchor="start" x="1258.1" y="-1022" font-family="Arial" font-size="10.00">FOREIGN KEY (channel_id) REFERENCES channels(id) ON DELETE CASCADE</text>
</g>
<!-- public.channel_reads -->
<g id="node5" class="node">
<title>public.channel_reads</title>
<polygon fill="#efefef" stroke="none" points="1354.67,-1042.8 1354.67,-1078.4 1645.6,-1078.4 1645.6,-1042.8 1354.67,-1042.8"/>
<polygon fill="none" stroke="black" points="1354.67,-1042.8 1354.67,-1078.4 1645.6,-1078.4 1645.6,-1042.8 1354.67,-1042.8"/>
<text text-anchor="start" x="1361.67" y="-1056.2" font-family="Arial Bold" font-size="18.00">public.channel_reads</text>
<text text-anchor="start" x="1514.11" y="-1056.2" font-family="Arial" font-size="14.00">    </text>
<text text-anchor="start" x="1545.23" y="-1056.2" font-family="Arial" font-size="14.00" fill="#666666">[BASE TABLE]</text>
<polygon fill="none" stroke="black" points="1354.67,-1012 1354.67,-1042.8 1645.6,-1042.8 1645.6,-1012 1354.67,-1012"/>
<text text-anchor="start" x="1361.67" y="-1024.2" font-family="Arial" font-size="14.00">channel_id </text>
<text text-anchor="start" x="1433.29" y="-1024.2" font-family="Arial" font-size="14.00" fill="#666666">[bigint]</text>
<polygon fill="none" stroke="black" points="1354.67,-981.2 1354.67,-1012 1645.6,-1012 1645.6,-981.2 1354.67,-981.2"/>
<text text-anchor="start" x="1361.67" y="-993.4" font-family="Arial" font-size="14.00">user_id </text>
<text text-anchor="start" x="1411.48" y="-993.4" font-family="Arial" font-size="14.00" fill="#666666">[bigint]</text>
<polygon fill="none" stroke="black" points="1354.67,-950.4 1354.67,-981.2 1645.6,-981.2 1645.6,-950.4 1354.67,-950.4"/>
<text text-anchor="start" x="1361.67" y="-962.6" font-family="Arial" font-size="14.00">last_read_message_id </text>
<text text-anchor="start" x="1506.43" y="-962.6" font-family="Arial" font-size="14.00" fill="#666666">[bigint]</text>
<polygon fill="none" stroke="black" points="1354.67,-919.6 1354.67,-950.4 1645.6,-950.4 1645.6,-919.6 1354.67,-919.6"/>
<text text-anchor="start" x="1361.67" y="-931.8" font-family="Arial" font-size="14.00">last_client_seq </text>
<text text-anchor="start" x="1458.18" y="-931.8" font-family="Arial" font-size="14.00" fill="#666666">[bigint]</text>
<polygon fill="none" stroke="black" points="1354.67,-888.8 1354.67,-919.6 1645.6,-919.6 1645.6,-888.8 1354.67,-888.8"/>
<text text-anchor="start" x="1361.67" y="-901" font-family="Arial" font-size="14.00">updated_at </text>
<text text-anchor="start" x="1435.63" y="-901" font-family="Arial" font-size="14.00" fill="#666666">[timestamp with time zone]</text>
</g>
<!-- public.channel_reads&#45;&gt;public.channels -->
<g id="edge4" class="edge">
<title>public.channel_reads:channel_id&#45;&gt;public.channels:id</title>
<path fill="none" stroke="black" d="M1656.57,-1024.95C1698.6,-1002.4 1677,-831.09 1698.14,-784 1728.25,-716.91 1722.76,-650.8 1796.3,-650.8"/>
<polygon fill="black" stroke="black" points="1656.63,-1024.93 1645.85,-1022.95 1651.45,-1026.2 1647.25,-1027.24 1647.25,-1027.24 1647.25,-1027.24 1651.45,-1026.2 1648,-1031.69 1656.63,-1024.93"/>
<text text-anchor="start" x="1653.6" y="-1037.4" font-family="Arial" font-size="10.00">FOREIGN KEY (channel_id) REFERENCES channels(id) ON DELETE CASCADE</text>
</g>
<!-- public.channel_last_message -->
<g id="node6" class="node">
<title>public.channel_last_message</title>
<polygon fill="#efefef" stroke="none" points="1750.17,-1027.4 1750.17,-1063 2098.1,-1063 2098.1,-1027.4 1750.17,-1027.4"/>
<polygon fill="none" stroke="black" points="1750.17,-1027.4 1750.17,-1063 2098.1,-1063 2098.1,-1027.4 1750.17,-1027.4"/>
<text text-anchor="start" x="1757.17" y="-1040.8" font-family="Arial Bold" font-size="18.00">public.channel_last_message</text>
<text text-anchor="start" x="1966.61" y="-1040.8" font-family="Arial" font-size="14.00">    </text>
<text text-anchor="start" x="1997.73" y="-1040.8" font-family="Arial" font-size="14.00" fill="#666666">[BASE TABLE]</text>
<polygon fill="none" stroke="black" points="1750.17,-996.6 1750.17,-1027.4 2098.1,-1027.4 2098.1,-996.6 1750.17,-996.6"/>
<text text-anchor="start" x="1757.17" y="-1008.8" font-family="Arial" font-size="14.00">channel_id </text>
<text text-anchor="start" x="1828.79" y="-1008.8" font-family="Arial" font-size="14.00" fill="#666666">[bigint]</text>
<polygon fill="none" stroke="black" points="1750.17,-965.8 1750.17,-996.6 2098.1,-996.6 2098.1,-965.8 1750.17,-965.8"/>
<text text-anchor="start" x="1757.17" y="-978" font-family="Arial" font-size="14.00">last_message_id </text>
<text text-anchor="start" x="1866.13" y="-978" font-family="Arial" font-size="14.00" fill="#666666">[bigint]</text>
<polygon fill="none" stroke="black" points="1750.17,-935 1750.17,-965.8 2098.1,-965.8 2098.1,-935 1750.17,-935"/>
<text text-anchor="start" x="1757.17" y="-947.2" font-family="Arial" font-size="14.00">last_message_at </text>
<text text-anchor="start" x="1866.9" y="-947.2" font-family="Arial" font-size="14.00" fill="#666666">[timestamp with time zone]</text>
<polygon fill="none" stroke="black" points="1750.17,-904.2 1750.17,-935 2098.1,-935 2098.1,-904.2 1750.17,-904.2"/>
<text text-anchor="start" x="1757.17" y="-916.4" font-family="Arial" font-size="14.00">updated_at </text>
<text text-anchor="start" x="1831.13" y="-916.4" font-family="Arial" font-size="14.00" fill="#666666">[timestamp with time zone]</text>
</g>
<!-- public.channel_last_message&#45;&gt;public.channels -->
<g id="edge5" class="edge">
<title>public.channel_last_message:channel_id&#45;&gt;public.channels:id</title>
<path fill="none" stroke="black" d="M2109.24,-1009.88C2175.74,-980.28 2129.29,-650.8 2051.98,-650.8"/>
<polygon fill="black" stroke="black" points="2109.21,-1009.88 2098.5,-1007.53 2103.99,-1010.98 2099.75,-1011.86 2099.75,-1011.86 2099.75,-1011.86 2103.99,-1010.98 2100.35,-1016.34 2109.21,-1009.88"/>
<text text-anchor="start" x="2106.1" y="-1022" font-family="Arial" font-size="10.00">FOREIGN KEY (channel_id) REFERENCES channels(id) ON DELETE CASCADE</text>
</g>
<!-- public.channel_role_permission_overrides_v2 -->
<g id="node7" class="node">
<title>public.channel_role_permission_overrides_v2</title>
<polygon fill="#efefef" stroke="none" points="2202.19,-1073.6 2202.19,-1109.2 2674.09,-1109.2 2674.09,-1073.6 2202.19,-1073.6"/>
<polygon fill="none" stroke="black" points="2202.19,-1073.6 2202.19,-1109.2 2674.09,-1109.2 2674.09,-1073.6 2202.19,-1073.6"/>
<text text-anchor="start" x="2209.19" y="-1087" font-family="Arial Bold" font-size="18.00">public.channel_role_permission_overrides_v2</text>
<text text-anchor="start" x="2542.6" y="-1087" font-family="Arial" font-size="14.00">    </text>
<text text-anchor="start" x="2573.72" y="-1087" font-family="Arial" font-size="14.00" fill="#666666">[BASE TABLE]</text>
<polygon fill="none" stroke="black" points="2202.19,-1042.8 2202.19,-1073.6 2674.09,-1073.6 2674.09,-1042.8 2202.19,-1042.8"/>
<text text-anchor="start" x="2209.19" y="-1055" font-family="Arial" font-size="14.00">channel_id </text>
<text text-anchor="start" x="2280.8" y="-1055" font-family="Arial" font-size="14.00" fill="#666666">[bigint]</text>
<polygon fill="none" stroke="black" points="2202.19,-1012 2202.19,-1042.8 2674.09,-1042.8 2674.09,-1012 2202.19,-1012"/>
<text text-anchor="start" x="2209.19" y="-1024.2" font-family="Arial" font-size="14.00">guild_id </text>
<text text-anchor="start" x="2261.34" y="-1024.2" font-family="Arial" font-size="14.00" fill="#666666">[bigint]</text>
<polygon fill="none" stroke="black" points="2202.19,-981.2 2202.19,-1012 2674.09,-1012 2674.09,-981.2 2202.19,-981.2"/>
<text text-anchor="start" x="2209.19" y="-993.4" font-family="Arial" font-size="14.00">role_key </text>
<text text-anchor="start" x="2265.99" y="-993.4" font-family="Arial" font-size="14.00" fill="#666666">[text]</text>
<polygon fill="none" stroke="black" points="2202.19,-950.4 2202.19,-981.2 2674.09,-981.2 2674.09,-950.4 2202.19,-950.4"/>
<text text-anchor="start" x="2209.19" y="-962.6" font-family="Arial" font-size="14.00">can_view </text>
<text text-anchor="start" x="2271.44" y="-962.6" font-family="Arial" font-size="14.00" fill="#666666">[boolean]</text>
<polygon fill="none" stroke="black" points="2202.19,-919.6 2202.19,-950.4 2674.09,-950.4 2674.09,-919.6 2202.19,-919.6"/>
<text text-anchor="start" x="2209.19" y="-931.8" font-family="Arial" font-size="14.00">can_post </text>
<text text-anchor="start" x="2269.9" y="-931.8" font-family="Arial" font-size="14.00" fill="#666666">[boolean]</text>
<polygon fill="none" stroke="black" points="2202.19,-888.8 2202.19,-919.6 2674.09,-919.6 2674.09,-888.8 2202.19,-888.8"/>
<text text-anchor="start" x="2209.19" y="-901" font-family="Arial" font-size="14.00">created_at </text>
<text text-anchor="start" x="2279.23" y="-901" font-family="Arial" font-size="14.00" fill="#666666">[timestamp with time zone]</text>
<polygon fill="none" stroke="black" points="2202.19,-858 2202.19,-888.8 2674.09,-888.8 2674.09,-858 2202.19,-858"/>
<text text-anchor="start" x="2209.19" y="-870.2" font-family="Arial" font-size="14.00">updated_at </text>
<text text-anchor="start" x="2283.14" y="-870.2" font-family="Arial" font-size="14.00" fill="#666666">[timestamp with time zone]</text>
</g>
<!-- public.channel_role_permission_overrides_v2&#45;&gt;public.channels -->
<g id="edge6" class="edge">
<title>public.channel_role_permission_overrides_v2:channel_id&#45;&gt;public.channels:id</title>
<path fill="none" stroke="black" d="M2191.26,-1056.04C2143.17,-1033.28 2173.37,-837.52 2150.14,-784 2120.85,-716.54 2125.52,-650.8 2051.98,-650.8"/>
<polygon fill="black" stroke="black" points="2191.09,-1056 2199.9,-1062.53 2196.3,-1057.14 2200.53,-1058.06 2200.53,-1058.06 2200.53,-1058.06 2196.3,-1057.14 2201.82,-1053.73 2191.09,-1056"/>
<text text-anchor="start" x="2208.19" y="-1068.2" font-family="Arial" font-size="10.00">FOREIGN KEY (channel_id) REFERENCES channels(id) ON DELETE CASCADE</text>
</g>
<!-- public.channel_user_permission_overrides_v2 -->
<g id="node8" class="node">
<title>public.channel_user_permission_overrides_v2</title>
<polygon fill="#efefef" stroke="none" points="2778.18,-1073.6 2778.18,-1109.2 3252.09,-1109.2 3252.09,-1073.6 2778.18,-1073.6"/>
<polygon fill="none" stroke="black" points="2778.18,-1073.6 2778.18,-1109.2 3252.09,-1109.2 3252.09,-1073.6 2778.18,-1073.6"/>
<text text-anchor="start" x="2785.18" y="-1087" font-family="Arial Bold" font-size="18.00">public.channel_user_permission_overrides_v2</text>
<text text-anchor="start" x="3120.6" y="-1087" font-family="Arial" font-size="14.00">    </text>
<text text-anchor="start" x="3151.72" y="-1087" font-family="Arial" font-size="14.00" fill="#666666">[BASE TABLE]</text>
<polygon fill="none" stroke="black" points="2778.18,-1042.8 2778.18,-1073.6 3252.09,-1073.6 3252.09,-1042.8 2778.18,-1042.8"/>
<text text-anchor="start" x="2785.18" y="-1055" font-family="Arial" font-size="14.00">channel_id </text>
<text text-anchor="start" x="2856.8" y="-1055" font-family="Arial" font-size="14.00" fill="#666666">[bigint]</text>
<polygon fill="none" stroke="black" points="2778.18,-1012 2778.18,-1042.8 3252.09,-1042.8 3252.09,-1012 2778.18,-1012"/>
<text text-anchor="start" x="2785.18" y="-1024.2" font-family="Arial" font-size="14.00">guild_id </text>
<text text-anchor="start" x="2837.33" y="-1024.2" font-family="Arial" font-size="14.00" fill="#666666">[bigint]</text>
<polygon fill="none" stroke="black" points="2778.18,-981.2 2778.18,-1012 3252.09,-1012 3252.09,-981.2 2778.18,-981.2"/>
<text text-anchor="start" x="2785.18" y="-993.4" font-family="Arial" font-size="14.00">user_id </text>
<text text-anchor="start" x="2834.99" y="-993.4" font-family="Arial" font-size="14.00" fill="#666666">[bigint]</text>
<polygon fill="none" stroke="black" points="2778.18,-950.4 2778.18,-981.2 3252.09,-981.2 3252.09,-950.4 2778.18,-950.4"/>
<text text-anchor="start" x="2785.18" y="-962.6" font-family="Arial" font-size="14.00">can_view </text>
<text text-anchor="start" x="2847.44" y="-962.6" font-family="Arial" font-size="14.00" fill="#666666">[boolean]</text>
<polygon fill="none" stroke="black" points="2778.18,-919.6 2778.18,-950.4 3252.09,-950.4 3252.09,-919.6 2778.18,-919.6"/>
<text text-anchor="start" x="2785.18" y="-931.8" font-family="Arial" font-size="14.00">can_post </text>
<text text-anchor="start" x="2845.89" y="-931.8" font-family="Arial" font-size="14.00" fill="#666666">[boolean]</text>
<polygon fill="none" stroke="black" points="2778.18,-888.8 2778.18,-919.6 3252.09,-919.6 3252.09,-888.8 2778.18,-888.8"/>
<text text-anchor="start" x="2785.18" y="-901" font-family="Arial" font-size="14.00">created_at </text>
<text text-anchor="start" x="2855.23" y="-901" font-family="Arial" font-size="14.00" fill="#666666">[timestamp with time zone]</text>
<polygon fill="none" stroke="black" points="2778.18,-858 2778.18,-888.8 3252.09,-888.8 3252.09,-858 2778.18,-858"/>
<text text-anchor="start" x="2785.18" y="-870.2" font-family="Arial" font-size="14.00">updated_at </text>
<text text-anchor="start" x="2859.14" y="-870.2" font-family="Arial" font-size="14.00" fill="#666666">[timestamp with time zone]</text>
</g>
<!-- public.channel_user_permission_overrides_v2&#45;&gt;public.channels -->
<g id="edge7" class="edge">
<title>public.channel_user_permission_overrides_v2:channel_id&#45;&gt;public.channels:id</title>
<path fill="none" stroke="black" d="M2767.01,-1057.73C2662.39,-1047.38 2810.75,-869.55 2726.14,-784 2618.75,-675.43 2204.69,-650.8 2051.98,-650.8"/>
<polygon fill="black" stroke="black" points="2766.86,-1057.72 2776.64,-1062.68 2772.19,-1057.97 2776.51,-1058.17 2776.51,-1058.17 2776.51,-1058.17 2772.19,-1057.97 2777.06,-1053.69 2766.86,-1057.72"/>
<text text-anchor="start" x="2499.85" y="-1042.2" font-family="Arial" font-size="10.00">FOREIGN KEY (channel_id) REFERENCES channels(id) ON DELETE CASCADE</text>
</g>
<!-- public.channel_hierarchies_v2 -->
<g id="node9" class="node">
<title>public.channel_hierarchies_v2</title>
<polygon fill="#efefef" stroke="none" points="3356.69,-1104.4 3356.69,-1140 3715.59,-1140 3715.59,-1104.4 3356.69,-1104.4"/>
<polygon fill="none" stroke="black" points="3356.69,-1104.4 3356.69,-1140 3715.59,-1140 3715.59,-1104.4 3356.69,-1104.4"/>
<text text-anchor="start" x="3363.69" y="-1117.8" font-family="Arial Bold" font-size="18.00">public.channel_hierarchies_v2</text>
<text text-anchor="start" x="3584.1" y="-1117.8" font-family="Arial" font-size="14.00">    </text>
<text text-anchor="start" x="3615.21" y="-1117.8" font-family="Arial" font-size="14.00" fill="#666666">[BASE TABLE]</text>
<polygon fill="none" stroke="black" points="3356.69,-1073.6 3356.69,-1104.4 3715.59,-1104.4 3715.59,-1073.6 3356.69,-1073.6"/>
<text text-anchor="start" x="3363.69" y="-1085.8" font-family="Arial" font-size="14.00">child_channel_id </text>
<text text-anchor="start" x="3471.88" y="-1085.8" font-family="Arial" font-size="14.00" fill="#666666">[bigint]</text>
<polygon fill="none" stroke="black" points="3356.69,-1042.8 3356.69,-1073.6 3715.59,-1073.6 3715.59,-1042.8 3356.69,-1042.8"/>
<text text-anchor="start" x="3363.69" y="-1055" font-family="Arial" font-size="14.00">guild_id </text>
<text text-anchor="start" x="3415.84" y="-1055" font-family="Arial" font-size="14.00" fill="#666666">[bigint]</text>
<polygon fill="none" stroke="black" points="3356.69,-1012 3356.69,-1042.8 3715.59,-1042.8 3715.59,-1012 3356.69,-1012"/>
<text text-anchor="start" x="3363.69" y="-1024.2" font-family="Arial" font-size="14.00">parent_channel_id </text>
<text text-anchor="start" x="3482.78" y="-1024.2" font-family="Arial" font-size="14.00" fill="#666666">[bigint]</text>
<polygon fill="none" stroke="black" points="3356.69,-981.2 3356.69,-1012 3715.59,-1012 3715.59,-981.2 3356.69,-981.2"/>
<text text-anchor="start" x="3363.69" y="-993.4" font-family="Arial" font-size="14.00">hierarchy_kind </text>
<text text-anchor="start" x="3458.62" y="-993.4" font-family="Arial" font-size="14.00" fill="#666666">[channel_hierarchy_kind]</text>
<polygon fill="none" stroke="black" points="3356.69,-950.4 3356.69,-981.2 3715.59,-981.2 3715.59,-950.4 3356.69,-950.4"/>
<text text-anchor="start" x="3363.69" y="-962.6" font-family="Arial" font-size="14.00">parent_message_id </text>
<text text-anchor="start" x="3490.55" y="-962.6" font-family="Arial" font-size="14.00" fill="#666666">[bigint]</text>
<polygon fill="none" stroke="black" points="3356.69,-919.6 3356.69,-950.4 3715.59,-950.4 3715.59,-919.6 3356.69,-919.6"/>
<text text-anchor="start" x="3363.69" y="-931.8" font-family="Arial" font-size="14.00">position </text>
<text text-anchor="start" x="3415.83" y="-931.8" font-family="Arial" font-size="14.00" fill="#666666">[integer]</text>
<polygon fill="none" stroke="black" points="3356.69,-888.8 3356.69,-919.6 3715.59,-919.6 3715.59,-888.8 3356.69,-888.8"/>
<text text-anchor="start" x="3363.69" y="-901" font-family="Arial" font-size="14.00">archived_at </text>
<text text-anchor="start" x="3439.95" y="-901" font-family="Arial" font-size="14.00" fill="#666666">[timestamp with time zone]</text>
<polygon fill="none" stroke="black" points="3356.69,-858 3356.69,-888.8 3715.59,-888.8 3715.59,-858 3356.69,-858"/>
<text text-anchor="start" x="3363.69" y="-870.2" font-family="Arial" font-size="14.00">created_at </text>
<text text-anchor="start" x="3433.73" y="-870.2" font-family="Arial" font-size="14.00" fill="#666666">[timestamp with time zone]</text>
<polygon fill="none" stroke="black" points="3356.69,-827.2 3356.69,-858 3715.59,-858 3715.59,-827.2 3356.69,-827.2"/>
<text text-anchor="start" x="3363.69" y="-839.4" font-family="Arial" font-size="14.00">updated_at </text>
<text text-anchor="start" x="3437.64" y="-839.4" font-family="Arial" font-size="14.00" fill="#666666">[timestamp with time zone]</text>
</g>
<!-- public.channel_hierarchies_v2&#45;&gt;public.channels -->
<g id="edge8" class="edge">
<title>public.channel_hierarchies_v2:child_channel_id&#45;&gt;public.channels:id</title>
<path fill="none" stroke="black" d="M3345.59,-1086.76C3293.95,-1061.42 3351.47,-828.51 3304.14,-784 3202.21,-688.15 2191.89,-650.8 2051.98,-650.8"/>
<polygon fill="black" stroke="black" points="3345.6,-1086.76 3354.39,-1093.32 3350.8,-1087.92 3355.03,-1088.86 3355.03,-1088.86 3355.03,-1088.86 3350.8,-1087.92 3356.33,-1084.53 3345.6,-1086.76"/>
<text text-anchor="start" x="3362.69" y="-1099" font-family="Arial" font-size="10.00">FOREIGN KEY (child_channel_id) REFERENCES channels(id) ON DELETE CASCADE</text>
</g>
<!-- public.channel_hierarchies_v2&#45;&gt;public.channels -->
<g id="edge9" class="edge">
<title>public.channel_hierarchies_v2:parent_channel_id&#45;&gt;public.channels:id</title>
<path fill="none" stroke="black" d="M3345.49,-1026.85C3254.23,-1016.26 3383.51,-855.61 3304.14,-784 3200.25,-690.28 2191.89,-650.8 2051.98,-650.8"/>
<polygon fill="black" stroke="black" points="3345.37,-1026.84 3355.11,-1031.88 3350.69,-1027.13 3355.02,-1027.36 3355.02,-1027.36 3355.02,-1027.36 3350.69,-1027.13 3355.59,-1022.89 3345.37,-1026.84"/>
<text text-anchor="start" x="3362.69" y="-1037.4" font-family="Arial" font-size="10.00">FOREIGN KEY (parent_channel_id) REFERENCES channels(id) ON DELETE CASCADE</text>
</g>
</g>
</svg>
