<?xml version="1.0" encoding="UTF-8" standalone="no"?>
<!DOCTYPE svg PUBLIC "-//W3C//DTD SVG 1.1//EN"
 "http://www.w3.org/Graphics/SVG/1.1/DTD/svg11.dtd">
<!-- Generated by graphviz version 12.1.2 (20240928.0832)
 -->
<!-- Title: public.channels Pages: 1 -->
<svg width="3303pt" height="1130pt"
 viewBox="0.00 0.00 3303.29 1129.60" xmlns="http://www.w3.org/2000/svg" xmlns:xlink="http://www.w3.org/1999/xlink">
<g id="graph0" class="graph" transform="scale(1 1) rotate(0) translate(4 1125.6)">
<title>public.channels</title>
<polygon fill="white" stroke="none" points="-4,4 -4,-1125.6 3299.29,-1125.6 3299.29,4 -4,4"/>
<!-- public.channels -->
<g id="node1" class="node">
<title>public.channels</title>
<polygon fill="#efefef" stroke="none" points="1373.3,-666.2 1373.3,-701.8 1626.98,-701.8 1626.98,-666.2 1373.3,-666.2"/>
<polygon fill="none" stroke="black" points="1373.3,-666.2 1373.3,-701.8 1626.98,-701.8 1626.98,-666.2 1373.3,-666.2"/>
<text text-anchor="start" x="1381.66" y="-679.6" font-family="Arial Bold" font-size="18.00">public.channels</text>
<text text-anchor="start" x="1494.12" y="-679.6" font-family="Arial" font-size="14.00">    </text>
<text text-anchor="start" x="1525.24" y="-679.6" font-family="Arial" font-size="14.00" fill="#666666">[BASE TABLE]</text>
<polygon fill="none" stroke="black" points="1373.3,-635.4 1373.3,-666.2 1626.98,-666.2 1626.98,-635.4 1373.3,-635.4"/>
<text text-anchor="start" x="1380.3" y="-647.6" font-family="Arial" font-size="14.00">id </text>
<text text-anchor="start" x="1395.08" y="-647.6" font-family="Arial" font-size="14.00" fill="#666666">[bigint]</text>
<polygon fill="none" stroke="black" points="1373.3,-604.6 1373.3,-635.4 1626.98,-635.4 1626.98,-604.6 1373.3,-604.6"/>
<text text-anchor="start" x="1380.3" y="-616.8" font-family="Arial" font-size="14.00">type </text>
<text text-anchor="start" x="1410.65" y="-616.8" font-family="Arial" font-size="14.00" fill="#666666">[channel_type]</text>
<polygon fill="none" stroke="black" points="1373.3,-573.8 1373.3,-604.6 1626.98,-604.6 1626.98,-573.8 1373.3,-573.8"/>
<text text-anchor="start" x="1380.3" y="-586" font-family="Arial" font-size="14.00">guild_id </text>
<text text-anchor="start" x="1432.45" y="-586" font-family="Arial" font-size="14.00" fill="#666666">[bigint]</text>
<polygon fill="none" stroke="black" points="1373.3,-543 1373.3,-573.8 1626.98,-573.8 1626.98,-543 1373.3,-543"/>
<text text-anchor="start" x="1380.3" y="-555.2" font-family="Arial" font-size="14.00">name </text>
<text text-anchor="start" x="1419.21" y="-555.2" font-family="Arial" font-size="14.00" fill="#666666">[text]</text>
<polygon fill="none" stroke="black" points="1373.3,-512.2 1373.3,-543 1626.98,-543 1626.98,-512.2 1373.3,-512.2"/>
<text text-anchor="start" x="1380.3" y="-524.4" font-family="Arial" font-size="14.00">created_by </text>
<text text-anchor="start" x="1453.45" y="-524.4" font-family="Arial" font-size="14.00" fill="#666666">[bigint]</text>
<polygon fill="none" stroke="black" points="1373.3,-481.4 1373.3,-512.2 1626.98,-512.2 1626.98,-481.4 1373.3,-481.4"/>
<text text-anchor="start" x="1380.3" y="-493.6" font-family="Arial" font-size="14.00">created_at </text>
<text text-anchor="start" x="1450.34" y="-493.6" font-family="Arial" font-size="14.00" fill="#666666">[timestamp with time zone]</text>
<polygon fill="none" stroke="black" points="1373.3,-450.6 1373.3,-481.4 1626.98,-481.4 1626.98,-450.6 1373.3,-450.6"/>
<text text-anchor="start" x="1380.3" y="-462.8" font-family="Arial" font-size="14.00">updated_at </text>
<text text-anchor="start" x="1454.25" y="-462.8" font-family="Arial" font-size="14.00" fill="#666666">[timestamp with time zone]</text>
<polygon fill="none" stroke="black" stroke-width="3" points="1371.8,-449.1 1371.8,-703.3 1628.48,-703.3 1628.48,-449.1 1371.8,-449.1"/>
</g>
<!-- public.guilds -->
<g id="node9" class="node">
<title>public.guilds</title>
<polygon fill="#efefef" stroke="none" points="1194.3,-258.8 1194.3,-294.4 1447.98,-294.4 1447.98,-258.8 1194.3,-258.8"/>
<polygon fill="none" stroke="black" points="1194.3,-258.8 1194.3,-294.4 1447.98,-294.4 1447.98,-258.8 1194.3,-258.8"/>
<text text-anchor="start" x="1212.14" y="-272.2" font-family="Arial Bold" font-size="18.00">public.guilds</text>
<text text-anchor="start" x="1305.64" y="-272.2" font-family="Arial" font-size="14.00">    </text>
<text text-anchor="start" x="1336.76" y="-272.2" font-family="Arial" font-size="14.00" fill="#666666">[BASE TABLE]</text>
<polygon fill="none" stroke="black" points="1194.3,-228 1194.3,-258.8 1447.98,-258.8 1447.98,-228 1194.3,-228"/>
<text text-anchor="start" x="1201.3" y="-240.2" font-family="Arial" font-size="14.00">id </text>
<text text-anchor="start" x="1216.08" y="-240.2" font-family="Arial" font-size="14.00" fill="#666666">[bigint]</text>
<polygon fill="none" stroke="black" points="1194.3,-197.2 1194.3,-228 1447.98,-228 1447.98,-197.2 1194.3,-197.2"/>
<text text-anchor="start" x="1201.3" y="-209.4" font-family="Arial" font-size="14.00">name </text>
<text text-anchor="start" x="1240.21" y="-209.4" font-family="Arial" font-size="14.00" fill="#666666">[text]</text>
<polygon fill="none" stroke="black" points="1194.3,-166.4 1194.3,-197.2 1447.98,-197.2 1447.98,-166.4 1194.3,-166.4"/>
<text text-anchor="start" x="1201.3" y="-178.6" font-family="Arial" font-size="14.00">owner_id </text>
<text text-anchor="start" x="1262" y="-178.6" font-family="Arial" font-size="14.00" fill="#666666">[bigint]</text>
<polygon fill="none" stroke="black" points="1194.3,-135.6 1194.3,-166.4 1447.98,-166.4 1447.98,-135.6 1194.3,-135.6"/>
<text text-anchor="start" x="1201.3" y="-147.8" font-family="Arial" font-size="14.00">icon_key </text>
<text text-anchor="start" x="1260.44" y="-147.8" font-family="Arial" font-size="14.00" fill="#666666">[text]</text>
<polygon fill="none" stroke="black" points="1194.3,-104.8 1194.3,-135.6 1447.98,-135.6 1447.98,-104.8 1194.3,-104.8"/>
<text text-anchor="start" x="1201.3" y="-117" font-family="Arial" font-size="14.00">created_at </text>
<text text-anchor="start" x="1271.34" y="-117" font-family="Arial" font-size="14.00" fill="#666666">[timestamp with time zone]</text>
<polygon fill="none" stroke="black" points="1194.3,-74 1194.3,-104.8 1447.98,-104.8 1447.98,-74 1194.3,-74"/>
<text text-anchor="start" x="1201.3" y="-86.2" font-family="Arial" font-size="14.00">updated_at </text>
<text text-anchor="start" x="1275.25" y="-86.2" font-family="Arial" font-size="14.00" fill="#666666">[timestamp with time zone]</text>
</g>
<!-- public.channels&#45;&gt;public.guilds -->
<g id="edge8" class="edge">
<title>public.channels:guild_id&#45;&gt;public.guilds:id</title>
<path fill="none" stroke="black" d="M1362.22,-589.11C1074.06,-583.89 1441.74,-351.36 1447.98,-337.6 1465.27,-299.47 1490.85,-243.4 1448.98,-243.4"/>
<polygon fill="black" stroke="black" points="1361.96,-589.11 1371.92,-593.7 1367.3,-589.16 1371.63,-589.19 1371.63,-589.19 1371.63,-589.19 1367.3,-589.16 1372,-584.7 1361.96,-589.11"/>
<text text-anchor="start" x="1027.99" y="-599.2" font-family="Arial" font-size="10.00">FOREIGN KEY (guild_id) REFERENCES guilds(id) ON DELETE CASCADE</text>
</g>
<!-- public.users -->
<g id="node10" class="node">
<title>public.users</title>
<polygon fill="#efefef" stroke="none" points="1552.3,-289.6 1552.3,-325.2 1805.98,-325.2 1805.98,-289.6 1552.3,-289.6"/>
<polygon fill="none" stroke="black" points="1552.3,-289.6 1552.3,-325.2 1805.98,-325.2 1805.98,-289.6 1552.3,-289.6"/>
<text text-anchor="start" x="1573.65" y="-303" font-family="Arial Bold" font-size="18.00">public.users</text>
<text text-anchor="start" x="1660.13" y="-303" font-family="Arial" font-size="14.00">    </text>
<text text-anchor="start" x="1691.25" y="-303" font-family="Arial" font-size="14.00" fill="#666666">[BASE TABLE]</text>
<polygon fill="none" stroke="black" points="1552.3,-258.8 1552.3,-289.6 1805.98,-289.6 1805.98,-258.8 1552.3,-258.8"/>
<text text-anchor="start" x="1559.3" y="-271" font-family="Arial" font-size="14.00">id </text>
<text text-anchor="start" x="1574.08" y="-271" font-family="Arial" font-size="14.00" fill="#666666">[bigint]</text>
<polygon fill="none" stroke="black" points="1552.3,-228 1552.3,-258.8 1805.98,-258.8 1805.98,-228 1552.3,-228"/>
<text text-anchor="start" x="1559.3" y="-240.2" font-family="Arial" font-size="14.00">email </text>
<text text-anchor="start" x="1596.64" y="-240.2" font-family="Arial" font-size="14.00" fill="#666666">[text]</text>
<polygon fill="none" stroke="black" points="1552.3,-197.2 1552.3,-228 1805.98,-228 1805.98,-197.2 1552.3,-197.2"/>
<text text-anchor="start" x="1559.3" y="-209.4" font-family="Arial" font-size="14.00">display_name </text>
<text text-anchor="start" x="1649.57" y="-209.4" font-family="Arial" font-size="14.00" fill="#666666">[text]</text>
<polygon fill="none" stroke="black" points="1552.3,-166.4 1552.3,-197.2 1805.98,-197.2 1805.98,-166.4 1552.3,-166.4"/>
<text text-anchor="start" x="1559.3" y="-178.6" font-family="Arial" font-size="14.00">avatar_key </text>
<text text-anchor="start" x="1631.67" y="-178.6" font-family="Arial" font-size="14.00" fill="#666666">[text]</text>
<polygon fill="none" stroke="black" points="1552.3,-135.6 1552.3,-166.4 1805.98,-166.4 1805.98,-135.6 1552.3,-135.6"/>
<text text-anchor="start" x="1559.3" y="-147.8" font-family="Arial" font-size="14.00">status_text </text>
<text text-anchor="start" x="1630.89" y="-147.8" font-family="Arial" font-size="14.00" fill="#666666">[text]</text>
<polygon fill="none" stroke="black" points="1552.3,-104.8 1552.3,-135.6 1805.98,-135.6 1805.98,-104.8 1552.3,-104.8"/>
<text text-anchor="start" x="1559.3" y="-117" font-family="Arial" font-size="14.00">theme </text>
<text text-anchor="start" x="1602.1" y="-117" font-family="Arial" font-size="14.00" fill="#666666">[text]</text>
<polygon fill="none" stroke="black" points="1552.3,-74 1552.3,-104.8 1805.98,-104.8 1805.98,-74 1552.3,-74"/>
<text text-anchor="start" x="1559.3" y="-86.2" font-family="Arial" font-size="14.00">created_at </text>
<text text-anchor="start" x="1629.34" y="-86.2" font-family="Arial" font-size="14.00" fill="#666666">[timestamp with time zone]</text>
<polygon fill="none" stroke="black" points="1552.3,-43.2 1552.3,-74 1805.98,-74 1805.98,-43.2 1552.3,-43.2"/>
<text text-anchor="start" x="1559.3" y="-55.4" font-family="Arial" font-size="14.00">updated_at </text>
<text text-anchor="start" x="1633.25" y="-55.4" font-family="Arial" font-size="14.00" fill="#666666">[timestamp with time zone]</text>
</g>
<!-- public.channels&#45;&gt;public.users -->
<g id="edge9" class="edge">
<title>public.channels:created_by&#45;&gt;public.users:id</title>
<path fill="none" stroke="black" d="M1638.35,-526.5C1679,-516.93 1654.23,-447.4 1626.98,-404.4 1607.25,-373.28 1572.06,-399.5 1552.3,-368.4 1529.84,-333.06 1509.43,-274.2 1551.3,-274.2"/>
<polygon fill="black" stroke="black" points="1638.25,-526.51 1627.83,-523.09 1632.95,-527.07 1628.64,-527.53 1628.64,-527.53 1628.64,-527.53 1632.95,-527.07 1628.79,-532.04 1638.25,-526.51"/>
<text text-anchor="start" x="1634.98" y="-537.6" font-family="Arial" font-size="10.00">FOREIGN KEY (created_by) REFERENCES users(id) ON DELETE SET NULL</text>
</g>
<!-- public.dm_participants -->
<g id="node2" class="node">
<title>public.dm_participants</title>
<polygon fill="#efefef" stroke="none" points="74.16,-965.8 74.16,-1001.4 378.11,-1001.4 378.11,-965.8 74.16,-965.8"/>
<polygon fill="none" stroke="black" points="74.16,-965.8 74.16,-1001.4 378.11,-1001.4 378.11,-965.8 74.16,-965.8"/>
<text text-anchor="start" x="81.16" y="-979.2" font-family="Arial Bold" font-size="18.00">public.dm_participants</text>
<text text-anchor="start" x="246.62" y="-979.2" font-family="Arial" font-size="14.00">    </text>
<text text-anchor="start" x="277.74" y="-979.2" font-family="Arial" font-size="14.00" fill="#666666">[BASE TABLE]</text>
<polygon fill="none" stroke="black" points="74.16,-935 74.16,-965.8 378.11,-965.8 378.11,-935 74.16,-935"/>
<text text-anchor="start" x="81.16" y="-947.2" font-family="Arial" font-size="14.00">channel_id </text>
<text text-anchor="start" x="152.77" y="-947.2" font-family="Arial" font-size="14.00" fill="#666666">[bigint]</text>
<polygon fill="none" stroke="black" points="74.16,-904.2 74.16,-935 378.11,-935 378.11,-904.2 74.16,-904.2"/>
<text text-anchor="start" x="81.16" y="-916.4" font-family="Arial" font-size="14.00">user_id </text>
<text text-anchor="start" x="130.97" y="-916.4" font-family="Arial" font-size="14.00" fill="#666666">[bigint]</text>
</g>
<!-- public.dm_participants&#45;&gt;public.channels -->
<g id="edge1" class="edge">
<title>public.dm_participants:channel_id&#45;&gt;public.channels:id</title>
<path fill="none" stroke="black" d="M389.32,-949.59C448.49,-939.21 374.19,-831.78 430.14,-784 510.53,-715.34 1266.57,-650.8 1372.3,-650.8"/>
<polygon fill="black" stroke="black" points="389.41,-949.58 379.09,-945.89 384.1,-950 379.78,-950.35 379.78,-950.35 379.78,-950.35 384.1,-950 379.8,-954.86 389.41,-949.58"/>
<text text-anchor="start" x="7" y="-960.4" font-family="Arial" font-size="10.00">FOREIGN KEY (channel_id) REFERENCES channels(id) ON DELETE CASCADE</text>
</g>
<!-- public.dm_pairs -->
<g id="node3" class="node">
<title>public.dm_pairs</title>
<polygon fill="#efefef" stroke="none" points="482.65,-981.2 482.65,-1016.8 737.62,-1016.8 737.62,-981.2 482.65,-981.2"/>
<polygon fill="none" stroke="black" points="482.65,-981.2 482.65,-1016.8 737.62,-1016.8 737.62,-981.2 482.65,-981.2"/>
<text text-anchor="start" x="489.65" y="-994.6" font-family="Arial Bold" font-size="18.00">public.dm_pairs</text>
<text text-anchor="start" x="606.13" y="-994.6" font-family="Arial" font-size="14.00">    </text>
<text text-anchor="start" x="637.25" y="-994.6" font-family="Arial" font-size="14.00" fill="#666666">[BASE TABLE]</text>
<polygon fill="none" stroke="black" points="482.65,-950.4 482.65,-981.2 737.62,-981.2 737.62,-950.4 482.65,-950.4"/>
<text text-anchor="start" x="489.65" y="-962.6" font-family="Arial" font-size="14.00">user_low </text>
<text text-anchor="start" x="549.57" y="-962.6" font-family="Arial" font-size="14.00" fill="#666666">[bigint]</text>
<polygon fill="none" stroke="black" points="482.65,-919.6 482.65,-950.4 737.62,-950.4 737.62,-919.6 482.65,-919.6"/>
<text text-anchor="start" x="489.65" y="-931.8" font-family="Arial" font-size="14.00">user_high </text>
<text text-anchor="start" x="555.03" y="-931.8" font-family="Arial" font-size="14.00" fill="#666666">[bigint]</text>
<polygon fill="none" stroke="black" points="482.65,-888.8 482.65,-919.6 737.62,-919.6 737.62,-888.8 482.65,-888.8"/>
<text text-anchor="start" x="489.65" y="-901" font-family="Arial" font-size="14.00">channel_id </text>
<text text-anchor="start" x="561.26" y="-901" font-family="Arial" font-size="14.00" fill="#666666">[bigint]</text>
</g>
<!-- public.dm_pairs&#45;&gt;public.channels -->
<g id="edge2" class="edge">
<title>public.dm_pairs:channel_id&#45;&gt;public.channels:id</title>
<path fill="none" stroke="black" d="M748.81,-903.14C790.36,-893.38 748.47,-818.77 790.14,-784 892.03,-698.97 1239.58,-650.8 1372.3,-650.8"/>
<polygon fill="black" stroke="black" points="748.9,-903.13 738.49,-899.69 743.59,-903.68 739.29,-904.13 739.29,-904.13 739.29,-904.13 743.59,-903.68 739.42,-908.64 748.9,-903.13"/>
<text text-anchor="start" x="745.62" y="-914.2" font-family="Arial" font-size="10.00">FOREIGN KEY (channel_id) REFERENCES channels(id) ON DELETE CASCADE</text>
</g>
<!-- public.channel_permission_overrides -->
<g id="node4" class="node">
<title>public.channel_permission_overrides</title>
<polygon fill="#efefef" stroke="none" points="842.18,-996.6 842.18,-1032.2 1250.1,-1032.2 1250.1,-996.6 842.18,-996.6"/>
<polygon fill="none" stroke="black" points="842.18,-996.6 842.18,-1032.2 1250.1,-1032.2 1250.1,-996.6 842.18,-996.6"/>
<text text-anchor="start" x="849.18" y="-1010" font-family="Arial Bold" font-size="18.00">public.channel_permission_overrides</text>
<text text-anchor="start" x="1118.61" y="-1010" font-family="Arial" font-size="14.00">    </text>
<text text-anchor="start" x="1149.72" y="-1010" font-family="Arial" font-size="14.00" fill="#666666">[BASE TABLE]</text>
<polygon fill="none" stroke="black" points="842.18,-965.8 842.18,-996.6 1250.1,-996.6 1250.1,-965.8 842.18,-965.8"/>
<text text-anchor="start" x="849.18" y="-978" font-family="Arial" font-size="14.00">channel_id </text>
<text text-anchor="start" x="920.79" y="-978" font-family="Arial" font-size="14.00" fill="#666666">[bigint]</text>
<polygon fill="none" stroke="black" points="842.18,-935 842.18,-965.8 1250.1,-965.8 1250.1,-935 842.18,-935"/>
<text text-anchor="start" x="849.18" y="-947.2" font-family="Arial" font-size="14.00">level </text>
<text text-anchor="start" x="881.86" y="-947.2" font-family="Arial" font-size="14.00" fill="#666666">[role_level]</text>
<polygon fill="none" stroke="black" points="842.18,-904.2 842.18,-935 1250.1,-935 1250.1,-904.2 842.18,-904.2"/>
<text text-anchor="start" x="849.18" y="-916.4" font-family="Arial" font-size="14.00">can_view </text>
<text text-anchor="start" x="911.43" y="-916.4" font-family="Arial" font-size="14.00" fill="#666666">[boolean]</text>
<polygon fill="none" stroke="black" points="842.18,-873.4 842.18,-904.2 1250.1,-904.2 1250.1,-873.4 842.18,-873.4"/>
<text text-anchor="start" x="849.18" y="-885.6" font-family="Arial" font-size="14.00">can_post </text>
<text text-anchor="start" x="909.89" y="-885.6" font-family="Arial" font-size="14.00" fill="#666666">[boolean]</text>
</g>
<!-- public.channel_permission_overrides&#45;&gt;public.channels -->
<g id="edge3" class="edge">
<title>public.channel_permission_overrides:channel_id&#45;&gt;public.channels:id</title>
<path fill="none" stroke="black" d="M1261.43,-980.64C1335.89,-972 1270.82,-864.97 1302.14,-784 1326.27,-721.59 1305.39,-650.8 1372.3,-650.8"/>
<polygon fill="black" stroke="black" points="1261.41,-980.64 1251.19,-976.69 1256.09,-980.93 1251.76,-981.16 1251.76,-981.16 1251.76,-981.16 1256.09,-980.93 1251.67,-985.68 1261.41,-980.64"/>
<text text-anchor="start" x="1258.1" y="-991.2" font-family="Arial" font-size="10.00">FOREIGN KEY (channel_id) REFERENCES channels(id) ON DELETE CASCADE</text>
</g>
<!-- public.channel_reads -->
<g id="node5" class="node">
<title>public.channel_reads</title>
<polygon fill="#efefef" stroke="none" points="1354.67,-1012 1354.67,-1047.6 1645.6,-1047.6 1645.6,-1012 1354.67,-1012"/>
<polygon fill="none" stroke="black" points="1354.67,-1012 1354.67,-1047.6 1645.6,-1047.6 1645.6,-1012 1354.67,-1012"/>
<text text-anchor="start" x="1361.67" y="-1025.4" font-family="Arial Bold" font-size="18.00">public.channel_reads</text>
<text text-anchor="start" x="1514.11" y="-1025.4" font-family="Arial" font-size="14.00">    </text>
<text text-anchor="start" x="1545.23" y="-1025.4" font-family="Arial" font-size="14.00" fill="#666666">[BASE TABLE]</text>
<polygon fill="none" stroke="black" points="1354.67,-981.2 1354.67,-1012 1645.6,-1012 1645.6,-981.2 1354.67,-981.2"/>
<text text-anchor="start" x="1361.67" y="-993.4" font-family="Arial" font-size="14.00">channel_id </text>
<text text-anchor="start" x="1433.29" y="-993.4" font-family="Arial" font-size="14.00" fill="#666666">[bigint]</text>
<polygon fill="none" stroke="black" points="1354.67,-950.4 1354.67,-981.2 1645.6,-981.2 1645.6,-950.4 1354.67,-950.4"/>
<text text-anchor="start" x="1361.67" y="-962.6" font-family="Arial" font-size="14.00">user_id </text>
<text text-anchor="start" x="1411.48" y="-962.6" font-family="Arial" font-size="14.00" fill="#666666">[bigint]</text>
<polygon fill="none" stroke="black" points="1354.67,-919.6 1354.67,-950.4 1645.6,-950.4 1645.6,-919.6 1354.67,-919.6"/>
<text text-anchor="start" x="1361.67" y="-931.8" font-family="Arial" font-size="14.00">last_read_message_id </text>
<text text-anchor="start" x="1506.43" y="-931.8" font-family="Arial" font-size="14.00" fill="#666666">[bigint]</text>
<polygon fill="none" stroke="black" points="1354.67,-888.8 1354.67,-919.6 1645.6,-919.6 1645.6,-888.8 1354.67,-888.8"/>
<text text-anchor="start" x="1361.67" y="-901" font-family="Arial" font-size="14.00">last_client_seq </text>
<text text-anchor="start" x="1458.18" y="-901" font-family="Arial" font-size="14.00" fill="#666666">[bigint]</text>
<polygon fill="none" stroke="black" points="1354.67,-858 1354.67,-888.8 1645.6,-888.8 1645.6,-858 1354.67,-858"/>
<text text-anchor="start" x="1361.67" y="-870.2" font-family="Arial" font-size="14.00">updated_at </text>
<text text-anchor="start" x="1435.63" y="-870.2" font-family="Arial" font-size="14.00" fill="#666666">[timestamp with time zone]</text>
</g>
<!-- public.channel_reads&#45;&gt;public.channels -->
<g id="edge4" class="edge">
<title>public.channel_reads:channel_id&#45;&gt;public.channels:id</title>
<path fill="none" stroke="black" d="M1656.8,-994.39C1721.68,-964.94 1701.33,-650.8 1627.98,-650.8"/>
<polygon fill="black" stroke="black" points="1656.7,-994.41 1645.97,-992.13 1651.49,-995.54 1647.25,-996.46 1647.25,-996.46 1647.25,-996.46 1651.49,-995.54 1647.88,-1000.93 1656.7,-994.41"/>
<text text-anchor="start" x="1653.6" y="-1006.6" font-family="Arial" font-size="10.00">FOREIGN KEY (channel_id) REFERENCES channels(id) ON DELETE CASCADE</text>
</g>
<!-- public.channel_last_message -->
<g id="node6" class="node">
<title>public.channel_last_message</title>
<polygon fill="#efefef" stroke="none" points="1750.17,-996.6 1750.17,-1032.2 2098.1,-1032.2 2098.1,-996.6 1750.17,-996.6"/>
<polygon fill="none" stroke="black" points="1750.17,-996.6 1750.17,-1032.2 2098.1,-1032.2 2098.1,-996.6 1750.17,-996.6"/>
<text text-anchor="start" x="1757.17" y="-1010" font-family="Arial Bold" font-size="18.00">public.channel_last_message</text>
<text text-anchor="start" x="1966.61" y="-1010" font-family="Arial" font-size="14.00">    </text>
<text text-anchor="start" x="1997.73" y="-1010" font-family="Arial" font-size="14.00" fill="#666666">[BASE TABLE]</text>
<polygon fill="none" stroke="black" points="1750.17,-965.8 1750.17,-996.6 2098.1,-996.6 2098.1,-965.8 1750.17,-965.8"/>
<text text-anchor="start" x="1757.17" y="-978" font-family="Arial" font-size="14.00">channel_id </text>
<text text-anchor="start" x="1828.79" y="-978" font-family="Arial" font-size="14.00" fill="#666666">[bigint]</text>
<polygon fill="none" stroke="black" points="1750.17,-935 1750.17,-965.8 2098.1,-965.8 2098.1,-935 1750.17,-935"/>
<text text-anchor="start" x="1757.17" y="-947.2" font-family="Arial" font-size="14.00">last_message_id </text>
<text text-anchor="start" x="1866.13" y="-947.2" font-family="Arial" font-size="14.00" fill="#666666">[bigint]</text>
<polygon fill="none" stroke="black" points="1750.17,-904.2 1750.17,-935 2098.1,-935 2098.1,-904.2 1750.17,-904.2"/>
<text text-anchor="start" x="1757.17" y="-916.4" font-family="Arial" font-size="14.00">last_message_at </text>
<text text-anchor="start" x="1866.9" y="-916.4" font-family="Arial" font-size="14.00" fill="#666666">[timestamp with time zone]</text>
<polygon fill="none" stroke="black" points="1750.17,-873.4 1750.17,-904.2 2098.1,-904.2 2098.1,-873.4 1750.17,-873.4"/>
<text text-anchor="start" x="1757.17" y="-885.6" font-family="Arial" font-size="14.00">updated_at </text>
<text text-anchor="start" x="1831.13" y="-885.6" font-family="Arial" font-size="14.00" fill="#666666">[timestamp with time zone]</text>
</g>
<!-- public.channel_last_message&#45;&gt;public.channels -->
<g id="edge5" class="edge">
<title>public.channel_last_message:channel_id&#45;&gt;public.channels:id</title>
<path fill="none" stroke="black" d="M1738.84,-980.64C1664.38,-972 1729.45,-864.97 1698.14,-784 1674,-721.59 1694.89,-650.8 1627.98,-650.8"/>
<polygon fill="black" stroke="black" points="1738.85,-980.64 1748.6,-985.68 1744.18,-980.93 1748.51,-981.16 1748.51,-981.16 1748.51,-981.16 1744.18,-980.93 1749.08,-976.69 1738.85,-980.64"/>
<text text-anchor="start" x="1756.17" y="-965.2" font-family="Arial" font-size="10.00">FOREIGN KEY (channel_id) REFERENCES channels(id) ON DELETE CASCADE</text>
</g>
<!-- public.channel_role_permission_overrides_v2 -->
<g id="node7" class="node">
<title>public.channel_role_permission_overrides_v2</title>
<polygon fill="#efefef" stroke="none" points="2202.19,-1042.8 2202.19,-1078.4 2674.09,-1078.4 2674.09,-1042.8 2202.19,-1042.8"/>
<polygon fill="none" stroke="black" points="2202.19,-1042.8 2202.19,-1078.4 2674.09,-1078.4 2674.09,-1042.8 2202.19,-1042.8"/>
<text text-anchor="start" x="2209.19" y="-1056.2" font-family="Arial Bold" font-size="18.00">public.channel_role_permission_overrides_v2</text>
<text text-anchor="start" x="2542.6" y="-1056.2" font-family="Arial" font-size="14.00">    </text>
<text text-anchor="start" x="2573.72" y="-1056.2" font-family="Arial" font-size="14.00" fill="#666666">[BASE TABLE]</text>
<polygon fill="none" stroke="black" points="2202.19,-1012 2202.19,-1042.8 2674.09,-1042.8 2674.09,-1012 2202.19,-1012"/>
<text text-anchor="start" x="2209.19" y="-1024.2" font-family="Arial" font-size="14.00">channel_id </text>
<text text-anchor="start" x="2280.8" y="-1024.2" font-family="Arial" font-size="14.00" fill="#666666">[bigint]</text>
<polygon fill="none" stroke="black" points="2202.19,-981.2 2202.19,-1012 2674.09,-1012 2674.09,-981.2 2202.19,-981.2"/>
<text text-anchor="start" x="2209.19" y="-993.4" font-family="Arial" font-size="14.00">guild_id </text>
<text text-anchor="start" x="2261.34" y="-993.4" font-family="Arial" font-size="14.00" fill="#666666">[bigint]</text>
<polygon fill="none" stroke="black" points="2202.19,-950.4 2202.19,-981.2 2674.09,-981.2 2674.09,-950.4 2202.19,-950.4"/>
<text text-anchor="start" x="2209.19" y="-962.6" font-family="Arial" font-size="14.00">role_key </text>
<text text-anchor="start" x="2265.99" y="-962.6" font-family="Arial" font-size="14.00" fill="#666666">[text]</text>
<polygon fill="none" stroke="black" points="2202.19,-919.6 2202.19,-950.4 2674.09,-950.4 2674.09,-919.6 2202.19,-919.6"/>
<text text-anchor="start" x="2209.19" y="-931.8" font-family="Arial" font-size="14.00">can_view </text>
<text text-anchor="start" x="2271.44" y="-931.8" font-family="Arial" font-size="14.00" fill="#666666">[boolean]</text>
<polygon fill="none" stroke="black" points="2202.19,-888.8 2202.19,-919.6 2674.09,-919.6 2674.09,-888.8 2202.19,-888.8"/>
<text text-anchor="start" x="2209.19" y="-901" font-family="Arial" font-size="14.00">can_post </text>
<text text-anchor="start" x="2269.9" y="-901" font-family="Arial" font-size="14.00" fill="#666666">[boolean]</text>
<polygon fill="none" stroke="black" points="2202.19,-858 2202.19,-888.8 2674.09,-888.8 2674.09,-858 2202.19,-858"/>
<text text-anchor="start" x="2209.19" y="-870.2" font-family="Arial" font-size="14.00">created_at </text>
<text text-anchor="start" x="2279.23" y="-870.2" font-family="Arial" font-size="14.00" fill="#666666">[timestamp with time zone]</text>
<polygon fill="none" stroke="black" points="2202.19,-827.2 2202.19,-858 2674.09,-858 2674.09,-827.2 2202.19,-827.2"/>
<text text-anchor="start" x="2209.19" y="-839.4" font-family="Arial" font-size="14.00">updated_at </text>
<text text-anchor="start" x="2283.14" y="-839.4" font-family="Arial" font-size="14.00" fill="#666666">[timestamp with time zone]</text>
</g>
<!-- public.channel_role_permission_overrides_v2&#45;&gt;public.channels -->
<g id="edge6" class="edge">
<title>public.channel_role_permission_overrides_v2:channel_id&#45;&gt;public.channels:id</title>
<path fill="none" stroke="black" d="M2190.97,-1026.87C2099.45,-1016.63 2224.06,-861.17 2150.14,-784 2067.3,-697.52 1747.73,-650.8 1627.98,-650.8"/>
<polygon fill="black" stroke="black" points="2190.86,-1026.86 2200.62,-1031.88 2196.19,-1027.14 2200.52,-1027.37 2200.52,-1027.37 2200.52,-1027.37 2196.19,-1027.14 2201.09,-1022.89 2190.86,-1026.86"/>
<text text-anchor="start" x="2208.19" y="-1037.4" font-family="Arial" font-size="10.00">FOREIGN KEY (channel_id) REFERENCES channels(id) ON DELETE CASCADE</text>
</g>
<!-- public.channel_user_permission_overrides_v2 -->
<g id="node8" class="node">
<title>public.channel_user_permission_overrides_v2</title>
<polygon fill="#efefef" stroke="none" points="2778.18,-1042.8 2778.18,-1078.4 3252.09,-1078.4 3252.09,-1042.8 2778.18,-1042.8"/>
<polygon fill="none" stroke="black" points="2778.18,-1042.8 2778.18,-1078.4 3252.09,-1078.4 3252.09,-1042.8 2778.18,-1042.8"/>
<text text-anchor="start" x="2785.18" y="-1056.2" font-family="Arial Bold" font-size="18.00">public.channel_user_permission_overrides_v2</text>
<text text-anchor="start" x="3120.6" y="-1056.2" font-family="Arial" font-size="14.00">    </text>
<text text-anchor="start" x="3151.72" y="-1056.2" font-family="Arial" font-size="14.00" fill="#666666">[BASE TABLE]</text>
<polygon fill="none" stroke="black" points="2778.18,-1012 2778.18,-1042.8 3252.09,-1042.8 3252.09,-1012 2778.18,-1012"/>
<text text-anchor="start" x="2785.18" y="-1024.2" font-family="Arial" font-size="14.00">channel_id </text>
<text text-anchor="start" x="2856.8" y="-1024.2" font-family="Arial" font-size="14.00" fill="#666666">[bigint]</text>
<polygon fill="none" stroke="black" points="2778.18,-981.2 2778.18,-1012 3252.09,-1012 3252.09,-981.2 2778.18,-981.2"/>
<text text-anchor="start" x="2785.18" y="-993.4" font-family="Arial" font-size="14.00">guild_id </text>
<text text-anchor="start" x="2837.33" y="-993.4" font-family="Arial" font-size="14.00" fill="#666666">[bigint]</text>
<polygon fill="none" stroke="black" points="2778.18,-950.4 2778.18,-981.2 3252.09,-981.2 3252.09,-950.4 2778.18,-950.4"/>
<text text-anchor="start" x="2785.18" y="-962.6" font-family="Arial" font-size="14.00">user_id </text>
<text text-anchor="start" x="2834.99" y="-962.6" font-family="Arial" font-size="14.00" fill="#666666">[bigint]</text>
<polygon fill="none" stroke="black" points="2778.18,-919.6 2778.18,-950.4 3252.09,-950.4 3252.09,-919.6 2778.18,-919.6"/>
<text text-anchor="start" x="2785.18" y="-931.8" font-family="Arial" font-size="14.00">can_view </text>
<text text-anchor="start" x="2847.44" y="-931.8" font-family="Arial" font-size="14.00" fill="#666666">[boolean]</text>
<polygon fill="none" stroke="black" points="2778.18,-888.8 2778.18,-919.6 3252.09,-919.6 3252.09,-888.8 2778.18,-888.8"/>
<text text-anchor="start" x="2785.18" y="-901" font-family="Arial" font-size="14.00">can_post </text>
<text text-anchor="start" x="2845.89" y="-901" font-family="Arial" font-size="14.00" fill="#666666">[boolean]</text>
<polygon fill="none" stroke="black" points="2778.18,-858 2778.18,-888.8 3252.09,-888.8 3252.09,-858 2778.18,-858"/>
<text text-anchor="start" x="2785.18" y="-870.2" font-family="Arial" font-size="14.00">created_at </text>
<text text-anchor="start" x="2855.23" y="-870.2" font-family="Arial" font-size="14.00" fill="#666666">[timestamp with time zone]</text>
<polygon fill="none" stroke="black" points="2778.18,-827.2 2778.18,-858 3252.09,-858 3252.09,-827.2 2778.18,-827.2"/>
<text text-anchor="start" x="2785.18" y="-839.4" font-family="Arial" font-size="14.00">updated_at </text>
<text text-anchor="start" x="2859.14" y="-839.4" font-family="Arial" font-size="14.00" fill="#666666">[timestamp with time zone]</text>
</g>
<!-- public.channel_user_permission_overrides_v2&#45;&gt;public.channels -->
<g id="edge7" class="edge">
<title>public.channel_user_permission_overrides_v2:channel_id&#45;&gt;public.channels:id</title>
<path fill="none" stroke="black" d="M2766.99,-1026.85C2675.77,-1016.3 2804.88,-856.24 2726.14,-784 2635.57,-700.91 1750.89,-650.8 1627.98,-650.8"/>
<polygon fill="black" stroke="black" points="2766.86,-1026.84 2776.61,-1031.88 2772.19,-1027.13 2776.52,-1027.36 2776.52,-1027.36 2776.52,-1027.36 2772.19,-1027.13 2777.09,-1022.89 2766.86,-1026.84"/>
<text text-anchor="start" x="2499.85" y="-1011.4" font-family="Arial" font-size="10.00">FOREIGN KEY (channel_id) REFERENCES channels(id) ON DELETE CASCADE</text>
</g>
</g>
</svg>
