<?xml version="1.0" encoding="UTF-8" standalone="no"?>
<!DOCTYPE svg PUBLIC "-//W3C//DTD SVG 1.1//EN"
 "http://www.w3.org/Graphics/SVG/1.1/DTD/svg11.dtd">
<!-- Generated by graphviz version 12.1.2 (20240928.0832)
 -->
<!-- Title: public.users Pages: 1 -->
<svg width="3853pt" height="818pt"
 viewBox="0.00 0.00 3853.33 817.60" xmlns="http://www.w3.org/2000/svg" xmlns:xlink="http://www.w3.org/1999/xlink">
<g id="graph0" class="graph" transform="scale(1 1) rotate(0) translate(4 813.6)">
<title>public.users</title>
<polygon fill="white" stroke="none" points="-4,4 -4,-813.6 3849.33,-813.6 3849.33,4 -4,4"/>
<!-- public.users -->
<g id="node1" class="node">
<title>public.users</title>
<polygon fill="#efefef" stroke="none" points="1975.72,-292.6 1975.72,-328.2 2229.4,-328.2 2229.4,-292.6 1975.72,-292.6"/>
<polygon fill="none" stroke="black" points="1975.72,-292.6 1975.72,-328.2 2229.4,-328.2 2229.4,-292.6 1975.72,-292.6"/>
<text text-anchor="start" x="1997.07" y="-306" font-family="Arial Bold" font-size="18.00">public.users</text>
<text text-anchor="start" x="2083.56" y="-306" font-family="Arial" font-size="14.00">    </text>
<text text-anchor="start" x="2114.67" y="-306" font-family="Arial" font-size="14.00" fill="#666666">[BASE TABLE]</text>
<polygon fill="none" stroke="black" points="1975.72,-261.8 1975.72,-292.6 2229.4,-292.6 2229.4,-261.8 1975.72,-261.8"/>
<text text-anchor="start" x="1982.72" y="-274" font-family="Arial" font-size="14.00">id </text>
<text text-anchor="start" x="1997.5" y="-274" font-family="Arial" font-size="14.00" fill="#666666">[bigint]</text>
<polygon fill="none" stroke="black" points="1975.72,-231 1975.72,-261.8 2229.4,-261.8 2229.4,-231 1975.72,-231"/>
<text text-anchor="start" x="1982.72" y="-243.2" font-family="Arial" font-size="14.00">email </text>
<text text-anchor="start" x="2020.06" y="-243.2" font-family="Arial" font-size="14.00" fill="#666666">[text]</text>
<polygon fill="none" stroke="black" points="1975.72,-200.2 1975.72,-231 2229.4,-231 2229.4,-200.2 1975.72,-200.2"/>
<text text-anchor="start" x="1982.72" y="-212.4" font-family="Arial" font-size="14.00">display_name </text>
<text text-anchor="start" x="2072.99" y="-212.4" font-family="Arial" font-size="14.00" fill="#666666">[text]</text>
<polygon fill="none" stroke="black" points="1975.72,-169.4 1975.72,-200.2 2229.4,-200.2 2229.4,-169.4 1975.72,-169.4"/>
<text text-anchor="start" x="1982.72" y="-181.6" font-family="Arial" font-size="14.00">avatar_key </text>
<text text-anchor="start" x="2055.09" y="-181.6" font-family="Arial" font-size="14.00" fill="#666666">[text]</text>
<polygon fill="none" stroke="black" points="1975.72,-138.6 1975.72,-169.4 2229.4,-169.4 2229.4,-138.6 1975.72,-138.6"/>
<text text-anchor="start" x="1982.72" y="-150.8" font-family="Arial" font-size="14.00">status_text </text>
<text text-anchor="start" x="2054.31" y="-150.8" font-family="Arial" font-size="14.00" fill="#666666">[text]</text>
<polygon fill="none" stroke="black" points="1975.72,-107.8 1975.72,-138.6 2229.4,-138.6 2229.4,-107.8 1975.72,-107.8"/>
<text text-anchor="start" x="1982.72" y="-120" font-family="Arial" font-size="14.00">theme </text>
<text text-anchor="start" x="2025.52" y="-120" font-family="Arial" font-size="14.00" fill="#666666">[text]</text>
<polygon fill="none" stroke="black" points="1975.72,-77 1975.72,-107.8 2229.4,-107.8 2229.4,-77 1975.72,-77"/>
<text text-anchor="start" x="1982.72" y="-89.2" font-family="Arial" font-size="14.00">created_at </text>
<text text-anchor="start" x="2052.76" y="-89.2" font-family="Arial" font-size="14.00" fill="#666666">[timestamp with time zone]</text>
<polygon fill="none" stroke="black" points="1975.72,-46.2 1975.72,-77 2229.4,-77 2229.4,-46.2 1975.72,-46.2"/>
<text text-anchor="start" x="1982.72" y="-58.4" font-family="Arial" font-size="14.00">updated_at </text>
<text text-anchor="start" x="2056.67" y="-58.4" font-family="Arial" font-size="14.00" fill="#666666">[timestamp with time zone]</text>
<polygon fill="none" stroke="black" stroke-width="3" points="1974.22,-44.7 1974.22,-329.7 2230.9,-329.7 2230.9,-44.7 1974.22,-44.7"/>
</g>
<!-- public.guilds -->
<g id="node2" class="node">
<title>public.guilds</title>
<polygon fill="#efefef" stroke="none" points="102.72,-684.6 102.72,-720.2 356.4,-720.2 356.4,-684.6 102.72,-684.6"/>
<polygon fill="none" stroke="black" points="102.72,-684.6 102.72,-720.2 356.4,-720.2 356.4,-684.6 102.72,-684.6"/>
<text text-anchor="start" x="120.56" y="-698" font-family="Arial Bold" font-size="18.00">public.guilds</text>
<text text-anchor="start" x="214.06" y="-698" font-family="Arial" font-size="14.00">    </text>
<text text-anchor="start" x="245.18" y="-698" font-family="Arial" font-size="14.00" fill="#666666">[BASE TABLE]</text>
<polygon fill="none" stroke="black" points="102.72,-653.8 102.72,-684.6 356.4,-684.6 356.4,-653.8 102.72,-653.8"/>
<text text-anchor="start" x="109.72" y="-666" font-family="Arial" font-size="14.00">id </text>
<text text-anchor="start" x="124.5" y="-666" font-family="Arial" font-size="14.00" fill="#666666">[bigint]</text>
<polygon fill="none" stroke="black" points="102.72,-623 102.72,-653.8 356.4,-653.8 356.4,-623 102.72,-623"/>
<text text-anchor="start" x="109.72" y="-635.2" font-family="Arial" font-size="14.00">name </text>
<text text-anchor="start" x="148.63" y="-635.2" font-family="Arial" font-size="14.00" fill="#666666">[text]</text>
<polygon fill="none" stroke="black" points="102.72,-592.2 102.72,-623 356.4,-623 356.4,-592.2 102.72,-592.2"/>
<text text-anchor="start" x="109.72" y="-604.4" font-family="Arial" font-size="14.00">owner_id </text>
<text text-anchor="start" x="170.42" y="-604.4" font-family="Arial" font-size="14.00" fill="#666666">[bigint]</text>
<polygon fill="none" stroke="black" points="102.72,-561.4 102.72,-592.2 356.4,-592.2 356.4,-561.4 102.72,-561.4"/>
<text text-anchor="start" x="109.72" y="-573.6" font-family="Arial" font-size="14.00">icon_key </text>
<text text-anchor="start" x="168.86" y="-573.6" font-family="Arial" font-size="14.00" fill="#666666">[text]</text>
<polygon fill="none" stroke="black" points="102.72,-530.6 102.72,-561.4 356.4,-561.4 356.4,-530.6 102.72,-530.6"/>
<text text-anchor="start" x="109.72" y="-542.8" font-family="Arial" font-size="14.00">created_at </text>
<text text-anchor="start" x="179.76" y="-542.8" font-family="Arial" font-size="14.00" fill="#666666">[timestamp with time zone]</text>
<polygon fill="none" stroke="black" points="102.72,-499.8 102.72,-530.6 356.4,-530.6 356.4,-499.8 102.72,-499.8"/>
<text text-anchor="start" x="109.72" y="-512" font-family="Arial" font-size="14.00">updated_at </text>
<text text-anchor="start" x="183.67" y="-512" font-family="Arial" font-size="14.00" fill="#666666">[timestamp with time zone]</text>
</g>
<!-- public.guilds&#45;&gt;public.users -->
<g id="edge1" class="edge">
<title>public.guilds:owner_id&#45;&gt;public.users:id</title>
<path fill="none" stroke="black" d="M367.56,-606.91C439.34,-596.35 342.2,-466.4 408.56,-410.4 542.03,-297.77 1800.07,-277.2 1974.72,-277.2"/>
<polygon fill="black" stroke="black" points="367.71,-606.9 357.43,-603.09 362.39,-607.26 358.07,-607.55 358.07,-607.55 358.07,-607.55 362.39,-607.26 358.04,-612.07 367.71,-606.9"/>
<text text-anchor="start" x="7" y="-617.6" font-family="Arial" font-size="10.00">FOREIGN KEY (owner_id) REFERENCES users(id) ON DELETE RESTRICT</text>
</g>
<!-- public.guild_members -->
<g id="node3" class="node">
<title>public.guild_members</title>
<polygon fill="#efefef" stroke="none" points="460.58,-653.8 460.58,-689.4 760.54,-689.4 760.54,-653.8 460.58,-653.8"/>
<polygon fill="none" stroke="black" points="460.58,-653.8 460.58,-689.4 760.54,-689.4 760.54,-653.8 460.58,-653.8"/>
<text text-anchor="start" x="467.58" y="-667.2" font-family="Arial Bold" font-size="18.00">public.guild_members</text>
<text text-anchor="start" x="629.05" y="-667.2" font-family="Arial" font-size="14.00">    </text>
<text text-anchor="start" x="660.17" y="-667.2" font-family="Arial" font-size="14.00" fill="#666666">[BASE TABLE]</text>
<polygon fill="none" stroke="black" points="460.58,-623 460.58,-653.8 760.54,-653.8 760.54,-623 460.58,-623"/>
<text text-anchor="start" x="467.58" y="-635.2" font-family="Arial" font-size="14.00">guild_id </text>
<text text-anchor="start" x="519.73" y="-635.2" font-family="Arial" font-size="14.00" fill="#666666">[bigint]</text>
<polygon fill="none" stroke="black" points="460.58,-592.2 460.58,-623 760.54,-623 760.54,-592.2 460.58,-592.2"/>
<text text-anchor="start" x="467.58" y="-604.4" font-family="Arial" font-size="14.00">user_id </text>
<text text-anchor="start" x="517.38" y="-604.4" font-family="Arial" font-size="14.00" fill="#666666">[bigint]</text>
<polygon fill="none" stroke="black" points="460.58,-561.4 460.58,-592.2 760.54,-592.2 760.54,-561.4 460.58,-561.4"/>
<text text-anchor="start" x="467.58" y="-573.6" font-family="Arial" font-size="14.00">joined_at </text>
<text text-anchor="start" x="528.29" y="-573.6" font-family="Arial" font-size="14.00" fill="#666666">[timestamp with time zone]</text>
<polygon fill="none" stroke="black" points="460.58,-530.6 460.58,-561.4 760.54,-561.4 760.54,-530.6 460.58,-530.6"/>
<text text-anchor="start" x="467.58" y="-542.8" font-family="Arial" font-size="14.00">nickname </text>
<text text-anchor="start" x="531.38" y="-542.8" font-family="Arial" font-size="14.00" fill="#666666">[text]</text>
</g>
<!-- public.guild_members&#45;&gt;public.users -->
<g id="edge2" class="edge">
<title>public.guild_members:user_id&#45;&gt;public.users:id</title>
<path fill="none" stroke="black" d="M771.7,-606.92C843.52,-596.43 747.05,-467.38 812.56,-410.4 910.63,-325.1 1844.74,-277.2 1974.72,-277.2"/>
<polygon fill="black" stroke="black" points="771.85,-606.91 761.57,-603.09 766.53,-607.27 762.21,-607.56 762.21,-607.56 762.21,-607.56 766.53,-607.27 762.17,-612.07 771.85,-606.91"/>
<text text-anchor="start" x="594.56" y="-591.6" font-family="Arial" font-size="10.00">FOREIGN KEY (user_id) REFERENCES users(id) ON DELETE CASCADE</text>
</g>
<!-- public.invites -->
<g id="node4" class="node">
<title>public.invites</title>
<polygon fill="#efefef" stroke="none" points="864.67,-730.8 864.67,-766.4 1114.44,-766.4 1114.44,-730.8 864.67,-730.8"/>
<polygon fill="none" stroke="black" points="864.67,-730.8 864.67,-766.4 1114.44,-766.4 1114.44,-730.8 864.67,-730.8"/>
<text text-anchor="start" x="878.57" y="-744.2" font-family="Arial Bold" font-size="18.00">public.invites</text>
<text text-anchor="start" x="976.06" y="-744.2" font-family="Arial" font-size="14.00">    </text>
<text text-anchor="start" x="1007.17" y="-744.2" font-family="Arial" font-size="14.00" fill="#666666">[BASE TABLE]</text>
<polygon fill="none" stroke="black" points="864.67,-700 864.67,-730.8 1114.44,-730.8 1114.44,-700 864.67,-700"/>
<text text-anchor="start" x="871.67" y="-712.2" font-family="Arial" font-size="14.00">id </text>
<text text-anchor="start" x="886.46" y="-712.2" font-family="Arial" font-size="14.00" fill="#666666">[bigint]</text>
<polygon fill="none" stroke="black" points="864.67,-669.2 864.67,-700 1114.44,-700 1114.44,-669.2 864.67,-669.2"/>
<text text-anchor="start" x="871.67" y="-681.4" font-family="Arial" font-size="14.00">guild_id </text>
<text text-anchor="start" x="923.82" y="-681.4" font-family="Arial" font-size="14.00" fill="#666666">[bigint]</text>
<polygon fill="none" stroke="black" points="864.67,-638.4 864.67,-669.2 1114.44,-669.2 1114.44,-638.4 864.67,-638.4"/>
<text text-anchor="start" x="871.67" y="-650.6" font-family="Arial" font-size="14.00">created_by </text>
<text text-anchor="start" x="944.83" y="-650.6" font-family="Arial" font-size="14.00" fill="#666666">[bigint]</text>
<polygon fill="none" stroke="black" points="864.67,-607.6 864.67,-638.4 1114.44,-638.4 1114.44,-607.6 864.67,-607.6"/>
<text text-anchor="start" x="871.67" y="-619.8" font-family="Arial" font-size="14.00">code </text>
<text text-anchor="start" x="905.92" y="-619.8" font-family="Arial" font-size="14.00" fill="#666666">[text]</text>
<polygon fill="none" stroke="black" points="864.67,-576.8 864.67,-607.6 1114.44,-607.6 1114.44,-576.8 864.67,-576.8"/>
<text text-anchor="start" x="871.67" y="-589" font-family="Arial" font-size="14.00">expires_at </text>
<text text-anchor="start" x="940.15" y="-589" font-family="Arial" font-size="14.00" fill="#666666">[timestamp with time zone]</text>
<polygon fill="none" stroke="black" points="864.67,-546 864.67,-576.8 1114.44,-576.8 1114.44,-546 864.67,-546"/>
<text text-anchor="start" x="871.67" y="-558.2" font-family="Arial" font-size="14.00">max_uses </text>
<text text-anchor="start" x="939.37" y="-558.2" font-family="Arial" font-size="14.00" fill="#666666">[integer]</text>
<polygon fill="none" stroke="black" points="864.67,-515.2 864.67,-546 1114.44,-546 1114.44,-515.2 864.67,-515.2"/>
<text text-anchor="start" x="871.67" y="-527.4" font-family="Arial" font-size="14.00">uses </text>
<text text-anchor="start" x="905.13" y="-527.4" font-family="Arial" font-size="14.00" fill="#666666">[integer]</text>
<polygon fill="none" stroke="black" points="864.67,-484.4 864.67,-515.2 1114.44,-515.2 1114.44,-484.4 864.67,-484.4"/>
<text text-anchor="start" x="871.67" y="-496.6" font-family="Arial" font-size="14.00">is_disabled </text>
<text text-anchor="start" x="945.61" y="-496.6" font-family="Arial" font-size="14.00" fill="#666666">[boolean]</text>
<polygon fill="none" stroke="black" points="864.67,-453.6 864.67,-484.4 1114.44,-484.4 1114.44,-453.6 864.67,-453.6"/>
<text text-anchor="start" x="871.67" y="-465.8" font-family="Arial" font-size="14.00">created_at </text>
<text text-anchor="start" x="941.72" y="-465.8" font-family="Arial" font-size="14.00" fill="#666666">[timestamp with time zone]</text>
</g>
<!-- public.invites&#45;&gt;public.users -->
<g id="edge3" class="edge">
<title>public.invites:created_by&#45;&gt;public.users:id</title>
<path fill="none" stroke="black" d="M1125.64,-653.26C1216.97,-642.81 1089.36,-484.3 1166.56,-410.4 1298.04,-284.54 1792.7,-277.2 1974.72,-277.2"/>
<polygon fill="black" stroke="black" points="1125.76,-653.25 1115.54,-649.29 1120.44,-653.53 1116.11,-653.76 1116.11,-653.76 1116.11,-653.76 1120.44,-653.53 1116.02,-658.28 1125.76,-653.25"/>
<text text-anchor="start" x="940.4" y="-637.8" font-family="Arial" font-size="10.00">FOREIGN KEY (created_by) REFERENCES users(id) ON DELETE SET NULL</text>
</g>
<!-- public.invite_uses -->
<g id="node5" class="node">
<title>public.invite_uses</title>
<polygon fill="#efefef" stroke="none" points="1219.07,-638.4 1219.07,-674 1488.04,-674 1488.04,-638.4 1219.07,-638.4"/>
<polygon fill="none" stroke="black" points="1219.07,-638.4 1219.07,-674 1488.04,-674 1488.04,-638.4 1219.07,-638.4"/>
<text text-anchor="start" x="1226.07" y="-651.8" font-family="Arial Bold" font-size="18.00">public.invite_uses</text>
<text text-anchor="start" x="1356.55" y="-651.8" font-family="Arial" font-size="14.00">    </text>
<text text-anchor="start" x="1387.67" y="-651.8" font-family="Arial" font-size="14.00" fill="#666666">[BASE TABLE]</text>
<polygon fill="none" stroke="black" points="1219.07,-607.6 1219.07,-638.4 1488.04,-638.4 1488.04,-607.6 1219.07,-607.6"/>
<text text-anchor="start" x="1226.07" y="-619.8" font-family="Arial" font-size="14.00">invite_id </text>
<text text-anchor="start" x="1281.33" y="-619.8" font-family="Arial" font-size="14.00" fill="#666666">[bigint]</text>
<polygon fill="none" stroke="black" points="1219.07,-576.8 1219.07,-607.6 1488.04,-607.6 1488.04,-576.8 1219.07,-576.8"/>
<text text-anchor="start" x="1226.07" y="-589" font-family="Arial" font-size="14.00">used_by </text>
<text text-anchor="start" x="1282.89" y="-589" font-family="Arial" font-size="14.00" fill="#666666">[bigint]</text>
<polygon fill="none" stroke="black" points="1219.07,-546 1219.07,-576.8 1488.04,-576.8 1488.04,-546 1219.07,-546"/>
<text text-anchor="start" x="1226.07" y="-558.2" font-family="Arial" font-size="14.00">used_at </text>
<text text-anchor="start" x="1279.78" y="-558.2" font-family="Arial" font-size="14.00" fill="#666666">[timestamp with time zone]</text>
</g>
<!-- public.invite_uses&#45;&gt;public.users -->
<g id="edge4" class="edge">
<title>public.invite_uses:used_by&#45;&gt;public.users:id</title>
<path fill="none" stroke="black" d="M1499.33,-591.48C1565.13,-581.38 1484.46,-467.72 1540.56,-410.4 1611.14,-338.27 1873.8,-277.2 1974.72,-277.2"/>
<polygon fill="black" stroke="black" points="1499.35,-591.48 1489.06,-587.69 1494.03,-591.85 1489.71,-592.15 1489.71,-592.15 1489.71,-592.15 1494.03,-591.85 1489.69,-596.67 1499.35,-591.48"/>
<text text-anchor="start" x="1496.04" y="-602.2" font-family="Arial" font-size="10.00">FOREIGN KEY (used_by) REFERENCES users(id) ON DELETE CASCADE</text>
</g>
<!-- public.channels -->
<g id="node6" class="node">
<title>public.channels</title>
<polygon fill="#efefef" stroke="none" points="1592.72,-700 1592.72,-735.6 1846.4,-735.6 1846.4,-700 1592.72,-700"/>
<polygon fill="none" stroke="black" points="1592.72,-700 1592.72,-735.6 1846.4,-735.6 1846.4,-700 1592.72,-700"/>
<text text-anchor="start" x="1601.08" y="-713.4" font-family="Arial Bold" font-size="18.00">public.channels</text>
<text text-anchor="start" x="1713.55" y="-713.4" font-family="Arial" font-size="14.00">    </text>
<text text-anchor="start" x="1744.66" y="-713.4" font-family="Arial" font-size="14.00" fill="#666666">[BASE TABLE]</text>
<polygon fill="none" stroke="black" points="1592.72,-669.2 1592.72,-700 1846.4,-700 1846.4,-669.2 1592.72,-669.2"/>
<text text-anchor="start" x="1599.72" y="-681.4" font-family="Arial" font-size="14.00">id </text>
<text text-anchor="start" x="1614.5" y="-681.4" font-family="Arial" font-size="14.00" fill="#666666">[bigint]</text>
<polygon fill="none" stroke="black" points="1592.72,-638.4 1592.72,-669.2 1846.4,-669.2 1846.4,-638.4 1592.72,-638.4"/>
<text text-anchor="start" x="1599.72" y="-650.6" font-family="Arial" font-size="14.00">type </text>
<text text-anchor="start" x="1630.07" y="-650.6" font-family="Arial" font-size="14.00" fill="#666666">[channel_type]</text>
<polygon fill="none" stroke="black" points="1592.72,-607.6 1592.72,-638.4 1846.4,-638.4 1846.4,-607.6 1592.72,-607.6"/>
<text text-anchor="start" x="1599.72" y="-619.8" font-family="Arial" font-size="14.00">guild_id </text>
<text text-anchor="start" x="1651.87" y="-619.8" font-family="Arial" font-size="14.00" fill="#666666">[bigint]</text>
<polygon fill="none" stroke="black" points="1592.72,-576.8 1592.72,-607.6 1846.4,-607.6 1846.4,-576.8 1592.72,-576.8"/>
<text text-anchor="start" x="1599.72" y="-589" font-family="Arial" font-size="14.00">name </text>
<text text-anchor="start" x="1638.63" y="-589" font-family="Arial" font-size="14.00" fill="#666666">[text]</text>
<polygon fill="none" stroke="black" points="1592.72,-546 1592.72,-576.8 1846.4,-576.8 1846.4,-546 1592.72,-546"/>
<text text-anchor="start" x="1599.72" y="-558.2" font-family="Arial" font-size="14.00">created_by </text>
<text text-anchor="start" x="1672.88" y="-558.2" font-family="Arial" font-size="14.00" fill="#666666">[bigint]</text>
<polygon fill="none" stroke="black" points="1592.72,-515.2 1592.72,-546 1846.4,-546 1846.4,-515.2 1592.72,-515.2"/>
<text text-anchor="start" x="1599.72" y="-527.4" font-family="Arial" font-size="14.00">created_at </text>
<text text-anchor="start" x="1669.76" y="-527.4" font-family="Arial" font-size="14.00" fill="#666666">[timestamp with time zone]</text>
<polygon fill="none" stroke="black" points="1592.72,-484.4 1592.72,-515.2 1846.4,-515.2 1846.4,-484.4 1592.72,-484.4"/>
<text text-anchor="start" x="1599.72" y="-496.6" font-family="Arial" font-size="14.00">updated_at </text>
<text text-anchor="start" x="1673.67" y="-496.6" font-family="Arial" font-size="14.00" fill="#666666">[timestamp with time zone]</text>
</g>
<!-- public.channels&#45;&gt;public.users -->
<g id="edge5" class="edge">
<title>public.channels:created_by&#45;&gt;public.users:id</title>
<path fill="none" stroke="black" d="M1857.64,-560.7C1913.33,-552.35 1871,-471.6 1898.56,-410.4 1926.55,-348.22 1906.52,-277.2 1974.72,-277.2"/>
<polygon fill="black" stroke="black" points="1857.71,-560.69 1847.42,-556.89 1852.39,-561.06 1848.07,-561.35 1848.07,-561.35 1848.07,-561.35 1852.39,-561.06 1848.04,-565.87 1857.71,-560.69"/>
<text text-anchor="start" x="1490.31" y="-571.4" font-family="Arial" font-size="10.00">FOREIGN KEY (created_by) REFERENCES users(id) ON DELETE SET NULL</text>
</g>
<!-- public.dm_participants -->
<g id="node7" class="node">
<title>public.dm_participants</title>
<polygon fill="#efefef" stroke="none" points="1950.58,-623 1950.58,-658.6 2254.53,-658.6 2254.53,-623 1950.58,-623"/>
<polygon fill="none" stroke="black" points="1950.58,-623 1950.58,-658.6 2254.53,-658.6 2254.53,-623 1950.58,-623"/>
<text text-anchor="start" x="1957.58" y="-636.4" font-family="Arial Bold" font-size="18.00">public.dm_participants</text>
<text text-anchor="start" x="2123.04" y="-636.4" font-family="Arial" font-size="14.00">    </text>
<text text-anchor="start" x="2154.16" y="-636.4" font-family="Arial" font-size="14.00" fill="#666666">[BASE TABLE]</text>
<polygon fill="none" stroke="black" points="1950.58,-592.2 1950.58,-623 2254.53,-623 2254.53,-592.2 1950.58,-592.2"/>
<text text-anchor="start" x="1957.58" y="-604.4" font-family="Arial" font-size="14.00">channel_id </text>
<text text-anchor="start" x="2029.19" y="-604.4" font-family="Arial" font-size="14.00" fill="#666666">[bigint]</text>
<polygon fill="none" stroke="black" points="1950.58,-561.4 1950.58,-592.2 2254.53,-592.2 2254.53,-561.4 1950.58,-561.4"/>
<text text-anchor="start" x="1957.58" y="-573.6" font-family="Arial" font-size="14.00">user_id </text>
<text text-anchor="start" x="2007.39" y="-573.6" font-family="Arial" font-size="14.00" fill="#666666">[bigint]</text>
</g>
<!-- public.dm_participants&#45;&gt;public.users -->
<g id="edge6" class="edge">
<title>public.dm_participants:user_id&#45;&gt;public.users:id</title>
<path fill="none" stroke="black" d="M2102.93,-549.97C2109.47,-460.89 2200.49,-466.41 2229.4,-374.4 2242.35,-333.18 2273.6,-277.2 2230.4,-277.2"/>
<polygon fill="black" stroke="black" points="2102.93,-550.07 2098.07,-559.91 2102.74,-555.4 2102.58,-559.73 2102.58,-559.73 2102.58,-559.73 2102.74,-555.4 2107.07,-560.23 2102.93,-550.07"/>
<text text-anchor="start" x="1935.58" y="-544.4" font-family="Arial" font-size="10.00">FOREIGN KEY (user_id) REFERENCES users(id) ON DELETE CASCADE</text>
</g>
<!-- public.dm_pairs -->
<g id="node8" class="node">
<title>public.dm_pairs</title>
<polygon fill="#efefef" stroke="none" points="2359.07,-638.4 2359.07,-674 2614.04,-674 2614.04,-638.4 2359.07,-638.4"/>
<polygon fill="none" stroke="black" points="2359.07,-638.4 2359.07,-674 2614.04,-674 2614.04,-638.4 2359.07,-638.4"/>
<text text-anchor="start" x="2366.07" y="-651.8" font-family="Arial Bold" font-size="18.00">public.dm_pairs</text>
<text text-anchor="start" x="2482.55" y="-651.8" font-family="Arial" font-size="14.00">    </text>
<text text-anchor="start" x="2513.67" y="-651.8" font-family="Arial" font-size="14.00" fill="#666666">[BASE TABLE]</text>
<polygon fill="none" stroke="black" points="2359.07,-607.6 2359.07,-638.4 2614.04,-638.4 2614.04,-607.6 2359.07,-607.6"/>
<text text-anchor="start" x="2366.07" y="-619.8" font-family="Arial" font-size="14.00">user_low </text>
<text text-anchor="start" x="2425.99" y="-619.8" font-family="Arial" font-size="14.00" fill="#666666">[bigint]</text>
<polygon fill="none" stroke="black" points="2359.07,-576.8 2359.07,-607.6 2614.04,-607.6 2614.04,-576.8 2359.07,-576.8"/>
<text text-anchor="start" x="2366.07" y="-589" font-family="Arial" font-size="14.00">user_high </text>
<text text-anchor="start" x="2431.45" y="-589" font-family="Arial" font-size="14.00" fill="#666666">[bigint]</text>
<polygon fill="none" stroke="black" points="2359.07,-546 2359.07,-576.8 2614.04,-576.8 2614.04,-546 2359.07,-546"/>
<text text-anchor="start" x="2366.07" y="-558.2" font-family="Arial" font-size="14.00">channel_id </text>
<text text-anchor="start" x="2437.69" y="-558.2" font-family="Arial" font-size="14.00" fill="#666666">[bigint]</text>
</g>
<!-- public.dm_pairs&#45;&gt;public.users -->
<g id="edge7" class="edge">
<title>public.dm_pairs:user_high&#45;&gt;public.users:id</title>
<path fill="none" stroke="black" d="M2348.05,-591.63C2279.5,-583.28 2337.69,-484.5 2306.56,-410.4 2280.14,-347.53 2298.59,-277.2 2230.4,-277.2"/>
<polygon fill="black" stroke="black" points="2347.75,-591.62 2357.48,-596.67 2353.08,-591.92 2357.4,-592.16 2357.4,-592.16 2357.4,-592.16 2353.08,-591.92 2357.99,-587.69 2347.75,-591.62"/>
<text text-anchor="start" x="2095.76" y="-576.2" font-family="Arial" font-size="10.00">FOREIGN KEY (user_high) REFERENCES users(id) ON DELETE CASCADE</text>
</g>
<!-- public.dm_pairs&#45;&gt;public.users -->
<g id="edge8" class="edge">
<title>public.dm_pairs:user_low&#45;&gt;public.users:id</title>
<path fill="none" stroke="black" d="M2347.97,-622.5C2266.75,-613.97 2341.16,-497.39 2306.56,-410.4 2281.35,-347.03 2298.59,-277.2 2230.4,-277.2"/>
<polygon fill="black" stroke="black" points="2347.75,-622.49 2357.52,-627.48 2353.08,-622.75 2357.4,-622.97 2357.4,-622.97 2357.4,-622.97 2353.08,-622.75 2357.96,-618.49 2347.75,-622.49"/>
<text text-anchor="start" x="2098.69" y="-607" font-family="Arial" font-size="10.00">FOREIGN KEY (user_low) REFERENCES users(id) ON DELETE CASCADE</text>
</g>
<!-- public.channel_reads -->
<g id="node9" class="node">
<title>public.channel_reads</title>
<polygon fill="#efefef" stroke="none" points="2718.09,-669.2 2718.09,-704.8 3009.02,-704.8 3009.02,-669.2 2718.09,-669.2"/>
<polygon fill="none" stroke="black" points="2718.09,-669.2 2718.09,-704.8 3009.02,-704.8 3009.02,-669.2 2718.09,-669.2"/>
<text text-anchor="start" x="2725.09" y="-682.6" font-family="Arial Bold" font-size="18.00">public.channel_reads</text>
<text text-anchor="start" x="2877.53" y="-682.6" font-family="Arial" font-size="14.00">    </text>
<text text-anchor="start" x="2908.65" y="-682.6" font-family="Arial" font-size="14.00" fill="#666666">[BASE TABLE]</text>
<polygon fill="none" stroke="black" points="2718.09,-638.4 2718.09,-669.2 3009.02,-669.2 3009.02,-638.4 2718.09,-638.4"/>
<text text-anchor="start" x="2725.09" y="-650.6" font-family="Arial" font-size="14.00">channel_id </text>
<text text-anchor="start" x="2796.71" y="-650.6" font-family="Arial" font-size="14.00" fill="#666666">[bigint]</text>
<polygon fill="none" stroke="black" points="2718.09,-607.6 2718.09,-638.4 3009.02,-638.4 3009.02,-607.6 2718.09,-607.6"/>
<text text-anchor="start" x="2725.09" y="-619.8" font-family="Arial" font-size="14.00">user_id </text>
<text text-anchor="start" x="2774.9" y="-619.8" font-family="Arial" font-size="14.00" fill="#666666">[bigint]</text>
<polygon fill="none" stroke="black" points="2718.09,-576.8 2718.09,-607.6 3009.02,-607.6 3009.02,-576.8 2718.09,-576.8"/>
<text text-anchor="start" x="2725.09" y="-589" font-family="Arial" font-size="14.00">last_read_message_id </text>
<text text-anchor="start" x="2869.85" y="-589" font-family="Arial" font-size="14.00" fill="#666666">[bigint]</text>
<polygon fill="none" stroke="black" points="2718.09,-546 2718.09,-576.8 3009.02,-576.8 3009.02,-546 2718.09,-546"/>
<text text-anchor="start" x="2725.09" y="-558.2" font-family="Arial" font-size="14.00">last_client_seq </text>
<text text-anchor="start" x="2821.6" y="-558.2" font-family="Arial" font-size="14.00" fill="#666666">[bigint]</text>
<polygon fill="none" stroke="black" points="2718.09,-515.2 2718.09,-546 3009.02,-546 3009.02,-515.2 2718.09,-515.2"/>
<text text-anchor="start" x="2725.09" y="-527.4" font-family="Arial" font-size="14.00">updated_at </text>
<text text-anchor="start" x="2799.05" y="-527.4" font-family="Arial" font-size="14.00" fill="#666666">[timestamp with time zone]</text>
</g>
<!-- public.channel_reads&#45;&gt;public.users -->
<g id="edge9" class="edge">
<title>public.channel_reads:user_id&#45;&gt;public.users:id</title>
<path fill="none" stroke="black" d="M2707.13,-622.43C2628.12,-612.57 2730.57,-478.58 2666.56,-410.4 2597.19,-336.52 2331.74,-277.2 2230.4,-277.2"/>
<polygon fill="black" stroke="black" points="2706.78,-622.4 2716.5,-627.47 2712.1,-622.71 2716.43,-622.96 2716.43,-622.96 2716.43,-622.96 2712.1,-622.71 2717.02,-618.49 2706.78,-622.4"/>
<text text-anchor="start" x="2724.09" y="-633" font-family="Arial" font-size="10.00">FOREIGN KEY (user_id) REFERENCES users(id) ON DELETE CASCADE</text>
</g>
<!-- public.audit_logs -->
<g id="node10" class="node">
<title>public.audit_logs</title>
<polygon fill="#efefef" stroke="none" points="3113.07,-715.4 3113.07,-751 3376.05,-751 3376.05,-715.4 3113.07,-715.4"/>
<polygon fill="none" stroke="black" points="3113.07,-715.4 3113.07,-751 3376.05,-751 3376.05,-715.4 3113.07,-715.4"/>
<text text-anchor="start" x="3120.07" y="-728.8" font-family="Arial Bold" font-size="18.00">public.audit_logs</text>
<text text-anchor="start" x="3244.56" y="-728.8" font-family="Arial" font-size="14.00">    </text>
<text text-anchor="start" x="3275.67" y="-728.8" font-family="Arial" font-size="14.00" fill="#666666">[BASE TABLE]</text>
<polygon fill="none" stroke="black" points="3113.07,-684.6 3113.07,-715.4 3376.05,-715.4 3376.05,-684.6 3113.07,-684.6"/>
<text text-anchor="start" x="3120.07" y="-696.8" font-family="Arial" font-size="14.00">id </text>
<text text-anchor="start" x="3134.85" y="-696.8" font-family="Arial" font-size="14.00" fill="#666666">[bigint]</text>
<polygon fill="none" stroke="black" points="3113.07,-653.8 3113.07,-684.6 3376.05,-684.6 3376.05,-653.8 3113.07,-653.8"/>
<text text-anchor="start" x="3120.07" y="-666" font-family="Arial" font-size="14.00">guild_id </text>
<text text-anchor="start" x="3172.22" y="-666" font-family="Arial" font-size="14.00" fill="#666666">[bigint]</text>
<polygon fill="none" stroke="black" points="3113.07,-623 3113.07,-653.8 3376.05,-653.8 3376.05,-623 3113.07,-623"/>
<text text-anchor="start" x="3120.07" y="-635.2" font-family="Arial" font-size="14.00">actor_id </text>
<text text-anchor="start" x="3173.77" y="-635.2" font-family="Arial" font-size="14.00" fill="#666666">[bigint]</text>
<polygon fill="none" stroke="black" points="3113.07,-592.2 3113.07,-623 3376.05,-623 3376.05,-592.2 3113.07,-592.2"/>
<text text-anchor="start" x="3120.07" y="-604.4" font-family="Arial" font-size="14.00">action </text>
<text text-anchor="start" x="3161.32" y="-604.4" font-family="Arial" font-size="14.00" fill="#666666">[audit_action]</text>
<polygon fill="none" stroke="black" points="3113.07,-561.4 3113.07,-592.2 3376.05,-592.2 3376.05,-561.4 3113.07,-561.4"/>
<text text-anchor="start" x="3120.07" y="-573.6" font-family="Arial" font-size="14.00">target_type </text>
<text text-anchor="start" x="3194.01" y="-573.6" font-family="Arial" font-size="14.00" fill="#666666">[text]</text>
<polygon fill="none" stroke="black" points="3113.07,-530.6 3113.07,-561.4 3376.05,-561.4 3376.05,-530.6 3113.07,-530.6"/>
<text text-anchor="start" x="3120.07" y="-542.8" font-family="Arial" font-size="14.00">target_id </text>
<text text-anchor="start" x="3178.44" y="-542.8" font-family="Arial" font-size="14.00" fill="#666666">[bigint]</text>
<polygon fill="none" stroke="black" points="3113.07,-499.8 3113.07,-530.6 3376.05,-530.6 3376.05,-499.8 3113.07,-499.8"/>
<text text-anchor="start" x="3120.07" y="-512" font-family="Arial" font-size="14.00">metadata </text>
<text text-anchor="start" x="3182.33" y="-512" font-family="Arial" font-size="14.00" fill="#666666">[jsonb]</text>
<polygon fill="none" stroke="black" points="3113.07,-469 3113.07,-499.8 3376.05,-499.8 3376.05,-469 3113.07,-469"/>
<text text-anchor="start" x="3120.07" y="-481.2" font-family="Arial" font-size="14.00">created_at </text>
<text text-anchor="start" x="3190.12" y="-481.2" font-family="Arial" font-size="14.00" fill="#666666">[timestamp with time zone]</text>
</g>
<!-- public.audit_logs&#45;&gt;public.users -->
<g id="edge10" class="edge">
<title>public.audit_logs:actor_id&#45;&gt;public.users:id</title>
<path fill="none" stroke="black" d="M3101.71,-637.8C3017.32,-627.18 3134.36,-479.02 3061.56,-410.4 2925.44,-282.1 2417.46,-277.2 2230.4,-277.2"/>
<polygon fill="black" stroke="black" points="3101.75,-637.8 3111.47,-642.87 3107.08,-638.11 3111.4,-638.36 3111.4,-638.36 3111.4,-638.36 3107.08,-638.11 3112,-633.89 3101.75,-637.8"/>
<text text-anchor="start" x="3119.07" y="-648.4" font-family="Arial" font-size="10.00">FOREIGN KEY (actor_id) REFERENCES users(id) ON DELETE SET NULL</text>
</g>
<!-- public.auth_identities -->
<g id="node11" class="node">
<title>public.auth_identities</title>
<polygon fill="#efefef" stroke="none" points="3480.58,-669.2 3480.58,-704.8 3774.54,-704.8 3774.54,-669.2 3480.58,-669.2"/>
<polygon fill="none" stroke="black" points="3480.58,-669.2 3480.58,-704.8 3774.54,-704.8 3774.54,-669.2 3480.58,-669.2"/>
<text text-anchor="start" x="3487.58" y="-682.6" font-family="Arial Bold" font-size="18.00">public.auth_identities</text>
<text text-anchor="start" x="3643.05" y="-682.6" font-family="Arial" font-size="14.00">    </text>
<text text-anchor="start" x="3674.17" y="-682.6" font-family="Arial" font-size="14.00" fill="#666666">[BASE TABLE]</text>
<polygon fill="none" stroke="black" points="3480.58,-638.4 3480.58,-669.2 3774.54,-669.2 3774.54,-638.4 3480.58,-638.4"/>
<text text-anchor="start" x="3487.58" y="-650.6" font-family="Arial" font-size="14.00">provider </text>
<text text-anchor="start" x="3542.05" y="-650.6" font-family="Arial" font-size="14.00" fill="#666666">[text]</text>
<polygon fill="none" stroke="black" points="3480.58,-607.6 3480.58,-638.4 3774.54,-638.4 3774.54,-607.6 3480.58,-607.6"/>
<text text-anchor="start" x="3487.58" y="-619.8" font-family="Arial" font-size="14.00">provider_subject </text>
<text text-anchor="start" x="3594.19" y="-619.8" font-family="Arial" font-size="14.00" fill="#666666">[text]</text>
<polygon fill="none" stroke="black" points="3480.58,-576.8 3480.58,-607.6 3774.54,-607.6 3774.54,-576.8 3480.58,-576.8"/>
<text text-anchor="start" x="3487.58" y="-589" font-family="Arial" font-size="14.00">principal_id </text>
<text text-anchor="start" x="3562.29" y="-589" font-family="Arial" font-size="14.00" fill="#666666">[bigint]</text>
<polygon fill="none" stroke="black" points="3480.58,-546 3480.58,-576.8 3774.54,-576.8 3774.54,-546 3480.58,-546"/>
<text text-anchor="start" x="3487.58" y="-558.2" font-family="Arial" font-size="14.00">created_at </text>
<text text-anchor="start" x="3557.63" y="-558.2" font-family="Arial" font-size="14.00" fill="#666666">[timestamp with time zone]</text>
<polygon fill="none" stroke="black" points="3480.58,-515.2 3480.58,-546 3774.54,-546 3774.54,-515.2 3480.58,-515.2"/>
<text text-anchor="start" x="3487.58" y="-527.4" font-family="Arial" font-size="14.00">updated_at </text>
<text text-anchor="start" x="3561.54" y="-527.4" font-family="Arial" font-size="14.00" fill="#666666">[timestamp with time zone]</text>
</g>
<!-- public.auth_identities&#45;&gt;public.users -->
<g id="edge11" class="edge">
<title>public.auth_identities:principal_id&#45;&gt;public.users:id</title>
<path fill="none" stroke="black" d="M3469.33,-591.45C3404.04,-580.89 3489.66,-462.28 3428.56,-410.4 3326.45,-323.7 2364.35,-277.2 2230.4,-277.2"/>
<polygon fill="black" stroke="black" points="3469.27,-591.44 3478.91,-596.66 3474.59,-591.83 3478.91,-592.15 3478.91,-592.15 3478.91,-592.15 3474.59,-591.83 3479.57,-587.69 3469.27,-591.44"/>
<text text-anchor="start" x="3486.58" y="-602.2" font-family="Arial" font-size="10.00">FOREIGN KEY (principal_id) REFERENCES users(id) ON DELETE CASCADE</text>
</g>
</g>
</svg>
