<?xml version="1.0" encoding="UTF-8" standalone="no"?>
<!DOCTYPE svg PUBLIC "-//W3C//DTD SVG 1.1//EN"
 "http://www.w3.org/Graphics/SVG/1.1/DTD/svg11.dtd">
<!-- Generated by graphviz version 12.1.2 (20240928.0832)
 -->
<!-- Title: public.invite_uses Pages: 1 -->
<svg width="988pt" height="664pt"
 viewBox="0.00 0.00 987.68 663.60" xmlns="http://www.w3.org/2000/svg" xmlns:xlink="http://www.w3.org/1999/xlink">
<g id="graph0" class="graph" transform="scale(1 1) rotate(0) translate(4 659.6)">
<title>public.invite_uses</title>
<polygon fill="white" stroke="none" points="-4,4 -4,-659.6 983.68,-659.6 983.68,4 -4,4"/>
<!-- public.invite_uses -->
<g id="node1" class="node">
<title>public.invite_uses</title>
<polygon fill="#efefef" stroke="none" points="356.74,-573.8 356.74,-609.4 625.71,-609.4 625.71,-573.8 356.74,-573.8"/>
<polygon fill="none" stroke="black" points="356.74,-573.8 356.74,-609.4 625.71,-609.4 625.71,-573.8 356.74,-573.8"/>
<text text-anchor="start" x="363.74" y="-587.2" font-family="Arial Bold" font-size="18.00">public.invite_uses</text>
<text text-anchor="start" x="494.23" y="-587.2" font-family="Arial" font-size="14.00">    </text>
<text text-anchor="start" x="525.34" y="-587.2" font-family="Arial" font-size="14.00" fill="#666666">[BASE TABLE]</text>
<polygon fill="none" stroke="black" points="356.74,-543 356.74,-573.8 625.71,-573.8 625.71,-543 356.74,-543"/>
<text text-anchor="start" x="363.74" y="-555.2" font-family="Arial" font-size="14.00">invite_id </text>
<text text-anchor="start" x="419" y="-555.2" font-family="Arial" font-size="14.00" fill="#666666">[bigint]</text>
<polygon fill="none" stroke="black" points="356.74,-512.2 356.74,-543 625.71,-543 625.71,-512.2 356.74,-512.2"/>
<text text-anchor="start" x="363.74" y="-524.4" font-family="Arial" font-size="14.00">used_by </text>
<text text-anchor="start" x="420.56" y="-524.4" font-family="Arial" font-size="14.00" fill="#666666">[bigint]</text>
<polygon fill="none" stroke="black" points="356.74,-481.4 356.74,-512.2 625.71,-512.2 625.71,-481.4 356.74,-481.4"/>
<text text-anchor="start" x="363.74" y="-493.6" font-family="Arial" font-size="14.00">used_at </text>
<text text-anchor="start" x="417.45" y="-493.6" font-family="Arial" font-size="14.00" fill="#666666">[timestamp with time zone]</text>
<polygon fill="none" stroke="black" stroke-width="3" points="355.24,-479.9 355.24,-610.9 627.21,-610.9 627.21,-479.9 355.24,-479.9"/>
</g>
<!-- public.invites -->
<g id="node2" class="node">
<title>public.invites</title>
<polygon fill="#efefef" stroke="none" points="188.34,-320.4 188.34,-356 438.11,-356 438.11,-320.4 188.34,-320.4"/>
<polygon fill="none" stroke="black" points="188.34,-320.4 188.34,-356 438.11,-356 438.11,-320.4 188.34,-320.4"/>
<text text-anchor="start" x="202.24" y="-333.8" font-family="Arial Bold" font-size="18.00">public.invites</text>
<text text-anchor="start" x="299.73" y="-333.8" font-family="Arial" font-size="14.00">    </text>
<text text-anchor="start" x="330.85" y="-333.8" font-family="Arial" font-size="14.00" fill="#666666">[BASE TABLE]</text>
<polygon fill="none" stroke="black" points="188.34,-289.6 188.34,-320.4 438.11,-320.4 438.11,-289.6 188.34,-289.6"/>
<text text-anchor="start" x="195.34" y="-301.8" font-family="Arial" font-size="14.00">id </text>
<text text-anchor="start" x="210.13" y="-301.8" font-family="Arial" font-size="14.00" fill="#666666">[bigint]</text>
<polygon fill="none" stroke="black" points="188.34,-258.8 188.34,-289.6 438.11,-289.6 438.11,-258.8 188.34,-258.8"/>
<text text-anchor="start" x="195.34" y="-271" font-family="Arial" font-size="14.00">guild_id </text>
<text text-anchor="start" x="247.49" y="-271" font-family="Arial" font-size="14.00" fill="#666666">[bigint]</text>
<polygon fill="none" stroke="black" points="188.34,-228 188.34,-258.8 438.11,-258.8 438.11,-228 188.34,-228"/>
<text text-anchor="start" x="195.34" y="-240.2" font-family="Arial" font-size="14.00">created_by </text>
<text text-anchor="start" x="268.5" y="-240.2" font-family="Arial" font-size="14.00" fill="#666666">[bigint]</text>
<polygon fill="none" stroke="black" points="188.34,-197.2 188.34,-228 438.11,-228 438.11,-197.2 188.34,-197.2"/>
<text text-anchor="start" x="195.34" y="-209.4" font-family="Arial" font-size="14.00">code </text>
<text text-anchor="start" x="229.59" y="-209.4" font-family="Arial" font-size="14.00" fill="#666666">[text]</text>
<polygon fill="none" stroke="black" points="188.34,-166.4 188.34,-197.2 438.11,-197.2 438.11,-166.4 188.34,-166.4"/>
<text text-anchor="start" x="195.34" y="-178.6" font-family="Arial" font-size="14.00">expires_at </text>
<text text-anchor="start" x="263.83" y="-178.6" font-family="Arial" font-size="14.00" fill="#666666">[timestamp with time zone]</text>
<polygon fill="none" stroke="black" points="188.34,-135.6 188.34,-166.4 438.11,-166.4 438.11,-135.6 188.34,-135.6"/>
<text text-anchor="start" x="195.34" y="-147.8" font-family="Arial" font-size="14.00">max_uses </text>
<text text-anchor="start" x="263.04" y="-147.8" font-family="Arial" font-size="14.00" fill="#666666">[integer]</text>
<polygon fill="none" stroke="black" points="188.34,-104.8 188.34,-135.6 438.11,-135.6 438.11,-104.8 188.34,-104.8"/>
<text text-anchor="start" x="195.34" y="-117" font-family="Arial" font-size="14.00">uses </text>
<text text-anchor="start" x="228.81" y="-117" font-family="Arial" font-size="14.00" fill="#666666">[integer]</text>
<polygon fill="none" stroke="black" points="188.34,-74 188.34,-104.8 438.11,-104.8 438.11,-74 188.34,-74"/>
<text text-anchor="start" x="195.34" y="-86.2" font-family="Arial" font-size="14.00">is_disabled </text>
<text text-anchor="start" x="269.28" y="-86.2" font-family="Arial" font-size="14.00" fill="#666666">[boolean]</text>
<polygon fill="none" stroke="black" points="188.34,-43.2 188.34,-74 438.11,-74 438.11,-43.2 188.34,-43.2"/>
<text text-anchor="start" x="195.34" y="-55.4" font-family="Arial" font-size="14.00">created_at </text>
<text text-anchor="start" x="265.39" y="-55.4" font-family="Arial" font-size="14.00" fill="#666666">[timestamp with time zone]</text>
</g>
<!-- public.invite_uses&#45;&gt;public.invites -->
<g id="edge1" class="edge">
<title>public.invite_uses:invite_id&#45;&gt;public.invites:id</title>
<path fill="none" stroke="black" d="M345.62,-557.35C304.52,-547.96 328.74,-477.84 356.74,-435.2 378.45,-402.15 416.36,-432.23 438.11,-399.2 461.15,-364.23 480.98,-305 439.11,-305"/>
<polygon fill="black" stroke="black" points="345.46,-557.33 354.95,-562.84 350.77,-557.88 355.08,-558.33 355.08,-558.33 355.08,-558.33 350.77,-557.88 355.87,-553.89 345.46,-557.33"/>
<text text-anchor="start" x="7" y="-568.4" font-family="Arial" font-size="10.00">FOREIGN KEY (invite_id) REFERENCES invites(id) ON DELETE CASCADE</text>
</g>
<!-- public.users -->
<g id="node3" class="node">
<title>public.users</title>
<polygon fill="#efefef" stroke="none" points="542.39,-305 542.39,-340.6 796.07,-340.6 796.07,-305 542.39,-305"/>
<polygon fill="none" stroke="black" points="542.39,-305 542.39,-340.6 796.07,-340.6 796.07,-305 542.39,-305"/>
<text text-anchor="start" x="563.74" y="-318.4" font-family="Arial Bold" font-size="18.00">public.users</text>
<text text-anchor="start" x="650.23" y="-318.4" font-family="Arial" font-size="14.00">    </text>
<text text-anchor="start" x="681.34" y="-318.4" font-family="Arial" font-size="14.00" fill="#666666">[BASE TABLE]</text>
<polygon fill="none" stroke="black" points="542.39,-274.2 542.39,-305 796.07,-305 796.07,-274.2 542.39,-274.2"/>
<text text-anchor="start" x="549.39" y="-286.4" font-family="Arial" font-size="14.00">id </text>
<text text-anchor="start" x="564.17" y="-286.4" font-family="Arial" font-size="14.00" fill="#666666">[bigint]</text>
<polygon fill="none" stroke="black" points="542.39,-243.4 542.39,-274.2 796.07,-274.2 796.07,-243.4 542.39,-243.4"/>
<text text-anchor="start" x="549.39" y="-255.6" font-family="Arial" font-size="14.00">email </text>
<text text-anchor="start" x="586.73" y="-255.6" font-family="Arial" font-size="14.00" fill="#666666">[text]</text>
<polygon fill="none" stroke="black" points="542.39,-212.6 542.39,-243.4 796.07,-243.4 796.07,-212.6 542.39,-212.6"/>
<text text-anchor="start" x="549.39" y="-224.8" font-family="Arial" font-size="14.00">display_name </text>
<text text-anchor="start" x="639.66" y="-224.8" font-family="Arial" font-size="14.00" fill="#666666">[text]</text>
<polygon fill="none" stroke="black" points="542.39,-181.8 542.39,-212.6 796.07,-212.6 796.07,-181.8 542.39,-181.8"/>
<text text-anchor="start" x="549.39" y="-194" font-family="Arial" font-size="14.00">avatar_key </text>
<text text-anchor="start" x="621.76" y="-194" font-family="Arial" font-size="14.00" fill="#666666">[text]</text>
<polygon fill="none" stroke="black" points="542.39,-151 542.39,-181.8 796.07,-181.8 796.07,-151 542.39,-151"/>
<text text-anchor="start" x="549.39" y="-163.2" font-family="Arial" font-size="14.00">status_text </text>
<text text-anchor="start" x="620.98" y="-163.2" font-family="Arial" font-size="14.00" fill="#666666">[text]</text>
<polygon fill="none" stroke="black" points="542.39,-120.2 542.39,-151 796.07,-151 796.07,-120.2 542.39,-120.2"/>
<text text-anchor="start" x="549.39" y="-132.4" font-family="Arial" font-size="14.00">theme </text>
<text text-anchor="start" x="592.19" y="-132.4" font-family="Arial" font-size="14.00" fill="#666666">[text]</text>
<polygon fill="none" stroke="black" points="542.39,-89.4 542.39,-120.2 796.07,-120.2 796.07,-89.4 542.39,-89.4"/>
<text text-anchor="start" x="549.39" y="-101.6" font-family="Arial" font-size="14.00">created_at </text>
<text text-anchor="start" x="619.44" y="-101.6" font-family="Arial" font-size="14.00" fill="#666666">[timestamp with time zone]</text>
<polygon fill="none" stroke="black" points="542.39,-58.6 542.39,-89.4 796.07,-89.4 796.07,-58.6 542.39,-58.6"/>
<text text-anchor="start" x="549.39" y="-70.8" font-family="Arial" font-size="14.00">updated_at </text>
<text text-anchor="start" x="623.35" y="-70.8" font-family="Arial" font-size="14.00" fill="#666666">[timestamp with time zone]</text>
</g>
<!-- public.invite_uses&#45;&gt;public.users -->
<g id="edge2" class="edge">
<title>public.invite_uses:used_by&#45;&gt;public.users:id</title>
<path fill="none" stroke="black" d="M637.01,-526.05C663.53,-516.74 643.95,-467.46 625.71,-435.2 604.3,-397.32 563.8,-421.68 542.39,-383.8 521.79,-347.35 499.52,-289.6 541.39,-289.6"/>
<polygon fill="black" stroke="black" points="636.93,-526.06 626.38,-523.1 631.66,-526.86 627.38,-527.5 627.38,-527.5 627.38,-527.5 631.66,-526.86 627.72,-532 636.93,-526.06"/>
<text text-anchor="start" x="633.71" y="-537.6" font-family="Arial" font-size="10.00">FOREIGN KEY (used_by) REFERENCES users(id) ON DELETE CASCADE</text>
</g>
</g>
</svg>
