<?xml version="1.0" encoding="UTF-8" standalone="no"?>
<!DOCTYPE svg PUBLIC "-//W3C//DTD SVG 1.1//EN"
 "http://www.w3.org/Graphics/SVG/1.1/DTD/svg11.dtd">
<!-- Generated by graphviz version 12.1.2 (20240928.0832)
 -->
<!-- Title: public.channel_user_permission_overrides_v2 Pages: 1 -->
<svg width="1360pt" height="725pt"
 viewBox="0.00 0.00 1359.96 725.20" xmlns="http://www.w3.org/2000/svg" xmlns:xlink="http://www.w3.org/1999/xlink">
<g id="graph0" class="graph" transform="scale(1 1) rotate(0) translate(4 721.2)">
<title>public.channel_user_permission_overrides_v2</title>
<polygon fill="white" stroke="none" points="-4,4 -4,-721.2 1355.96,-721.2 1355.96,4 -4,4"/>
<!-- public.channel_user_permission_overrides_v2 -->
<g id="node1" class="node">
<title>public.channel_user_permission_overrides_v2</title>
<polygon fill="#efefef" stroke="none" points="380.11,-635.4 380.11,-671 854.02,-671 854.02,-635.4 380.11,-635.4"/>
<polygon fill="none" stroke="black" points="380.11,-635.4 380.11,-671 854.02,-671 854.02,-635.4 380.11,-635.4"/>
<text text-anchor="start" x="387.11" y="-648.8" font-family="Arial Bold" font-size="18.00">public.channel_user_permission_overrides_v2</text>
<text text-anchor="start" x="722.53" y="-648.8" font-family="Arial" font-size="14.00">    </text>
<text text-anchor="start" x="753.65" y="-648.8" font-family="Arial" font-size="14.00" fill="#666666">[BASE TABLE]</text>
<polygon fill="none" stroke="black" points="380.11,-604.6 380.11,-635.4 854.02,-635.4 854.02,-604.6 380.11,-604.6"/>
<text text-anchor="start" x="387.11" y="-616.8" font-family="Arial" font-size="14.00">channel_id </text>
<text text-anchor="start" x="458.73" y="-616.8" font-family="Arial" font-size="14.00" fill="#666666">[bigint]</text>
<polygon fill="none" stroke="black" points="380.11,-573.8 380.11,-604.6 854.02,-604.6 854.02,-573.8 380.11,-573.8"/>
<text text-anchor="start" x="387.11" y="-586" font-family="Arial" font-size="14.00">guild_id </text>
<text text-anchor="start" x="439.26" y="-586" font-family="Arial" font-size="14.00" fill="#666666">[bigint]</text>
<polygon fill="none" stroke="black" points="380.11,-543 380.11,-573.8 854.02,-573.8 854.02,-543 380.11,-543"/>
<text text-anchor="start" x="387.11" y="-555.2" font-family="Arial" font-size="14.00">user_id </text>
<text text-anchor="start" x="436.92" y="-555.2" font-family="Arial" font-size="14.00" fill="#666666">[bigint]</text>
<polygon fill="none" stroke="black" points="380.11,-512.2 380.11,-543 854.02,-543 854.02,-512.2 380.11,-512.2"/>
<text text-anchor="start" x="387.11" y="-524.4" font-family="Arial" font-size="14.00">can_view </text>
<text text-anchor="start" x="449.37" y="-524.4" font-family="Arial" font-size="14.00" fill="#666666">[boolean]</text>
<polygon fill="none" stroke="black" points="380.11,-481.4 380.11,-512.2 854.02,-512.2 854.02,-481.4 380.11,-481.4"/>
<text text-anchor="start" x="387.11" y="-493.6" font-family="Arial" font-size="14.00">can_post </text>
<text text-anchor="start" x="447.82" y="-493.6" font-family="Arial" font-size="14.00" fill="#666666">[boolean]</text>
<polygon fill="none" stroke="black" points="380.11,-450.6 380.11,-481.4 854.02,-481.4 854.02,-450.6 380.11,-450.6"/>
<text text-anchor="start" x="387.11" y="-462.8" font-family="Arial" font-size="14.00">created_at </text>
<text text-anchor="start" x="457.16" y="-462.8" font-family="Arial" font-size="14.00" fill="#666666">[timestamp with time zone]</text>
<polygon fill="none" stroke="black" points="380.11,-419.8 380.11,-450.6 854.02,-450.6 854.02,-419.8 380.11,-419.8"/>
<text text-anchor="start" x="387.11" y="-432" font-family="Arial" font-size="14.00">updated_at </text>
<text text-anchor="start" x="461.07" y="-432" font-family="Arial" font-size="14.00" fill="#666666">[timestamp with time zone]</text>
<polygon fill="none" stroke="black" stroke-width="3" points="378.61,-418.3 378.61,-672.5 855.52,-672.5 855.52,-418.3 378.61,-418.3"/>
</g>
<!-- public.channels -->
<g id="node2" class="node">
<title>public.channels</title>
<polygon fill="#efefef" stroke="none" points="300.22,-258.8 300.22,-294.4 553.91,-294.4 553.91,-258.8 300.22,-258.8"/>
<polygon fill="none" stroke="black" points="300.22,-258.8 300.22,-294.4 553.91,-294.4 553.91,-258.8 300.22,-258.8"/>
<text text-anchor="start" x="308.59" y="-272.2" font-family="Arial Bold" font-size="18.00">public.channels</text>
<text text-anchor="start" x="421.05" y="-272.2" font-family="Arial" font-size="14.00">    </text>
<text text-anchor="start" x="452.17" y="-272.2" font-family="Arial" font-size="14.00" fill="#666666">[BASE TABLE]</text>
<polygon fill="none" stroke="black" points="300.22,-228 300.22,-258.8 553.91,-258.8 553.91,-228 300.22,-228"/>
<text text-anchor="start" x="307.22" y="-240.2" font-family="Arial" font-size="14.00">id </text>
<text text-anchor="start" x="322.01" y="-240.2" font-family="Arial" font-size="14.00" fill="#666666">[bigint]</text>
<polygon fill="none" stroke="black" points="300.22,-197.2 300.22,-228 553.91,-228 553.91,-197.2 300.22,-197.2"/>
<text text-anchor="start" x="307.22" y="-209.4" font-family="Arial" font-size="14.00">type </text>
<text text-anchor="start" x="337.58" y="-209.4" font-family="Arial" font-size="14.00" fill="#666666">[channel_type]</text>
<polygon fill="none" stroke="black" points="300.22,-166.4 300.22,-197.2 553.91,-197.2 553.91,-166.4 300.22,-166.4"/>
<text text-anchor="start" x="307.22" y="-178.6" font-family="Arial" font-size="14.00">guild_id </text>
<text text-anchor="start" x="359.38" y="-178.6" font-family="Arial" font-size="14.00" fill="#666666">[bigint]</text>
<polygon fill="none" stroke="black" points="300.22,-135.6 300.22,-166.4 553.91,-166.4 553.91,-135.6 300.22,-135.6"/>
<text text-anchor="start" x="307.22" y="-147.8" font-family="Arial" font-size="14.00">name </text>
<text text-anchor="start" x="346.13" y="-147.8" font-family="Arial" font-size="14.00" fill="#666666">[text]</text>
<polygon fill="none" stroke="black" points="300.22,-104.8 300.22,-135.6 553.91,-135.6 553.91,-104.8 300.22,-104.8"/>
<text text-anchor="start" x="307.22" y="-117" font-family="Arial" font-size="14.00">created_by </text>
<text text-anchor="start" x="380.38" y="-117" font-family="Arial" font-size="14.00" fill="#666666">[bigint]</text>
<polygon fill="none" stroke="black" points="300.22,-74 300.22,-104.8 553.91,-104.8 553.91,-74 300.22,-74"/>
<text text-anchor="start" x="307.22" y="-86.2" font-family="Arial" font-size="14.00">created_at </text>
<text text-anchor="start" x="377.27" y="-86.2" font-family="Arial" font-size="14.00" fill="#666666">[timestamp with time zone]</text>
<polygon fill="none" stroke="black" points="300.22,-43.2 300.22,-74 553.91,-74 553.91,-43.2 300.22,-43.2"/>
<text text-anchor="start" x="307.22" y="-55.4" font-family="Arial" font-size="14.00">updated_at </text>
<text text-anchor="start" x="381.18" y="-55.4" font-family="Arial" font-size="14.00" fill="#666666">[timestamp with time zone]</text>
</g>
<!-- public.channel_user_permission_overrides_v2&#45;&gt;public.channels -->
<g id="edge1" class="edge">
<title>public.channel_user_permission_overrides_v2:channel_id&#45;&gt;public.channels:id</title>
<path fill="none" stroke="black" d="M368.7,-619.47C272.37,-609.35 313.1,-455.57 380.11,-373.6 430.04,-312.53 503.78,-398.51 553.91,-337.6 580.51,-305.27 596.78,-243.4 554.91,-243.4"/>
<polygon fill="black" stroke="black" points="368.79,-619.48 378.55,-624.48 374.12,-619.75 378.44,-619.97 378.44,-619.97 378.44,-619.97 374.12,-619.75 379.01,-615.49 368.79,-619.48"/>
<text text-anchor="start" x="7" y="-630" font-family="Arial" font-size="10.00">FOREIGN KEY (channel_id) REFERENCES channels(id) ON DELETE CASCADE</text>
</g>
<!-- public.guild_members -->
<g id="node3" class="node">
<title>public.guild_members</title>
<polygon fill="#efefef" stroke="none" points="658.08,-212.6 658.08,-248.2 958.05,-248.2 958.05,-212.6 658.08,-212.6"/>
<polygon fill="none" stroke="black" points="658.08,-212.6 658.08,-248.2 958.05,-248.2 958.05,-212.6 658.08,-212.6"/>
<text text-anchor="start" x="665.08" y="-226" font-family="Arial Bold" font-size="18.00">public.guild_members</text>
<text text-anchor="start" x="826.56" y="-226" font-family="Arial" font-size="14.00">    </text>
<text text-anchor="start" x="857.67" y="-226" font-family="Arial" font-size="14.00" fill="#666666">[BASE TABLE]</text>
<polygon fill="none" stroke="black" points="658.08,-181.8 658.08,-212.6 958.05,-212.6 958.05,-181.8 658.08,-181.8"/>
<text text-anchor="start" x="665.08" y="-194" font-family="Arial" font-size="14.00">guild_id </text>
<text text-anchor="start" x="717.24" y="-194" font-family="Arial" font-size="14.00" fill="#666666">[bigint]</text>
<polygon fill="none" stroke="black" points="658.08,-151 658.08,-181.8 958.05,-181.8 958.05,-151 658.08,-151"/>
<text text-anchor="start" x="665.08" y="-163.2" font-family="Arial" font-size="14.00">user_id </text>
<text text-anchor="start" x="714.89" y="-163.2" font-family="Arial" font-size="14.00" fill="#666666">[bigint]</text>
<polygon fill="none" stroke="black" points="658.08,-120.2 658.08,-151 958.05,-151 958.05,-120.2 658.08,-120.2"/>
<text text-anchor="start" x="665.08" y="-132.4" font-family="Arial" font-size="14.00">joined_at </text>
<text text-anchor="start" x="725.8" y="-132.4" font-family="Arial" font-size="14.00" fill="#666666">[timestamp with time zone]</text>
<polygon fill="none" stroke="black" points="658.08,-89.4 658.08,-120.2 958.05,-120.2 958.05,-89.4 658.08,-89.4"/>
<text text-anchor="start" x="665.08" y="-101.6" font-family="Arial" font-size="14.00">nickname </text>
<text text-anchor="start" x="728.89" y="-101.6" font-family="Arial" font-size="14.00" fill="#666666">[text]</text>
</g>
<!-- public.channel_user_permission_overrides_v2&#45;&gt;public.guild_members -->
<g id="edge2" class="edge">
<title>public.channel_user_permission_overrides_v2:guild_id&#45;&gt;public.guild_members:guild_id</title>
<path fill="none" stroke="black" d="M865.37,-588.62C947.51,-578.93 905.23,-450.24 854.02,-373.6 801.55,-295.08 710.79,-369.76 658.08,-291.4 634.72,-256.66 615.22,-197.2 657.08,-197.2"/>
<polygon fill="black" stroke="black" points="865.34,-588.62 855.1,-584.69 860.01,-588.92 855.69,-589.16 855.69,-589.16 855.69,-589.16 860.01,-588.92 855.6,-593.67 865.34,-588.62"/>
<text text-anchor="start" x="862.02" y="-599.2" font-family="Arial" font-size="10.00">FOREIGN KEY (guild_id, user_id) REFERENCES guild_members(guild_id, user_id) ON DELETE CASCADE</text>
</g>
</g>
</svg>
