<?xml version="1.0" encoding="UTF-8" standalone="no"?>
<!DOCTYPE svg PUBLIC "-//W3C//DTD SVG 1.1//EN"
 "http://www.w3.org/Graphics/SVG/1.1/DTD/svg11.dtd">
<!-- Generated by graphviz version 12.1.2 (20240928.0832)
 -->
<!-- Title: public.guilds Pages: 1 -->
<svg width="1890pt" height="1160pt"
 viewBox="0.00 0.00 1890.45 1160.40" xmlns="http://www.w3.org/2000/svg" xmlns:xlink="http://www.w3.org/1999/xlink">
<g id="graph0" class="graph" transform="scale(1 1) rotate(0) translate(4 1156.4)">
<title>public.guilds</title>
<polygon fill="white" stroke="none" points="-4,4 -4,-1156.4 1886.45,-1156.4 1886.45,4 -4,4"/>
<!-- public.guilds -->
<g id="node1" class="node">
<title>public.guilds</title>
<polygon fill="#efefef" stroke="none" points="801.34,-635.4 801.34,-671 1055.02,-671 1055.02,-635.4 801.34,-635.4"/>
<polygon fill="none" stroke="black" points="801.34,-635.4 801.34,-671 1055.02,-671 1055.02,-635.4 801.34,-635.4"/>
<text text-anchor="start" x="819.19" y="-648.8" font-family="Arial Bold" font-size="18.00">public.guilds</text>
<text text-anchor="start" x="912.69" y="-648.8" font-family="Arial" font-size="14.00">    </text>
<text text-anchor="start" x="943.8" y="-648.8" font-family="Arial" font-size="14.00" fill="#666666">[BASE TABLE]</text>
<polygon fill="none" stroke="black" points="801.34,-604.6 801.34,-635.4 1055.02,-635.4 1055.02,-604.6 801.34,-604.6"/>
<text text-anchor="start" x="808.34" y="-616.8" font-family="Arial" font-size="14.00">id </text>
<text text-anchor="start" x="823.13" y="-616.8" font-family="Arial" font-size="14.00" fill="#666666">[bigint]</text>
<polygon fill="none" stroke="black" points="801.34,-573.8 801.34,-604.6 1055.02,-604.6 1055.02,-573.8 801.34,-573.8"/>
<text text-anchor="start" x="808.34" y="-586" font-family="Arial" font-size="14.00">name </text>
<text text-anchor="start" x="847.25" y="-586" font-family="Arial" font-size="14.00" fill="#666666">[text]</text>
<polygon fill="none" stroke="black" points="801.34,-543 801.34,-573.8 1055.02,-573.8 1055.02,-543 801.34,-543"/>
<text text-anchor="start" x="808.34" y="-555.2" font-family="Arial" font-size="14.00">owner_id </text>
<text text-anchor="start" x="869.04" y="-555.2" font-family="Arial" font-size="14.00" fill="#666666">[bigint]</text>
<polygon fill="none" stroke="black" points="801.34,-512.2 801.34,-543 1055.02,-543 1055.02,-512.2 801.34,-512.2"/>
<text text-anchor="start" x="808.34" y="-524.4" font-family="Arial" font-size="14.00">icon_key </text>
<text text-anchor="start" x="867.48" y="-524.4" font-family="Arial" font-size="14.00" fill="#666666">[text]</text>
<polygon fill="none" stroke="black" points="801.34,-481.4 801.34,-512.2 1055.02,-512.2 1055.02,-481.4 801.34,-481.4"/>
<text text-anchor="start" x="808.34" y="-493.6" font-family="Arial" font-size="14.00">created_at </text>
<text text-anchor="start" x="878.39" y="-493.6" font-family="Arial" font-size="14.00" fill="#666666">[timestamp with time zone]</text>
<polygon fill="none" stroke="black" points="801.34,-450.6 801.34,-481.4 1055.02,-481.4 1055.02,-450.6 801.34,-450.6"/>
<text text-anchor="start" x="808.34" y="-462.8" font-family="Arial" font-size="14.00">updated_at </text>
<text text-anchor="start" x="882.3" y="-462.8" font-family="Arial" font-size="14.00" fill="#666666">[timestamp with time zone]</text>
<polygon fill="none" stroke="black" stroke-width="3" points="799.84,-449.1 799.84,-672.5 1056.52,-672.5 1056.52,-449.1 799.84,-449.1"/>
</g>
<!-- public.users -->
<g id="node7" class="node">
<title>public.users</title>
<polygon fill="#efefef" stroke="none" points="801.34,-289.6 801.34,-325.2 1055.02,-325.2 1055.02,-289.6 801.34,-289.6"/>
<polygon fill="none" stroke="black" points="801.34,-289.6 801.34,-325.2 1055.02,-325.2 1055.02,-289.6 801.34,-289.6"/>
<text text-anchor="start" x="822.69" y="-303" font-family="Arial Bold" font-size="18.00">public.users</text>
<text text-anchor="start" x="909.18" y="-303" font-family="Arial" font-size="14.00">    </text>
<text text-anchor="start" x="940.3" y="-303" font-family="Arial" font-size="14.00" fill="#666666">[BASE TABLE]</text>
<polygon fill="none" stroke="black" points="801.34,-258.8 801.34,-289.6 1055.02,-289.6 1055.02,-258.8 801.34,-258.8"/>
<text text-anchor="start" x="808.34" y="-271" font-family="Arial" font-size="14.00">id </text>
<text text-anchor="start" x="823.13" y="-271" font-family="Arial" font-size="14.00" fill="#666666">[bigint]</text>
<polygon fill="none" stroke="black" points="801.34,-228 801.34,-258.8 1055.02,-258.8 1055.02,-228 801.34,-228"/>
<text text-anchor="start" x="808.34" y="-240.2" font-family="Arial" font-size="14.00">email </text>
<text text-anchor="start" x="845.68" y="-240.2" font-family="Arial" font-size="14.00" fill="#666666">[text]</text>
<polygon fill="none" stroke="black" points="801.34,-197.2 801.34,-228 1055.02,-228 1055.02,-197.2 801.34,-197.2"/>
<text text-anchor="start" x="808.34" y="-209.4" font-family="Arial" font-size="14.00">display_name </text>
<text text-anchor="start" x="898.62" y="-209.4" font-family="Arial" font-size="14.00" fill="#666666">[text]</text>
<polygon fill="none" stroke="black" points="801.34,-166.4 801.34,-197.2 1055.02,-197.2 1055.02,-166.4 801.34,-166.4"/>
<text text-anchor="start" x="808.34" y="-178.6" font-family="Arial" font-size="14.00">avatar_key </text>
<text text-anchor="start" x="880.71" y="-178.6" font-family="Arial" font-size="14.00" fill="#666666">[text]</text>
<polygon fill="none" stroke="black" points="801.34,-135.6 801.34,-166.4 1055.02,-166.4 1055.02,-135.6 801.34,-135.6"/>
<text text-anchor="start" x="808.34" y="-147.8" font-family="Arial" font-size="14.00">status_text </text>
<text text-anchor="start" x="879.93" y="-147.8" font-family="Arial" font-size="14.00" fill="#666666">[text]</text>
<polygon fill="none" stroke="black" points="801.34,-104.8 801.34,-135.6 1055.02,-135.6 1055.02,-104.8 801.34,-104.8"/>
<text text-anchor="start" x="808.34" y="-117" font-family="Arial" font-size="14.00">theme </text>
<text text-anchor="start" x="851.14" y="-117" font-family="Arial" font-size="14.00" fill="#666666">[text]</text>
<polygon fill="none" stroke="black" points="801.34,-74 801.34,-104.8 1055.02,-104.8 1055.02,-74 801.34,-74"/>
<text text-anchor="start" x="808.34" y="-86.2" font-family="Arial" font-size="14.00">created_at </text>
<text text-anchor="start" x="878.39" y="-86.2" font-family="Arial" font-size="14.00" fill="#666666">[timestamp with time zone]</text>
<polygon fill="none" stroke="black" points="801.34,-43.2 801.34,-74 1055.02,-74 1055.02,-43.2 801.34,-43.2"/>
<text text-anchor="start" x="808.34" y="-55.4" font-family="Arial" font-size="14.00">updated_at </text>
<text text-anchor="start" x="882.3" y="-55.4" font-family="Arial" font-size="14.00" fill="#666666">[timestamp with time zone]</text>
</g>
<!-- public.guilds&#45;&gt;public.users -->
<g id="edge6" class="edge">
<title>public.guilds:owner_id&#45;&gt;public.users:id</title>
<path fill="none" stroke="black" d="M1066.1,-557.77C1182.24,-543.07 1178.88,-274.2 1056.02,-274.2"/>
<polygon fill="black" stroke="black" points="1066.34,-557.76 1056.08,-553.89 1061.01,-558.09 1056.69,-558.36 1056.69,-558.36 1056.69,-558.36 1061.01,-558.09 1056.63,-562.87 1066.34,-557.76"/>
<text text-anchor="start" x="1063.02" y="-568.4" font-family="Arial" font-size="10.00">FOREIGN KEY (owner_id) REFERENCES users(id) ON DELETE RESTRICT</text>
</g>
<!-- public.guild_members -->
<g id="node2" class="node">
<title>public.guild_members</title>
<polygon fill="#efefef" stroke="none" points="43.2,-996.6 43.2,-1032.2 343.16,-1032.2 343.16,-996.6 43.2,-996.6"/>
<polygon fill="none" stroke="black" points="43.2,-996.6 43.2,-1032.2 343.16,-1032.2 343.16,-996.6 43.2,-996.6"/>
<text text-anchor="start" x="50.2" y="-1010" font-family="Arial Bold" font-size="18.00">public.guild_members</text>
<text text-anchor="start" x="211.67" y="-1010" font-family="Arial" font-size="14.00">    </text>
<text text-anchor="start" x="242.79" y="-1010" font-family="Arial" font-size="14.00" fill="#666666">[BASE TABLE]</text>
<polygon fill="none" stroke="black" points="43.2,-965.8 43.2,-996.6 343.16,-996.6 343.16,-965.8 43.2,-965.8"/>
<text text-anchor="start" x="50.2" y="-978" font-family="Arial" font-size="14.00">guild_id </text>
<text text-anchor="start" x="102.35" y="-978" font-family="Arial" font-size="14.00" fill="#666666">[bigint]</text>
<polygon fill="none" stroke="black" points="43.2,-935 43.2,-965.8 343.16,-965.8 343.16,-935 43.2,-935"/>
<text text-anchor="start" x="50.2" y="-947.2" font-family="Arial" font-size="14.00">user_id </text>
<text text-anchor="start" x="100.01" y="-947.2" font-family="Arial" font-size="14.00" fill="#666666">[bigint]</text>
<polygon fill="none" stroke="black" points="43.2,-904.2 43.2,-935 343.16,-935 343.16,-904.2 43.2,-904.2"/>
<text text-anchor="start" x="50.2" y="-916.4" font-family="Arial" font-size="14.00">joined_at </text>
<text text-anchor="start" x="110.92" y="-916.4" font-family="Arial" font-size="14.00" fill="#666666">[timestamp with time zone]</text>
<polygon fill="none" stroke="black" points="43.2,-873.4 43.2,-904.2 343.16,-904.2 343.16,-873.4 43.2,-873.4"/>
<text text-anchor="start" x="50.2" y="-885.6" font-family="Arial" font-size="14.00">nickname </text>
<text text-anchor="start" x="114.01" y="-885.6" font-family="Arial" font-size="14.00" fill="#666666">[text]</text>
</g>
<!-- public.guild_members&#45;&gt;public.guilds -->
<g id="edge1" class="edge">
<title>public.guild_members:guild_id&#45;&gt;public.guilds:id</title>
<path fill="none" stroke="black" d="M354.55,-980.62C439.39,-970.38 327.94,-827.34 395.18,-753.2 458.85,-683 705.56,-620 800.34,-620"/>
<polygon fill="black" stroke="black" points="354.48,-980.62 344.24,-976.69 349.15,-980.92 344.83,-981.16 344.83,-981.16 344.83,-981.16 349.15,-980.92 344.75,-985.67 354.48,-980.62"/>
<text text-anchor="start" x="351.16" y="-991.2" font-family="Arial" font-size="10.00">FOREIGN KEY (guild_id) REFERENCES guilds(id) ON DELETE CASCADE</text>
</g>
<!-- public.invites -->
<g id="node3" class="node">
<title>public.invites</title>
<polygon fill="#efefef" stroke="none" points="447.3,-1073.6 447.3,-1109.2 697.07,-1109.2 697.07,-1073.6 447.3,-1073.6"/>
<polygon fill="none" stroke="black" points="447.3,-1073.6 447.3,-1109.2 697.07,-1109.2 697.07,-1073.6 447.3,-1073.6"/>
<text text-anchor="start" x="461.19" y="-1087" font-family="Arial Bold" font-size="18.00">public.invites</text>
<text text-anchor="start" x="558.68" y="-1087" font-family="Arial" font-size="14.00">    </text>
<text text-anchor="start" x="589.8" y="-1087" font-family="Arial" font-size="14.00" fill="#666666">[BASE TABLE]</text>
<polygon fill="none" stroke="black" points="447.3,-1042.8 447.3,-1073.6 697.07,-1073.6 697.07,-1042.8 447.3,-1042.8"/>
<text text-anchor="start" x="454.3" y="-1055" font-family="Arial" font-size="14.00">id </text>
<text text-anchor="start" x="469.08" y="-1055" font-family="Arial" font-size="14.00" fill="#666666">[bigint]</text>
<polygon fill="none" stroke="black" points="447.3,-1012 447.3,-1042.8 697.07,-1042.8 697.07,-1012 447.3,-1012"/>
<text text-anchor="start" x="454.3" y="-1024.2" font-family="Arial" font-size="14.00">guild_id </text>
<text text-anchor="start" x="506.45" y="-1024.2" font-family="Arial" font-size="14.00" fill="#666666">[bigint]</text>
<polygon fill="none" stroke="black" points="447.3,-981.2 447.3,-1012 697.07,-1012 697.07,-981.2 447.3,-981.2"/>
<text text-anchor="start" x="454.3" y="-993.4" font-family="Arial" font-size="14.00">created_by </text>
<text text-anchor="start" x="527.45" y="-993.4" font-family="Arial" font-size="14.00" fill="#666666">[bigint]</text>
<polygon fill="none" stroke="black" points="447.3,-950.4 447.3,-981.2 697.07,-981.2 697.07,-950.4 447.3,-950.4"/>
<text text-anchor="start" x="454.3" y="-962.6" font-family="Arial" font-size="14.00">code </text>
<text text-anchor="start" x="488.54" y="-962.6" font-family="Arial" font-size="14.00" fill="#666666">[text]</text>
<polygon fill="none" stroke="black" points="447.3,-919.6 447.3,-950.4 697.07,-950.4 697.07,-919.6 447.3,-919.6"/>
<text text-anchor="start" x="454.3" y="-931.8" font-family="Arial" font-size="14.00">expires_at </text>
<text text-anchor="start" x="522.78" y="-931.8" font-family="Arial" font-size="14.00" fill="#666666">[timestamp with time zone]</text>
<polygon fill="none" stroke="black" points="447.3,-888.8 447.3,-919.6 697.07,-919.6 697.07,-888.8 447.3,-888.8"/>
<text text-anchor="start" x="454.3" y="-901" font-family="Arial" font-size="14.00">max_uses </text>
<text text-anchor="start" x="521.99" y="-901" font-family="Arial" font-size="14.00" fill="#666666">[integer]</text>
<polygon fill="none" stroke="black" points="447.3,-858 447.3,-888.8 697.07,-888.8 697.07,-858 447.3,-858"/>
<text text-anchor="start" x="454.3" y="-870.2" font-family="Arial" font-size="14.00">uses </text>
<text text-anchor="start" x="487.76" y="-870.2" font-family="Arial" font-size="14.00" fill="#666666">[integer]</text>
<polygon fill="none" stroke="black" points="447.3,-827.2 447.3,-858 697.07,-858 697.07,-827.2 447.3,-827.2"/>
<text text-anchor="start" x="454.3" y="-839.4" font-family="Arial" font-size="14.00">is_disabled </text>
<text text-anchor="start" x="528.23" y="-839.4" font-family="Arial" font-size="14.00" fill="#666666">[boolean]</text>
<polygon fill="none" stroke="black" points="447.3,-796.4 447.3,-827.2 697.07,-827.2 697.07,-796.4 447.3,-796.4"/>
<text text-anchor="start" x="454.3" y="-808.6" font-family="Arial" font-size="14.00">created_at </text>
<text text-anchor="start" x="524.34" y="-808.6" font-family="Arial" font-size="14.00" fill="#666666">[timestamp with time zone]</text>
</g>
<!-- public.invites&#45;&gt;public.guilds -->
<g id="edge2" class="edge">
<title>public.invites:guild_id&#45;&gt;public.guilds:id</title>
<path fill="none" stroke="black" d="M708.07,-1025.26C756.95,-1002.79 733.31,-809.35 749.18,-753.2 766.43,-692.18 736.92,-620 800.34,-620"/>
<polygon fill="black" stroke="black" points="708.17,-1025.24 697.45,-1022.93 702.96,-1026.36 698.72,-1027.26 698.72,-1027.26 698.72,-1027.26 702.96,-1026.36 699.33,-1031.73 708.17,-1025.24"/>
<text text-anchor="start" x="353.76" y="-1037.4" font-family="Arial" font-size="10.00">FOREIGN KEY (guild_id) REFERENCES guilds(id) ON DELETE CASCADE</text>
</g>
<!-- public.channels -->
<g id="node4" class="node">
<title>public.channels</title>
<polygon fill="#efefef" stroke="none" points="801.34,-1042.8 801.34,-1078.4 1055.02,-1078.4 1055.02,-1042.8 801.34,-1042.8"/>
<polygon fill="none" stroke="black" points="801.34,-1042.8 801.34,-1078.4 1055.02,-1078.4 1055.02,-1042.8 801.34,-1042.8"/>
<text text-anchor="start" x="809.7" y="-1056.2" font-family="Arial Bold" font-size="18.00">public.channels</text>
<text text-anchor="start" x="922.17" y="-1056.2" font-family="Arial" font-size="14.00">    </text>
<text text-anchor="start" x="953.29" y="-1056.2" font-family="Arial" font-size="14.00" fill="#666666">[BASE TABLE]</text>
<polygon fill="none" stroke="black" points="801.34,-1012 801.34,-1042.8 1055.02,-1042.8 1055.02,-1012 801.34,-1012"/>
<text text-anchor="start" x="808.34" y="-1024.2" font-family="Arial" font-size="14.00">id </text>
<text text-anchor="start" x="823.13" y="-1024.2" font-family="Arial" font-size="14.00" fill="#666666">[bigint]</text>
<polygon fill="none" stroke="black" points="801.34,-981.2 801.34,-1012 1055.02,-1012 1055.02,-981.2 801.34,-981.2"/>
<text text-anchor="start" x="808.34" y="-993.4" font-family="Arial" font-size="14.00">type </text>
<text text-anchor="start" x="838.69" y="-993.4" font-family="Arial" font-size="14.00" fill="#666666">[channel_type]</text>
<polygon fill="none" stroke="black" points="801.34,-950.4 801.34,-981.2 1055.02,-981.2 1055.02,-950.4 801.34,-950.4"/>
<text text-anchor="start" x="808.34" y="-962.6" font-family="Arial" font-size="14.00">guild_id </text>
<text text-anchor="start" x="860.49" y="-962.6" font-family="Arial" font-size="14.00" fill="#666666">[bigint]</text>
<polygon fill="none" stroke="black" points="801.34,-919.6 801.34,-950.4 1055.02,-950.4 1055.02,-919.6 801.34,-919.6"/>
<text text-anchor="start" x="808.34" y="-931.8" font-family="Arial" font-size="14.00">name </text>
<text text-anchor="start" x="847.25" y="-931.8" font-family="Arial" font-size="14.00" fill="#666666">[text]</text>
<polygon fill="none" stroke="black" points="801.34,-888.8 801.34,-919.6 1055.02,-919.6 1055.02,-888.8 801.34,-888.8"/>
<text text-anchor="start" x="808.34" y="-901" font-family="Arial" font-size="14.00">created_by </text>
<text text-anchor="start" x="881.5" y="-901" font-family="Arial" font-size="14.00" fill="#666666">[bigint]</text>
<polygon fill="none" stroke="black" points="801.34,-858 801.34,-888.8 1055.02,-888.8 1055.02,-858 801.34,-858"/>
<text text-anchor="start" x="808.34" y="-870.2" font-family="Arial" font-size="14.00">created_at </text>
<text text-anchor="start" x="878.39" y="-870.2" font-family="Arial" font-size="14.00" fill="#666666">[timestamp with time zone]</text>
<polygon fill="none" stroke="black" points="801.34,-827.2 801.34,-858 1055.02,-858 1055.02,-827.2 801.34,-827.2"/>
<text text-anchor="start" x="808.34" y="-839.4" font-family="Arial" font-size="14.00">updated_at </text>
<text text-anchor="start" x="882.3" y="-839.4" font-family="Arial" font-size="14.00" fill="#666666">[timestamp with time zone]</text>
</g>
<!-- public.channels&#45;&gt;public.guilds -->
<g id="edge3" class="edge">
<title>public.channels:guild_id&#45;&gt;public.guilds:id</title>
<path fill="none" stroke="black" d="M1064.32,-959.8C1094.21,-913.88 1091.44,-620 1056.02,-620"/>
<polygon fill="black" stroke="black" points="1064.4,-959.75 1053.66,-961.96 1060.07,-962.87 1056.56,-965.41 1056.56,-965.41 1056.56,-965.41 1060.07,-962.87 1058.93,-969.25 1064.4,-959.75"/>
<text text-anchor="start" x="711.71" y="-975.8" font-family="Arial" font-size="10.00">FOREIGN KEY (guild_id) REFERENCES guilds(id) ON DELETE CASCADE</text>
</g>
<!-- public.guild_roles -->
<g id="node5" class="node">
<title>public.guild_roles</title>
<polygon fill="#efefef" stroke="none" points="1159.7,-981.2 1159.7,-1016.8 1428.67,-1016.8 1428.67,-981.2 1159.7,-981.2"/>
<polygon fill="none" stroke="black" points="1159.7,-981.2 1159.7,-1016.8 1428.67,-1016.8 1428.67,-981.2 1159.7,-981.2"/>
<text text-anchor="start" x="1166.7" y="-994.6" font-family="Arial Bold" font-size="18.00">public.guild_roles</text>
<text text-anchor="start" x="1297.18" y="-994.6" font-family="Arial" font-size="14.00">    </text>
<text text-anchor="start" x="1328.29" y="-994.6" font-family="Arial" font-size="14.00" fill="#666666">[BASE TABLE]</text>
<polygon fill="none" stroke="black" points="1159.7,-950.4 1159.7,-981.2 1428.67,-981.2 1428.67,-950.4 1159.7,-950.4"/>
<text text-anchor="start" x="1166.7" y="-962.6" font-family="Arial" font-size="14.00">guild_id </text>
<text text-anchor="start" x="1218.85" y="-962.6" font-family="Arial" font-size="14.00" fill="#666666">[bigint]</text>
<polygon fill="none" stroke="black" points="1159.7,-919.6 1159.7,-950.4 1428.67,-950.4 1428.67,-919.6 1159.7,-919.6"/>
<text text-anchor="start" x="1166.7" y="-931.8" font-family="Arial" font-size="14.00">level </text>
<text text-anchor="start" x="1199.38" y="-931.8" font-family="Arial" font-size="14.00" fill="#666666">[role_level]</text>
<polygon fill="none" stroke="black" points="1159.7,-888.8 1159.7,-919.6 1428.67,-919.6 1428.67,-888.8 1159.7,-888.8"/>
<text text-anchor="start" x="1166.7" y="-901" font-family="Arial" font-size="14.00">name </text>
<text text-anchor="start" x="1205.61" y="-901" font-family="Arial" font-size="14.00" fill="#666666">[text]</text>
</g>
<!-- public.guild_roles&#45;&gt;public.guilds -->
<g id="edge4" class="edge">
<title>public.guild_roles:guild_id&#45;&gt;public.guilds:id</title>
<path fill="none" stroke="black" d="M1148.83,-963.17C1111.66,-941.79 1120.58,-796.16 1107.18,-753.2 1088.31,-692.66 1119.44,-620 1056.02,-620"/>
<polygon fill="black" stroke="black" points="1148.71,-963.14 1157.21,-970.06 1153.86,-964.51 1158.05,-965.63 1158.05,-965.63 1158.05,-965.63 1153.86,-964.51 1159.53,-961.37 1148.71,-963.14"/>
<text text-anchor="start" x="902.21" y="-949.8" font-family="Arial" font-size="10.00">FOREIGN KEY (guild_id) REFERENCES guilds(id) ON DELETE CASCADE</text>
</g>
<!-- public.audit_logs -->
<g id="node6" class="node">
<title>public.audit_logs</title>
<polygon fill="#efefef" stroke="none" points="1532.69,-1058.2 1532.69,-1093.8 1795.67,-1093.8 1795.67,-1058.2 1532.69,-1058.2"/>
<polygon fill="none" stroke="black" points="1532.69,-1058.2 1532.69,-1093.8 1795.67,-1093.8 1795.67,-1058.2 1532.69,-1058.2"/>
<text text-anchor="start" x="1539.69" y="-1071.6" font-family="Arial Bold" font-size="18.00">public.audit_logs</text>
<text text-anchor="start" x="1664.18" y="-1071.6" font-family="Arial" font-size="14.00">    </text>
<text text-anchor="start" x="1695.3" y="-1071.6" font-family="Arial" font-size="14.00" fill="#666666">[BASE TABLE]</text>
<polygon fill="none" stroke="black" points="1532.69,-1027.4 1532.69,-1058.2 1795.67,-1058.2 1795.67,-1027.4 1532.69,-1027.4"/>
<text text-anchor="start" x="1539.69" y="-1039.6" font-family="Arial" font-size="14.00">id </text>
<text text-anchor="start" x="1554.48" y="-1039.6" font-family="Arial" font-size="14.00" fill="#666666">[bigint]</text>
<polygon fill="none" stroke="black" points="1532.69,-996.6 1532.69,-1027.4 1795.67,-1027.4 1795.67,-996.6 1532.69,-996.6"/>
<text text-anchor="start" x="1539.69" y="-1008.8" font-family="Arial" font-size="14.00">guild_id </text>
<text text-anchor="start" x="1591.84" y="-1008.8" font-family="Arial" font-size="14.00" fill="#666666">[bigint]</text>
<polygon fill="none" stroke="black" points="1532.69,-965.8 1532.69,-996.6 1795.67,-996.6 1795.67,-965.8 1532.69,-965.8"/>
<text text-anchor="start" x="1539.69" y="-978" font-family="Arial" font-size="14.00">actor_id </text>
<text text-anchor="start" x="1593.39" y="-978" font-family="Arial" font-size="14.00" fill="#666666">[bigint]</text>
<polygon fill="none" stroke="black" points="1532.69,-935 1532.69,-965.8 1795.67,-965.8 1795.67,-935 1532.69,-935"/>
<text text-anchor="start" x="1539.69" y="-947.2" font-family="Arial" font-size="14.00">action </text>
<text text-anchor="start" x="1580.94" y="-947.2" font-family="Arial" font-size="14.00" fill="#666666">[audit_action]</text>
<polygon fill="none" stroke="black" points="1532.69,-904.2 1532.69,-935 1795.67,-935 1795.67,-904.2 1532.69,-904.2"/>
<text text-anchor="start" x="1539.69" y="-916.4" font-family="Arial" font-size="14.00">target_type </text>
<text text-anchor="start" x="1613.63" y="-916.4" font-family="Arial" font-size="14.00" fill="#666666">[text]</text>
<polygon fill="none" stroke="black" points="1532.69,-873.4 1532.69,-904.2 1795.67,-904.2 1795.67,-873.4 1532.69,-873.4"/>
<text text-anchor="start" x="1539.69" y="-885.6" font-family="Arial" font-size="14.00">target_id </text>
<text text-anchor="start" x="1598.06" y="-885.6" font-family="Arial" font-size="14.00" fill="#666666">[bigint]</text>
<polygon fill="none" stroke="black" points="1532.69,-842.6 1532.69,-873.4 1795.67,-873.4 1795.67,-842.6 1532.69,-842.6"/>
<text text-anchor="start" x="1539.69" y="-854.8" font-family="Arial" font-size="14.00">metadata </text>
<text text-anchor="start" x="1601.95" y="-854.8" font-family="Arial" font-size="14.00" fill="#666666">[jsonb]</text>
<polygon fill="none" stroke="black" points="1532.69,-811.8 1532.69,-842.6 1795.67,-842.6 1795.67,-811.8 1532.69,-811.8"/>
<text text-anchor="start" x="1539.69" y="-824" font-family="Arial" font-size="14.00">created_at </text>
<text text-anchor="start" x="1609.74" y="-824" font-family="Arial" font-size="14.00" fill="#666666">[timestamp with time zone]</text>
</g>
<!-- public.audit_logs&#45;&gt;public.guilds -->
<g id="edge5" class="edge">
<title>public.audit_logs:guild_id&#45;&gt;public.guilds:id</title>
<path fill="none" stroke="black" d="M1521.46,-1011.51C1423.33,-1001.37 1556.89,-837.8 1481.18,-753.2 1415.16,-679.42 1155.03,-620 1056.02,-620"/>
<polygon fill="black" stroke="black" points="1521.37,-1011.5 1531.14,-1016.48 1526.7,-1011.76 1531.02,-1011.97 1531.02,-1011.97 1531.02,-1011.97 1526.7,-1011.76 1531.58,-1007.49 1521.37,-1011.5"/>
<text text-anchor="start" x="1538.69" y="-1022" font-family="Arial" font-size="10.00">FOREIGN KEY (guild_id) REFERENCES guilds(id) ON DELETE SET NULL</text>
</g>
</g>
</svg>
