<?xml version="1.0" encoding="UTF-8" standalone="no"?>
<!DOCTYPE svg PUBLIC "-//W3C//DTD SVG 1.1//EN"
 "http://www.w3.org/Graphics/SVG/1.1/DTD/svg11.dtd">
<!-- Generated by graphviz version 12.1.2 (20240928.0832)
 -->
<!-- Title: public.invites Pages: 1 -->
<svg width="976pt" height="1130pt"
 viewBox="0.00 0.00 976.42 1129.60" xmlns="http://www.w3.org/2000/svg" xmlns:xlink="http://www.w3.org/1999/xlink">
<g id="graph0" class="graph" transform="scale(1 1) rotate(0) translate(4 1125.6)">
<title>public.invites</title>
<polygon fill="white" stroke="none" points="-4,4 -4,-1125.6 972.42,-1125.6 972.42,4 -4,4"/>
<!-- public.invites -->
<g id="node1" class="node">
<title>public.invites</title>
<polygon fill="#efefef" stroke="none" points="352.31,-789.4 352.31,-825 602.08,-825 602.08,-789.4 352.31,-789.4"/>
<polygon fill="none" stroke="black" points="352.31,-789.4 352.31,-825 602.08,-825 602.08,-789.4 352.31,-789.4"/>
<text text-anchor="start" x="366.21" y="-802.8" font-family="Arial Bold" font-size="18.00">public.invites</text>
<text text-anchor="start" x="463.69" y="-802.8" font-family="Arial" font-size="14.00">    </text>
<text text-anchor="start" x="494.81" y="-802.8" font-family="Arial" font-size="14.00" fill="#666666">[BASE TABLE]</text>
<polygon fill="none" stroke="black" points="352.31,-758.6 352.31,-789.4 602.08,-789.4 602.08,-758.6 352.31,-758.6"/>
<text text-anchor="start" x="359.31" y="-770.8" font-family="Arial" font-size="14.00">id </text>
<text text-anchor="start" x="374.1" y="-770.8" font-family="Arial" font-size="14.00" fill="#666666">[bigint]</text>
<polygon fill="none" stroke="black" points="352.31,-727.8 352.31,-758.6 602.08,-758.6 602.08,-727.8 352.31,-727.8"/>
<text text-anchor="start" x="359.31" y="-740" font-family="Arial" font-size="14.00">guild_id </text>
<text text-anchor="start" x="411.46" y="-740" font-family="Arial" font-size="14.00" fill="#666666">[bigint]</text>
<polygon fill="none" stroke="black" points="352.31,-697 352.31,-727.8 602.08,-727.8 602.08,-697 352.31,-697"/>
<text text-anchor="start" x="359.31" y="-709.2" font-family="Arial" font-size="14.00">created_by </text>
<text text-anchor="start" x="432.47" y="-709.2" font-family="Arial" font-size="14.00" fill="#666666">[bigint]</text>
<polygon fill="none" stroke="black" points="352.31,-666.2 352.31,-697 602.08,-697 602.08,-666.2 352.31,-666.2"/>
<text text-anchor="start" x="359.31" y="-678.4" font-family="Arial" font-size="14.00">code </text>
<text text-anchor="start" x="393.56" y="-678.4" font-family="Arial" font-size="14.00" fill="#666666">[text]</text>
<polygon fill="none" stroke="black" points="352.31,-635.4 352.31,-666.2 602.08,-666.2 602.08,-635.4 352.31,-635.4"/>
<text text-anchor="start" x="359.31" y="-647.6" font-family="Arial" font-size="14.00">expires_at </text>
<text text-anchor="start" x="427.79" y="-647.6" font-family="Arial" font-size="14.00" fill="#666666">[timestamp with time zone]</text>
<polygon fill="none" stroke="black" points="352.31,-604.6 352.31,-635.4 602.08,-635.4 602.08,-604.6 352.31,-604.6"/>
<text text-anchor="start" x="359.31" y="-616.8" font-family="Arial" font-size="14.00">max_uses </text>
<text text-anchor="start" x="427.01" y="-616.8" font-family="Arial" font-size="14.00" fill="#666666">[integer]</text>
<polygon fill="none" stroke="black" points="352.31,-573.8 352.31,-604.6 602.08,-604.6 602.08,-573.8 352.31,-573.8"/>
<text text-anchor="start" x="359.31" y="-586" font-family="Arial" font-size="14.00">uses </text>
<text text-anchor="start" x="392.77" y="-586" font-family="Arial" font-size="14.00" fill="#666666">[integer]</text>
<polygon fill="none" stroke="black" points="352.31,-543 352.31,-573.8 602.08,-573.8 602.08,-543 352.31,-543"/>
<text text-anchor="start" x="359.31" y="-555.2" font-family="Arial" font-size="14.00">is_disabled </text>
<text text-anchor="start" x="433.25" y="-555.2" font-family="Arial" font-size="14.00" fill="#666666">[boolean]</text>
<polygon fill="none" stroke="black" points="352.31,-512.2 352.31,-543 602.08,-543 602.08,-512.2 352.31,-512.2"/>
<text text-anchor="start" x="359.31" y="-524.4" font-family="Arial" font-size="14.00">created_at </text>
<text text-anchor="start" x="429.36" y="-524.4" font-family="Arial" font-size="14.00" fill="#666666">[timestamp with time zone]</text>
<polygon fill="none" stroke="black" stroke-width="3" points="350.81,-510.7 350.81,-826.5 603.58,-826.5 603.58,-510.7 350.81,-510.7"/>
</g>
<!-- public.guilds -->
<g id="node3" class="node">
<title>public.guilds</title>
<polygon fill="#efefef" stroke="none" points="171.35,-289.6 171.35,-325.2 425.04,-325.2 425.04,-289.6 171.35,-289.6"/>
<polygon fill="none" stroke="black" points="171.35,-289.6 171.35,-325.2 425.04,-325.2 425.04,-289.6 171.35,-289.6"/>
<text text-anchor="start" x="189.2" y="-303" font-family="Arial Bold" font-size="18.00">public.guilds</text>
<text text-anchor="start" x="282.7" y="-303" font-family="Arial" font-size="14.00">    </text>
<text text-anchor="start" x="313.82" y="-303" font-family="Arial" font-size="14.00" fill="#666666">[BASE TABLE]</text>
<polygon fill="none" stroke="black" points="171.35,-258.8 171.35,-289.6 425.04,-289.6 425.04,-258.8 171.35,-258.8"/>
<text text-anchor="start" x="178.35" y="-271" font-family="Arial" font-size="14.00">id </text>
<text text-anchor="start" x="193.14" y="-271" font-family="Arial" font-size="14.00" fill="#666666">[bigint]</text>
<polygon fill="none" stroke="black" points="171.35,-228 171.35,-258.8 425.04,-258.8 425.04,-228 171.35,-228"/>
<text text-anchor="start" x="178.35" y="-240.2" font-family="Arial" font-size="14.00">name </text>
<text text-anchor="start" x="217.26" y="-240.2" font-family="Arial" font-size="14.00" fill="#666666">[text]</text>
<polygon fill="none" stroke="black" points="171.35,-197.2 171.35,-228 425.04,-228 425.04,-197.2 171.35,-197.2"/>
<text text-anchor="start" x="178.35" y="-209.4" font-family="Arial" font-size="14.00">owner_id </text>
<text text-anchor="start" x="239.06" y="-209.4" font-family="Arial" font-size="14.00" fill="#666666">[bigint]</text>
<polygon fill="none" stroke="black" points="171.35,-166.4 171.35,-197.2 425.04,-197.2 425.04,-166.4 171.35,-166.4"/>
<text text-anchor="start" x="178.35" y="-178.6" font-family="Arial" font-size="14.00">icon_key </text>
<text text-anchor="start" x="237.5" y="-178.6" font-family="Arial" font-size="14.00" fill="#666666">[text]</text>
<polygon fill="none" stroke="black" points="171.35,-135.6 171.35,-166.4 425.04,-166.4 425.04,-135.6 171.35,-135.6"/>
<text text-anchor="start" x="178.35" y="-147.8" font-family="Arial" font-size="14.00">created_at </text>
<text text-anchor="start" x="248.4" y="-147.8" font-family="Arial" font-size="14.00" fill="#666666">[timestamp with time zone]</text>
<polygon fill="none" stroke="black" points="171.35,-104.8 171.35,-135.6 425.04,-135.6 425.04,-104.8 171.35,-104.8"/>
<text text-anchor="start" x="178.35" y="-117" font-family="Arial" font-size="14.00">updated_at </text>
<text text-anchor="start" x="252.31" y="-117" font-family="Arial" font-size="14.00" fill="#666666">[timestamp with time zone]</text>
</g>
<!-- public.invites&#45;&gt;public.guilds -->
<g id="edge2" class="edge">
<title>public.invites:guild_id&#45;&gt;public.guilds:id</title>
<path fill="none" stroke="black" d="M341.01,-742.79C233.06,-733.84 314.46,-579.44 352.31,-466 369.43,-414.68 407.74,-419.66 425.04,-368.4 438.43,-328.73 467.91,-274.2 426.04,-274.2"/>
<polygon fill="black" stroke="black" points="340.98,-742.79 350.8,-747.68 346.31,-743 350.64,-743.17 350.64,-743.17 350.64,-743.17 346.31,-743 351.15,-738.69 340.98,-742.79"/>
<text text-anchor="start" x="7" y="-753.2" font-family="Arial" font-size="10.00">FOREIGN KEY (guild_id) REFERENCES guilds(id) ON DELETE CASCADE</text>
</g>
<!-- public.users -->
<g id="node4" class="node">
<title>public.users</title>
<polygon fill="#efefef" stroke="none" points="529.35,-351.2 529.35,-386.8 783.04,-386.8 783.04,-351.2 529.35,-351.2"/>
<polygon fill="none" stroke="black" points="529.35,-351.2 529.35,-386.8 783.04,-386.8 783.04,-351.2 529.35,-351.2"/>
<text text-anchor="start" x="550.71" y="-364.6" font-family="Arial Bold" font-size="18.00">public.users</text>
<text text-anchor="start" x="637.19" y="-364.6" font-family="Arial" font-size="14.00">    </text>
<text text-anchor="start" x="668.31" y="-364.6" font-family="Arial" font-size="14.00" fill="#666666">[BASE TABLE]</text>
<polygon fill="none" stroke="black" points="529.35,-320.4 529.35,-351.2 783.04,-351.2 783.04,-320.4 529.35,-320.4"/>
<text text-anchor="start" x="536.35" y="-332.6" font-family="Arial" font-size="14.00">id </text>
<text text-anchor="start" x="551.14" y="-332.6" font-family="Arial" font-size="14.00" fill="#666666">[bigint]</text>
<polygon fill="none" stroke="black" points="529.35,-289.6 529.35,-320.4 783.04,-320.4 783.04,-289.6 529.35,-289.6"/>
<text text-anchor="start" x="536.35" y="-301.8" font-family="Arial" font-size="14.00">email </text>
<text text-anchor="start" x="573.7" y="-301.8" font-family="Arial" font-size="14.00" fill="#666666">[text]</text>
<polygon fill="none" stroke="black" points="529.35,-258.8 529.35,-289.6 783.04,-289.6 783.04,-258.8 529.35,-258.8"/>
<text text-anchor="start" x="536.35" y="-271" font-family="Arial" font-size="14.00">email_verified </text>
<text text-anchor="start" x="626.62" y="-271" font-family="Arial" font-size="14.00" fill="#666666">[boolean]</text>
<polygon fill="none" stroke="black" points="529.35,-228 529.35,-258.8 783.04,-258.8 783.04,-228 529.35,-228"/>
<text text-anchor="start" x="536.35" y="-240.2" font-family="Arial" font-size="14.00">password_hash </text>
<text text-anchor="start" x="638.31" y="-240.2" font-family="Arial" font-size="14.00" fill="#666666">[text]</text>
<polygon fill="none" stroke="black" points="529.35,-197.2 529.35,-228 783.04,-228 783.04,-197.2 529.35,-197.2"/>
<text text-anchor="start" x="536.35" y="-209.4" font-family="Arial" font-size="14.00">display_name </text>
<text text-anchor="start" x="626.63" y="-209.4" font-family="Arial" font-size="14.00" fill="#666666">[text]</text>
<polygon fill="none" stroke="black" points="529.35,-166.4 529.35,-197.2 783.04,-197.2 783.04,-166.4 529.35,-166.4"/>
<text text-anchor="start" x="536.35" y="-178.6" font-family="Arial" font-size="14.00">avatar_key </text>
<text text-anchor="start" x="608.73" y="-178.6" font-family="Arial" font-size="14.00" fill="#666666">[text]</text>
<polygon fill="none" stroke="black" points="529.35,-135.6 529.35,-166.4 783.04,-166.4 783.04,-135.6 529.35,-135.6"/>
<text text-anchor="start" x="536.35" y="-147.8" font-family="Arial" font-size="14.00">status_text </text>
<text text-anchor="start" x="607.95" y="-147.8" font-family="Arial" font-size="14.00" fill="#666666">[text]</text>
<polygon fill="none" stroke="black" points="529.35,-104.8 529.35,-135.6 783.04,-135.6 783.04,-104.8 529.35,-104.8"/>
<text text-anchor="start" x="536.35" y="-117" font-family="Arial" font-size="14.00">theme </text>
<text text-anchor="start" x="579.15" y="-117" font-family="Arial" font-size="14.00" fill="#666666">[text]</text>
<polygon fill="none" stroke="black" points="529.35,-74 529.35,-104.8 783.04,-104.8 783.04,-74 529.35,-74"/>
<text text-anchor="start" x="536.35" y="-86.2" font-family="Arial" font-size="14.00">created_at </text>
<text text-anchor="start" x="606.4" y="-86.2" font-family="Arial" font-size="14.00" fill="#666666">[timestamp with time zone]</text>
<polygon fill="none" stroke="black" points="529.35,-43.2 529.35,-74 783.04,-74 783.04,-43.2 529.35,-43.2"/>
<text text-anchor="start" x="536.35" y="-55.4" font-family="Arial" font-size="14.00">updated_at </text>
<text text-anchor="start" x="610.31" y="-55.4" font-family="Arial" font-size="14.00" fill="#666666">[timestamp with time zone]</text>
</g>
<!-- public.invites&#45;&gt;public.users -->
<g id="edge3" class="edge">
<title>public.invites:created_by&#45;&gt;public.users:id</title>
<path fill="none" stroke="black" d="M613.46,-711.9C709.1,-702.27 658.11,-555.84 602.08,-466 583,-435.4 548.54,-460.54 529.35,-430 507.08,-394.55 486.49,-335.8 528.35,-335.8"/>
<polygon fill="black" stroke="black" points="613.4,-711.9 603.2,-707.89 608.08,-712.16 603.75,-712.37 603.75,-712.37 603.75,-712.37 608.08,-712.16 603.63,-716.88 613.4,-711.9"/>
<text text-anchor="start" x="610.08" y="-722.4" font-family="Arial" font-size="10.00">FOREIGN KEY (created_by) REFERENCES users(id) ON DELETE SET NULL</text>
</g>
<!-- public.invite_uses -->
<g id="node2" class="node">
<title>public.invite_uses</title>
<polygon fill="#efefef" stroke="none" points="342.71,-1042.8 342.71,-1078.4 611.68,-1078.4 611.68,-1042.8 342.71,-1042.8"/>
<polygon fill="none" stroke="black" points="342.71,-1042.8 342.71,-1078.4 611.68,-1078.4 611.68,-1042.8 342.71,-1042.8"/>
<text text-anchor="start" x="349.71" y="-1056.2" font-family="Arial Bold" font-size="18.00">public.invite_uses</text>
<text text-anchor="start" x="480.19" y="-1056.2" font-family="Arial" font-size="14.00">    </text>
<text text-anchor="start" x="511.31" y="-1056.2" font-family="Arial" font-size="14.00" fill="#666666">[BASE TABLE]</text>
<polygon fill="none" stroke="black" points="342.71,-1012 342.71,-1042.8 611.68,-1042.8 611.68,-1012 342.71,-1012"/>
<text text-anchor="start" x="349.71" y="-1024.2" font-family="Arial" font-size="14.00">invite_id </text>
<text text-anchor="start" x="404.96" y="-1024.2" font-family="Arial" font-size="14.00" fill="#666666">[bigint]</text>
<polygon fill="none" stroke="black" points="342.71,-981.2 342.71,-1012 611.68,-1012 611.68,-981.2 342.71,-981.2"/>
<text text-anchor="start" x="349.71" y="-993.4" font-family="Arial" font-size="14.00">used_by </text>
<text text-anchor="start" x="406.53" y="-993.4" font-family="Arial" font-size="14.00" fill="#666666">[bigint]</text>
<polygon fill="none" stroke="black" points="342.71,-950.4 342.71,-981.2 611.68,-981.2 611.68,-950.4 342.71,-950.4"/>
<text text-anchor="start" x="349.71" y="-962.6" font-family="Arial" font-size="14.00">used_at </text>
<text text-anchor="start" x="403.42" y="-962.6" font-family="Arial" font-size="14.00" fill="#666666">[timestamp with time zone]</text>
</g>
<!-- public.invite_uses&#45;&gt;public.invites -->
<g id="edge1" class="edge">
<title>public.invite_uses:invite_id&#45;&gt;public.invites:id</title>
<path fill="none" stroke="black" d="M622.89,-1026.67C724.68,-1011.81 712.26,-774 603.08,-774"/>
<polygon fill="black" stroke="black" points="622.99,-1026.67 612.7,-1022.89 617.67,-1027.04 613.35,-1027.35 613.35,-1027.35 613.35,-1027.35 617.67,-1027.04 613.33,-1031.86 622.99,-1026.67"/>
<text text-anchor="start" x="619.68" y="-1037.4" font-family="Arial" font-size="10.00">FOREIGN KEY (invite_id) REFERENCES invites(id) ON DELETE CASCADE</text>
</g>
</g>
</svg>
