<?xml version="1.0" encoding="UTF-8" standalone="no"?>
<!DOCTYPE svg PUBLIC "-//W3C//DTD SVG 1.1//EN"
 "http://www.w3.org/Graphics/SVG/1.1/DTD/svg11.dtd">
<!-- Generated by graphviz version 12.1.2 (20240928.0832)
 -->
<!-- Title: public.auth_identities Pages: 1 -->
<svg width="715pt" height="694pt"
 viewBox="0.00 0.00 714.91 694.40" xmlns="http://www.w3.org/2000/svg" xmlns:xlink="http://www.w3.org/1999/xlink">
<g id="graph0" class="graph" transform="scale(1 1) rotate(0) translate(4 690.4)">
<title>public.auth_identities</title>
<polygon fill="white" stroke="none" points="-4,4 -4,-690.4 710.91,-690.4 710.91,4 -4,4"/>
<!-- public.auth_identities -->
<g id="node1" class="node">
<title>public.auth_identities</title>
<polygon fill="#efefef" stroke="none" points="46.2,-604.6 46.2,-640.2 340.16,-640.2 340.16,-604.6 46.2,-604.6"/>
<polygon fill="none" stroke="black" points="46.2,-604.6 46.2,-640.2 340.16,-640.2 340.16,-604.6 46.2,-604.6"/>
<text text-anchor="start" x="53.2" y="-618" font-family="Arial Bold" font-size="18.00">public.auth_identities</text>
<text text-anchor="start" x="208.67" y="-618" font-family="Arial" font-size="14.00">    </text>
<text text-anchor="start" x="239.79" y="-618" font-family="Arial" font-size="14.00" fill="#666666">[BASE TABLE]</text>
<polygon fill="none" stroke="black" points="46.2,-573.8 46.2,-604.6 340.16,-604.6 340.16,-573.8 46.2,-573.8"/>
<text text-anchor="start" x="53.2" y="-586" font-family="Arial" font-size="14.00">provider </text>
<text text-anchor="start" x="107.67" y="-586" font-family="Arial" font-size="14.00" fill="#666666">[text]</text>
<polygon fill="none" stroke="black" points="46.2,-543 46.2,-573.8 340.16,-573.8 340.16,-543 46.2,-543"/>
<text text-anchor="start" x="53.2" y="-555.2" font-family="Arial" font-size="14.00">provider_subject </text>
<text text-anchor="start" x="159.81" y="-555.2" font-family="Arial" font-size="14.00" fill="#666666">[text]</text>
<polygon fill="none" stroke="black" points="46.2,-512.2 46.2,-543 340.16,-543 340.16,-512.2 46.2,-512.2"/>
<text text-anchor="start" x="53.2" y="-524.4" font-family="Arial" font-size="14.00">principal_id </text>
<text text-anchor="start" x="127.91" y="-524.4" font-family="Arial" font-size="14.00" fill="#666666">[bigint]</text>
<polygon fill="none" stroke="black" points="46.2,-481.4 46.2,-512.2 340.16,-512.2 340.16,-481.4 46.2,-481.4"/>
<text text-anchor="start" x="53.2" y="-493.6" font-family="Arial" font-size="14.00">created_at </text>
<text text-anchor="start" x="123.25" y="-493.6" font-family="Arial" font-size="14.00" fill="#666666">[timestamp with time zone]</text>
<polygon fill="none" stroke="black" points="46.2,-450.6 46.2,-481.4 340.16,-481.4 340.16,-450.6 46.2,-450.6"/>
<text text-anchor="start" x="53.2" y="-462.8" font-family="Arial" font-size="14.00">updated_at </text>
<text text-anchor="start" x="127.16" y="-462.8" font-family="Arial" font-size="14.00" fill="#666666">[timestamp with time zone]</text>
<polygon fill="none" stroke="black" stroke-width="3" points="44.7,-449.1 44.7,-641.7 341.66,-641.7 341.66,-449.1 44.7,-449.1"/>
</g>
<!-- public.users -->
<g id="node2" class="node">
<title>public.users</title>
<polygon fill="#efefef" stroke="none" points="66.34,-289.6 66.34,-325.2 320.02,-325.2 320.02,-289.6 66.34,-289.6"/>
<polygon fill="none" stroke="black" points="66.34,-289.6 66.34,-325.2 320.02,-325.2 320.02,-289.6 66.34,-289.6"/>
<text text-anchor="start" x="87.69" y="-303" font-family="Arial Bold" font-size="18.00">public.users</text>
<text text-anchor="start" x="174.18" y="-303" font-family="Arial" font-size="14.00">    </text>
<text text-anchor="start" x="205.29" y="-303" font-family="Arial" font-size="14.00" fill="#666666">[BASE TABLE]</text>
<polygon fill="none" stroke="black" points="66.34,-258.8 66.34,-289.6 320.02,-289.6 320.02,-258.8 66.34,-258.8"/>
<text text-anchor="start" x="73.34" y="-271" font-family="Arial" font-size="14.00">id </text>
<text text-anchor="start" x="88.12" y="-271" font-family="Arial" font-size="14.00" fill="#666666">[bigint]</text>
<polygon fill="none" stroke="black" points="66.34,-228 66.34,-258.8 320.02,-258.8 320.02,-228 66.34,-228"/>
<text text-anchor="start" x="73.34" y="-240.2" font-family="Arial" font-size="14.00">email </text>
<text text-anchor="start" x="110.68" y="-240.2" font-family="Arial" font-size="14.00" fill="#666666">[text]</text>
<polygon fill="none" stroke="black" points="66.34,-197.2 66.34,-228 320.02,-228 320.02,-197.2 66.34,-197.2"/>
<text text-anchor="start" x="73.34" y="-209.4" font-family="Arial" font-size="14.00">display_name </text>
<text text-anchor="start" x="163.61" y="-209.4" font-family="Arial" font-size="14.00" fill="#666666">[text]</text>
<polygon fill="none" stroke="black" points="66.34,-166.4 66.34,-197.2 320.02,-197.2 320.02,-166.4 66.34,-166.4"/>
<text text-anchor="start" x="73.34" y="-178.6" font-family="Arial" font-size="14.00">avatar_key </text>
<text text-anchor="start" x="145.71" y="-178.6" font-family="Arial" font-size="14.00" fill="#666666">[text]</text>
<polygon fill="none" stroke="black" points="66.34,-135.6 66.34,-166.4 320.02,-166.4 320.02,-135.6 66.34,-135.6"/>
<text text-anchor="start" x="73.34" y="-147.8" font-family="Arial" font-size="14.00">status_text </text>
<text text-anchor="start" x="144.93" y="-147.8" font-family="Arial" font-size="14.00" fill="#666666">[text]</text>
<polygon fill="none" stroke="black" points="66.34,-104.8 66.34,-135.6 320.02,-135.6 320.02,-104.8 66.34,-104.8"/>
<text text-anchor="start" x="73.34" y="-117" font-family="Arial" font-size="14.00">theme </text>
<text text-anchor="start" x="116.14" y="-117" font-family="Arial" font-size="14.00" fill="#666666">[text]</text>
<polygon fill="none" stroke="black" points="66.34,-74 66.34,-104.8 320.02,-104.8 320.02,-74 66.34,-74"/>
<text text-anchor="start" x="73.34" y="-86.2" font-family="Arial" font-size="14.00">created_at </text>
<text text-anchor="start" x="143.39" y="-86.2" font-family="Arial" font-size="14.00" fill="#666666">[timestamp with time zone]</text>
<polygon fill="none" stroke="black" points="66.34,-43.2 66.34,-74 320.02,-74 320.02,-43.2 66.34,-43.2"/>
<text text-anchor="start" x="73.34" y="-55.4" font-family="Arial" font-size="14.00">updated_at </text>
<text text-anchor="start" x="147.3" y="-55.4" font-family="Arial" font-size="14.00" fill="#666666">[timestamp with time zone]</text>
</g>
<!-- public.auth_identities&#45;&gt;public.users -->
<g id="edge1" class="edge">
<title>public.auth_identities:principal_id&#45;&gt;public.users:id</title>
<path fill="none" stroke="black" d="M351.36,-526.87C452.79,-512.01 430.47,-274.2 321.02,-274.2"/>
<polygon fill="black" stroke="black" points="351.47,-526.87 341.17,-523.09 346.15,-527.24 341.83,-527.55 341.83,-527.55 341.83,-527.55 346.15,-527.24 341.81,-532.06 351.47,-526.87"/>
<text text-anchor="start" x="348.16" y="-537.6" font-family="Arial" font-size="10.00">FOREIGN KEY (principal_id) REFERENCES users(id) ON DELETE CASCADE</text>
</g>
</g>
</svg>
