<?xml version="1.0" encoding="UTF-8" standalone="no"?>
<!DOCTYPE svg PUBLIC "-//W3C//DTD SVG 1.1//EN"
 "http://www.w3.org/Graphics/SVG/1.1/DTD/svg11.dtd">
<!-- Generated by graphviz version 12.1.2 (20240928.0832)
 -->
<!-- Title: public.guild_members Pages: 1 -->
<svg width="1177pt" height="914pt"
 viewBox="0.00 0.00 1176.71 914.00" xmlns="http://www.w3.org/2000/svg" xmlns:xlink="http://www.w3.org/1999/xlink">
<g id="graph0" class="graph" transform="scale(1 1) rotate(0) translate(4 910)">
<title>public.guild_members</title>
<polygon fill="white" stroke="none" points="-4,4 -4,-910 1172.71,-910 1172.71,4 -4,4"/>
<!-- public.guild_members -->
<g id="node1" class="node">
<title>public.guild_members</title>
<polygon fill="#efefef" stroke="none" points="352.31,-573.8 352.31,-609.4 652.27,-609.4 652.27,-573.8 352.31,-573.8"/>
<polygon fill="none" stroke="black" points="352.31,-573.8 352.31,-609.4 652.27,-609.4 652.27,-573.8 352.31,-573.8"/>
<text text-anchor="start" x="359.31" y="-587.2" font-family="Arial Bold" font-size="18.00">public.guild_members</text>
<text text-anchor="start" x="520.78" y="-587.2" font-family="Arial" font-size="14.00">    </text>
<text text-anchor="start" x="551.9" y="-587.2" font-family="Arial" font-size="14.00" fill="#666666">[BASE TABLE]</text>
<polygon fill="none" stroke="black" points="352.31,-543 352.31,-573.8 652.27,-573.8 652.27,-543 352.31,-543"/>
<text text-anchor="start" x="359.31" y="-555.2" font-family="Arial" font-size="14.00">guild_id </text>
<text text-anchor="start" x="411.46" y="-555.2" font-family="Arial" font-size="14.00" fill="#666666">[bigint]</text>
<polygon fill="none" stroke="black" points="352.31,-512.2 352.31,-543 652.27,-543 652.27,-512.2 352.31,-512.2"/>
<text text-anchor="start" x="359.31" y="-524.4" font-family="Arial" font-size="14.00">user_id </text>
<text text-anchor="start" x="409.12" y="-524.4" font-family="Arial" font-size="14.00" fill="#666666">[bigint]</text>
<polygon fill="none" stroke="black" points="352.31,-481.4 352.31,-512.2 652.27,-512.2 652.27,-481.4 352.31,-481.4"/>
<text text-anchor="start" x="359.31" y="-493.6" font-family="Arial" font-size="14.00">joined_at </text>
<text text-anchor="start" x="420.03" y="-493.6" font-family="Arial" font-size="14.00" fill="#666666">[timestamp with time zone]</text>
<polygon fill="none" stroke="black" points="352.31,-450.6 352.31,-481.4 652.27,-481.4 652.27,-450.6 352.31,-450.6"/>
<text text-anchor="start" x="359.31" y="-462.8" font-family="Arial" font-size="14.00">nickname </text>
<text text-anchor="start" x="423.12" y="-462.8" font-family="Arial" font-size="14.00" fill="#666666">[text]</text>
<polygon fill="none" stroke="black" stroke-width="3" points="350.81,-449.1 350.81,-610.9 653.77,-610.9 653.77,-449.1 350.81,-449.1"/>
</g>
<!-- public.guilds -->
<g id="node2" class="node">
<title>public.guilds</title>
<polygon fill="#efefef" stroke="none" points="196.45,-258.8 196.45,-294.4 450.13,-294.4 450.13,-258.8 196.45,-258.8"/>
<polygon fill="none" stroke="black" points="196.45,-258.8 196.45,-294.4 450.13,-294.4 450.13,-258.8 196.45,-258.8"/>
<text text-anchor="start" x="214.3" y="-272.2" font-family="Arial Bold" font-size="18.00">public.guilds</text>
<text text-anchor="start" x="307.79" y="-272.2" font-family="Arial" font-size="14.00">    </text>
<text text-anchor="start" x="338.91" y="-272.2" font-family="Arial" font-size="14.00" fill="#666666">[BASE TABLE]</text>
<polygon fill="none" stroke="black" points="196.45,-228 196.45,-258.8 450.13,-258.8 450.13,-228 196.45,-228"/>
<text text-anchor="start" x="203.45" y="-240.2" font-family="Arial" font-size="14.00">id </text>
<text text-anchor="start" x="218.24" y="-240.2" font-family="Arial" font-size="14.00" fill="#666666">[bigint]</text>
<polygon fill="none" stroke="black" points="196.45,-197.2 196.45,-228 450.13,-228 450.13,-197.2 196.45,-197.2"/>
<text text-anchor="start" x="203.45" y="-209.4" font-family="Arial" font-size="14.00">name </text>
<text text-anchor="start" x="242.36" y="-209.4" font-family="Arial" font-size="14.00" fill="#666666">[text]</text>
<polygon fill="none" stroke="black" points="196.45,-166.4 196.45,-197.2 450.13,-197.2 450.13,-166.4 196.45,-166.4"/>
<text text-anchor="start" x="203.45" y="-178.6" font-family="Arial" font-size="14.00">owner_id </text>
<text text-anchor="start" x="264.15" y="-178.6" font-family="Arial" font-size="14.00" fill="#666666">[bigint]</text>
<polygon fill="none" stroke="black" points="196.45,-135.6 196.45,-166.4 450.13,-166.4 450.13,-135.6 196.45,-135.6"/>
<text text-anchor="start" x="203.45" y="-147.8" font-family="Arial" font-size="14.00">icon_key </text>
<text text-anchor="start" x="262.59" y="-147.8" font-family="Arial" font-size="14.00" fill="#666666">[text]</text>
<polygon fill="none" stroke="black" points="196.45,-104.8 196.45,-135.6 450.13,-135.6 450.13,-104.8 196.45,-104.8"/>
<text text-anchor="start" x="203.45" y="-117" font-family="Arial" font-size="14.00">created_at </text>
<text text-anchor="start" x="273.5" y="-117" font-family="Arial" font-size="14.00" fill="#666666">[timestamp with time zone]</text>
<polygon fill="none" stroke="black" points="196.45,-74 196.45,-104.8 450.13,-104.8 450.13,-74 196.45,-74"/>
<text text-anchor="start" x="203.45" y="-86.2" font-family="Arial" font-size="14.00">updated_at </text>
<text text-anchor="start" x="277.41" y="-86.2" font-family="Arial" font-size="14.00" fill="#666666">[timestamp with time zone]</text>
</g>
<!-- public.guild_members&#45;&gt;public.guilds -->
<g id="edge1" class="edge">
<title>public.guild_members:guild_id&#45;&gt;public.guilds:id</title>
<path fill="none" stroke="black" d="M341.01,-557.58C286.93,-548.26 321.91,-461.52 352.31,-404.4 377.04,-357.93 425.3,-384.02 450.13,-337.6 469.88,-300.68 493,-243.4 451.13,-243.4"/>
<polygon fill="black" stroke="black" points="341.01,-557.58 350.62,-562.86 346.33,-558 350.64,-558.35 350.64,-558.35 350.64,-558.35 346.33,-558 351.33,-553.89 341.01,-557.58"/>
<text text-anchor="start" x="7" y="-568.4" font-family="Arial" font-size="10.00">FOREIGN KEY (guild_id) REFERENCES guilds(id) ON DELETE CASCADE</text>
</g>
<!-- public.users -->
<g id="node4" class="node">
<title>public.users</title>
<polygon fill="#efefef" stroke="none" points="554.45,-289.6 554.45,-325.2 808.13,-325.2 808.13,-289.6 554.45,-289.6"/>
<polygon fill="none" stroke="black" points="554.45,-289.6 554.45,-325.2 808.13,-325.2 808.13,-289.6 554.45,-289.6"/>
<text text-anchor="start" x="575.8" y="-303" font-family="Arial Bold" font-size="18.00">public.users</text>
<text text-anchor="start" x="662.29" y="-303" font-family="Arial" font-size="14.00">    </text>
<text text-anchor="start" x="693.41" y="-303" font-family="Arial" font-size="14.00" fill="#666666">[BASE TABLE]</text>
<polygon fill="none" stroke="black" points="554.45,-258.8 554.45,-289.6 808.13,-289.6 808.13,-258.8 554.45,-258.8"/>
<text text-anchor="start" x="561.45" y="-271" font-family="Arial" font-size="14.00">id </text>
<text text-anchor="start" x="576.24" y="-271" font-family="Arial" font-size="14.00" fill="#666666">[bigint]</text>
<polygon fill="none" stroke="black" points="554.45,-228 554.45,-258.8 808.13,-258.8 808.13,-228 554.45,-228"/>
<text text-anchor="start" x="561.45" y="-240.2" font-family="Arial" font-size="14.00">email </text>
<text text-anchor="start" x="598.79" y="-240.2" font-family="Arial" font-size="14.00" fill="#666666">[text]</text>
<polygon fill="none" stroke="black" points="554.45,-197.2 554.45,-228 808.13,-228 808.13,-197.2 554.45,-197.2"/>
<text text-anchor="start" x="561.45" y="-209.4" font-family="Arial" font-size="14.00">display_name </text>
<text text-anchor="start" x="651.73" y="-209.4" font-family="Arial" font-size="14.00" fill="#666666">[text]</text>
<polygon fill="none" stroke="black" points="554.45,-166.4 554.45,-197.2 808.13,-197.2 808.13,-166.4 554.45,-166.4"/>
<text text-anchor="start" x="561.45" y="-178.6" font-family="Arial" font-size="14.00">avatar_key </text>
<text text-anchor="start" x="633.82" y="-178.6" font-family="Arial" font-size="14.00" fill="#666666">[text]</text>
<polygon fill="none" stroke="black" points="554.45,-135.6 554.45,-166.4 808.13,-166.4 808.13,-135.6 554.45,-135.6"/>
<text text-anchor="start" x="561.45" y="-147.8" font-family="Arial" font-size="14.00">status_text </text>
<text text-anchor="start" x="633.04" y="-147.8" font-family="Arial" font-size="14.00" fill="#666666">[text]</text>
<polygon fill="none" stroke="black" points="554.45,-104.8 554.45,-135.6 808.13,-135.6 808.13,-104.8 554.45,-104.8"/>
<text text-anchor="start" x="561.45" y="-117" font-family="Arial" font-size="14.00">theme </text>
<text text-anchor="start" x="604.25" y="-117" font-family="Arial" font-size="14.00" fill="#666666">[text]</text>
<polygon fill="none" stroke="black" points="554.45,-74 554.45,-104.8 808.13,-104.8 808.13,-74 554.45,-74"/>
<text text-anchor="start" x="561.45" y="-86.2" font-family="Arial" font-size="14.00">created_at </text>
<text text-anchor="start" x="631.5" y="-86.2" font-family="Arial" font-size="14.00" fill="#666666">[timestamp with time zone]</text>
<polygon fill="none" stroke="black" points="554.45,-43.2 554.45,-74 808.13,-74 808.13,-43.2 554.45,-43.2"/>
<text text-anchor="start" x="561.45" y="-55.4" font-family="Arial" font-size="14.00">updated_at </text>
<text text-anchor="start" x="635.41" y="-55.4" font-family="Arial" font-size="14.00" fill="#666666">[timestamp with time zone]</text>
</g>
<!-- public.guild_members&#45;&gt;public.users -->
<g id="edge3" class="edge">
<title>public.guild_members:user_id&#45;&gt;public.users:id</title>
<path fill="none" stroke="black" d="M663.42,-526.54C704.68,-517.04 681.63,-446.12 652.27,-404.4 625.61,-366.51 581.16,-406.26 554.45,-368.4 530.31,-334.19 511.58,-274.2 553.45,-274.2"/>
<polygon fill="black" stroke="black" points="663.55,-526.52 653.13,-523.09 658.24,-527.08 653.94,-527.53 653.94,-527.53 653.94,-527.53 658.24,-527.08 654.07,-532.04 663.55,-526.52"/>
<text text-anchor="start" x="660.27" y="-537.6" font-family="Arial" font-size="10.00">FOREIGN KEY (user_id) REFERENCES users(id) ON DELETE CASCADE</text>
</g>
<!-- public.guild_member_roles -->
<g id="node3" class="node">
<title>public.guild_member_roles</title>
<polygon fill="#efefef" stroke="none" points="333.82,-827.2 333.82,-862.8 670.76,-862.8 670.76,-827.2 333.82,-827.2"/>
<polygon fill="none" stroke="black" points="333.82,-827.2 333.82,-862.8 670.76,-862.8 670.76,-827.2 333.82,-827.2"/>
<text text-anchor="start" x="340.82" y="-840.6" font-family="Arial Bold" font-size="18.00">public.guild_member_roles</text>
<text text-anchor="start" x="539.27" y="-840.6" font-family="Arial" font-size="14.00">    </text>
<text text-anchor="start" x="570.39" y="-840.6" font-family="Arial" font-size="14.00" fill="#666666">[BASE TABLE]</text>
<polygon fill="none" stroke="black" points="333.82,-796.4 333.82,-827.2 670.76,-827.2 670.76,-796.4 333.82,-796.4"/>
<text text-anchor="start" x="340.82" y="-808.6" font-family="Arial" font-size="14.00">guild_id </text>
<text text-anchor="start" x="392.97" y="-808.6" font-family="Arial" font-size="14.00" fill="#666666">[bigint]</text>
<polygon fill="none" stroke="black" points="333.82,-765.6 333.82,-796.4 670.76,-796.4 670.76,-765.6 333.82,-765.6"/>
<text text-anchor="start" x="340.82" y="-777.8" font-family="Arial" font-size="14.00">user_id </text>
<text text-anchor="start" x="390.62" y="-777.8" font-family="Arial" font-size="14.00" fill="#666666">[bigint]</text>
<polygon fill="none" stroke="black" points="333.82,-734.8 333.82,-765.6 670.76,-765.6 670.76,-734.8 333.82,-734.8"/>
<text text-anchor="start" x="340.82" y="-747" font-family="Arial" font-size="14.00">level </text>
<text text-anchor="start" x="373.5" y="-747" font-family="Arial" font-size="14.00" fill="#666666">[role_level]</text>
</g>
<!-- public.guild_member_roles&#45;&gt;public.guild_members -->
<g id="edge2" class="edge">
<title>public.guild_member_roles:guild_id&#45;&gt;public.guild_members:guild_id</title>
<path fill="none" stroke="black" d="M681.97,-811.07C783.44,-796.21 762.66,-558.4 653.27,-558.4"/>
<polygon fill="black" stroke="black" points="682.07,-811.07 671.78,-807.29 676.75,-811.44 672.43,-811.75 672.43,-811.75 672.43,-811.75 676.75,-811.44 672.42,-816.26 682.07,-811.07"/>
<text text-anchor="start" x="678.76" y="-821.8" font-family="Arial" font-size="10.00">FOREIGN KEY (guild_id, user_id) REFERENCES guild_members(guild_id, user_id) ON DELETE CASCADE</text>
</g>
</g>
</svg>
