<?xml version="1.0" encoding="UTF-8" standalone="no"?>
<!DOCTYPE svg PUBLIC "-//W3C//DTD SVG 1.1//EN"
 "http://www.w3.org/Graphics/SVG/1.1/DTD/svg11.dtd">
<!-- Generated by graphviz version 12.1.2 (20240928.0832)
 -->
<!-- Title: public.channel_role_permission_overrides_v2 Pages: 1 -->
<svg width="1364pt" height="818pt"
 viewBox="0.00 0.00 1364.08 817.60" xmlns="http://www.w3.org/2000/svg" xmlns:xlink="http://www.w3.org/1999/xlink">
<g id="graph0" class="graph" transform="scale(1 1) rotate(0) translate(4 813.6)">
<title>public.channel_role_permission_overrides_v2</title>
<polygon fill="white" stroke="none" points="-4,4 -4,-813.6 1360.08,-813.6 1360.08,4 -4,4"/>
<!-- public.channel_role_permission_overrides_v2 -->
<g id="node1" class="node">
<title>public.channel_role_permission_overrides_v2</title>
<polygon fill="#efefef" stroke="none" points="380.11,-727.8 380.11,-763.4 852.01,-763.4 852.01,-727.8 380.11,-727.8"/>
<polygon fill="none" stroke="black" points="380.11,-727.8 380.11,-763.4 852.01,-763.4 852.01,-727.8 380.11,-727.8"/>
<text text-anchor="start" x="387.11" y="-741.2" font-family="Arial Bold" font-size="18.00">public.channel_role_permission_overrides_v2</text>
<text text-anchor="start" x="720.53" y="-741.2" font-family="Arial" font-size="14.00">    </text>
<text text-anchor="start" x="751.64" y="-741.2" font-family="Arial" font-size="14.00" fill="#666666">[BASE TABLE]</text>
<polygon fill="none" stroke="black" points="380.11,-697 380.11,-727.8 852.01,-727.8 852.01,-697 380.11,-697"/>
<text text-anchor="start" x="387.11" y="-709.2" font-family="Arial" font-size="14.00">channel_id </text>
<text text-anchor="start" x="458.73" y="-709.2" font-family="Arial" font-size="14.00" fill="#666666">[bigint]</text>
<polygon fill="none" stroke="black" points="380.11,-666.2 380.11,-697 852.01,-697 852.01,-666.2 380.11,-666.2"/>
<text text-anchor="start" x="387.11" y="-678.4" font-family="Arial" font-size="14.00">guild_id </text>
<text text-anchor="start" x="439.26" y="-678.4" font-family="Arial" font-size="14.00" fill="#666666">[bigint]</text>
<polygon fill="none" stroke="black" points="380.11,-635.4 380.11,-666.2 852.01,-666.2 852.01,-635.4 380.11,-635.4"/>
<text text-anchor="start" x="387.11" y="-647.6" font-family="Arial" font-size="14.00">role_key </text>
<text text-anchor="start" x="443.92" y="-647.6" font-family="Arial" font-size="14.00" fill="#666666">[text]</text>
<polygon fill="none" stroke="black" points="380.11,-604.6 380.11,-635.4 852.01,-635.4 852.01,-604.6 380.11,-604.6"/>
<text text-anchor="start" x="387.11" y="-616.8" font-family="Arial" font-size="14.00">can_view </text>
<text text-anchor="start" x="449.37" y="-616.8" font-family="Arial" font-size="14.00" fill="#666666">[boolean]</text>
<polygon fill="none" stroke="black" points="380.11,-573.8 380.11,-604.6 852.01,-604.6 852.01,-573.8 380.11,-573.8"/>
<text text-anchor="start" x="387.11" y="-586" font-family="Arial" font-size="14.00">can_post </text>
<text text-anchor="start" x="447.82" y="-586" font-family="Arial" font-size="14.00" fill="#666666">[boolean]</text>
<polygon fill="none" stroke="black" points="380.11,-543 380.11,-573.8 852.01,-573.8 852.01,-543 380.11,-543"/>
<text text-anchor="start" x="387.11" y="-555.2" font-family="Arial" font-size="14.00">created_at </text>
<text text-anchor="start" x="457.16" y="-555.2" font-family="Arial" font-size="14.00" fill="#666666">[timestamp with time zone]</text>
<polygon fill="none" stroke="black" points="380.11,-512.2 380.11,-543 852.01,-543 852.01,-512.2 380.11,-512.2"/>
<text text-anchor="start" x="387.11" y="-524.4" font-family="Arial" font-size="14.00">updated_at </text>
<text text-anchor="start" x="461.07" y="-524.4" font-family="Arial" font-size="14.00" fill="#666666">[timestamp with time zone]</text>
<polygon fill="none" stroke="black" stroke-width="3" points="378.61,-510.7 378.61,-764.9 853.51,-764.9 853.51,-510.7 378.61,-510.7"/>
</g>
<!-- public.channels -->
<g id="node2" class="node">
<title>public.channels</title>
<polygon fill="#efefef" stroke="none" points="300.22,-305 300.22,-340.6 553.9,-340.6 553.9,-305 300.22,-305"/>
<polygon fill="none" stroke="black" points="300.22,-305 300.22,-340.6 553.9,-340.6 553.9,-305 300.22,-305"/>
<text text-anchor="start" x="308.59" y="-318.4" font-family="Arial Bold" font-size="18.00">public.channels</text>
<text text-anchor="start" x="421.05" y="-318.4" font-family="Arial" font-size="14.00">    </text>
<text text-anchor="start" x="452.17" y="-318.4" font-family="Arial" font-size="14.00" fill="#666666">[BASE TABLE]</text>
<polygon fill="none" stroke="black" points="300.22,-274.2 300.22,-305 553.9,-305 553.9,-274.2 300.22,-274.2"/>
<text text-anchor="start" x="307.22" y="-286.4" font-family="Arial" font-size="14.00">id </text>
<text text-anchor="start" x="322.01" y="-286.4" font-family="Arial" font-size="14.00" fill="#666666">[bigint]</text>
<polygon fill="none" stroke="black" points="300.22,-243.4 300.22,-274.2 553.9,-274.2 553.9,-243.4 300.22,-243.4"/>
<text text-anchor="start" x="307.22" y="-255.6" font-family="Arial" font-size="14.00">type </text>
<text text-anchor="start" x="337.57" y="-255.6" font-family="Arial" font-size="14.00" fill="#666666">[channel_type]</text>
<polygon fill="none" stroke="black" points="300.22,-212.6 300.22,-243.4 553.9,-243.4 553.9,-212.6 300.22,-212.6"/>
<text text-anchor="start" x="307.22" y="-224.8" font-family="Arial" font-size="14.00">guild_id </text>
<text text-anchor="start" x="359.37" y="-224.8" font-family="Arial" font-size="14.00" fill="#666666">[bigint]</text>
<polygon fill="none" stroke="black" points="300.22,-181.8 300.22,-212.6 553.9,-212.6 553.9,-181.8 300.22,-181.8"/>
<text text-anchor="start" x="307.22" y="-194" font-family="Arial" font-size="14.00">name </text>
<text text-anchor="start" x="346.13" y="-194" font-family="Arial" font-size="14.00" fill="#666666">[text]</text>
<polygon fill="none" stroke="black" points="300.22,-151 300.22,-181.8 553.9,-181.8 553.9,-151 300.22,-151"/>
<text text-anchor="start" x="307.22" y="-163.2" font-family="Arial" font-size="14.00">created_by </text>
<text text-anchor="start" x="380.38" y="-163.2" font-family="Arial" font-size="14.00" fill="#666666">[bigint]</text>
<polygon fill="none" stroke="black" points="300.22,-120.2 300.22,-151 553.9,-151 553.9,-120.2 300.22,-120.2"/>
<text text-anchor="start" x="307.22" y="-132.4" font-family="Arial" font-size="14.00">created_at </text>
<text text-anchor="start" x="377.27" y="-132.4" font-family="Arial" font-size="14.00" fill="#666666">[timestamp with time zone]</text>
<polygon fill="none" stroke="black" points="300.22,-89.4 300.22,-120.2 553.9,-120.2 553.9,-89.4 300.22,-89.4"/>
<text text-anchor="start" x="307.22" y="-101.6" font-family="Arial" font-size="14.00">updated_at </text>
<text text-anchor="start" x="381.18" y="-101.6" font-family="Arial" font-size="14.00" fill="#666666">[timestamp with time zone]</text>
</g>
<!-- public.channel_role_permission_overrides_v2&#45;&gt;public.channels -->
<g id="edge1" class="edge">
<title>public.channel_role_permission_overrides_v2:channel_id&#45;&gt;public.channels:id</title>
<path fill="none" stroke="black" d="M368.73,-711.9C273.04,-702.24 323.29,-555.33 380.11,-466 425.97,-393.9 507.81,-455.75 553.9,-383.8 576.49,-348.55 596.77,-289.6 554.9,-289.6"/>
<polygon fill="black" stroke="black" points="368.79,-711.9 378.56,-716.88 374.12,-712.16 378.44,-712.37 378.44,-712.37 378.44,-712.37 374.12,-712.16 379,-707.89 368.79,-711.9"/>
<text text-anchor="start" x="7" y="-722.4" font-family="Arial" font-size="10.00">FOREIGN KEY (channel_id) REFERENCES channels(id) ON DELETE CASCADE</text>
</g>
<!-- public.guild_roles_v2 -->
<g id="node3" class="node">
<title>public.guild_roles_v2</title>
<polygon fill="#efefef" stroke="none" points="658.08,-351.2 658.08,-386.8 954.05,-386.8 954.05,-351.2 658.08,-351.2"/>
<polygon fill="none" stroke="black" points="658.08,-351.2 658.08,-386.8 954.05,-386.8 954.05,-351.2 658.08,-351.2"/>
<text text-anchor="start" x="665.08" y="-364.6" font-family="Arial Bold" font-size="18.00">public.guild_roles_v2</text>
<text text-anchor="start" x="822.56" y="-364.6" font-family="Arial" font-size="14.00">    </text>
<text text-anchor="start" x="853.68" y="-364.6" font-family="Arial" font-size="14.00" fill="#666666">[BASE TABLE]</text>
<polygon fill="none" stroke="black" points="658.08,-320.4 658.08,-351.2 954.05,-351.2 954.05,-320.4 658.08,-320.4"/>
<text text-anchor="start" x="665.08" y="-332.6" font-family="Arial" font-size="14.00">guild_id </text>
<text text-anchor="start" x="717.23" y="-332.6" font-family="Arial" font-size="14.00" fill="#666666">[bigint]</text>
<polygon fill="none" stroke="black" points="658.08,-289.6 658.08,-320.4 954.05,-320.4 954.05,-289.6 658.08,-289.6"/>
<text text-anchor="start" x="665.08" y="-301.8" font-family="Arial" font-size="14.00">role_key </text>
<text text-anchor="start" x="721.88" y="-301.8" font-family="Arial" font-size="14.00" fill="#666666">[text]</text>
<polygon fill="none" stroke="black" points="658.08,-258.8 658.08,-289.6 954.05,-289.6 954.05,-258.8 658.08,-258.8"/>
<text text-anchor="start" x="665.08" y="-271" font-family="Arial" font-size="14.00">name </text>
<text text-anchor="start" x="703.99" y="-271" font-family="Arial" font-size="14.00" fill="#666666">[text]</text>
<polygon fill="none" stroke="black" points="658.08,-228 658.08,-258.8 954.05,-258.8 954.05,-228 658.08,-228"/>
<text text-anchor="start" x="665.08" y="-240.2" font-family="Arial" font-size="14.00">priority </text>
<text text-anchor="start" x="710.97" y="-240.2" font-family="Arial" font-size="14.00" fill="#666666">[integer]</text>
<polygon fill="none" stroke="black" points="658.08,-197.2 658.08,-228 954.05,-228 954.05,-197.2 658.08,-197.2"/>
<text text-anchor="start" x="665.08" y="-209.4" font-family="Arial" font-size="14.00">allow_view </text>
<text text-anchor="start" x="736.66" y="-209.4" font-family="Arial" font-size="14.00" fill="#666666">[boolean]</text>
<polygon fill="none" stroke="black" points="658.08,-166.4 658.08,-197.2 954.05,-197.2 954.05,-166.4 658.08,-166.4"/>
<text text-anchor="start" x="665.08" y="-178.6" font-family="Arial" font-size="14.00">allow_post </text>
<text text-anchor="start" x="735.12" y="-178.6" font-family="Arial" font-size="14.00" fill="#666666">[boolean]</text>
<polygon fill="none" stroke="black" points="658.08,-135.6 658.08,-166.4 954.05,-166.4 954.05,-135.6 658.08,-135.6"/>
<text text-anchor="start" x="665.08" y="-147.8" font-family="Arial" font-size="14.00">allow_manage </text>
<text text-anchor="start" x="759.25" y="-147.8" font-family="Arial" font-size="14.00" fill="#666666">[boolean]</text>
<polygon fill="none" stroke="black" points="658.08,-104.8 658.08,-135.6 954.05,-135.6 954.05,-104.8 658.08,-104.8"/>
<text text-anchor="start" x="665.08" y="-117" font-family="Arial" font-size="14.00">is_system </text>
<text text-anchor="start" x="731.2" y="-117" font-family="Arial" font-size="14.00" fill="#666666">[boolean]</text>
<polygon fill="none" stroke="black" points="658.08,-74 658.08,-104.8 954.05,-104.8 954.05,-74 658.08,-74"/>
<text text-anchor="start" x="665.08" y="-86.2" font-family="Arial" font-size="14.00">created_at </text>
<text text-anchor="start" x="735.13" y="-86.2" font-family="Arial" font-size="14.00" fill="#666666">[timestamp with time zone]</text>
<polygon fill="none" stroke="black" points="658.08,-43.2 658.08,-74 954.05,-74 954.05,-43.2 658.08,-43.2"/>
<text text-anchor="start" x="665.08" y="-55.4" font-family="Arial" font-size="14.00">updated_at </text>
<text text-anchor="start" x="739.04" y="-55.4" font-family="Arial" font-size="14.00" fill="#666666">[timestamp with time zone]</text>
</g>
<!-- public.channel_role_permission_overrides_v2&#45;&gt;public.guild_roles_v2 -->
<g id="edge2" class="edge">
<title>public.channel_role_permission_overrides_v2:guild_id&#45;&gt;public.guild_roles_v2:guild_id</title>
<path fill="none" stroke="black" d="M863.4,-680.99C946.1,-670.88 911.11,-536.74 852.01,-466 795.81,-398.72 714.48,-497.11 658.08,-430 631.14,-397.95 615.21,-335.8 657.08,-335.8"/>
<polygon fill="black" stroke="black" points="863.33,-681 853.09,-677.09 858.01,-681.31 853.68,-681.56 853.68,-681.56 853.68,-681.56 858.01,-681.31 853.61,-686.07 863.33,-681"/>
<text text-anchor="start" x="860.01" y="-691.6" font-family="Arial" font-size="10.00">FOREIGN KEY (guild_id, role_key) REFERENCES guild_roles_v2(guild_id, role_key) ON DELETE CASCADE</text>
</g>
</g>
</svg>
