<?xml version="1.0" encoding="UTF-8" standalone="no"?>
<!DOCTYPE svg PUBLIC "-//W3C//DTD SVG 1.1//EN"
 "http://www.w3.org/Graphics/SVG/1.1/DTD/svg11.dtd">
<!-- Generated by graphviz version 12.1.2 (20240928.0832)
 -->
<!-- Title: public.guild_members Pages: 1 -->
<svg width="1125pt" height="1037pt"
 viewBox="0.00 0.00 1125.12 1037.20" xmlns="http://www.w3.org/2000/svg" xmlns:xlink="http://www.w3.org/1999/xlink">
<g id="graph0" class="graph" transform="scale(1 1) rotate(0) translate(4 1033.2)">
<title>public.guild_members</title>
<polygon fill="white" stroke="none" points="-4,4 -4,-1033.2 1121.12,-1033.2 1121.12,4 -4,4"/>
<!-- public.guild_members -->
<g id="node1" class="node">
<title>public.guild_members</title>
<polygon fill="#efefef" stroke="none" points="424.99,-573.8 424.99,-609.4 724.95,-609.4 724.95,-573.8 424.99,-573.8"/>
<polygon fill="none" stroke="black" points="424.99,-573.8 424.99,-609.4 724.95,-609.4 724.95,-573.8 424.99,-573.8"/>
<text text-anchor="start" x="431.99" y="-587.2" font-family="Arial Bold" font-size="18.00">public.guild_members</text>
<text text-anchor="start" x="593.46" y="-587.2" font-family="Arial" font-size="14.00">    </text>
<text text-anchor="start" x="624.58" y="-587.2" font-family="Arial" font-size="14.00" fill="#666666">[BASE TABLE]</text>
<polygon fill="none" stroke="black" points="424.99,-543 424.99,-573.8 724.95,-573.8 724.95,-543 424.99,-543"/>
<text text-anchor="start" x="431.99" y="-555.2" font-family="Arial" font-size="14.00">guild_id </text>
<text text-anchor="start" x="484.14" y="-555.2" font-family="Arial" font-size="14.00" fill="#666666">[bigint]</text>
<polygon fill="none" stroke="black" points="424.99,-512.2 424.99,-543 724.95,-543 724.95,-512.2 424.99,-512.2"/>
<text text-anchor="start" x="431.99" y="-524.4" font-family="Arial" font-size="14.00">user_id </text>
<text text-anchor="start" x="481.8" y="-524.4" font-family="Arial" font-size="14.00" fill="#666666">[bigint]</text>
<polygon fill="none" stroke="black" points="424.99,-481.4 424.99,-512.2 724.95,-512.2 724.95,-481.4 424.99,-481.4"/>
<text text-anchor="start" x="431.99" y="-493.6" font-family="Arial" font-size="14.00">joined_at </text>
<text text-anchor="start" x="492.71" y="-493.6" font-family="Arial" font-size="14.00" fill="#666666">[timestamp with time zone]</text>
<polygon fill="none" stroke="black" points="424.99,-450.6 424.99,-481.4 724.95,-481.4 724.95,-450.6 424.99,-450.6"/>
<text text-anchor="start" x="431.99" y="-462.8" font-family="Arial" font-size="14.00">nickname </text>
<text text-anchor="start" x="495.8" y="-462.8" font-family="Arial" font-size="14.00" fill="#666666">[text]</text>
<polygon fill="none" stroke="black" stroke-width="3" points="423.49,-449.1 423.49,-610.9 726.45,-610.9 726.45,-449.1 423.49,-449.1"/>
</g>
<!-- public.guilds -->
<g id="node2" class="node">
<title>public.guilds</title>
<polygon fill="#efefef" stroke="none" points="269.13,-258.8 269.13,-294.4 522.81,-294.4 522.81,-258.8 269.13,-258.8"/>
<polygon fill="none" stroke="black" points="269.13,-258.8 269.13,-294.4 522.81,-294.4 522.81,-258.8 269.13,-258.8"/>
<text text-anchor="start" x="286.98" y="-272.2" font-family="Arial Bold" font-size="18.00">public.guilds</text>
<text text-anchor="start" x="380.48" y="-272.2" font-family="Arial" font-size="14.00">    </text>
<text text-anchor="start" x="411.59" y="-272.2" font-family="Arial" font-size="14.00" fill="#666666">[BASE TABLE]</text>
<polygon fill="none" stroke="black" points="269.13,-228 269.13,-258.8 522.81,-258.8 522.81,-228 269.13,-228"/>
<text text-anchor="start" x="276.13" y="-240.2" font-family="Arial" font-size="14.00">id </text>
<text text-anchor="start" x="290.92" y="-240.2" font-family="Arial" font-size="14.00" fill="#666666">[bigint]</text>
<polygon fill="none" stroke="black" points="269.13,-197.2 269.13,-228 522.81,-228 522.81,-197.2 269.13,-197.2"/>
<text text-anchor="start" x="276.13" y="-209.4" font-family="Arial" font-size="14.00">name </text>
<text text-anchor="start" x="315.04" y="-209.4" font-family="Arial" font-size="14.00" fill="#666666">[text]</text>
<polygon fill="none" stroke="black" points="269.13,-166.4 269.13,-197.2 522.81,-197.2 522.81,-166.4 269.13,-166.4"/>
<text text-anchor="start" x="276.13" y="-178.6" font-family="Arial" font-size="14.00">owner_id </text>
<text text-anchor="start" x="336.83" y="-178.6" font-family="Arial" font-size="14.00" fill="#666666">[bigint]</text>
<polygon fill="none" stroke="black" points="269.13,-135.6 269.13,-166.4 522.81,-166.4 522.81,-135.6 269.13,-135.6"/>
<text text-anchor="start" x="276.13" y="-147.8" font-family="Arial" font-size="14.00">icon_key </text>
<text text-anchor="start" x="335.27" y="-147.8" font-family="Arial" font-size="14.00" fill="#666666">[text]</text>
<polygon fill="none" stroke="black" points="269.13,-104.8 269.13,-135.6 522.81,-135.6 522.81,-104.8 269.13,-104.8"/>
<text text-anchor="start" x="276.13" y="-117" font-family="Arial" font-size="14.00">created_at </text>
<text text-anchor="start" x="346.18" y="-117" font-family="Arial" font-size="14.00" fill="#666666">[timestamp with time zone]</text>
<polygon fill="none" stroke="black" points="269.13,-74 269.13,-104.8 522.81,-104.8 522.81,-74 269.13,-74"/>
<text text-anchor="start" x="276.13" y="-86.2" font-family="Arial" font-size="14.00">updated_at </text>
<text text-anchor="start" x="350.09" y="-86.2" font-family="Arial" font-size="14.00" fill="#666666">[timestamp with time zone]</text>
</g>
<!-- public.guild_members&#45;&gt;public.guilds -->
<g id="edge1" class="edge">
<title>public.guild_members:guild_id&#45;&gt;public.guilds:id</title>
<path fill="none" stroke="black" d="M413.69,-557.58C359.61,-548.26 394.59,-461.52 424.99,-404.4 449.72,-357.93 497.98,-384.02 522.81,-337.6 542.56,-300.68 565.68,-243.4 523.81,-243.4"/>
<polygon fill="black" stroke="black" points="413.69,-557.58 423.3,-562.86 419.01,-558 423.32,-558.35 423.32,-558.35 423.32,-558.35 419.01,-558 424.01,-553.89 413.69,-557.58"/>
<text text-anchor="start" x="79.68" y="-568.4" font-family="Arial" font-size="10.00">FOREIGN KEY (guild_id) REFERENCES guilds(id) ON DELETE CASCADE</text>
</g>
<!-- public.users -->
<g id="node5" class="node">
<title>public.users</title>
<polygon fill="#efefef" stroke="none" points="627.13,-289.6 627.13,-325.2 880.81,-325.2 880.81,-289.6 627.13,-289.6"/>
<polygon fill="none" stroke="black" points="627.13,-289.6 627.13,-325.2 880.81,-325.2 880.81,-289.6 627.13,-289.6"/>
<text text-anchor="start" x="648.48" y="-303" font-family="Arial Bold" font-size="18.00">public.users</text>
<text text-anchor="start" x="734.97" y="-303" font-family="Arial" font-size="14.00">    </text>
<text text-anchor="start" x="766.09" y="-303" font-family="Arial" font-size="14.00" fill="#666666">[BASE TABLE]</text>
<polygon fill="none" stroke="black" points="627.13,-258.8 627.13,-289.6 880.81,-289.6 880.81,-258.8 627.13,-258.8"/>
<text text-anchor="start" x="634.13" y="-271" font-family="Arial" font-size="14.00">id </text>
<text text-anchor="start" x="648.92" y="-271" font-family="Arial" font-size="14.00" fill="#666666">[bigint]</text>
<polygon fill="none" stroke="black" points="627.13,-228 627.13,-258.8 880.81,-258.8 880.81,-228 627.13,-228"/>
<text text-anchor="start" x="634.13" y="-240.2" font-family="Arial" font-size="14.00">email </text>
<text text-anchor="start" x="671.48" y="-240.2" font-family="Arial" font-size="14.00" fill="#666666">[text]</text>
<polygon fill="none" stroke="black" points="627.13,-197.2 627.13,-228 880.81,-228 880.81,-197.2 627.13,-197.2"/>
<text text-anchor="start" x="634.13" y="-209.4" font-family="Arial" font-size="14.00">display_name </text>
<text text-anchor="start" x="724.41" y="-209.4" font-family="Arial" font-size="14.00" fill="#666666">[text]</text>
<polygon fill="none" stroke="black" points="627.13,-166.4 627.13,-197.2 880.81,-197.2 880.81,-166.4 627.13,-166.4"/>
<text text-anchor="start" x="634.13" y="-178.6" font-family="Arial" font-size="14.00">avatar_key </text>
<text text-anchor="start" x="706.5" y="-178.6" font-family="Arial" font-size="14.00" fill="#666666">[text]</text>
<polygon fill="none" stroke="black" points="627.13,-135.6 627.13,-166.4 880.81,-166.4 880.81,-135.6 627.13,-135.6"/>
<text text-anchor="start" x="634.13" y="-147.8" font-family="Arial" font-size="14.00">status_text </text>
<text text-anchor="start" x="705.72" y="-147.8" font-family="Arial" font-size="14.00" fill="#666666">[text]</text>
<polygon fill="none" stroke="black" points="627.13,-104.8 627.13,-135.6 880.81,-135.6 880.81,-104.8 627.13,-104.8"/>
<text text-anchor="start" x="634.13" y="-117" font-family="Arial" font-size="14.00">theme </text>
<text text-anchor="start" x="676.93" y="-117" font-family="Arial" font-size="14.00" fill="#666666">[text]</text>
<polygon fill="none" stroke="black" points="627.13,-74 627.13,-104.8 880.81,-104.8 880.81,-74 627.13,-74"/>
<text text-anchor="start" x="634.13" y="-86.2" font-family="Arial" font-size="14.00">created_at </text>
<text text-anchor="start" x="704.18" y="-86.2" font-family="Arial" font-size="14.00" fill="#666666">[timestamp with time zone]</text>
<polygon fill="none" stroke="black" points="627.13,-43.2 627.13,-74 880.81,-74 880.81,-43.2 627.13,-43.2"/>
<text text-anchor="start" x="634.13" y="-55.4" font-family="Arial" font-size="14.00">updated_at </text>
<text text-anchor="start" x="708.09" y="-55.4" font-family="Arial" font-size="14.00" fill="#666666">[timestamp with time zone]</text>
</g>
<!-- public.guild_members&#45;&gt;public.users -->
<g id="edge4" class="edge">
<title>public.guild_members:user_id&#45;&gt;public.users:id</title>
<path fill="none" stroke="black" d="M736.1,-526.54C777.36,-517.04 754.31,-446.12 724.95,-404.4 698.29,-366.51 653.84,-406.26 627.13,-368.4 602.99,-334.19 584.26,-274.2 626.13,-274.2"/>
<polygon fill="black" stroke="black" points="736.23,-526.52 725.82,-523.09 730.92,-527.08 726.62,-527.53 726.62,-527.53 726.62,-527.53 730.92,-527.08 726.75,-532.04 736.23,-526.52"/>
<text text-anchor="start" x="732.95" y="-537.6" font-family="Arial" font-size="10.00">FOREIGN KEY (user_id) REFERENCES users(id) ON DELETE CASCADE</text>
</g>
<!-- public.guild_member_roles_v2 -->
<g id="node3" class="node">
<title>public.guild_member_roles_v2</title>
<polygon fill="#efefef" stroke="none" points="132,-919.6 132,-955.2 495.94,-955.2 495.94,-919.6 132,-919.6"/>
<polygon fill="none" stroke="black" points="132,-919.6 132,-955.2 495.94,-955.2 495.94,-919.6 132,-919.6"/>
<text text-anchor="start" x="139" y="-933" font-family="Arial Bold" font-size="18.00">public.guild_member_roles_v2</text>
<text text-anchor="start" x="364.46" y="-933" font-family="Arial" font-size="14.00">    </text>
<text text-anchor="start" x="395.57" y="-933" font-family="Arial" font-size="14.00" fill="#666666">[BASE TABLE]</text>
<polygon fill="none" stroke="black" points="132,-888.8 132,-919.6 495.94,-919.6 495.94,-888.8 132,-888.8"/>
<text text-anchor="start" x="139" y="-901" font-family="Arial" font-size="14.00">guild_id </text>
<text text-anchor="start" x="191.15" y="-901" font-family="Arial" font-size="14.00" fill="#666666">[bigint]</text>
<polygon fill="none" stroke="black" points="132,-858 132,-888.8 495.94,-888.8 495.94,-858 132,-858"/>
<text text-anchor="start" x="139" y="-870.2" font-family="Arial" font-size="14.00">user_id </text>
<text text-anchor="start" x="188.8" y="-870.2" font-family="Arial" font-size="14.00" fill="#666666">[bigint]</text>
<polygon fill="none" stroke="black" points="132,-827.2 132,-858 495.94,-858 495.94,-827.2 132,-827.2"/>
<text text-anchor="start" x="139" y="-839.4" font-family="Arial" font-size="14.00">role_key </text>
<text text-anchor="start" x="195.8" y="-839.4" font-family="Arial" font-size="14.00" fill="#666666">[text]</text>
<polygon fill="none" stroke="black" points="132,-796.4 132,-827.2 495.94,-827.2 495.94,-796.4 132,-796.4"/>
<text text-anchor="start" x="139" y="-808.6" font-family="Arial" font-size="14.00">assigned_at </text>
<text text-anchor="start" x="218.39" y="-808.6" font-family="Arial" font-size="14.00" fill="#666666">[timestamp with time zone]</text>
<polygon fill="none" stroke="black" points="132,-765.6 132,-796.4 495.94,-796.4 495.94,-765.6 132,-765.6"/>
<text text-anchor="start" x="139" y="-777.8" font-family="Arial" font-size="14.00">assigned_by </text>
<text text-anchor="start" x="221.5" y="-777.8" font-family="Arial" font-size="14.00" fill="#666666">[bigint]</text>
</g>
<!-- public.guild_member_roles_v2&#45;&gt;public.guild_members -->
<g id="edge2" class="edge">
<title>public.guild_member_roles_v2:guild_id&#45;&gt;public.guild_members:guild_id</title>
<path fill="none" stroke="black" d="M507.06,-903.56C573.33,-894.59 526.74,-793.16 495.94,-722.4 478.66,-682.69 442.37,-695.27 424.99,-655.6 407.65,-616.03 380.79,-558.4 423.99,-558.4"/>
<polygon fill="black" stroke="black" points="507.26,-903.55 496.99,-899.69 501.93,-903.88 497.61,-904.16 497.61,-904.16 497.61,-904.16 501.93,-903.88 497.56,-908.67 507.26,-903.55"/>
<text text-anchor="start" x="7" y="-914.2" font-family="Arial" font-size="10.00">FOREIGN KEY (guild_id, user_id) REFERENCES guild_members(guild_id, user_id) ON DELETE CASCADE</text>
</g>
<!-- public.channel_user_permission_overrides_v2 -->
<g id="node4" class="node">
<title>public.channel_user_permission_overrides_v2</title>
<polygon fill="#efefef" stroke="none" points="600.02,-950.4 600.02,-986 1073.92,-986 1073.92,-950.4 600.02,-950.4"/>
<polygon fill="none" stroke="black" points="600.02,-950.4 600.02,-986 1073.92,-986 1073.92,-950.4 600.02,-950.4"/>
<text text-anchor="start" x="607.02" y="-963.8" font-family="Arial Bold" font-size="18.00">public.channel_user_permission_overrides_v2</text>
<text text-anchor="start" x="942.44" y="-963.8" font-family="Arial" font-size="14.00">    </text>
<text text-anchor="start" x="973.55" y="-963.8" font-family="Arial" font-size="14.00" fill="#666666">[BASE TABLE]</text>
<polygon fill="none" stroke="black" points="600.02,-919.6 600.02,-950.4 1073.92,-950.4 1073.92,-919.6 600.02,-919.6"/>
<text text-anchor="start" x="607.02" y="-931.8" font-family="Arial" font-size="14.00">channel_id </text>
<text text-anchor="start" x="678.63" y="-931.8" font-family="Arial" font-size="14.00" fill="#666666">[bigint]</text>
<polygon fill="none" stroke="black" points="600.02,-888.8 600.02,-919.6 1073.92,-919.6 1073.92,-888.8 600.02,-888.8"/>
<text text-anchor="start" x="607.02" y="-901" font-family="Arial" font-size="14.00">guild_id </text>
<text text-anchor="start" x="659.17" y="-901" font-family="Arial" font-size="14.00" fill="#666666">[bigint]</text>
<polygon fill="none" stroke="black" points="600.02,-858 600.02,-888.8 1073.92,-888.8 1073.92,-858 600.02,-858"/>
<text text-anchor="start" x="607.02" y="-870.2" font-family="Arial" font-size="14.00">user_id </text>
<text text-anchor="start" x="656.82" y="-870.2" font-family="Arial" font-size="14.00" fill="#666666">[bigint]</text>
<polygon fill="none" stroke="black" points="600.02,-827.2 600.02,-858 1073.92,-858 1073.92,-827.2 600.02,-827.2"/>
<text text-anchor="start" x="607.02" y="-839.4" font-family="Arial" font-size="14.00">can_view </text>
<text text-anchor="start" x="669.27" y="-839.4" font-family="Arial" font-size="14.00" fill="#666666">[boolean]</text>
<polygon fill="none" stroke="black" points="600.02,-796.4 600.02,-827.2 1073.92,-827.2 1073.92,-796.4 600.02,-796.4"/>
<text text-anchor="start" x="607.02" y="-808.6" font-family="Arial" font-size="14.00">can_post </text>
<text text-anchor="start" x="667.73" y="-808.6" font-family="Arial" font-size="14.00" fill="#666666">[boolean]</text>
<polygon fill="none" stroke="black" points="600.02,-765.6 600.02,-796.4 1073.92,-796.4 1073.92,-765.6 600.02,-765.6"/>
<text text-anchor="start" x="607.02" y="-777.8" font-family="Arial" font-size="14.00">created_at </text>
<text text-anchor="start" x="677.07" y="-777.8" font-family="Arial" font-size="14.00" fill="#666666">[timestamp with time zone]</text>
<polygon fill="none" stroke="black" points="600.02,-734.8 600.02,-765.6 1073.92,-765.6 1073.92,-734.8 600.02,-734.8"/>
<text text-anchor="start" x="607.02" y="-747" font-family="Arial" font-size="14.00">updated_at </text>
<text text-anchor="start" x="680.98" y="-747" font-family="Arial" font-size="14.00" fill="#666666">[timestamp with time zone]</text>
</g>
<!-- public.channel_user_permission_overrides_v2&#45;&gt;public.guild_members -->
<g id="edge3" class="edge">
<title>public.channel_user_permission_overrides_v2:guild_id&#45;&gt;public.guild_members:guild_id</title>
<path fill="none" stroke="black" d="M589.14,-901.15C554.91,-877.71 573.75,-726.34 600.02,-691.6 634.87,-645.51 689.97,-701.59 724.95,-655.6 751.11,-621.21 769.15,-558.4 725.95,-558.4"/>
<polygon fill="black" stroke="black" points="589.15,-901.15 597.37,-908.4 594.24,-902.72 598.38,-904 598.38,-904 598.38,-904 594.24,-902.72 600.03,-899.8 589.15,-901.15"/>
<text text-anchor="start" x="606.02" y="-914.2" font-family="Arial" font-size="10.00">FOREIGN KEY (guild_id, user_id) REFERENCES guild_members(guild_id, user_id) ON DELETE CASCADE</text>
</g>
</g>
</svg>
