<?xml version="1.0" encoding="UTF-8" standalone="no"?>
<!DOCTYPE svg PUBLIC "-//W3C//DTD SVG 1.1//EN"
 "http://www.w3.org/Graphics/SVG/1.1/DTD/svg11.dtd">
<!-- Generated by graphviz version 12.1.2 (20240928.0832)
 -->
<!-- Title: public.invites Pages: 1 -->
<svg width="976pt" height="1068pt"
 viewBox="0.00 0.00 976.42 1068.00" xmlns="http://www.w3.org/2000/svg" xmlns:xlink="http://www.w3.org/1999/xlink">
<g id="graph0" class="graph" transform="scale(1 1) rotate(0) translate(4 1064)">
<title>public.invites</title>
<polygon fill="white" stroke="none" points="-4,4 -4,-1064 972.42,-1064 972.42,4 -4,4"/>
<!-- public.invites -->
<g id="node1" class="node">
<title>public.invites</title>
<polygon fill="#efefef" stroke="none" points="352.31,-727.8 352.31,-763.4 602.08,-763.4 602.08,-727.8 352.31,-727.8"/>
<polygon fill="none" stroke="black" points="352.31,-727.8 352.31,-763.4 602.08,-763.4 602.08,-727.8 352.31,-727.8"/>
<text text-anchor="start" x="366.21" y="-741.2" font-family="Arial Bold" font-size="18.00">public.invites</text>
<text text-anchor="start" x="463.69" y="-741.2" font-family="Arial" font-size="14.00">    </text>
<text text-anchor="start" x="494.81" y="-741.2" font-family="Arial" font-size="14.00" fill="#666666">[BASE TABLE]</text>
<polygon fill="none" stroke="black" points="352.31,-697 352.31,-727.8 602.08,-727.8 602.08,-697 352.31,-697"/>
<text text-anchor="start" x="359.31" y="-709.2" font-family="Arial" font-size="14.00">id </text>
<text text-anchor="start" x="374.1" y="-709.2" font-family="Arial" font-size="14.00" fill="#666666">[bigint]</text>
<polygon fill="none" stroke="black" points="352.31,-666.2 352.31,-697 602.08,-697 602.08,-666.2 352.31,-666.2"/>
<text text-anchor="start" x="359.31" y="-678.4" font-family="Arial" font-size="14.00">guild_id </text>
<text text-anchor="start" x="411.46" y="-678.4" font-family="Arial" font-size="14.00" fill="#666666">[bigint]</text>
<polygon fill="none" stroke="black" points="352.31,-635.4 352.31,-666.2 602.08,-666.2 602.08,-635.4 352.31,-635.4"/>
<text text-anchor="start" x="359.31" y="-647.6" font-family="Arial" font-size="14.00">created_by </text>
<text text-anchor="start" x="432.47" y="-647.6" font-family="Arial" font-size="14.00" fill="#666666">[bigint]</text>
<polygon fill="none" stroke="black" points="352.31,-604.6 352.31,-635.4 602.08,-635.4 602.08,-604.6 352.31,-604.6"/>
<text text-anchor="start" x="359.31" y="-616.8" font-family="Arial" font-size="14.00">code </text>
<text text-anchor="start" x="393.56" y="-616.8" font-family="Arial" font-size="14.00" fill="#666666">[text]</text>
<polygon fill="none" stroke="black" points="352.31,-573.8 352.31,-604.6 602.08,-604.6 602.08,-573.8 352.31,-573.8"/>
<text text-anchor="start" x="359.31" y="-586" font-family="Arial" font-size="14.00">expires_at </text>
<text text-anchor="start" x="427.79" y="-586" font-family="Arial" font-size="14.00" fill="#666666">[timestamp with time zone]</text>
<polygon fill="none" stroke="black" points="352.31,-543 352.31,-573.8 602.08,-573.8 602.08,-543 352.31,-543"/>
<text text-anchor="start" x="359.31" y="-555.2" font-family="Arial" font-size="14.00">max_uses </text>
<text text-anchor="start" x="427.01" y="-555.2" font-family="Arial" font-size="14.00" fill="#666666">[integer]</text>
<polygon fill="none" stroke="black" points="352.31,-512.2 352.31,-543 602.08,-543 602.08,-512.2 352.31,-512.2"/>
<text text-anchor="start" x="359.31" y="-524.4" font-family="Arial" font-size="14.00">uses </text>
<text text-anchor="start" x="392.77" y="-524.4" font-family="Arial" font-size="14.00" fill="#666666">[integer]</text>
<polygon fill="none" stroke="black" points="352.31,-481.4 352.31,-512.2 602.08,-512.2 602.08,-481.4 352.31,-481.4"/>
<text text-anchor="start" x="359.31" y="-493.6" font-family="Arial" font-size="14.00">is_disabled </text>
<text text-anchor="start" x="433.25" y="-493.6" font-family="Arial" font-size="14.00" fill="#666666">[boolean]</text>
<polygon fill="none" stroke="black" points="352.31,-450.6 352.31,-481.4 602.08,-481.4 602.08,-450.6 352.31,-450.6"/>
<text text-anchor="start" x="359.31" y="-462.8" font-family="Arial" font-size="14.00">created_at </text>
<text text-anchor="start" x="429.36" y="-462.8" font-family="Arial" font-size="14.00" fill="#666666">[timestamp with time zone]</text>
<polygon fill="none" stroke="black" stroke-width="3" points="350.81,-449.1 350.81,-764.9 603.58,-764.9 603.58,-449.1 350.81,-449.1"/>
</g>
<!-- public.guilds -->
<g id="node3" class="node">
<title>public.guilds</title>
<polygon fill="#efefef" stroke="none" points="171.35,-258.8 171.35,-294.4 425.04,-294.4 425.04,-258.8 171.35,-258.8"/>
<polygon fill="none" stroke="black" points="171.35,-258.8 171.35,-294.4 425.04,-294.4 425.04,-258.8 171.35,-258.8"/>
<text text-anchor="start" x="189.2" y="-272.2" font-family="Arial Bold" font-size="18.00">public.guilds</text>
<text text-anchor="start" x="282.7" y="-272.2" font-family="Arial" font-size="14.00">    </text>
<text text-anchor="start" x="313.82" y="-272.2" font-family="Arial" font-size="14.00" fill="#666666">[BASE TABLE]</text>
<polygon fill="none" stroke="black" points="171.35,-228 171.35,-258.8 425.04,-258.8 425.04,-228 171.35,-228"/>
<text text-anchor="start" x="178.35" y="-240.2" font-family="Arial" font-size="14.00">id </text>
<text text-anchor="start" x="193.14" y="-240.2" font-family="Arial" font-size="14.00" fill="#666666">[bigint]</text>
<polygon fill="none" stroke="black" points="171.35,-197.2 171.35,-228 425.04,-228 425.04,-197.2 171.35,-197.2"/>
<text text-anchor="start" x="178.35" y="-209.4" font-family="Arial" font-size="14.00">name </text>
<text text-anchor="start" x="217.26" y="-209.4" font-family="Arial" font-size="14.00" fill="#666666">[text]</text>
<polygon fill="none" stroke="black" points="171.35,-166.4 171.35,-197.2 425.04,-197.2 425.04,-166.4 171.35,-166.4"/>
<text text-anchor="start" x="178.35" y="-178.6" font-family="Arial" font-size="14.00">owner_id </text>
<text text-anchor="start" x="239.06" y="-178.6" font-family="Arial" font-size="14.00" fill="#666666">[bigint]</text>
<polygon fill="none" stroke="black" points="171.35,-135.6 171.35,-166.4 425.04,-166.4 425.04,-135.6 171.35,-135.6"/>
<text text-anchor="start" x="178.35" y="-147.8" font-family="Arial" font-size="14.00">icon_key </text>
<text text-anchor="start" x="237.5" y="-147.8" font-family="Arial" font-size="14.00" fill="#666666">[text]</text>
<polygon fill="none" stroke="black" points="171.35,-104.8 171.35,-135.6 425.04,-135.6 425.04,-104.8 171.35,-104.8"/>
<text text-anchor="start" x="178.35" y="-117" font-family="Arial" font-size="14.00">created_at </text>
<text text-anchor="start" x="248.4" y="-117" font-family="Arial" font-size="14.00" fill="#666666">[timestamp with time zone]</text>
<polygon fill="none" stroke="black" points="171.35,-74 171.35,-104.8 425.04,-104.8 425.04,-74 171.35,-74"/>
<text text-anchor="start" x="178.35" y="-86.2" font-family="Arial" font-size="14.00">updated_at </text>
<text text-anchor="start" x="252.31" y="-86.2" font-family="Arial" font-size="14.00" fill="#666666">[timestamp with time zone]</text>
</g>
<!-- public.invites&#45;&gt;public.guilds -->
<g id="edge2" class="edge">
<title>public.invites:guild_id&#45;&gt;public.guilds:id</title>
<path fill="none" stroke="black" d="M340.98,-681.18C232.45,-672.01 304.01,-513.8 352.31,-404.4 370.03,-364.25 407.17,-377.69 425.04,-337.6 442.08,-299.36 467.91,-243.4 426.04,-243.4"/>
<polygon fill="black" stroke="black" points="340.98,-681.18 350.79,-686.08 346.31,-681.4 350.64,-681.57 350.64,-681.57 350.64,-681.57 346.31,-681.4 351.16,-677.09 340.98,-681.18"/>
<text text-anchor="start" x="7" y="-691.6" font-family="Arial" font-size="10.00">FOREIGN KEY (guild_id) REFERENCES guilds(id) ON DELETE CASCADE</text>
</g>
<!-- public.users -->
<g id="node4" class="node">
<title>public.users</title>
<polygon fill="#efefef" stroke="none" points="529.35,-289.6 529.35,-325.2 783.04,-325.2 783.04,-289.6 529.35,-289.6"/>
<polygon fill="none" stroke="black" points="529.35,-289.6 529.35,-325.2 783.04,-325.2 783.04,-289.6 529.35,-289.6"/>
<text text-anchor="start" x="550.71" y="-303" font-family="Arial Bold" font-size="18.00">public.users</text>
<text text-anchor="start" x="637.19" y="-303" font-family="Arial" font-size="14.00">    </text>
<text text-anchor="start" x="668.31" y="-303" font-family="Arial" font-size="14.00" fill="#666666">[BASE TABLE]</text>
<polygon fill="none" stroke="black" points="529.35,-258.8 529.35,-289.6 783.04,-289.6 783.04,-258.8 529.35,-258.8"/>
<text text-anchor="start" x="536.35" y="-271" font-family="Arial" font-size="14.00">id </text>
<text text-anchor="start" x="551.14" y="-271" font-family="Arial" font-size="14.00" fill="#666666">[bigint]</text>
<polygon fill="none" stroke="black" points="529.35,-228 529.35,-258.8 783.04,-258.8 783.04,-228 529.35,-228"/>
<text text-anchor="start" x="536.35" y="-240.2" font-family="Arial" font-size="14.00">email </text>
<text text-anchor="start" x="573.7" y="-240.2" font-family="Arial" font-size="14.00" fill="#666666">[text]</text>
<polygon fill="none" stroke="black" points="529.35,-197.2 529.35,-228 783.04,-228 783.04,-197.2 529.35,-197.2"/>
<text text-anchor="start" x="536.35" y="-209.4" font-family="Arial" font-size="14.00">display_name </text>
<text text-anchor="start" x="626.63" y="-209.4" font-family="Arial" font-size="14.00" fill="#666666">[text]</text>
<polygon fill="none" stroke="black" points="529.35,-166.4 529.35,-197.2 783.04,-197.2 783.04,-166.4 529.35,-166.4"/>
<text text-anchor="start" x="536.35" y="-178.6" font-family="Arial" font-size="14.00">avatar_key </text>
<text text-anchor="start" x="608.73" y="-178.6" font-family="Arial" font-size="14.00" fill="#666666">[text]</text>
<polygon fill="none" stroke="black" points="529.35,-135.6 529.35,-166.4 783.04,-166.4 783.04,-135.6 529.35,-135.6"/>
<text text-anchor="start" x="536.35" y="-147.8" font-family="Arial" font-size="14.00">status_text </text>
<text text-anchor="start" x="607.95" y="-147.8" font-family="Arial" font-size="14.00" fill="#666666">[text]</text>
<polygon fill="none" stroke="black" points="529.35,-104.8 529.35,-135.6 783.04,-135.6 783.04,-104.8 529.35,-104.8"/>
<text text-anchor="start" x="536.35" y="-117" font-family="Arial" font-size="14.00">theme </text>
<text text-anchor="start" x="579.15" y="-117" font-family="Arial" font-size="14.00" fill="#666666">[text]</text>
<polygon fill="none" stroke="black" points="529.35,-74 529.35,-104.8 783.04,-104.8 783.04,-74 529.35,-74"/>
<text text-anchor="start" x="536.35" y="-86.2" font-family="Arial" font-size="14.00">created_at </text>
<text text-anchor="start" x="606.4" y="-86.2" font-family="Arial" font-size="14.00" fill="#666666">[timestamp with time zone]</text>
<polygon fill="none" stroke="black" points="529.35,-43.2 529.35,-74 783.04,-74 783.04,-43.2 529.35,-43.2"/>
<text text-anchor="start" x="536.35" y="-55.4" font-family="Arial" font-size="14.00">updated_at </text>
<text text-anchor="start" x="610.31" y="-55.4" font-family="Arial" font-size="14.00" fill="#666666">[timestamp with time zone]</text>
</g>
<!-- public.invites&#45;&gt;public.users -->
<g id="edge3" class="edge">
<title>public.invites:created_by&#45;&gt;public.users:id</title>
<path fill="none" stroke="black" d="M613.46,-650.3C709.1,-640.67 658.11,-494.24 602.08,-404.4 583,-373.8 548.54,-398.94 529.35,-368.4 507.08,-332.95 486.49,-274.2 528.35,-274.2"/>
<polygon fill="black" stroke="black" points="613.4,-650.3 603.2,-646.29 608.08,-650.56 603.75,-650.77 603.75,-650.77 603.75,-650.77 608.08,-650.56 603.63,-655.28 613.4,-650.3"/>
<text text-anchor="start" x="610.08" y="-660.8" font-family="Arial" font-size="10.00">FOREIGN KEY (created_by) REFERENCES users(id) ON DELETE SET NULL</text>
</g>
<!-- public.invite_uses -->
<g id="node2" class="node">
<title>public.invite_uses</title>
<polygon fill="#efefef" stroke="none" points="342.71,-981.2 342.71,-1016.8 611.68,-1016.8 611.68,-981.2 342.71,-981.2"/>
<polygon fill="none" stroke="black" points="342.71,-981.2 342.71,-1016.8 611.68,-1016.8 611.68,-981.2 342.71,-981.2"/>
<text text-anchor="start" x="349.71" y="-994.6" font-family="Arial Bold" font-size="18.00">public.invite_uses</text>
<text text-anchor="start" x="480.19" y="-994.6" font-family="Arial" font-size="14.00">    </text>
<text text-anchor="start" x="511.31" y="-994.6" font-family="Arial" font-size="14.00" fill="#666666">[BASE TABLE]</text>
<polygon fill="none" stroke="black" points="342.71,-950.4 342.71,-981.2 611.68,-981.2 611.68,-950.4 342.71,-950.4"/>
<text text-anchor="start" x="349.71" y="-962.6" font-family="Arial" font-size="14.00">invite_id </text>
<text text-anchor="start" x="404.96" y="-962.6" font-family="Arial" font-size="14.00" fill="#666666">[bigint]</text>
<polygon fill="none" stroke="black" points="342.71,-919.6 342.71,-950.4 611.68,-950.4 611.68,-919.6 342.71,-919.6"/>
<text text-anchor="start" x="349.71" y="-931.8" font-family="Arial" font-size="14.00">used_by </text>
<text text-anchor="start" x="406.53" y="-931.8" font-family="Arial" font-size="14.00" fill="#666666">[bigint]</text>
<polygon fill="none" stroke="black" points="342.71,-888.8 342.71,-919.6 611.68,-919.6 611.68,-888.8 342.71,-888.8"/>
<text text-anchor="start" x="349.71" y="-901" font-family="Arial" font-size="14.00">used_at </text>
<text text-anchor="start" x="403.42" y="-901" font-family="Arial" font-size="14.00" fill="#666666">[timestamp with time zone]</text>
</g>
<!-- public.invite_uses&#45;&gt;public.invites -->
<g id="edge1" class="edge">
<title>public.invite_uses:invite_id&#45;&gt;public.invites:id</title>
<path fill="none" stroke="black" d="M622.89,-965.07C724.68,-950.21 712.26,-712.4 603.08,-712.4"/>
<polygon fill="black" stroke="black" points="622.99,-965.07 612.7,-961.29 617.67,-965.44 613.35,-965.75 613.35,-965.75 613.35,-965.75 617.67,-965.44 613.33,-970.26 622.99,-965.07"/>
<text text-anchor="start" x="619.68" y="-975.8" font-family="Arial" font-size="10.00">FOREIGN KEY (invite_id) REFERENCES invites(id) ON DELETE CASCADE</text>
</g>
</g>
</svg>
