<?xml version="1.0" encoding="UTF-8" standalone="no"?>
<!DOCTYPE svg PUBLIC "-//W3C//DTD SVG 1.1//EN"
 "http://www.w3.org/Graphics/SVG/1.1/DTD/svg11.dtd">
<!-- Generated by graphviz version 12.1.2 (20240928.0832)
 -->
<!-- Title: public.dm_participants Pages: 1 -->
<svg width="1041pt" height="664pt"
 viewBox="0.00 0.00 1041.02 663.60" xmlns="http://www.w3.org/2000/svg" xmlns:xlink="http://www.w3.org/1999/xlink">
<g id="graph0" class="graph" transform="scale(1 1) rotate(0) translate(4 659.6)">
<title>public.dm_participants</title>
<polygon fill="white" stroke="none" points="-4,4 -4,-659.6 1037.02,-659.6 1037.02,4 -4,4"/>
<!-- public.dm_participants -->
<g id="node1" class="node">
<title>public.dm_participants</title>
<polygon fill="#efefef" stroke="none" points="380.11,-573.8 380.11,-609.4 684.06,-609.4 684.06,-573.8 380.11,-573.8"/>
<polygon fill="none" stroke="black" points="380.11,-573.8 380.11,-609.4 684.06,-609.4 684.06,-573.8 380.11,-573.8"/>
<text text-anchor="start" x="387.11" y="-587.2" font-family="Arial Bold" font-size="18.00">public.dm_participants</text>
<text text-anchor="start" x="552.58" y="-587.2" font-family="Arial" font-size="14.00">    </text>
<text text-anchor="start" x="583.69" y="-587.2" font-family="Arial" font-size="14.00" fill="#666666">[BASE TABLE]</text>
<polygon fill="none" stroke="black" points="380.11,-543 380.11,-573.8 684.06,-573.8 684.06,-543 380.11,-543"/>
<text text-anchor="start" x="387.11" y="-555.2" font-family="Arial" font-size="14.00">channel_id </text>
<text text-anchor="start" x="458.73" y="-555.2" font-family="Arial" font-size="14.00" fill="#666666">[bigint]</text>
<polygon fill="none" stroke="black" points="380.11,-512.2 380.11,-543 684.06,-543 684.06,-512.2 380.11,-512.2"/>
<text text-anchor="start" x="387.11" y="-524.4" font-family="Arial" font-size="14.00">user_id </text>
<text text-anchor="start" x="436.92" y="-524.4" font-family="Arial" font-size="14.00" fill="#666666">[bigint]</text>
<polygon fill="none" stroke="black" stroke-width="3" points="378.61,-510.7 378.61,-610.9 685.56,-610.9 685.56,-510.7 378.61,-510.7"/>
</g>
<!-- public.channels -->
<g id="node2" class="node">
<title>public.channels</title>
<polygon fill="#efefef" stroke="none" points="226.25,-305 226.25,-340.6 479.93,-340.6 479.93,-305 226.25,-305"/>
<polygon fill="none" stroke="black" points="226.25,-305 226.25,-340.6 479.93,-340.6 479.93,-305 226.25,-305"/>
<text text-anchor="start" x="234.61" y="-318.4" font-family="Arial Bold" font-size="18.00">public.channels</text>
<text text-anchor="start" x="347.08" y="-318.4" font-family="Arial" font-size="14.00">    </text>
<text text-anchor="start" x="378.19" y="-318.4" font-family="Arial" font-size="14.00" fill="#666666">[BASE TABLE]</text>
<polygon fill="none" stroke="black" points="226.25,-274.2 226.25,-305 479.93,-305 479.93,-274.2 226.25,-274.2"/>
<text text-anchor="start" x="233.25" y="-286.4" font-family="Arial" font-size="14.00">id </text>
<text text-anchor="start" x="248.03" y="-286.4" font-family="Arial" font-size="14.00" fill="#666666">[bigint]</text>
<polygon fill="none" stroke="black" points="226.25,-243.4 226.25,-274.2 479.93,-274.2 479.93,-243.4 226.25,-243.4"/>
<text text-anchor="start" x="233.25" y="-255.6" font-family="Arial" font-size="14.00">type </text>
<text text-anchor="start" x="263.6" y="-255.6" font-family="Arial" font-size="14.00" fill="#666666">[channel_type]</text>
<polygon fill="none" stroke="black" points="226.25,-212.6 226.25,-243.4 479.93,-243.4 479.93,-212.6 226.25,-212.6"/>
<text text-anchor="start" x="233.25" y="-224.8" font-family="Arial" font-size="14.00">guild_id </text>
<text text-anchor="start" x="285.4" y="-224.8" font-family="Arial" font-size="14.00" fill="#666666">[bigint]</text>
<polygon fill="none" stroke="black" points="226.25,-181.8 226.25,-212.6 479.93,-212.6 479.93,-181.8 226.25,-181.8"/>
<text text-anchor="start" x="233.25" y="-194" font-family="Arial" font-size="14.00">name </text>
<text text-anchor="start" x="272.16" y="-194" font-family="Arial" font-size="14.00" fill="#666666">[text]</text>
<polygon fill="none" stroke="black" points="226.25,-151 226.25,-181.8 479.93,-181.8 479.93,-151 226.25,-151"/>
<text text-anchor="start" x="233.25" y="-163.2" font-family="Arial" font-size="14.00">created_by </text>
<text text-anchor="start" x="306.41" y="-163.2" font-family="Arial" font-size="14.00" fill="#666666">[bigint]</text>
<polygon fill="none" stroke="black" points="226.25,-120.2 226.25,-151 479.93,-151 479.93,-120.2 226.25,-120.2"/>
<text text-anchor="start" x="233.25" y="-132.4" font-family="Arial" font-size="14.00">created_at </text>
<text text-anchor="start" x="303.3" y="-132.4" font-family="Arial" font-size="14.00" fill="#666666">[timestamp with time zone]</text>
<polygon fill="none" stroke="black" points="226.25,-89.4 226.25,-120.2 479.93,-120.2 479.93,-89.4 226.25,-89.4"/>
<text text-anchor="start" x="233.25" y="-101.6" font-family="Arial" font-size="14.00">updated_at </text>
<text text-anchor="start" x="307.21" y="-101.6" font-family="Arial" font-size="14.00" fill="#666666">[timestamp with time zone]</text>
</g>
<!-- public.dm_participants&#45;&gt;public.channels -->
<g id="edge1" class="edge">
<title>public.dm_participants:channel_id&#45;&gt;public.channels:id</title>
<path fill="none" stroke="black" d="M368.88,-556.88C342.73,-547.76 364.11,-499.43 380.11,-466 404.92,-414.16 455.13,-435.64 479.93,-383.8 498,-346.03 522.8,-289.6 480.93,-289.6"/>
<polygon fill="black" stroke="black" points="368.89,-556.89 378.12,-562.8 374.17,-557.67 378.45,-558.3 378.45,-558.3 378.45,-558.3 374.17,-557.67 379.44,-553.9 368.89,-556.89"/>
<text text-anchor="start" x="7" y="-568.4" font-family="Arial" font-size="10.00">FOREIGN KEY (channel_id) REFERENCES channels(id) ON DELETE CASCADE</text>
</g>
<!-- public.users -->
<g id="node3" class="node">
<title>public.users</title>
<polygon fill="#efefef" stroke="none" points="584.25,-351.2 584.25,-386.8 837.93,-386.8 837.93,-351.2 584.25,-351.2"/>
<polygon fill="none" stroke="black" points="584.25,-351.2 584.25,-386.8 837.93,-386.8 837.93,-351.2 584.25,-351.2"/>
<text text-anchor="start" x="605.6" y="-364.6" font-family="Arial Bold" font-size="18.00">public.users</text>
<text text-anchor="start" x="692.09" y="-364.6" font-family="Arial" font-size="14.00">    </text>
<text text-anchor="start" x="723.2" y="-364.6" font-family="Arial" font-size="14.00" fill="#666666">[BASE TABLE]</text>
<polygon fill="none" stroke="black" points="584.25,-320.4 584.25,-351.2 837.93,-351.2 837.93,-320.4 584.25,-320.4"/>
<text text-anchor="start" x="591.25" y="-332.6" font-family="Arial" font-size="14.00">id </text>
<text text-anchor="start" x="606.03" y="-332.6" font-family="Arial" font-size="14.00" fill="#666666">[bigint]</text>
<polygon fill="none" stroke="black" points="584.25,-289.6 584.25,-320.4 837.93,-320.4 837.93,-289.6 584.25,-289.6"/>
<text text-anchor="start" x="591.25" y="-301.8" font-family="Arial" font-size="14.00">email </text>
<text text-anchor="start" x="628.59" y="-301.8" font-family="Arial" font-size="14.00" fill="#666666">[text]</text>
<polygon fill="none" stroke="black" points="584.25,-258.8 584.25,-289.6 837.93,-289.6 837.93,-258.8 584.25,-258.8"/>
<text text-anchor="start" x="591.25" y="-271" font-family="Arial" font-size="14.00">email_verified </text>
<text text-anchor="start" x="681.51" y="-271" font-family="Arial" font-size="14.00" fill="#666666">[boolean]</text>
<polygon fill="none" stroke="black" points="584.25,-228 584.25,-258.8 837.93,-258.8 837.93,-228 584.25,-228"/>
<text text-anchor="start" x="591.25" y="-240.2" font-family="Arial" font-size="14.00">password_hash </text>
<text text-anchor="start" x="693.2" y="-240.2" font-family="Arial" font-size="14.00" fill="#666666">[text]</text>
<polygon fill="none" stroke="black" points="584.25,-197.2 584.25,-228 837.93,-228 837.93,-197.2 584.25,-197.2"/>
<text text-anchor="start" x="591.25" y="-209.4" font-family="Arial" font-size="14.00">display_name </text>
<text text-anchor="start" x="681.52" y="-209.4" font-family="Arial" font-size="14.00" fill="#666666">[text]</text>
<polygon fill="none" stroke="black" points="584.25,-166.4 584.25,-197.2 837.93,-197.2 837.93,-166.4 584.25,-166.4"/>
<text text-anchor="start" x="591.25" y="-178.6" font-family="Arial" font-size="14.00">avatar_key </text>
<text text-anchor="start" x="663.62" y="-178.6" font-family="Arial" font-size="14.00" fill="#666666">[text]</text>
<polygon fill="none" stroke="black" points="584.25,-135.6 584.25,-166.4 837.93,-166.4 837.93,-135.6 584.25,-135.6"/>
<text text-anchor="start" x="591.25" y="-147.8" font-family="Arial" font-size="14.00">status_text </text>
<text text-anchor="start" x="662.84" y="-147.8" font-family="Arial" font-size="14.00" fill="#666666">[text]</text>
<polygon fill="none" stroke="black" points="584.25,-104.8 584.25,-135.6 837.93,-135.6 837.93,-104.8 584.25,-104.8"/>
<text text-anchor="start" x="591.25" y="-117" font-family="Arial" font-size="14.00">theme </text>
<text text-anchor="start" x="634.05" y="-117" font-family="Arial" font-size="14.00" fill="#666666">[text]</text>
<polygon fill="none" stroke="black" points="584.25,-74 584.25,-104.8 837.93,-104.8 837.93,-74 584.25,-74"/>
<text text-anchor="start" x="591.25" y="-86.2" font-family="Arial" font-size="14.00">created_at </text>
<text text-anchor="start" x="661.3" y="-86.2" font-family="Arial" font-size="14.00" fill="#666666">[timestamp with time zone]</text>
<polygon fill="none" stroke="black" points="584.25,-43.2 584.25,-74 837.93,-74 837.93,-43.2 584.25,-43.2"/>
<text text-anchor="start" x="591.25" y="-55.4" font-family="Arial" font-size="14.00">updated_at </text>
<text text-anchor="start" x="665.21" y="-55.4" font-family="Arial" font-size="14.00" fill="#666666">[timestamp with time zone]</text>
</g>
<!-- public.dm_participants&#45;&gt;public.users -->
<g id="edge2" class="edge">
<title>public.dm_participants:user_id&#45;&gt;public.users:id</title>
<path fill="none" stroke="black" d="M695.12,-524.93C708.47,-515.73 697.5,-484.8 684.06,-466 656.65,-427.63 611.56,-468.45 584.25,-430 560,-395.87 541.38,-335.8 583.25,-335.8"/>
<polygon fill="black" stroke="black" points="695.05,-524.95 684.23,-523.16 689.9,-526.32 685.71,-527.43 685.71,-527.43 685.71,-527.43 689.9,-526.32 686.54,-531.86 695.05,-524.95"/>
<text text-anchor="start" x="692.06" y="-537.6" font-family="Arial" font-size="10.00">FOREIGN KEY (user_id) REFERENCES users(id) ON DELETE CASCADE</text>
</g>
</g>
</svg>
