<?xml version="1.0" encoding="UTF-8" standalone="no"?>
<!DOCTYPE svg PUBLIC "-//W3C//DTD SVG 1.1//EN"
 "http://www.w3.org/Graphics/SVG/1.1/DTD/svg11.dtd">
<!-- Generated by graphviz version 12.1.2 (20240928.0832)
 -->
<!-- Title: public.channel_role_permission_overrides_v2 Pages: 1 -->
<svg width="1364pt" height="848pt"
 viewBox="0.00 0.00 1364.08 848.40" xmlns="http://www.w3.org/2000/svg" xmlns:xlink="http://www.w3.org/1999/xlink">
<g id="graph0" class="graph" transform="scale(1 1) rotate(0) translate(4 844.4)">
<title>public.channel_role_permission_overrides_v2</title>
<polygon fill="white" stroke="none" points="-4,4 -4,-844.4 1360.08,-844.4 1360.08,4 -4,4"/>
<!-- public.channel_role_permission_overrides_v2 -->
<g id="node1" class="node">
<title>public.channel_role_permission_overrides_v2</title>
<polygon fill="#efefef" stroke="none" points="380.11,-758.6 380.11,-794.2 852.01,-794.2 852.01,-758.6 380.11,-758.6"/>
<polygon fill="none" stroke="black" points="380.11,-758.6 380.11,-794.2 852.01,-794.2 852.01,-758.6 380.11,-758.6"/>
<text text-anchor="start" x="387.11" y="-772" font-family="Arial Bold" font-size="18.00">public.channel_role_permission_overrides_v2</text>
<text text-anchor="start" x="720.53" y="-772" font-family="Arial" font-size="14.00">    </text>
<text text-anchor="start" x="751.64" y="-772" font-family="Arial" font-size="14.00" fill="#666666">[BASE TABLE]</text>
<polygon fill="none" stroke="black" points="380.11,-727.8 380.11,-758.6 852.01,-758.6 852.01,-727.8 380.11,-727.8"/>
<text text-anchor="start" x="387.11" y="-740" font-family="Arial" font-size="14.00">channel_id </text>
<text text-anchor="start" x="458.73" y="-740" font-family="Arial" font-size="14.00" fill="#666666">[bigint]</text>
<polygon fill="none" stroke="black" points="380.11,-697 380.11,-727.8 852.01,-727.8 852.01,-697 380.11,-697"/>
<text text-anchor="start" x="387.11" y="-709.2" font-family="Arial" font-size="14.00">guild_id </text>
<text text-anchor="start" x="439.26" y="-709.2" font-family="Arial" font-size="14.00" fill="#666666">[bigint]</text>
<polygon fill="none" stroke="black" points="380.11,-666.2 380.11,-697 852.01,-697 852.01,-666.2 380.11,-666.2"/>
<text text-anchor="start" x="387.11" y="-678.4" font-family="Arial" font-size="14.00">role_key </text>
<text text-anchor="start" x="443.92" y="-678.4" font-family="Arial" font-size="14.00" fill="#666666">[text]</text>
<polygon fill="none" stroke="black" points="380.11,-635.4 380.11,-666.2 852.01,-666.2 852.01,-635.4 380.11,-635.4"/>
<text text-anchor="start" x="387.11" y="-647.6" font-family="Arial" font-size="14.00">can_view </text>
<text text-anchor="start" x="449.37" y="-647.6" font-family="Arial" font-size="14.00" fill="#666666">[boolean]</text>
<polygon fill="none" stroke="black" points="380.11,-604.6 380.11,-635.4 852.01,-635.4 852.01,-604.6 380.11,-604.6"/>
<text text-anchor="start" x="387.11" y="-616.8" font-family="Arial" font-size="14.00">can_post </text>
<text text-anchor="start" x="447.82" y="-616.8" font-family="Arial" font-size="14.00" fill="#666666">[boolean]</text>
<polygon fill="none" stroke="black" points="380.11,-573.8 380.11,-604.6 852.01,-604.6 852.01,-573.8 380.11,-573.8"/>
<text text-anchor="start" x="387.11" y="-586" font-family="Arial" font-size="14.00">created_at </text>
<text text-anchor="start" x="457.16" y="-586" font-family="Arial" font-size="14.00" fill="#666666">[timestamp with time zone]</text>
<polygon fill="none" stroke="black" points="380.11,-543 380.11,-573.8 852.01,-573.8 852.01,-543 380.11,-543"/>
<text text-anchor="start" x="387.11" y="-555.2" font-family="Arial" font-size="14.00">updated_at </text>
<text text-anchor="start" x="461.07" y="-555.2" font-family="Arial" font-size="14.00" fill="#666666">[timestamp with time zone]</text>
<polygon fill="none" stroke="black" stroke-width="3" points="378.61,-541.5 378.61,-795.7 853.51,-795.7 853.51,-541.5 378.61,-541.5"/>
</g>
<!-- public.channels -->
<g id="node2" class="node">
<title>public.channels</title>
<polygon fill="#efefef" stroke="none" points="300.22,-320.4 300.22,-356 553.9,-356 553.9,-320.4 300.22,-320.4"/>
<polygon fill="none" stroke="black" points="300.22,-320.4 300.22,-356 553.9,-356 553.9,-320.4 300.22,-320.4"/>
<text text-anchor="start" x="308.59" y="-333.8" font-family="Arial Bold" font-size="18.00">public.channels</text>
<text text-anchor="start" x="421.05" y="-333.8" font-family="Arial" font-size="14.00">    </text>
<text text-anchor="start" x="452.17" y="-333.8" font-family="Arial" font-size="14.00" fill="#666666">[BASE TABLE]</text>
<polygon fill="none" stroke="black" points="300.22,-289.6 300.22,-320.4 553.9,-320.4 553.9,-289.6 300.22,-289.6"/>
<text text-anchor="start" x="307.22" y="-301.8" font-family="Arial" font-size="14.00">id </text>
<text text-anchor="start" x="322.01" y="-301.8" font-family="Arial" font-size="14.00" fill="#666666">[bigint]</text>
<polygon fill="none" stroke="black" points="300.22,-258.8 300.22,-289.6 553.9,-289.6 553.9,-258.8 300.22,-258.8"/>
<text text-anchor="start" x="307.22" y="-271" font-family="Arial" font-size="14.00">type </text>
<text text-anchor="start" x="337.57" y="-271" font-family="Arial" font-size="14.00" fill="#666666">[channel_type]</text>
<polygon fill="none" stroke="black" points="300.22,-228 300.22,-258.8 553.9,-258.8 553.9,-228 300.22,-228"/>
<text text-anchor="start" x="307.22" y="-240.2" font-family="Arial" font-size="14.00">guild_id </text>
<text text-anchor="start" x="359.37" y="-240.2" font-family="Arial" font-size="14.00" fill="#666666">[bigint]</text>
<polygon fill="none" stroke="black" points="300.22,-197.2 300.22,-228 553.9,-228 553.9,-197.2 300.22,-197.2"/>
<text text-anchor="start" x="307.22" y="-209.4" font-family="Arial" font-size="14.00">name </text>
<text text-anchor="start" x="346.13" y="-209.4" font-family="Arial" font-size="14.00" fill="#666666">[text]</text>
<polygon fill="none" stroke="black" points="300.22,-166.4 300.22,-197.2 553.9,-197.2 553.9,-166.4 300.22,-166.4"/>
<text text-anchor="start" x="307.22" y="-178.6" font-family="Arial" font-size="14.00">created_by </text>
<text text-anchor="start" x="380.38" y="-178.6" font-family="Arial" font-size="14.00" fill="#666666">[bigint]</text>
<polygon fill="none" stroke="black" points="300.22,-135.6 300.22,-166.4 553.9,-166.4 553.9,-135.6 300.22,-135.6"/>
<text text-anchor="start" x="307.22" y="-147.8" font-family="Arial" font-size="14.00">created_at </text>
<text text-anchor="start" x="377.27" y="-147.8" font-family="Arial" font-size="14.00" fill="#666666">[timestamp with time zone]</text>
<polygon fill="none" stroke="black" points="300.22,-104.8 300.22,-135.6 553.9,-135.6 553.9,-104.8 300.22,-104.8"/>
<text text-anchor="start" x="307.22" y="-117" font-family="Arial" font-size="14.00">updated_at </text>
<text text-anchor="start" x="381.18" y="-117" font-family="Arial" font-size="14.00" fill="#666666">[timestamp with time zone]</text>
</g>
<!-- public.channel_role_permission_overrides_v2&#45;&gt;public.channels -->
<g id="edge1" class="edge">
<title>public.channel_role_permission_overrides_v2:channel_id&#45;&gt;public.channels:id</title>
<path fill="none" stroke="black" d="M368.74,-742.7C273.25,-733.17 326.44,-588.07 380.11,-496.8 425.02,-420.44 508.75,-475.42 553.9,-399.2 575.25,-363.18 596.77,-305 554.9,-305"/>
<polygon fill="black" stroke="black" points="368.79,-742.71 378.56,-747.68 374.12,-742.96 378.44,-743.17 378.44,-743.17 378.44,-743.17 374.12,-742.96 378.99,-738.69 368.79,-742.71"/>
<text text-anchor="start" x="7" y="-753.2" font-family="Arial" font-size="10.00">FOREIGN KEY (channel_id) REFERENCES channels(id) ON DELETE CASCADE</text>
</g>
<!-- public.guild_roles_v2 -->
<g id="node3" class="node">
<title>public.guild_roles_v2</title>
<polygon fill="#efefef" stroke="none" points="658.08,-382 658.08,-417.6 954.05,-417.6 954.05,-382 658.08,-382"/>
<polygon fill="none" stroke="black" points="658.08,-382 658.08,-417.6 954.05,-417.6 954.05,-382 658.08,-382"/>
<text text-anchor="start" x="665.08" y="-395.4" font-family="Arial Bold" font-size="18.00">public.guild_roles_v2</text>
<text text-anchor="start" x="822.56" y="-395.4" font-family="Arial" font-size="14.00">    </text>
<text text-anchor="start" x="853.68" y="-395.4" font-family="Arial" font-size="14.00" fill="#666666">[BASE TABLE]</text>
<polygon fill="none" stroke="black" points="658.08,-351.2 658.08,-382 954.05,-382 954.05,-351.2 658.08,-351.2"/>
<text text-anchor="start" x="665.08" y="-363.4" font-family="Arial" font-size="14.00">guild_id </text>
<text text-anchor="start" x="717.23" y="-363.4" font-family="Arial" font-size="14.00" fill="#666666">[bigint]</text>
<polygon fill="none" stroke="black" points="658.08,-320.4 658.08,-351.2 954.05,-351.2 954.05,-320.4 658.08,-320.4"/>
<text text-anchor="start" x="665.08" y="-332.6" font-family="Arial" font-size="14.00">role_key </text>
<text text-anchor="start" x="721.88" y="-332.6" font-family="Arial" font-size="14.00" fill="#666666">[text]</text>
<polygon fill="none" stroke="black" points="658.08,-289.6 658.08,-320.4 954.05,-320.4 954.05,-289.6 658.08,-289.6"/>
<text text-anchor="start" x="665.08" y="-301.8" font-family="Arial" font-size="14.00">name </text>
<text text-anchor="start" x="703.99" y="-301.8" font-family="Arial" font-size="14.00" fill="#666666">[text]</text>
<polygon fill="none" stroke="black" points="658.08,-258.8 658.08,-289.6 954.05,-289.6 954.05,-258.8 658.08,-258.8"/>
<text text-anchor="start" x="665.08" y="-271" font-family="Arial" font-size="14.00">priority </text>
<text text-anchor="start" x="710.97" y="-271" font-family="Arial" font-size="14.00" fill="#666666">[integer]</text>
<polygon fill="none" stroke="black" points="658.08,-228 658.08,-258.8 954.05,-258.8 954.05,-228 658.08,-228"/>
<text text-anchor="start" x="665.08" y="-240.2" font-family="Arial" font-size="14.00">allow_view </text>
<text text-anchor="start" x="736.66" y="-240.2" font-family="Arial" font-size="14.00" fill="#666666">[boolean]</text>
<polygon fill="none" stroke="black" points="658.08,-197.2 658.08,-228 954.05,-228 954.05,-197.2 658.08,-197.2"/>
<text text-anchor="start" x="665.08" y="-209.4" font-family="Arial" font-size="14.00">allow_post </text>
<text text-anchor="start" x="735.12" y="-209.4" font-family="Arial" font-size="14.00" fill="#666666">[boolean]</text>
<polygon fill="none" stroke="black" points="658.08,-166.4 658.08,-197.2 954.05,-197.2 954.05,-166.4 658.08,-166.4"/>
<text text-anchor="start" x="665.08" y="-178.6" font-family="Arial" font-size="14.00">allow_manage </text>
<text text-anchor="start" x="759.25" y="-178.6" font-family="Arial" font-size="14.00" fill="#666666">[boolean]</text>
<polygon fill="none" stroke="black" points="658.08,-135.6 658.08,-166.4 954.05,-166.4 954.05,-135.6 658.08,-135.6"/>
<text text-anchor="start" x="665.08" y="-147.8" font-family="Arial" font-size="14.00">is_system </text>
<text text-anchor="start" x="731.2" y="-147.8" font-family="Arial" font-size="14.00" fill="#666666">[boolean]</text>
<polygon fill="none" stroke="black" points="658.08,-104.8 658.08,-135.6 954.05,-135.6 954.05,-104.8 658.08,-104.8"/>
<text text-anchor="start" x="665.08" y="-117" font-family="Arial" font-size="14.00">created_at </text>
<text text-anchor="start" x="735.13" y="-117" font-family="Arial" font-size="14.00" fill="#666666">[timestamp with time zone]</text>
<polygon fill="none" stroke="black" points="658.08,-74 658.08,-104.8 954.05,-104.8 954.05,-74 658.08,-74"/>
<text text-anchor="start" x="665.08" y="-86.2" font-family="Arial" font-size="14.00">updated_at </text>
<text text-anchor="start" x="739.04" y="-86.2" font-family="Arial" font-size="14.00" fill="#666666">[timestamp with time zone]</text>
<polygon fill="none" stroke="black" points="658.08,-43.2 658.08,-74 954.05,-74 954.05,-43.2 658.08,-43.2"/>
<text text-anchor="start" x="665.08" y="-55.4" font-family="Arial" font-size="14.00">source_level </text>
<text text-anchor="start" x="747.57" y="-55.4" font-family="Arial" font-size="14.00" fill="#666666">[role_level]</text>
</g>
<!-- public.channel_role_permission_overrides_v2&#45;&gt;public.guild_roles_v2 -->
<g id="edge2" class="edge">
<title>public.channel_role_permission_overrides_v2:guild_id&#45;&gt;public.guild_roles_v2:guild_id</title>
<path fill="none" stroke="black" d="M863.4,-711.79C946.1,-701.68 911.11,-567.54 852.01,-496.8 795.81,-429.52 714.48,-527.91 658.08,-460.8 631.14,-428.75 615.21,-366.6 657.08,-366.6"/>
<polygon fill="black" stroke="black" points="863.33,-711.8 853.09,-707.89 858.01,-712.11 853.68,-712.36 853.68,-712.36 853.68,-712.36 858.01,-712.11 853.61,-716.87 863.33,-711.8"/>
<text text-anchor="start" x="860.01" y="-722.4" font-family="Arial" font-size="10.00">FOREIGN KEY (guild_id, role_key) REFERENCES guild_roles_v2(guild_id, role_key) ON DELETE CASCADE</text>
</g>
</g>
</svg>
