<?xml version="1.0" encoding="UTF-8" standalone="no"?>
<!DOCTYPE svg PUBLIC "-//W3C//DTD SVG 1.1//EN"
 "http://www.w3.org/Graphics/SVG/1.1/DTD/svg11.dtd">
<!-- Generated by graphviz version 12.1.2 (20240928.0832)
 -->
<!-- Title: public.guild_member_roles_v2 Pages: 1 -->
<svg width="1376pt" height="787pt"
 viewBox="0.00 0.00 1375.61 786.80" xmlns="http://www.w3.org/2000/svg" xmlns:xlink="http://www.w3.org/1999/xlink">
<g id="graph0" class="graph" transform="scale(1 1) rotate(0) translate(4 782.8)">
<title>public.guild_member_roles_v2</title>
<polygon fill="white" stroke="none" points="-4,4 -4,-782.8 1371.61,-782.8 1371.61,4 -4,4"/>
<!-- public.guild_member_roles_v2 -->
<g id="node1" class="node">
<title>public.guild_member_roles_v2</title>
<polygon fill="#efefef" stroke="none" points="497.94,-697 497.94,-732.6 861.89,-732.6 861.89,-697 497.94,-697"/>
<polygon fill="none" stroke="black" points="497.94,-697 497.94,-732.6 861.89,-732.6 861.89,-697 497.94,-697"/>
<text text-anchor="start" x="504.94" y="-710.4" font-family="Arial Bold" font-size="18.00">public.guild_member_roles_v2</text>
<text text-anchor="start" x="730.4" y="-710.4" font-family="Arial" font-size="14.00">    </text>
<text text-anchor="start" x="761.52" y="-710.4" font-family="Arial" font-size="14.00" fill="#666666">[BASE TABLE]</text>
<polygon fill="none" stroke="black" points="497.94,-666.2 497.94,-697 861.89,-697 861.89,-666.2 497.94,-666.2"/>
<text text-anchor="start" x="504.94" y="-678.4" font-family="Arial" font-size="14.00">guild_id </text>
<text text-anchor="start" x="557.1" y="-678.4" font-family="Arial" font-size="14.00" fill="#666666">[bigint]</text>
<polygon fill="none" stroke="black" points="497.94,-635.4 497.94,-666.2 861.89,-666.2 861.89,-635.4 497.94,-635.4"/>
<text text-anchor="start" x="504.94" y="-647.6" font-family="Arial" font-size="14.00">user_id </text>
<text text-anchor="start" x="554.75" y="-647.6" font-family="Arial" font-size="14.00" fill="#666666">[bigint]</text>
<polygon fill="none" stroke="black" points="497.94,-604.6 497.94,-635.4 861.89,-635.4 861.89,-604.6 497.94,-604.6"/>
<text text-anchor="start" x="504.94" y="-616.8" font-family="Arial" font-size="14.00">role_key </text>
<text text-anchor="start" x="561.75" y="-616.8" font-family="Arial" font-size="14.00" fill="#666666">[text]</text>
<polygon fill="none" stroke="black" points="497.94,-573.8 497.94,-604.6 861.89,-604.6 861.89,-573.8 497.94,-573.8"/>
<text text-anchor="start" x="504.94" y="-586" font-family="Arial" font-size="14.00">assigned_at </text>
<text text-anchor="start" x="584.34" y="-586" font-family="Arial" font-size="14.00" fill="#666666">[timestamp with time zone]</text>
<polygon fill="none" stroke="black" points="497.94,-543 497.94,-573.8 861.89,-573.8 861.89,-543 497.94,-543"/>
<text text-anchor="start" x="504.94" y="-555.2" font-family="Arial" font-size="14.00">assigned_by </text>
<text text-anchor="start" x="587.45" y="-555.2" font-family="Arial" font-size="14.00" fill="#666666">[bigint]</text>
<polygon fill="none" stroke="black" stroke-width="3" points="496.44,-541.5 496.44,-734.1 863.39,-734.1 863.39,-541.5 496.44,-541.5"/>
</g>
<!-- public.guild_members -->
<g id="node2" class="node">
<title>public.guild_members</title>
<polygon fill="#efefef" stroke="none" points="127.94,-274.2 127.94,-309.8 427.9,-309.8 427.9,-274.2 127.94,-274.2"/>
<polygon fill="none" stroke="black" points="127.94,-274.2 127.94,-309.8 427.9,-309.8 427.9,-274.2 127.94,-274.2"/>
<text text-anchor="start" x="134.94" y="-287.6" font-family="Arial Bold" font-size="18.00">public.guild_members</text>
<text text-anchor="start" x="296.41" y="-287.6" font-family="Arial" font-size="14.00">    </text>
<text text-anchor="start" x="327.53" y="-287.6" font-family="Arial" font-size="14.00" fill="#666666">[BASE TABLE]</text>
<polygon fill="none" stroke="black" points="127.94,-243.4 127.94,-274.2 427.9,-274.2 427.9,-243.4 127.94,-243.4"/>
<text text-anchor="start" x="134.94" y="-255.6" font-family="Arial" font-size="14.00">guild_id </text>
<text text-anchor="start" x="187.09" y="-255.6" font-family="Arial" font-size="14.00" fill="#666666">[bigint]</text>
<polygon fill="none" stroke="black" points="127.94,-212.6 127.94,-243.4 427.9,-243.4 427.9,-212.6 127.94,-212.6"/>
<text text-anchor="start" x="134.94" y="-224.8" font-family="Arial" font-size="14.00">user_id </text>
<text text-anchor="start" x="184.74" y="-224.8" font-family="Arial" font-size="14.00" fill="#666666">[bigint]</text>
<polygon fill="none" stroke="black" points="127.94,-181.8 127.94,-212.6 427.9,-212.6 427.9,-181.8 127.94,-181.8"/>
<text text-anchor="start" x="134.94" y="-194" font-family="Arial" font-size="14.00">joined_at </text>
<text text-anchor="start" x="195.65" y="-194" font-family="Arial" font-size="14.00" fill="#666666">[timestamp with time zone]</text>
<polygon fill="none" stroke="black" points="127.94,-151 127.94,-181.8 427.9,-181.8 427.9,-151 127.94,-151"/>
<text text-anchor="start" x="134.94" y="-163.2" font-family="Arial" font-size="14.00">nickname </text>
<text text-anchor="start" x="198.74" y="-163.2" font-family="Arial" font-size="14.00" fill="#666666">[text]</text>
</g>
<!-- public.guild_member_roles_v2&#45;&gt;public.guild_members -->
<g id="edge1" class="edge">
<title>public.guild_member_roles_v2:guild_id&#45;&gt;public.guild_members:guild_id</title>
<path fill="none" stroke="black" d="M486.76,-679.71C411,-649.21 520.35,-258.8 428.9,-258.8"/>
<polygon fill="black" stroke="black" points="486.78,-679.72 495.8,-685.96 492.03,-680.69 496.29,-681.48 496.29,-681.48 496.29,-681.48 492.03,-680.69 497.43,-677.11 486.78,-679.72"/>
<text text-anchor="start" x="7" y="-691.6" font-family="Arial" font-size="10.00">FOREIGN KEY (guild_id, user_id) REFERENCES guild_members(guild_id, user_id) ON DELETE CASCADE</text>
</g>
<!-- public.guild_roles_v2 -->
<g id="node3" class="node">
<title>public.guild_roles_v2</title>
<polygon fill="#efefef" stroke="none" points="531.93,-382 531.93,-417.6 827.9,-417.6 827.9,-382 531.93,-382"/>
<polygon fill="none" stroke="black" points="531.93,-382 531.93,-417.6 827.9,-417.6 827.9,-382 531.93,-382"/>
<text text-anchor="start" x="538.93" y="-395.4" font-family="Arial Bold" font-size="18.00">public.guild_roles_v2</text>
<text text-anchor="start" x="696.41" y="-395.4" font-family="Arial" font-size="14.00">    </text>
<text text-anchor="start" x="727.53" y="-395.4" font-family="Arial" font-size="14.00" fill="#666666">[BASE TABLE]</text>
<polygon fill="none" stroke="black" points="531.93,-351.2 531.93,-382 827.9,-382 827.9,-351.2 531.93,-351.2"/>
<text text-anchor="start" x="538.93" y="-363.4" font-family="Arial" font-size="14.00">guild_id </text>
<text text-anchor="start" x="591.08" y="-363.4" font-family="Arial" font-size="14.00" fill="#666666">[bigint]</text>
<polygon fill="none" stroke="black" points="531.93,-320.4 531.93,-351.2 827.9,-351.2 827.9,-320.4 531.93,-320.4"/>
<text text-anchor="start" x="538.93" y="-332.6" font-family="Arial" font-size="14.00">role_key </text>
<text text-anchor="start" x="595.74" y="-332.6" font-family="Arial" font-size="14.00" fill="#666666">[text]</text>
<polygon fill="none" stroke="black" points="531.93,-289.6 531.93,-320.4 827.9,-320.4 827.9,-289.6 531.93,-289.6"/>
<text text-anchor="start" x="538.93" y="-301.8" font-family="Arial" font-size="14.00">name </text>
<text text-anchor="start" x="577.84" y="-301.8" font-family="Arial" font-size="14.00" fill="#666666">[text]</text>
<polygon fill="none" stroke="black" points="531.93,-258.8 531.93,-289.6 827.9,-289.6 827.9,-258.8 531.93,-258.8"/>
<text text-anchor="start" x="538.93" y="-271" font-family="Arial" font-size="14.00">priority </text>
<text text-anchor="start" x="584.83" y="-271" font-family="Arial" font-size="14.00" fill="#666666">[integer]</text>
<polygon fill="none" stroke="black" points="531.93,-228 531.93,-258.8 827.9,-258.8 827.9,-228 531.93,-228"/>
<text text-anchor="start" x="538.93" y="-240.2" font-family="Arial" font-size="14.00">allow_view </text>
<text text-anchor="start" x="610.52" y="-240.2" font-family="Arial" font-size="14.00" fill="#666666">[boolean]</text>
<polygon fill="none" stroke="black" points="531.93,-197.2 531.93,-228 827.9,-228 827.9,-197.2 531.93,-197.2"/>
<text text-anchor="start" x="538.93" y="-209.4" font-family="Arial" font-size="14.00">allow_post </text>
<text text-anchor="start" x="608.97" y="-209.4" font-family="Arial" font-size="14.00" fill="#666666">[boolean]</text>
<polygon fill="none" stroke="black" points="531.93,-166.4 531.93,-197.2 827.9,-197.2 827.9,-166.4 531.93,-166.4"/>
<text text-anchor="start" x="538.93" y="-178.6" font-family="Arial" font-size="14.00">allow_manage </text>
<text text-anchor="start" x="633.1" y="-178.6" font-family="Arial" font-size="14.00" fill="#666666">[boolean]</text>
<polygon fill="none" stroke="black" points="531.93,-135.6 531.93,-166.4 827.9,-166.4 827.9,-135.6 531.93,-135.6"/>
<text text-anchor="start" x="538.93" y="-147.8" font-family="Arial" font-size="14.00">is_system </text>
<text text-anchor="start" x="605.06" y="-147.8" font-family="Arial" font-size="14.00" fill="#666666">[boolean]</text>
<polygon fill="none" stroke="black" points="531.93,-104.8 531.93,-135.6 827.9,-135.6 827.9,-104.8 531.93,-104.8"/>
<text text-anchor="start" x="538.93" y="-117" font-family="Arial" font-size="14.00">created_at </text>
<text text-anchor="start" x="608.98" y="-117" font-family="Arial" font-size="14.00" fill="#666666">[timestamp with time zone]</text>
<polygon fill="none" stroke="black" points="531.93,-74 531.93,-104.8 827.9,-104.8 827.9,-74 531.93,-74"/>
<text text-anchor="start" x="538.93" y="-86.2" font-family="Arial" font-size="14.00">updated_at </text>
<text text-anchor="start" x="612.89" y="-86.2" font-family="Arial" font-size="14.00" fill="#666666">[timestamp with time zone]</text>
<polygon fill="none" stroke="black" points="531.93,-43.2 531.93,-74 827.9,-74 827.9,-43.2 531.93,-43.2"/>
<text text-anchor="start" x="538.93" y="-55.4" font-family="Arial" font-size="14.00">source_level </text>
<text text-anchor="start" x="621.42" y="-55.4" font-family="Arial" font-size="14.00" fill="#666666">[role_level]</text>
</g>
<!-- public.guild_member_roles_v2&#45;&gt;public.guild_roles_v2 -->
<g id="edge2" class="edge">
<title>public.guild_member_roles_v2:guild_id&#45;&gt;public.guild_roles_v2:guild_id</title>
<path fill="none" stroke="black" d="M870.62,-674.73C892.11,-628.66 861.01,-366.6 828.9,-366.6"/>
<polygon fill="black" stroke="black" points="870.61,-674.73 860.15,-678.02 866.63,-678.28 863.39,-681.16 863.39,-681.16 863.39,-681.16 866.63,-678.28 866.13,-684.74 870.61,-674.73"/>
<text text-anchor="start" x="869.89" y="-691.6" font-family="Arial" font-size="10.00">FOREIGN KEY (guild_id, role_key) REFERENCES guild_roles_v2(guild_id, role_key) ON DELETE RESTRICT</text>
</g>
<!-- public.users -->
<g id="node4" class="node">
<title>public.users</title>
<polygon fill="#efefef" stroke="none" points="932.08,-335.8 932.08,-371.4 1185.76,-371.4 1185.76,-335.8 932.08,-335.8"/>
<polygon fill="none" stroke="black" points="932.08,-335.8 932.08,-371.4 1185.76,-371.4 1185.76,-335.8 932.08,-335.8"/>
<text text-anchor="start" x="953.43" y="-349.2" font-family="Arial Bold" font-size="18.00">public.users</text>
<text text-anchor="start" x="1039.92" y="-349.2" font-family="Arial" font-size="14.00">    </text>
<text text-anchor="start" x="1071.03" y="-349.2" font-family="Arial" font-size="14.00" fill="#666666">[BASE TABLE]</text>
<polygon fill="none" stroke="black" points="932.08,-305 932.08,-335.8 1185.76,-335.8 1185.76,-305 932.08,-305"/>
<text text-anchor="start" x="939.08" y="-317.2" font-family="Arial" font-size="14.00">id </text>
<text text-anchor="start" x="953.86" y="-317.2" font-family="Arial" font-size="14.00" fill="#666666">[bigint]</text>
<polygon fill="none" stroke="black" points="932.08,-274.2 932.08,-305 1185.76,-305 1185.76,-274.2 932.08,-274.2"/>
<text text-anchor="start" x="939.08" y="-286.4" font-family="Arial" font-size="14.00">email </text>
<text text-anchor="start" x="976.42" y="-286.4" font-family="Arial" font-size="14.00" fill="#666666">[text]</text>
<polygon fill="none" stroke="black" points="932.08,-243.4 932.08,-274.2 1185.76,-274.2 1185.76,-243.4 932.08,-243.4"/>
<text text-anchor="start" x="939.08" y="-255.6" font-family="Arial" font-size="14.00">display_name </text>
<text text-anchor="start" x="1029.35" y="-255.6" font-family="Arial" font-size="14.00" fill="#666666">[text]</text>
<polygon fill="none" stroke="black" points="932.08,-212.6 932.08,-243.4 1185.76,-243.4 1185.76,-212.6 932.08,-212.6"/>
<text text-anchor="start" x="939.08" y="-224.8" font-family="Arial" font-size="14.00">avatar_key </text>
<text text-anchor="start" x="1011.45" y="-224.8" font-family="Arial" font-size="14.00" fill="#666666">[text]</text>
<polygon fill="none" stroke="black" points="932.08,-181.8 932.08,-212.6 1185.76,-212.6 1185.76,-181.8 932.08,-181.8"/>
<text text-anchor="start" x="939.08" y="-194" font-family="Arial" font-size="14.00">status_text </text>
<text text-anchor="start" x="1010.67" y="-194" font-family="Arial" font-size="14.00" fill="#666666">[text]</text>
<polygon fill="none" stroke="black" points="932.08,-151 932.08,-181.8 1185.76,-181.8 1185.76,-151 932.08,-151"/>
<text text-anchor="start" x="939.08" y="-163.2" font-family="Arial" font-size="14.00">theme </text>
<text text-anchor="start" x="981.88" y="-163.2" font-family="Arial" font-size="14.00" fill="#666666">[text]</text>
<polygon fill="none" stroke="black" points="932.08,-120.2 932.08,-151 1185.76,-151 1185.76,-120.2 932.08,-120.2"/>
<text text-anchor="start" x="939.08" y="-132.4" font-family="Arial" font-size="14.00">created_at </text>
<text text-anchor="start" x="1009.12" y="-132.4" font-family="Arial" font-size="14.00" fill="#666666">[timestamp with time zone]</text>
<polygon fill="none" stroke="black" points="932.08,-89.4 932.08,-120.2 1185.76,-120.2 1185.76,-89.4 932.08,-89.4"/>
<text text-anchor="start" x="939.08" y="-101.6" font-family="Arial" font-size="14.00">updated_at </text>
<text text-anchor="start" x="1013.03" y="-101.6" font-family="Arial" font-size="14.00" fill="#666666">[timestamp with time zone]</text>
</g>
<!-- public.guild_member_roles_v2&#45;&gt;public.users -->
<g id="edge3" class="edge">
<title>public.guild_member_roles_v2:assigned_by&#45;&gt;public.users:id</title>
<path fill="none" stroke="black" d="M873.28,-557.58C962.85,-542.41 824.8,-320.4 931.08,-320.4"/>
<polygon fill="black" stroke="black" points="873.19,-557.59 862.87,-553.89 867.88,-558.01 863.56,-558.35 863.56,-558.35 863.56,-558.35 867.88,-558.01 863.58,-562.86 873.19,-557.59"/>
<text text-anchor="start" x="869.89" y="-568.4" font-family="Arial" font-size="10.00">FOREIGN KEY (assigned_by) REFERENCES users(id) ON DELETE SET NULL</text>
</g>
</g>
</svg>
