<?xml version="1.0" encoding="UTF-8" standalone="no"?>
<!DOCTYPE svg PUBLIC "-//W3C//DTD SVG 1.1//EN"
 "http://www.w3.org/Graphics/SVG/1.1/DTD/svg11.dtd">
<!-- Generated by graphviz version 12.1.2 (20240928.0832)
 -->
<!-- Title: public.password_reset_tokens Pages: 1 -->
<svg width="758pt" height="725pt"
 viewBox="0.00 0.00 758.11 725.20" xmlns="http://www.w3.org/2000/svg" xmlns:xlink="http://www.w3.org/1999/xlink">
<g id="graph0" class="graph" transform="scale(1 1) rotate(0) translate(4 721.2)">
<title>public.password_reset_tokens</title>
<polygon fill="white" stroke="none" points="-4,4 -4,-721.2 754.11,-721.2 754.11,4 -4,4"/>
<!-- public.password_reset_tokens -->
<g id="node1" class="node">
<title>public.password_reset_tokens</title>
<polygon fill="#efefef" stroke="none" points="46.2,-635.4 46.2,-671 401.15,-671 401.15,-635.4 46.2,-635.4"/>
<polygon fill="none" stroke="black" points="46.2,-635.4 46.2,-671 401.15,-671 401.15,-635.4 46.2,-635.4"/>
<text text-anchor="start" x="53.2" y="-648.8" font-family="Arial Bold" font-size="18.00">public.password_reset_tokens</text>
<text text-anchor="start" x="269.66" y="-648.8" font-family="Arial" font-size="14.00">    </text>
<text text-anchor="start" x="300.77" y="-648.8" font-family="Arial" font-size="14.00" fill="#666666">[BASE TABLE]</text>
<polygon fill="none" stroke="black" points="46.2,-604.6 46.2,-635.4 401.15,-635.4 401.15,-604.6 46.2,-604.6"/>
<text text-anchor="start" x="53.2" y="-616.8" font-family="Arial" font-size="14.00">user_id </text>
<text text-anchor="start" x="103.01" y="-616.8" font-family="Arial" font-size="14.00" fill="#666666">[bigint]</text>
<polygon fill="none" stroke="black" points="46.2,-573.8 46.2,-604.6 401.15,-604.6 401.15,-573.8 46.2,-573.8"/>
<text text-anchor="start" x="53.2" y="-586" font-family="Arial" font-size="14.00">token_hash </text>
<text text-anchor="start" x="129.48" y="-586" font-family="Arial" font-size="14.00" fill="#666666">[text]</text>
<polygon fill="none" stroke="black" points="46.2,-543 46.2,-573.8 401.15,-573.8 401.15,-543 46.2,-543"/>
<text text-anchor="start" x="53.2" y="-555.2" font-family="Arial" font-size="14.00">expires_at </text>
<text text-anchor="start" x="121.68" y="-555.2" font-family="Arial" font-size="14.00" fill="#666666">[timestamp with time zone]</text>
<polygon fill="none" stroke="black" points="46.2,-512.2 46.2,-543 401.15,-543 401.15,-512.2 46.2,-512.2"/>
<text text-anchor="start" x="53.2" y="-524.4" font-family="Arial" font-size="14.00">created_at </text>
<text text-anchor="start" x="123.25" y="-524.4" font-family="Arial" font-size="14.00" fill="#666666">[timestamp with time zone]</text>
<polygon fill="none" stroke="black" stroke-width="3" points="44.7,-510.7 44.7,-672.5 402.65,-672.5 402.65,-510.7 44.7,-510.7"/>
</g>
<!-- public.users -->
<g id="node2" class="node">
<title>public.users</title>
<polygon fill="#efefef" stroke="none" points="96.83,-351.2 96.83,-386.8 350.51,-386.8 350.51,-351.2 96.83,-351.2"/>
<polygon fill="none" stroke="black" points="96.83,-351.2 96.83,-386.8 350.51,-386.8 350.51,-351.2 96.83,-351.2"/>
<text text-anchor="start" x="118.19" y="-364.6" font-family="Arial Bold" font-size="18.00">public.users</text>
<text text-anchor="start" x="204.67" y="-364.6" font-family="Arial" font-size="14.00">    </text>
<text text-anchor="start" x="235.79" y="-364.6" font-family="Arial" font-size="14.00" fill="#666666">[BASE TABLE]</text>
<polygon fill="none" stroke="black" points="96.83,-320.4 96.83,-351.2 350.51,-351.2 350.51,-320.4 96.83,-320.4"/>
<text text-anchor="start" x="103.83" y="-332.6" font-family="Arial" font-size="14.00">id </text>
<text text-anchor="start" x="118.62" y="-332.6" font-family="Arial" font-size="14.00" fill="#666666">[bigint]</text>
<polygon fill="none" stroke="black" points="96.83,-289.6 96.83,-320.4 350.51,-320.4 350.51,-289.6 96.83,-289.6"/>
<text text-anchor="start" x="103.83" y="-301.8" font-family="Arial" font-size="14.00">email </text>
<text text-anchor="start" x="141.18" y="-301.8" font-family="Arial" font-size="14.00" fill="#666666">[text]</text>
<polygon fill="none" stroke="black" points="96.83,-258.8 96.83,-289.6 350.51,-289.6 350.51,-258.8 96.83,-258.8"/>
<text text-anchor="start" x="103.83" y="-271" font-family="Arial" font-size="14.00">email_verified </text>
<text text-anchor="start" x="194.09" y="-271" font-family="Arial" font-size="14.00" fill="#666666">[boolean]</text>
<polygon fill="none" stroke="black" points="96.83,-228 96.83,-258.8 350.51,-258.8 350.51,-228 96.83,-228"/>
<text text-anchor="start" x="103.83" y="-240.2" font-family="Arial" font-size="14.00">password_hash </text>
<text text-anchor="start" x="205.78" y="-240.2" font-family="Arial" font-size="14.00" fill="#666666">[text]</text>
<polygon fill="none" stroke="black" points="96.83,-197.2 96.83,-228 350.51,-228 350.51,-197.2 96.83,-197.2"/>
<text text-anchor="start" x="103.83" y="-209.4" font-family="Arial" font-size="14.00">display_name </text>
<text text-anchor="start" x="194.11" y="-209.4" font-family="Arial" font-size="14.00" fill="#666666">[text]</text>
<polygon fill="none" stroke="black" points="96.83,-166.4 96.83,-197.2 350.51,-197.2 350.51,-166.4 96.83,-166.4"/>
<text text-anchor="start" x="103.83" y="-178.6" font-family="Arial" font-size="14.00">avatar_key </text>
<text text-anchor="start" x="176.2" y="-178.6" font-family="Arial" font-size="14.00" fill="#666666">[text]</text>
<polygon fill="none" stroke="black" points="96.83,-135.6 96.83,-166.4 350.51,-166.4 350.51,-135.6 96.83,-135.6"/>
<text text-anchor="start" x="103.83" y="-147.8" font-family="Arial" font-size="14.00">status_text </text>
<text text-anchor="start" x="175.43" y="-147.8" font-family="Arial" font-size="14.00" fill="#666666">[text]</text>
<polygon fill="none" stroke="black" points="96.83,-104.8 96.83,-135.6 350.51,-135.6 350.51,-104.8 96.83,-104.8"/>
<text text-anchor="start" x="103.83" y="-117" font-family="Arial" font-size="14.00">theme </text>
<text text-anchor="start" x="146.63" y="-117" font-family="Arial" font-size="14.00" fill="#666666">[text]</text>
<polygon fill="none" stroke="black" points="96.83,-74 96.83,-104.8 350.51,-104.8 350.51,-74 96.83,-74"/>
<text text-anchor="start" x="103.83" y="-86.2" font-family="Arial" font-size="14.00">created_at </text>
<text text-anchor="start" x="173.88" y="-86.2" font-family="Arial" font-size="14.00" fill="#666666">[timestamp with time zone]</text>
<polygon fill="none" stroke="black" points="96.83,-43.2 96.83,-74 350.51,-74 350.51,-43.2 96.83,-43.2"/>
<text text-anchor="start" x="103.83" y="-55.4" font-family="Arial" font-size="14.00">updated_at </text>
<text text-anchor="start" x="177.79" y="-55.4" font-family="Arial" font-size="14.00" fill="#666666">[timestamp with time zone]</text>
</g>
<!-- public.password_reset_tokens&#45;&gt;public.users -->
<g id="edge1" class="edge">
<title>public.password_reset_tokens:user_id&#45;&gt;public.users:id</title>
<path fill="none" stroke="black" d="M412.27,-619.37C527.62,-604.67 476.31,-335.8 351.51,-335.8"/>
<polygon fill="black" stroke="black" points="412.46,-619.36 402.2,-615.49 407.14,-619.69 402.81,-619.96 402.81,-619.96 402.81,-619.96 407.14,-619.69 402.76,-624.47 412.46,-619.36"/>
<text text-anchor="start" x="409.15" y="-630" font-family="Arial" font-size="10.00">FOREIGN KEY (user_id) REFERENCES users(id) ON DELETE CASCADE</text>
</g>
</g>
</svg>
