<?xml version="1.0" encoding="UTF-8" standalone="no"?>
<!DOCTYPE svg PUBLIC "-//W3C//DTD SVG 1.1//EN"
 "http://www.w3.org/Graphics/SVG/1.1/DTD/svg11.dtd">
<!-- Generated by graphviz version 12.1.2 (20240928.0832)
 -->
<!-- Title: public.guild_roles_v2 Pages: 1 -->
<svg width="1131pt" height="1160pt"
 viewBox="0.00 0.00 1130.90 1160.40" xmlns="http://www.w3.org/2000/svg" xmlns:xlink="http://www.w3.org/1999/xlink">
<g id="graph0" class="graph" transform="scale(1 1) rotate(0) translate(4 1156.4)">
<title>public.guild_roles_v2</title>
<polygon fill="white" stroke="none" points="-4,4 -4,-1156.4 1126.9,-1156.4 1126.9,4 -4,4"/>
<!-- public.guild_roles_v2 -->
<g id="node1" class="node">
<title>public.guild_roles_v2</title>
<polygon fill="#efefef" stroke="none" points="434.76,-697 434.76,-732.6 730.74,-732.6 730.74,-697 434.76,-697"/>
<polygon fill="none" stroke="black" points="434.76,-697 434.76,-732.6 730.74,-732.6 730.74,-697 434.76,-697"/>
<text text-anchor="start" x="441.76" y="-710.4" font-family="Arial Bold" font-size="18.00">public.guild_roles_v2</text>
<text text-anchor="start" x="599.25" y="-710.4" font-family="Arial" font-size="14.00">    </text>
<text text-anchor="start" x="630.36" y="-710.4" font-family="Arial" font-size="14.00" fill="#666666">[BASE TABLE]</text>
<polygon fill="none" stroke="black" points="434.76,-666.2 434.76,-697 730.74,-697 730.74,-666.2 434.76,-666.2"/>
<text text-anchor="start" x="441.76" y="-678.4" font-family="Arial" font-size="14.00">guild_id </text>
<text text-anchor="start" x="493.92" y="-678.4" font-family="Arial" font-size="14.00" fill="#666666">[bigint]</text>
<polygon fill="none" stroke="black" points="434.76,-635.4 434.76,-666.2 730.74,-666.2 730.74,-635.4 434.76,-635.4"/>
<text text-anchor="start" x="441.76" y="-647.6" font-family="Arial" font-size="14.00">role_key </text>
<text text-anchor="start" x="498.57" y="-647.6" font-family="Arial" font-size="14.00" fill="#666666">[text]</text>
<polygon fill="none" stroke="black" points="434.76,-604.6 434.76,-635.4 730.74,-635.4 730.74,-604.6 434.76,-604.6"/>
<text text-anchor="start" x="441.76" y="-616.8" font-family="Arial" font-size="14.00">name </text>
<text text-anchor="start" x="480.67" y="-616.8" font-family="Arial" font-size="14.00" fill="#666666">[text]</text>
<polygon fill="none" stroke="black" points="434.76,-573.8 434.76,-604.6 730.74,-604.6 730.74,-573.8 434.76,-573.8"/>
<text text-anchor="start" x="441.76" y="-586" font-family="Arial" font-size="14.00">priority </text>
<text text-anchor="start" x="487.66" y="-586" font-family="Arial" font-size="14.00" fill="#666666">[integer]</text>
<polygon fill="none" stroke="black" points="434.76,-543 434.76,-573.8 730.74,-573.8 730.74,-543 434.76,-543"/>
<text text-anchor="start" x="441.76" y="-555.2" font-family="Arial" font-size="14.00">allow_view </text>
<text text-anchor="start" x="513.35" y="-555.2" font-family="Arial" font-size="14.00" fill="#666666">[boolean]</text>
<polygon fill="none" stroke="black" points="434.76,-512.2 434.76,-543 730.74,-543 730.74,-512.2 434.76,-512.2"/>
<text text-anchor="start" x="441.76" y="-524.4" font-family="Arial" font-size="14.00">allow_post </text>
<text text-anchor="start" x="511.8" y="-524.4" font-family="Arial" font-size="14.00" fill="#666666">[boolean]</text>
<polygon fill="none" stroke="black" points="434.76,-481.4 434.76,-512.2 730.74,-512.2 730.74,-481.4 434.76,-481.4"/>
<text text-anchor="start" x="441.76" y="-493.6" font-family="Arial" font-size="14.00">allow_manage </text>
<text text-anchor="start" x="535.94" y="-493.6" font-family="Arial" font-size="14.00" fill="#666666">[boolean]</text>
<polygon fill="none" stroke="black" points="434.76,-450.6 434.76,-481.4 730.74,-481.4 730.74,-450.6 434.76,-450.6"/>
<text text-anchor="start" x="441.76" y="-462.8" font-family="Arial" font-size="14.00">is_system </text>
<text text-anchor="start" x="507.89" y="-462.8" font-family="Arial" font-size="14.00" fill="#666666">[boolean]</text>
<polygon fill="none" stroke="black" points="434.76,-419.8 434.76,-450.6 730.74,-450.6 730.74,-419.8 434.76,-419.8"/>
<text text-anchor="start" x="441.76" y="-432" font-family="Arial" font-size="14.00">created_at </text>
<text text-anchor="start" x="511.81" y="-432" font-family="Arial" font-size="14.00" fill="#666666">[timestamp with time zone]</text>
<polygon fill="none" stroke="black" points="434.76,-389 434.76,-419.8 730.74,-419.8 730.74,-389 434.76,-389"/>
<text text-anchor="start" x="441.76" y="-401.2" font-family="Arial" font-size="14.00">updated_at </text>
<text text-anchor="start" x="515.72" y="-401.2" font-family="Arial" font-size="14.00" fill="#666666">[timestamp with time zone]</text>
<polygon fill="none" stroke="black" stroke-width="3" points="433.26,-387.5 433.26,-734.1 732.24,-734.1 732.24,-387.5 433.26,-387.5"/>
</g>
<!-- public.guilds -->
<g id="node2" class="node">
<title>public.guilds</title>
<polygon fill="#efefef" stroke="none" points="455.91,-228 455.91,-263.6 709.59,-263.6 709.59,-228 455.91,-228"/>
<polygon fill="none" stroke="black" points="455.91,-228 455.91,-263.6 709.59,-263.6 709.59,-228 455.91,-228"/>
<text text-anchor="start" x="473.76" y="-241.4" font-family="Arial Bold" font-size="18.00">public.guilds</text>
<text text-anchor="start" x="567.25" y="-241.4" font-family="Arial" font-size="14.00">    </text>
<text text-anchor="start" x="598.37" y="-241.4" font-family="Arial" font-size="14.00" fill="#666666">[BASE TABLE]</text>
<polygon fill="none" stroke="black" points="455.91,-197.2 455.91,-228 709.59,-228 709.59,-197.2 455.91,-197.2"/>
<text text-anchor="start" x="462.91" y="-209.4" font-family="Arial" font-size="14.00">id </text>
<text text-anchor="start" x="477.69" y="-209.4" font-family="Arial" font-size="14.00" fill="#666666">[bigint]</text>
<polygon fill="none" stroke="black" points="455.91,-166.4 455.91,-197.2 709.59,-197.2 709.59,-166.4 455.91,-166.4"/>
<text text-anchor="start" x="462.91" y="-178.6" font-family="Arial" font-size="14.00">name </text>
<text text-anchor="start" x="501.82" y="-178.6" font-family="Arial" font-size="14.00" fill="#666666">[text]</text>
<polygon fill="none" stroke="black" points="455.91,-135.6 455.91,-166.4 709.59,-166.4 709.59,-135.6 455.91,-135.6"/>
<text text-anchor="start" x="462.91" y="-147.8" font-family="Arial" font-size="14.00">owner_id </text>
<text text-anchor="start" x="523.61" y="-147.8" font-family="Arial" font-size="14.00" fill="#666666">[bigint]</text>
<polygon fill="none" stroke="black" points="455.91,-104.8 455.91,-135.6 709.59,-135.6 709.59,-104.8 455.91,-104.8"/>
<text text-anchor="start" x="462.91" y="-117" font-family="Arial" font-size="14.00">icon_key </text>
<text text-anchor="start" x="522.05" y="-117" font-family="Arial" font-size="14.00" fill="#666666">[text]</text>
<polygon fill="none" stroke="black" points="455.91,-74 455.91,-104.8 709.59,-104.8 709.59,-74 455.91,-74"/>
<text text-anchor="start" x="462.91" y="-86.2" font-family="Arial" font-size="14.00">created_at </text>
<text text-anchor="start" x="532.96" y="-86.2" font-family="Arial" font-size="14.00" fill="#666666">[timestamp with time zone]</text>
<polygon fill="none" stroke="black" points="455.91,-43.2 455.91,-74 709.59,-74 709.59,-43.2 455.91,-43.2"/>
<text text-anchor="start" x="462.91" y="-55.4" font-family="Arial" font-size="14.00">updated_at </text>
<text text-anchor="start" x="536.87" y="-55.4" font-family="Arial" font-size="14.00" fill="#666666">[timestamp with time zone]</text>
</g>
<!-- public.guild_roles_v2&#45;&gt;public.guilds -->
<g id="edge1" class="edge">
<title>public.guild_roles_v2:guild_id&#45;&gt;public.guilds:id</title>
<path fill="none" stroke="black" d="M741.94,-681.22C939.64,-666.16 915.78,-212.6 710.59,-212.6"/>
<polygon fill="black" stroke="black" points="742.06,-681.21 731.9,-677.09 736.73,-681.41 732.4,-681.57 732.4,-681.57 732.4,-681.57 736.73,-681.41 732.24,-686.08 742.06,-681.21"/>
<text text-anchor="start" x="738.74" y="-691.6" font-family="Arial" font-size="10.00">FOREIGN KEY (guild_id) REFERENCES guilds(id) ON DELETE CASCADE</text>
</g>
<!-- public.guild_member_roles_v2 -->
<g id="node3" class="node">
<title>public.guild_member_roles_v2</title>
<polygon fill="#efefef" stroke="none" points="139.78,-1042.8 139.78,-1078.4 503.72,-1078.4 503.72,-1042.8 139.78,-1042.8"/>
<polygon fill="none" stroke="black" points="139.78,-1042.8 139.78,-1078.4 503.72,-1078.4 503.72,-1042.8 139.78,-1042.8"/>
<text text-anchor="start" x="146.78" y="-1056.2" font-family="Arial Bold" font-size="18.00">public.guild_member_roles_v2</text>
<text text-anchor="start" x="372.23" y="-1056.2" font-family="Arial" font-size="14.00">    </text>
<text text-anchor="start" x="403.35" y="-1056.2" font-family="Arial" font-size="14.00" fill="#666666">[BASE TABLE]</text>
<polygon fill="none" stroke="black" points="139.78,-1012 139.78,-1042.8 503.72,-1042.8 503.72,-1012 139.78,-1012"/>
<text text-anchor="start" x="146.78" y="-1024.2" font-family="Arial" font-size="14.00">guild_id </text>
<text text-anchor="start" x="198.93" y="-1024.2" font-family="Arial" font-size="14.00" fill="#666666">[bigint]</text>
<polygon fill="none" stroke="black" points="139.78,-981.2 139.78,-1012 503.72,-1012 503.72,-981.2 139.78,-981.2"/>
<text text-anchor="start" x="146.78" y="-993.4" font-family="Arial" font-size="14.00">user_id </text>
<text text-anchor="start" x="196.58" y="-993.4" font-family="Arial" font-size="14.00" fill="#666666">[bigint]</text>
<polygon fill="none" stroke="black" points="139.78,-950.4 139.78,-981.2 503.72,-981.2 503.72,-950.4 139.78,-950.4"/>
<text text-anchor="start" x="146.78" y="-962.6" font-family="Arial" font-size="14.00">role_key </text>
<text text-anchor="start" x="203.58" y="-962.6" font-family="Arial" font-size="14.00" fill="#666666">[text]</text>
<polygon fill="none" stroke="black" points="139.78,-919.6 139.78,-950.4 503.72,-950.4 503.72,-919.6 139.78,-919.6"/>
<text text-anchor="start" x="146.78" y="-931.8" font-family="Arial" font-size="14.00">assigned_at </text>
<text text-anchor="start" x="226.17" y="-931.8" font-family="Arial" font-size="14.00" fill="#666666">[timestamp with time zone]</text>
<polygon fill="none" stroke="black" points="139.78,-888.8 139.78,-919.6 503.72,-919.6 503.72,-888.8 139.78,-888.8"/>
<text text-anchor="start" x="146.78" y="-901" font-family="Arial" font-size="14.00">assigned_by </text>
<text text-anchor="start" x="229.28" y="-901" font-family="Arial" font-size="14.00" fill="#666666">[bigint]</text>
</g>
<!-- public.guild_member_roles_v2&#45;&gt;public.guild_roles_v2 -->
<g id="edge2" class="edge">
<title>public.guild_member_roles_v2:guild_id&#45;&gt;public.guild_roles_v2:guild_id</title>
<path fill="none" stroke="black" d="M514.83,-1026.76C581.06,-1017.81 534.02,-916.58 503.72,-845.6 486.97,-806.35 451.61,-818.01 434.76,-778.8 417.71,-739.11 390.56,-681.6 433.76,-681.6"/>
<polygon fill="black" stroke="black" points="515.04,-1026.75 504.77,-1022.89 509.71,-1027.09 505.39,-1027.36 505.39,-1027.36 505.39,-1027.36 509.71,-1027.09 505.34,-1031.87 515.04,-1026.75"/>
<text text-anchor="start" x="7" y="-1037.4" font-family="Arial" font-size="10.00">FOREIGN KEY (guild_id, role_key) REFERENCES guild_roles_v2(guild_id, role_key) ON DELETE RESTRICT</text>
</g>
<!-- public.channel_role_permission_overrides_v2 -->
<g id="node4" class="node">
<title>public.channel_role_permission_overrides_v2</title>
<polygon fill="#efefef" stroke="none" points="607.8,-1073.6 607.8,-1109.2 1079.7,-1109.2 1079.7,-1073.6 607.8,-1073.6"/>
<polygon fill="none" stroke="black" points="607.8,-1073.6 607.8,-1109.2 1079.7,-1109.2 1079.7,-1073.6 607.8,-1073.6"/>
<text text-anchor="start" x="614.8" y="-1087" font-family="Arial Bold" font-size="18.00">public.channel_role_permission_overrides_v2</text>
<text text-anchor="start" x="948.21" y="-1087" font-family="Arial" font-size="14.00">    </text>
<text text-anchor="start" x="979.33" y="-1087" font-family="Arial" font-size="14.00" fill="#666666">[BASE TABLE]</text>
<polygon fill="none" stroke="black" points="607.8,-1042.8 607.8,-1073.6 1079.7,-1073.6 1079.7,-1042.8 607.8,-1042.8"/>
<text text-anchor="start" x="614.8" y="-1055" font-family="Arial" font-size="14.00">channel_id </text>
<text text-anchor="start" x="686.41" y="-1055" font-family="Arial" font-size="14.00" fill="#666666">[bigint]</text>
<polygon fill="none" stroke="black" points="607.8,-1012 607.8,-1042.8 1079.7,-1042.8 1079.7,-1012 607.8,-1012"/>
<text text-anchor="start" x="614.8" y="-1024.2" font-family="Arial" font-size="14.00">guild_id </text>
<text text-anchor="start" x="666.95" y="-1024.2" font-family="Arial" font-size="14.00" fill="#666666">[bigint]</text>
<polygon fill="none" stroke="black" points="607.8,-981.2 607.8,-1012 1079.7,-1012 1079.7,-981.2 607.8,-981.2"/>
<text text-anchor="start" x="614.8" y="-993.4" font-family="Arial" font-size="14.00">role_key </text>
<text text-anchor="start" x="671.6" y="-993.4" font-family="Arial" font-size="14.00" fill="#666666">[text]</text>
<polygon fill="none" stroke="black" points="607.8,-950.4 607.8,-981.2 1079.7,-981.2 1079.7,-950.4 607.8,-950.4"/>
<text text-anchor="start" x="614.8" y="-962.6" font-family="Arial" font-size="14.00">can_view </text>
<text text-anchor="start" x="677.05" y="-962.6" font-family="Arial" font-size="14.00" fill="#666666">[boolean]</text>
<polygon fill="none" stroke="black" points="607.8,-919.6 607.8,-950.4 1079.7,-950.4 1079.7,-919.6 607.8,-919.6"/>
<text text-anchor="start" x="614.8" y="-931.8" font-family="Arial" font-size="14.00">can_post </text>
<text text-anchor="start" x="675.51" y="-931.8" font-family="Arial" font-size="14.00" fill="#666666">[boolean]</text>
<polygon fill="none" stroke="black" points="607.8,-888.8 607.8,-919.6 1079.7,-919.6 1079.7,-888.8 607.8,-888.8"/>
<text text-anchor="start" x="614.8" y="-901" font-family="Arial" font-size="14.00">created_at </text>
<text text-anchor="start" x="684.85" y="-901" font-family="Arial" font-size="14.00" fill="#666666">[timestamp with time zone]</text>
<polygon fill="none" stroke="black" points="607.8,-858 607.8,-888.8 1079.7,-888.8 1079.7,-858 607.8,-858"/>
<text text-anchor="start" x="614.8" y="-870.2" font-family="Arial" font-size="14.00">updated_at </text>
<text text-anchor="start" x="688.76" y="-870.2" font-family="Arial" font-size="14.00" fill="#666666">[timestamp with time zone]</text>
</g>
<!-- public.channel_role_permission_overrides_v2&#45;&gt;public.guild_roles_v2 -->
<g id="edge3" class="edge">
<title>public.channel_role_permission_overrides_v2:guild_id&#45;&gt;public.guild_roles_v2:guild_id</title>
<path fill="none" stroke="black" d="M596.93,-1024.35C562.7,-1000.92 581.6,-849.6 607.8,-814.8 642.04,-769.32 696.37,-824.19 730.74,-778.8 756.82,-744.36 774.94,-681.6 731.74,-681.6"/>
<polygon fill="black" stroke="black" points="596.93,-1024.35 605.15,-1031.6 602.02,-1025.92 606.16,-1027.2 606.16,-1027.2 606.16,-1027.2 602.02,-1025.92 607.81,-1023 596.93,-1024.35"/>
<text text-anchor="start" x="613.8" y="-1037.4" font-family="Arial" font-size="10.00">FOREIGN KEY (guild_id, role_key) REFERENCES guild_roles_v2(guild_id, role_key) ON DELETE CASCADE</text>
</g>
</g>
</svg>
