<?xml version="1.0" encoding="UTF-8" standalone="no"?>
<!DOCTYPE svg PUBLIC "-//W3C//DTD SVG 1.1//EN"
 "http://www.w3.org/Graphics/SVG/1.1/DTD/svg11.dtd">
<!-- Generated by graphviz version 12.1.2 (20240928.0832)
 -->
<!-- Title: public.channel_permission_overrides_subject_v2 Pages: 1 -->
<svg width="545pt" height="382pt"
 viewBox="0.00 0.00 545.49 382.40" xmlns="http://www.w3.org/2000/svg" xmlns:xlink="http://www.w3.org/1999/xlink">
<g id="graph0" class="graph" transform="scale(1 1) rotate(0) translate(4 378.4)">
<title>public.channel_permission_overrides_subject_v2</title>
<polygon fill="white" stroke="none" points="-4,4 -4,-378.4 541.49,-378.4 541.49,4 -4,4"/>
<!-- public.channel_permission_overrides_subject_v2 -->
<g id="node1" class="node">
<title>public.channel_permission_overrides_subject_v2</title>
<polygon fill="#efefef" stroke="none" points="46.2,-292.6 46.2,-328.2 491.29,-328.2 491.29,-292.6 46.2,-292.6"/>
<polygon fill="none" stroke="black" points="46.2,-292.6 46.2,-328.2 491.29,-328.2 491.29,-292.6 46.2,-292.6"/>
<text text-anchor="start" x="53.2" y="-306" font-family="Arial Bold" font-size="18.00">public.channel_permission_overrides_subject_v2</text>
<text text-anchor="start" x="409.61" y="-306" font-family="Arial" font-size="14.00">    </text>
<text text-anchor="start" x="440.73" y="-306" font-family="Arial" font-size="14.00" fill="#666666">[VIEW]</text>
<polygon fill="none" stroke="black" points="46.2,-261.8 46.2,-292.6 491.29,-292.6 491.29,-261.8 46.2,-261.8"/>
<text text-anchor="start" x="53.2" y="-274" font-family="Arial" font-size="14.00">channel_id </text>
<text text-anchor="start" x="124.81" y="-274" font-family="Arial" font-size="14.00" fill="#666666">[bigint]</text>
<polygon fill="none" stroke="black" points="46.2,-231 46.2,-261.8 491.29,-261.8 491.29,-231 46.2,-231"/>
<text text-anchor="start" x="53.2" y="-243.2" font-family="Arial" font-size="14.00">guild_id </text>
<text text-anchor="start" x="105.35" y="-243.2" font-family="Arial" font-size="14.00" fill="#666666">[bigint]</text>
<polygon fill="none" stroke="black" points="46.2,-200.2 46.2,-231 491.29,-231 491.29,-200.2 46.2,-200.2"/>
<text text-anchor="start" x="53.2" y="-212.4" font-family="Arial" font-size="14.00">subject_type </text>
<text text-anchor="start" x="135.7" y="-212.4" font-family="Arial" font-size="14.00" fill="#666666">[text]</text>
<polygon fill="none" stroke="black" points="46.2,-169.4 46.2,-200.2 491.29,-200.2 491.29,-169.4 46.2,-169.4"/>
<text text-anchor="start" x="53.2" y="-181.6" font-family="Arial" font-size="14.00">subject_id </text>
<text text-anchor="start" x="120.13" y="-181.6" font-family="Arial" font-size="14.00" fill="#666666">[text]</text>
<polygon fill="none" stroke="black" points="46.2,-138.6 46.2,-169.4 491.29,-169.4 491.29,-138.6 46.2,-138.6"/>
<text text-anchor="start" x="53.2" y="-150.8" font-family="Arial" font-size="14.00">can_view </text>
<text text-anchor="start" x="115.45" y="-150.8" font-family="Arial" font-size="14.00" fill="#666666">[boolean]</text>
<polygon fill="none" stroke="black" points="46.2,-107.8 46.2,-138.6 491.29,-138.6 491.29,-107.8 46.2,-107.8"/>
<text text-anchor="start" x="53.2" y="-120" font-family="Arial" font-size="14.00">can_post </text>
<text text-anchor="start" x="113.91" y="-120" font-family="Arial" font-size="14.00" fill="#666666">[boolean]</text>
<polygon fill="none" stroke="black" points="46.2,-77 46.2,-107.8 491.29,-107.8 491.29,-77 46.2,-77"/>
<text text-anchor="start" x="53.2" y="-89.2" font-family="Arial" font-size="14.00">created_at </text>
<text text-anchor="start" x="123.25" y="-89.2" font-family="Arial" font-size="14.00" fill="#666666">[timestamp with time zone]</text>
<polygon fill="none" stroke="black" points="46.2,-46.2 46.2,-77 491.29,-77 491.29,-46.2 46.2,-46.2"/>
<text text-anchor="start" x="53.2" y="-58.4" font-family="Arial" font-size="14.00">updated_at </text>
<text text-anchor="start" x="127.16" y="-58.4" font-family="Arial" font-size="14.00" fill="#666666">[timestamp with time zone]</text>
<polygon fill="none" stroke="black" stroke-width="3" points="44.7,-44.7 44.7,-329.7 492.79,-329.7 492.79,-44.7 44.7,-44.7"/>
</g>
</g>
</svg>
