<?xml version="1.0" encoding="UTF-8" standalone="no"?>
<!DOCTYPE svg PUBLIC "-//W3C//DTD SVG 1.1//EN"
 "http://www.w3.org/Graphics/SVG/1.1/DTD/svg11.dtd">
<!-- Generated by graphviz version 12.1.2 (20240928.0832)
 -->
<!-- Title: public.channels Pages: 1 -->
<svg width="4156pt" height="1191pt"
 viewBox="0.00 0.00 4156.27 1191.20" xmlns="http://www.w3.org/2000/svg" xmlns:xlink="http://www.w3.org/1999/xlink">
<g id="graph0" class="graph" transform="scale(1 1) rotate(0) translate(4 1187.2)">
<title>public.channels</title>
<polygon fill="white" stroke="none" points="-4,4 -4,-1187.2 4152.27,-1187.2 4152.27,4 -4,4"/>
<!-- public.channels -->
<g id="node1" class="node">
<title>public.channels</title>
<polygon fill="#efefef" stroke="none" points="2086.3,-666.2 2086.3,-701.8 2339.98,-701.8 2339.98,-666.2 2086.3,-666.2"/>
<polygon fill="none" stroke="black" points="2086.3,-666.2 2086.3,-701.8 2339.98,-701.8 2339.98,-666.2 2086.3,-666.2"/>
<text text-anchor="start" x="2094.66" y="-679.6" font-family="Arial Bold" font-size="18.00">public.channels</text>
<text text-anchor="start" x="2207.12" y="-679.6" font-family="Arial" font-size="14.00">    </text>
<text text-anchor="start" x="2238.24" y="-679.6" font-family="Arial" font-size="14.00" fill="#666666">[BASE TABLE]</text>
<polygon fill="none" stroke="black" points="2086.3,-635.4 2086.3,-666.2 2339.98,-666.2 2339.98,-635.4 2086.3,-635.4"/>
<text text-anchor="start" x="2093.3" y="-647.6" font-family="Arial" font-size="14.00">id </text>
<text text-anchor="start" x="2108.08" y="-647.6" font-family="Arial" font-size="14.00" fill="#666666">[bigint]</text>
<polygon fill="none" stroke="black" points="2086.3,-604.6 2086.3,-635.4 2339.98,-635.4 2339.98,-604.6 2086.3,-604.6"/>
<text text-anchor="start" x="2093.3" y="-616.8" font-family="Arial" font-size="14.00">type </text>
<text text-anchor="start" x="2123.65" y="-616.8" font-family="Arial" font-size="14.00" fill="#666666">[channel_type]</text>
<polygon fill="none" stroke="black" points="2086.3,-573.8 2086.3,-604.6 2339.98,-604.6 2339.98,-573.8 2086.3,-573.8"/>
<text text-anchor="start" x="2093.3" y="-586" font-family="Arial" font-size="14.00">guild_id </text>
<text text-anchor="start" x="2145.45" y="-586" font-family="Arial" font-size="14.00" fill="#666666">[bigint]</text>
<polygon fill="none" stroke="black" points="2086.3,-543 2086.3,-573.8 2339.98,-573.8 2339.98,-543 2086.3,-543"/>
<text text-anchor="start" x="2093.3" y="-555.2" font-family="Arial" font-size="14.00">name </text>
<text text-anchor="start" x="2132.21" y="-555.2" font-family="Arial" font-size="14.00" fill="#666666">[text]</text>
<polygon fill="none" stroke="black" points="2086.3,-512.2 2086.3,-543 2339.98,-543 2339.98,-512.2 2086.3,-512.2"/>
<text text-anchor="start" x="2093.3" y="-524.4" font-family="Arial" font-size="14.00">created_by </text>
<text text-anchor="start" x="2166.45" y="-524.4" font-family="Arial" font-size="14.00" fill="#666666">[bigint]</text>
<polygon fill="none" stroke="black" points="2086.3,-481.4 2086.3,-512.2 2339.98,-512.2 2339.98,-481.4 2086.3,-481.4"/>
<text text-anchor="start" x="2093.3" y="-493.6" font-family="Arial" font-size="14.00">created_at </text>
<text text-anchor="start" x="2163.34" y="-493.6" font-family="Arial" font-size="14.00" fill="#666666">[timestamp with time zone]</text>
<polygon fill="none" stroke="black" points="2086.3,-450.6 2086.3,-481.4 2339.98,-481.4 2339.98,-450.6 2086.3,-450.6"/>
<text text-anchor="start" x="2093.3" y="-462.8" font-family="Arial" font-size="14.00">updated_at </text>
<text text-anchor="start" x="2167.25" y="-462.8" font-family="Arial" font-size="14.00" fill="#666666">[timestamp with time zone]</text>
<polygon fill="none" stroke="black" stroke-width="3" points="2084.8,-449.1 2084.8,-703.3 2341.48,-703.3 2341.48,-449.1 2084.8,-449.1"/>
</g>
<!-- public.guilds -->
<g id="node11" class="node">
<title>public.guilds</title>
<polygon fill="#efefef" stroke="none" points="1907.3,-258.8 1907.3,-294.4 2160.98,-294.4 2160.98,-258.8 1907.3,-258.8"/>
<polygon fill="none" stroke="black" points="1907.3,-258.8 1907.3,-294.4 2160.98,-294.4 2160.98,-258.8 1907.3,-258.8"/>
<text text-anchor="start" x="1925.14" y="-272.2" font-family="Arial Bold" font-size="18.00">public.guilds</text>
<text text-anchor="start" x="2018.64" y="-272.2" font-family="Arial" font-size="14.00">    </text>
<text text-anchor="start" x="2049.76" y="-272.2" font-family="Arial" font-size="14.00" fill="#666666">[BASE TABLE]</text>
<polygon fill="none" stroke="black" points="1907.3,-228 1907.3,-258.8 2160.98,-258.8 2160.98,-228 1907.3,-228"/>
<text text-anchor="start" x="1914.3" y="-240.2" font-family="Arial" font-size="14.00">id </text>
<text text-anchor="start" x="1929.08" y="-240.2" font-family="Arial" font-size="14.00" fill="#666666">[bigint]</text>
<polygon fill="none" stroke="black" points="1907.3,-197.2 1907.3,-228 2160.98,-228 2160.98,-197.2 1907.3,-197.2"/>
<text text-anchor="start" x="1914.3" y="-209.4" font-family="Arial" font-size="14.00">name </text>
<text text-anchor="start" x="1953.21" y="-209.4" font-family="Arial" font-size="14.00" fill="#666666">[text]</text>
<polygon fill="none" stroke="black" points="1907.3,-166.4 1907.3,-197.2 2160.98,-197.2 2160.98,-166.4 1907.3,-166.4"/>
<text text-anchor="start" x="1914.3" y="-178.6" font-family="Arial" font-size="14.00">owner_id </text>
<text text-anchor="start" x="1975" y="-178.6" font-family="Arial" font-size="14.00" fill="#666666">[bigint]</text>
<polygon fill="none" stroke="black" points="1907.3,-135.6 1907.3,-166.4 2160.98,-166.4 2160.98,-135.6 1907.3,-135.6"/>
<text text-anchor="start" x="1914.3" y="-147.8" font-family="Arial" font-size="14.00">icon_key </text>
<text text-anchor="start" x="1973.44" y="-147.8" font-family="Arial" font-size="14.00" fill="#666666">[text]</text>
<polygon fill="none" stroke="black" points="1907.3,-104.8 1907.3,-135.6 2160.98,-135.6 2160.98,-104.8 1907.3,-104.8"/>
<text text-anchor="start" x="1914.3" y="-117" font-family="Arial" font-size="14.00">created_at </text>
<text text-anchor="start" x="1984.34" y="-117" font-family="Arial" font-size="14.00" fill="#666666">[timestamp with time zone]</text>
<polygon fill="none" stroke="black" points="1907.3,-74 1907.3,-104.8 2160.98,-104.8 2160.98,-74 1907.3,-74"/>
<text text-anchor="start" x="1914.3" y="-86.2" font-family="Arial" font-size="14.00">updated_at </text>
<text text-anchor="start" x="1988.25" y="-86.2" font-family="Arial" font-size="14.00" fill="#666666">[timestamp with time zone]</text>
</g>
<!-- public.channels&#45;&gt;public.guilds -->
<g id="edge11" class="edge">
<title>public.channels:guild_id&#45;&gt;public.guilds:id</title>
<path fill="none" stroke="black" d="M2075.22,-589.11C1787.06,-583.89 2154.74,-351.36 2160.98,-337.6 2178.27,-299.47 2203.85,-243.4 2161.98,-243.4"/>
<polygon fill="black" stroke="black" points="2074.96,-589.11 2084.92,-593.7 2080.3,-589.16 2084.63,-589.19 2084.63,-589.19 2084.63,-589.19 2080.3,-589.16 2085,-584.7 2074.96,-589.11"/>
<text text-anchor="start" x="1740.99" y="-599.2" font-family="Arial" font-size="10.00">FOREIGN KEY (guild_id) REFERENCES guilds(id) ON DELETE CASCADE</text>
</g>
<!-- public.users -->
<g id="node12" class="node">
<title>public.users</title>
<polygon fill="#efefef" stroke="none" points="2265.3,-289.6 2265.3,-325.2 2518.98,-325.2 2518.98,-289.6 2265.3,-289.6"/>
<polygon fill="none" stroke="black" points="2265.3,-289.6 2265.3,-325.2 2518.98,-325.2 2518.98,-289.6 2265.3,-289.6"/>
<text text-anchor="start" x="2286.65" y="-303" font-family="Arial Bold" font-size="18.00">public.users</text>
<text text-anchor="start" x="2373.13" y="-303" font-family="Arial" font-size="14.00">    </text>
<text text-anchor="start" x="2404.25" y="-303" font-family="Arial" font-size="14.00" fill="#666666">[BASE TABLE]</text>
<polygon fill="none" stroke="black" points="2265.3,-258.8 2265.3,-289.6 2518.98,-289.6 2518.98,-258.8 2265.3,-258.8"/>
<text text-anchor="start" x="2272.3" y="-271" font-family="Arial" font-size="14.00">id </text>
<text text-anchor="start" x="2287.08" y="-271" font-family="Arial" font-size="14.00" fill="#666666">[bigint]</text>
<polygon fill="none" stroke="black" points="2265.3,-228 2265.3,-258.8 2518.98,-258.8 2518.98,-228 2265.3,-228"/>
<text text-anchor="start" x="2272.3" y="-240.2" font-family="Arial" font-size="14.00">email </text>
<text text-anchor="start" x="2309.64" y="-240.2" font-family="Arial" font-size="14.00" fill="#666666">[text]</text>
<polygon fill="none" stroke="black" points="2265.3,-197.2 2265.3,-228 2518.98,-228 2518.98,-197.2 2265.3,-197.2"/>
<text text-anchor="start" x="2272.3" y="-209.4" font-family="Arial" font-size="14.00">display_name </text>
<text text-anchor="start" x="2362.57" y="-209.4" font-family="Arial" font-size="14.00" fill="#666666">[text]</text>
<polygon fill="none" stroke="black" points="2265.3,-166.4 2265.3,-197.2 2518.98,-197.2 2518.98,-166.4 2265.3,-166.4"/>
<text text-anchor="start" x="2272.3" y="-178.6" font-family="Arial" font-size="14.00">avatar_key </text>
<text text-anchor="start" x="2344.67" y="-178.6" font-family="Arial" font-size="14.00" fill="#666666">[text]</text>
<polygon fill="none" stroke="black" points="2265.3,-135.6 2265.3,-166.4 2518.98,-166.4 2518.98,-135.6 2265.3,-135.6"/>
<text text-anchor="start" x="2272.3" y="-147.8" font-family="Arial" font-size="14.00">status_text </text>
<text text-anchor="start" x="2343.89" y="-147.8" font-family="Arial" font-size="14.00" fill="#666666">[text]</text>
<polygon fill="none" stroke="black" points="2265.3,-104.8 2265.3,-135.6 2518.98,-135.6 2518.98,-104.8 2265.3,-104.8"/>
<text text-anchor="start" x="2272.3" y="-117" font-family="Arial" font-size="14.00">theme </text>
<text text-anchor="start" x="2315.1" y="-117" font-family="Arial" font-size="14.00" fill="#666666">[text]</text>
<polygon fill="none" stroke="black" points="2265.3,-74 2265.3,-104.8 2518.98,-104.8 2518.98,-74 2265.3,-74"/>
<text text-anchor="start" x="2272.3" y="-86.2" font-family="Arial" font-size="14.00">created_at </text>
<text text-anchor="start" x="2342.34" y="-86.2" font-family="Arial" font-size="14.00" fill="#666666">[timestamp with time zone]</text>
<polygon fill="none" stroke="black" points="2265.3,-43.2 2265.3,-74 2518.98,-74 2518.98,-43.2 2265.3,-43.2"/>
<text text-anchor="start" x="2272.3" y="-55.4" font-family="Arial" font-size="14.00">updated_at </text>
<text text-anchor="start" x="2346.25" y="-55.4" font-family="Arial" font-size="14.00" fill="#666666">[timestamp with time zone]</text>
</g>
<!-- public.channels&#45;&gt;public.users -->
<g id="edge12" class="edge">
<title>public.channels:created_by&#45;&gt;public.users:id</title>
<path fill="none" stroke="black" d="M2351.35,-526.5C2392,-516.93 2367.23,-447.4 2339.98,-404.4 2320.25,-373.28 2285.06,-399.5 2265.3,-368.4 2242.84,-333.06 2222.43,-274.2 2264.3,-274.2"/>
<polygon fill="black" stroke="black" points="2351.25,-526.51 2340.83,-523.09 2345.95,-527.07 2341.64,-527.53 2341.64,-527.53 2341.64,-527.53 2345.95,-527.07 2341.79,-532.04 2351.25,-526.51"/>
<text text-anchor="start" x="2347.98" y="-537.6" font-family="Arial" font-size="10.00">FOREIGN KEY (created_by) REFERENCES users(id) ON DELETE SET NULL</text>
</g>
<!-- public.dm_participants -->
<g id="node2" class="node">
<title>public.dm_participants</title>
<polygon fill="#efefef" stroke="none" points="74.16,-996.6 74.16,-1032.2 378.11,-1032.2 378.11,-996.6 74.16,-996.6"/>
<polygon fill="none" stroke="black" points="74.16,-996.6 74.16,-1032.2 378.11,-1032.2 378.11,-996.6 74.16,-996.6"/>
<text text-anchor="start" x="81.16" y="-1010" font-family="Arial Bold" font-size="18.00">public.dm_participants</text>
<text text-anchor="start" x="246.62" y="-1010" font-family="Arial" font-size="14.00">    </text>
<text text-anchor="start" x="277.74" y="-1010" font-family="Arial" font-size="14.00" fill="#666666">[BASE TABLE]</text>
<polygon fill="none" stroke="black" points="74.16,-965.8 74.16,-996.6 378.11,-996.6 378.11,-965.8 74.16,-965.8"/>
<text text-anchor="start" x="81.16" y="-978" font-family="Arial" font-size="14.00">channel_id </text>
<text text-anchor="start" x="152.77" y="-978" font-family="Arial" font-size="14.00" fill="#666666">[bigint]</text>
<polygon fill="none" stroke="black" points="74.16,-935 74.16,-965.8 378.11,-965.8 378.11,-935 74.16,-935"/>
<text text-anchor="start" x="81.16" y="-947.2" font-family="Arial" font-size="14.00">user_id </text>
<text text-anchor="start" x="130.97" y="-947.2" font-family="Arial" font-size="14.00" fill="#666666">[bigint]</text>
</g>
<!-- public.dm_participants&#45;&gt;public.channels -->
<g id="edge1" class="edge">
<title>public.dm_participants:channel_id&#45;&gt;public.channels:id</title>
<path fill="none" stroke="black" d="M389.27,-980.51C461.02,-969.94 363.68,-839.86 430.14,-784 571.37,-665.29 1900.79,-650.8 2085.3,-650.8"/>
<polygon fill="black" stroke="black" points="389.42,-980.5 379.14,-976.69 384.1,-980.86 379.78,-981.15 379.78,-981.15 379.78,-981.15 384.1,-980.86 379.75,-985.67 389.42,-980.5"/>
<text text-anchor="start" x="7" y="-991.2" font-family="Arial" font-size="10.00">FOREIGN KEY (channel_id) REFERENCES channels(id) ON DELETE CASCADE</text>
</g>
<!-- public.dm_pairs -->
<g id="node3" class="node">
<title>public.dm_pairs</title>
<polygon fill="#efefef" stroke="none" points="482.65,-1012 482.65,-1047.6 737.62,-1047.6 737.62,-1012 482.65,-1012"/>
<polygon fill="none" stroke="black" points="482.65,-1012 482.65,-1047.6 737.62,-1047.6 737.62,-1012 482.65,-1012"/>
<text text-anchor="start" x="489.65" y="-1025.4" font-family="Arial Bold" font-size="18.00">public.dm_pairs</text>
<text text-anchor="start" x="606.13" y="-1025.4" font-family="Arial" font-size="14.00">    </text>
<text text-anchor="start" x="637.25" y="-1025.4" font-family="Arial" font-size="14.00" fill="#666666">[BASE TABLE]</text>
<polygon fill="none" stroke="black" points="482.65,-981.2 482.65,-1012 737.62,-1012 737.62,-981.2 482.65,-981.2"/>
<text text-anchor="start" x="489.65" y="-993.4" font-family="Arial" font-size="14.00">user_low </text>
<text text-anchor="start" x="549.57" y="-993.4" font-family="Arial" font-size="14.00" fill="#666666">[bigint]</text>
<polygon fill="none" stroke="black" points="482.65,-950.4 482.65,-981.2 737.62,-981.2 737.62,-950.4 482.65,-950.4"/>
<text text-anchor="start" x="489.65" y="-962.6" font-family="Arial" font-size="14.00">user_high </text>
<text text-anchor="start" x="555.03" y="-962.6" font-family="Arial" font-size="14.00" fill="#666666">[bigint]</text>
<polygon fill="none" stroke="black" points="482.65,-919.6 482.65,-950.4 737.62,-950.4 737.62,-919.6 482.65,-919.6"/>
<text text-anchor="start" x="489.65" y="-931.8" font-family="Arial" font-size="14.00">channel_id </text>
<text text-anchor="start" x="561.26" y="-931.8" font-family="Arial" font-size="14.00" fill="#666666">[bigint]</text>
</g>
<!-- public.dm_pairs&#45;&gt;public.channels -->
<g id="edge2" class="edge">
<title>public.dm_pairs:channel_id&#45;&gt;public.channels:id</title>
<path fill="none" stroke="black" d="M748.96,-934.07C801.52,-923.51 736.92,-825.81 789.14,-784 902.15,-693.51 1940.52,-650.8 2085.3,-650.8"/>
<polygon fill="black" stroke="black" points="748.91,-934.07 738.55,-930.49 743.6,-934.55 739.29,-934.94 739.29,-934.94 739.29,-934.94 743.6,-934.55 739.36,-939.45 748.91,-934.07"/>
<text text-anchor="start" x="366.51" y="-945" font-family="Arial" font-size="10.00">FOREIGN KEY (channel_id) REFERENCES channels(id) ON DELETE CASCADE</text>
</g>
<!-- public.channel_reads -->
<g id="node4" class="node">
<title>public.channel_reads</title>
<polygon fill="#efefef" stroke="none" points="841.67,-1042.8 841.67,-1078.4 1132.6,-1078.4 1132.6,-1042.8 841.67,-1042.8"/>
<polygon fill="none" stroke="black" points="841.67,-1042.8 841.67,-1078.4 1132.6,-1078.4 1132.6,-1042.8 841.67,-1042.8"/>
<text text-anchor="start" x="848.67" y="-1056.2" font-family="Arial Bold" font-size="18.00">public.channel_reads</text>
<text text-anchor="start" x="1001.11" y="-1056.2" font-family="Arial" font-size="14.00">    </text>
<text text-anchor="start" x="1032.23" y="-1056.2" font-family="Arial" font-size="14.00" fill="#666666">[BASE TABLE]</text>
<polygon fill="none" stroke="black" points="841.67,-1012 841.67,-1042.8 1132.6,-1042.8 1132.6,-1012 841.67,-1012"/>
<text text-anchor="start" x="848.67" y="-1024.2" font-family="Arial" font-size="14.00">channel_id </text>
<text text-anchor="start" x="920.29" y="-1024.2" font-family="Arial" font-size="14.00" fill="#666666">[bigint]</text>
<polygon fill="none" stroke="black" points="841.67,-981.2 841.67,-1012 1132.6,-1012 1132.6,-981.2 841.67,-981.2"/>
<text text-anchor="start" x="848.67" y="-993.4" font-family="Arial" font-size="14.00">user_id </text>
<text text-anchor="start" x="898.48" y="-993.4" font-family="Arial" font-size="14.00" fill="#666666">[bigint]</text>
<polygon fill="none" stroke="black" points="841.67,-950.4 841.67,-981.2 1132.6,-981.2 1132.6,-950.4 841.67,-950.4"/>
<text text-anchor="start" x="848.67" y="-962.6" font-family="Arial" font-size="14.00">last_read_message_id </text>
<text text-anchor="start" x="993.43" y="-962.6" font-family="Arial" font-size="14.00" fill="#666666">[bigint]</text>
<polygon fill="none" stroke="black" points="841.67,-919.6 841.67,-950.4 1132.6,-950.4 1132.6,-919.6 841.67,-919.6"/>
<text text-anchor="start" x="848.67" y="-931.8" font-family="Arial" font-size="14.00">last_client_seq </text>
<text text-anchor="start" x="945.18" y="-931.8" font-family="Arial" font-size="14.00" fill="#666666">[bigint]</text>
<polygon fill="none" stroke="black" points="841.67,-888.8 841.67,-919.6 1132.6,-919.6 1132.6,-888.8 841.67,-888.8"/>
<text text-anchor="start" x="848.67" y="-901" font-family="Arial" font-size="14.00">updated_at </text>
<text text-anchor="start" x="922.63" y="-901" font-family="Arial" font-size="14.00" fill="#666666">[timestamp with time zone]</text>
</g>
<!-- public.channel_reads&#45;&gt;public.channels -->
<g id="edge3" class="edge">
<title>public.channel_reads:channel_id&#45;&gt;public.channels:id</title>
<path fill="none" stroke="black" d="M1143.8,-1026.85C1235.15,-1016.37 1107.25,-857.22 1185.14,-784 1258.8,-714.75 1984.19,-650.8 2085.3,-650.8"/>
<polygon fill="black" stroke="black" points="1143.92,-1026.85 1133.69,-1022.89 1138.59,-1027.13 1134.27,-1027.36 1134.27,-1027.36 1134.27,-1027.36 1138.59,-1027.13 1134.17,-1031.88 1143.92,-1026.85"/>
<text text-anchor="start" x="761.49" y="-1037.4" font-family="Arial" font-size="10.00">FOREIGN KEY (channel_id) REFERENCES channels(id) ON DELETE CASCADE</text>
</g>
<!-- public.channel_last_message -->
<g id="node5" class="node">
<title>public.channel_last_message</title>
<polygon fill="#efefef" stroke="none" points="1237.17,-1027.4 1237.17,-1063 1585.1,-1063 1585.1,-1027.4 1237.17,-1027.4"/>
<polygon fill="none" stroke="black" points="1237.17,-1027.4 1237.17,-1063 1585.1,-1063 1585.1,-1027.4 1237.17,-1027.4"/>
<text text-anchor="start" x="1244.17" y="-1040.8" font-family="Arial Bold" font-size="18.00">public.channel_last_message</text>
<text text-anchor="start" x="1453.61" y="-1040.8" font-family="Arial" font-size="14.00">    </text>
<text text-anchor="start" x="1484.73" y="-1040.8" font-family="Arial" font-size="14.00" fill="#666666">[BASE TABLE]</text>
<polygon fill="none" stroke="black" points="1237.17,-996.6 1237.17,-1027.4 1585.1,-1027.4 1585.1,-996.6 1237.17,-996.6"/>
<text text-anchor="start" x="1244.17" y="-1008.8" font-family="Arial" font-size="14.00">channel_id </text>
<text text-anchor="start" x="1315.79" y="-1008.8" font-family="Arial" font-size="14.00" fill="#666666">[bigint]</text>
<polygon fill="none" stroke="black" points="1237.17,-965.8 1237.17,-996.6 1585.1,-996.6 1585.1,-965.8 1237.17,-965.8"/>
<text text-anchor="start" x="1244.17" y="-978" font-family="Arial" font-size="14.00">last_message_id </text>
<text text-anchor="start" x="1353.13" y="-978" font-family="Arial" font-size="14.00" fill="#666666">[bigint]</text>
<polygon fill="none" stroke="black" points="1237.17,-935 1237.17,-965.8 1585.1,-965.8 1585.1,-935 1237.17,-935"/>
<text text-anchor="start" x="1244.17" y="-947.2" font-family="Arial" font-size="14.00">last_message_at </text>
<text text-anchor="start" x="1353.9" y="-947.2" font-family="Arial" font-size="14.00" fill="#666666">[timestamp with time zone]</text>
<polygon fill="none" stroke="black" points="1237.17,-904.2 1237.17,-935 1585.1,-935 1585.1,-904.2 1237.17,-904.2"/>
<text text-anchor="start" x="1244.17" y="-916.4" font-family="Arial" font-size="14.00">updated_at </text>
<text text-anchor="start" x="1318.13" y="-916.4" font-family="Arial" font-size="14.00" fill="#666666">[timestamp with time zone]</text>
</g>
<!-- public.channel_last_message&#45;&gt;public.channels -->
<g id="edge4" class="edge">
<title>public.channel_last_message:channel_id&#45;&gt;public.channels:id</title>
<path fill="none" stroke="black" d="M1596.48,-1011.42C1681.26,-1001.11 1568.83,-857.16 1637.14,-784 1708.04,-708.05 1981.4,-650.8 2085.3,-650.8"/>
<polygon fill="black" stroke="black" points="1596.42,-1011.42 1586.18,-1007.49 1591.09,-1011.72 1586.77,-1011.96 1586.77,-1011.96 1586.77,-1011.96 1591.09,-1011.72 1586.69,-1016.47 1596.42,-1011.42"/>
<text text-anchor="start" x="1593.1" y="-1022" font-family="Arial" font-size="10.00">FOREIGN KEY (channel_id) REFERENCES channels(id) ON DELETE CASCADE</text>
</g>
<!-- public.channel_role_permission_overrides_v2 -->
<g id="node6" class="node">
<title>public.channel_role_permission_overrides_v2</title>
<polygon fill="#efefef" stroke="none" points="1689.19,-1073.6 1689.19,-1109.2 2161.09,-1109.2 2161.09,-1073.6 1689.19,-1073.6"/>
<polygon fill="none" stroke="black" points="1689.19,-1073.6 1689.19,-1109.2 2161.09,-1109.2 2161.09,-1073.6 1689.19,-1073.6"/>
<text text-anchor="start" x="1696.19" y="-1087" font-family="Arial Bold" font-size="18.00">public.channel_role_permission_overrides_v2</text>
<text text-anchor="start" x="2029.6" y="-1087" font-family="Arial" font-size="14.00">    </text>
<text text-anchor="start" x="2060.72" y="-1087" font-family="Arial" font-size="14.00" fill="#666666">[BASE TABLE]</text>
<polygon fill="none" stroke="black" points="1689.19,-1042.8 1689.19,-1073.6 2161.09,-1073.6 2161.09,-1042.8 1689.19,-1042.8"/>
<text text-anchor="start" x="1696.19" y="-1055" font-family="Arial" font-size="14.00">channel_id </text>
<text text-anchor="start" x="1767.8" y="-1055" font-family="Arial" font-size="14.00" fill="#666666">[bigint]</text>
<polygon fill="none" stroke="black" points="1689.19,-1012 1689.19,-1042.8 2161.09,-1042.8 2161.09,-1012 1689.19,-1012"/>
<text text-anchor="start" x="1696.19" y="-1024.2" font-family="Arial" font-size="14.00">guild_id </text>
<text text-anchor="start" x="1748.34" y="-1024.2" font-family="Arial" font-size="14.00" fill="#666666">[bigint]</text>
<polygon fill="none" stroke="black" points="1689.19,-981.2 1689.19,-1012 2161.09,-1012 2161.09,-981.2 1689.19,-981.2"/>
<text text-anchor="start" x="1696.19" y="-993.4" font-family="Arial" font-size="14.00">role_key </text>
<text text-anchor="start" x="1752.99" y="-993.4" font-family="Arial" font-size="14.00" fill="#666666">[text]</text>
<polygon fill="none" stroke="black" points="1689.19,-950.4 1689.19,-981.2 2161.09,-981.2 2161.09,-950.4 1689.19,-950.4"/>
<text text-anchor="start" x="1696.19" y="-962.6" font-family="Arial" font-size="14.00">can_view </text>
<text text-anchor="start" x="1758.44" y="-962.6" font-family="Arial" font-size="14.00" fill="#666666">[boolean]</text>
<polygon fill="none" stroke="black" points="1689.19,-919.6 1689.19,-950.4 2161.09,-950.4 2161.09,-919.6 1689.19,-919.6"/>
<text text-anchor="start" x="1696.19" y="-931.8" font-family="Arial" font-size="14.00">can_post </text>
<text text-anchor="start" x="1756.9" y="-931.8" font-family="Arial" font-size="14.00" fill="#666666">[boolean]</text>
<polygon fill="none" stroke="black" points="1689.19,-888.8 1689.19,-919.6 2161.09,-919.6 2161.09,-888.8 1689.19,-888.8"/>
<text text-anchor="start" x="1696.19" y="-901" font-family="Arial" font-size="14.00">created_at </text>
<text text-anchor="start" x="1766.23" y="-901" font-family="Arial" font-size="14.00" fill="#666666">[timestamp with time zone]</text>
<polygon fill="none" stroke="black" points="1689.19,-858 1689.19,-888.8 2161.09,-888.8 2161.09,-858 1689.19,-858"/>
<text text-anchor="start" x="1696.19" y="-870.2" font-family="Arial" font-size="14.00">updated_at </text>
<text text-anchor="start" x="1770.14" y="-870.2" font-family="Arial" font-size="14.00" fill="#666666">[timestamp with time zone]</text>
</g>
<!-- public.channel_role_permission_overrides_v2&#45;&gt;public.channels -->
<g id="edge5" class="edge">
<title>public.channel_role_permission_overrides_v2:channel_id&#45;&gt;public.channels:id</title>
<path fill="none" stroke="black" d="M2171.74,-1055.73C2211.86,-1033.06 2181.81,-860.85 2161.09,-814.8 2142.79,-774.16 2104.71,-788.58 2086.3,-748 2068.44,-708.66 2042.09,-650.8 2085.3,-650.8"/>
<polygon fill="black" stroke="black" points="2172.1,-1055.64 2161.3,-1053.76 2166.93,-1056.96 2162.74,-1058.03 2162.74,-1058.03 2162.74,-1058.03 2166.93,-1056.96 2163.53,-1062.48 2172.1,-1055.64"/>
<text text-anchor="start" x="2169.09" y="-1068.2" font-family="Arial" font-size="10.00">FOREIGN KEY (channel_id) REFERENCES channels(id) ON DELETE CASCADE</text>
</g>
<!-- public.channel_user_permission_overrides_v2 -->
<g id="node7" class="node">
<title>public.channel_user_permission_overrides_v2</title>
<polygon fill="#efefef" stroke="none" points="2265.18,-1073.6 2265.18,-1109.2 2739.09,-1109.2 2739.09,-1073.6 2265.18,-1073.6"/>
<polygon fill="none" stroke="black" points="2265.18,-1073.6 2265.18,-1109.2 2739.09,-1109.2 2739.09,-1073.6 2265.18,-1073.6"/>
<text text-anchor="start" x="2272.18" y="-1087" font-family="Arial Bold" font-size="18.00">public.channel_user_permission_overrides_v2</text>
<text text-anchor="start" x="2607.6" y="-1087" font-family="Arial" font-size="14.00">    </text>
<text text-anchor="start" x="2638.72" y="-1087" font-family="Arial" font-size="14.00" fill="#666666">[BASE TABLE]</text>
<polygon fill="none" stroke="black" points="2265.18,-1042.8 2265.18,-1073.6 2739.09,-1073.6 2739.09,-1042.8 2265.18,-1042.8"/>
<text text-anchor="start" x="2272.18" y="-1055" font-family="Arial" font-size="14.00">channel_id </text>
<text text-anchor="start" x="2343.8" y="-1055" font-family="Arial" font-size="14.00" fill="#666666">[bigint]</text>
<polygon fill="none" stroke="black" points="2265.18,-1012 2265.18,-1042.8 2739.09,-1042.8 2739.09,-1012 2265.18,-1012"/>
<text text-anchor="start" x="2272.18" y="-1024.2" font-family="Arial" font-size="14.00">guild_id </text>
<text text-anchor="start" x="2324.33" y="-1024.2" font-family="Arial" font-size="14.00" fill="#666666">[bigint]</text>
<polygon fill="none" stroke="black" points="2265.18,-981.2 2265.18,-1012 2739.09,-1012 2739.09,-981.2 2265.18,-981.2"/>
<text text-anchor="start" x="2272.18" y="-993.4" font-family="Arial" font-size="14.00">user_id </text>
<text text-anchor="start" x="2321.99" y="-993.4" font-family="Arial" font-size="14.00" fill="#666666">[bigint]</text>
<polygon fill="none" stroke="black" points="2265.18,-950.4 2265.18,-981.2 2739.09,-981.2 2739.09,-950.4 2265.18,-950.4"/>
<text text-anchor="start" x="2272.18" y="-962.6" font-family="Arial" font-size="14.00">can_view </text>
<text text-anchor="start" x="2334.44" y="-962.6" font-family="Arial" font-size="14.00" fill="#666666">[boolean]</text>
<polygon fill="none" stroke="black" points="2265.18,-919.6 2265.18,-950.4 2739.09,-950.4 2739.09,-919.6 2265.18,-919.6"/>
<text text-anchor="start" x="2272.18" y="-931.8" font-family="Arial" font-size="14.00">can_post </text>
<text text-anchor="start" x="2332.89" y="-931.8" font-family="Arial" font-size="14.00" fill="#666666">[boolean]</text>
<polygon fill="none" stroke="black" points="2265.18,-888.8 2265.18,-919.6 2739.09,-919.6 2739.09,-888.8 2265.18,-888.8"/>
<text text-anchor="start" x="2272.18" y="-901" font-family="Arial" font-size="14.00">created_at </text>
<text text-anchor="start" x="2342.23" y="-901" font-family="Arial" font-size="14.00" fill="#666666">[timestamp with time zone]</text>
<polygon fill="none" stroke="black" points="2265.18,-858 2265.18,-888.8 2739.09,-888.8 2739.09,-858 2265.18,-858"/>
<text text-anchor="start" x="2272.18" y="-870.2" font-family="Arial" font-size="14.00">updated_at </text>
<text text-anchor="start" x="2346.14" y="-870.2" font-family="Arial" font-size="14.00" fill="#666666">[timestamp with time zone]</text>
</g>
<!-- public.channel_user_permission_overrides_v2&#45;&gt;public.channels -->
<g id="edge6" class="edge">
<title>public.channel_user_permission_overrides_v2:channel_id&#45;&gt;public.channels:id</title>
<path fill="none" stroke="black" d="M2254.53,-1055.73C2214.41,-1033.06 2244.46,-860.85 2265.18,-814.8 2283.48,-774.16 2321.56,-788.59 2339.98,-748 2357.83,-708.66 2384.18,-650.8 2340.98,-650.8"/>
<polygon fill="black" stroke="black" points="2254.17,-1055.64 2262.74,-1062.48 2259.34,-1056.96 2263.53,-1058.03 2263.53,-1058.03 2263.53,-1058.03 2259.34,-1056.96 2264.97,-1053.76 2254.17,-1055.64"/>
<text text-anchor="start" x="2271.18" y="-1042.2" font-family="Arial" font-size="10.00">FOREIGN KEY (channel_id) REFERENCES channels(id) ON DELETE CASCADE</text>
</g>
<!-- public.channel_hierarchies_v2 -->
<g id="node8" class="node">
<title>public.channel_hierarchies_v2</title>
<polygon fill="#efefef" stroke="none" points="2843.69,-1104.4 2843.69,-1140 3202.59,-1140 3202.59,-1104.4 2843.69,-1104.4"/>
<polygon fill="none" stroke="black" points="2843.69,-1104.4 2843.69,-1140 3202.59,-1140 3202.59,-1104.4 2843.69,-1104.4"/>
<text text-anchor="start" x="2850.69" y="-1117.8" font-family="Arial Bold" font-size="18.00">public.channel_hierarchies_v2</text>
<text text-anchor="start" x="3071.1" y="-1117.8" font-family="Arial" font-size="14.00">    </text>
<text text-anchor="start" x="3102.21" y="-1117.8" font-family="Arial" font-size="14.00" fill="#666666">[BASE TABLE]</text>
<polygon fill="none" stroke="black" points="2843.69,-1073.6 2843.69,-1104.4 3202.59,-1104.4 3202.59,-1073.6 2843.69,-1073.6"/>
<text text-anchor="start" x="2850.69" y="-1085.8" font-family="Arial" font-size="14.00">child_channel_id </text>
<text text-anchor="start" x="2958.88" y="-1085.8" font-family="Arial" font-size="14.00" fill="#666666">[bigint]</text>
<polygon fill="none" stroke="black" points="2843.69,-1042.8 2843.69,-1073.6 3202.59,-1073.6 3202.59,-1042.8 2843.69,-1042.8"/>
<text text-anchor="start" x="2850.69" y="-1055" font-family="Arial" font-size="14.00">guild_id </text>
<text text-anchor="start" x="2902.84" y="-1055" font-family="Arial" font-size="14.00" fill="#666666">[bigint]</text>
<polygon fill="none" stroke="black" points="2843.69,-1012 2843.69,-1042.8 3202.59,-1042.8 3202.59,-1012 2843.69,-1012"/>
<text text-anchor="start" x="2850.69" y="-1024.2" font-family="Arial" font-size="14.00">parent_channel_id </text>
<text text-anchor="start" x="2969.78" y="-1024.2" font-family="Arial" font-size="14.00" fill="#666666">[bigint]</text>
<polygon fill="none" stroke="black" points="2843.69,-981.2 2843.69,-1012 3202.59,-1012 3202.59,-981.2 2843.69,-981.2"/>
<text text-anchor="start" x="2850.69" y="-993.4" font-family="Arial" font-size="14.00">hierarchy_kind </text>
<text text-anchor="start" x="2945.62" y="-993.4" font-family="Arial" font-size="14.00" fill="#666666">[channel_hierarchy_kind]</text>
<polygon fill="none" stroke="black" points="2843.69,-950.4 2843.69,-981.2 3202.59,-981.2 3202.59,-950.4 2843.69,-950.4"/>
<text text-anchor="start" x="2850.69" y="-962.6" font-family="Arial" font-size="14.00">parent_message_id </text>
<text text-anchor="start" x="2977.55" y="-962.6" font-family="Arial" font-size="14.00" fill="#666666">[bigint]</text>
<polygon fill="none" stroke="black" points="2843.69,-919.6 2843.69,-950.4 3202.59,-950.4 3202.59,-919.6 2843.69,-919.6"/>
<text text-anchor="start" x="2850.69" y="-931.8" font-family="Arial" font-size="14.00">position </text>
<text text-anchor="start" x="2902.83" y="-931.8" font-family="Arial" font-size="14.00" fill="#666666">[integer]</text>
<polygon fill="none" stroke="black" points="2843.69,-888.8 2843.69,-919.6 3202.59,-919.6 3202.59,-888.8 2843.69,-888.8"/>
<text text-anchor="start" x="2850.69" y="-901" font-family="Arial" font-size="14.00">archived_at </text>
<text text-anchor="start" x="2926.95" y="-901" font-family="Arial" font-size="14.00" fill="#666666">[timestamp with time zone]</text>
<polygon fill="none" stroke="black" points="2843.69,-858 2843.69,-888.8 3202.59,-888.8 3202.59,-858 2843.69,-858"/>
<text text-anchor="start" x="2850.69" y="-870.2" font-family="Arial" font-size="14.00">created_at </text>
<text text-anchor="start" x="2920.73" y="-870.2" font-family="Arial" font-size="14.00" fill="#666666">[timestamp with time zone]</text>
<polygon fill="none" stroke="black" points="2843.69,-827.2 2843.69,-858 3202.59,-858 3202.59,-827.2 2843.69,-827.2"/>
<text text-anchor="start" x="2850.69" y="-839.4" font-family="Arial" font-size="14.00">updated_at </text>
<text text-anchor="start" x="2924.64" y="-839.4" font-family="Arial" font-size="14.00" fill="#666666">[timestamp with time zone]</text>
</g>
<!-- public.channel_hierarchies_v2&#45;&gt;public.channels -->
<g id="edge7" class="edge">
<title>public.channel_hierarchies_v2:child_channel_id&#45;&gt;public.channels:id</title>
<path fill="none" stroke="black" d="M2832.55,-1086.8C2780.49,-1061.87 2834.24,-832.63 2791.14,-784 2721.93,-705.93 2445.3,-650.8 2340.98,-650.8"/>
<polygon fill="black" stroke="black" points="2832.59,-1086.81 2841.4,-1093.33 2837.8,-1087.94 2842.03,-1088.86 2842.03,-1088.86 2842.03,-1088.86 2837.8,-1087.94 2843.31,-1084.53 2832.59,-1086.81"/>
<text text-anchor="start" x="2849.69" y="-1099" font-family="Arial" font-size="10.00">FOREIGN KEY (child_channel_id) REFERENCES channels(id) ON DELETE CASCADE</text>
</g>
<!-- public.channel_hierarchies_v2&#45;&gt;public.channels -->
<g id="edge8" class="edge">
<title>public.channel_hierarchies_v2:parent_channel_id&#45;&gt;public.channels:id</title>
<path fill="none" stroke="black" d="M2832.46,-1026.87C2740.78,-1016.72 2863.69,-862.52 2791.14,-784 2720.34,-707.38 2445.3,-650.8 2340.98,-650.8"/>
<polygon fill="black" stroke="black" points="2832.36,-1026.87 2842.12,-1031.88 2837.69,-1027.14 2842.02,-1027.37 2842.02,-1027.37 2842.02,-1027.37 2837.69,-1027.14 2842.58,-1022.89 2832.36,-1026.87"/>
<text text-anchor="start" x="2849.69" y="-1037.4" font-family="Arial" font-size="10.00">FOREIGN KEY (parent_channel_id) REFERENCES channels(id) ON DELETE CASCADE</text>
</g>
<!-- public.message_references_v2 -->
<g id="node9" class="node">
<title>public.message_references_v2</title>
<polygon fill="#efefef" stroke="none" points="3306.69,-1027.4 3306.69,-1063 3665.58,-1063 3665.58,-1027.4 3306.69,-1027.4"/>
<polygon fill="none" stroke="black" points="3306.69,-1027.4 3306.69,-1063 3665.58,-1063 3665.58,-1027.4 3306.69,-1027.4"/>
<text text-anchor="start" x="3313.69" y="-1040.8" font-family="Arial Bold" font-size="18.00">public.message_references_v2</text>
<text text-anchor="start" x="3534.09" y="-1040.8" font-family="Arial" font-size="14.00">    </text>
<text text-anchor="start" x="3565.21" y="-1040.8" font-family="Arial" font-size="14.00" fill="#666666">[BASE TABLE]</text>
<polygon fill="none" stroke="black" points="3306.69,-996.6 3306.69,-1027.4 3665.58,-1027.4 3665.58,-996.6 3306.69,-996.6"/>
<text text-anchor="start" x="3313.69" y="-1008.8" font-family="Arial" font-size="14.00">message_id </text>
<text text-anchor="start" x="3393.07" y="-1008.8" font-family="Arial" font-size="14.00" fill="#666666">[bigint]</text>
<polygon fill="none" stroke="black" points="3306.69,-965.8 3306.69,-996.6 3665.58,-996.6 3665.58,-965.8 3306.69,-965.8"/>
<text text-anchor="start" x="3313.69" y="-978" font-family="Arial" font-size="14.00">channel_id </text>
<text text-anchor="start" x="3385.3" y="-978" font-family="Arial" font-size="14.00" fill="#666666">[bigint]</text>
<polygon fill="none" stroke="black" points="3306.69,-935 3306.69,-965.8 3665.58,-965.8 3665.58,-935 3306.69,-935"/>
<text text-anchor="start" x="3313.69" y="-947.2" font-family="Arial" font-size="14.00">reply_to_message_id </text>
<text text-anchor="start" x="3450.66" y="-947.2" font-family="Arial" font-size="14.00" fill="#666666">[bigint]</text>
<polygon fill="none" stroke="black" points="3306.69,-904.2 3306.69,-935 3665.58,-935 3665.58,-904.2 3306.69,-904.2"/>
<text text-anchor="start" x="3313.69" y="-916.4" font-family="Arial" font-size="14.00">created_at </text>
<text text-anchor="start" x="3383.74" y="-916.4" font-family="Arial" font-size="14.00" fill="#666666">[timestamp with time zone]</text>
</g>
<!-- public.message_references_v2&#45;&gt;public.channels -->
<g id="edge9" class="edge">
<title>public.message_references_v2:channel_id&#45;&gt;public.channels:id</title>
<path fill="none" stroke="black" d="M3295.53,-980.52C3223.71,-970.11 3319.66,-842.01 3255.14,-784 3178.8,-715.38 2443.62,-650.8 2340.98,-650.8"/>
<polygon fill="black" stroke="black" points="3295.38,-980.51 3305.06,-985.67 3300.7,-980.87 3305.02,-981.16 3305.02,-981.16 3305.02,-981.16 3300.7,-980.87 3305.65,-976.69 3295.38,-980.51"/>
<text text-anchor="start" x="2933.58" y="-991.2" font-family="Arial" font-size="10.00">FOREIGN KEY (channel_id) REFERENCES channels(id) ON DELETE CASCADE</text>
</g>
<!-- public.channel_pins_v2 -->
<g id="node10" class="node">
<title>public.channel_pins_v2</title>
<polygon fill="#efefef" stroke="none" points="3770.16,-1073.6 3770.16,-1109.2 4080.11,-1109.2 4080.11,-1073.6 3770.16,-1073.6"/>
<polygon fill="none" stroke="black" points="3770.16,-1073.6 3770.16,-1109.2 4080.11,-1109.2 4080.11,-1073.6 3770.16,-1073.6"/>
<text text-anchor="start" x="3777.16" y="-1087" font-family="Arial Bold" font-size="18.00">public.channel_pins_v2</text>
<text text-anchor="start" x="3948.62" y="-1087" font-family="Arial" font-size="14.00">    </text>
<text text-anchor="start" x="3979.74" y="-1087" font-family="Arial" font-size="14.00" fill="#666666">[BASE TABLE]</text>
<polygon fill="none" stroke="black" points="3770.16,-1042.8 3770.16,-1073.6 4080.11,-1073.6 4080.11,-1042.8 3770.16,-1042.8"/>
<text text-anchor="start" x="3777.16" y="-1055" font-family="Arial" font-size="14.00">channel_id </text>
<text text-anchor="start" x="3848.77" y="-1055" font-family="Arial" font-size="14.00" fill="#666666">[bigint]</text>
<polygon fill="none" stroke="black" points="3770.16,-1012 3770.16,-1042.8 4080.11,-1042.8 4080.11,-1012 3770.16,-1012"/>
<text text-anchor="start" x="3777.16" y="-1024.2" font-family="Arial" font-size="14.00">message_id </text>
<text text-anchor="start" x="3856.54" y="-1024.2" font-family="Arial" font-size="14.00" fill="#666666">[bigint]</text>
<polygon fill="none" stroke="black" points="3770.16,-981.2 3770.16,-1012 4080.11,-1012 4080.11,-981.2 3770.16,-981.2"/>
<text text-anchor="start" x="3777.16" y="-993.4" font-family="Arial" font-size="14.00">pinned_at </text>
<text text-anchor="start" x="3842.55" y="-993.4" font-family="Arial" font-size="14.00" fill="#666666">[timestamp with time zone]</text>
<polygon fill="none" stroke="black" points="3770.16,-950.4 3770.16,-981.2 4080.11,-981.2 4080.11,-950.4 3770.16,-950.4"/>
<text text-anchor="start" x="3777.16" y="-962.6" font-family="Arial" font-size="14.00">pinned_by </text>
<text text-anchor="start" x="3845.66" y="-962.6" font-family="Arial" font-size="14.00" fill="#666666">[bigint]</text>
<polygon fill="none" stroke="black" points="3770.16,-919.6 3770.16,-950.4 4080.11,-950.4 4080.11,-919.6 3770.16,-919.6"/>
<text text-anchor="start" x="3777.16" y="-931.8" font-family="Arial" font-size="14.00">unpinned_at </text>
<text text-anchor="start" x="3858.12" y="-931.8" font-family="Arial" font-size="14.00" fill="#666666">[timestamp with time zone]</text>
<polygon fill="none" stroke="black" points="3770.16,-888.8 3770.16,-919.6 4080.11,-919.6 4080.11,-888.8 3770.16,-888.8"/>
<text text-anchor="start" x="3777.16" y="-901" font-family="Arial" font-size="14.00">unpinned_by </text>
<text text-anchor="start" x="3861.23" y="-901" font-family="Arial" font-size="14.00" fill="#666666">[bigint]</text>
<polygon fill="none" stroke="black" points="3770.16,-858 3770.16,-888.8 4080.11,-888.8 4080.11,-858 3770.16,-858"/>
<text text-anchor="start" x="3777.16" y="-870.2" font-family="Arial" font-size="14.00">updated_at </text>
<text text-anchor="start" x="3851.12" y="-870.2" font-family="Arial" font-size="14.00" fill="#666666">[timestamp with time zone]</text>
</g>
<!-- public.channel_pins_v2&#45;&gt;public.channels -->
<g id="edge10" class="edge">
<title>public.channel_pins_v2:channel_id&#45;&gt;public.channels:id</title>
<path fill="none" stroke="black" d="M3758.99,-1057.72C3654.61,-1047.13 3806.86,-865.28 3718.14,-784 3604.78,-680.16 2494.71,-650.8 2340.98,-650.8"/>
<polygon fill="black" stroke="black" points="3758.84,-1057.71 3768.61,-1062.68 3764.16,-1057.96 3768.49,-1058.17 3768.49,-1058.17 3768.49,-1058.17 3764.16,-1057.96 3769.04,-1053.69 3758.84,-1057.71"/>
<text text-anchor="start" x="3776.16" y="-1068.2" font-family="Arial" font-size="10.00">FOREIGN KEY (channel_id) REFERENCES channels(id) ON DELETE CASCADE</text>
</g>
</g>
</svg>
