<?xml version="1.0" encoding="UTF-8" standalone="no"?>
<!DOCTYPE svg PUBLIC "-//W3C//DTD SVG 1.1//EN"
 "http://www.w3.org/Graphics/SVG/1.1/DTD/svg11.dtd">
<!-- Generated by graphviz version 12.1.2 (20240928.0832)
 -->
<!-- Title: public.channel_permission_overrides Pages: 1 -->
<svg width="842pt" height="633pt"
 viewBox="0.00 0.00 842.23 632.80" xmlns="http://www.w3.org/2000/svg" xmlns:xlink="http://www.w3.org/1999/xlink">
<g id="graph0" class="graph" transform="scale(1 1) rotate(0) translate(4 628.8)">
<title>public.channel_permission_overrides</title>
<polygon fill="white" stroke="none" points="-4,4 -4,-628.8 838.23,-628.8 838.23,4 -4,4"/>
<!-- public.channel_permission_overrides -->
<g id="node1" class="node">
<title>public.channel_permission_overrides</title>
<polygon fill="#efefef" stroke="none" points="46.2,-543 46.2,-578.6 454.12,-578.6 454.12,-543 46.2,-543"/>
<polygon fill="none" stroke="black" points="46.2,-543 46.2,-578.6 454.12,-578.6 454.12,-543 46.2,-543"/>
<text text-anchor="start" x="53.2" y="-556.4" font-family="Arial Bold" font-size="18.00">public.channel_permission_overrides</text>
<text text-anchor="start" x="322.63" y="-556.4" font-family="Arial" font-size="14.00">    </text>
<text text-anchor="start" x="353.75" y="-556.4" font-family="Arial" font-size="14.00" fill="#666666">[BASE TABLE]</text>
<polygon fill="none" stroke="black" points="46.2,-512.2 46.2,-543 454.12,-543 454.12,-512.2 46.2,-512.2"/>
<text text-anchor="start" x="53.2" y="-524.4" font-family="Arial" font-size="14.00">channel_id </text>
<text text-anchor="start" x="124.81" y="-524.4" font-family="Arial" font-size="14.00" fill="#666666">[bigint]</text>
<polygon fill="none" stroke="black" points="46.2,-481.4 46.2,-512.2 454.12,-512.2 454.12,-481.4 46.2,-481.4"/>
<text text-anchor="start" x="53.2" y="-493.6" font-family="Arial" font-size="14.00">level </text>
<text text-anchor="start" x="85.88" y="-493.6" font-family="Arial" font-size="14.00" fill="#666666">[role_level]</text>
<polygon fill="none" stroke="black" points="46.2,-450.6 46.2,-481.4 454.12,-481.4 454.12,-450.6 46.2,-450.6"/>
<text text-anchor="start" x="53.2" y="-462.8" font-family="Arial" font-size="14.00">can_view </text>
<text text-anchor="start" x="115.45" y="-462.8" font-family="Arial" font-size="14.00" fill="#666666">[boolean]</text>
<polygon fill="none" stroke="black" points="46.2,-419.8 46.2,-450.6 454.12,-450.6 454.12,-419.8 46.2,-419.8"/>
<text text-anchor="start" x="53.2" y="-432" font-family="Arial" font-size="14.00">can_post </text>
<text text-anchor="start" x="113.91" y="-432" font-family="Arial" font-size="14.00" fill="#666666">[boolean]</text>
<polygon fill="none" stroke="black" stroke-width="3" points="44.7,-418.3 44.7,-580.1 455.62,-580.1 455.62,-418.3 44.7,-418.3"/>
</g>
<!-- public.channels -->
<g id="node2" class="node">
<title>public.channels</title>
<polygon fill="#efefef" stroke="none" points="123.32,-258.8 123.32,-294.4 377,-294.4 377,-258.8 123.32,-258.8"/>
<polygon fill="none" stroke="black" points="123.32,-258.8 123.32,-294.4 377,-294.4 377,-258.8 123.32,-258.8"/>
<text text-anchor="start" x="131.68" y="-272.2" font-family="Arial Bold" font-size="18.00">public.channels</text>
<text text-anchor="start" x="244.15" y="-272.2" font-family="Arial" font-size="14.00">    </text>
<text text-anchor="start" x="275.26" y="-272.2" font-family="Arial" font-size="14.00" fill="#666666">[BASE TABLE]</text>
<polygon fill="none" stroke="black" points="123.32,-228 123.32,-258.8 377,-258.8 377,-228 123.32,-228"/>
<text text-anchor="start" x="130.32" y="-240.2" font-family="Arial" font-size="14.00">id </text>
<text text-anchor="start" x="145.1" y="-240.2" font-family="Arial" font-size="14.00" fill="#666666">[bigint]</text>
<polygon fill="none" stroke="black" points="123.32,-197.2 123.32,-228 377,-228 377,-197.2 123.32,-197.2"/>
<text text-anchor="start" x="130.32" y="-209.4" font-family="Arial" font-size="14.00">type </text>
<text text-anchor="start" x="160.67" y="-209.4" font-family="Arial" font-size="14.00" fill="#666666">[channel_type]</text>
<polygon fill="none" stroke="black" points="123.32,-166.4 123.32,-197.2 377,-197.2 377,-166.4 123.32,-166.4"/>
<text text-anchor="start" x="130.32" y="-178.6" font-family="Arial" font-size="14.00">guild_id </text>
<text text-anchor="start" x="182.47" y="-178.6" font-family="Arial" font-size="14.00" fill="#666666">[bigint]</text>
<polygon fill="none" stroke="black" points="123.32,-135.6 123.32,-166.4 377,-166.4 377,-135.6 123.32,-135.6"/>
<text text-anchor="start" x="130.32" y="-147.8" font-family="Arial" font-size="14.00">name </text>
<text text-anchor="start" x="169.23" y="-147.8" font-family="Arial" font-size="14.00" fill="#666666">[text]</text>
<polygon fill="none" stroke="black" points="123.32,-104.8 123.32,-135.6 377,-135.6 377,-104.8 123.32,-104.8"/>
<text text-anchor="start" x="130.32" y="-117" font-family="Arial" font-size="14.00">created_by </text>
<text text-anchor="start" x="203.48" y="-117" font-family="Arial" font-size="14.00" fill="#666666">[bigint]</text>
<polygon fill="none" stroke="black" points="123.32,-74 123.32,-104.8 377,-104.8 377,-74 123.32,-74"/>
<text text-anchor="start" x="130.32" y="-86.2" font-family="Arial" font-size="14.00">created_at </text>
<text text-anchor="start" x="200.37" y="-86.2" font-family="Arial" font-size="14.00" fill="#666666">[timestamp with time zone]</text>
<polygon fill="none" stroke="black" points="123.32,-43.2 123.32,-74 377,-74 377,-43.2 123.32,-43.2"/>
<text text-anchor="start" x="130.32" y="-55.4" font-family="Arial" font-size="14.00">updated_at </text>
<text text-anchor="start" x="204.28" y="-55.4" font-family="Arial" font-size="14.00" fill="#666666">[timestamp with time zone]</text>
</g>
<!-- public.channel_permission_overrides&#45;&gt;public.channels -->
<g id="edge1" class="edge">
<title>public.channel_permission_overrides:channel_id&#45;&gt;public.channels:id</title>
<path fill="none" stroke="black" d="M465.39,-526.97C581.74,-512.27 505.3,-243.4 378,-243.4"/>
<polygon fill="black" stroke="black" points="465.43,-526.97 455.18,-523.09 460.11,-527.3 455.79,-527.56 455.79,-527.56 455.79,-527.56 460.11,-527.3 455.73,-532.07 465.43,-526.97"/>
<text text-anchor="start" x="462.12" y="-537.6" font-family="Arial" font-size="10.00">FOREIGN KEY (channel_id) REFERENCES channels(id) ON DELETE CASCADE</text>
</g>
</g>
</svg>
