<?xml version="1.0" encoding="UTF-8" standalone="no"?>
<!DOCTYPE svg PUBLIC "-//W3C//DTD SVG 1.1//EN"
 "http://www.w3.org/Graphics/SVG/1.1/DTD/svg11.dtd">
<!-- Generated by graphviz version 12.1.2 (20240928.0832)
 -->
<!-- Title: public.channels Pages: 1 -->
<svg width="2149pt" height="1068pt"
 viewBox="0.00 0.00 2149.30 1068.00" xmlns="http://www.w3.org/2000/svg" xmlns:xlink="http://www.w3.org/1999/xlink">
<g id="graph0" class="graph" transform="scale(1 1) rotate(0) translate(4 1064)">
<title>public.channels</title>
<polygon fill="white" stroke="none" points="-4,4 -4,-1064 2145.3,-1064 2145.3,4 -4,4"/>
<!-- public.channels -->
<g id="node1" class="node">
<title>public.channels</title>
<polygon fill="#efefef" stroke="none" points="919.3,-666.2 919.3,-701.8 1172.98,-701.8 1172.98,-666.2 919.3,-666.2"/>
<polygon fill="none" stroke="black" points="919.3,-666.2 919.3,-701.8 1172.98,-701.8 1172.98,-666.2 919.3,-666.2"/>
<text text-anchor="start" x="927.66" y="-679.6" font-family="Arial Bold" font-size="18.00">public.channels</text>
<text text-anchor="start" x="1040.12" y="-679.6" font-family="Arial" font-size="14.00">    </text>
<text text-anchor="start" x="1071.24" y="-679.6" font-family="Arial" font-size="14.00" fill="#666666">[BASE TABLE]</text>
<polygon fill="none" stroke="black" points="919.3,-635.4 919.3,-666.2 1172.98,-666.2 1172.98,-635.4 919.3,-635.4"/>
<text text-anchor="start" x="926.3" y="-647.6" font-family="Arial" font-size="14.00">id </text>
<text text-anchor="start" x="941.08" y="-647.6" font-family="Arial" font-size="14.00" fill="#666666">[bigint]</text>
<polygon fill="none" stroke="black" points="919.3,-604.6 919.3,-635.4 1172.98,-635.4 1172.98,-604.6 919.3,-604.6"/>
<text text-anchor="start" x="926.3" y="-616.8" font-family="Arial" font-size="14.00">type </text>
<text text-anchor="start" x="956.65" y="-616.8" font-family="Arial" font-size="14.00" fill="#666666">[channel_type]</text>
<polygon fill="none" stroke="black" points="919.3,-573.8 919.3,-604.6 1172.98,-604.6 1172.98,-573.8 919.3,-573.8"/>
<text text-anchor="start" x="926.3" y="-586" font-family="Arial" font-size="14.00">guild_id </text>
<text text-anchor="start" x="978.45" y="-586" font-family="Arial" font-size="14.00" fill="#666666">[bigint]</text>
<polygon fill="none" stroke="black" points="919.3,-543 919.3,-573.8 1172.98,-573.8 1172.98,-543 919.3,-543"/>
<text text-anchor="start" x="926.3" y="-555.2" font-family="Arial" font-size="14.00">name </text>
<text text-anchor="start" x="965.21" y="-555.2" font-family="Arial" font-size="14.00" fill="#666666">[text]</text>
<polygon fill="none" stroke="black" points="919.3,-512.2 919.3,-543 1172.98,-543 1172.98,-512.2 919.3,-512.2"/>
<text text-anchor="start" x="926.3" y="-524.4" font-family="Arial" font-size="14.00">created_by </text>
<text text-anchor="start" x="999.45" y="-524.4" font-family="Arial" font-size="14.00" fill="#666666">[bigint]</text>
<polygon fill="none" stroke="black" points="919.3,-481.4 919.3,-512.2 1172.98,-512.2 1172.98,-481.4 919.3,-481.4"/>
<text text-anchor="start" x="926.3" y="-493.6" font-family="Arial" font-size="14.00">created_at </text>
<text text-anchor="start" x="996.34" y="-493.6" font-family="Arial" font-size="14.00" fill="#666666">[timestamp with time zone]</text>
<polygon fill="none" stroke="black" points="919.3,-450.6 919.3,-481.4 1172.98,-481.4 1172.98,-450.6 919.3,-450.6"/>
<text text-anchor="start" x="926.3" y="-462.8" font-family="Arial" font-size="14.00">updated_at </text>
<text text-anchor="start" x="1000.25" y="-462.8" font-family="Arial" font-size="14.00" fill="#666666">[timestamp with time zone]</text>
<polygon fill="none" stroke="black" stroke-width="3" points="917.8,-449.1 917.8,-703.3 1174.48,-703.3 1174.48,-449.1 917.8,-449.1"/>
</g>
<!-- public.guilds -->
<g id="node7" class="node">
<title>public.guilds</title>
<polygon fill="#efefef" stroke="none" points="740.3,-258.8 740.3,-294.4 993.98,-294.4 993.98,-258.8 740.3,-258.8"/>
<polygon fill="none" stroke="black" points="740.3,-258.8 740.3,-294.4 993.98,-294.4 993.98,-258.8 740.3,-258.8"/>
<text text-anchor="start" x="758.14" y="-272.2" font-family="Arial Bold" font-size="18.00">public.guilds</text>
<text text-anchor="start" x="851.64" y="-272.2" font-family="Arial" font-size="14.00">    </text>
<text text-anchor="start" x="882.76" y="-272.2" font-family="Arial" font-size="14.00" fill="#666666">[BASE TABLE]</text>
<polygon fill="none" stroke="black" points="740.3,-228 740.3,-258.8 993.98,-258.8 993.98,-228 740.3,-228"/>
<text text-anchor="start" x="747.3" y="-240.2" font-family="Arial" font-size="14.00">id </text>
<text text-anchor="start" x="762.08" y="-240.2" font-family="Arial" font-size="14.00" fill="#666666">[bigint]</text>
<polygon fill="none" stroke="black" points="740.3,-197.2 740.3,-228 993.98,-228 993.98,-197.2 740.3,-197.2"/>
<text text-anchor="start" x="747.3" y="-209.4" font-family="Arial" font-size="14.00">name </text>
<text text-anchor="start" x="786.21" y="-209.4" font-family="Arial" font-size="14.00" fill="#666666">[text]</text>
<polygon fill="none" stroke="black" points="740.3,-166.4 740.3,-197.2 993.98,-197.2 993.98,-166.4 740.3,-166.4"/>
<text text-anchor="start" x="747.3" y="-178.6" font-family="Arial" font-size="14.00">owner_id </text>
<text text-anchor="start" x="808" y="-178.6" font-family="Arial" font-size="14.00" fill="#666666">[bigint]</text>
<polygon fill="none" stroke="black" points="740.3,-135.6 740.3,-166.4 993.98,-166.4 993.98,-135.6 740.3,-135.6"/>
<text text-anchor="start" x="747.3" y="-147.8" font-family="Arial" font-size="14.00">icon_key </text>
<text text-anchor="start" x="806.44" y="-147.8" font-family="Arial" font-size="14.00" fill="#666666">[text]</text>
<polygon fill="none" stroke="black" points="740.3,-104.8 740.3,-135.6 993.98,-135.6 993.98,-104.8 740.3,-104.8"/>
<text text-anchor="start" x="747.3" y="-117" font-family="Arial" font-size="14.00">created_at </text>
<text text-anchor="start" x="817.34" y="-117" font-family="Arial" font-size="14.00" fill="#666666">[timestamp with time zone]</text>
<polygon fill="none" stroke="black" points="740.3,-74 740.3,-104.8 993.98,-104.8 993.98,-74 740.3,-74"/>
<text text-anchor="start" x="747.3" y="-86.2" font-family="Arial" font-size="14.00">updated_at </text>
<text text-anchor="start" x="821.25" y="-86.2" font-family="Arial" font-size="14.00" fill="#666666">[timestamp with time zone]</text>
</g>
<!-- public.channels&#45;&gt;public.guilds -->
<g id="edge6" class="edge">
<title>public.channels:guild_id&#45;&gt;public.guilds:id</title>
<path fill="none" stroke="black" d="M908.22,-589.11C620.06,-583.89 987.74,-351.36 993.98,-337.6 1011.27,-299.47 1036.85,-243.4 994.98,-243.4"/>
<polygon fill="black" stroke="black" points="907.96,-589.11 917.92,-593.7 913.3,-589.16 917.63,-589.19 917.63,-589.19 917.63,-589.19 913.3,-589.16 918,-584.7 907.96,-589.11"/>
<text text-anchor="start" x="573.99" y="-599.2" font-family="Arial" font-size="10.00">FOREIGN KEY (guild_id) REFERENCES guilds(id) ON DELETE CASCADE</text>
</g>
<!-- public.users -->
<g id="node8" class="node">
<title>public.users</title>
<polygon fill="#efefef" stroke="none" points="1098.3,-289.6 1098.3,-325.2 1351.98,-325.2 1351.98,-289.6 1098.3,-289.6"/>
<polygon fill="none" stroke="black" points="1098.3,-289.6 1098.3,-325.2 1351.98,-325.2 1351.98,-289.6 1098.3,-289.6"/>
<text text-anchor="start" x="1119.65" y="-303" font-family="Arial Bold" font-size="18.00">public.users</text>
<text text-anchor="start" x="1206.13" y="-303" font-family="Arial" font-size="14.00">    </text>
<text text-anchor="start" x="1237.25" y="-303" font-family="Arial" font-size="14.00" fill="#666666">[BASE TABLE]</text>
<polygon fill="none" stroke="black" points="1098.3,-258.8 1098.3,-289.6 1351.98,-289.6 1351.98,-258.8 1098.3,-258.8"/>
<text text-anchor="start" x="1105.3" y="-271" font-family="Arial" font-size="14.00">id </text>
<text text-anchor="start" x="1120.08" y="-271" font-family="Arial" font-size="14.00" fill="#666666">[bigint]</text>
<polygon fill="none" stroke="black" points="1098.3,-228 1098.3,-258.8 1351.98,-258.8 1351.98,-228 1098.3,-228"/>
<text text-anchor="start" x="1105.3" y="-240.2" font-family="Arial" font-size="14.00">email </text>
<text text-anchor="start" x="1142.64" y="-240.2" font-family="Arial" font-size="14.00" fill="#666666">[text]</text>
<polygon fill="none" stroke="black" points="1098.3,-197.2 1098.3,-228 1351.98,-228 1351.98,-197.2 1098.3,-197.2"/>
<text text-anchor="start" x="1105.3" y="-209.4" font-family="Arial" font-size="14.00">display_name </text>
<text text-anchor="start" x="1195.57" y="-209.4" font-family="Arial" font-size="14.00" fill="#666666">[text]</text>
<polygon fill="none" stroke="black" points="1098.3,-166.4 1098.3,-197.2 1351.98,-197.2 1351.98,-166.4 1098.3,-166.4"/>
<text text-anchor="start" x="1105.3" y="-178.6" font-family="Arial" font-size="14.00">avatar_key </text>
<text text-anchor="start" x="1177.67" y="-178.6" font-family="Arial" font-size="14.00" fill="#666666">[text]</text>
<polygon fill="none" stroke="black" points="1098.3,-135.6 1098.3,-166.4 1351.98,-166.4 1351.98,-135.6 1098.3,-135.6"/>
<text text-anchor="start" x="1105.3" y="-147.8" font-family="Arial" font-size="14.00">status_text </text>
<text text-anchor="start" x="1176.89" y="-147.8" font-family="Arial" font-size="14.00" fill="#666666">[text]</text>
<polygon fill="none" stroke="black" points="1098.3,-104.8 1098.3,-135.6 1351.98,-135.6 1351.98,-104.8 1098.3,-104.8"/>
<text text-anchor="start" x="1105.3" y="-117" font-family="Arial" font-size="14.00">theme </text>
<text text-anchor="start" x="1148.1" y="-117" font-family="Arial" font-size="14.00" fill="#666666">[text]</text>
<polygon fill="none" stroke="black" points="1098.3,-74 1098.3,-104.8 1351.98,-104.8 1351.98,-74 1098.3,-74"/>
<text text-anchor="start" x="1105.3" y="-86.2" font-family="Arial" font-size="14.00">created_at </text>
<text text-anchor="start" x="1175.34" y="-86.2" font-family="Arial" font-size="14.00" fill="#666666">[timestamp with time zone]</text>
<polygon fill="none" stroke="black" points="1098.3,-43.2 1098.3,-74 1351.98,-74 1351.98,-43.2 1098.3,-43.2"/>
<text text-anchor="start" x="1105.3" y="-55.4" font-family="Arial" font-size="14.00">updated_at </text>
<text text-anchor="start" x="1179.25" y="-55.4" font-family="Arial" font-size="14.00" fill="#666666">[timestamp with time zone]</text>
</g>
<!-- public.channels&#45;&gt;public.users -->
<g id="edge7" class="edge">
<title>public.channels:created_by&#45;&gt;public.users:id</title>
<path fill="none" stroke="black" d="M1184.35,-526.5C1225,-516.93 1200.23,-447.4 1172.98,-404.4 1153.25,-373.28 1118.06,-399.5 1098.3,-368.4 1075.84,-333.06 1055.43,-274.2 1097.3,-274.2"/>
<polygon fill="black" stroke="black" points="1184.25,-526.51 1173.83,-523.09 1178.95,-527.07 1174.64,-527.53 1174.64,-527.53 1174.64,-527.53 1178.95,-527.07 1174.79,-532.04 1184.25,-526.51"/>
<text text-anchor="start" x="1180.98" y="-537.6" font-family="Arial" font-size="10.00">FOREIGN KEY (created_by) REFERENCES users(id) ON DELETE SET NULL</text>
</g>
<!-- public.dm_participants -->
<g id="node2" class="node">
<title>public.dm_participants</title>
<polygon fill="#efefef" stroke="none" points="74.16,-935 74.16,-970.6 378.11,-970.6 378.11,-935 74.16,-935"/>
<polygon fill="none" stroke="black" points="74.16,-935 74.16,-970.6 378.11,-970.6 378.11,-935 74.16,-935"/>
<text text-anchor="start" x="81.16" y="-948.4" font-family="Arial Bold" font-size="18.00">public.dm_participants</text>
<text text-anchor="start" x="246.62" y="-948.4" font-family="Arial" font-size="14.00">    </text>
<text text-anchor="start" x="277.74" y="-948.4" font-family="Arial" font-size="14.00" fill="#666666">[BASE TABLE]</text>
<polygon fill="none" stroke="black" points="74.16,-904.2 74.16,-935 378.11,-935 378.11,-904.2 74.16,-904.2"/>
<text text-anchor="start" x="81.16" y="-916.4" font-family="Arial" font-size="14.00">channel_id </text>
<text text-anchor="start" x="152.77" y="-916.4" font-family="Arial" font-size="14.00" fill="#666666">[bigint]</text>
<polygon fill="none" stroke="black" points="74.16,-873.4 74.16,-904.2 378.11,-904.2 378.11,-873.4 74.16,-873.4"/>
<text text-anchor="start" x="81.16" y="-885.6" font-family="Arial" font-size="14.00">user_id </text>
<text text-anchor="start" x="130.97" y="-885.6" font-family="Arial" font-size="14.00" fill="#666666">[bigint]</text>
</g>
<!-- public.dm_participants&#45;&gt;public.channels -->
<g id="edge1" class="edge">
<title>public.dm_participants:channel_id&#45;&gt;public.channels:id</title>
<path fill="none" stroke="black" d="M389.48,-918.62C436.52,-908.61 385.41,-824.73 430.14,-784 513.28,-708.29 805.85,-650.8 918.3,-650.8"/>
<polygon fill="black" stroke="black" points="389.4,-918.62 379.02,-915.09 384.09,-919.13 379.78,-919.54 379.78,-919.54 379.78,-919.54 384.09,-919.13 379.87,-924.05 389.4,-918.62"/>
<text text-anchor="start" x="7" y="-929.6" font-family="Arial" font-size="10.00">FOREIGN KEY (channel_id) REFERENCES channels(id) ON DELETE CASCADE</text>
</g>
<!-- public.dm_pairs -->
<g id="node3" class="node">
<title>public.dm_pairs</title>
<polygon fill="#efefef" stroke="none" points="482.65,-950.4 482.65,-986 737.62,-986 737.62,-950.4 482.65,-950.4"/>
<polygon fill="none" stroke="black" points="482.65,-950.4 482.65,-986 737.62,-986 737.62,-950.4 482.65,-950.4"/>
<text text-anchor="start" x="489.65" y="-963.8" font-family="Arial Bold" font-size="18.00">public.dm_pairs</text>
<text text-anchor="start" x="606.13" y="-963.8" font-family="Arial" font-size="14.00">    </text>
<text text-anchor="start" x="637.25" y="-963.8" font-family="Arial" font-size="14.00" fill="#666666">[BASE TABLE]</text>
<polygon fill="none" stroke="black" points="482.65,-919.6 482.65,-950.4 737.62,-950.4 737.62,-919.6 482.65,-919.6"/>
<text text-anchor="start" x="489.65" y="-931.8" font-family="Arial" font-size="14.00">user_low </text>
<text text-anchor="start" x="549.57" y="-931.8" font-family="Arial" font-size="14.00" fill="#666666">[bigint]</text>
<polygon fill="none" stroke="black" points="482.65,-888.8 482.65,-919.6 737.62,-919.6 737.62,-888.8 482.65,-888.8"/>
<text text-anchor="start" x="489.65" y="-901" font-family="Arial" font-size="14.00">user_high </text>
<text text-anchor="start" x="555.03" y="-901" font-family="Arial" font-size="14.00" fill="#666666">[bigint]</text>
<polygon fill="none" stroke="black" points="482.65,-858 482.65,-888.8 737.62,-888.8 737.62,-858 482.65,-858"/>
<text text-anchor="start" x="489.65" y="-870.2" font-family="Arial" font-size="14.00">channel_id </text>
<text text-anchor="start" x="561.26" y="-870.2" font-family="Arial" font-size="14.00" fill="#666666">[bigint]</text>
</g>
<!-- public.dm_pairs&#45;&gt;public.channels -->
<g id="edge2" class="edge">
<title>public.dm_pairs:channel_id&#45;&gt;public.channels:id</title>
<path fill="none" stroke="black" d="M748.6,-872.37C781.22,-864.86 764.85,-817.65 790.14,-784 839.49,-718.32 836.14,-650.8 918.3,-650.8"/>
<polygon fill="black" stroke="black" points="748.9,-872.34 738.49,-868.89 743.6,-872.89 739.29,-873.33 739.29,-873.33 739.29,-873.33 743.6,-872.89 739.41,-877.84 748.9,-872.34"/>
<text text-anchor="start" x="745.62" y="-883.4" font-family="Arial" font-size="10.00">FOREIGN KEY (channel_id) REFERENCES channels(id) ON DELETE CASCADE</text>
</g>
<!-- public.channel_permission_overrides -->
<g id="node4" class="node">
<title>public.channel_permission_overrides</title>
<polygon fill="#efefef" stroke="none" points="842.18,-965.8 842.18,-1001.4 1250.1,-1001.4 1250.1,-965.8 842.18,-965.8"/>
<polygon fill="none" stroke="black" points="842.18,-965.8 842.18,-1001.4 1250.1,-1001.4 1250.1,-965.8 842.18,-965.8"/>
<text text-anchor="start" x="849.18" y="-979.2" font-family="Arial Bold" font-size="18.00">public.channel_permission_overrides</text>
<text text-anchor="start" x="1118.61" y="-979.2" font-family="Arial" font-size="14.00">    </text>
<text text-anchor="start" x="1149.72" y="-979.2" font-family="Arial" font-size="14.00" fill="#666666">[BASE TABLE]</text>
<polygon fill="none" stroke="black" points="842.18,-935 842.18,-965.8 1250.1,-965.8 1250.1,-935 842.18,-935"/>
<text text-anchor="start" x="849.18" y="-947.2" font-family="Arial" font-size="14.00">channel_id </text>
<text text-anchor="start" x="920.79" y="-947.2" font-family="Arial" font-size="14.00" fill="#666666">[bigint]</text>
<polygon fill="none" stroke="black" points="842.18,-904.2 842.18,-935 1250.1,-935 1250.1,-904.2 842.18,-904.2"/>
<text text-anchor="start" x="849.18" y="-916.4" font-family="Arial" font-size="14.00">level </text>
<text text-anchor="start" x="881.86" y="-916.4" font-family="Arial" font-size="14.00" fill="#666666">[role_level]</text>
<polygon fill="none" stroke="black" points="842.18,-873.4 842.18,-904.2 1250.1,-904.2 1250.1,-873.4 842.18,-873.4"/>
<text text-anchor="start" x="849.18" y="-885.6" font-family="Arial" font-size="14.00">can_view </text>
<text text-anchor="start" x="911.43" y="-885.6" font-family="Arial" font-size="14.00" fill="#666666">[boolean]</text>
<polygon fill="none" stroke="black" points="842.18,-842.6 842.18,-873.4 1250.1,-873.4 1250.1,-842.6 842.18,-842.6"/>
<text text-anchor="start" x="849.18" y="-854.8" font-family="Arial" font-size="14.00">can_post </text>
<text text-anchor="start" x="909.89" y="-854.8" font-family="Arial" font-size="14.00" fill="#666666">[boolean]</text>
</g>
<!-- public.channel_permission_overrides&#45;&gt;public.channels -->
<g id="edge3" class="edge">
<title>public.channel_permission_overrides:channel_id&#45;&gt;public.channels:id</title>
<path fill="none" stroke="black" d="M1261.09,-947.81C1311.43,-918.53 1238.97,-650.8 1173.98,-650.8"/>
<polygon fill="black" stroke="black" points="1261.1,-947.81 1250.29,-945.96 1255.94,-949.15 1251.74,-950.23 1251.74,-950.23 1251.74,-950.23 1255.94,-949.15 1252.55,-954.67 1261.1,-947.81"/>
<text text-anchor="start" x="1258.1" y="-960.4" font-family="Arial" font-size="10.00">FOREIGN KEY (channel_id) REFERENCES channels(id) ON DELETE CASCADE</text>
</g>
<!-- public.channel_reads -->
<g id="node5" class="node">
<title>public.channel_reads</title>
<polygon fill="#efefef" stroke="none" points="1354.67,-981.2 1354.67,-1016.8 1645.6,-1016.8 1645.6,-981.2 1354.67,-981.2"/>
<polygon fill="none" stroke="black" points="1354.67,-981.2 1354.67,-1016.8 1645.6,-1016.8 1645.6,-981.2 1354.67,-981.2"/>
<text text-anchor="start" x="1361.67" y="-994.6" font-family="Arial Bold" font-size="18.00">public.channel_reads</text>
<text text-anchor="start" x="1514.11" y="-994.6" font-family="Arial" font-size="14.00">    </text>
<text text-anchor="start" x="1545.23" y="-994.6" font-family="Arial" font-size="14.00" fill="#666666">[BASE TABLE]</text>
<polygon fill="none" stroke="black" points="1354.67,-950.4 1354.67,-981.2 1645.6,-981.2 1645.6,-950.4 1354.67,-950.4"/>
<text text-anchor="start" x="1361.67" y="-962.6" font-family="Arial" font-size="14.00">channel_id </text>
<text text-anchor="start" x="1433.29" y="-962.6" font-family="Arial" font-size="14.00" fill="#666666">[bigint]</text>
<polygon fill="none" stroke="black" points="1354.67,-919.6 1354.67,-950.4 1645.6,-950.4 1645.6,-919.6 1354.67,-919.6"/>
<text text-anchor="start" x="1361.67" y="-931.8" font-family="Arial" font-size="14.00">user_id </text>
<text text-anchor="start" x="1411.48" y="-931.8" font-family="Arial" font-size="14.00" fill="#666666">[bigint]</text>
<polygon fill="none" stroke="black" points="1354.67,-888.8 1354.67,-919.6 1645.6,-919.6 1645.6,-888.8 1354.67,-888.8"/>
<text text-anchor="start" x="1361.67" y="-901" font-family="Arial" font-size="14.00">last_read_message_id </text>
<text text-anchor="start" x="1506.43" y="-901" font-family="Arial" font-size="14.00" fill="#666666">[bigint]</text>
<polygon fill="none" stroke="black" points="1354.67,-858 1354.67,-888.8 1645.6,-888.8 1645.6,-858 1354.67,-858"/>
<text text-anchor="start" x="1361.67" y="-870.2" font-family="Arial" font-size="14.00">last_client_seq </text>
<text text-anchor="start" x="1458.18" y="-870.2" font-family="Arial" font-size="14.00" fill="#666666">[bigint]</text>
<polygon fill="none" stroke="black" points="1354.67,-827.2 1354.67,-858 1645.6,-858 1645.6,-827.2 1354.67,-827.2"/>
<text text-anchor="start" x="1361.67" y="-839.4" font-family="Arial" font-size="14.00">updated_at </text>
<text text-anchor="start" x="1435.63" y="-839.4" font-family="Arial" font-size="14.00" fill="#666666">[timestamp with time zone]</text>
</g>
<!-- public.channel_reads&#45;&gt;public.channels -->
<g id="edge4" class="edge">
<title>public.channel_reads:channel_id&#45;&gt;public.channels:id</title>
<path fill="none" stroke="black" d="M1343.29,-965.15C1276.13,-956.08 1342.07,-853.56 1302.14,-784 1261.23,-712.75 1256.13,-650.8 1173.98,-650.8"/>
<polygon fill="black" stroke="black" points="1343.36,-965.16 1353.06,-970.27 1348.68,-965.49 1353.01,-965.76 1353.01,-965.76 1353.01,-965.76 1348.68,-965.49 1353.62,-961.29 1343.36,-965.16"/>
<text text-anchor="start" x="1076.34" y="-949.8" font-family="Arial" font-size="10.00">FOREIGN KEY (channel_id) REFERENCES channels(id) ON DELETE CASCADE</text>
</g>
<!-- public.channel_last_message -->
<g id="node6" class="node">
<title>public.channel_last_message</title>
<polygon fill="#efefef" stroke="none" points="1750.17,-965.8 1750.17,-1001.4 2098.1,-1001.4 2098.1,-965.8 1750.17,-965.8"/>
<polygon fill="none" stroke="black" points="1750.17,-965.8 1750.17,-1001.4 2098.1,-1001.4 2098.1,-965.8 1750.17,-965.8"/>
<text text-anchor="start" x="1757.17" y="-979.2" font-family="Arial Bold" font-size="18.00">public.channel_last_message</text>
<text text-anchor="start" x="1966.61" y="-979.2" font-family="Arial" font-size="14.00">    </text>
<text text-anchor="start" x="1997.73" y="-979.2" font-family="Arial" font-size="14.00" fill="#666666">[BASE TABLE]</text>
<polygon fill="none" stroke="black" points="1750.17,-935 1750.17,-965.8 2098.1,-965.8 2098.1,-935 1750.17,-935"/>
<text text-anchor="start" x="1757.17" y="-947.2" font-family="Arial" font-size="14.00">channel_id </text>
<text text-anchor="start" x="1828.79" y="-947.2" font-family="Arial" font-size="14.00" fill="#666666">[bigint]</text>
<polygon fill="none" stroke="black" points="1750.17,-904.2 1750.17,-935 2098.1,-935 2098.1,-904.2 1750.17,-904.2"/>
<text text-anchor="start" x="1757.17" y="-916.4" font-family="Arial" font-size="14.00">last_message_id </text>
<text text-anchor="start" x="1866.13" y="-916.4" font-family="Arial" font-size="14.00" fill="#666666">[bigint]</text>
<polygon fill="none" stroke="black" points="1750.17,-873.4 1750.17,-904.2 2098.1,-904.2 2098.1,-873.4 1750.17,-873.4"/>
<text text-anchor="start" x="1757.17" y="-885.6" font-family="Arial" font-size="14.00">last_message_at </text>
<text text-anchor="start" x="1866.9" y="-885.6" font-family="Arial" font-size="14.00" fill="#666666">[timestamp with time zone]</text>
<polygon fill="none" stroke="black" points="1750.17,-842.6 1750.17,-873.4 2098.1,-873.4 2098.1,-842.6 1750.17,-842.6"/>
<text text-anchor="start" x="1757.17" y="-854.8" font-family="Arial" font-size="14.00">updated_at </text>
<text text-anchor="start" x="1831.13" y="-854.8" font-family="Arial" font-size="14.00" fill="#666666">[timestamp with time zone]</text>
</g>
<!-- public.channel_last_message&#45;&gt;public.channels -->
<g id="edge5" class="edge">
<title>public.channel_last_message:channel_id&#45;&gt;public.channels:id</title>
<path fill="none" stroke="black" d="M1738.95,-949.61C1679.53,-939.5 1751.42,-834.74 1698.14,-784 1611.11,-701.12 1294.16,-650.8 1173.98,-650.8"/>
<polygon fill="black" stroke="black" points="1738.87,-949.61 1748.49,-954.86 1744.19,-950.02 1748.51,-950.35 1748.51,-950.35 1748.51,-950.35 1744.19,-950.02 1749.19,-945.89 1738.87,-949.61"/>
<text text-anchor="start" x="1756.17" y="-960.4" font-family="Arial" font-size="10.00">FOREIGN KEY (channel_id) REFERENCES channels(id) ON DELETE CASCADE</text>
</g>
</g>
</svg>
