<?xml version="1.0" encoding="UTF-8" standalone="no"?>
<!DOCTYPE svg PUBLIC "-//W3C//DTD SVG 1.1//EN"
 "http://www.w3.org/Graphics/SVG/1.1/DTD/svg11.dtd">
<!-- Generated by graphviz version 12.1.2 (20240928.0832)
 -->
<!-- Title: public.users Pages: 1 -->
<svg width="4725pt" height="818pt"
 viewBox="0.00 0.00 4725.47 817.60" xmlns="http://www.w3.org/2000/svg" xmlns:xlink="http://www.w3.org/1999/xlink">
<g id="graph0" class="graph" transform="scale(1 1) rotate(0) translate(4 813.6)">
<title>public.users</title>
<polygon fill="white" stroke="none" points="-4,4 -4,-813.6 4721.47,-813.6 4721.47,4 -4,4"/>
<!-- public.users -->
<g id="node1" class="node">
<title>public.users</title>
<polygon fill="#efefef" stroke="none" points="2359.72,-292.6 2359.72,-328.2 2613.4,-328.2 2613.4,-292.6 2359.72,-292.6"/>
<polygon fill="none" stroke="black" points="2359.72,-292.6 2359.72,-328.2 2613.4,-328.2 2613.4,-292.6 2359.72,-292.6"/>
<text text-anchor="start" x="2381.07" y="-306" font-family="Arial Bold" font-size="18.00">public.users</text>
<text text-anchor="start" x="2467.56" y="-306" font-family="Arial" font-size="14.00">    </text>
<text text-anchor="start" x="2498.67" y="-306" font-family="Arial" font-size="14.00" fill="#666666">[BASE TABLE]</text>
<polygon fill="none" stroke="black" points="2359.72,-261.8 2359.72,-292.6 2613.4,-292.6 2613.4,-261.8 2359.72,-261.8"/>
<text text-anchor="start" x="2366.72" y="-274" font-family="Arial" font-size="14.00">id </text>
<text text-anchor="start" x="2381.5" y="-274" font-family="Arial" font-size="14.00" fill="#666666">[bigint]</text>
<polygon fill="none" stroke="black" points="2359.72,-231 2359.72,-261.8 2613.4,-261.8 2613.4,-231 2359.72,-231"/>
<text text-anchor="start" x="2366.72" y="-243.2" font-family="Arial" font-size="14.00">email </text>
<text text-anchor="start" x="2404.06" y="-243.2" font-family="Arial" font-size="14.00" fill="#666666">[text]</text>
<polygon fill="none" stroke="black" points="2359.72,-200.2 2359.72,-231 2613.4,-231 2613.4,-200.2 2359.72,-200.2"/>
<text text-anchor="start" x="2366.72" y="-212.4" font-family="Arial" font-size="14.00">display_name </text>
<text text-anchor="start" x="2456.99" y="-212.4" font-family="Arial" font-size="14.00" fill="#666666">[text]</text>
<polygon fill="none" stroke="black" points="2359.72,-169.4 2359.72,-200.2 2613.4,-200.2 2613.4,-169.4 2359.72,-169.4"/>
<text text-anchor="start" x="2366.72" y="-181.6" font-family="Arial" font-size="14.00">avatar_key </text>
<text text-anchor="start" x="2439.09" y="-181.6" font-family="Arial" font-size="14.00" fill="#666666">[text]</text>
<polygon fill="none" stroke="black" points="2359.72,-138.6 2359.72,-169.4 2613.4,-169.4 2613.4,-138.6 2359.72,-138.6"/>
<text text-anchor="start" x="2366.72" y="-150.8" font-family="Arial" font-size="14.00">status_text </text>
<text text-anchor="start" x="2438.31" y="-150.8" font-family="Arial" font-size="14.00" fill="#666666">[text]</text>
<polygon fill="none" stroke="black" points="2359.72,-107.8 2359.72,-138.6 2613.4,-138.6 2613.4,-107.8 2359.72,-107.8"/>
<text text-anchor="start" x="2366.72" y="-120" font-family="Arial" font-size="14.00">theme </text>
<text text-anchor="start" x="2409.52" y="-120" font-family="Arial" font-size="14.00" fill="#666666">[text]</text>
<polygon fill="none" stroke="black" points="2359.72,-77 2359.72,-107.8 2613.4,-107.8 2613.4,-77 2359.72,-77"/>
<text text-anchor="start" x="2366.72" y="-89.2" font-family="Arial" font-size="14.00">created_at </text>
<text text-anchor="start" x="2436.76" y="-89.2" font-family="Arial" font-size="14.00" fill="#666666">[timestamp with time zone]</text>
<polygon fill="none" stroke="black" points="2359.72,-46.2 2359.72,-77 2613.4,-77 2613.4,-46.2 2359.72,-46.2"/>
<text text-anchor="start" x="2366.72" y="-58.4" font-family="Arial" font-size="14.00">updated_at </text>
<text text-anchor="start" x="2440.67" y="-58.4" font-family="Arial" font-size="14.00" fill="#666666">[timestamp with time zone]</text>
<polygon fill="none" stroke="black" stroke-width="3" points="2358.22,-44.7 2358.22,-329.7 2614.9,-329.7 2614.9,-44.7 2358.22,-44.7"/>
</g>
<!-- public.guilds -->
<g id="node2" class="node">
<title>public.guilds</title>
<polygon fill="#efefef" stroke="none" points="102.72,-684.6 102.72,-720.2 356.4,-720.2 356.4,-684.6 102.72,-684.6"/>
<polygon fill="none" stroke="black" points="102.72,-684.6 102.72,-720.2 356.4,-720.2 356.4,-684.6 102.72,-684.6"/>
<text text-anchor="start" x="120.56" y="-698" font-family="Arial Bold" font-size="18.00">public.guilds</text>
<text text-anchor="start" x="214.06" y="-698" font-family="Arial" font-size="14.00">    </text>
<text text-anchor="start" x="245.18" y="-698" font-family="Arial" font-size="14.00" fill="#666666">[BASE TABLE]</text>
<polygon fill="none" stroke="black" points="102.72,-653.8 102.72,-684.6 356.4,-684.6 356.4,-653.8 102.72,-653.8"/>
<text text-anchor="start" x="109.72" y="-666" font-family="Arial" font-size="14.00">id </text>
<text text-anchor="start" x="124.5" y="-666" font-family="Arial" font-size="14.00" fill="#666666">[bigint]</text>
<polygon fill="none" stroke="black" points="102.72,-623 102.72,-653.8 356.4,-653.8 356.4,-623 102.72,-623"/>
<text text-anchor="start" x="109.72" y="-635.2" font-family="Arial" font-size="14.00">name </text>
<text text-anchor="start" x="148.63" y="-635.2" font-family="Arial" font-size="14.00" fill="#666666">[text]</text>
<polygon fill="none" stroke="black" points="102.72,-592.2 102.72,-623 356.4,-623 356.4,-592.2 102.72,-592.2"/>
<text text-anchor="start" x="109.72" y="-604.4" font-family="Arial" font-size="14.00">owner_id </text>
<text text-anchor="start" x="170.42" y="-604.4" font-family="Arial" font-size="14.00" fill="#666666">[bigint]</text>
<polygon fill="none" stroke="black" points="102.72,-561.4 102.72,-592.2 356.4,-592.2 356.4,-561.4 102.72,-561.4"/>
<text text-anchor="start" x="109.72" y="-573.6" font-family="Arial" font-size="14.00">icon_key </text>
<text text-anchor="start" x="168.86" y="-573.6" font-family="Arial" font-size="14.00" fill="#666666">[text]</text>
<polygon fill="none" stroke="black" points="102.72,-530.6 102.72,-561.4 356.4,-561.4 356.4,-530.6 102.72,-530.6"/>
<text text-anchor="start" x="109.72" y="-542.8" font-family="Arial" font-size="14.00">created_at </text>
<text text-anchor="start" x="179.76" y="-542.8" font-family="Arial" font-size="14.00" fill="#666666">[timestamp with time zone]</text>
<polygon fill="none" stroke="black" points="102.72,-499.8 102.72,-530.6 356.4,-530.6 356.4,-499.8 102.72,-499.8"/>
<text text-anchor="start" x="109.72" y="-512" font-family="Arial" font-size="14.00">updated_at </text>
<text text-anchor="start" x="183.67" y="-512" font-family="Arial" font-size="14.00" fill="#666666">[timestamp with time zone]</text>
</g>
<!-- public.guilds&#45;&gt;public.users -->
<g id="edge1" class="edge">
<title>public.guilds:owner_id&#45;&gt;public.users:id</title>
<path fill="none" stroke="black" d="M367.56,-606.91C439.3,-596.3 341.73,-465.84 408.56,-410.4 492.13,-341.06 2250.12,-277.2 2358.72,-277.2"/>
<polygon fill="black" stroke="black" points="367.71,-606.9 357.43,-603.09 362.39,-607.26 358.07,-607.55 358.07,-607.55 358.07,-607.55 362.39,-607.26 358.04,-612.07 367.71,-606.9"/>
<text text-anchor="start" x="7" y="-617.6" font-family="Arial" font-size="10.00">FOREIGN KEY (owner_id) REFERENCES users(id) ON DELETE RESTRICT</text>
</g>
<!-- public.guild_members -->
<g id="node3" class="node">
<title>public.guild_members</title>
<polygon fill="#efefef" stroke="none" points="460.58,-653.8 460.58,-689.4 760.54,-689.4 760.54,-653.8 460.58,-653.8"/>
<polygon fill="none" stroke="black" points="460.58,-653.8 460.58,-689.4 760.54,-689.4 760.54,-653.8 460.58,-653.8"/>
<text text-anchor="start" x="467.58" y="-667.2" font-family="Arial Bold" font-size="18.00">public.guild_members</text>
<text text-anchor="start" x="629.05" y="-667.2" font-family="Arial" font-size="14.00">    </text>
<text text-anchor="start" x="660.17" y="-667.2" font-family="Arial" font-size="14.00" fill="#666666">[BASE TABLE]</text>
<polygon fill="none" stroke="black" points="460.58,-623 460.58,-653.8 760.54,-653.8 760.54,-623 460.58,-623"/>
<text text-anchor="start" x="467.58" y="-635.2" font-family="Arial" font-size="14.00">guild_id </text>
<text text-anchor="start" x="519.73" y="-635.2" font-family="Arial" font-size="14.00" fill="#666666">[bigint]</text>
<polygon fill="none" stroke="black" points="460.58,-592.2 460.58,-623 760.54,-623 760.54,-592.2 460.58,-592.2"/>
<text text-anchor="start" x="467.58" y="-604.4" font-family="Arial" font-size="14.00">user_id </text>
<text text-anchor="start" x="517.38" y="-604.4" font-family="Arial" font-size="14.00" fill="#666666">[bigint]</text>
<polygon fill="none" stroke="black" points="460.58,-561.4 460.58,-592.2 760.54,-592.2 760.54,-561.4 460.58,-561.4"/>
<text text-anchor="start" x="467.58" y="-573.6" font-family="Arial" font-size="14.00">joined_at </text>
<text text-anchor="start" x="528.29" y="-573.6" font-family="Arial" font-size="14.00" fill="#666666">[timestamp with time zone]</text>
<polygon fill="none" stroke="black" points="460.58,-530.6 460.58,-561.4 760.54,-561.4 760.54,-530.6 460.58,-530.6"/>
<text text-anchor="start" x="467.58" y="-542.8" font-family="Arial" font-size="14.00">nickname </text>
<text text-anchor="start" x="531.38" y="-542.8" font-family="Arial" font-size="14.00" fill="#666666">[text]</text>
</g>
<!-- public.guild_members&#45;&gt;public.users -->
<g id="edge2" class="edge">
<title>public.guild_members:user_id&#45;&gt;public.users:id</title>
<path fill="none" stroke="black" d="M771.7,-606.91C843.46,-596.35 746.26,-466.45 812.56,-410.4 944.24,-299.08 2186.29,-277.2 2358.72,-277.2"/>
<polygon fill="black" stroke="black" points="771.85,-606.9 761.57,-603.09 766.53,-607.26 762.21,-607.55 762.21,-607.55 762.21,-607.55 766.53,-607.26 762.18,-612.07 771.85,-606.9"/>
<text text-anchor="start" x="768.54" y="-617.6" font-family="Arial" font-size="10.00">FOREIGN KEY (user_id) REFERENCES users(id) ON DELETE CASCADE</text>
</g>
<!-- public.invites -->
<g id="node4" class="node">
<title>public.invites</title>
<polygon fill="#efefef" stroke="none" points="864.67,-730.8 864.67,-766.4 1114.44,-766.4 1114.44,-730.8 864.67,-730.8"/>
<polygon fill="none" stroke="black" points="864.67,-730.8 864.67,-766.4 1114.44,-766.4 1114.44,-730.8 864.67,-730.8"/>
<text text-anchor="start" x="878.57" y="-744.2" font-family="Arial Bold" font-size="18.00">public.invites</text>
<text text-anchor="start" x="976.06" y="-744.2" font-family="Arial" font-size="14.00">    </text>
<text text-anchor="start" x="1007.17" y="-744.2" font-family="Arial" font-size="14.00" fill="#666666">[BASE TABLE]</text>
<polygon fill="none" stroke="black" points="864.67,-700 864.67,-730.8 1114.44,-730.8 1114.44,-700 864.67,-700"/>
<text text-anchor="start" x="871.67" y="-712.2" font-family="Arial" font-size="14.00">id </text>
<text text-anchor="start" x="886.46" y="-712.2" font-family="Arial" font-size="14.00" fill="#666666">[bigint]</text>
<polygon fill="none" stroke="black" points="864.67,-669.2 864.67,-700 1114.44,-700 1114.44,-669.2 864.67,-669.2"/>
<text text-anchor="start" x="871.67" y="-681.4" font-family="Arial" font-size="14.00">guild_id </text>
<text text-anchor="start" x="923.82" y="-681.4" font-family="Arial" font-size="14.00" fill="#666666">[bigint]</text>
<polygon fill="none" stroke="black" points="864.67,-638.4 864.67,-669.2 1114.44,-669.2 1114.44,-638.4 864.67,-638.4"/>
<text text-anchor="start" x="871.67" y="-650.6" font-family="Arial" font-size="14.00">created_by </text>
<text text-anchor="start" x="944.83" y="-650.6" font-family="Arial" font-size="14.00" fill="#666666">[bigint]</text>
<polygon fill="none" stroke="black" points="864.67,-607.6 864.67,-638.4 1114.44,-638.4 1114.44,-607.6 864.67,-607.6"/>
<text text-anchor="start" x="871.67" y="-619.8" font-family="Arial" font-size="14.00">code </text>
<text text-anchor="start" x="905.92" y="-619.8" font-family="Arial" font-size="14.00" fill="#666666">[text]</text>
<polygon fill="none" stroke="black" points="864.67,-576.8 864.67,-607.6 1114.44,-607.6 1114.44,-576.8 864.67,-576.8"/>
<text text-anchor="start" x="871.67" y="-589" font-family="Arial" font-size="14.00">expires_at </text>
<text text-anchor="start" x="940.15" y="-589" font-family="Arial" font-size="14.00" fill="#666666">[timestamp with time zone]</text>
<polygon fill="none" stroke="black" points="864.67,-546 864.67,-576.8 1114.44,-576.8 1114.44,-546 864.67,-546"/>
<text text-anchor="start" x="871.67" y="-558.2" font-family="Arial" font-size="14.00">max_uses </text>
<text text-anchor="start" x="939.37" y="-558.2" font-family="Arial" font-size="14.00" fill="#666666">[integer]</text>
<polygon fill="none" stroke="black" points="864.67,-515.2 864.67,-546 1114.44,-546 1114.44,-515.2 864.67,-515.2"/>
<text text-anchor="start" x="871.67" y="-527.4" font-family="Arial" font-size="14.00">uses </text>
<text text-anchor="start" x="905.13" y="-527.4" font-family="Arial" font-size="14.00" fill="#666666">[integer]</text>
<polygon fill="none" stroke="black" points="864.67,-484.4 864.67,-515.2 1114.44,-515.2 1114.44,-484.4 864.67,-484.4"/>
<text text-anchor="start" x="871.67" y="-496.6" font-family="Arial" font-size="14.00">is_disabled </text>
<text text-anchor="start" x="945.61" y="-496.6" font-family="Arial" font-size="14.00" fill="#666666">[boolean]</text>
<polygon fill="none" stroke="black" points="864.67,-453.6 864.67,-484.4 1114.44,-484.4 1114.44,-453.6 864.67,-453.6"/>
<text text-anchor="start" x="871.67" y="-465.8" font-family="Arial" font-size="14.00">created_at </text>
<text text-anchor="start" x="941.72" y="-465.8" font-family="Arial" font-size="14.00" fill="#666666">[timestamp with time zone]</text>
</g>
<!-- public.invites&#45;&gt;public.users -->
<g id="edge3" class="edge">
<title>public.invites:created_by&#45;&gt;public.users:id</title>
<path fill="none" stroke="black" d="M1125.64,-653.25C1216.85,-642.68 1087.46,-482.26 1166.56,-410.4 1265.21,-320.77 2225.43,-277.2 2358.72,-277.2"/>
<polygon fill="black" stroke="black" points="1125.76,-653.24 1115.54,-649.29 1120.44,-653.53 1116.11,-653.76 1116.11,-653.76 1116.11,-653.76 1120.44,-653.53 1116.02,-658.28 1125.76,-653.24"/>
<text text-anchor="start" x="1122.44" y="-663.8" font-family="Arial" font-size="10.00">FOREIGN KEY (created_by) REFERENCES users(id) ON DELETE SET NULL</text>
</g>
<!-- public.invite_uses -->
<g id="node5" class="node">
<title>public.invite_uses</title>
<polygon fill="#efefef" stroke="none" points="1219.07,-638.4 1219.07,-674 1488.04,-674 1488.04,-638.4 1219.07,-638.4"/>
<polygon fill="none" stroke="black" points="1219.07,-638.4 1219.07,-674 1488.04,-674 1488.04,-638.4 1219.07,-638.4"/>
<text text-anchor="start" x="1226.07" y="-651.8" font-family="Arial Bold" font-size="18.00">public.invite_uses</text>
<text text-anchor="start" x="1356.55" y="-651.8" font-family="Arial" font-size="14.00">    </text>
<text text-anchor="start" x="1387.67" y="-651.8" font-family="Arial" font-size="14.00" fill="#666666">[BASE TABLE]</text>
<polygon fill="none" stroke="black" points="1219.07,-607.6 1219.07,-638.4 1488.04,-638.4 1488.04,-607.6 1219.07,-607.6"/>
<text text-anchor="start" x="1226.07" y="-619.8" font-family="Arial" font-size="14.00">invite_id </text>
<text text-anchor="start" x="1281.33" y="-619.8" font-family="Arial" font-size="14.00" fill="#666666">[bigint]</text>
<polygon fill="none" stroke="black" points="1219.07,-576.8 1219.07,-607.6 1488.04,-607.6 1488.04,-576.8 1219.07,-576.8"/>
<text text-anchor="start" x="1226.07" y="-589" font-family="Arial" font-size="14.00">used_by </text>
<text text-anchor="start" x="1282.89" y="-589" font-family="Arial" font-size="14.00" fill="#666666">[bigint]</text>
<polygon fill="none" stroke="black" points="1219.07,-546 1219.07,-576.8 1488.04,-576.8 1488.04,-546 1219.07,-546"/>
<text text-anchor="start" x="1226.07" y="-558.2" font-family="Arial" font-size="14.00">used_at </text>
<text text-anchor="start" x="1279.78" y="-558.2" font-family="Arial" font-size="14.00" fill="#666666">[timestamp with time zone]</text>
</g>
<!-- public.invite_uses&#45;&gt;public.users -->
<g id="edge4" class="edge">
<title>public.invite_uses:used_by&#45;&gt;public.users:id</title>
<path fill="none" stroke="black" d="M1499.31,-591.46C1564.79,-581.03 1480.68,-463.77 1540.56,-410.4 1678.07,-287.83 2174.51,-277.2 2358.72,-277.2"/>
<polygon fill="black" stroke="black" points="1499.35,-591.45 1489.05,-587.69 1494.03,-591.84 1489.71,-592.15 1489.71,-592.15 1489.71,-592.15 1494.03,-591.84 1489.7,-596.66 1499.35,-591.45"/>
<text text-anchor="start" x="1319.56" y="-576.2" font-family="Arial" font-size="10.00">FOREIGN KEY (used_by) REFERENCES users(id) ON DELETE CASCADE</text>
</g>
<!-- public.channels -->
<g id="node6" class="node">
<title>public.channels</title>
<polygon fill="#efefef" stroke="none" points="1592.72,-700 1592.72,-735.6 1846.4,-735.6 1846.4,-700 1592.72,-700"/>
<polygon fill="none" stroke="black" points="1592.72,-700 1592.72,-735.6 1846.4,-735.6 1846.4,-700 1592.72,-700"/>
<text text-anchor="start" x="1601.08" y="-713.4" font-family="Arial Bold" font-size="18.00">public.channels</text>
<text text-anchor="start" x="1713.55" y="-713.4" font-family="Arial" font-size="14.00">    </text>
<text text-anchor="start" x="1744.66" y="-713.4" font-family="Arial" font-size="14.00" fill="#666666">[BASE TABLE]</text>
<polygon fill="none" stroke="black" points="1592.72,-669.2 1592.72,-700 1846.4,-700 1846.4,-669.2 1592.72,-669.2"/>
<text text-anchor="start" x="1599.72" y="-681.4" font-family="Arial" font-size="14.00">id </text>
<text text-anchor="start" x="1614.5" y="-681.4" font-family="Arial" font-size="14.00" fill="#666666">[bigint]</text>
<polygon fill="none" stroke="black" points="1592.72,-638.4 1592.72,-669.2 1846.4,-669.2 1846.4,-638.4 1592.72,-638.4"/>
<text text-anchor="start" x="1599.72" y="-650.6" font-family="Arial" font-size="14.00">type </text>
<text text-anchor="start" x="1630.07" y="-650.6" font-family="Arial" font-size="14.00" fill="#666666">[channel_type]</text>
<polygon fill="none" stroke="black" points="1592.72,-607.6 1592.72,-638.4 1846.4,-638.4 1846.4,-607.6 1592.72,-607.6"/>
<text text-anchor="start" x="1599.72" y="-619.8" font-family="Arial" font-size="14.00">guild_id </text>
<text text-anchor="start" x="1651.87" y="-619.8" font-family="Arial" font-size="14.00" fill="#666666">[bigint]</text>
<polygon fill="none" stroke="black" points="1592.72,-576.8 1592.72,-607.6 1846.4,-607.6 1846.4,-576.8 1592.72,-576.8"/>
<text text-anchor="start" x="1599.72" y="-589" font-family="Arial" font-size="14.00">name </text>
<text text-anchor="start" x="1638.63" y="-589" font-family="Arial" font-size="14.00" fill="#666666">[text]</text>
<polygon fill="none" stroke="black" points="1592.72,-546 1592.72,-576.8 1846.4,-576.8 1846.4,-546 1592.72,-546"/>
<text text-anchor="start" x="1599.72" y="-558.2" font-family="Arial" font-size="14.00">created_by </text>
<text text-anchor="start" x="1672.88" y="-558.2" font-family="Arial" font-size="14.00" fill="#666666">[bigint]</text>
<polygon fill="none" stroke="black" points="1592.72,-515.2 1592.72,-546 1846.4,-546 1846.4,-515.2 1592.72,-515.2"/>
<text text-anchor="start" x="1599.72" y="-527.4" font-family="Arial" font-size="14.00">created_at </text>
<text text-anchor="start" x="1669.76" y="-527.4" font-family="Arial" font-size="14.00" fill="#666666">[timestamp with time zone]</text>
<polygon fill="none" stroke="black" points="1592.72,-484.4 1592.72,-515.2 1846.4,-515.2 1846.4,-484.4 1592.72,-484.4"/>
<text text-anchor="start" x="1599.72" y="-496.6" font-family="Arial" font-size="14.00">updated_at </text>
<text text-anchor="start" x="1673.67" y="-496.6" font-family="Arial" font-size="14.00" fill="#666666">[timestamp with time zone]</text>
</g>
<!-- public.channels&#45;&gt;public.users -->
<g id="edge5" class="edge">
<title>public.channels:created_by&#45;&gt;public.users:id</title>
<path fill="none" stroke="black" d="M1857.79,-560.51C1910.87,-550.4 1850.14,-456.69 1898.56,-410.4 1975.5,-336.83 2252.26,-277.2 2358.72,-277.2"/>
<polygon fill="black" stroke="black" points="1857.7,-560.52 1847.35,-556.89 1852.38,-560.97 1848.06,-561.34 1848.06,-561.34 1848.06,-561.34 1852.38,-560.97 1848.12,-565.86 1857.7,-560.52"/>
<text text-anchor="start" x="1672.35" y="-545.4" font-family="Arial" font-size="10.00">FOREIGN KEY (created_by) REFERENCES users(id) ON DELETE SET NULL</text>
</g>
<!-- public.dm_participants -->
<g id="node7" class="node">
<title>public.dm_participants</title>
<polygon fill="#efefef" stroke="none" points="1950.58,-623 1950.58,-658.6 2254.53,-658.6 2254.53,-623 1950.58,-623"/>
<polygon fill="none" stroke="black" points="1950.58,-623 1950.58,-658.6 2254.53,-658.6 2254.53,-623 1950.58,-623"/>
<text text-anchor="start" x="1957.58" y="-636.4" font-family="Arial Bold" font-size="18.00">public.dm_participants</text>
<text text-anchor="start" x="2123.04" y="-636.4" font-family="Arial" font-size="14.00">    </text>
<text text-anchor="start" x="2154.16" y="-636.4" font-family="Arial" font-size="14.00" fill="#666666">[BASE TABLE]</text>
<polygon fill="none" stroke="black" points="1950.58,-592.2 1950.58,-623 2254.53,-623 2254.53,-592.2 1950.58,-592.2"/>
<text text-anchor="start" x="1957.58" y="-604.4" font-family="Arial" font-size="14.00">channel_id </text>
<text text-anchor="start" x="2029.19" y="-604.4" font-family="Arial" font-size="14.00" fill="#666666">[bigint]</text>
<polygon fill="none" stroke="black" points="1950.58,-561.4 1950.58,-592.2 2254.53,-592.2 2254.53,-561.4 1950.58,-561.4"/>
<text text-anchor="start" x="1957.58" y="-573.6" font-family="Arial" font-size="14.00">user_id </text>
<text text-anchor="start" x="2007.39" y="-573.6" font-family="Arial" font-size="14.00" fill="#666666">[bigint]</text>
</g>
<!-- public.dm_participants&#45;&gt;public.users -->
<g id="edge6" class="edge">
<title>public.dm_participants:user_id&#45;&gt;public.users:id</title>
<path fill="none" stroke="black" d="M2265.58,-576.2C2328.2,-568.09 2282.29,-480.02 2306.56,-410.4 2327.48,-350.37 2295.14,-277.2 2358.72,-277.2"/>
<polygon fill="black" stroke="black" points="2265.85,-576.18 2255.6,-572.29 2260.52,-576.5 2256.2,-576.76 2256.2,-576.76 2256.2,-576.76 2260.52,-576.5 2256.14,-581.27 2265.85,-576.18"/>
<text text-anchor="start" x="2262.53" y="-586.8" font-family="Arial" font-size="10.00">FOREIGN KEY (user_id) REFERENCES users(id) ON DELETE CASCADE</text>
</g>
<!-- public.dm_pairs -->
<g id="node8" class="node">
<title>public.dm_pairs</title>
<polygon fill="#efefef" stroke="none" points="2359.07,-638.4 2359.07,-674 2614.04,-674 2614.04,-638.4 2359.07,-638.4"/>
<polygon fill="none" stroke="black" points="2359.07,-638.4 2359.07,-674 2614.04,-674 2614.04,-638.4 2359.07,-638.4"/>
<text text-anchor="start" x="2366.07" y="-651.8" font-family="Arial Bold" font-size="18.00">public.dm_pairs</text>
<text text-anchor="start" x="2482.55" y="-651.8" font-family="Arial" font-size="14.00">    </text>
<text text-anchor="start" x="2513.67" y="-651.8" font-family="Arial" font-size="14.00" fill="#666666">[BASE TABLE]</text>
<polygon fill="none" stroke="black" points="2359.07,-607.6 2359.07,-638.4 2614.04,-638.4 2614.04,-607.6 2359.07,-607.6"/>
<text text-anchor="start" x="2366.07" y="-619.8" font-family="Arial" font-size="14.00">user_low </text>
<text text-anchor="start" x="2425.99" y="-619.8" font-family="Arial" font-size="14.00" fill="#666666">[bigint]</text>
<polygon fill="none" stroke="black" points="2359.07,-576.8 2359.07,-607.6 2614.04,-607.6 2614.04,-576.8 2359.07,-576.8"/>
<text text-anchor="start" x="2366.07" y="-589" font-family="Arial" font-size="14.00">user_high </text>
<text text-anchor="start" x="2431.45" y="-589" font-family="Arial" font-size="14.00" fill="#666666">[bigint]</text>
<polygon fill="none" stroke="black" points="2359.07,-546 2359.07,-576.8 2614.04,-576.8 2614.04,-546 2359.07,-546"/>
<text text-anchor="start" x="2366.07" y="-558.2" font-family="Arial" font-size="14.00">channel_id </text>
<text text-anchor="start" x="2437.69" y="-558.2" font-family="Arial" font-size="14.00" fill="#666666">[bigint]</text>
</g>
<!-- public.dm_pairs&#45;&gt;public.users -->
<g id="edge7" class="edge">
<title>public.dm_pairs:user_high&#45;&gt;public.users:id</title>
<path fill="none" stroke="black" d="M2623.11,-585.91C2649.69,-541.51 2646.46,-277.2 2614.4,-277.2"/>
<polygon fill="black" stroke="black" points="2623.19,-585.84 2612.54,-588.45 2618.99,-589.12 2615.57,-591.79 2615.57,-591.79 2615.57,-591.79 2618.99,-589.12 2618.07,-595.54 2623.19,-585.84"/>
<text text-anchor="start" x="2442.5" y="-576.2" font-family="Arial" font-size="10.00">FOREIGN KEY (user_high) REFERENCES users(id) ON DELETE CASCADE</text>
</g>
<!-- public.dm_pairs&#45;&gt;public.users -->
<g id="edge8" class="edge">
<title>public.dm_pairs:user_low&#45;&gt;public.users:id</title>
<path fill="none" stroke="black" d="M2623.33,-617C2653.13,-571.08 2649.82,-277.2 2614.4,-277.2"/>
<polygon fill="black" stroke="black" points="2623.41,-616.94 2612.68,-619.16 2619.09,-620.07 2615.58,-622.61 2615.58,-622.61 2615.58,-622.61 2619.09,-620.07 2617.95,-626.45 2623.41,-616.94"/>
<text text-anchor="start" x="2266.86" y="-633" font-family="Arial" font-size="10.00">FOREIGN KEY (user_low) REFERENCES users(id) ON DELETE CASCADE</text>
</g>
<!-- public.channel_reads -->
<g id="node9" class="node">
<title>public.channel_reads</title>
<polygon fill="#efefef" stroke="none" points="2718.09,-669.2 2718.09,-704.8 3009.02,-704.8 3009.02,-669.2 2718.09,-669.2"/>
<polygon fill="none" stroke="black" points="2718.09,-669.2 2718.09,-704.8 3009.02,-704.8 3009.02,-669.2 2718.09,-669.2"/>
<text text-anchor="start" x="2725.09" y="-682.6" font-family="Arial Bold" font-size="18.00">public.channel_reads</text>
<text text-anchor="start" x="2877.53" y="-682.6" font-family="Arial" font-size="14.00">    </text>
<text text-anchor="start" x="2908.65" y="-682.6" font-family="Arial" font-size="14.00" fill="#666666">[BASE TABLE]</text>
<polygon fill="none" stroke="black" points="2718.09,-638.4 2718.09,-669.2 3009.02,-669.2 3009.02,-638.4 2718.09,-638.4"/>
<text text-anchor="start" x="2725.09" y="-650.6" font-family="Arial" font-size="14.00">channel_id </text>
<text text-anchor="start" x="2796.71" y="-650.6" font-family="Arial" font-size="14.00" fill="#666666">[bigint]</text>
<polygon fill="none" stroke="black" points="2718.09,-607.6 2718.09,-638.4 3009.02,-638.4 3009.02,-607.6 2718.09,-607.6"/>
<text text-anchor="start" x="2725.09" y="-619.8" font-family="Arial" font-size="14.00">user_id </text>
<text text-anchor="start" x="2774.9" y="-619.8" font-family="Arial" font-size="14.00" fill="#666666">[bigint]</text>
<polygon fill="none" stroke="black" points="2718.09,-576.8 2718.09,-607.6 3009.02,-607.6 3009.02,-576.8 2718.09,-576.8"/>
<text text-anchor="start" x="2725.09" y="-589" font-family="Arial" font-size="14.00">last_read_message_id </text>
<text text-anchor="start" x="2869.85" y="-589" font-family="Arial" font-size="14.00" fill="#666666">[bigint]</text>
<polygon fill="none" stroke="black" points="2718.09,-546 2718.09,-576.8 3009.02,-576.8 3009.02,-546 2718.09,-546"/>
<text text-anchor="start" x="2725.09" y="-558.2" font-family="Arial" font-size="14.00">last_client_seq </text>
<text text-anchor="start" x="2821.6" y="-558.2" font-family="Arial" font-size="14.00" fill="#666666">[bigint]</text>
<polygon fill="none" stroke="black" points="2718.09,-515.2 2718.09,-546 3009.02,-546 3009.02,-515.2 2718.09,-515.2"/>
<text text-anchor="start" x="2725.09" y="-527.4" font-family="Arial" font-size="14.00">updated_at </text>
<text text-anchor="start" x="2799.05" y="-527.4" font-family="Arial" font-size="14.00" fill="#666666">[timestamp with time zone]</text>
</g>
<!-- public.channel_reads&#45;&gt;public.users -->
<g id="edge9" class="edge">
<title>public.channel_reads:user_id&#45;&gt;public.users:id</title>
<path fill="none" stroke="black" d="M2707.26,-620.37C2670.24,-598.98 2679.99,-453.3 2666.56,-410.4 2647.57,-349.72 2677.98,-277.2 2614.4,-277.2"/>
<polygon fill="black" stroke="black" points="2707.11,-620.33 2715.61,-627.26 2712.26,-621.71 2716.45,-622.83 2716.45,-622.83 2716.45,-622.83 2712.26,-621.71 2717.93,-618.57 2707.11,-620.33"/>
<text text-anchor="start" x="2724.09" y="-633" font-family="Arial" font-size="10.00">FOREIGN KEY (user_id) REFERENCES users(id) ON DELETE CASCADE</text>
</g>
<!-- public.audit_logs -->
<g id="node10" class="node">
<title>public.audit_logs</title>
<polygon fill="#efefef" stroke="none" points="3113.07,-715.4 3113.07,-751 3376.05,-751 3376.05,-715.4 3113.07,-715.4"/>
<polygon fill="none" stroke="black" points="3113.07,-715.4 3113.07,-751 3376.05,-751 3376.05,-715.4 3113.07,-715.4"/>
<text text-anchor="start" x="3120.07" y="-728.8" font-family="Arial Bold" font-size="18.00">public.audit_logs</text>
<text text-anchor="start" x="3244.56" y="-728.8" font-family="Arial" font-size="14.00">    </text>
<text text-anchor="start" x="3275.67" y="-728.8" font-family="Arial" font-size="14.00" fill="#666666">[BASE TABLE]</text>
<polygon fill="none" stroke="black" points="3113.07,-684.6 3113.07,-715.4 3376.05,-715.4 3376.05,-684.6 3113.07,-684.6"/>
<text text-anchor="start" x="3120.07" y="-696.8" font-family="Arial" font-size="14.00">id </text>
<text text-anchor="start" x="3134.85" y="-696.8" font-family="Arial" font-size="14.00" fill="#666666">[bigint]</text>
<polygon fill="none" stroke="black" points="3113.07,-653.8 3113.07,-684.6 3376.05,-684.6 3376.05,-653.8 3113.07,-653.8"/>
<text text-anchor="start" x="3120.07" y="-666" font-family="Arial" font-size="14.00">guild_id </text>
<text text-anchor="start" x="3172.22" y="-666" font-family="Arial" font-size="14.00" fill="#666666">[bigint]</text>
<polygon fill="none" stroke="black" points="3113.07,-623 3113.07,-653.8 3376.05,-653.8 3376.05,-623 3113.07,-623"/>
<text text-anchor="start" x="3120.07" y="-635.2" font-family="Arial" font-size="14.00">actor_id </text>
<text text-anchor="start" x="3173.77" y="-635.2" font-family="Arial" font-size="14.00" fill="#666666">[bigint]</text>
<polygon fill="none" stroke="black" points="3113.07,-592.2 3113.07,-623 3376.05,-623 3376.05,-592.2 3113.07,-592.2"/>
<text text-anchor="start" x="3120.07" y="-604.4" font-family="Arial" font-size="14.00">action </text>
<text text-anchor="start" x="3161.32" y="-604.4" font-family="Arial" font-size="14.00" fill="#666666">[audit_action]</text>
<polygon fill="none" stroke="black" points="3113.07,-561.4 3113.07,-592.2 3376.05,-592.2 3376.05,-561.4 3113.07,-561.4"/>
<text text-anchor="start" x="3120.07" y="-573.6" font-family="Arial" font-size="14.00">target_type </text>
<text text-anchor="start" x="3194.01" y="-573.6" font-family="Arial" font-size="14.00" fill="#666666">[text]</text>
<polygon fill="none" stroke="black" points="3113.07,-530.6 3113.07,-561.4 3376.05,-561.4 3376.05,-530.6 3113.07,-530.6"/>
<text text-anchor="start" x="3120.07" y="-542.8" font-family="Arial" font-size="14.00">target_id </text>
<text text-anchor="start" x="3178.44" y="-542.8" font-family="Arial" font-size="14.00" fill="#666666">[bigint]</text>
<polygon fill="none" stroke="black" points="3113.07,-499.8 3113.07,-530.6 3376.05,-530.6 3376.05,-499.8 3113.07,-499.8"/>
<text text-anchor="start" x="3120.07" y="-512" font-family="Arial" font-size="14.00">metadata </text>
<text text-anchor="start" x="3182.33" y="-512" font-family="Arial" font-size="14.00" fill="#666666">[jsonb]</text>
<polygon fill="none" stroke="black" points="3113.07,-469 3113.07,-499.8 3376.05,-499.8 3376.05,-469 3113.07,-469"/>
<text text-anchor="start" x="3120.07" y="-481.2" font-family="Arial" font-size="14.00">created_at </text>
<text text-anchor="start" x="3190.12" y="-481.2" font-family="Arial" font-size="14.00" fill="#666666">[timestamp with time zone]</text>
</g>
<!-- public.audit_logs&#45;&gt;public.users -->
<g id="edge10" class="edge">
<title>public.audit_logs:actor_id&#45;&gt;public.users:id</title>
<path fill="none" stroke="black" d="M3101.69,-637.82C3016.99,-627.51 3129.72,-483.62 3061.56,-410.4 2990.91,-334.51 2718.08,-277.2 2614.4,-277.2"/>
<polygon fill="black" stroke="black" points="3101.75,-637.82 3111.48,-642.87 3107.08,-638.12 3111.4,-638.36 3111.4,-638.36 3111.4,-638.36 3107.08,-638.12 3111.99,-633.89 3101.75,-637.82"/>
<text text-anchor="start" x="3119.07" y="-648.4" font-family="Arial" font-size="10.00">FOREIGN KEY (actor_id) REFERENCES users(id) ON DELETE SET NULL</text>
</g>
<!-- public.auth_identities -->
<g id="node11" class="node">
<title>public.auth_identities</title>
<polygon fill="#efefef" stroke="none" points="3480.58,-669.2 3480.58,-704.8 3774.54,-704.8 3774.54,-669.2 3480.58,-669.2"/>
<polygon fill="none" stroke="black" points="3480.58,-669.2 3480.58,-704.8 3774.54,-704.8 3774.54,-669.2 3480.58,-669.2"/>
<text text-anchor="start" x="3487.58" y="-682.6" font-family="Arial Bold" font-size="18.00">public.auth_identities</text>
<text text-anchor="start" x="3643.05" y="-682.6" font-family="Arial" font-size="14.00">    </text>
<text text-anchor="start" x="3674.17" y="-682.6" font-family="Arial" font-size="14.00" fill="#666666">[BASE TABLE]</text>
<polygon fill="none" stroke="black" points="3480.58,-638.4 3480.58,-669.2 3774.54,-669.2 3774.54,-638.4 3480.58,-638.4"/>
<text text-anchor="start" x="3487.58" y="-650.6" font-family="Arial" font-size="14.00">provider </text>
<text text-anchor="start" x="3542.05" y="-650.6" font-family="Arial" font-size="14.00" fill="#666666">[text]</text>
<polygon fill="none" stroke="black" points="3480.58,-607.6 3480.58,-638.4 3774.54,-638.4 3774.54,-607.6 3480.58,-607.6"/>
<text text-anchor="start" x="3487.58" y="-619.8" font-family="Arial" font-size="14.00">provider_subject </text>
<text text-anchor="start" x="3594.19" y="-619.8" font-family="Arial" font-size="14.00" fill="#666666">[text]</text>
<polygon fill="none" stroke="black" points="3480.58,-576.8 3480.58,-607.6 3774.54,-607.6 3774.54,-576.8 3480.58,-576.8"/>
<text text-anchor="start" x="3487.58" y="-589" font-family="Arial" font-size="14.00">principal_id </text>
<text text-anchor="start" x="3562.29" y="-589" font-family="Arial" font-size="14.00" fill="#666666">[bigint]</text>
<polygon fill="none" stroke="black" points="3480.58,-546 3480.58,-576.8 3774.54,-576.8 3774.54,-546 3480.58,-546"/>
<text text-anchor="start" x="3487.58" y="-558.2" font-family="Arial" font-size="14.00">created_at </text>
<text text-anchor="start" x="3557.63" y="-558.2" font-family="Arial" font-size="14.00" fill="#666666">[timestamp with time zone]</text>
<polygon fill="none" stroke="black" points="3480.58,-515.2 3480.58,-546 3774.54,-546 3774.54,-515.2 3480.58,-515.2"/>
<text text-anchor="start" x="3487.58" y="-527.4" font-family="Arial" font-size="14.00">updated_at </text>
<text text-anchor="start" x="3561.54" y="-527.4" font-family="Arial" font-size="14.00" fill="#666666">[timestamp with time zone]</text>
</g>
<!-- public.auth_identities&#45;&gt;public.users -->
<g id="edge11" class="edge">
<title>public.auth_identities:principal_id&#45;&gt;public.users:id</title>
<path fill="none" stroke="black" d="M3469.32,-591.46C3403.91,-581.03 3488.3,-463.83 3428.56,-410.4 3291.91,-288.19 2797.73,-277.2 2614.4,-277.2"/>
<polygon fill="black" stroke="black" points="3469.27,-591.45 3478.92,-596.66 3474.59,-591.84 3478.91,-592.15 3478.91,-592.15 3478.91,-592.15 3474.59,-591.84 3479.57,-587.69 3469.27,-591.45"/>
<text text-anchor="start" x="3120.83" y="-602.2" font-family="Arial" font-size="10.00">FOREIGN KEY (principal_id) REFERENCES users(id) ON DELETE CASCADE</text>
</g>
<!-- public.guild_member_roles_v2 -->
<g id="node12" class="node">
<title>public.guild_member_roles_v2</title>
<polygon fill="#efefef" stroke="none" points="3878.58,-669.2 3878.58,-704.8 4242.53,-704.8 4242.53,-669.2 3878.58,-669.2"/>
<polygon fill="none" stroke="black" points="3878.58,-669.2 3878.58,-704.8 4242.53,-704.8 4242.53,-669.2 3878.58,-669.2"/>
<text text-anchor="start" x="3885.58" y="-682.6" font-family="Arial Bold" font-size="18.00">public.guild_member_roles_v2</text>
<text text-anchor="start" x="4111.04" y="-682.6" font-family="Arial" font-size="14.00">    </text>
<text text-anchor="start" x="4142.16" y="-682.6" font-family="Arial" font-size="14.00" fill="#666666">[BASE TABLE]</text>
<polygon fill="none" stroke="black" points="3878.58,-638.4 3878.58,-669.2 4242.53,-669.2 4242.53,-638.4 3878.58,-638.4"/>
<text text-anchor="start" x="3885.58" y="-650.6" font-family="Arial" font-size="14.00">guild_id </text>
<text text-anchor="start" x="3937.74" y="-650.6" font-family="Arial" font-size="14.00" fill="#666666">[bigint]</text>
<polygon fill="none" stroke="black" points="3878.58,-607.6 3878.58,-638.4 4242.53,-638.4 4242.53,-607.6 3878.58,-607.6"/>
<text text-anchor="start" x="3885.58" y="-619.8" font-family="Arial" font-size="14.00">user_id </text>
<text text-anchor="start" x="3935.39" y="-619.8" font-family="Arial" font-size="14.00" fill="#666666">[bigint]</text>
<polygon fill="none" stroke="black" points="3878.58,-576.8 3878.58,-607.6 4242.53,-607.6 4242.53,-576.8 3878.58,-576.8"/>
<text text-anchor="start" x="3885.58" y="-589" font-family="Arial" font-size="14.00">role_key </text>
<text text-anchor="start" x="3942.39" y="-589" font-family="Arial" font-size="14.00" fill="#666666">[text]</text>
<polygon fill="none" stroke="black" points="3878.58,-546 3878.58,-576.8 4242.53,-576.8 4242.53,-546 3878.58,-546"/>
<text text-anchor="start" x="3885.58" y="-558.2" font-family="Arial" font-size="14.00">assigned_at </text>
<text text-anchor="start" x="3964.98" y="-558.2" font-family="Arial" font-size="14.00" fill="#666666">[timestamp with time zone]</text>
<polygon fill="none" stroke="black" points="3878.58,-515.2 3878.58,-546 4242.53,-546 4242.53,-515.2 3878.58,-515.2"/>
<text text-anchor="start" x="3885.58" y="-527.4" font-family="Arial" font-size="14.00">assigned_by </text>
<text text-anchor="start" x="3968.09" y="-527.4" font-family="Arial" font-size="14.00" fill="#666666">[bigint]</text>
</g>
<!-- public.guild_member_roles_v2&#45;&gt;public.users -->
<g id="edge12" class="edge">
<title>public.guild_member_roles_v2:assigned_by&#45;&gt;public.users:id</title>
<path fill="none" stroke="black" d="M3867.44,-529.51C3826.22,-519.46 3870.04,-442.73 3826.56,-410.4 3717.83,-329.55 2749.89,-277.2 2614.4,-277.2"/>
<polygon fill="black" stroke="black" points="3867.31,-529.49 3876.77,-535.04 3872.61,-530.06 3876.92,-530.53 3876.92,-530.53 3876.92,-530.53 3872.61,-530.06 3877.73,-526.09 3867.31,-529.49"/>
<text text-anchor="start" x="3884.58" y="-540.6" font-family="Arial" font-size="10.00">FOREIGN KEY (assigned_by) REFERENCES users(id) ON DELETE SET NULL</text>
</g>
<!-- public.channel_pins_v2 -->
<g id="node13" class="node">
<title>public.channel_pins_v2</title>
<polygon fill="#efefef" stroke="none" points="4346.58,-700 4346.58,-735.6 4656.54,-735.6 4656.54,-700 4346.58,-700"/>
<polygon fill="none" stroke="black" points="4346.58,-700 4346.58,-735.6 4656.54,-735.6 4656.54,-700 4346.58,-700"/>
<text text-anchor="start" x="4353.58" y="-713.4" font-family="Arial Bold" font-size="18.00">public.channel_pins_v2</text>
<text text-anchor="start" x="4525.05" y="-713.4" font-family="Arial" font-size="14.00">    </text>
<text text-anchor="start" x="4556.16" y="-713.4" font-family="Arial" font-size="14.00" fill="#666666">[BASE TABLE]</text>
<polygon fill="none" stroke="black" points="4346.58,-669.2 4346.58,-700 4656.54,-700 4656.54,-669.2 4346.58,-669.2"/>
<text text-anchor="start" x="4353.58" y="-681.4" font-family="Arial" font-size="14.00">channel_id </text>
<text text-anchor="start" x="4425.19" y="-681.4" font-family="Arial" font-size="14.00" fill="#666666">[bigint]</text>
<polygon fill="none" stroke="black" points="4346.58,-638.4 4346.58,-669.2 4656.54,-669.2 4656.54,-638.4 4346.58,-638.4"/>
<text text-anchor="start" x="4353.58" y="-650.6" font-family="Arial" font-size="14.00">message_id </text>
<text text-anchor="start" x="4432.96" y="-650.6" font-family="Arial" font-size="14.00" fill="#666666">[bigint]</text>
<polygon fill="none" stroke="black" points="4346.58,-607.6 4346.58,-638.4 4656.54,-638.4 4656.54,-607.6 4346.58,-607.6"/>
<text text-anchor="start" x="4353.58" y="-619.8" font-family="Arial" font-size="14.00">pinned_at </text>
<text text-anchor="start" x="4418.97" y="-619.8" font-family="Arial" font-size="14.00" fill="#666666">[timestamp with time zone]</text>
<polygon fill="none" stroke="black" points="4346.58,-576.8 4346.58,-607.6 4656.54,-607.6 4656.54,-576.8 4346.58,-576.8"/>
<text text-anchor="start" x="4353.58" y="-589" font-family="Arial" font-size="14.00">pinned_by </text>
<text text-anchor="start" x="4422.08" y="-589" font-family="Arial" font-size="14.00" fill="#666666">[bigint]</text>
<polygon fill="none" stroke="black" points="4346.58,-546 4346.58,-576.8 4656.54,-576.8 4656.54,-546 4346.58,-546"/>
<text text-anchor="start" x="4353.58" y="-558.2" font-family="Arial" font-size="14.00">unpinned_at </text>
<text text-anchor="start" x="4434.54" y="-558.2" font-family="Arial" font-size="14.00" fill="#666666">[timestamp with time zone]</text>
<polygon fill="none" stroke="black" points="4346.58,-515.2 4346.58,-546 4656.54,-546 4656.54,-515.2 4346.58,-515.2"/>
<text text-anchor="start" x="4353.58" y="-527.4" font-family="Arial" font-size="14.00">unpinned_by </text>
<text text-anchor="start" x="4437.66" y="-527.4" font-family="Arial" font-size="14.00" fill="#666666">[bigint]</text>
<polygon fill="none" stroke="black" points="4346.58,-484.4 4346.58,-515.2 4656.54,-515.2 4656.54,-484.4 4346.58,-484.4"/>
<text text-anchor="start" x="4353.58" y="-496.6" font-family="Arial" font-size="14.00">updated_at </text>
<text text-anchor="start" x="4427.54" y="-496.6" font-family="Arial" font-size="14.00" fill="#666666">[timestamp with time zone]</text>
</g>
<!-- public.channel_pins_v2&#45;&gt;public.users -->
<g id="edge13" class="edge">
<title>public.channel_pins_v2:pinned_by&#45;&gt;public.users:id</title>
<path fill="none" stroke="black" d="M4335.34,-591.44C4270.11,-580.81 4356.47,-461.31 4294.56,-410.4 4149.91,-291.46 2801.67,-277.2 2614.4,-277.2"/>
<polygon fill="black" stroke="black" points="4335.27,-591.44 4344.91,-596.66 4340.59,-591.83 4344.91,-592.15 4344.91,-592.15 4344.91,-592.15 4340.59,-591.83 4345.58,-587.69 4335.27,-591.44"/>
<text text-anchor="start" x="3991.82" y="-602.2" font-family="Arial" font-size="10.00">FOREIGN KEY (pinned_by) REFERENCES users(id) ON DELETE SET NULL</text>
</g>
<!-- public.channel_pins_v2&#45;&gt;public.users -->
<g id="edge14" class="edge">
<title>public.channel_pins_v2:unpinned_by&#45;&gt;public.users:id</title>
<path fill="none" stroke="black" d="M4335.44,-529.5C4294.28,-519.37 4338.52,-442.07 4294.56,-410.4 4142.61,-300.94 2801.67,-277.2 2614.4,-277.2"/>
<polygon fill="black" stroke="black" points="4335.31,-529.48 4344.76,-535.04 4340.61,-530.06 4344.92,-530.53 4344.92,-530.53 4344.92,-530.53 4340.61,-530.06 4345.73,-526.09 4335.31,-529.48"/>
<text text-anchor="start" x="4352.58" y="-540.6" font-family="Arial" font-size="10.00">FOREIGN KEY (unpinned_by) REFERENCES users(id) ON DELETE SET NULL</text>
</g>
</g>
</svg>
